<svg width="100" height="70" viewBox="0 0 100 70" fill="none" xmlns="http://www.w3.org/2000/svg">
<path d="M48.4217 53.1308C47.3379 53.9864 45.4983 54.9704 43.6017 55.441L43.5018 55.2984C44.9136 54.4285 46.4823 52.76 47.0669 51.7475L49.1632 52.8741C49.0776 53.0595 48.8637 53.1593 48.4217 53.1308ZM51.5732 52.2039C57.2203 52.318 57.0064 55.7119 55.1668 55.2413C54.354 54.2431 52.6855 53.0025 51.4734 52.3322L51.5732 52.2039ZM51.5447 49.4374C51.5161 49.637 51.4021 49.7796 51.017 49.8367V55.4552C51.017 55.5836 50.247 55.8973 49.5482 55.8973H49.2345V49.2377L51.5447 49.4374ZM55.0527 49.7083C55.0527 49.7083 56.0937 50.5354 56.7069 51.1058C56.6784 51.2627 56.5215 51.334 56.3219 51.334H43.9154L43.8013 50.9347H54.14L55.0527 49.7083ZM56.4074 42.7065C56.3932 42.9204 56.2506 43.0345 55.9226 43.0915V48.3108C55.9226 49.3803 55.6802 49.9365 53.8834 50.0791C53.8406 49.637 53.7693 49.2948 53.5696 49.0809C53.37 48.8812 53.0848 48.7101 52.4288 48.6103V48.4106C52.4288 48.4106 53.7835 48.4962 54.0545 48.4962C54.2541 48.4962 54.3254 48.4391 54.3254 48.268V42.5211L56.4074 42.7065ZM47.9368 46.4855C51.7871 46.7849 50.7176 49.5372 49.2488 48.6673C49.0348 47.9258 48.3646 47.0844 47.8227 46.5853L47.9368 46.4855ZM50.4181 43.9186C50.2612 44.047 49.9475 44.0327 49.5625 43.8758C48.1222 44.104 45.8548 44.3037 43.9582 44.3464L43.9154 44.1468C45.6266 43.7475 47.8512 43.006 49.0063 42.4926L50.4181 43.9186ZM47.7942 45.7867C47.0384 47.4694 45.5553 48.7671 43.5874 49.6655L43.4591 49.4659C44.6854 48.4677 45.5696 47.0131 46.0259 45.5586H47.7942V45.7867ZM48.1222 49.8509C48.1222 49.9507 47.6231 50.2787 46.8388 50.2787H46.5536V43.8188L48.1222 43.4338V49.8509ZM49.4912 44.5889C49.4912 44.5889 50.3468 45.2306 50.8887 45.7012C50.8459 45.858 50.689 45.9293 50.5037 45.9293H43.7443L43.6302 45.5158H48.7496L49.4912 44.5889ZM53.3985 43.5193C53.3842 43.6905 53.2702 43.8188 52.9279 43.8758V47.5407C52.9279 47.6548 52.2577 47.8973 51.6873 47.8973H51.4163V43.3339L53.3985 43.5193Z" fill="#333333"/>
<path d="M18.0674 26.3496H14.6797V59.4736H18.0674V26.3496Z" fill="#073763"/>
<path d="M33.3887 26.7012H22.5391V59.5327H33.3887V26.7012Z" fill="#1F191A"/>
<path d="M81.3037 59.4727H84.6914V26.3487H81.3037V59.4727Z" fill="#073763"/>
<path d="M66.0976 59.5332H76.9473V26.7017H66.0976V59.5332Z" fill="#1F191A"/>
<path d="M99.4426 19.268L99.0291 13.209L96.6863 15.0543C93.1633 17.8293 88.1052 17.4582 85.0249 14.1989L84.0893 13.209H15.3697L14.4341 14.1989C11.3538 17.4582 6.29568 17.8293 2.77272 15.0543L0.42988 13.209L0.0164716 19.268C-0.257856 23.2884 2.92946 26.7006 6.95918 26.7006H92.4998C96.5295 26.7006 99.7169 23.2884 99.4426 19.268Z" fill="#CB4847"/>
<path d="M96.4329 25.3086C95.576 26.0098 94.4852 26.3214 93.0829 26.3214H6.40528C5.00293 26.3214 3.91225 26.0098 3.05524 25.3086C3.05524 25.3086 2.42939 28.6227 7.10645 28.6227H92.3818C97.0589 28.6227 96.4329 25.3086 96.4329 25.3086Z" fill="#1F191A"/>
<path d="M80.5586 7.20312H18.9295L15.3691 13.2099H84.1189L80.5586 7.20312Z" fill="#1F191A"/>
<path d="M84.9063 0C83.4346 1.20421 81.5614 1.73938 79.1529 1.73938H20.3365C17.9281 1.73938 16.0549 1.20421 14.5831 0C14.5831 0 13.5082 5.69168 21.5407 5.69168H77.9488C85.9813 5.69168 84.9063 0 84.9063 0Z" fill="#CB4847"/>
<path d="M49.7307 38.7933C43.5952 38.7933 38.6035 33.8017 38.6035 27.6663C38.6035 21.5307 43.5952 16.5391 49.7307 16.5391C55.8661 16.5391 60.8579 21.5307 60.8579 27.6663C60.8579 33.8017 55.8661 38.7933 49.7307 38.7933Z" fill="white"/>
<path d="M49.7308 17.1038C55.5643 17.1038 60.2933 21.8328 60.2933 27.6664C60.2933 33.4999 55.5643 38.2289 49.7308 38.2289C43.8973 38.2289 39.1683 33.4999 39.1683 27.6664C39.1683 21.8328 43.8973 17.1038 49.7308 17.1038ZM49.7308 15.9746C43.284 15.9746 38.0391 21.2195 38.0391 27.6664C38.0391 34.1132 43.284 39.3581 49.7308 39.3581C56.1777 39.3581 61.4225 34.1132 61.4225 27.6664C61.4225 21.2195 56.1777 15.9746 49.7308 15.9746Z" fill="#1F191A"/>
<path d="M59.0096 28.7171C59.59 23.5922 55.9066 18.967 50.7817 18.3864C45.657 17.8057 41.0318 21.4896 40.4514 26.6144C40.016 30.4578 42.7787 33.9266 46.6224 34.3621C55.2384 34.3621 59.0096 28.7171 59.0096 28.7171Z" fill="#CB4847"/>
<path d="M40.4509 26.6144C40.1603 29.1767 42.0022 31.4891 44.5646 31.7793C47.1269 32.0698 49.4395 30.2279 49.73 27.6656C50.0204 25.1031 52.3326 23.2613 54.8954 23.5516C57.4575 23.8419 59.2995 26.1545 59.0091 28.717C58.4283 33.8415 53.8032 37.5253 48.6786 36.9446C43.5537 36.3642 39.8701 31.7391 40.4509 26.6144Z" fill="#073763"/>
<path d="M50.547 28.7376C50.442 28.9695 49.8134 29.137 49.9872 28.5139V28.398L49.7015 27.7458L49.3655 28.2095C49.3952 28.2492 49.4177 28.2942 49.429 28.344C49.4512 28.4337 49.5496 28.7041 49.1416 28.7892C48.9712 28.8247 48.5817 28.4414 49.0296 28.2095C49.1122 28.1828 49.1613 28.183 49.2536 28.2095L49.5895 27.7458H48.8057C48.6937 27.9777 48.2458 28.2095 48.1338 27.7458C48.1338 27.5139 48.3578 27.0734 48.8057 27.6299H49.5895L49.2536 27.1661C48.9176 27.1661 48.6937 26.8183 48.9176 26.5865C49.1918 26.4024 49.5895 26.4705 49.429 27.0946L49.7015 27.5139L50.0374 27.0502C49.8134 26.8183 49.9254 26.3546 50.3733 26.4705C50.7092 26.5865 50.5972 27.1661 50.1935 27.0946L49.8134 27.6299L50.547 27.5139C50.6552 27.3462 50.8212 27.1661 51.0451 27.398C51.1362 27.5692 51.0835 28.115 50.5753 27.7088L49.8134 27.7458L50.1493 28.3255C50.1493 28.3255 50.686 28.3319 50.547 28.7376Z" fill="#EEB985"/>
<path fill-rule="evenodd" clip-rule="evenodd" d="M46.5161 22.1377C47.6358 22.7174 48.4196 24.5723 48.4196 25.036C48.0464 24.2245 46.9416 22.5551 45.5083 22.3696C44.6872 22.3696 43.1569 22.9028 43.6048 25.036C42.5969 25.8475 41.8132 27.3546 43.6048 28.7458C44.1646 28.2821 45.5978 27.4706 46.8519 27.9343C45.717 28.062 44.5005 28.5139 43.7415 29.6733C43.2507 30.7438 43.4876 30.9564 44.1062 31.5116C44.2245 31.6177 44.3567 31.7364 44.5005 31.876C44.3512 33.4217 44.9932 36.0031 48.7555 33.9627C48.4196 32.8421 47.9941 30.5311 48.9794 30.2529C48.5689 31.4895 48.4867 34.1714 51.4428 35.0061C51.6668 35.0061 52.249 34.7974 52.7865 33.9627C53.7196 34.1946 55.4739 33.7772 55.026 30.2529C54.2048 30.2916 52.3834 30.0906 51.6668 28.9777C52.0252 29.3903 53.3966 29.7166 54.0182 29.6733C54.8522 29.6007 56.4668 29.0632 56.9295 28.1661C57.0788 27.857 57.3326 26.9605 57.1535 25.8475C57.0415 25.6543 56.5712 25.2215 55.5858 25.036C55.6232 24.3018 55.2723 22.9028 53.5703 23.1811C53.2344 23.9926 52.3386 25.662 51.4428 25.8475C52.3013 24.9201 53.7047 22.671 52.4506 21.0943C51.9654 20.5147 50.6814 19.7031 49.4273 21.0943C48.9048 20.3987 47.591 19.6336 46.5161 22.1377ZM49.9872 28.5139C49.8134 29.137 50.442 28.9695 50.547 28.7376C50.686 28.3319 50.1493 28.3255 50.1493 28.3255L49.8134 27.7458L50.5753 27.7088C51.0835 28.115 51.1362 27.5692 51.0451 27.398C50.8212 27.1661 50.6552 27.3462 50.547 27.5139L49.8134 27.6299L50.1935 27.0946C50.5972 27.1661 50.7092 26.5865 50.3733 26.4705C49.9254 26.3546 49.8134 26.8183 50.0374 27.0502L49.7015 27.5139L49.429 27.0946C49.5895 26.4705 49.1918 26.4024 48.9176 26.5865C48.6937 26.8183 48.9176 27.1661 49.2536 27.1661L49.5895 27.6299H48.8057C48.3578 27.0734 48.1338 27.5139 48.1338 27.7458C48.2458 28.2095 48.6937 27.9777 48.8057 27.7458H49.5895L49.2536 28.2095C49.1613 28.183 49.1122 28.1828 49.0296 28.2095C48.5817 28.4414 48.9712 28.8247 49.1416 28.7892C49.5496 28.7041 49.4512 28.4337 49.429 28.344C49.4177 28.2942 49.3952 28.2492 49.3655 28.2095L49.7015 27.7458L49.9872 28.398V28.5139Z" fill="#F6F1ED"/>
<path d="M96.9852 59.084C99.9092 59.3202 99.3233 61.4458 99.3233 62.9219C99.3233 64.398 96.9852 64.3536 96.9852 64.3536L2.25781 62.6267V59.3792L96.9852 59.084Z" fill="#C3A988"/>
<path d="M4.64374 70C1.71967 69.747 2.30563 67.4695 2.30563 65.888C2.30563 64.3064 4.64374 64.354 4.64374 64.354L99.3711 66.2043V69.6837L4.64374 70Z" fill="#C3A988"/>
</svg>
