<svg width="24" height="24" viewBox="0 0 24 24" fill="none" xmlns="http://www.w3.org/2000/svg">
<path d="M3 11C3 7.229 3 5.343 4.172 4.172C5.343 3 7.229 3 11 3H13C16.771 3 18.657 3 19.828 4.172C21 5.343 21 7.229 21 11V13C21 16.771 21 18.657 19.828 19.828C18.657 21 16.771 21 13 21H11C7.229 21 5.343 21 4.172 19.828C3 18.657 3 16.771 3 13V11Z" stroke="#111111" stroke-width="2"/>
<path fill-rule="evenodd" clip-rule="evenodd" d="M19 13.5856L18.98 13.5656C18.59 13.1756 18.254 12.8396 17.954 12.5866C17.637 12.3196 17.292 12.0846 16.866 11.9566C16.3012 11.7863 15.6988 11.7863 15.134 11.9566C14.708 12.0856 14.364 12.3196 14.046 12.5866C13.746 12.8396 13.41 13.1766 13.021 13.5666L12.992 13.5946C12.685 13.9006 12.505 14.0806 12.364 14.1956L12.344 14.2126L12.332 14.1896C12.245 14.0296 12.143 13.7966 11.972 13.3976L11.919 13.2736L11.897 13.2216C11.541 12.3916 11.242 11.6936 10.947 11.1676C10.642 10.6266 10.262 10.1176 9.67 9.82163C9.17609 9.57421 8.62345 9.46797 8.073 9.51463C7.413 9.56963 6.872 9.90063 6.388 10.2896C5.982 10.6166 5.528 11.0596 5 11.5866V13.0006C5 13.5176 5 13.9856 5.003 14.4116L6.117 13.2976C6.807 12.6076 7.267 12.1506 7.642 11.8476C8.012 11.5496 8.172 11.5126 8.242 11.5076C8.42534 11.492 8.60943 11.5273 8.774 11.6096C8.835 11.6406 8.97 11.7336 9.204 12.1496C9.44 12.5696 9.697 13.1656 10.081 14.0616L10.134 14.1856L10.151 14.2236C10.3 14.5716 10.438 14.8936 10.576 15.1476C10.721 15.4126 10.931 15.7306 11.285 15.9496C11.7021 16.2081 12.1997 16.3042 12.683 16.2196C13.093 16.1466 13.406 15.9296 13.639 15.7376C13.861 15.5536 14.109 15.3056 14.377 15.0376L14.407 15.0076C14.832 14.5826 15.108 14.3076 15.335 14.1166C15.553 13.9326 15.655 13.8886 15.711 13.8716C15.8995 13.8147 16.1005 13.8147 16.289 13.8716C16.345 13.8886 16.447 13.9326 16.665 14.1166C16.892 14.3076 17.168 14.5826 17.594 15.0086L18.944 16.3586C18.99 15.6406 18.998 14.7486 19 13.5856Z" fill="#111111"/>
<path d="M16.5 9C17.3284 9 18 8.32843 18 7.5C18 6.67157 17.3284 6 16.5 6C15.6716 6 15 6.67157 15 7.5C15 8.32843 15.6716 9 16.5 9Z" fill="#111111"/>
</svg>
