<svg width="27" height="27" viewBox="0 0 27 27" fill="none" xmlns="http://www.w3.org/2000/svg">
<path d="M13.1968 25.7547C6.27221 25.7547 0.638672 20.1212 0.638672 13.1968C0.638672 6.27222 6.27221 0.638672 13.1968 0.638672C20.1212 0.638672 25.7549 6.27222 25.7549 13.1968C25.7549 20.1212 20.1212 25.7547 13.1968 25.7547Z" fill="white"/>
<path d="M13.1952 1.27444C19.7789 1.27444 25.116 6.61158 25.116 13.1953C25.116 19.7789 19.7789 25.1161 13.1952 25.1161C6.61158 25.1161 1.27444 19.7789 1.27444 13.1953C1.27444 6.61158 6.61158 1.27444 13.1952 1.27444ZM13.1952 0C5.91936 0 0 5.91936 0 13.1953C0 20.4711 5.91936 26.3905 13.1952 26.3905C20.4711 26.3905 26.3905 20.4711 26.3905 13.1953C26.3905 5.91936 20.4711 0 13.1952 0Z" fill="#1F191A"/>
<path d="M23.6598 14.3794C24.3148 8.59561 20.1577 3.37559 14.3738 2.72032C8.59002 2.06492 3.37004 6.22256 2.71502 12.0064C2.2236 16.3441 5.3416 20.2589 9.67962 20.7504C19.4036 20.7504 23.6598 14.3794 23.6598 14.3794Z" fill="#CB4847"/>
<path d="M2.72033 12.0063C2.39246 14.8981 4.47115 17.5078 7.36307 17.8354C10.2549 18.1632 12.8649 16.0844 13.1927 13.1926C13.5205 10.3006 16.13 8.22198 19.0223 8.5496C21.914 8.87726 23.9928 11.4873 23.6651 14.3793C23.0096 20.1628 17.7898 24.3203 12.0061 23.6649C6.22219 23.0099 2.06492 17.79 2.72033 12.0063Z" fill="#073763"/>
<path d="M14.1125 14.4072C13.994 14.6689 13.2845 14.8579 13.4806 14.1547V14.0239L13.1582 13.2878L12.779 13.8112C12.8126 13.8559 12.838 13.9067 12.8507 13.9629C12.8757 14.0642 12.9868 14.3694 12.5263 14.4654C12.3341 14.5055 11.8944 14.0729 12.3999 13.8112C12.4931 13.781 12.5486 13.7813 12.6527 13.8112L13.0318 13.2878H12.1472C12.0208 13.5495 11.5153 13.8112 11.3889 13.2878C11.3889 13.0261 11.6417 12.5289 12.1472 13.157H13.0318L12.6527 12.6336C12.2736 12.6336 12.0208 12.2411 12.2736 11.9794C12.5829 11.7717 13.0318 11.8486 12.8507 12.5529L13.1582 13.0261L13.5373 12.5028C13.2845 12.2411 13.4109 11.7177 13.9164 11.8486C14.2955 11.9794 14.1691 12.6336 13.7134 12.5529L13.2845 13.157L14.1125 13.0261C14.2345 12.8368 14.4219 12.6336 14.6746 12.8953C14.7774 13.0885 14.7179 13.7045 14.1444 13.2461L13.2845 13.2878L13.6636 13.942C13.6636 13.942 14.2694 13.9493 14.1125 14.4072Z" fill="#EEB985"/>
<path fill-rule="evenodd" clip-rule="evenodd" d="M9.56314 6.95854C10.8269 7.61274 11.7115 9.70618 11.7115 10.2295C11.2902 9.31366 10.0434 7.42957 8.42579 7.22022C7.49905 7.22022 5.77196 7.82209 6.27745 10.2295C5.14004 11.1454 4.2555 12.8463 6.27745 14.4164C6.90928 13.8931 8.52679 12.9772 9.94221 13.5005C8.66129 13.6447 7.28838 14.1547 6.43182 15.4631C5.87783 16.6714 6.14519 16.9113 6.84339 17.5378C6.97688 17.6576 7.12612 17.7916 7.28838 17.9491C7.11989 19.6936 7.84442 22.607 12.0905 20.3042C11.7114 19.0394 11.2312 16.4314 12.3433 16.1173C11.8799 17.513 11.7872 20.5397 15.1235 21.4818C15.3762 21.4818 16.0334 21.2463 16.64 20.3042C17.6931 20.5659 19.6729 20.0949 19.1674 16.1173C18.2407 16.161 16.185 15.9342 15.3762 14.6781C15.7808 15.1438 17.3285 15.5121 18.03 15.4631C18.9713 15.3813 20.7935 14.7746 21.3157 13.7622C21.4842 13.4133 21.7707 12.4015 21.5685 11.1454C21.4421 10.9274 20.9113 10.4389 19.7993 10.2295C19.8414 9.40089 19.4454 7.82209 17.5246 8.1361C17.1454 9.05198 16.1345 10.9361 15.1235 11.1454C16.0923 10.0987 17.6762 7.56041 16.2608 5.78098C15.7132 5.12678 14.2641 4.21091 12.8488 5.78098C12.2591 4.99595 10.7764 4.13241 9.56314 6.95854ZM13.4806 14.1547C13.2845 14.8579 13.994 14.6689 14.1125 14.4072C14.2694 13.9493 13.6636 13.942 13.6636 13.942L13.2845 13.2878L14.1444 13.2461C14.7179 13.7045 14.7774 13.0885 14.6746 12.8953C14.4219 12.6336 14.2345 12.8368 14.1125 13.0261L13.2845 13.157L13.7134 12.5529C14.1691 12.6336 14.2955 11.9794 13.9164 11.8486C13.4109 11.7177 13.2845 12.2411 13.5373 12.5028L13.1582 13.0261L12.8507 12.5529C13.0318 11.8486 12.5829 11.7717 12.2736 11.9794C12.0208 12.2411 12.2736 12.6336 12.6527 12.6336L13.0318 13.157H12.1472C11.6417 12.5289 11.3889 13.0261 11.3889 13.2878C11.5153 13.8112 12.0208 13.5495 12.1472 13.2878H13.0318L12.6527 13.8112C12.5486 13.7813 12.4931 13.781 12.3999 13.8112C11.8944 14.0729 12.3341 14.5055 12.5263 14.4654C12.9868 14.3694 12.8757 14.0642 12.8507 13.9629C12.838 13.9067 12.8126 13.8559 12.779 13.8112L13.1582 13.2878L13.4806 14.0239V14.1547Z" fill="#F6F1ED"/>
</svg>
