<?xml version="1.0" encoding="UTF-8"?>
<svg xmlns="http://www.w3.org/2000/svg" xmlns:xlink="http://www.w3.org/1999/xlink" viewBox="0 0 258.95 222.47">
  <defs>
    <style>
      .cls-1 {
        fill: url(#linear-gradient-3);
        mix-blend-mode: multiply;
      }

      .cls-1, .cls-2, .cls-3, .cls-4, .cls-5, .cls-6, .cls-7, .cls-8, .cls-9, .cls-10, .cls-11, .cls-12, .cls-13, .cls-14, .cls-15, .cls-16, .cls-17, .cls-18, .cls-19, .cls-20, .cls-21, .cls-22, .cls-23, .cls-24, .cls-25, .cls-26, .cls-27, .cls-28, .cls-29, .cls-30, .cls-31, .cls-32, .cls-33, .cls-34 {
        stroke-width: 0px;
      }

      .cls-2 {
        fill: url(#linear-gradient-4);
      }

      .cls-2, .cls-3, .cls-4 {
        opacity: .63;
      }

      .cls-3 {
        fill: url(#linear-gradient-5);
      }

      .cls-4 {
        fill: url(#linear-gradient-6);
      }

      .cls-5 {
        fill: url(#linear-gradient);
      }

      .cls-6 {
        fill: url(#linear-gradient-11);
      }

      .cls-7 {
        fill: url(#linear-gradient-12);
      }

      .cls-8 {
        fill: url(#linear-gradient-13);
      }

      .cls-9 {
        fill: url(#linear-gradient-10);
      }

      .cls-10 {
        fill: url(#linear-gradient-17);
      }

      .cls-11 {
        fill: url(#linear-gradient-16);
      }

      .cls-12 {
        fill: url(#linear-gradient-15);
      }

      .cls-13 {
        fill: url(#linear-gradient-18);
      }

      .cls-14 {
        fill: url(#linear-gradient-14);
      }

      .cls-15 {
        fill: #f0ce96;
        opacity: .56;
      }

      .cls-16 {
        fill: url(#linear-gradient-2);
      }

      .cls-17 {
        fill: url(#linear-gradient-8);
      }

      .cls-18 {
        fill: url(#linear-gradient-9);
      }

      .cls-19 {
        fill: url(#linear-gradient-7);
      }

      .cls-35 {
        isolation: isolate;
      }

      .cls-20 {
        fill: #789114;
      }

      .cls-21 {
        fill: #49811e;
      }

      .cls-22 {
        fill: #86ac37;
      }

      .cls-23 {
        fill: #352724;
      }

      .cls-24 {
        fill: #2f292b;
      }

      .cls-25 {
        fill: #3f3c3e;
      }

      .cls-26 {
        fill: #356726;
      }

      .cls-27 {
        fill: #151414;
      }

      .cls-28 {
        fill: #deaf6e;
      }

      .cls-29 {
        fill: #c9e4a9;
      }

      .cls-30 {
        fill: #dbd0b8;
      }

      .cls-31 {
        fill: #daaf66;
      }

      .cls-32 {
        fill: #9dc870;
      }

      .cls-33 {
        fill: #f5fdea;
      }

      .cls-34 {
        fill: #050403;
      }
    </style>
    <linearGradient id="linear-gradient" x1="229.67" y1="-81.47" x2="407.03" y2="-81.47" gradientTransform="translate(-167.28 256.53) rotate(-11.89)" gradientUnits="userSpaceOnUse">
      <stop offset="0" stop-color="#ccc1aa"/>
      <stop offset="1" stop-color="#ffeec9"/>
    </linearGradient>
    <linearGradient id="linear-gradient-2" x1="229.24" y1="-68" x2="390.08" y2="-68" gradientTransform="translate(-167.28 256.53) rotate(-11.89)" gradientUnits="userSpaceOnUse">
      <stop offset="0" stop-color="#bfb17e"/>
      <stop offset=".31" stop-color="#c1b380"/>
      <stop offset=".51" stop-color="#c9ba89"/>
      <stop offset=".69" stop-color="#d6c699"/>
      <stop offset=".85" stop-color="#e8d8ae"/>
      <stop offset="1" stop-color="#ffeec9"/>
    </linearGradient>
    <linearGradient id="linear-gradient-3" x1="229.57" y1="-64.49" x2="372.33" y2="-64.49" xlink:href="#linear-gradient-2"/>
    <linearGradient id="linear-gradient-4" x1="298.31" y1="-62.37" x2="385.84" y2="-129.22" gradientTransform="translate(-167.28 256.53) rotate(-11.89)" gradientUnits="userSpaceOnUse">
      <stop offset="0" stop-color="#ccc1aa"/>
      <stop offset=".24" stop-color="#ccc1aa"/>
      <stop offset="1" stop-color="#ffeec9"/>
    </linearGradient>
    <linearGradient id="linear-gradient-5" x1="250.26" y1="-104.23" x2="297.7" y2="-132.21" xlink:href="#linear-gradient-4"/>
    <linearGradient id="linear-gradient-6" x1="273.36" y1="-29.11" x2="320.8" y2="-57.09" xlink:href="#linear-gradient-4"/>
    <linearGradient id="linear-gradient-7" x1="44.69" y1="-228.21" x2="33.94" y2="-227.65" gradientTransform="translate(110.29 319.18) rotate(.56)" gradientUnits="userSpaceOnUse">
      <stop offset="0" stop-color="#49811e"/>
      <stop offset=".52" stop-color="#71ab43"/>
      <stop offset="1" stop-color="#49811e"/>
    </linearGradient>
    <linearGradient id="linear-gradient-8" x1="1513.85" y1="2384.24" x2="1505.4" y2="2384.68" gradientTransform="translate(-247.9 2909.44) rotate(-139.81)" gradientUnits="userSpaceOnUse">
      <stop offset="0" stop-color="#fff"/>
      <stop offset=".8" stop-color="#e6eb9d"/>
    </linearGradient>
    <linearGradient id="linear-gradient-9" x1="-1279.16" y1="964.25" x2="-1290.99" y2="964.86" gradientTransform="translate(1560.15 836.27) rotate(63.15)" xlink:href="#linear-gradient-7"/>
    <linearGradient id="linear-gradient-10" x1="706.62" y1="2866.68" x2="697.22" y2="2867.16" gradientTransform="translate(600.46 3001.82) rotate(-175.8)" xlink:href="#linear-gradient-7"/>
    <linearGradient id="linear-gradient-11" x1="1899.87" y1="1250.88" x2="1890.49" y2="1251.37" gradientTransform="translate(-863.64 2152.49) rotate(-97.74)" xlink:href="#linear-gradient-8"/>
    <linearGradient id="linear-gradient-12" x1="677.37" y1="2550.45" x2="666.67" y2="2551" gradientTransform="translate(1757.95 2206.66) rotate(156.59)" xlink:href="#linear-gradient-7"/>
    <linearGradient id="linear-gradient-13" x1="-746.08" y1="649.23" x2="-754.54" y2="649.67" gradientTransform="translate(1033.49 -306.71) rotate(16.23)" xlink:href="#linear-gradient-8"/>
    <linearGradient id="linear-gradient-14" x1="1480.02" y1="1680.41" x2="1468.15" y2="1681.02" gradientTransform="translate(224.18 2322.99) rotate(-140.81)" xlink:href="#linear-gradient-7"/>
    <linearGradient id="linear-gradient-15" x1="-101.89" y1="133.28" x2="-111.25" y2="133.76" gradientTransform="translate(221.06 -45.21) rotate(-19.76)" xlink:href="#linear-gradient-7"/>
    <linearGradient id="linear-gradient-16" x1="-120.05" y1="118.38" x2="-129.41" y2="118.87" gradientTransform="translate(221.06 -45.21) rotate(-19.76)" xlink:href="#linear-gradient-7"/>
    <linearGradient id="linear-gradient-17" x1="-1254.06" y1="630.46" x2="-1263.46" y2="630.95" gradientTransform="translate(1535.08 48.29) rotate(24.1)" xlink:href="#linear-gradient-7"/>
    <linearGradient id="linear-gradient-18" x1="-941.6" y1="1475.79" x2="-951.01" y2="1476.28" gradientTransform="translate(1903.39 136.47) rotate(58.3)" xlink:href="#linear-gradient-8"/>
  </defs>
  <g class="cls-35">
    <g id="Layer_2" data-name="Layer 2">
      <g>
        <g>
          <path class="cls-24" d="m238.01,125.38l17.5-10.33c2.5-2.26,3.97-6.78,3.27-10.06l-2.64-12.44c-.7-3.28-1.27-5.96-1.27-5.97,0,0-.57-2.69-1.27-5.97l-2.64-12.45c-.7-3.28-3.88-6.83-7.08-7.89l-20.21-2.45,14.34,67.56Z"/>
          <path class="cls-24" d="m35.29,165.76l-20.21-2.45c-3.2-1.07-6.39-4.62-7.09-7.89l-2.64-12.45c-.7-3.28-1.26-5.96-1.27-5.97,0,0-.57-2.69-1.27-5.97L.17,118.59c-.7-3.28.78-7.8,3.27-10.06l17.5-10.33,14.34,67.56Z"/>
          <path class="cls-25" d="m237.17,88.32c12.76,60.1-26.02,119.09-86.62,131.74-60.6,12.66-120.06-25.81-132.82-85.91C4.97,74.05,43.75,15.06,104.34,2.41c60.6-12.66,120.06,25.81,132.82,85.91Z"/>
          <path class="cls-27" d="m222.44,91.4c11.05,52.04-22.53,103.11-75,114.06-52.47,10.96-103.95-22.35-115-74.39C21.4,79.04,54.98,27.97,107.44,17.01c52.47-10.96,103.95,22.35,115,74.39Z"/>
        </g>
        <path class="cls-5" d="m40.64,129.36c-10.09-47.55,20.59-94.21,68.53-104.22,47.94-10.01,94.99,20.42,105.08,67.97,10.09,47.55-20.59,94.21-68.53,104.22-47.94,10.01-94.98-20.42-105.08-67.97Z"/>
        <path class="cls-16" d="m151.24,186.27c-47.94,10.01-94.98-20.42-105.08-67.97-3.97-18.72-1.62-37.3,5.6-53.56-11.71,18.6-16.46,41.55-11.55,64.7,10.09,47.55,57.14,77.98,105.08,67.97,29.07-6.07,51.79-25.62,62.92-50.66-12.33,19.6-32.38,34.38-56.98,39.52Z"/>
        <path class="cls-22" d="m66.89,67.5c-7.86.32-13.98,6.9-13.65,14.7.33,7.8,6.96,13.86,14.83,13.54,7.87-.32,13.98-6.91,13.65-14.71-.32-7.8-6.96-13.86-14.82-13.54Zm1.05,25.17c-6.31.26-11.62-4.6-11.88-10.86-.26-6.25,4.64-11.53,10.94-11.79,6.3-.26,11.62,4.6,11.88,10.86.26,6.25-4.64,11.53-10.94,11.79Z"/>
        <path class="cls-1" d="m68.8,66.9l-30.16,49.23s.29,41.3,41.02,69.22c40.73,27.93,75.87,9.93,75.87,9.93l34.87-46.99-121.61-81.39Z"/>
        <path class="cls-22" d="m96.42,162.44c-5.32.22-9.46,4.67-9.23,9.95.22,5.28,4.71,9.38,10.03,9.16s9.45-4.67,9.24-9.95c-.22-5.28-4.71-9.38-10.03-9.16Zm.71,17.03c-4.27.17-7.87-3.11-8.04-7.34-.18-4.23,3.14-7.8,7.41-7.97,4.26-.17,7.86,3.11,8.04,7.34.18,4.23-3.14,7.8-7.4,7.98Z"/>
        <path class="cls-22" d="m91.15,136.72c-7.65.31-13.6,6.72-13.28,14.31.32,7.59,6.77,13.49,14.43,13.17,7.65-.31,13.6-6.72,13.28-14.31-.31-7.59-6.77-13.49-14.42-13.17Zm1.02,24.49c-6.14.25-11.31-4.48-11.56-10.56-.25-6.08,4.52-11.22,10.65-11.47,6.13-.25,11.31,4.48,11.56,10.56.25,6.08-4.52,11.22-10.65,11.47Z"/>
        <path class="cls-22" d="m122.32,30.8c-7.65.31-13.6,6.72-13.28,14.31.32,7.59,6.77,13.49,14.42,13.17,7.65-.31,13.6-6.72,13.28-14.31-.31-7.59-6.77-13.49-14.42-13.17Zm1.02,24.49c-6.13.25-11.31-4.48-11.56-10.56-.25-6.08,4.52-11.22,10.65-11.47,6.13-.25,11.31,4.48,11.56,10.56.25,6.08-4.51,11.22-10.65,11.47Z"/>
        <path class="cls-22" d="m174.18,62.49c-5.92.24-10.51,5.19-10.27,11.06.24,5.87,5.24,10.43,11.15,10.19,5.92-.24,10.51-5.19,10.27-11.06-.24-5.87-5.24-10.43-11.15-10.19Zm.79,18.94c-4.74.19-8.75-3.46-8.94-8.17-.2-4.7,3.49-8.67,8.23-8.87,4.74-.19,8.75,3.46,8.94,8.17s-3.49,8.67-8.23,8.87Z"/>
        <path class="cls-22" d="m170.23,39.61c-7.97.33-14.17,7-13.85,14.91.33,7.91,7.06,14.06,15.04,13.73,7.97-.33,14.17-7,13.84-14.91-.33-7.91-7.06-14.06-15.04-13.73Zm1.06,25.53c-6.39.26-11.79-4.67-12.05-11.01-.26-6.34,4.71-11.69,11.1-11.96,6.4-.26,11.79,4.67,12.05,11.01.27,6.34-4.7,11.69-11.1,11.96Z"/>
        <path class="cls-22" d="m193.48,98.81c-7.98.33-14.18,7-13.85,14.91.33,7.91,7.06,14.06,15.04,13.73,7.97-.33,14.17-7,13.84-14.91-.33-7.91-7.06-14.06-15.03-13.73Zm1.06,25.53c-6.4.26-11.79-4.67-12.05-11.01-.26-6.34,4.71-11.69,11.1-11.96,6.39-.26,11.79,4.67,12.05,11.01.26,6.34-4.7,11.69-11.1,11.96Z"/>
        <path class="cls-22" d="m173.17,142.28c-7.97.33-14.17,7-13.84,14.91.33,7.91,7.06,14.06,15.03,13.73,7.98-.33,14.17-7,13.85-14.91-.33-7.91-7.06-14.06-15.04-13.73Zm1.06,25.53c-6.39.26-11.79-4.67-12.05-11.01-.26-6.34,4.71-11.69,11.1-11.96,6.4-.26,11.79,4.67,12.06,11.01.26,6.34-4.71,11.69-11.1,11.96Z"/>
        <path class="cls-2" d="m189.73,60.84c.27,12.67-21.35,29.53-30.21,14.47-.93-1.59-5.31-11.73-5.14-13.24.62-5.4,12.77-3.63,18.41-5.08,6.79-1.75,16.71-7.34,16.94,3.85Z"/>
        <path class="cls-3" d="m89.89,84.39c.27,12.67-21.35,29.53-30.21,14.47-.93-1.59-5.31-11.73-5.14-13.24.62-5.4,12.77-3.63,18.41-5.08,6.79-1.75,16.71-7.34,16.94,3.85Z"/>
        <path class="cls-4" d="m127.97,153.14c.27,12.67-21.35,29.53-30.21,14.47-.94-1.59-5.31-11.73-5.14-13.24.62-5.4,12.78-3.63,18.41-5.08,6.79-1.75,16.71-7.34,16.94,3.85Z"/>
        <path class="cls-31" d="m162.38,117.16C207.53,70.08,90.68,2.48,61.4,83.97c-11.41,31.76,3.2,44.48,34.08,47.55,13.79,1.37,19.06-3.04,32.59-5.67,12.82-2.5,24.58,1.48,34.31-8.67Z"/>
        <path class="cls-15" d="m121.3,92.19c15.41,3.96,45.14,9.47,33.9-16.38-5.88-13.52-27.16-24.85-41.56-25.46-14.87-.63-38.48,13.08-31.58,30.8,4.76,12.23,27.54,8.03,39.24,11.04Z"/>
        <path class="cls-31" d="m159.11,154.4c9.02-.43,25.17,2.68,31.29-6.11,5.34-7.67-.21-19.48-7.54-23.52-10.87-5.98-25.55.9-35.11,6.09-7.3,3.96-31.64,6.24-33.09,17.15-2.19,16.38,36.15,6.79,44.46,6.4Z"/>
        <path class="cls-15" d="m161.35,141.9c6.28.91,27.02,5.86,20.44-7.47-2.92-5.92-10.12-4.99-15.66-4.61-5.93.41-36.32,14.5-39.62,11.9,6.45,5.07,25.76-1.14,34.84.17Z"/>
        <g>
          <path class="cls-29" d="m104.71,109.2c-7.18,5.32-17.39,3.86-22.75-3.27-5.37-7.12-3.89-17.24,3.29-22.56,7.18-5.32,17.39-3.85,22.75,3.27,5.37,7.12,3.89,17.24-3.29,22.56Zm-16.41-21.78c-4.93,3.65-5.94,10.6-2.26,15.49,3.68,4.89,10.69,5.89,15.62,2.24,4.93-3.65,5.94-10.6,2.26-15.49-3.68-4.89-10.69-5.9-15.62-2.24Z"/>
          <path class="cls-29" d="m151.96,92.5c-6.05,4.49-14.66,3.25-19.18-2.75-4.52-6-3.28-14.54,2.78-19.03,6.05-4.49,14.66-3.25,19.18,2.76,4.52,6,3.28,14.54-2.78,19.03Zm-13.84-18.37c-4.15,3.08-5.01,8.94-1.91,13.06,3.11,4.12,9.01,4.97,13.17,1.89,4.16-3.08,5.01-8.94,1.91-13.06-3.1-4.12-9.01-4.97-13.17-1.89Z"/>
          <path class="cls-32" d="m130.54,143.49c-7.18,5.32-17.38,3.86-22.75-3.27-5.36-7.12-3.89-17.24,3.29-22.56,7.18-5.32,17.39-3.85,22.75,3.27,5.36,7.12,3.89,17.24-3.29,22.56Zm-16.4-21.78c-4.93,3.65-5.94,10.6-2.26,15.49,3.68,4.89,10.69,5.9,15.62,2.24,4.93-3.65,5.94-10.6,2.26-15.49-3.68-4.89-10.69-5.89-15.62-2.24Z"/>
          <g>
            <g>
              <path class="cls-19" d="m144.99,86.78l-.08,7.43c-.02,1.82,2.37,2.67,4.6,2.69,2.22.02,4.62-.78,4.64-2.6l.07-7.43-9.24-.09Z"/>
              <g>
                <path class="cls-26" d="m153.78,87.12c0,1.05-1.88,1.88-4.18,1.86-2.3-.02-4.16-.89-4.15-1.94,0-1.05,1.88-1.88,4.18-1.86,2.3.02,4.16.89,4.15,1.94Z"/>
                <path class="cls-21" d="m149.59,89.4c-2.2-.02-4.53-.85-4.51-2.36.02-1.5,2.36-2.29,4.56-2.27,2.2.02,4.53.85,4.52,2.36-.01,1.5-2.36,2.29-4.56,2.27Zm.04-3.8c-2.35-.02-3.8.83-3.81,1.45,0,.62,1.43,1.49,3.78,1.52,2.35.02,3.8-.83,3.81-1.44,0-.62-1.43-1.49-3.78-1.52Z"/>
              </g>
            </g>
            <g>
              <path class="cls-17" d="m139.5,120.01l3.8-4.46c.93-1.09-.09-2.79-1.42-3.91-1.34-1.12-3.2-1.83-4.13-.74l-3.8,4.46,5.55,4.65Z"/>
              <g>
                <path class="cls-20" d="m134.35,115.43c.54-.63,2.09-.2,3.47.95,1.38,1.16,2.07,2.61,1.53,3.24-.54.63-2.09.2-3.47-.96-1.38-1.16-2.06-2.61-1.53-3.24Z"/>
                <path class="cls-33" d="m138.03,116.14c1.32,1.11,2.31,2.77,1.54,3.67-.77.9-2.59.21-3.9-.89-1.32-1.11-2.31-2.77-1.54-3.67.77-.9,2.59-.21,3.91.9Zm-1.95,2.28c1.41,1.18,2.73,1.39,3.04,1.02.31-.37-.11-1.62-1.52-2.8-1.41-1.18-2.72-1.39-3.04-1.02-.32.37.11,1.62,1.52,2.8Z"/>
              </g>
            </g>
            <g>
              <path class="cls-28" d="m129.68,95.25c1.25,1.84.76,4.33-1.09,5.57-1.85,1.24-4.37.76-5.62-1.08-1.25-1.84-.76-4.33,1.09-5.57,1.85-1.24,4.37-.75,5.61,1.08Z"/>
              <path class="cls-21" d="m129.27,101.82c-2.4,1.61-5.68.98-7.3-1.41-1.62-2.38-.98-5.63,1.42-7.24,2.4-1.61,5.68-.98,7.3,1.41,1.62,2.39.99,5.63-1.42,7.24Zm-4.52-6.65c-1.3.87-1.64,2.61-.77,3.9.87,1.29,2.64,1.63,3.93.76,1.29-.87,1.64-2.62.76-3.9-.87-1.28-2.64-1.62-3.93-.76Z"/>
            </g>
            <g>
              <path class="cls-18" d="m120.6,116.2l-7.38,3.71c-1.81.91-1.43,3.66-.33,5.83,1.11,2.17,3.13,4.1,4.93,3.19l7.38-3.71-4.61-9.03Z"/>
              <g>
                <path class="cls-26" d="m124.73,124.91c-1.04.52-2.81-.88-3.96-3.13-1.15-2.25-1.23-4.49-.19-5.02,1.04-.52,2.82.88,3.96,3.12,1.15,2.25,1.24,4.5.19,5.02Z"/>
                <path class="cls-21" d="m120.35,121.99c-1.1-2.15-1.46-4.84.03-5.59,1.49-.75,3.46,1.13,4.56,3.28,1.09,2.15,1.45,4.84-.04,5.59-1.49.75-3.46-1.13-4.56-3.28Zm3.77-1.89c-1.17-2.3-2.75-3.28-3.36-2.97-.62.31-.75,2.15.42,4.45,1.17,2.3,2.75,3.28,3.37,2.97.62-.31.75-2.15-.42-4.45Z"/>
              </g>
            </g>
            <g>
              <path class="cls-9" d="m115.98,95.89l.48-6.48c.12-1.58-1.92-2.46-3.86-2.6-1.94-.14-4.08.43-4.19,2.01l-.48,6.47,8.05.59Z"/>
              <g>
                <path class="cls-26" d="m108.33,95.11c.07-.91,1.75-1.54,3.75-1.39,2,.15,3.57,1.01,3.51,1.92-.07.92-1.75,1.53-3.75,1.39-2-.14-3.57-1-3.51-1.92Z"/>
                <path class="cls-21" d="m112.11,93.36c1.92.14,3.9.99,3.8,2.3-.1,1.31-2.19,1.87-4.1,1.73-1.92-.14-3.9-.99-3.81-2.3.1-1.31,2.19-1.87,4.1-1.73Zm-.24,3.31c2.05.15,3.36-.51,3.4-1.05.04-.54-1.16-1.38-3.21-1.53-2.05-.15-3.37.51-3.4,1.05-.04.54,1.16,1.38,3.21,1.53Z"/>
              </g>
            </g>
            <g>
              <path class="cls-28" d="m141.79,84.15c1.25,1.84.76,4.33-1.09,5.57-1.85,1.24-4.37.76-5.62-1.08-1.25-1.84-.76-4.33,1.09-5.57,1.85-1.24,4.37-.75,5.62,1.08Z"/>
              <path class="cls-21" d="m141.38,90.72c-2.4,1.61-5.68.98-7.3-1.4-1.62-2.38-.98-5.64,1.42-7.25,2.4-1.61,5.68-.98,7.3,1.41,1.62,2.38.98,5.63-1.42,7.24Zm-4.52-6.65c-1.3.87-1.64,2.61-.77,3.9.88,1.28,2.64,1.62,3.93.76,1.29-.87,1.64-2.61.76-3.9-.87-1.28-2.64-1.62-3.93-.76Z"/>
            </g>
            <g>
              <path class="cls-6" d="m117.28,112.72l6.52-.88c1.6-.22,2.04-2.38,1.78-4.3-.26-1.92-1.27-3.89-2.87-3.67l-6.52.88,1.09,7.98Z"/>
              <g>
                <path class="cls-20" d="m116.47,105.11c.92-.12,1.88,1.39,2.16,3.37.27,1.98-.25,3.7-1.17,3.82-.92.13-1.88-1.38-2.16-3.37-.27-1.99.25-3.7,1.17-3.82Z"/>
                <path class="cls-33" d="m118.99,108.43c.26,1.9-.17,4.01-1.49,4.19-1.32.18-2.31-1.74-2.57-3.64-.26-1.9.17-4.01,1.49-4.19,1.32-.18,2.31,1.74,2.57,3.64Zm-3.33.45c.28,2.03,1.21,3.17,1.75,3.1.54-.07,1.13-1.42.85-3.45-.28-2.03-1.21-3.17-1.75-3.1-.54.07-1.13,1.42-.85,3.45Z"/>
              </g>
            </g>
          </g>
          <g>
            <g>
              <path class="cls-7" d="m136.05,134.56l-2.98-6.82c-.72-1.67-3.26-1.49-5.3-.61-2.04.88-3.91,2.58-3.18,4.25l2.98,6.82,8.47-3.64Z"/>
              <g>
                <path class="cls-26" d="m127.89,137.78c-.42-.96.95-2.48,3.07-3.38,2.11-.91,4.16-.86,4.58.1.42.96-.95,2.47-3.06,3.38-2.11.91-4.16.86-4.58-.1Z"/>
                <path class="cls-21" d="m130.78,134.02c2.02-.87,4.49-1.04,5.09.33.6,1.38-1.22,3.04-3.24,3.91-2.02.87-4.49,1.04-5.09-.33-.6-1.38,1.22-3.04,3.24-3.91Zm1.52,3.48c2.16-.93,3.14-2.29,2.89-2.86-.25-.57-1.92-.79-4.07.14-2.16.93-3.14,2.29-2.89,2.85.25.57,1.92.79,4.08-.13Z"/>
              </g>
            </g>
            <g>
              <path class="cls-8" d="m127.47,101.98l-1.64,5.61c-.4,1.37,1.22,2.52,2.9,3,1.68.49,3.67.38,4.07-.99l1.65-5.61-6.97-2.01Z"/>
              <g>
                <path class="cls-20" d="m134.05,104.09c-.24.79-1.83,1.02-3.57.53-1.74-.5-2.96-1.55-2.72-2.34.23-.79,1.82-1.03,3.57-.52,1.73.5,2.95,1.55,2.72,2.34Z"/>
                <path class="cls-33" d="m130.39,104.93c-1.66-.48-3.25-1.6-2.91-2.74.33-1.13,2.28-1.23,3.94-.76,1.66.48,3.25,1.6,2.91,2.74-.33,1.13-2.28,1.24-3.93.76Zm.84-2.87c-1.77-.51-3.06-.17-3.2.29-.14.47.76,1.43,2.54,1.94,1.77.52,3.05.18,3.19-.29.14-.47-.76-1.43-2.53-1.95Z"/>
              </g>
            </g>
            <g>
              <path class="cls-28" d="m146.58,120.65c-1.9-1.18-2.47-3.65-1.28-5.53,1.19-1.88,3.68-2.45,5.57-1.27,1.9,1.18,2.47,3.65,1.28,5.53-1.18,1.88-3.68,2.45-5.57,1.27Z"/>
              <path class="cls-21" d="m144.27,114.48c1.54-2.44,4.79-3.18,7.25-1.66,2.46,1.53,3.21,4.75,1.67,7.19-1.54,2.44-4.79,3.18-7.25,1.66-2.46-1.53-3.21-4.75-1.67-7.19Zm6.86,4.26c.83-1.31.42-3.05-.9-3.87-1.32-.82-3.07-.42-3.9.89-.83,1.31-.43,3.05.9,3.87,1.33.82,3.08.42,3.91-.89Z"/>
            </g>
            <g>
              <path class="cls-14" d="m146.3,97.85l5.23-6.36c1.28-1.56-.19-3.92-2.09-5.46-1.9-1.54-4.54-2.49-5.82-.93l-5.23,6.36,7.91,6.39Z"/>
              <g>
                <path class="cls-26" d="m138.96,91.55c.74-.9,2.93-.33,4.9,1.26,1.97,1.59,2.97,3.61,2.23,4.51-.74.9-2.93.33-4.9-1.26-1.97-1.59-2.97-3.61-2.23-4.51Z"/>
                <path class="cls-21" d="m144.15,92.46c1.88,1.52,3.31,3.83,2.26,5.12-1.06,1.29-3.62.36-5.51-1.16-1.88-1.52-3.31-3.84-2.25-5.12,1.05-1.29,3.62-.36,5.51,1.16Zm-2.67,3.25c2.01,1.63,3.86,1.89,4.29,1.36.44-.53-.19-2.27-2.21-3.9-2.01-1.63-3.85-1.89-4.29-1.36-.43.53.19,2.27,2.2,3.89Z"/>
              </g>
            </g>
            <g>
              <path class="cls-12" d="m158.84,114.55l2.21,6.11c.54,1.5,2.76,1.47,4.58.82,1.83-.65,3.55-2.03,3.01-3.53l-2.21-6.11-7.6,2.71Z"/>
              <g>
                <path class="cls-26" d="m166.14,112.18c.31.86-.97,2.11-2.86,2.78-1.89.67-3.68.52-3.99-.34-.31-.86.97-2.11,2.86-2.78,1.89-.67,3.68-.52,3.99.34Z"/>
                <path class="cls-21" d="m163.4,115.3c-1.81.64-3.97.66-4.42-.57-.45-1.24,1.23-2.59,3.04-3.23,1.81-.65,3.97-.66,4.42.57.45,1.24-1.23,2.59-3.04,3.23Zm-1.13-3.12c-1.93.69-2.86,1.82-2.68,2.33.19.51,1.63.8,3.57.11,1.93-.69,2.86-1.82,2.68-2.33-.19-.51-1.63-.8-3.56-.11Z"/>
              </g>
            </g>
            <g>
              <path class="cls-11" d="m136.72,106.67l2.21,6.11c.54,1.5,2.76,1.47,4.59.82,1.83-.65,3.55-2.03,3.01-3.53l-2.21-6.11-7.59,2.71Z"/>
              <g>
                <path class="cls-26" d="m144.02,104.3c.31.86-.97,2.11-2.86,2.78-1.89.67-3.68.52-3.99-.34-.31-.86.96-2.11,2.86-2.78,1.89-.67,3.68-.52,3.99.34Z"/>
                <path class="cls-21" d="m141.28,107.42c-1.81.64-3.97.66-4.42-.57-.45-1.23,1.23-2.59,3.04-3.23,1.81-.64,3.97-.66,4.42.57.45,1.24-1.23,2.59-3.04,3.23Zm-1.13-3.12c-1.93.69-2.86,1.82-2.68,2.33.19.51,1.63.8,3.57.11,1.93-.69,2.87-1.82,2.68-2.33-.18-.51-1.63-.8-3.56-.11Z"/>
              </g>
            </g>
            <g>
              <path class="cls-10" d="m124.82,103.77l-2.68,5.93c-.65,1.45.96,2.96,2.73,3.74,1.78.79,3.98.98,4.63-.47l2.67-5.93-7.37-3.27Z"/>
              <g>
                <path class="cls-26" d="m131.73,107.08c-.38.84-2.17.85-4,.04-1.84-.81-3.02-2.15-2.64-2.99.38-.84,2.17-.85,4-.04,1.84.81,3.02,2.15,2.64,2.99Z"/>
                <path class="cls-21" d="m127.58,107.45c-1.75-.78-3.33-2.25-2.79-3.45.54-1.2,2.69-1.02,4.45-.24,1.75.78,3.33,2.25,2.79,3.45-.54,1.2-2.7,1.02-4.45.24Zm1.37-3.03c-1.88-.83-3.34-.65-3.56-.16-.22.5.62,1.69,2.5,2.53,1.88.83,3.34.65,3.56.16.22-.49-.62-1.69-2.5-2.53Z"/>
              </g>
            </g>
            <g>
              <path class="cls-28" d="m140.05,135.67c-1.89-1.17-2.47-3.65-1.28-5.53,1.19-1.88,3.68-2.45,5.58-1.28,1.89,1.17,2.47,3.65,1.28,5.53-1.18,1.88-3.68,2.45-5.58,1.27Z"/>
              <path class="cls-21" d="m137.74,129.5c1.54-2.44,4.79-3.18,7.25-1.66,2.46,1.53,3.21,4.75,1.67,7.19-1.54,2.44-4.79,3.18-7.25,1.66-2.46-1.53-3.21-4.75-1.67-7.19Zm6.86,4.26c.83-1.32.42-3.05-.9-3.87-1.32-.82-3.07-.42-3.9.89-.83,1.31-.42,3.05.9,3.87,1.33.82,3.08.42,3.91-.89Z"/>
            </g>
            <g>
              <path class="cls-13" d="m150.75,99.69l-5.6,3.43c-1.37.84-.89,2.99.14,4.64,1.03,1.65,2.76,3.04,4.13,2.2l5.6-3.43-4.26-6.85Z"/>
              <g>
                <path class="cls-20" d="m154.61,106.32c-.79.48-2.29-.51-3.35-2.21-1.06-1.71-1.28-3.48-.5-3.96.79-.48,2.29.5,3.35,2.21,1.06,1.7,1.28,3.48.49,3.96Z"/>
                <path class="cls-33" d="m150.95,104.3c-1.01-1.63-1.48-3.74-.35-4.43,1.13-.69,2.82.67,3.83,2.3,1.01,1.63,1.48,3.74.35,4.43-1.13.69-2.82-.67-3.84-2.29Zm2.86-1.75c-1.09-1.74-2.4-2.42-2.87-2.13-.47.29-.45,1.75.63,3.5,1.08,1.74,2.4,2.41,2.87,2.12.47-.28.45-1.75-.63-3.5Z"/>
              </g>
            </g>
          </g>
        </g>
        <g>
          <path class="cls-23" d="m95.3,121.3c-1.2-1.29-2.66-2.37-4.43-3.13-8.18-3.54-18.59-3.06-26.12,2.37-8.2,5.91-11.44,16.11-12.05,25.03-.91,13.23,16.68,25.72,31.27,20.4,11.68-4.26,17.82-19.69,16.69-30.35-.53-5.01-1.87-10.56-5.35-14.31Z"/>
          <path class="cls-34" d="m95.23,121.37c-1.13-1.21-2.49-2.23-4.11-2.98.72,2.3,1.13,4.72,1.38,7.02,1.12,10.66-5.01,26.1-16.69,30.35-7.62,2.78-16.05.7-22.25-3.81,3.8,10.5,18.12,18.53,30.33,14.08,11.68-4.26,17.81-19.69,16.69-30.36-.53-5.01-1.87-10.56-5.36-14.31Z"/>
          <path class="cls-30" d="m69.82,140.55c-1.26-1.01-9.01,2.45-9.95,3.75,1.82,2.49,8.28,1.13,11.02.52,0,4.22.55,13.69,3.32,16.43.03.03.08.05.13.06.03,0,.06,0,.09,0,.08-.02.14-.08.16-.15,1.18-3.87.91-7.96.64-11.92-.1-1.61-.21-3.25-.22-4.87,1.13.69,2.43,1.37,3.78,2.09,3.21,1.7,6.53,3.45,8.11,5.45.04.04.09.07.14.08.06,0,.12,0,.17-.04.1-.07.12-.19.05-.28-2.8-3.55-5.55-6.51-8.58-9.25,2.99-1.13,5.83-2.39,8.18-3.43.59-.26,1.15-.51,1.67-.74.1-.04.15-.14.12-.23-.02-.09-.12-.16-.23-.15-.13.01-6.42.61-13.12,1.68,0,0-.02-.02-.03-.03,0-.09.02-.19.02-.28.47-5.23,1.04-11.74-.82-15.83-.04-.08-.13-.13-.23-.11-.05,0-.1.03-.13.06.02-.11-.06-.21-.18-.23-.12-.01-.23.06-.26.17-.8,4.15-1.67,8.66-2.22,13.28-1.14-.83-2.28-1.6-3.44-2.28-.92-.54-2.08-.93-3.21-1.32-1.49-.51-3.03-1.03-3.98-1.88-.24-.33-.49-.67-.78-1.03-.07-.08-.19-.1-.29-.05-.1.05-.14.16-.1.26.18.4.45.76.82,1.09.31.43.58.82.84,1.2,1.07,1.56,1.92,2.79,4.1,4.47,1.12.86,2.24,1.77,3.33,2.64.36.29.72.58,1.09.88Z"/>
        </g>
      </g>
    </g>
  </g>
</svg>