<?xml version="1.0" encoding="UTF-8"?>
<svg id="Layer_2" data-name="Layer 2" xmlns="http://www.w3.org/2000/svg" xmlns:xlink="http://www.w3.org/1999/xlink" viewBox="0 0 311.79 271.03">
  <defs>
    <style>
      .cls-1 {
        fill: url(#linear-gradient);
      }

      .cls-1, .cls-2, .cls-3, .cls-4, .cls-5, .cls-6, .cls-7, .cls-8, .cls-9, .cls-10, .cls-11, .cls-12, .cls-13, .cls-14, .cls-15, .cls-16, .cls-17, .cls-18, .cls-19, .cls-20, .cls-21, .cls-22, .cls-23, .cls-24, .cls-25, .cls-26, .cls-27, .cls-28, .cls-29, .cls-30, .cls-31, .cls-32, .cls-33, .cls-34, .cls-35, .cls-36, .cls-37, .cls-38, .cls-39, .cls-40, .cls-41, .cls-42, .cls-43, .cls-44, .cls-45, .cls-46 {
        stroke-width: 0px;
      }

      .cls-2 {
        fill: url(#linear-gradient-11);
      }

      .cls-3 {
        fill: url(#linear-gradient-12);
      }

      .cls-4 {
        fill: url(#linear-gradient-13);
      }

      .cls-5 {
        fill: url(#linear-gradient-10);
      }

      .cls-6 {
        fill: url(#linear-gradient-17);
      }

      .cls-7 {
        fill: url(#linear-gradient-16);
      }

      .cls-8 {
        fill: url(#linear-gradient-15);
      }

      .cls-9 {
        fill: url(#linear-gradient-18);
      }

      .cls-10 {
        fill: url(#linear-gradient-14);
      }

      .cls-11 {
        opacity: .48;
      }

      .cls-11, .cls-34 {
        fill: #a63a00;
      }

      .cls-12 {
        fill: url(#linear-gradient-4);
      }

      .cls-13 {
        fill: url(#linear-gradient-2);
      }

      .cls-14 {
        fill: url(#linear-gradient-3);
      }

      .cls-15 {
        fill: url(#linear-gradient-8);
      }

      .cls-16 {
        fill: url(#linear-gradient-9);
      }

      .cls-17 {
        fill: url(#linear-gradient-7);
      }

      .cls-18 {
        fill: url(#linear-gradient-5);
      }

      .cls-19 {
        fill: url(#linear-gradient-6);
      }

      .cls-20 {
        fill: #789114;
      }

      .cls-21 {
        fill: #475416;
      }

      .cls-22 {
        fill: #49811e;
      }

      .cls-23 {
        fill: #352724;
      }

      .cls-24 {
        fill: #2f292b;
      }

      .cls-25 {
        fill: #3f3c3e;
      }

      .cls-26 {
        fill: #356726;
      }

      .cls-27 {
        fill: #151414;
      }

      .cls-28 {
        fill: #254909;
      }

      .cls-29 {
        fill: #deaf6e;
      }

      .cls-30 {
        fill: #e16300;
      }

      .cls-31 {
        fill: #e2cba4;
      }

      .cls-32 {
        fill: #d5bb9a;
      }

      .cls-33 {
        fill: #dbd0b8;
      }

      .cls-35 {
        fill: #c1aa88;
      }

      .cls-36 {
        fill: #bc4e00;
      }

      .cls-37 {
        fill: #986f00;
      }

      .cls-38 {
        fill: #a03c00;
      }

      .cls-39 {
        fill: #9dc870;
      }

      .cls-40 {
        fill: #953000;
      }

      .cls-41 {
        fill: #f08025;
      }

      .cls-42 {
        fill: #fff5ec;
      }

      .cls-43 {
        fill: #f4e5d2;
      }

      .cls-44 {
        fill: #f0b678;
      }

      .cls-45 {
        fill: #f5fdea;
      }

      .cls-46 {
        fill: #050403;
      }
    </style>
    <linearGradient id="linear-gradient" x1="47.18" y1="1335.95" x2="194.42" y2="1292.44" gradientTransform="translate(-222.55 1323.11) rotate(13.23) scale(1 -1)" gradientUnits="userSpaceOnUse">
      <stop offset="0" stop-color="#67a842"/>
      <stop offset="1" stop-color="#40732a"/>
    </linearGradient>
    <linearGradient id="linear-gradient-2" x1="39.54" y1="913.63" x2="186.37" y2="870.25" gradientTransform="translate(-358.92 773.23) rotate(31.09) scale(1 -1)" gradientUnits="userSpaceOnUse">
      <stop offset="0" stop-color="#ffe36f"/>
      <stop offset=".12" stop-color="#f0dd6a"/>
      <stop offset=".35" stop-color="#cbce5f"/>
      <stop offset=".66" stop-color="#8eb74d"/>
      <stop offset=".85" stop-color="#67a842"/>
      <stop offset="1" stop-color="#67a842"/>
    </linearGradient>
    <linearGradient id="linear-gradient-3" x1="-46.61" y1="919.5" x2="100.21" y2="876.12" gradientTransform="translate(-303.18 826.24) rotate(32.35) scale(1 -1)" xlink:href="#linear-gradient"/>
    <linearGradient id="linear-gradient-4" x1="77.24" y1="488.47" x2="223.76" y2="445.18" gradientTransform="translate(-251.61 262.52) rotate(50.2) scale(1 -1)" xlink:href="#linear-gradient-2"/>
    <linearGradient id="linear-gradient-5" x1="112.74" y1="1534.45" x2="260.17" y2="1490.9" gradientTransform="translate(-99.54 1565.91) rotate(3.42) scale(1 -1)" xlink:href="#linear-gradient"/>
    <linearGradient id="linear-gradient-6" x1="40.49" y1="1123.73" x2="187.54" y2="1080.28" gradientTransform="translate(-327.49 1048.34) rotate(21.28) scale(1 -1)" xlink:href="#linear-gradient-2"/>
    <linearGradient id="linear-gradient-7" x1="47.14" y1="178.62" x2="37.05" y2="179.14" gradientTransform="translate(166.01 -69.4) rotate(12.44)" gradientUnits="userSpaceOnUse">
      <stop offset="0" stop-color="#49811e"/>
      <stop offset=".52" stop-color="#71ab43"/>
      <stop offset="1" stop-color="#49811e"/>
    </linearGradient>
    <linearGradient id="linear-gradient-8" x1="2365.82" y1="636.52" x2="2357.9" y2="636.93" gradientTransform="translate(1100.5 2386.38) rotate(-127.92)" gradientUnits="userSpaceOnUse">
      <stop offset="0" stop-color="#fff"/>
      <stop offset=".8" stop-color="#e6eb9d"/>
    </linearGradient>
    <linearGradient id="linear-gradient-9" x1="-16.91" y1="1590.68" x2="-27.98" y2="1591.26" gradientTransform="translate(1674.94 -249.96) rotate(75.04)" xlink:href="#linear-gradient-7"/>
    <linearGradient id="linear-gradient-10" x1="2272.3" y1="1373.15" x2="2263.48" y2="1373.6" gradientTransform="translate(1928.96 2053.98) rotate(-163.91)" xlink:href="#linear-gradient-7"/>
    <linearGradient id="linear-gradient-11" x1="1917.31" y1="-203.29" x2="1908.53" y2="-202.84" gradientTransform="translate(201.37 2044.18) rotate(-85.85)" xlink:href="#linear-gradient-8"/>
    <linearGradient id="linear-gradient-12" x1="2609.14" y1="1517.71" x2="2599.08" y2="1518.23" gradientTransform="translate(2993.43 1114.96) rotate(168.48)" xlink:href="#linear-gradient-7"/>
    <linearGradient id="linear-gradient-13" x1="-461.8" y1="1240.48" x2="-469.73" y2="1240.89" gradientTransform="translate(1142.49 -749.99) rotate(28.12)" xlink:href="#linear-gradient-8"/>
    <linearGradient id="linear-gradient-14" x1="2351.95" y1="-68.14" x2="2340.84" y2="-67.57" gradientTransform="translate(1688.54 1893.2) rotate(-128.92)" xlink:href="#linear-gradient-7"/>
    <linearGradient id="linear-gradient-15" x1="-369.81" y1="198.24" x2="-378.61" y2="198.7" gradientTransform="translate(520.19 -108) rotate(-7.87)" xlink:href="#linear-gradient-7"/>
    <linearGradient id="linear-gradient-16" x1="-386.83" y1="184.31" x2="-395.63" y2="184.77" gradientTransform="translate(520.19 -108) rotate(-7.87)" xlink:href="#linear-gradient-7"/>
    <linearGradient id="linear-gradient-17" x1="-812.99" y1="1283.62" x2="-821.8" y2="1284.07" gradientTransform="translate(1559.39 -431.69) rotate(35.99)" xlink:href="#linear-gradient-7"/>
    <linearGradient id="linear-gradient-18" x1="222.69" y1="2138.1" x2="213.88" y2="2138.55" gradientTransform="translate(2101.94 -801.9) rotate(70.19)" xlink:href="#linear-gradient-8"/>
  </defs>
  <g>
    <path class="cls-24" d="m281.86,179.91l23.48-7.96c3.55-2.07,6.45-7.1,6.45-11.18v-45.85c0-4.08-2.9-9.11-6.45-11.18l-23.48-7.96v84.12Z"/>
    <path class="cls-24" d="m29.93,177.57l-23.48-7.95c-3.55-2.07-6.45-7.1-6.45-11.18v-45.86c0-4.08,2.9-9.11,6.45-11.18l23.48-7.96v84.12Z"/>
    <ellipse class="cls-25" cx="153.61" cy="135.51" rx="136.62" ry="135.51"/>
    <path class="cls-27" d="m271.91,135.51c0,64.8-52.96,117.33-118.29,117.33s-118.29-52.53-118.29-117.33S88.28,18.18,153.61,18.18s118.29,52.53,118.29,117.33Z"/>
  </g>
  <ellipse class="cls-34" cx="153.61" cy="135.51" rx="110.71" ry="109.81"/>
  <path class="cls-40" d="m168.91,233.85c-61.14,0-110.71-49.16-110.71-109.81,0-32.43,14.17-61.57,36.71-81.67-31.26,19.41-52.05,53.86-52.05,93.14,0,60.64,49.57,109.81,110.71,109.81,28.45,0,54.39-10.65,74-28.14-17.01,10.56-37.11,16.67-58.66,16.67Z"/>
  <path class="cls-40" d="m139,103.31c-5.31-9.98-3.04-24.02-12.76-31.45-9.19-7.03-19.31-1.99-27.96,3.45-10.47,6.58-25.69,11.31-30.7,23.71-2.65,6.54-2.87,15.01-4.58,21.79-1.89,7.53-1.88,14.88,4.14,20.63,10.9,10.41,31.21,4.2,44.63,2.98,11.42-1.04,39.72,1.14,43.25-13.42,2.36-9.71-11.5-19.21-16.02-27.7Z"/>
  <polygon class="cls-43" points="105.63 51.95 112.33 87.32 150.28 81.25 141.35 44.62 105.63 51.95"/>
  <polygon class="cls-31" points="184.1 88.7 176.96 129 136.99 121.99 143.17 83.81 184.1 88.7"/>
  <g>
    <polygon class="cls-43" points="65.31 84.06 57.67 119.34 93.97 125.92 100.23 88.71 65.31 84.06"/>
    <polygon class="cls-31" points="57.67 119.34 73.37 128.04 104.07 131.48 94.21 124.54 57.67 119.34"/>
    <polygon class="cls-35" points="100.23 88.71 111.22 97.43 104.07 131.48 94.21 124.54 100.23 88.71"/>
  </g>
  <g>
    <polygon class="cls-42" points="149.06 126.2 106.86 126.2 106.86 84.43 144.88 84.43 149.06 126.2"/>
    <polygon class="cls-35" points="106.86 126.2 116.97 134.3 144.18 134.3 149.06 126.2 106.86 126.2"/>
  </g>
  <g>
    <polygon class="cls-42" points="142.88 58.13 152.73 92.76 189.99 83.35 177.79 47.67 142.88 58.13"/>
    <polygon class="cls-31" points="177.79 47.67 186.17 57.3 193.43 78.81 189.99 83.35 177.79 47.67"/>
  </g>
  <g>
    <path class="cls-1" d="m184.06,47.32s60.02,30.28,70.45,88.5c0,0,5.65.14,10.54-3.7,0,0-9-46.06-81.98-98.74,0,0-12.97,5.33.99,13.94Z"/>
    <path class="cls-13" d="m194.66,41.09s47.76,47.08,39.68,105.66c0,0,5.33,1.86,11.17-.31,0,0,5.68-46.58-47.49-118.92,0,0-13.99,1.13-3.37,13.57Z"/>
  </g>
  <g>
    <path class="cls-14" d="m196.62,55.42s46.72,48.1,37.35,106.5c0,0,5.29,1.97,11.18-.07,0,0,6.7-46.44-44.87-119.92,0,0-14.02.83-3.66,13.49Z"/>
    <path class="cls-12" d="m208.7,52.98s29.59,60,2.61,112.72c0,0,4.43,3.49,10.66,3.33,0,0,20.75-42.17-5.61-127.79,0,0-13.6-3.48-7.66,11.73Z"/>
  </g>
  <g>
    <path class="cls-18" d="m161.13,45.21s64.34,19.7,84.62,75.3c0,0,5.59-.81,9.75-5.42,0,0-16.78-43.87-97.74-83.45,0,0-11.87,7.45,3.37,13.57Z"/>
    <path class="cls-19" d="m170.51,37.28s55.15,38.32,57.25,97.42c0,0,5.58.93,10.96-2.19,0,0-2.4-46.86-67.21-109.16,0,0-13.6,3.48-.99,13.94Z"/>
  </g>
  <path class="cls-30" d="m116.35,49.99c11.39-3.4,20.68-6.31,32.37-5.58-10.36-15.44-34.75-4.29-47.02.82-15.29,6.37-30.52,12.79-21.81,31.89,10.01,2.71,10.33-8.75,14.29-14.41,5.3-7.57,13.37-10.09,22.17-12.71Z"/>
  <path class="cls-30" d="m136.49,223.21c10.26,5.72,22.3,7.18,33.87,6.58,12.46-.64,23.07-4.12,33.9-10.67,9.9-5.99,27.38-11.42,32.18-22.76.26.05,2.19.03,2.45-.02,2.28,11.97-28.32,19.12-36.28,23.47-15.8,8.63-27.36,15.8-45.04,20.18-14.95,3.7-26.79.11-40.08-5.87-5.46-2.46-18.29-4.39-22.21-9.04-7.76-9.19,7.03-9.88,12.98-10.16,13.27-.62,16.9,1.97,28.23,8.3Z"/>
  <path class="cls-11" d="m207.18,129.9c14.6-6.84,20.69-20.49,19.06-35.98-1.35-12.82-7.79-36.61-25.35-33.19-9.32,1.81-5.92,5.8-9.06,13.03-5.33,12.25-21.23,19.14-33.36,22.59-9.84,2.8-9.51,5.51-10.07,16.25-.38,7.2-2.26,18.17,7.28,19.16,6.75.7,11.08-5.44,19.29-3.49,3.66.87,6.3,3.52,10.28,4.36,7.9,1.66,14.78.63,21.94-2.72Z"/>
  <g>
    <path class="cls-23" d="m219.83,158.94c1.73.37,3.55.41,5.44.02,8.74-1.8,16.96-8.15,19.94-16.9,3.25-9.53-.05-19.71-4.74-27.34-6.96-11.32-28.59-11.43-37.4,1.27-7.05,10.17-3.07,26.28,4.06,34.34,3.35,3.79,7.68,7.55,12.71,8.61Z"/>
    <path class="cls-46" d="m219.84,158.84c1.63.34,3.33.4,5.09.08-1.93-1.47-3.67-3.2-5.21-4.94-7.13-8.06-11.11-24.18-4.06-34.34,4.6-6.63,12.7-9.77,20.37-9.64-9.22-6.39-25.58-4.74-32.96,5.89-7.05,10.17-3.07,26.28,4.06,34.34,3.35,3.79,7.68,7.55,12.71,8.61Z"/>
    <path class="cls-33" d="m229.41,128.63c1.62.1,5.92-7.16,5.93-8.76-2.94-.99-7.41,3.82-9.3,5.89-2.45-3.45-8.42-10.86-12.28-11.51-.05,0-.1,0-.14.02-.02.01-.05.03-.07.05-.05.06-.07.14-.05.21,1.29,3.84,3.9,7.02,6.42,10.09,1.02,1.25,2.07,2.53,3.02,3.85-1.32.09-2.78.27-4.3.46-3.61.45-7.34.92-9.8.2-.05-.02-.11,0-.16.02-.05.03-.09.07-.11.12-.04.11.01.23.12.26,4.36,1.29,8.32,2.14,12.39,2.64-1.78,2.64-3.36,5.28-4.68,7.49-.33.55-.64,1.08-.93,1.56-.05.09-.04.2.03.26.07.06.19.06.27,0,.1-.08,4.89-4.18,9.73-8.89.01,0,.03,0,.04,0,.05.08.09.16.14.24,2.67,4.54,5.99,10.19,9.89,12.45.08.05.18.03.26-.04.04-.04.06-.08.07-.12.05.1.17.14.28.08.11-.06.16-.18.11-.29-1.76-3.85-3.68-8.03-5.92-12.12,1.41.02,2.8,0,4.14-.11,1.07-.09,2.25-.43,3.39-.77,1.51-.44,3.07-.9,4.35-.75.38.13.79.26,1.24.4.1.03.21-.02.26-.12.05-.1.02-.21-.07-.26-.38-.22-.81-.36-1.3-.42-.5-.17-.95-.34-1.39-.5-1.79-.66-3.19-1.18-5.95-1.3-1.42-.06-2.86-.16-4.25-.25-.46-.03-.93-.06-1.4-.09Z"/>
  </g>
  <path class="cls-11" d="m133.6,66.67c-6.82,5.23-14.19,9.1-18.8,9.64-7.01.81-14.14-.86-21.1,1.07-2.77.77-6.79,4.51-9.59,4.21-18.24-1.9,9.18-27.36,14.84-31.35,9.87-6.96,24.7-14.48,37.11-15.06,5.7-.26,12.95.45,14.08,7.41,1.16,7.17-7.18,16.9-16.55,24.07Z"/>
  <g>
    <path class="cls-44" d="m221.08,172.4c-1.74,8.8-2.5,16.92-2.98,26.01-7.14,1.9-9.63-6.64-11.61-11.36-2.76-6.61-9.14-10.3-11.69-17.13-2.58-6.91.9-17.9,6.7-22.45,4.31-3.37,13.29-3.95,17.28.3,5.58,5.93,3.7,17.49,2.29,24.63Z"/>
    <path class="cls-36" d="m217.09,173.39c1.96-4.99,3.33-7.76-.17-11.92-2.45-2.91-8.99-6.04-12.27-2.82-1.52,1.49-1.84,9.28-2.46,11.58-1.02,3.82-1.6,8.13-3.71,11.57-2.89,4.7-7.23,7.83-12.36,9.93-9.63,3.93-17.6-2.95-27.54-3.05-2.96-.03-13.88-1.59-15.4,1.35-1.88,3.62,8.48,10.45,10.94,12.7,11.01,10.08,26.69,9.8,38.63,1.85,6.59-4.39,11.63-4.8,19.26-4.89,7.31-.08,18.08-2.56,7.97-9.66-3.15-2.22-6.71-1.99-7.35-6.23-.49-3.24,3.31-7.47,4.46-10.39Z"/>
    <path class="cls-44" d="m202.49,142.72c-3.44-8.61-14.99-12.48-23.72-10.95-8.43,1.47-12.43,8.35-14.13,16.12-2.14,9.77-2.31,19.94-5.46,29.49-1.95,5.89-5.51,11.08,1.11,13.36,5.93,2.05,9.05.02,14.35,4.31,13.32,10.77,20.16-5.62,23.5-17.41,2.61-9.22,8.19-25.32,4.34-34.92Z"/>
    <path class="cls-41" d="m173.78,140.39c1.81,4.59-4.93,14.29-3.94,20.4,5.93-5.49,2.42-24.54,13.75-22.4.82,3.37-1.45,5.87-2.64,8.68,2.87-1.47,5.57-10.59,9.27-7.12,3.65,3.43-1.68,10.79-1.45,14.28,3.37-.23,3.18-10.25,7.18-8.65,3.04,1.22.39,10.6-.01,12.73-1.48,7.74.37,17.72-3.3,24.62,4.89-1.13,5.04-12.22,6.19-16.46,1.6-5.88,5.27-13.16,4.9-19.32-.45-7.41-7.83-11.95-14.3-13.84-5.67-1.65-12.77-1.77-18.26.63-3.64,1.59-8.68,7.15-7.25,11.22,2.88-.49,7.65-10.39,9.87-4.76Z"/>
    <path class="cls-41" d="m170.44,178.61c-.1,2.39.43,7.6,4.34,7.22,2.86-.28,3.05-4.87,4.33-6.62.25,3.84-1.24,10.06,2.45,12.51,5.34,3.55,7.28-2.91,10.92-4.21.66,6.54-4.58,9.28-9.92,9.85-6.98.75-9.81-4.29-16.7-4.95-8.65-.83-13.17,2.6-9.87-8.29,1.76-5.79.07-13.42,6.22-15.36,2.92-.92,3.54,1.34,6.67-1.07,2.58-1.99,2.37-5.81,5.85-6.6,2.36,5.19-4.05,11.92-4.3,17.52Z"/>
    <path class="cls-30" d="m154.16,149.38c-2.51.2-7.1-6.57-7.17-8.95-.09-3.27,3.31-6.18,5.54-8.1,9.94-8.57,24.18-12.34,36.84-14.58,8.47-1.5,12.04,1.63,18.24,6.64,4.39,3.55,10.72,5.31,13.36,10.57,2.37,4.71.28,11.49-4.98,13.84-6.45,2.89-11.99-.03-15.64-4.88-2.81-3.74-4.39-6.78-9-8.24-5.46-1.74-14.1-1.17-19.65-.03-3.94.81-8.83,2.54-11.82,5.26-2.47,2.25-2.86,8.24-5.72,8.47Z"/>
    <path class="cls-36" d="m215.99,142.73c-6.45,2.89-11.99-.03-15.64-4.88-2.81-3.74-4.39-6.78-9-8.24-5.47-1.74-14.1-1.17-19.65-.03-3.94.81-8.83,2.54-11.82,5.26-2.47,2.25-2.86,8.24-5.72,8.47-1.8.15-4.68-3.31-6.18-6.14-.62,1.03-1.02,2.13-.99,3.27.07,2.37,4.66,9.15,7.17,8.95,2.86-.23,3.25-6.22,5.72-8.47,2.99-2.72,7.88-4.45,11.82-5.26,5.55-1.15,14.18-1.71,19.65.03,4.61,1.47,6.19,4.5,9,8.24,3.65,4.86,9.19,7.77,15.64,4.88,4.8-2.15,6.95-7.99,5.49-12.57-.82,2.76-2.7,5.25-5.49,6.5Z"/>
    <path class="cls-40" d="m150.97,158.03c2.75-6.61,8.79-12.35,9.87-19.42.85-5.56-2.37-14.95-9.44-9.83-6.47,4.69-9.24,14.21-13.93,20.43-6.5,8.62-14.04,16.33-10.99,27.74,1.69,6.32,4.75,22.98,14.35,20.01,6.78-2.1,6.84-11.41,6.54-17.25-.42-8.43.3-13.74,3.6-21.69Z"/>
    <path class="cls-41" d="m162.64,154.96c1.1-4.9,6.38-14.58,1.11-17.93-4.15-2.64-19.52-.35-24.05,1.15-3.83,1.26-3.72.07-4.45,4.51-.52,3.16.52,6.83.56,10.11.13,11.21-3.05,29.17,2.87,38.96,4.16.23,13.03,2.59,16.61,1.21,4.32-1.66,4.84-10.48,5.01-14.79.31-7.69.67-15.7,2.35-23.22Z"/>
    <path class="cls-30" d="m163.59,137.03c-.36-.23-.82-.42-1.34-.58-.85,2.97-2.08,5.93-2.55,8.02-1.68,7.52-2.04,15.53-2.35,23.22-.18,4.31-.69,13.14-5.01,14.79-3.59,1.38-12.46-.98-16.62-1.21-.17-.29-.34-.59-.5-.89.44,4.3,1.4,8.26,3.28,11.38,4.16.23,13.03,2.59,16.62,1.21,4.32-1.66,4.83-10.48,5.01-14.79.31-7.69.67-15.7,2.35-23.22,1.1-4.9,6.38-14.58,1.11-17.93Z"/>
    <path class="cls-44" d="m152.92,157.72c1.02-4.43,6.5-13.68,2.7-17.34-2.44-2.35-13.14-1.78-15.52.56-3.65,3.59-.59,10.38.02,14.48,1.05,7.1-2.35,28.84,10.06,25.85,2.88-6.82,1.05-16.22,2.74-23.55Z"/>
    <path class="cls-44" d="m208.16,129.87c2.66,1.35,8.47,2.77,7.28,6.78-1.11,3.73-7.45,3.7-10.08,2.36-7.55-3.86-7.56-13.41-17.24-14.51-7.45-.85-15.78.42-22.17,3.24,1.8-6.26,14.69-5.79,19.62-6.33,10.43-1.14,13.81,4,22.58,8.45Z"/>
    <path class="cls-28" d="m227.15,161.96c.3.43.59.86.89,1.28,3.39,4.9,9.65,12.31,7.8,18.53-9.63-5.74-11.42-18.64-19.75-25.84-3.59-3.1-8.6-4.81-11.92-8.19-5.53-5.62,1.62-5.65,5.44-3.72,7.43,3.74,12.88,11.21,17.55,17.94Z"/>
    <path class="cls-40" d="m232.57,166.11c1.37,2.62,2.14,7.04.1,9.29-2,2.21-5.61.92-7.8,2.83-9.7,8.45,5.23,9.01,7.67,12.07,5.38,6.75-4.55,17.77-7.05,10.67,8.92,5.98-16.19,20.9-14.53,1.61.39-4.48,8.68-6.95,5.88-11.04-2.6-3.8-10.29-1.13-7.58-9.39,2.37-7.21,18.99-6.32,13.39-14.46-3.07-4.46-8.23-1.53-11.01-4.98-3.61-4.5,1.8-7.47,6.17-7.07,5.17.47,12.5,6.15,14.77,10.48Z"/>
    <path class="cls-36" d="m163.54,200.23c5.64,1.77,10.04,3.89,16.25,4.29,8.01.52,13.43-4.01,21.03-5.4,6.41-1.17,21.64-6.32,19.7,6.32-1.78,11.65-18.7,7.54-26.28,10.12-5.23,1.78-6.64,6.8-11.66,8.29-5.59,1.66-12.86-1.77-17.83-3.98-6.78-3.02-7.78-6.61-12.4-11.35-3.08-3.16-7.54-4.3-11.52-6.34-5.01-2.55-8.18-5.21-8.2-10.91-.02-7.2,8.37-17.53,14.68-7.87,2.07,3.16.24,6.95,3.04,10.36,3.18,3.87,8.63,5.03,13.18,6.46Z"/>
    <path class="cls-30" d="m200.87,198.58c-7.6,1.39-13.02,5.91-21.03,5.4-6.21-.4-10.61-2.52-16.25-4.29-4.55-1.43-10-2.59-13.18-6.46-2.81-3.41-.98-7.2-3.04-10.36-4.02-6.14-8.87-4.2-11.87-.12-.02.26-.03.52-.03.77.02,5.69,3.19,8.35,8.2,10.9,3.99,2.03,8.44,3.17,11.52,6.34,4.62,4.74,5.63,8.33,12.4,11.35,4.97,2.21,12.24,5.64,17.83,3.98,5.02-1.49,6.43-6.51,11.66-8.29,6.08-2.07,18.2.17,23.65-4.92.03-10.04-13.83-5.41-19.87-4.31Z"/>
    <path class="cls-38" d="m231.39,156.62c1.37,2.62,2.14,7.04.1,9.29-2,2.21-5.61.92-7.8,2.83-9.7,8.45,5.23,9.01,7.67,12.07,5.38,6.74-4.55,17.77-7.05,10.67,8.92,5.98-16.19,20.9-14.53,1.61.39-4.48,8.68-6.95,5.88-11.04-2.6-3.81-10.29-1.13-7.58-9.39,2.37-7.21,18.99-6.32,13.39-14.47-3.07-4.46-8.23-1.53-11-4.98-3.61-4.49,1.8-7.47,6.17-7.07,5.17.47,12.5,6.15,14.77,10.48Z"/>
    <path class="cls-21" d="m164.81,185.23c.64,6.91,5.2,10.08,11.12,13.12,8.62,4.42,18.39,4.65,27.66,3.56-2.56,2.3-.93,5.27-4.28,6.39-2.22.75-9.94-1.38-12.68-1.53-7.05-.4-13.95-.73-20.18-4.54-8.14-4.98-8.17-11.98-6.51-20.37.53-2.7-1.14-16.58,5.28-14.94,2.94.75-.73,14.9-.42,18.32Z"/>
    <path class="cls-37" d="m200.73,180.54c-.19.49-.38.97-.57,1.45-2.18,5.54-4.82,14.84-11.05,16.82-.63-11.12,9.11-19.86,10.41-30.74.56-4.68-.83-9.76.11-14.38,1.57-7.7,5.62-1.85,6.16,2.36,1.06,8.19-2.09,16.87-5.07,24.49Z"/>
    <path class="cls-37" d="m185.98,139.79c.87-5.78-7.85-3.87-11.05-2.68-5.89,2.2-9,6.22-11.83,11.59-2.71,5.14-7.27,9.65-8.75,15.39-1.06,4.09.7,8.69,4.57,6.09,2.45-1.65,4.58-9.74,6.17-12.46,2.46-4.21,5.1-8.5,8.69-11.88.96-.91,12.34-6.97,12.21-6.06Z"/>
  </g>
  <g>
    <path class="cls-23" d="m220.32,117.71c1.57-.81,3-1.92,4.21-3.41,5.6-6.89,7.88-16.98,4.58-25.62-3.59-9.4-12.66-15.19-21.17-18.13-12.63-4.35-29.41,9.19-28.08,24.54,1.07,12.3,14.46,22.24,25.12,23.97,5.01.82,10.77,1,15.33-1.35Z"/>
    <path class="cls-46" d="m220.27,117.63c1.48-.76,2.83-1.79,3.98-3.14-2.43.08-4.89-.16-7.19-.54-10.67-1.73-24.06-11.67-25.12-23.97-.69-8.02,3.55-15.54,9.57-20.28-11.21.87-22.8,12.45-21.69,25.31,1.06,12.29,14.46,22.23,25.12,23.97,5.01.81,10.76,1,15.33-1.35Z"/>
    <path class="cls-33" d="m208.32,88.26c1.32-.94-.01-9.26-1.03-10.5-2.9,1.09-3.28,7.62-3.41,10.41-4.1-1.12-13.46-3.09-16.85-1.16-.04.02-.07.06-.09.1-.01.03-.02.06-.02.08,0,.08.04.16.1.2,3.46,2.15,7.5,2.97,11.42,3.75,1.59.32,3.21.65,4.8,1.07-.97.9-1.98,1.96-3.03,3.07-2.5,2.62-5.08,5.34-7.44,6.32-.05.02-.09.07-.11.12-.02.05-.02.11,0,.17.04.11.15.17.26.13,4.19-1.75,7.8-3.59,11.26-5.77.31,3.16.79,6.2,1.18,8.73.1.64.19,1.24.28,1.79.02.1.1.18.19.18.1,0,.18-.07.2-.18.02-.13,1.1-6.31,1.82-13,.01,0,.02-.02.04-.02.09.03.18.06.27.1,4.97,1.83,11.15,4.09,15.62,3.38.09-.01.16-.09.17-.19,0-.05,0-.1-.02-.14.1.05.22,0,.27-.11.05-.11,0-.24-.1-.29-3.82-1.86-7.98-3.89-12.33-5.63,1.11-.87,2.16-1.76,3.13-2.69.77-.74,1.46-1.75,2.13-2.73.88-1.29,1.8-2.62,2.88-3.32.38-.14.78-.29,1.21-.47.1-.04.15-.15.12-.26-.02-.11-.12-.18-.22-.16-.44.07-.85.23-1.27.49-.5.18-.95.34-1.39.49-1.8.62-3.22,1.1-5.42,2.74-1.14.85-2.31,1.68-3.44,2.48-.38.27-.76.54-1.14.81Z"/>
  </g>
  <g>
    <path class="cls-32" d="m103.74,157.15c9.84,4.25,33.39,15.09,36.48-1.74,4.39-23.93-48.94-27.96-63.23-30.09-11.25-1.68-37.17,3.85-25.63,20.22,9.28,13.17,38.43,5.58,52.38,11.61Z"/>
    <path class="cls-11" d="m117.27,162.59c14.73,2.41,19.3-11.88,10.08-21.68-7.01-7.46-19.24-10.63-28.35-13.98-6.56-2.41-14.83-1.56-22.02-1.57-9.46,0-12.86-.56-16.25,8.39-2.56,6.76-3.04,12.93,4.31,17.05,3.08,1.73,7.43,1.96,11.03,1.79,7.19-.33,5.33-3.06,9.34-5.44,9.78-5.81,5.48.15,11.45,6.6,4.28,4.63,14.56,7.87,20.41,8.83Z"/>
    <path class="cls-11" d="m78.8,135.38c-2.65,13.15,17.93,14.32,23.53,5.47,9.86-15.58-20.53-20.34-23.53-5.47Z"/>
  </g>
  <g>
    <path class="cls-32" d="m110.39,179.77c10.44,2.43,35.58,8.91,35.58-8.2,0-24.32-53.2-18.8-67.64-18.37-11.37.34-35.87,10.39-21.56,24.45,11.51,11.31,38.82-1.34,53.63,2.11Z"/>
    <path class="cls-11" d="m124.68,182.72c14.93-.24,16.84-15.12,6-23.13-8.24-6.09-20.85-7.04-30.41-8.71-6.89-1.2-14.87,1.1-21.95,2.37-9.31,1.67-12.75,1.73-14.47,11.15-1.3,7.11-.66,13.26,7.32,16.01,3.34,1.15,7.66.61,11.17-.2,7.01-1.6,4.69-3.96,8.2-7.02,8.57-7.46,5.42-.83,12.45,4.46,5.05,3.79,15.75,5.16,21.68,5.06Z"/>
    <path class="cls-11" d="m81.92,162.78c-.23,13.41,20.22,10.91,24.14,1.2,6.89-17.08-23.87-16.36-24.14-1.2Z"/>
  </g>
  <g>
    <path class="cls-32" d="m121.89,197.51c8.2-1.37,28.12-4.22,22.95-16.44-7.36-17.38-43.71,2.39-53.9,7-8.02,3.63-22.49,18.1-8.01,23.89,11.65,4.66,27.33-12.51,38.96-14.45Z"/>
    <path class="cls-11" d="m133,195.37c10.6-4.62,7.46-15.81-2.7-18.31-7.73-1.9-17.03,1.17-24.37,2.82-5.29,1.19-10.3,5.21-14.97,8.22-6.15,3.96-8.59,5.03-6.97,12.27,1.22,5.46,3.54,9.67,10.07,9.26,2.73-.17,5.66-1.85,7.93-3.46,4.53-3.23,2.15-4.23,3.74-7.45,3.87-7.88,3.62-2.2,10.25-.52,4.76,1.21,12.81-1,17.02-2.83Z"/>
    <path class="cls-11" d="m96.41,193.85c3.89,9.65,17.75,1.78,17.61-6.32-.25-14.26-22.01-4.59-17.61,6.32Z"/>
  </g>
  <g>
    <path class="cls-39" d="m121.92,121.41c-7.63,3.51-16.71.21-20.24-7.36-3.54-7.56-.21-16.57,7.42-20.08,7.63-3.51,16.71-.21,20.24,7.36,3.54,7.56.21,16.57-7.42,20.08Zm-10.81-23.14c-5.23,2.41-7.52,8.59-5.09,13.78,2.43,5.19,8.66,7.46,13.9,5.05,5.23-2.41,7.52-8.59,5.09-13.78-2.43-5.19-8.66-7.46-13.9-5.05Z"/>
    <path class="cls-39" d="m168.53,115.14c-6.43,2.96-14.09.17-17.07-6.2-2.98-6.38-.18-13.97,6.25-16.93,6.43-2.96,14.09-.17,17.07,6.21,2.98,6.38.18,13.97-6.25,16.93Zm-9.12-19.51c-4.41,2.03-6.34,7.25-4.29,11.62,2.05,4.38,7.3,6.29,11.72,4.26,4.41-2.03,6.34-7.24,4.3-11.62-2.05-4.38-7.3-6.29-11.72-4.26Z"/>
    <path class="cls-39" d="m138.94,157.83c-7.63,3.51-16.7.21-20.24-7.36-3.53-7.56-.21-16.57,7.42-20.08,7.63-3.51,16.71-.21,20.24,7.36,3.54,7.56.21,16.57-7.42,20.07Zm-10.81-23.13c-5.23,2.41-7.52,8.59-5.09,13.78,2.43,5.19,8.66,7.46,13.9,5.05,5.24-2.41,7.52-8.59,5.09-13.78-2.43-5.19-8.66-7.46-13.9-5.05Z"/>
    <g>
      <g>
        <path class="cls-17" d="m163.25,108.56l-1.52,6.8c-.37,1.67,1.65,2.9,3.69,3.35,2.04.45,4.4.17,4.77-1.5l1.51-6.81-8.46-1.85Z"/>
        <g>
          <path class="cls-26" d="m171.25,110.56c-.21.96-2.09,1.36-4.2.9-2.11-.46-3.64-1.61-3.43-2.57.21-.96,2.09-1.36,4.2-.9,2.11.46,3.64,1.61,3.43,2.57Z"/>
          <path class="cls-22" d="m166.96,111.84c-2.01-.44-3.99-1.65-3.68-3.03.3-1.38,2.61-1.65,4.62-1.21,2.02.44,3.99,1.65,3.68,3.03-.31,1.38-2.61,1.65-4.63,1.21Zm.78-3.48c-2.15-.47-3.65.03-3.78.6-.13.57,1.02,1.64,3.17,2.12,2.15.47,3.65-.03,3.77-.6.13-.57-1.02-1.65-3.17-2.12Z"/>
        </g>
      </g>
      <g>
        <path class="cls-15" d="m151.73,138l4.36-3.37c1.07-.83.47-2.58-.54-3.86-1.01-1.29-2.58-2.29-3.64-1.47l-4.36,3.37,4.19,5.33Z"/>
        <g>
          <path class="cls-20" d="m147.9,132.81c.61-.47,1.96.22,3,1.54,1.04,1.33,1.39,2.79.78,3.26-.62.47-1.96-.22-3-1.54-1.04-1.33-1.39-2.79-.77-3.26Z"/>
          <path class="cls-45" d="m151.15,134.17c.99,1.27,1.58,2.98.7,3.67-.88.68-2.42-.3-3.41-1.57-1-1.27-1.58-2.99-.7-3.67.88-.68,2.42.3,3.41,1.57Zm-2.23,1.72c1.07,1.36,2.23,1.8,2.59,1.52.36-.28.21-1.51-.85-2.86-1.06-1.36-2.23-1.8-2.59-1.52-.36.28-.22,1.51.85,2.86Z"/>
        </g>
      </g>
      <g>
        <path class="cls-29" d="m147.55,113.4c.79,1.93-.14,4.12-2.09,4.9-1.94.79-4.15-.14-4.94-2.07-.79-1.92.15-4.12,2.09-4.9,1.94-.78,4.15.14,4.94,2.07Z"/>
        <path class="cls-22" d="m145.89,119.35c-2.52,1.02-5.4-.19-6.43-2.69-1.02-2.5.19-5.36,2.71-6.37,2.52-1.01,5.4.19,6.42,2.69,1.02,2.5-.19,5.36-2.71,6.38Zm-2.86-6.97c-1.36.55-2.01,2.09-1.46,3.43.55,1.35,2.1,2,3.46,1.45,1.36-.55,2.01-2.09,1.46-3.43-.55-1.35-2.1-1.99-3.46-1.45Z"/>
      </g>
      <g>
        <path class="cls-16" d="m135.14,130.88l-7.5,1.99c-1.83.49-2.03,3.08-1.44,5.29.6,2.21,2.07,4.36,3.9,3.88l7.5-1.99-2.47-9.17Z"/>
        <g>
          <path class="cls-26" d="m137.23,139.66c-1.05.28-2.41-1.34-3.03-3.63-.62-2.28-.26-4.36.8-4.64,1.06-.28,2.41,1.34,3.03,3.63.61,2.28.26,4.36-.8,4.64Z"/>
          <path class="cls-22" d="m133.78,136.15c-.59-2.18-.4-4.72,1.12-5.12,1.52-.4,2.96,1.7,3.55,3.89.59,2.18.39,4.72-1.12,5.12-1.52.4-2.96-1.7-3.54-3.88Zm3.83-1.01c-.63-2.33-1.88-3.54-2.51-3.37-.62.17-1.11,1.83-.48,4.16.63,2.34,1.89,3.54,2.51,3.37.62-.16,1.11-1.83.48-4.16Z"/>
        </g>
      </g>
      <g>
        <path class="cls-5" d="m134.85,111.35l1.7-5.85c.42-1.43-1.28-2.62-3.03-3.12-1.75-.5-3.82-.39-4.24,1.04l-1.7,5.85,7.27,2.08Z"/>
        <g>
          <path class="cls-26" d="m127.99,109.17c.24-.82,1.9-1.07,3.72-.55,1.81.52,3.08,1.61,2.84,2.43-.24.83-1.9,1.07-3.71.56-1.81-.52-3.09-1.61-2.85-2.43Z"/>
          <path class="cls-22" d="m131.8,108.29c1.73.5,3.39,1.66,3.04,2.84-.34,1.18-2.37,1.29-4.1.8-1.73-.5-3.39-1.66-3.04-2.84.34-1.18,2.37-1.3,4.1-.8Zm-.87,2.99c1.85.53,3.19.17,3.33-.31.14-.49-.8-1.49-2.65-2.02-1.85-.53-3.19-.18-3.33.31-.14.49.8,1.49,2.65,2.02Z"/>
        </g>
      </g>
      <g>
        <path class="cls-29" d="m160.83,105.53c.79,1.93-.14,4.12-2.08,4.9-1.94.78-4.16-.14-4.94-2.07-.79-1.92.14-4.12,2.08-4.91,1.94-.78,4.16.15,4.94,2.07Z"/>
        <path class="cls-22" d="m159.17,111.48c-2.52,1.02-5.4-.19-6.43-2.69-1.02-2.5.19-5.36,2.71-6.38,2.52-1.02,5.4.19,6.43,2.69,1.02,2.5-.2,5.36-2.71,6.37Zm-2.85-6.97c-1.36.55-2.01,2.09-1.46,3.43.55,1.34,2.1,2,3.46,1.45,1.35-.55,2.01-2.08,1.46-3.43-.55-1.35-2.1-2-3.46-1.45Z"/>
      </g>
      <g>
        <path class="cls-2" d="m132.77,127.06l6.15.44c1.51.11,2.33-1.79,2.47-3.61.13-1.81-.41-3.81-1.92-3.92l-6.15-.44-.55,7.53Z"/>
        <g>
          <path class="cls-20" d="m133.51,119.91c.87.06,1.46,1.63,1.32,3.51-.14,1.88-.95,3.35-1.82,3.28-.87-.06-1.46-1.63-1.32-3.51.14-1.87.95-3.34,1.82-3.28Z"/>
          <path class="cls-45" d="m135.17,123.44c-.13,1.79-.94,3.65-2.19,3.56-1.24-.09-1.78-2.04-1.64-3.83.13-1.79.94-3.65,2.19-3.56,1.24.09,1.78,2.04,1.64,3.83Zm-3.14-.23c-.14,1.92.49,3.14,1,3.18.51.04,1.31-1.09,1.46-3.01.14-1.91-.49-3.14-1-3.18-.51-.04-1.31,1.09-1.45,3Z"/>
        </g>
      </g>
    </g>
    <g>
      <g>
        <path class="cls-3" d="m145.74,150.69l-1.4-6.83c-.34-1.67-2.7-1.99-4.74-1.57-2.04.41-4.09,1.62-3.74,3.29l1.4,6.83,8.49-1.71Z"/>
        <g>
          <path class="cls-26" d="m137.62,152.08c-.2-.96,1.36-2.09,3.47-2.52,2.11-.43,3.99,0,4.18.97.2.96-1.36,2.09-3.47,2.52-2.11.42-3.99,0-4.19-.97Z"/>
          <path class="cls-22" d="m141.01,149.19c2.02-.41,4.32-.1,4.6,1.28.28,1.38-1.71,2.56-3.73,2.97-2.02.41-4.32.1-4.61-1.28-.28-1.38,1.71-2.56,3.73-2.97Zm.72,3.49c2.16-.44,3.33-1.5,3.21-2.07-.12-.57-1.61-1.09-3.77-.66-2.16.44-3.33,1.5-3.21,2.07.11.57,1.61,1.1,3.77.66Z"/>
        </g>
      </g>
      <g>
        <path class="cls-4" d="m144.21,119.15l-2.6,4.83c-.64,1.18.63,2.55,2.08,3.31,1.45.77,3.29,1.06,3.93-.13l2.6-4.83-6.01-3.18Z"/>
        <g>
          <path class="cls-20" d="m149.84,122.34c-.37.68-1.88.59-3.37-.2-1.5-.79-2.41-1.99-2.04-2.67.37-.68,1.88-.59,3.37.2,1.5.79,2.41,1.99,2.04,2.67Z"/>
          <path class="cls-45" d="m146.32,122.41c-1.43-.76-2.67-2.09-2.14-3.07.52-.98,2.33-.7,3.76.06,1.43.76,2.67,2.09,2.14,3.07-.53.98-2.33.7-3.76-.06Zm1.33-2.47c-1.53-.81-2.77-.75-2.99-.34-.22.4.42,1.46,1.95,2.27,1.53.81,2.77.75,2.98.35.22-.4-.42-1.46-1.95-2.27Z"/>
        </g>
      </g>
      <g>
        <path class="cls-29" d="m158.11,139.94c-1.51-1.44-1.55-3.82-.1-5.32,1.45-1.5,3.85-1.54,5.36-.1,1.51,1.44,1.56,3.82.1,5.32-1.45,1.5-3.86,1.54-5.37.1Z"/>
        <path class="cls-22" d="m157.19,133.84c1.89-1.94,5.01-2,6.98-.13,1.96,1.87,2.02,4.98.13,6.92-1.89,1.94-5.01,2-6.98.13-1.96-1.87-2.02-4.98-.13-6.92Zm5.46,5.22c1.02-1.04.99-2.72-.07-3.72-1.05-1.01-2.74-.98-3.76.07-1.01,1.04-.98,2.71.07,3.72,1.06,1.01,2.74.98,3.75-.07Z"/>
      </g>
      <g>
        <path class="cls-10" d="m162.3,118.97l6.04-4.84c1.47-1.18.59-3.63-.86-5.41-1.45-1.78-3.68-3.15-5.15-1.97l-6.04,4.84,6.01,7.38Z"/>
        <g>
          <path class="cls-26" d="m156.79,111.78c.85-.68,2.75.26,4.25,2.1,1.5,1.84,2.02,3.88,1.17,4.56-.85.68-2.75-.26-4.25-2.1-1.5-1.84-2.02-3.88-1.17-4.56Z"/>
          <path class="cls-22" d="m161.37,113.6c1.43,1.76,2.3,4.15,1.07,5.13-1.22.98-3.4-.36-4.83-2.12-1.43-1.76-2.29-4.16-1.07-5.13,1.22-.98,3.4.36,4.83,2.12Zm-3.08,2.47c1.53,1.88,3.17,2.47,3.67,2.07.5-.4.26-2.12-1.27-4-1.53-1.88-3.17-2.47-3.67-2.07-.5.4-.27,2.12,1.26,4Z"/>
        </g>
      </g>
      <g>
        <path class="cls-8" d="m170.55,136.69l.84,6.03c.21,1.48,2.25,1.88,4.05,1.63,1.81-.25,3.66-1.18,3.45-2.66l-.84-6.03-7.5,1.03Z"/>
        <g>
          <path class="cls-26" d="m177.71,135.92c.12.85-1.3,1.75-3.17,2-1.87.26-3.48-.23-3.6-1.07-.12-.85,1.3-1.75,3.17-2,1.87-.26,3.48.23,3.6,1.08Z"/>
          <path class="cls-22" d="m174.59,138.26c-1.78.24-3.77-.15-3.94-1.37-.17-1.22,1.63-2.14,3.42-2.38,1.78-.25,3.77.15,3.94,1.37.17,1.22-1.63,2.14-3.42,2.38Zm-.43-3.08c-1.91.26-2.98,1.12-2.91,1.62.07.5,1.34,1.05,3.25.78,1.91-.26,2.98-1.12,2.91-1.63-.07-.5-1.34-1.04-3.25-.78Z"/>
        </g>
      </g>
      <g>
        <path class="cls-7" d="m151.79,125.22l.84,6.03c.21,1.48,2.25,1.88,4.05,1.63,1.81-.25,3.65-1.18,3.45-2.66l-.84-6.03-7.5,1.03Z"/>
        <g>
          <path class="cls-26" d="m158.95,124.45c.12.85-1.3,1.75-3.17,2-1.87.25-3.48-.23-3.6-1.08-.12-.85,1.3-1.75,3.17-2,1.87-.26,3.48.22,3.6,1.07Z"/>
          <path class="cls-22" d="m155.83,126.79c-1.79.25-3.77-.15-3.94-1.37-.17-1.22,1.63-2.14,3.42-2.38,1.79-.24,3.77.15,3.94,1.37.17,1.22-1.63,2.14-3.42,2.38Zm-.43-3.08c-1.91.26-2.98,1.12-2.92,1.62.07.5,1.34,1.04,3.25.78,1.91-.26,2.98-1.12,2.91-1.63-.07-.5-1.34-1.04-3.25-.78Z"/>
        </g>
      </g>
      <g>
        <path class="cls-6" d="m141.43,120.28l-3.61,4.92c-.88,1.21.31,2.9,1.78,3.96,1.48,1.06,3.46,1.66,4.35.45l3.61-4.93-6.12-4.41Z"/>
        <g>
          <path class="cls-26" d="m147.13,124.64c-.51.7-2.16.37-3.68-.73-1.53-1.1-2.35-2.55-1.84-3.25.51-.7,2.16-.37,3.68.73,1.53,1.1,2.35,2.55,1.84,3.25Z"/>
          <path class="cls-22" d="m143.24,124.19c-1.46-1.05-2.62-2.7-1.89-3.7.73-1,2.67-.42,4.13.63,1.46,1.05,2.61,2.7,1.89,3.7-.73,1-2.67.42-4.13-.63Zm1.84-2.52c-1.56-1.12-2.94-1.24-3.24-.83-.3.41.24,1.67,1.8,2.8,1.56,1.12,2.94,1.24,3.24.83.3-.41-.24-1.67-1.8-2.8Z"/>
        </g>
      </g>
      <g>
        <path class="cls-29" d="m149.2,152.48c-1.51-1.44-1.55-3.82-.1-5.32,1.45-1.5,3.85-1.54,5.36-.1,1.51,1.44,1.56,3.82.1,5.32-1.45,1.5-3.85,1.54-5.36.1Z"/>
        <path class="cls-22" d="m148.27,146.37c1.89-1.94,5.02-2,6.98-.13,1.96,1.87,2.02,4.98.13,6.92-1.89,1.94-5.01,2-6.97.13-1.96-1.87-2.02-4.97-.13-6.92Zm5.47,5.22c1.02-1.05.98-2.72-.07-3.72-1.05-1.01-2.74-.98-3.75.07-1.02,1.04-.98,2.72.07,3.72,1.06,1.01,2.74.98,3.76-.07Z"/>
      </g>
      <g>
        <path class="cls-9" d="m166.02,121.51l-5.8,2.07c-1.42.51-1.4,2.58-.78,4.29.62,1.71,1.94,3.32,3.36,2.81l5.8-2.07-2.58-7.1Z"/>
        <g>
          <path class="cls-20" d="m168.28,128.33c-.82.29-2-.91-2.64-2.67-.64-1.77-.5-3.44.32-3.73.82-.29,2,.9,2.64,2.67.64,1.77.5,3.44-.32,3.73Z"/>
          <path class="cls-45" d="m165.31,125.78c-.61-1.69-.63-3.71.54-4.13,1.17-.42,2.46,1.15,3.07,2.84.61,1.69.63,3.71-.54,4.13-1.17.42-2.46-1.15-3.07-2.84Zm2.97-1.06c-.66-1.81-1.73-2.68-2.22-2.5-.48.17-.76,1.52-.1,3.33.66,1.8,1.73,2.67,2.22,2.5.48-.17.76-1.52.1-3.33Z"/>
        </g>
      </g>
    </g>
  </g>
</svg>