<?xml version="1.0" encoding="UTF-8"?>
<svg id="Layer_2" data-name="Layer 2" xmlns="http://www.w3.org/2000/svg" xmlns:xlink="http://www.w3.org/1999/xlink" viewBox="0 0 258.82 256.72">
  <defs>
    <style>
      .cls-1 {
        fill: url(#linear-gradient);
      }

      .cls-1, .cls-2, .cls-3, .cls-4, .cls-5, .cls-6, .cls-7, .cls-8, .cls-9, .cls-10, .cls-11, .cls-12, .cls-13, .cls-14, .cls-15, .cls-16, .cls-17, .cls-18, .cls-19, .cls-20, .cls-21, .cls-22, .cls-23, .cls-24, .cls-25, .cls-26, .cls-27, .cls-28, .cls-29, .cls-30, .cls-31, .cls-32, .cls-33, .cls-34, .cls-35, .cls-36, .cls-37, .cls-38, .cls-39, .cls-40, .cls-41, .cls-42, .cls-43, .cls-44, .cls-45, .cls-46, .cls-47, .cls-48, .cls-49, .cls-50, .cls-51, .cls-52, .cls-53, .cls-54, .cls-55, .cls-56, .cls-57, .cls-58, .cls-59, .cls-60, .cls-61, .cls-62, .cls-63, .cls-64, .cls-65, .cls-66 {
        stroke-width: 0px;
      }

      .cls-2 {
        fill: url(#linear-gradient-38);
      }

      .cls-3 {
        fill: url(#linear-gradient-33);
      }

      .cls-4 {
        fill: url(#linear-gradient-29);
      }

      .cls-5 {
        fill: url(#linear-gradient-32);
      }

      .cls-6 {
        fill: url(#linear-gradient-30);
      }

      .cls-7 {
        fill: url(#linear-gradient-31);
      }

      .cls-8 {
        fill: url(#linear-gradient-36);
      }

      .cls-9 {
        fill: url(#linear-gradient-39);
      }

      .cls-10 {
        fill: url(#linear-gradient-34);
      }

      .cls-11 {
        fill: url(#linear-gradient-37);
      }

      .cls-12 {
        fill: url(#linear-gradient-35);
      }

      .cls-13 {
        fill: url(#linear-gradient-28);
      }

      .cls-14 {
        fill: url(#linear-gradient-25);
      }

      .cls-15 {
        fill: url(#linear-gradient-11);
      }

      .cls-16 {
        fill: url(#linear-gradient-12);
      }

      .cls-17 {
        fill: url(#linear-gradient-13);
      }

      .cls-18 {
        fill: url(#linear-gradient-10);
      }

      .cls-19 {
        fill: url(#linear-gradient-17);
      }

      .cls-20 {
        fill: url(#linear-gradient-16);
      }

      .cls-21 {
        fill: url(#linear-gradient-19);
      }

      .cls-22 {
        fill: url(#linear-gradient-15);
      }

      .cls-23 {
        fill: url(#linear-gradient-23);
      }

      .cls-24 {
        fill: url(#linear-gradient-21);
      }

      .cls-25 {
        fill: url(#linear-gradient-18);
      }

      .cls-26 {
        fill: url(#linear-gradient-14);
      }

      .cls-27 {
        fill: url(#linear-gradient-22);
      }

      .cls-28 {
        fill: url(#linear-gradient-20);
      }

      .cls-29 {
        fill: url(#linear-gradient-27);
      }

      .cls-30 {
        fill: url(#linear-gradient-24);
      }

      .cls-31 {
        fill: url(#linear-gradient-26);
      }

      .cls-32 {
        fill: url(#linear-gradient-42);
      }

      .cls-33 {
        fill: url(#linear-gradient-43);
      }

      .cls-34 {
        fill: url(#linear-gradient-40);
      }

      .cls-35 {
        fill: url(#linear-gradient-41);
      }

      .cls-36 {
        opacity: .83;
      }

      .cls-36, .cls-37, .cls-46, .cls-59 {
        fill: #a63a00;
      }

      .cls-37 {
        opacity: .48;
      }

      .cls-38 {
        fill: url(#linear-gradient-4);
      }

      .cls-39 {
        fill: url(#linear-gradient-2);
      }

      .cls-40 {
        fill: url(#linear-gradient-3);
      }

      .cls-41 {
        fill: url(#linear-gradient-8);
      }

      .cls-42 {
        fill: url(#linear-gradient-9);
      }

      .cls-43 {
        fill: url(#linear-gradient-7);
      }

      .cls-44 {
        fill: url(#linear-gradient-5);
      }

      .cls-45 {
        fill: url(#linear-gradient-6);
      }

      .cls-46 {
        opacity: .53;
      }

      .cls-48 {
        fill: #789114;
      }

      .cls-49 {
        fill: #525154;
      }

      .cls-50 {
        fill: #49811e;
      }

      .cls-51 {
        fill: #972000;
      }

      .cls-52 {
        fill: #2f292b;
      }

      .cls-53 {
        fill: #356726;
      }

      .cls-54 {
        fill: #c77100;
      }

      .cls-55 {
        fill: #c53a00;
      }

      .cls-56 {
        fill: #deaf6e;
      }

      .cls-57 {
        fill: #e16300;
      }

      .cls-58 {
        fill: #d9c780;
      }

      .cls-60 {
        fill: #bc4e00;
      }

      .cls-61 {
        fill: #9dc870;
      }

      .cls-62 {
        fill: #953000;
      }

      .cls-63 {
        fill: #eb9e30;
      }

      .cls-64 {
        fill: #f5fdea;
      }

      .cls-65 {
        fill: #e97a32;
      }

      .cls-66 {
        fill: #681700;
      }
    </style>
    <linearGradient id="linear-gradient" x1="1730.2" y1="2945.27" x2="1827.83" y2="2916.43" gradientTransform="translate(2376.72 2638.22) rotate(-72.82) scale(1 -1)" gradientUnits="userSpaceOnUse">
      <stop offset="0" stop-color="#67a842"/>
      <stop offset="1" stop-color="#40732a"/>
    </linearGradient>
    <linearGradient id="linear-gradient-2" x1="1003.61" y1="3098.08" x2="1101.62" y2="3069.13" gradientTransform="translate(1420.43 3048.49) rotate(-42.72) scale(1 -1)" xlink:href="#linear-gradient"/>
    <linearGradient id="linear-gradient-3" x1="1342.86" y1="3088.64" x2="1440.72" y2="3059.73" gradientTransform="translate(1868.4 2931.56) rotate(-56.12) scale(1 -1)" xlink:href="#linear-gradient"/>
    <linearGradient id="linear-gradient-4" x1="1311.01" y1="3081.75" x2="1408.88" y2="3052.83" gradientTransform="translate(1830.26 2945.71) rotate(-54.96) scale(1 -1)" gradientUnits="userSpaceOnUse">
      <stop offset="0" stop-color="#ffe36f"/>
      <stop offset=".12" stop-color="#f0dd6a"/>
      <stop offset=".35" stop-color="#cbce5f"/>
      <stop offset=".66" stop-color="#8eb74d"/>
      <stop offset=".85" stop-color="#67a842"/>
      <stop offset="1" stop-color="#67a842"/>
    </linearGradient>
    <linearGradient id="linear-gradient-5" x1="994.41" y1="3097.85" x2="1092.42" y2="3068.9" gradientTransform="translate(1406.44 3053.31) rotate(-42.41) scale(1 -1)" xlink:href="#linear-gradient-4"/>
    <linearGradient id="linear-gradient-6" x1="1264.82" y1="3099.85" x2="1368.88" y2="3069.1" gradientTransform="translate(1774.17 2969.35) rotate(-53.11) scale(1 -1)" xlink:href="#linear-gradient-4"/>
    <linearGradient id="linear-gradient-7" x1="-417.99" y1="734.69" x2="-320.6" y2="705.91" gradientTransform="translate(-532.35 543.59) rotate(88.89) scale(1 -1)" xlink:href="#linear-gradient"/>
    <linearGradient id="linear-gradient-8" x1="254.1" y1="107.78" x2="351.9" y2="78.88" gradientTransform="translate(247.27 -146.27) rotate(118.99) scale(1 -1)" xlink:href="#linear-gradient"/>
    <linearGradient id="linear-gradient-9" x1="-79.87" y1="354.07" x2="17.73" y2="325.24" gradientTransform="translate(-142.08 105.91) rotate(105.59) scale(1 -1)" xlink:href="#linear-gradient"/>
    <linearGradient id="linear-gradient-10" x1="-55.7" y1="319.08" x2="41.91" y2="290.24" gradientTransform="translate(-110.19 80.14) rotate(106.75) scale(1 -1)" xlink:href="#linear-gradient-4"/>
    <linearGradient id="linear-gradient-11" x1="260.82" y1="103.3" x2="358.61" y2="74.4" gradientTransform="translate(259.07 -154.76) rotate(119.3) scale(1 -1)" xlink:href="#linear-gradient-4"/>
    <linearGradient id="linear-gradient-12" x1="-11.87" y1="293.74" x2="91.92" y2="263.07" gradientTransform="translate(-63.7 40.12) rotate(108.6) scale(1 -1)" xlink:href="#linear-gradient-4"/>
    <linearGradient id="linear-gradient-13" x1="3364.69" y1="1894.64" x2="3357.69" y2="1895" gradientTransform="translate(1738.73 3620.29) rotate(-144.09)" gradientUnits="userSpaceOnUse">
      <stop offset="0" stop-color="#49811e"/>
      <stop offset=".52" stop-color="#71ab43"/>
      <stop offset="1" stop-color="#49811e"/>
    </linearGradient>
    <linearGradient id="linear-gradient-14" x1="-1488.57" y1="2693.15" x2="-1494.04" y2="2693.43" gradientTransform="translate(3123.39 879.5) rotate(75.55)" gradientUnits="userSpaceOnUse">
      <stop offset="0" stop-color="#fff"/>
      <stop offset=".8" stop-color="#e6eb9d"/>
    </linearGradient>
    <linearGradient id="linear-gradient-15" x1="2328.29" y1="-551.45" x2="2320.64" y2="-551.05" gradientTransform="translate(358.92 2488.89) rotate(-81.49)" xlink:href="#linear-gradient-13"/>
    <linearGradient id="linear-gradient-16" x1="-1779.11" y1="1071.59" x2="-1785.22" y2="1071.9" gradientTransform="translate(2205.78 438.27) rotate(39.55)" xlink:href="#linear-gradient-13"/>
    <linearGradient id="linear-gradient-17" x1="-49.98" y1="3842" x2="-56.07" y2="3842.32" gradientTransform="translate(3529.49 1945.5) rotate(117.61)" xlink:href="#linear-gradient-14"/>
    <linearGradient id="linear-gradient-18" x1="-605.67" y1="-394.42" x2="-612.67" y2="-394.06" gradientTransform="translate(670.29 613.03) rotate(11.94)" xlink:href="#linear-gradient-13"/>
    <linearGradient id="linear-gradient-19" x1="3029.24" y1="1924.74" x2="3023.74" y2="1925.03" gradientTransform="translate(516.78 3680.58) rotate(-128.42)" xlink:href="#linear-gradient-14"/>
    <linearGradient id="linear-gradient-20" x1="-1531.37" y1="1919.57" x2="-1539.05" y2="1919.97" gradientTransform="translate(2390.11 1086.6) rotate(74.54)" xlink:href="#linear-gradient-13"/>
    <linearGradient id="linear-gradient-21" x1="2328.94" y1="3102.79" x2="2322.83" y2="3103.11" gradientTransform="translate(1535.63 3709.67) rotate(-164.41)" xlink:href="#linear-gradient-13"/>
    <linearGradient id="linear-gradient-22" x1="2317.17" y1="3093.16" x2="2311.06" y2="3093.48" gradientTransform="translate(1535.63 3709.67) rotate(-164.41)" xlink:href="#linear-gradient-13"/>
    <linearGradient id="linear-gradient-23" x1="2655.44" y1="1442.94" x2="2649.34" y2="1443.26" gradientTransform="translate(252.35 3130.58) rotate(-120.55)" xlink:href="#linear-gradient-13"/>
    <linearGradient id="linear-gradient-24" x1="2790.11" y1="242.75" x2="2784.01" y2="243.07" gradientTransform="translate(-285.83 2872.32) rotate(-86.35)" xlink:href="#linear-gradient-14"/>
    <linearGradient id="linear-gradient-25" x1="-113.59" y1="156.44" x2="-120.35" y2="156.79" gradientTransform="translate(285.46 15.02) rotate(12.44)" xlink:href="#linear-gradient-13"/>
    <linearGradient id="linear-gradient-26" x1="2299.18" y1="1813.46" x2="2293.88" y2="1813.73" gradientTransform="translate(106.49 3080.64) rotate(-127.92)" xlink:href="#linear-gradient-14"/>
    <linearGradient id="linear-gradient-27" x1="-816.97" y1="1735.8" x2="-824.39" y2="1736.19" gradientTransform="translate(2002.04 504.04) rotate(75.04)" xlink:href="#linear-gradient-13"/>
    <linearGradient id="linear-gradient-28" x1="1801.53" y1="2585.78" x2="1795.63" y2="2586.08" gradientTransform="translate(1123.54 3120.11) rotate(-163.91)" xlink:href="#linear-gradient-13"/>
    <linearGradient id="linear-gradient-29" x1="2173.26" y1="651.89" x2="2167.38" y2="652.2" gradientTransform="translate(-690.74 2265.01) rotate(-85.85)" xlink:href="#linear-gradient-14"/>
    <linearGradient id="linear-gradient-30" x1="1865.71" y1="2607.64" x2="1858.97" y2="2607.99" gradientTransform="translate(2463.06 2348.46) rotate(168.48)" xlink:href="#linear-gradient-13"/>
    <linearGradient id="linear-gradient-31" x1="-789.18" y1="1189.17" x2="-794.49" y2="1189.45" gradientTransform="translate(1381.89 -526.01) rotate(28.12)" xlink:href="#linear-gradient-14"/>
    <linearGradient id="linear-gradient-32" x1="2271.08" y1="1106.23" x2="2263.64" y2="1106.61" gradientTransform="translate(696.48 2599.11) rotate(-128.92)" xlink:href="#linear-gradient-13"/>
    <linearGradient id="linear-gradient-33" x1="-329.76" y1="263.86" x2="-335.65" y2="264.17" gradientTransform="translate(436.34 -147.28) rotate(-7.87)" xlink:href="#linear-gradient-13"/>
    <linearGradient id="linear-gradient-34" x1="-341.15" y1="254.54" x2="-347.04" y2="254.84" gradientTransform="translate(436.34 -147.28) rotate(-7.87)" xlink:href="#linear-gradient-13"/>
    <linearGradient id="linear-gradient-35" x1="-1227.84" y1="1236.98" x2="-1233.74" y2="1237.28" gradientTransform="translate(1843.57 -126.69) rotate(35.99)" xlink:href="#linear-gradient-13"/>
    <linearGradient id="linear-gradient-36" x1="-537.9" y1="2256.15" x2="-543.79" y2="2256.45" gradientTransform="translate(2440.57 -103.85) rotate(70.19)" xlink:href="#linear-gradient-14"/>
    <linearGradient id="linear-gradient-37" x1="1883.79" y1="2624.39" x2="1877.05" y2="2624.74" gradientTransform="translate(2463.06 2348.46) rotate(168.48)" xlink:href="#linear-gradient-13"/>
    <linearGradient id="linear-gradient-38" x1="-813.79" y1="1187.8" x2="-819.1" y2="1188.08" gradientTransform="translate(1381.89 -526.01) rotate(28.12)" xlink:href="#linear-gradient-14"/>
    <linearGradient id="linear-gradient-39" x1="2294.28" y1="1097.89" x2="2286.83" y2="1098.27" gradientTransform="translate(696.48 2599.11) rotate(-128.92)" xlink:href="#linear-gradient-13"/>
    <linearGradient id="linear-gradient-40" x1="-348.86" y1="248.3" x2="-354.75" y2="248.6" gradientTransform="translate(436.34 -147.28) rotate(-7.87)" xlink:href="#linear-gradient-13"/>
    <linearGradient id="linear-gradient-41" x1="-360.26" y1="238.97" x2="-366.15" y2="239.27" gradientTransform="translate(436.34 -147.28) rotate(-7.87)" xlink:href="#linear-gradient-13"/>
    <linearGradient id="linear-gradient-42" x1="-1252.4" y1="1238.99" x2="-1258.3" y2="1239.29" gradientTransform="translate(1843.57 -126.69) rotate(35.99)" xlink:href="#linear-gradient-13"/>
    <linearGradient id="linear-gradient-43" x1="-557.08" y1="2271.62" x2="-562.98" y2="2271.92" gradientTransform="translate(2440.57 -103.85) rotate(70.19)" xlink:href="#linear-gradient-14"/>
  </defs>
  <g>
    <path class="cls-52" d="m20.35,127.6c0-59.97,49.01-108.58,109.47-108.58s109.47,48.61,109.47,108.58-49.01,108.58-109.47,108.58S20.35,187.57,20.35,127.6Z"/>
    <path class="cls-49" d="m129.41,4.48C60.43,4.48,4.52,59.94,4.52,128.36s55.92,123.88,124.89,123.88,124.89-55.46,124.89-123.88S198.39,4.48,129.41,4.48Zm0,221.69c-54.46,0-98.62-43.79-98.62-97.81S74.95,30.55,129.41,30.55s98.61,43.79,98.61,97.81-44.15,97.81-98.61,97.81Z"/>
    <path class="cls-52" d="m133.93,4.48C64.95,4.48,9.03,59.94,9.03,128.36s55.92,123.88,124.89,123.88,124.89-55.46,124.89-123.88S202.91,4.48,133.93,4.48Zm-9.04,239.02c-60.45,0-109.46-48.61-109.46-108.57S64.44,26.36,124.89,26.36c26.66,0,51.1,9.46,70.08,25.18,13.85,10.84,24.69,25.29,31.1,41.92,5.33,12.78,8.28,26.78,8.28,41.47,0,59.96-49.01,108.57-109.46,108.57Z"/>
    <path class="cls-47" d="m129.41,256.72C58.05,256.72,0,199.14,0,128.36S58.05,0,129.41,0s129.41,57.58,129.41,128.36-58.05,128.36-129.41,128.36Zm0-247.76C63.04,8.96,9.03,62.52,9.03,128.36s54,119.4,120.38,119.4,120.38-53.56,120.38-119.4S195.79,8.96,129.41,8.96Z"/>
  </g>
  <path class="cls-59" d="m20.8,126.72c0-60.65,49.57-109.81,110.71-109.81s110.71,49.16,110.71,109.81-49.57,109.81-110.71,109.81S20.8,187.36,20.8,126.72Z"/>
  <path class="cls-62" d="m148.37,226.04c-61.15,0-110.71-49.16-110.71-109.81,0-34.88,16.4-65.95,41.95-86.06-34.62,18.56-58.14,54.89-58.14,96.66,0,60.65,49.57,109.81,110.71,109.81,25.98,0,49.87-8.88,68.76-23.74-15.64,8.38-33.54,13.15-52.57,13.15Z"/>
  <g>
    <path class="cls-63" d="m133.4,77.1c0,2.79-2.3,5.08-5.12,5.08h-52.35c-2.82,0-5.12-2.28-5.12-5.08v-10.25c0-2.79,2.3-5.08,5.12-5.08h52.35c2.82,0,5.12,2.28,5.12,5.08v10.25Z"/>
    <path class="cls-54" d="m81.83,78.78c-2.81,0-5.12-2.28-5.12-5.08v-10.25c0-.59.11-1.15.3-1.68h-.93c-2.82,0-5.12,2.28-5.12,5.08v10.25c0,2.79,2.3,5.08,5.12,5.08h52.35c2.22,0,4.12-1.43,4.82-3.4h-51.42Z"/>
  </g>
  <g>
    <path class="cls-63" d="m214.86,71.31c0,2.79-2.3,5.08-5.12,5.08h-52.35c-2.82,0-5.12-2.28-5.12-5.08v-10.25c0-2.79,2.3-5.08,5.12-5.08h52.35c2.82,0,5.12,2.28,5.12,5.08v10.25Z"/>
    <path class="cls-54" d="m163.3,72.99c-2.82,0-5.12-2.28-5.12-5.08v-10.25c0-.59.11-1.15.3-1.68h-.94c-2.81,0-5.12,2.28-5.12,5.08v10.25c0,2.79,2.3,5.08,5.12,5.08h52.35c2.22,0,4.12-1.42,4.82-3.4h-51.42Z"/>
  </g>
  <g>
    <path class="cls-63" d="m191.8,75.91c2.43,1.41,3.25,4.54,1.83,6.95l-26.44,44.81c-1.42,2.41-4.57,3.23-7,1.82l-8.92-5.18c-2.43-1.41-3.25-4.54-1.83-6.95l26.44-44.81c1.42-2.41,4.57-3.23,7-1.82l8.92,5.18Z"/>
    <path class="cls-54" d="m167.22,120.9c-1.42,2.41-4.57,3.23-7,1.82l-8.92-5.18c-.51-.3-.95-.67-1.31-1.1l-.47.8c-1.42,2.41-.6,5.53,1.83,6.95l8.92,5.17c2.43,1.41,5.58.59,7-1.82l26.44-44.81c1.12-1.9.84-4.25-.52-5.85l-25.97,44.02Z"/>
  </g>
  <g>
    <path class="cls-65" d="m162.45,43.05c2.43,1.41,3.25,4.54,1.83,6.95l-26.44,44.81c-1.42,2.41-4.57,3.23-7,1.82l-8.92-5.18c-2.43-1.41-3.25-4.54-1.83-6.95l26.44-44.81c1.42-2.41,4.57-3.23,7-1.82l8.92,5.18Z"/>
    <path class="cls-55" d="m137.86,88.04c-1.42,2.41-4.57,3.23-7,1.82l-8.92-5.18c-.51-.3-.95-.67-1.31-1.1l-.47.8c-1.42,2.41-.6,5.53,1.83,6.95l8.92,5.17c2.43,1.41,5.58.59,7-1.82l26.44-44.81c1.12-1.9.84-4.25-.52-5.85l-25.97,44.01Z"/>
  </g>
  <g>
    <path class="cls-63" d="m169.05,166.12c2.43,1.41,3.25,4.54,1.83,6.95l-26.44,44.81c-1.42,2.41-4.57,3.23-7,1.82l-8.92-5.18c-2.43-1.41-3.25-4.54-1.83-6.95l26.44-44.81c1.42-2.41,4.57-3.23,7-1.82l8.92,5.18Z"/>
    <path class="cls-54" d="m144.46,211.11c-1.42,2.41-4.57,3.23-7,1.82l-8.92-5.18c-.51-.3-.95-.67-1.31-1.1l-.47.8c-1.42,2.41-.6,5.54,1.83,6.95l8.92,5.18c2.43,1.41,5.58.59,7-1.82l26.44-44.81c1.12-1.9.84-4.25-.52-5.84l-25.97,44.01Z"/>
  </g>
  <g>
    <path class="cls-63" d="m191.88,36.28c2.43,1.41,3.25,4.54,1.83,6.95l-26.44,44.81c-1.42,2.41-4.57,3.23-7,1.82l-8.92-5.18c-2.43-1.41-3.25-4.54-1.83-6.95l26.44-44.81c1.42-2.41,4.57-3.23,7-1.82l8.92,5.18Z"/>
    <path class="cls-54" d="m167.29,81.27c-1.42,2.41-4.57,3.23-7,1.82l-8.92-5.18c-.51-.3-.95-.67-1.31-1.1l-.47.8c-1.42,2.41-.6,5.54,1.83,6.95l8.92,5.18c2.43,1.41,5.58.59,7-1.82l26.44-44.81c1.12-1.9.84-4.25-.52-5.85l-25.97,44.02Z"/>
  </g>
  <g>
    <path class="cls-63" d="m102.64,91.34c.46,2.75-1.43,5.38-4.21,5.84l-51.64,8.52c-2.78.46-5.43-1.42-5.89-4.17l-1.7-10.11c-.46-2.75,1.43-5.38,4.21-5.84l51.64-8.52c2.78-.46,5.43,1.42,5.89,4.18l1.7,10.11Z"/>
    <path class="cls-54" d="m52.05,101.39c-2.78.46-5.43-1.42-5.89-4.18l-1.7-10.11c-.1-.58-.08-1.15.01-1.71l-.92.15c-2.78.46-4.67,3.09-4.21,5.84l1.7,10.11c.46,2.76,3.11,4.63,5.89,4.18l51.64-8.52c2.19-.36,3.83-2.08,4.2-4.14l-50.72,8.37Z"/>
  </g>
  <g>
    <path class="cls-65" d="m136.7,123.9c-1.34,2.46-4.46,3.38-6.94,2.06l-46.07-24.66c-2.48-1.33-3.41-4.42-2.08-6.88l4.91-9.02c1.34-2.46,4.46-3.38,6.94-2.06l46.07,24.66c2.48,1.33,3.41,4.42,2.08,6.88l-4.91,9.02Z"/>
    <path class="cls-55" d="m90.52,101.09c-2.48-1.33-3.41-4.42-2.07-6.88l4.91-9.02c.28-.52.65-.96,1.07-1.34l-.82-.44c-2.48-1.33-5.6-.4-6.93,2.06l-4.91,9.02c-1.34,2.46-.4,5.55,2.07,6.88l46.07,24.66c1.96,1.05,4.31.69,5.87-.72l-45.25-24.22Z"/>
  </g>
  <g>
    <path class="cls-63" d="m128.41,187.28c-1.47,2.38-4.63,3.14-7.04,1.69l-44.69-27.05c-2.4-1.45-3.17-4.6-1.7-6.98l5.38-8.75c1.47-2.38,4.63-3.14,7.04-1.69l44.68,27.05c2.4,1.46,3.17,4.6,1.7,6.98l-5.38,8.75Z"/>
    <path class="cls-54" d="m83.52,162.07c-2.4-1.45-3.17-4.59-1.7-6.98l5.38-8.75c.31-.5.7-.93,1.13-1.28l-.8-.48c-2.4-1.45-5.57-.69-7.03,1.69l-5.38,8.75c-1.47,2.38-.7,5.52,1.7,6.98l44.69,27.05c1.9,1.15,4.26.91,5.9-.41l-43.89-26.57Z"/>
  </g>
  <g>
    <path class="cls-63" d="m111.81,139.14c-1.46,2.38-4.63,3.14-7.04,1.69l-44.68-27.05c-2.4-1.46-3.17-4.6-1.7-6.98l5.38-8.75c1.47-2.38,4.63-3.14,7.04-1.69l44.68,27.05c2.4,1.46,3.17,4.6,1.7,6.98l-5.38,8.75Z"/>
    <path class="cls-54" d="m66.92,113.92c-2.4-1.45-3.17-4.59-1.7-6.98l5.38-8.75c.31-.5.7-.93,1.14-1.28l-.8-.48c-2.4-1.46-5.57-.7-7.04,1.69l-5.38,8.75c-1.47,2.38-.7,5.52,1.7,6.98l44.68,27.05c1.9,1.15,4.27.91,5.9-.41l-43.89-26.57Z"/>
  </g>
  <g>
    <path class="cls-65" d="m131.54,123.75c2.07-1.89,5.33-1.76,7.24.29l35.48,38.18c1.91,2.05,1.78,5.28-.29,7.17l-7.6,6.95c-2.07,1.89-5.33,1.76-7.23-.29l-35.48-38.18c-1.91-2.05-1.77-5.28.29-7.17l7.6-6.95Z"/>
    <path class="cls-55" d="m167.74,160.22c1.91,2.05,1.78,5.28-.29,7.18l-7.6,6.94c-.43.4-.93.7-1.44.92l.63.68c1.91,2.05,5.16,2.18,7.23.29l7.59-6.95c2.07-1.89,2.2-5.12.29-7.17l-35.48-38.18c-1.51-1.62-3.85-2.04-5.79-1.21l34.85,37.5Z"/>
  </g>
  <g>
    <path class="cls-66" d="m169.06,59.05c3.17,11.66,19.79,39.41,32.09,42.94,14.79,4.24-4.22-23.83-8.76-28.53-4.77-4.93-16.35-16.37-23.33-14.41Z"/>
    <path class="cls-51" d="m180.9,66.45c-4.1,5.45,9.61,25.32,14.16,27.74,9.47,5.03,2.68-9.64-.22-13.63-3.78-5.19-8.67-10.36-13.94-14.12Z"/>
  </g>
  <g>
    <path class="cls-66" d="m21.31,119.44c3.17,11.66,19.79,39.41,32.09,42.93,14.79,4.24-4.22-23.83-8.76-28.53-4.77-4.93-16.35-16.37-23.33-14.4Z"/>
    <path class="cls-51" d="m33.15,126.84c-4.1,5.45,9.61,25.32,14.16,27.74,9.47,5.03,2.69-9.64-.22-13.63-3.78-5.19-8.67-10.36-13.94-14.12Z"/>
  </g>
  <g>
    <path class="cls-63" d="m110.52,131.89c1.47,2.38.71,5.52-1.69,6.98l-44.62,27.15c-2.4,1.46-5.57.71-7.04-1.67l-5.4-8.74c-1.47-2.38-.71-5.52,1.69-6.98l44.62-27.15c2.4-1.46,5.57-.71,7.04,1.67l5.4,8.73Z"/>
    <path class="cls-54" d="m67.45,160.07c-2.4,1.46-5.57.71-7.04-1.67l-5.4-8.73c-.31-.5-.52-1.04-.63-1.59l-.79.48c-2.4,1.46-3.16,4.6-1.69,6.98l5.4,8.73c1.47,2.38,4.64,3.13,7.04,1.67l44.63-27.15c1.89-1.15,2.76-3.35,2.32-5.4l-43.83,26.67Z"/>
  </g>
  <g>
    <path class="cls-63" d="m229.58,97.18c1.47,2.38.71,5.52-1.69,6.98l-44.62,27.15c-2.4,1.46-5.57.71-7.04-1.67l-5.4-8.74c-1.47-2.38-.71-5.52,1.69-6.98l44.62-27.15c2.4-1.46,5.57-.71,7.04,1.67l5.4,8.73Z"/>
    <path class="cls-54" d="m186.51,125.35c-2.4,1.46-5.57.71-7.04-1.67l-5.4-8.73c-.31-.5-.51-1.04-.63-1.59l-.8.48c-2.4,1.46-3.16,4.6-1.68,6.98l5.4,8.73c1.47,2.38,4.64,3.13,7.04,1.67l44.63-27.15c1.89-1.15,2.76-3.35,2.32-5.4l-43.83,26.67Z"/>
  </g>
  <g>
    <path class="cls-63" d="m189.63,172.91c-1.47,2.38-4.63,3.14-7.04,1.69l-44.68-27.05c-2.4-1.46-3.17-4.6-1.7-6.98l5.38-8.75c1.47-2.38,4.63-3.14,7.04-1.69l44.68,27.05c2.4,1.45,3.17,4.6,1.7,6.98l-5.38,8.75Z"/>
    <path class="cls-54" d="m144.74,147.7c-2.4-1.45-3.17-4.59-1.7-6.98l5.38-8.75c.31-.5.7-.93,1.13-1.28l-.8-.48c-2.4-1.46-5.57-.7-7.04,1.69l-5.38,8.75c-1.47,2.38-.7,5.52,1.7,6.98l44.69,27.05c1.89,1.15,4.26.91,5.9-.41l-43.89-26.57Z"/>
  </g>
  <g>
    <path class="cls-63" d="m81.86,192.07c-1.47,2.38-4.63,3.14-7.04,1.69l-44.68-27.05c-2.4-1.45-3.17-4.6-1.7-6.98l5.38-8.75c1.47-2.38,4.63-3.14,7.04-1.69l44.68,27.05c2.4,1.45,3.17,4.59,1.7,6.98l-5.38,8.75Z"/>
    <path class="cls-54" d="m36.96,166.85c-2.4-1.45-3.17-4.59-1.7-6.98l5.38-8.75c.31-.5.7-.93,1.13-1.28l-.8-.48c-2.4-1.45-5.57-.69-7.04,1.69l-5.38,8.75c-1.47,2.38-.7,5.52,1.7,6.98l44.69,27.05c1.9,1.15,4.26.91,5.9-.41l-43.89-26.57Z"/>
  </g>
  <g>
    <path class="cls-65" d="m166.05,130.4c-.77-2.69.83-5.51,3.54-6.27l50.38-14.1c2.71-.76,5.55.82,6.32,3.51l2.81,9.86c.77,2.69-.83,5.51-3.53,6.26l-50.38,14.1c-2.71.76-5.55-.82-6.32-3.51l-2.81-9.86Z"/>
    <path class="cls-55" d="m215.21,114.89c2.71-.76,5.55.82,6.32,3.51l2.81,9.86c.16.57.21,1.14.17,1.7l.9-.25c2.71-.76,4.3-3.58,3.53-6.27l-2.8-9.86c-.77-2.69-3.61-4.27-6.32-3.51l-50.38,14.1c-2.14.6-3.57,2.48-3.71,4.57l49.49-13.85Z"/>
  </g>
  <g>
    <path class="cls-65" d="m26.32,129.29c-.76-2.69.83-5.51,3.54-6.27l50.38-14.1c2.71-.76,5.55.82,6.32,3.51l2.81,9.86c.76,2.69-.83,5.51-3.53,6.27l-50.38,14.1c-2.71.76-5.55-.82-6.32-3.51l-2.81-9.86Z"/>
    <path class="cls-55" d="m75.48,113.78c2.71-.76,5.55.82,6.32,3.51l2.81,9.86c.16.57.21,1.14.17,1.7l.9-.25c2.71-.76,4.3-3.58,3.54-6.27l-2.81-9.86c-.76-2.69-3.61-4.27-6.31-3.51l-50.38,14.1c-2.14.6-3.57,2.48-3.71,4.57l49.48-13.85Z"/>
  </g>
  <g>
    <path class="cls-65" d="m79.93,201.12c-.77-2.69.83-5.51,3.54-6.27l50.38-14.1c2.71-.76,5.55.82,6.32,3.51l2.81,9.86c.76,2.69-.83,5.51-3.54,6.27l-50.38,14.1c-2.71.76-5.55-.82-6.32-3.51l-2.81-9.86Z"/>
    <path class="cls-55" d="m129.1,185.61c2.71-.76,5.55.82,6.32,3.51l2.8,9.86c.16.57.21,1.14.17,1.7l.9-.25c2.71-.76,4.3-3.58,3.54-6.26l-2.81-9.86c-.76-2.69-3.61-4.27-6.32-3.51l-50.38,14.1c-2.14.6-3.58,2.48-3.71,4.57l49.48-13.85Z"/>
  </g>
  <path class="cls-57" d="m114.52,43.31c11.39-3.4,20.69-6.31,32.37-5.59-10.36-15.44-34.75-4.29-47.02.82-15.29,6.37-30.52,12.79-21.81,31.89,10.01,2.71,10.33-8.75,14.29-14.41,5.3-7.57,13.37-10.09,22.17-12.72Z"/>
  <g>
    <path class="cls-66" d="m46.57,83.37c10.78.91,39.18-4.42,45.89-13.54,8.06-10.96-21.34-3.74-26.68-1.4-5.6,2.46-18.75,8.57-19.21,14.95Z"/>
    <path class="cls-51" d="m56.39,75.82c3.34,5.05,24.23-.27,27.66-3.31,7.11-6.31-7.3-5.15-11.54-3.95-5.52,1.56-11.36,4.03-16.11,7.26Z"/>
  </g>
  <g>
    <path class="cls-66" d="m174.79,181.11c10.78.91,39.18-4.42,45.89-13.54,8.06-10.96-21.34-3.74-26.68-1.4-5.6,2.45-18.75,8.57-19.21,14.94Z"/>
    <path class="cls-51" d="m184.61,173.55c3.34,5.05,24.24-.27,27.66-3.3,7.11-6.31-7.3-5.15-11.54-3.95-5.52,1.56-11.36,4.04-16.12,7.26Z"/>
  </g>
  <g>
    <path class="cls-1" d="m85.33,79.3s22.96-38.04,62.32-42.23c0,0,.35-3.71-1.99-7.09,0,0-31.17,3.8-69.69,49.34,0,0,2.97,8.77,9.36-.01Z"/>
    <path class="cls-39" d="m84.05,66.18s39.1-21.49,75.27-5.54c0,0,2.18-3.03,1.87-7.12,0,0-28.89-12.21-85.24,8.02,0,0-1.86,9.06,8.1,4.64Z"/>
    <path class="cls-40" d="m74.17,63.7s33.02-29.89,71.93-22.69c0,0,1.41-3.45.15-7.36,0,0-30.96-5.24-81.04,27.39,0,0,.3,9.24,8.96,2.65Z"/>
    <path class="cls-38" d="m81.65,72.05s33.62-29.22,72.38-21.24c0,0,1.48-3.42.3-7.35,0,0-30.84-5.86-81.58,25.76,0,0,.11,9.24,8.91,2.83Z"/>
    <path class="cls-44" d="m79.67,70.08s39.22-21.28,75.3-5.13c0,0,2.2-3.02,1.91-7.12,0,0-28.82-12.37-85.28,7.56,0,0-1.92,9.05,8.07,4.68Z"/>
    <path class="cls-45" d="m78.56,65.09s36.73-29.91,77.62-20.1c0,0,1.7-3.58.57-7.8,0,0-32.57-7.28-87.56,24.59,0,0-.2,9.83,9.37,3.31Z"/>
  </g>
  <g>
    <path class="cls-66" d="m87.17,176.89c3.17,11.66,19.79,39.41,32.09,42.93,14.79,4.24-4.22-23.83-8.76-28.53-4.77-4.93-16.35-16.37-23.33-14.4Z"/>
    <path class="cls-51" d="m99.01,184.29c-4.1,5.45,9.61,25.32,14.16,27.74,9.47,5.03,2.69-9.64-.22-13.63-3.78-5.19-8.67-10.36-13.94-14.12Z"/>
  </g>
  <path class="cls-37" d="m131.77,59.99c-6.82,5.23-14.19,9.11-18.8,9.64-7.01.81-14.14-.86-21.09,1.07-2.77.77-6.79,4.5-9.59,4.21-18.24-1.9,9.18-27.36,14.84-31.35,9.87-6.96,24.7-14.48,37.11-15.06,5.7-.27,12.95.45,14.08,7.41,1.16,7.17-7.18,16.89-16.54,24.07Z"/>
  <path class="cls-36" d="m174.62,162.16c2.68-8.13,6.58-15.44,10.09-18.45,5.34-4.58,12.18-7.17,16.85-12.64,1.85-2.18,3.06-7.51,5.54-8.83,16.17-8.59,7.9,27.75,5.48,34.2-4.22,11.26-12.23,25.74-22.17,33.13-4.57,3.39-10.97,6.84-15.85,1.71-5.02-5.28-3.62-17.98.06-29.13Z"/>
  <path class="cls-46" d="m45.56,115.82c2.68-8.13,6.58-15.44,10.09-18.45,5.34-4.58,12.18-7.17,16.85-12.64,1.86-2.18,3.06-7.51,5.55-8.83,16.17-8.59,7.9,27.75,5.48,34.2-4.22,11.26-12.24,25.74-22.17,33.13-4.56,3.4-10.97,6.84-15.85,1.71-5.02-5.28-3.62-17.98.06-29.13Z"/>
  <g>
    <path class="cls-66" d="m175.61,154.06c10.78.91,39.18-4.42,45.89-13.54,8.06-10.96-21.34-3.74-26.68-1.4-5.6,2.46-18.75,8.57-19.21,14.94Z"/>
    <path class="cls-51" d="m185.44,146.51c3.34,5.05,24.24-.27,27.66-3.3,7.11-6.31-7.3-5.15-11.54-3.95-5.52,1.56-11.36,4.04-16.12,7.26Z"/>
  </g>
  <path class="cls-62" d="m198.33,166.34c-7.5,9.16-13.54,16.74-23.62,22.65,17.32,7,31.18-15.81,38.43-26.88,9.04-13.79,18.01-27.59-.02-38.54-9.82,3.34-3.59,13-3.66,19.88-.09,9.22-5.34,15.8-11.14,22.88Z"/>
  <g>
    <path class="cls-43" d="m194.48,148.95s-9.77,43.27-45.81,59.5c0,0,.84,3.63,4.13,6.12,0,0,28.39-13.32,50.55-68.54,0,0-5.59-7.4-8.88,2.93Z"/>
    <path class="cls-41" d="m199.85,161.01s-30.33,32.58-69.71,28.69c0,0-1.11,3.56.48,7.35,0,0,31.29,2.6,78.39-34.15,0,0-1.1-9.18-9.16-1.89Z"/>
    <path class="cls-42" d="m210.01,160.3s-21.89,38.66-61.12,43.93c0,0-.25,3.72,2.19,7.04,0,0,31.05-4.66,68.28-51.24,0,0-3.21-8.68-9.35.27Z"/>
    <path class="cls-18" d="m200.27,154.69s-22.68,38.21-62,42.69c0,0-.33,3.71,2.04,7.08,0,0,31.14-4.04,69.31-49.86,0,0-3.03-8.74-9.35.08Z"/>
    <path class="cls-15" d="m202.77,155.94s-30.51,32.41-69.87,28.31c0,0-1.13,3.55.44,7.35,0,0,31.28,2.78,78.58-33.72,0,0-1.04-9.19-9.15-1.93Z"/>
    <path class="cls-16" d="m205.41,160.34s-25.41,39.83-67.34,43.25c0,0-.48,3.93,1.92,7.59,0,0,33.23-3.23,75.36-50.61,0,0-2.92-9.39-9.94-.23Z"/>
  </g>
  <path class="cls-46" d="m218.6,72.08c-1.15-17.66-54.11-43.58-54.41-25.16-.16,9.55,6.27,15.5-.74,25.34-6.61,9.27-21.19,10.68-27.12,19.97-4.49,7.04-.99,14.67.04,21.54,1.25,8.37-.62,17.29.69,25.67,2.35,15.05,9.76,6.05,12.59-3.83,2.68-9.36,4.37-18.98,7.3-28.37,4.2-13.48,22.58-48.79,42.16-36.8,4.18,2.56,3.36,9.46,6.84,12.3,7.22,5.89,13.21-2.01,12.65-10.67Z"/>
  <path class="cls-46" d="m189.8,181.74c17.76,1.7,52.03-46,33.75-49.24-9.48-1.68-16.43,3.66-25.1-4.78-8.17-7.96-7.24-22.45-15.54-29.75-6.29-5.53-14.44-3.32-21.45-3.41-8.53-.11-17.11-3.37-25.66-3.43-15.35-.11-7.59,8.59,1.8,12.94,8.89,4.12,18.19,7.32,27.07,11.69,12.74,6.27,44.95,29.92,29.88,47.17-3.22,3.68-9.95,1.77-13.34,4.73-7.02,6.12-.12,13.26,8.59,14.09Z"/>
  <path class="cls-60" d="m127.24,148.37c2.7-4.13,3.54-16.04-3.15-16.68-3.74-.36-8.3,7.17-10.45,9.5-7.47,8.1-18.42,10.25-28.47,13.89-17.76,6.42-24.25,30.34-7.41,42.33,10.48,7.47,25.25,3.94,37.1,3.79,11.89-.15,17.37,5.99,27.92,10.01,15.31,5.83,34.1,3.62,46.32-7.51,3.58-3.26,15.81-14.63,15.95-19.71.39-14.29-15.32,3.64-18.51,6.13-9.91,7.71-26.33,9.44-38.55,7.06-15.34-2.99-33.54-13.36-46.87-20.9-11.56-6.54-16.85-15.15.45-19.59,8.31-2.14,19.97.41,25.66-8.31Z"/>
  <g>
    <path class="cls-62" d="m190.21,185.56c.88-.55,1.73-1.13,2.54-1.76.68-.53,1.93-1.77,3.48-3.24-2.01,1.38-4.14,3.25-6.01,5Z"/>
    <path class="cls-62" d="m96.72,157.8c1.09-.4,2.29-.78,3.66-1.12,8.31-2.14,19.97.41,25.66-8.31.18-.27.35-.58.51-.92-5.84,2.18-13.08,1.46-18.76,2.92-7.35,1.89-10.61,4.53-11.06,7.44Z"/>
    <path class="cls-62" d="m119.85,134.87c.65-.7,1.52-1.89,2.52-3.18-3.19.28-6.85,5.67-9.08,8.48,2.37-1.45,4.59-3.17,6.56-5.3Z"/>
    <path class="cls-62" d="m148.99,204.89c-10.55-4.02-16.04-10.16-27.92-10.01-11.85.15-26.62,3.68-37.1-3.79-12.39-8.83-12.14-24.11-4.06-34.13-14.58,8.33-18.83,29.41-3.35,40.44,10.48,7.47,25.25,3.94,37.1,3.79,11.89-.15,17.37,5.99,27.92,10.01,15.31,5.83,34.1,3.62,46.32-7.51.76-.69,1.92-1.76,3.26-3.04-12.07,8.24-28.51,9.45-42.18,4.24Z"/>
  </g>
  <g>
    <g>
      <path class="cls-58" d="m105.07,110.95c-.36.76-1.69.89-2.97.29-1.28-.6-2.02-1.7-1.66-2.47.36-.76,1.69-.89,2.97-.29,1.28.6,2.02,1.7,1.66,2.46Z"/>
      <path class="cls-58" d="m109.36,101.95c.6.59.29,1.88-.7,2.88-.99,1-2.29,1.33-2.89.75-.61-.59-.29-1.88.7-2.88.99-1,2.29-1.33,2.89-.74Z"/>
      <path class="cls-58" d="m101.4,125.58c.6.59.29,1.88-.7,2.88-.99,1-2.29,1.33-2.89.74-.6-.59-.29-1.88.7-2.88.99-1,2.29-1.33,2.89-.74Z"/>
      <path class="cls-58" d="m111.29,113.4c.6.59.29,1.88-.7,2.88-.99,1-2.29,1.33-2.89.74-.61-.59-.29-1.88.7-2.88.99-1,2.29-1.33,2.89-.74Z"/>
      <path class="cls-58" d="m117.03,106.29c.61.59.29,1.88-.7,2.88-.99,1-2.29,1.33-2.89.75-.61-.59-.29-1.88.7-2.88.99-1,2.29-1.33,2.89-.74Z"/>
      <path class="cls-58" d="m118.66,122.27c-.73.44-1.91-.19-2.63-1.39-.73-1.2-.73-2.53,0-2.96.73-.43,1.91.19,2.64,1.39.73,1.2.73,2.53,0,2.96Z"/>
      <path class="cls-52" d="m106.79,122.27c-.73.44-1.91-.19-2.64-1.39-.73-1.2-.73-2.53,0-2.96.73-.43,1.91.19,2.63,1.39.73,1.2.73,2.53,0,2.96Z"/>
      <path class="cls-52" d="m101.67,107.31c-.73.43-1.91-.19-2.64-1.39-.73-1.2-.73-2.53,0-2.96.73-.43,1.91.19,2.64,1.39.73,1.2.73,2.53,0,2.96Z"/>
      <path class="cls-52" d="m93.71,122.37c-.73.43-1.91-.19-2.64-1.39-.73-1.2-.73-2.53,0-2.96.73-.44,1.91.19,2.64,1.39.73,1.2.73,2.53,0,2.96Z"/>
      <path class="cls-52" d="m122.65,112.64c.16.83-.84,1.71-2.24,1.96-1.39.26-2.65-.2-2.8-1.03-.16-.83.84-1.71,2.23-1.96,1.39-.26,2.65.2,2.8,1.03Z"/>
      <path class="cls-52" d="m102.87,113.06c.15.83-.85,1.71-2.24,1.96-1.39.25-2.64-.21-2.8-1.03-.16-.83.84-1.71,2.24-1.96,1.39-.26,2.65.21,2.8,1.03Z"/>
      <path class="cls-52" d="m112.02,126.93c.15.83-.85,1.71-2.24,1.96-1.39.26-2.64-.2-2.8-1.03-.16-.83.85-1.71,2.24-1.96,1.39-.26,2.65.21,2.8,1.03Z"/>
      <path class="cls-52" d="m114.55,121.3c.16.83-.84,1.71-2.24,1.96-1.39.26-2.64-.2-2.8-1.03-.16-.83.85-1.7,2.23-1.96,1.39-.26,2.65.2,2.8,1.03Z"/>
      <path class="cls-58" d="m94.42,111.88c.52.67.03,1.9-1.1,2.76-1.12.85-2.45,1.01-2.97.34-.52-.67-.03-1.9,1.09-2.76,1.12-.85,2.45-1.01,2.97-.34Z"/>
      <path class="cls-58" d="m102.77,120.94c-.28.79-1.59,1.06-2.93.59-1.34-.47-2.19-1.49-1.91-2.28.28-.79,1.59-1.06,2.93-.59,1.33.47,2.19,1.49,1.91,2.28Z"/>
    </g>
    <g>
      <path class="cls-58" d="m108.33,134.65c-.36.76-1.69.89-2.97.29-1.28-.6-2.02-1.7-1.66-2.47.36-.76,1.69-.89,2.97-.29,1.28.6,2.02,1.7,1.66,2.47Z"/>
      <path class="cls-58" d="m112.63,125.65c.61.59.29,1.88-.7,2.88-.99,1-2.29,1.33-2.89.74-.61-.59-.3-1.88.7-2.88.99-1,2.29-1.33,2.89-.74Z"/>
      <path class="cls-58" d="m104.66,149.28c.61.59.29,1.88-.7,2.88-.99,1-2.29,1.33-2.89.74-.6-.59-.29-1.88.7-2.88.99-1,2.29-1.33,2.89-.74Z"/>
      <path class="cls-58" d="m114.56,137.1c.6.59.29,1.88-.7,2.88-.99,1-2.29,1.33-2.89.74-.61-.59-.29-1.88.7-2.88.99-1,2.29-1.33,2.89-.75Z"/>
      <path class="cls-58" d="m120.3,130c.6.59.29,1.88-.7,2.88-.99,1-2.29,1.33-2.89.74-.61-.59-.29-1.88.7-2.88.99-1,2.29-1.33,2.89-.75Z"/>
      <path class="cls-58" d="m121.93,145.97c-.73.43-1.91-.19-2.64-1.39-.73-1.2-.73-2.53,0-2.96.73-.43,1.91.19,2.63,1.39.73,1.2.73,2.52,0,2.96Z"/>
      <path class="cls-52" d="m110.05,145.97c-.73.43-1.91-.19-2.64-1.39-.73-1.2-.73-2.53,0-2.96.73-.44,1.91.19,2.63,1.39.73,1.2.73,2.52,0,2.96Z"/>
      <path class="cls-52" d="m104.93,131.01c-.73.43-1.91-.19-2.64-1.39-.73-1.2-.73-2.53,0-2.96.73-.44,1.91.19,2.64,1.39.73,1.2.73,2.53,0,2.96Z"/>
      <path class="cls-52" d="m96.97,146.07c-.73.43-1.91-.19-2.64-1.39-.73-1.2-.73-2.53,0-2.96.73-.44,1.91.19,2.63,1.39.73,1.2.73,2.53,0,2.96Z"/>
      <path class="cls-52" d="m125.91,136.34c.16.83-.84,1.71-2.24,1.96-1.39.26-2.65-.21-2.8-1.04-.16-.83.84-1.7,2.23-1.96,1.39-.26,2.65.2,2.8,1.03Z"/>
      <path class="cls-52" d="m106.13,136.76c.16.83-.85,1.71-2.24,1.96-1.39.26-2.64-.21-2.8-1.03-.16-.83.84-1.71,2.23-1.96,1.39-.26,2.64.21,2.8,1.03Z"/>
      <path class="cls-52" d="m115.28,150.63c.15.83-.85,1.71-2.24,1.96-1.39.26-2.64-.21-2.8-1.03-.16-.83.84-1.7,2.24-1.96,1.39-.26,2.65.21,2.8,1.03Z"/>
      <path class="cls-52" d="m117.81,145c.15.83-.85,1.71-2.24,1.96-1.39.26-2.64-.2-2.8-1.03-.16-.83.85-1.71,2.24-1.96,1.39-.26,2.65.2,2.8,1.03Z"/>
      <path class="cls-58" d="m97.68,135.58c.52.67.03,1.9-1.09,2.76-1.12.85-2.45,1.01-2.97.34-.52-.67-.03-1.9,1.09-2.76,1.12-.85,2.45-1.01,2.97-.34Z"/>
      <path class="cls-58" d="m106.03,144.64c-.28.79-1.59,1.06-2.93.59-1.34-.47-2.19-1.49-1.91-2.28.28-.79,1.59-1.06,2.93-.59,1.33.47,2.19,1.49,1.91,2.28Z"/>
    </g>
    <g>
      <path class="cls-58" d="m126.1,114.79c-.36.76-1.7.89-2.97.29-1.28-.6-2.02-1.71-1.66-2.47.36-.76,1.69-.89,2.97-.29,1.28.6,2.02,1.7,1.66,2.47Z"/>
      <path class="cls-58" d="m130.39,105.79c.61.59.29,1.88-.7,2.88-.99,1-2.28,1.33-2.89.74-.61-.59-.29-1.88.7-2.88.99-1,2.29-1.33,2.89-.74Z"/>
      <path class="cls-58" d="m122.42,129.43c.61.59.29,1.88-.7,2.88-.99,1-2.29,1.33-2.89.74-.6-.59-.29-1.88.7-2.88.99-1,2.28-1.33,2.89-.74Z"/>
      <path class="cls-58" d="m132.32,117.24c.6.59.29,1.88-.7,2.88-.99,1-2.29,1.33-2.89.74-.6-.59-.29-1.88.7-2.88.99-1,2.29-1.33,2.89-.74Z"/>
      <path class="cls-58" d="m138.06,110.14c.61.59.29,1.88-.7,2.88-.99,1-2.29,1.33-2.89.74-.61-.59-.29-1.88.7-2.88.99-1,2.29-1.33,2.89-.74Z"/>
      <path class="cls-58" d="m139.69,126.11c-.73.43-1.91-.19-2.64-1.39-.73-1.2-.73-2.53,0-2.96.73-.43,1.91.19,2.64,1.39.73,1.2.73,2.52,0,2.96Z"/>
      <path class="cls-52" d="m127.81,126.11c-.73.43-1.91-.19-2.64-1.39-.73-1.2-.73-2.53,0-2.96.73-.44,1.91.19,2.63,1.39.73,1.2.73,2.52,0,2.96Z"/>
      <path class="cls-52" d="m122.7,111.15c-.73.43-1.91-.19-2.64-1.39-.73-1.2-.73-2.53,0-2.96.73-.43,1.91.19,2.63,1.39.73,1.2.73,2.53,0,2.96Z"/>
      <path class="cls-52" d="m114.73,126.21c-.73.43-1.91-.19-2.64-1.39-.73-1.2-.73-2.53,0-2.96.73-.44,1.91.19,2.64,1.39.73,1.2.73,2.53,0,2.96Z"/>
      <path class="cls-52" d="m143.67,116.48c.16.83-.84,1.71-2.24,1.96-1.39.26-2.65-.21-2.8-1.04-.16-.82.84-1.7,2.24-1.96,1.39-.25,2.64.21,2.8,1.03Z"/>
      <path class="cls-52" d="m123.89,116.9c.16.83-.85,1.71-2.24,1.96-1.39.25-2.64-.21-2.8-1.03-.15-.83.85-1.71,2.24-1.97,1.39-.26,2.64.21,2.8,1.03Z"/>
      <path class="cls-52" d="m133.04,130.77c.15.83-.85,1.71-2.24,1.96-1.39.26-2.64-.21-2.8-1.03-.16-.83.85-1.7,2.24-1.96,1.39-.26,2.64.21,2.8,1.03Z"/>
      <path class="cls-52" d="m135.57,125.14c.16.83-.84,1.71-2.24,1.96-1.39.26-2.65-.2-2.8-1.03-.16-.83.85-1.71,2.24-1.96,1.39-.26,2.65.2,2.8,1.03Z"/>
      <path class="cls-58" d="m115.44,115.72c.51.67.03,1.9-1.09,2.76-1.12.85-2.45,1.01-2.97.34-.52-.67-.03-1.9,1.09-2.75,1.12-.85,2.45-1.01,2.97-.34Z"/>
      <path class="cls-58" d="m123.79,124.78c-.28.79-1.59,1.06-2.93.59-1.33-.47-2.19-1.49-1.91-2.28.28-.8,1.59-1.06,2.93-.6,1.33.47,2.19,1.49,1.91,2.28Z"/>
    </g>
    <g>
      <path class="cls-58" d="m126.72,168.68c-.36.76-1.69.89-2.97.29-1.28-.6-2.02-1.71-1.66-2.47.36-.76,1.69-.89,2.97-.29,1.28.6,2.02,1.7,1.66,2.47Z"/>
      <path class="cls-58" d="m131.01,159.68c.61.59.29,1.88-.7,2.88-.99,1-2.29,1.33-2.89.74-.61-.59-.29-1.88.7-2.88.99-1,2.29-1.33,2.89-.74Z"/>
      <path class="cls-58" d="m123.05,183.31c.6.59.29,1.88-.7,2.88-.99,1-2.29,1.33-2.89.74-.61-.59-.29-1.88.7-2.88.99-1,2.29-1.33,2.89-.74Z"/>
      <path class="cls-58" d="m132.94,171.13c.6.59.29,1.88-.7,2.88-.99,1-2.29,1.33-2.89.74-.61-.59-.29-1.88.7-2.88.99-1,2.29-1.33,2.89-.74Z"/>
      <path class="cls-58" d="m138.69,164.02c.6.59.29,1.88-.7,2.88-.99,1-2.29,1.33-2.89.74-.61-.59-.29-1.88.7-2.88.99-1,2.29-1.33,2.89-.75Z"/>
      <path class="cls-58" d="m140.31,180c-.73.43-1.91-.19-2.64-1.39-.73-1.2-.73-2.53,0-2.96.73-.43,1.91.19,2.63,1.39.73,1.2.73,2.53,0,2.96Z"/>
      <path class="cls-52" d="m128.44,180c-.73.43-1.91-.19-2.64-1.39-.73-1.2-.73-2.53,0-2.96.73-.44,1.91.19,2.63,1.39.73,1.2.73,2.53,0,2.96Z"/>
      <path class="cls-52" d="m123.32,165.04c-.73.43-1.91-.19-2.64-1.39-.73-1.2-.73-2.53,0-2.96.73-.43,1.91.19,2.64,1.39.73,1.2.73,2.53,0,2.96Z"/>
      <path class="cls-52" d="m115.36,180.1c-.73.43-1.91-.19-2.64-1.4-.73-1.2-.73-2.53,0-2.96.73-.44,1.91.19,2.64,1.39.73,1.21.73,2.53,0,2.96Z"/>
      <path class="cls-52" d="m144.3,170.37c.16.83-.85,1.7-2.24,1.96-1.39.26-2.65-.2-2.8-1.04-.16-.83.84-1.71,2.23-1.96,1.39-.26,2.65.2,2.8,1.03Z"/>
      <path class="cls-52" d="m124.52,170.79c.15.83-.85,1.71-2.24,1.96-1.39.26-2.64-.21-2.8-1.03-.15-.83.85-1.71,2.24-1.97,1.39-.26,2.64.21,2.8,1.03Z"/>
      <path class="cls-52" d="m133.67,184.66c.15.83-.85,1.71-2.24,1.96-1.39.26-2.64-.21-2.8-1.03-.16-.83.85-1.7,2.24-1.96,1.39-.26,2.64.21,2.8,1.03Z"/>
      <path class="cls-52" d="m136.2,179.02c.15.83-.85,1.71-2.24,1.96-1.39.26-2.65-.2-2.8-1.03-.16-.83.85-1.7,2.24-1.96,1.39-.26,2.65.2,2.8,1.03Z"/>
      <path class="cls-58" d="m116.07,169.6c.52.67.03,1.9-1.09,2.76-1.12.85-2.45,1.01-2.97.34-.52-.66-.03-1.9,1.09-2.75,1.12-.85,2.45-1.01,2.97-.34Z"/>
      <path class="cls-58" d="m124.42,178.67c-.28.79-1.59,1.06-2.93.59-1.33-.47-2.19-1.49-1.91-2.28.28-.79,1.59-1.06,2.92-.6,1.33.47,2.19,1.49,1.91,2.28Z"/>
    </g>
    <g>
      <path class="cls-58" d="m124.97,153.79c.24-.81,1.53-1.14,2.89-.75,1.35.4,2.26,1.37,2.02,2.18-.24.81-1.53,1.14-2.89.75-1.36-.4-2.26-1.37-2.03-2.18Z"/>
      <path class="cls-58" d="m122.14,163.35c-.69-.49-.59-1.81.24-2.95.82-1.14,2.05-1.67,2.74-1.18.69.49.59,1.81-.24,2.95-.82,1.14-2.05,1.67-2.74,1.18Z"/>
      <path class="cls-58" d="m126.29,138.77c-.69-.49-.59-1.81.24-2.95.82-1.14,2.05-1.67,2.74-1.18.69.49.58,1.81-.24,2.95-.82,1.14-2.05,1.67-2.74,1.18Z"/>
      <path class="cls-58" d="m118.44,152.34c-.69-.49-.59-1.81.24-2.95.82-1.14,2.05-1.67,2.74-1.18.69.49.59,1.81-.24,2.95-.82,1.14-2.05,1.67-2.74,1.18Z"/>
      <path class="cls-58" d="m113.88,160.24c-.69-.49-.58-1.81.24-2.95.82-1.14,2.05-1.67,2.74-1.18.69.49.59,1.81-.24,2.95-.82,1.14-2.05,1.67-2.74,1.18Z"/>
      <path class="cls-58" d="m109.76,144.72c.65-.54,1.91-.11,2.82.97.91,1.08,1.12,2.39.47,2.93-.65.54-1.91.11-2.82-.97-.91-1.07-1.12-2.38-.47-2.92Z"/>
      <path class="cls-52" d="m121.49,142.88c.65-.54,1.92-.11,2.82.97.91,1.08,1.12,2.39.47,2.93-.65.54-1.91.11-2.82-.97-.91-1.07-1.12-2.38-.47-2.92Z"/>
      <path class="cls-52" d="m128.9,156.86c.65-.54,1.91-.11,2.83.97.91,1.08,1.12,2.39.47,2.92-.65.54-1.91.11-2.82-.96-.91-1.08-1.12-2.38-.47-2.93Z"/>
      <path class="cls-52" d="m134.39,140.75c.65-.54,1.91-.11,2.83.97.91,1.08,1.12,2.38.47,2.92-.65.55-1.91.11-2.82-.96-.91-1.08-1.12-2.38-.47-2.93Z"/>
      <path class="cls-52" d="m107.34,154.85c-.29-.79.57-1.82,1.9-2.28,1.34-.47,2.65-.21,2.93.59.28.79-.56,1.82-1.9,2.28-1.34.47-2.65.21-2.93-.59Z"/>
      <path class="cls-52" d="m126.81,151.37c-.28-.79.57-1.82,1.9-2.29,1.33-.47,2.64-.2,2.93.59.29.8-.57,1.82-1.9,2.29-1.33.47-2.64.21-2.93-.58Z"/>
      <path class="cls-52" d="m115.59,139.09c-.28-.79.57-1.82,1.9-2.28,1.33-.47,2.65-.21,2.93.58.29.79-.57,1.82-1.9,2.29-1.33.47-2.64.21-2.93-.59Z"/>
      <path class="cls-52" d="m113.97,145.04c-.28-.79.57-1.82,1.9-2.28,1.33-.47,2.64-.21,2.93.59.29.79-.57,1.81-1.9,2.28-1.33.47-2.64.21-2.93-.59Z"/>
      <path class="cls-58" d="m135.35,151.23c-.62-.58-.33-1.87.65-2.89.97-1.02,2.26-1.38,2.87-.8.61.58.33,1.87-.64,2.89-.97,1.02-2.26,1.38-2.88.8Z"/>
      <path class="cls-58" d="m125.67,143.57c.16-.83,1.41-1.29,2.8-1.04,1.39.25,2.39,1.13,2.24,1.96-.15.83-1.4,1.29-2.79,1.04-1.39-.25-2.39-1.13-2.24-1.96Z"/>
    </g>
    <g>
      <path class="cls-58" d="m156.06,110.93c.24-.81,1.53-1.14,2.89-.75,1.35.4,2.26,1.37,2.02,2.18-.24.81-1.53,1.14-2.89.74-1.36-.4-2.26-1.37-2.02-2.18Z"/>
      <path class="cls-58" d="m153.23,120.49c-.69-.49-.59-1.81.24-2.95.82-1.14,2.05-1.67,2.74-1.18.69.49.58,1.81-.24,2.95-.82,1.14-2.05,1.67-2.74,1.18Z"/>
      <path class="cls-58" d="m157.38,95.91c-.69-.49-.58-1.81.24-2.95.82-1.14,2.05-1.67,2.74-1.18.69.49.58,1.81-.24,2.96-.82,1.14-2.05,1.67-2.74,1.18Z"/>
      <path class="cls-58" d="m149.53,109.48c-.69-.49-.58-1.81.24-2.96.82-1.14,2.05-1.67,2.74-1.18.69.49.59,1.81-.24,2.95-.82,1.14-2.05,1.67-2.74,1.18Z"/>
      <path class="cls-58" d="m144.97,117.39c-.69-.49-.59-1.81.24-2.95.82-1.14,2.05-1.67,2.74-1.18.69.49.59,1.81-.24,2.95-.82,1.14-2.05,1.67-2.74,1.18Z"/>
      <path class="cls-58" d="m140.85,101.86c.65-.54,1.91-.11,2.82.96.91,1.08,1.12,2.39.47,2.92-.65.54-1.91.11-2.82-.97-.91-1.07-1.12-2.38-.47-2.92Z"/>
      <path class="cls-52" d="m152.58,100.02c.65-.54,1.92-.11,2.83.96.91,1.08,1.12,2.39.47,2.93-.65.54-1.91.11-2.82-.97-.91-1.07-1.12-2.38-.47-2.92Z"/>
      <path class="cls-52" d="m159.99,114c.65-.54,1.92-.1,2.82.97.91,1.08,1.12,2.39.47,2.92-.65.54-1.92.11-2.82-.96-.91-1.08-1.12-2.39-.47-2.93Z"/>
      <path class="cls-52" d="m165.48,97.9c.65-.54,1.91-.11,2.82.97.91,1.07,1.12,2.38.47,2.92-.65.55-1.91.11-2.82-.96-.91-1.08-1.12-2.39-.47-2.93Z"/>
      <path class="cls-52" d="m138.43,111.99c-.29-.79.57-1.82,1.9-2.29,1.34-.47,2.65-.21,2.93.59.28.79-.56,1.81-1.9,2.28-1.34.47-2.65.21-2.93-.59Z"/>
      <path class="cls-52" d="m157.9,108.51c-.28-.79.57-1.82,1.9-2.29,1.33-.47,2.64-.2,2.92.59.29.79-.57,1.82-1.9,2.29-1.33.47-2.64.21-2.93-.59Z"/>
      <path class="cls-52" d="m146.68,96.23c-.28-.79.57-1.81,1.9-2.28,1.33-.47,2.65-.2,2.93.59.28.79-.57,1.82-1.9,2.29-1.34.47-2.65.21-2.93-.59Z"/>
      <path class="cls-52" d="m145.06,102.18c-.28-.8.57-1.82,1.9-2.28,1.33-.47,2.65-.21,2.93.59.29.79-.56,1.81-1.9,2.28-1.33.47-2.64.21-2.93-.59Z"/>
      <path class="cls-58" d="m166.43,108.37c-.61-.58-.32-1.88.65-2.89.97-1.02,2.26-1.37,2.88-.8.62.58.33,1.87-.65,2.89-.97,1.02-2.26,1.38-2.88.8Z"/>
      <path class="cls-58" d="m156.76,100.71c.15-.83,1.41-1.29,2.8-1.04,1.39.25,2.39,1.13,2.24,1.96-.15.83-1.4,1.29-2.8,1.04-1.39-.25-2.4-1.13-2.24-1.96Z"/>
    </g>
    <g>
      <path class="cls-58" d="m114.12,105.82c.81-.25,1.8.64,2.22,1.98.41,1.34.09,2.63-.72,2.87-.81.25-1.8-.64-2.22-1.98-.41-1.34-.09-2.63.72-2.88Z"/>
      <path class="cls-58" d="m104.52,108.73c.03-.84,1.2-1.48,2.62-1.43,1.42.05,2.53.78,2.5,1.62-.03.84-1.2,1.48-2.62,1.43-1.41-.05-2.53-.78-2.5-1.62Z"/>
      <path class="cls-58" d="m127.49,98.65c.03-.84,1.2-1.48,2.62-1.43,1.41.06,2.53.78,2.5,1.62-.03.84-1.2,1.48-2.62,1.43-1.41-.05-2.53-.77-2.5-1.62Z"/>
      <path class="cls-58" d="m111.75,99.61c.03-.84,1.2-1.48,2.62-1.43,1.41.05,2.53.78,2.5,1.62-.03.84-1.2,1.48-2.62,1.43-1.41-.05-2.54-.78-2.5-1.62Z"/>
      <path class="cls-58" d="m102.59,100.19c.03-.84,1.2-1.48,2.62-1.43,1.41.05,2.53.78,2.5,1.62-.03.84-1.2,1.48-2.62,1.43-1.41-.05-2.53-.78-2.5-1.62Z"/>
      <path class="cls-58" d="m113.39,88.23c.81.24,1.14,1.52.74,2.87-.4,1.34-1.39,2.24-2.21,2-.81-.24-1.14-1.53-.74-2.87.4-1.35,1.39-2.24,2.21-2Z"/>
      <path class="cls-52" d="m121.39,96.93c.82.24,1.15,1.53.74,2.87-.41,1.34-1.39,2.24-2.21,2-.81-.24-1.14-1.52-.74-2.87.4-1.34,1.39-2.24,2.2-2Z"/>
      <path class="cls-52" d="m113.7,110.76c.81.24,1.14,1.53.74,2.87-.4,1.34-1.39,2.24-2.2,2-.81-.24-1.14-1.53-.74-2.87.41-1.35,1.39-2.24,2.21-2Z"/>
      <path class="cls-52" d="m130.28,106.45c.81.24,1.14,1.53.74,2.87-.41,1.35-1.39,2.24-2.2,2-.82-.24-1.15-1.53-.74-2.87.41-1.34,1.39-2.24,2.2-2Z"/>
      <path class="cls-52" d="m103.53,91.8c.51-.67,1.84-.53,2.97.32,1.13.85,1.63,2.08,1.12,2.75-.51.67-1.84.53-2.97-.32-1.13-.85-1.63-2.08-1.12-2.75Z"/>
      <path class="cls-52" d="m117.17,106.01c.51-.67,1.84-.53,2.97.32,1.13.85,1.63,2.08,1.12,2.75-.51.67-1.84.53-2.97-.32-1.13-.85-1.63-2.08-1.12-2.75Z"/>
      <path class="cls-52" d="m121.34,89.96c.51-.67,1.84-.53,2.97.32,1.13.84,1.63,2.08,1.12,2.75-.51.67-1.84.53-2.97-.32-1.13-.85-1.63-2.08-1.12-2.75Z"/>
      <path class="cls-52" d="m115.44,91.9c.51-.67,1.84-.53,2.97.32,1.13.84,1.63,2.07,1.12,2.75-.51.67-1.84.53-2.97-.32-1.13-.85-1.63-2.08-1.12-2.75Z"/>
      <path class="cls-58" d="m121.98,113c.15-.83,1.4-1.3,2.79-1.05,1.4.25,2.4,1.12,2.25,1.94-.15.83-1.4,1.3-2.79,1.06-1.39-.25-2.4-1.12-2.25-1.95Z"/>
      <path class="cls-58" d="m123.11,100.78c.78-.33,1.86.45,2.41,1.75.55,1.29.37,2.6-.41,2.93-.78.33-1.86-.45-2.41-1.74-.55-1.29-.37-2.6.41-2.93Z"/>
    </g>
    <g>
      <path class="cls-58" d="m86.57,145.63c-.68-.5-.54-1.82.3-2.95.85-1.12,2.08-1.62,2.76-1.12.68.5.54,1.82-.3,2.94-.85,1.12-2.08,1.63-2.76,1.12Z"/>
      <path class="cls-58" d="m94.61,151.59c-.7.47-1.91-.09-2.71-1.25-.79-1.16-.86-2.49-.16-2.96.7-.47,1.91.09,2.71,1.25.79,1.16.87,2.48.16,2.96Z"/>
      <path class="cls-58" d="m72.84,139.16c-.7.47-1.91-.09-2.71-1.25-.79-1.16-.86-2.49-.16-2.96.71-.47,1.91.09,2.71,1.25.8,1.16.87,2.49.16,2.96Z"/>
      <path class="cls-58" d="m82.92,151.19c-.7.47-1.92-.09-2.7-1.25-.79-1.16-.87-2.49-.16-2.96.7-.47,1.92.09,2.71,1.25.79,1.16.86,2.48.16,2.96Z"/>
      <path class="cls-58" d="m88.8,158.19c-.7.47-1.92-.09-2.71-1.25-.8-1.16-.87-2.49-.16-2.96.7-.47,1.92.09,2.71,1.25.79,1.16.86,2.49.16,2.96Z"/>
      <path class="cls-58" d="m72.69,156.6c-.29-.79.57-1.82,1.9-2.29,1.33-.47,2.64-.21,2.93.58.28.8-.57,1.82-1.9,2.29-1.33.47-2.64.21-2.93-.58Z"/>
      <path class="cls-52" d="m75.04,145.05c-.28-.8.57-1.82,1.9-2.29,1.33-.47,2.65-.21,2.93.58.28.79-.56,1.82-1.9,2.29-1.33.47-2.64.21-2.93-.58Z"/>
      <path class="cls-52" d="m90.84,143.05c-.28-.79.57-1.82,1.9-2.29,1.33-.47,2.64-.21,2.92.59.29.79-.57,1.82-1.9,2.29-1.33.47-2.64.21-2.93-.58Z"/>
      <path class="cls-52" d="m77.54,132.32c-.28-.79.57-1.82,1.9-2.29,1.33-.47,2.64-.21,2.93.59.29.79-.57,1.82-1.9,2.29-1.33.47-2.64.21-2.93-.58Z"/>
      <path class="cls-52" d="m81.41,162.39c-.85-.01-1.52-1.16-1.5-2.56.02-1.4.73-2.53,1.58-2.51.85.01,1.52,1.16,1.5,2.56-.02,1.41-.73,2.53-1.58,2.52Z"/>
      <path class="cls-52" d="m84.92,143.07c-.85-.01-1.52-1.16-1.5-2.56.02-1.4.73-2.53,1.58-2.52.85.01,1.52,1.16,1.5,2.56-.02,1.4-.73,2.53-1.58,2.52Z"/>
      <path class="cls-52" d="m69.4,149.21c-.85-.02-1.52-1.16-1.5-2.57.02-1.4.73-2.53,1.58-2.52.85.01,1.52,1.16,1.5,2.56-.02,1.41-.73,2.53-1.58,2.52Z"/>
      <path class="cls-52" d="m74.47,152.79c-.85-.01-1.52-1.16-1.5-2.56.02-1.4.73-2.53,1.58-2.52.85.01,1.52,1.16,1.5,2.56-.02,1.41-.72,2.53-1.57,2.52Z"/>
      <path class="cls-58" d="m87.77,135.09c-.76.37-1.88-.35-2.5-1.61-.62-1.26-.51-2.58.25-2.95.76-.37,1.88.35,2.51,1.61.62,1.26.51,2.58-.25,2.95Z"/>
      <path class="cls-58" d="m77.16,141.41c-.73-.43-.73-1.76,0-2.96.73-1.2,1.9-1.83,2.63-1.4.73.43.73,1.76,0,2.96-.73,1.21-1.9,1.83-2.63,1.4Z"/>
    </g>
    <g>
      <path class="cls-58" d="m112.88,168.56c-.68-.5-.54-1.82.3-2.95.85-1.12,2.09-1.63,2.77-1.12.68.5.54,1.82-.3,2.94-.85,1.12-2.08,1.63-2.77,1.12Z"/>
      <path class="cls-58" d="m120.93,174.52c-.7.47-1.91-.09-2.71-1.25-.79-1.16-.86-2.48-.16-2.96.7-.47,1.92.09,2.71,1.25.79,1.16.86,2.49.16,2.96Z"/>
      <path class="cls-58" d="m99.16,162.09c-.71.47-1.92-.09-2.71-1.25-.79-1.16-.86-2.49-.16-2.96.7-.47,1.92.09,2.71,1.25.8,1.16.87,2.48.16,2.96Z"/>
      <path class="cls-58" d="m109.23,174.12c-.7.47-1.92-.09-2.71-1.25-.79-1.16-.86-2.49-.16-2.96.7-.47,1.91.09,2.71,1.25.79,1.16.86,2.49.16,2.96Z"/>
      <path class="cls-58" d="m115.11,181.12c-.7.47-1.92-.09-2.71-1.25-.8-1.16-.86-2.48-.16-2.96.7-.47,1.92.09,2.71,1.25.79,1.16.87,2.49.16,2.96Z"/>
      <path class="cls-58" d="m99,179.53c-.28-.79.57-1.82,1.9-2.29,1.33-.47,2.64-.21,2.93.58.28.79-.57,1.81-1.9,2.28-1.33.47-2.64.21-2.93-.58Z"/>
      <path class="cls-52" d="m101.36,167.98c-.28-.8.57-1.82,1.9-2.29,1.33-.47,2.64-.21,2.93.59.29.79-.56,1.81-1.9,2.28-1.33.47-2.64.21-2.93-.58Z"/>
      <path class="cls-52" d="m117.15,165.98c-.28-.79.57-1.82,1.9-2.29,1.33-.47,2.64-.21,2.93.59.29.79-.57,1.82-1.9,2.29-1.33.47-2.64.21-2.93-.58Z"/>
      <path class="cls-52" d="m103.86,155.25c-.28-.8.56-1.82,1.9-2.29,1.33-.47,2.64-.21,2.92.59.29.79-.56,1.82-1.9,2.29-1.33.47-2.64.21-2.93-.58Z"/>
      <path class="cls-52" d="m107.73,185.32c-.85-.01-1.52-1.16-1.5-2.56.02-1.4.73-2.53,1.58-2.51.85.01,1.52,1.16,1.5,2.56-.02,1.4-.73,2.53-1.58,2.52Z"/>
      <path class="cls-52" d="m111.24,166c-.85-.01-1.52-1.16-1.5-2.56.02-1.4.73-2.53,1.57-2.52.85.01,1.52,1.16,1.5,2.56-.02,1.4-.73,2.53-1.58,2.52Z"/>
      <path class="cls-52" d="m95.72,172.14c-.85-.01-1.52-1.16-1.49-2.57.02-1.4.73-2.53,1.58-2.52.85.01,1.52,1.16,1.5,2.56-.02,1.41-.73,2.53-1.58,2.52Z"/>
      <path class="cls-52" d="m100.78,175.72c-.85-.01-1.52-1.16-1.5-2.56.02-1.4.73-2.53,1.58-2.52.85.01,1.52,1.16,1.49,2.56-.02,1.41-.72,2.53-1.58,2.52Z"/>
      <path class="cls-58" d="m114.09,158.02c-.76.37-1.88-.35-2.51-1.61-.62-1.26-.51-2.58.25-2.95.76-.37,1.88.35,2.51,1.61.62,1.26.51,2.58-.25,2.95Z"/>
      <path class="cls-58" d="m103.47,164.34c-.73-.43-.73-1.76,0-2.96.73-1.2,1.9-1.83,2.63-1.4.73.43.73,1.76,0,2.97-.72,1.21-1.9,1.83-2.63,1.4Z"/>
    </g>
    <g>
      <path class="cls-58" d="m139.27,150.1c.81-.25,1.8.64,2.22,1.98.41,1.34.09,2.63-.73,2.88-.81.25-1.8-.64-2.21-1.98-.42-1.34-.1-2.63.72-2.88Z"/>
      <path class="cls-58" d="m129.67,153.02c.03-.84,1.2-1.48,2.62-1.43,1.41.05,2.53.78,2.5,1.62-.03.84-1.2,1.48-2.62,1.43-1.41-.06-2.53-.78-2.5-1.62Z"/>
      <path class="cls-58" d="m152.64,142.93c.03-.84,1.2-1.48,2.62-1.43,1.41.05,2.53.78,2.5,1.62-.03.84-1.2,1.48-2.62,1.43-1.41-.05-2.53-.78-2.5-1.62Z"/>
      <path class="cls-58" d="m136.9,143.89c.03-.84,1.21-1.48,2.62-1.43,1.41.05,2.53.78,2.5,1.62-.03.84-1.2,1.48-2.62,1.43-1.41-.05-2.53-.78-2.5-1.62Z"/>
      <path class="cls-58" d="m127.74,144.47c.03-.84,1.2-1.48,2.62-1.43,1.41.05,2.53.78,2.5,1.62-.03.84-1.2,1.48-2.61,1.43-1.41-.05-2.54-.78-2.5-1.62Z"/>
      <path class="cls-58" d="m138.54,132.51c.81.24,1.14,1.53.74,2.87-.4,1.35-1.39,2.24-2.2,2-.81-.24-1.14-1.52-.74-2.87.4-1.34,1.39-2.24,2.2-2Z"/>
      <path class="cls-52" d="m146.54,141.21c.81.24,1.14,1.53.74,2.87-.41,1.34-1.39,2.24-2.21,2-.81-.24-1.14-1.52-.74-2.87.4-1.34,1.39-2.24,2.2-2Z"/>
      <path class="cls-52" d="m138.85,155.04c.81.24,1.14,1.53.74,2.87-.41,1.35-1.39,2.24-2.2,2-.81-.24-1.14-1.53-.74-2.87.41-1.34,1.39-2.24,2.21-2Z"/>
      <path class="cls-52" d="m155.43,150.73c.81.25,1.14,1.53.74,2.87-.41,1.34-1.39,2.24-2.21,2-.82-.24-1.14-1.52-.74-2.87.4-1.34,1.39-2.24,2.2-2Z"/>
      <path class="cls-52" d="m128.68,136.08c.51-.67,1.84-.53,2.97.32,1.13.85,1.63,2.08,1.12,2.75-.51.67-1.84.53-2.97-.32-1.13-.85-1.63-2.08-1.11-2.75Z"/>
      <path class="cls-52" d="m142.32,150.29c.51-.67,1.84-.53,2.97.32,1.13.85,1.62,2.08,1.12,2.75-.51.68-1.84.53-2.97-.31-1.13-.85-1.63-2.08-1.11-2.75Z"/>
      <path class="cls-52" d="m146.49,134.24c.51-.67,1.84-.53,2.97.32,1.13.84,1.63,2.08,1.12,2.75-.51.67-1.84.53-2.97-.32-1.13-.85-1.63-2.08-1.12-2.75Z"/>
      <path class="cls-52" d="m140.59,136.18c.51-.67,1.84-.53,2.97.32,1.13.85,1.63,2.08,1.12,2.75-.51.67-1.84.53-2.97-.32-1.13-.85-1.63-2.08-1.12-2.75Z"/>
      <path class="cls-58" d="m147.13,157.29c.15-.83,1.4-1.3,2.79-1.06,1.39.25,2.4,1.12,2.25,1.95-.15.83-1.4,1.3-2.79,1.06-1.39-.25-2.4-1.11-2.25-1.94Z"/>
      <path class="cls-58" d="m148.26,145.06c.78-.33,1.86.45,2.41,1.75.55,1.29.37,2.6-.42,2.93-.78.33-1.86-.45-2.41-1.74-.55-1.29-.37-2.6.42-2.94Z"/>
    </g>
  </g>
  <g>
    <g>
      <path class="cls-61" d="m159.13,122.45c5.83-.14,10.69,4.44,10.83,10.23.14,5.78-4.48,10.6-10.31,10.74-5.83.14-10.69-4.45-10.83-10.23-.14-5.78,4.48-10.6,10.31-10.74Zm.44,17.68c4-.1,7.18-3.41,7.08-7.38-.1-3.97-3.44-7.12-7.44-7.02-4,.1-7.18,3.41-7.08,7.37.1,3.97,3.44,7.12,7.44,7.02Z"/>
      <path class="cls-61" d="m127.72,113.67c4.92-.12,9.01,3.75,9.13,8.62.12,4.88-3.78,8.94-8.69,9.06-4.92.12-9.01-3.75-9.13-8.62-.12-4.87,3.78-8.94,8.69-9.06Zm.37,14.91c3.37-.08,6.05-2.87,5.97-6.22-.08-3.35-2.9-6-6.27-5.92-3.37.08-6.05,2.87-5.97,6.22.08,3.35,2.9,6,6.27,5.92Z"/>
      <path class="cls-61" d="m158.44,94.6c5.83-.14,10.69,4.44,10.83,10.23.14,5.78-4.48,10.6-10.31,10.74-5.83.14-10.69-4.45-10.83-10.23-.14-5.78,4.48-10.6,10.31-10.74Zm.44,17.68c4-.1,7.18-3.41,7.08-7.38-.1-3.97-3.44-7.12-7.44-7.02-4,.1-7.18,3.41-7.08,7.38.1,3.97,3.43,7.12,7.44,7.02Z"/>
      <g>
        <g>
          <path class="cls-17" d="m129.25,119.3l2.86-3.92c.7-.96-.25-2.3-1.42-3.14-1.17-.84-2.75-1.31-3.45-.35l-2.86,3.92,4.87,3.49Z"/>
          <g>
            <path class="cls-53" d="m124.71,115.84c.4-.55,1.71-.29,2.93.58,1.21.87,1.87,2.03,1.47,2.58-.4.55-1.71.29-2.93-.58-1.21-.87-1.87-2.02-1.47-2.58Z"/>
            <path class="cls-50" d="m127.8,116.2c1.16.83,2.08,2.14,1.5,2.93-.58.79-2.12.33-3.28-.5-1.16-.84-2.08-2.15-1.5-2.94.58-.79,2.12-.33,3.28.5Zm-1.46,2c1.24.89,2.33.98,2.57.65.24-.33-.19-1.33-1.43-2.22-1.24-.89-2.33-.98-2.57-.66-.24.33.19,1.33,1.43,2.22Z"/>
          </g>
        </g>
        <g>
          <path class="cls-26" d="m144.77,103.72l-3.71.95c-.91.23-1.01,1.52-.73,2.61.29,1.09,1,2.16,1.91,1.93l3.71-.95-1.18-4.54Z"/>
          <g>
            <path class="cls-48" d="m145.77,108.07c-.52.13-1.19-.67-1.48-1.8-.3-1.13-.11-2.16.41-2.29.52-.13,1.18.67,1.48,1.8.3,1.13.11,2.15-.41,2.29Z"/>
            <path class="cls-64" d="m144.08,106.32c-.28-1.08-.18-2.33.58-2.52.75-.19,1.46.85,1.73,1.93.28,1.08.17,2.33-.58,2.53-.75.19-1.45-.85-1.73-1.93Zm1.9-.48c-.3-1.15-.92-1.76-1.22-1.68-.31.08-.56.9-.26,2.05.3,1.15.92,1.76,1.22,1.68.31-.08.56-.9.26-2.05Z"/>
          </g>
        </g>
        <g>
          <path class="cls-56" d="m140.59,120.52c.03-1.44,1.24-2.59,2.69-2.55,1.45.03,2.6,1.23,2.57,2.67-.03,1.44-1.24,2.58-2.7,2.55-1.45-.04-2.6-1.23-2.57-2.67Z"/>
          <path class="cls-50" d="m143.3,117.19c1.89.04,3.39,1.6,3.34,3.47-.04,1.87-1.62,3.36-3.5,3.31-1.89-.04-3.38-1.6-3.34-3.47.04-1.87,1.61-3.36,3.5-3.31Zm-.12,5.22c1.02.02,1.86-.77,1.88-1.78.02-1.01-.78-1.85-1.8-1.87-1.01-.02-1.86.78-1.88,1.79-.02,1.01.78,1.84,1.8,1.87Z"/>
        </g>
        <g>
          <path class="cls-22" d="m153.35,112.8l5.32.79c1.3.19,2.15-1.41,2.39-2.97.24-1.57-.1-3.34-1.4-3.54l-5.33-.79-.98,6.51Z"/>
          <g>
            <path class="cls-53" d="m154.47,106.63c.75.11,1.16,1.52.92,3.14-.24,1.62-1.05,2.85-1.8,2.74-.75-.11-1.16-1.52-.92-3.14.25-1.62,1.05-2.85,1.8-2.73Z"/>
            <path class="cls-50" d="m155.68,109.81c-.23,1.55-1.06,3.11-2.14,2.95-1.08-.16-1.41-1.89-1.18-3.44.24-1.55,1.06-3.11,2.14-2.95,1.07.16,1.41,1.89,1.17,3.44Zm-2.72-.4c-.25,1.66.22,2.77.66,2.83.44.07,1.21-.86,1.47-2.51.25-1.66-.22-2.77-.66-2.83-.44-.07-1.21.86-1.47,2.52Z"/>
          </g>
        </g>
        <g>
          <path class="cls-20" d="m148.1,125.3l-2.71,3.26c-.67.8.08,2.02,1.06,2.82.97.8,2.32,1.3,2.99.5l2.71-3.26-4.05-3.32Z"/>
          <g>
            <path class="cls-53" d="m151.86,128.57c-.38.46-1.51.16-2.52-.66-1.01-.83-1.51-1.87-1.14-2.33.38-.46,1.51-.16,2.52.67,1.01.82,1.52,1.87,1.14,2.33Z"/>
            <path class="cls-50" d="m149.19,128.08c-.96-.79-1.69-1.98-1.15-2.64.55-.66,1.87-.18,2.83.61.97.79,1.7,1.98,1.15,2.64-.55.66-1.87.18-2.83-.61Zm1.38-1.66c-1.03-.84-1.98-.98-2.2-.71-.22.27.09,1.17,1.12,2.01,1.03.85,1.98.99,2.2.71.23-.27-.09-1.17-1.12-2.01Z"/>
          </g>
        </g>
        <g>
          <path class="cls-56" d="m129.95,121.89c.04-1.44,1.24-2.58,2.69-2.55,1.45.03,2.6,1.23,2.57,2.67-.03,1.44-1.24,2.58-2.69,2.55-1.45-.04-2.6-1.23-2.57-2.67Z"/>
          <path class="cls-50" d="m132.66,118.56c1.89.04,3.39,1.6,3.34,3.47-.04,1.87-1.62,3.36-3.5,3.31-1.88-.04-3.38-1.6-3.34-3.47.04-1.87,1.62-3.36,3.5-3.31Zm-.12,5.22c1.02.02,1.86-.77,1.89-1.78.02-1.01-.78-1.85-1.8-1.87-1.01-.02-1.86.77-1.88,1.78-.03,1.01.78,1.85,1.8,1.87Z"/>
        </g>
        <g>
          <path class="cls-19" d="m153.8,115.88l-3.79-1.97c-.93-.48-1.98.5-2.57,1.62-.59,1.12-.8,2.54.13,3.02l3.79,1.97,2.45-4.64Z"/>
          <g>
            <path class="cls-48" d="m151.34,120.22c-.53-.28-.47-1.44.14-2.59.61-1.16,1.54-1.87,2.07-1.59.54.28.48,1.44-.13,2.59-.61,1.16-1.54,1.87-2.07,1.59Z"/>
            <path class="cls-64" d="m151.26,117.52c.58-1.1,1.61-2.06,2.38-1.67.77.4.56,1.79-.02,2.89-.58,1.1-1.62,2.07-2.38,1.66-.77-.4-.56-1.78.02-2.89Zm1.94,1.01c.62-1.18.56-2.13.25-2.3-.32-.16-1.14.33-1.76,1.51-.62,1.18-.57,2.14-.25,2.3.32.16,1.14-.33,1.76-1.51Z"/>
          </g>
        </g>
      </g>
      <g>
        <g>
          <path class="cls-25" d="m152.12,97.29l-1.01,4.73c-.25,1.16,1.16,2.01,2.58,2.3,1.41.3,3.05.09,3.3-1.07l1.01-4.73-5.88-1.23Z"/>
          <g>
            <path class="cls-53" d="m157.68,98.62c-.14.67-1.45.96-2.91.65-1.46-.31-2.53-1.1-2.39-1.76.14-.67,1.44-.96,2.91-.65,1.46.31,2.54,1.1,2.39,1.76Z"/>
            <path class="cls-50" d="m154.71,99.54c-1.4-.29-2.78-1.12-2.57-2.08.2-.95,1.8-1.16,3.2-.87,1.4.29,2.78,1.12,2.57,2.08-.2.96-1.8,1.16-3.2.87Zm.51-2.42c-1.5-.31-2.53.04-2.62.44-.08.39.72,1.14,2.21,1.45,1.5.31,2.53-.04,2.62-.44.09-.39-.72-1.14-2.21-1.45Z"/>
          </g>
        </g>
        <g>
          <path class="cls-21" d="m144.31,117.77l3-2.36c.74-.58.31-1.79-.4-2.68-.71-.89-1.8-1.57-2.54-1l-3,2.36,2.94,3.67Z"/>
          <g>
            <path class="cls-48" d="m141.62,114.2c.43-.33,1.36.14,2.09,1.05.73.92.98,1.93.55,2.26-.42.34-1.36-.14-2.09-1.05-.73-.91-.98-1.92-.56-2.26Z"/>
            <path class="cls-64" d="m143.88,115.12c.7.88,1.11,2.06.51,2.54-.6.48-1.67-.2-2.37-1.07-.7-.87-1.12-2.06-.51-2.54.61-.48,1.68.19,2.37,1.07Zm-1.53,1.21c.75.94,1.56,1.23,1.81,1.04.25-.19.14-1.04-.61-1.98-.75-.94-1.55-1.23-1.8-1.04-.25.19-.14,1.04.61,1.98Z"/>
          </g>
        </g>
        <g>
          <path class="cls-56" d="m141.26,100.74c.56,1.33-.08,2.86-1.42,3.41-1.34.56-2.88-.07-3.44-1.4-.56-1.33.07-2.86,1.42-3.41,1.34-.56,2.88.08,3.44,1.41Z"/>
          <path class="cls-50" d="m140.14,104.87c-1.74.72-3.75-.1-4.48-1.83-.72-1.73.1-3.72,1.84-4.44,1.74-.72,3.75.1,4.48,1.83.73,1.73-.1,3.72-1.84,4.44Zm-2.02-4.82c-.94.39-1.38,1.46-.99,2.39.39.93,1.47,1.37,2.41.98.94-.39,1.38-1.46.99-2.39-.39-.93-1.47-1.37-2.41-.98Z"/>
        </g>
        <g>
          <path class="cls-28" d="m132.75,112.94l-5.19,1.42c-1.27.35-1.39,2.15-.96,3.68.42,1.53,1.46,3.01,2.73,2.67l5.19-1.42-1.77-6.34Z"/>
          <g>
            <path class="cls-53" d="m134.26,119.02c-.73.2-1.68-.92-2.12-2.5-.44-1.58-.2-3.03.53-3.23.73-.2,1.68.92,2.12,2.5.44,1.58.21,3.02-.53,3.23Z"/>
            <path class="cls-50" d="m131.85,116.6c-.42-1.51-.3-3.27.75-3.56,1.05-.29,2.06,1.16,2.48,2.67.42,1.51.3,3.27-.75,3.56-1.05.29-2.06-1.16-2.48-2.67Zm2.65-.73c-.45-1.61-1.33-2.44-1.76-2.32-.43.12-.76,1.28-.31,2.89.45,1.62,1.33,2.44,1.76,2.32.43-.12.76-1.28.31-2.89Z"/>
          </g>
        </g>
        <g>
          <path class="cls-24" d="m132.43,99.39l1.14-4.07c.28-1-.9-1.81-2.12-2.15-1.22-.34-2.65-.25-2.94.75l-1.15,4.07,5.06,1.4Z"/>
          <g>
            <path class="cls-53" d="m127.66,97.92c.16-.57,1.31-.75,2.57-.41,1.26.35,2.15,1.1,1.99,1.67-.16.57-1.31.76-2.57.41-1.26-.35-2.15-1.1-1.99-1.67Z"/>
            <path class="cls-50" d="m130.3,97.29c1.2.33,2.36,1.13,2.13,1.95-.23.82-1.63.91-2.84.58-1.21-.33-2.36-1.13-2.13-1.95.23-.82,1.64-.91,2.84-.58Zm-.58,2.08c1.29.36,2.21.1,2.31-.24.09-.34-.56-1.03-1.85-1.39-1.29-.35-2.21-.1-2.31.24-.1.34.56,1.03,1.85,1.39Z"/>
          </g>
        </g>
        <g>
          <path class="cls-27" d="m141.18,111.83l1.14-4.07c.28-1-.9-1.81-2.12-2.15-1.22-.34-2.66-.25-2.94.75l-1.14,4.07,5.06,1.4Z"/>
          <g>
            <path class="cls-53" d="m136.41,110.36c.16-.57,1.31-.75,2.57-.41,1.26.35,2.15,1.1,1.99,1.67-.16.58-1.31.76-2.57.41-1.26-.35-2.15-1.1-1.99-1.67Z"/>
            <path class="cls-50" d="m139.05,109.73c1.21.33,2.36,1.13,2.13,1.95-.23.82-1.63.91-2.84.58-1.2-.33-2.36-1.13-2.13-1.95.23-.82,1.63-.91,2.84-.58Zm-.58,2.08c1.29.36,2.21.1,2.31-.24.09-.34-.56-1.03-1.85-1.39-1.29-.36-2.21-.1-2.31.24-.09.34.56,1.03,1.85,1.39Z"/>
          </g>
        </g>
        <g>
          <path class="cls-23" d="m146.4,117.82l3.67-2.15c.9-.52.61-1.93-.03-3.01-.64-1.08-1.74-2-2.64-1.48l-3.67,2.15,2.67,4.48Z"/>
          <g>
            <path class="cls-53" d="m143.99,113.48c.52-.3,1.47.36,2.14,1.47.66,1.12.78,2.27.27,2.57-.52.31-1.47-.35-2.14-1.47-.67-1.12-.78-2.27-.27-2.57Z"/>
            <path class="cls-50" d="m146.33,114.83c.63,1.07.91,2.44.17,2.87-.74.43-1.82-.46-2.45-1.53-.64-1.07-.91-2.44-.17-2.87.74-.43,1.82.47,2.45,1.54Zm-1.87,1.1c.68,1.14,1.52,1.59,1.83,1.42.3-.18.32-1.13-.37-2.27-.68-1.14-1.52-1.59-1.83-1.41-.31.18-.31,1.13.37,2.27Z"/>
          </g>
        </g>
        <g>
          <path class="cls-56" d="m150.42,95.2c.56,1.33-.08,2.86-1.42,3.41-1.34.56-2.88-.07-3.44-1.4-.56-1.33.08-2.86,1.42-3.41,1.34-.56,2.88.07,3.44,1.4Z"/>
          <path class="cls-50" d="m149.31,99.34c-1.74.72-3.75-.1-4.48-1.83-.73-1.73.1-3.72,1.84-4.44,1.74-.72,3.75.1,4.48,1.83.72,1.73-.1,3.72-1.84,4.44Zm-2.03-4.82c-.94.39-1.38,1.46-.99,2.39.39.93,1.47,1.37,2.41.99.94-.39,1.38-1.46,1-2.39-.39-.93-1.47-1.37-2.41-.99Z"/>
        </g>
        <g>
          <path class="cls-30" d="m131.09,110.3l4.27.27c1.04.07,1.6-1.26,1.69-2.52.08-1.26-.31-2.64-1.35-2.71l-4.27-.27-.33,5.23Z"/>
          <g>
            <path class="cls-48" d="m131.56,105.34c.6.04,1.02,1.12.94,2.42-.08,1.3-.64,2.33-1.24,2.29-.6-.04-1.02-1.12-.94-2.42.08-1.3.64-2.32,1.24-2.29Z"/>
            <path class="cls-64" d="m132.73,107.78c-.08,1.24-.63,2.53-1.5,2.48-.86-.05-1.25-1.4-1.16-2.65.08-1.24.63-2.54,1.5-2.48.86.05,1.24,1.4,1.16,2.65Zm-2.18-.14c-.08,1.33.36,2.18.71,2.2.36.02.9-.76.99-2.09.08-1.33-.36-2.18-.72-2.2-.35-.02-.9.76-.99,2.09Z"/>
          </g>
        </g>
      </g>
    </g>
    <g>
      <path class="cls-61" d="m114.59,132.81c-5.11,2.35-11.19.14-13.55-4.93-2.37-5.06-.14-11.09,4.97-13.44,5.11-2.35,11.19-.14,13.55,4.93,2.37,5.06.14,11.09-4.96,13.44Zm-7.24-15.49c-3.51,1.61-5.04,5.75-3.41,9.23,1.63,3.48,5.8,4.99,9.31,3.38,3.5-1.61,5.03-5.75,3.41-9.23-1.62-3.48-5.8-4.99-9.3-3.38Z"/>
      <path class="cls-61" d="m137.46,143.27c-4.31,1.98-9.43.11-11.43-4.15-2-4.27-.12-9.35,4.19-11.33,4.3-1.98,9.43-.12,11.43,4.15,2,4.27.12,9.35-4.19,11.33Zm-6.11-13.06c-2.95,1.36-4.25,4.85-2.88,7.78,1.37,2.93,4.89,4.21,7.85,2.85,2.96-1.36,4.25-4.85,2.87-7.78-1.37-2.93-4.89-4.21-7.85-2.85Z"/>
      <path class="cls-61" d="m117.65,171.86c-5.11,2.35-11.19.14-13.55-4.93-2.37-5.06-.14-11.09,4.97-13.44,5.11-2.35,11.18-.14,13.55,4.93,2.37,5.06.14,11.09-4.97,13.44Zm-7.24-15.49c-3.51,1.61-5.03,5.75-3.41,9.23,1.63,3.48,5.8,4.99,9.3,3.38,3.51-1.61,5.03-5.75,3.41-9.23-1.62-3.48-5.8-4.99-9.3-3.38Z"/>
      <g>
        <g>
          <path class="cls-14" d="m133.93,138.87l-1.01,4.56c-.25,1.11,1.11,1.94,2.47,2.24,1.37.3,2.94.11,3.19-1l1.01-4.56-5.66-1.24Z"/>
          <g>
            <path class="cls-53" d="m139.28,140.21c-.14.64-1.4.91-2.81.6-1.41-.31-2.44-1.08-2.29-1.72.14-.64,1.4-.91,2.81-.61,1.41.31,2.44,1.08,2.29,1.72Z"/>
            <path class="cls-50" d="m136.41,141.06c-1.35-.29-2.67-1.1-2.47-2.03.21-.92,1.75-1.1,3.1-.81,1.35.3,2.67,1.11,2.47,2.03-.21.92-1.75,1.11-3.1.81Zm.52-2.33c-1.44-.32-2.44.02-2.53.4-.08.38.68,1.1,2.12,1.42,1.44.32,2.44-.02,2.53-.4.08-.38-.69-1.1-2.13-1.42Z"/>
          </g>
        </g>
        <g>
          <path class="cls-31" d="m126.22,158.58l2.92-2.25c.71-.55.31-1.73-.36-2.59-.67-.86-1.72-1.53-2.44-.98l-2.92,2.25,2.8,3.57Z"/>
          <g>
            <path class="cls-48" d="m123.65,155.11c.41-.32,1.31.14,2.01,1.03.7.89.93,1.87.52,2.18-.41.32-1.31-.14-2.01-1.03-.7-.89-.93-1.87-.52-2.18Z"/>
            <path class="cls-64" d="m125.83,156.01c.67.85,1.06,2,.47,2.45-.59.45-1.62-.2-2.28-1.05-.67-.85-1.06-2-.47-2.46.59-.45,1.62.2,2.29,1.05Zm-1.49,1.15c.71.91,1.5,1.21,1.74,1.02.24-.19.14-1.01-.57-1.92-.71-.91-1.49-1.2-1.73-1.02-.24.19-.15,1.01.57,1.91Z"/>
          </g>
        </g>
        <g>
          <path class="cls-56" d="m123.42,142.11c.53,1.29-.1,2.76-1.4,3.28-1.3.52-2.78-.09-3.31-1.39-.53-1.29.1-2.76,1.4-3.28,1.3-.52,2.78.1,3.31,1.39Z"/>
          <path class="cls-50" d="m122.31,146.09c-1.69.68-3.62-.13-4.3-1.8-.69-1.67.13-3.59,1.82-4.27,1.69-.68,3.62.13,4.3,1.8.68,1.67-.13,3.59-1.82,4.27Zm-1.91-4.67c-.91.37-1.35,1.4-.98,2.3.37.9,1.41,1.34,2.32.97.91-.37,1.35-1.4.98-2.3-.37-.9-1.41-1.33-2.32-.97Z"/>
        </g>
        <g>
          <path class="cls-29" d="m115.1,153.81l-5.02,1.33c-1.23.33-1.36,2.07-.96,3.54.4,1.48,1.39,2.92,2.61,2.6l5.02-1.33-1.65-6.14Z"/>
          <g>
            <path class="cls-53" d="m116.5,159.69c-.71.19-1.61-.9-2.03-2.43-.41-1.53-.17-2.92.53-3.11.71-.19,1.62.9,2.03,2.43.41,1.53.17,2.92-.54,3.11Z"/>
            <path class="cls-50" d="m114.2,157.34c-.39-1.46-.26-3.16.75-3.43,1.02-.27,1.98,1.14,2.38,2.6.39,1.46.26,3.16-.75,3.43-1.02.27-1.98-1.14-2.37-2.6Zm2.56-.68c-.42-1.56-1.26-2.37-1.68-2.26-.42.11-.75,1.22-.32,2.79.42,1.56,1.26,2.37,1.68,2.25.42-.11.75-1.22.32-2.79Z"/>
          </g>
        </g>
        <g>
          <path class="cls-13" d="m114.91,140.74l1.14-3.92c.28-.96-.86-1.76-2.03-2.09-1.17-.34-2.56-.26-2.84.7l-1.14,3.92,4.87,1.39Z"/>
          <g>
            <path class="cls-53" d="m110.32,139.28c.16-.55,1.27-.72,2.49-.37,1.21.35,2.06,1.08,1.91,1.63-.16.55-1.27.72-2.49.37-1.21-.34-2.07-1.07-1.91-1.63Z"/>
            <path class="cls-50" d="m112.87,138.69c1.16.33,2.27,1.11,2.04,1.9-.23.79-1.58.87-2.75.54-1.16-.33-2.27-1.11-2.04-1.9.23-.79,1.59-.87,2.75-.54Zm-.58,2c1.24.35,2.13.12,2.22-.21.1-.33-.53-1-1.77-1.35-1.24-.36-2.13-.12-2.23.21-.1.32.53,1,1.77,1.35Z"/>
          </g>
        </g>
        <g>
          <path class="cls-56" d="m132.31,136.84c.53,1.29-.1,2.76-1.4,3.28-1.3.52-2.78-.09-3.31-1.39-.53-1.29.1-2.76,1.4-3.28,1.3-.52,2.78.1,3.31,1.39Z"/>
          <path class="cls-50" d="m131.2,140.83c-1.69.68-3.62-.13-4.3-1.8-.69-1.67.13-3.59,1.82-4.27,1.69-.68,3.62.13,4.3,1.8.69,1.67-.13,3.59-1.82,4.27Zm-1.91-4.67c-.91.37-1.35,1.4-.98,2.3.37.9,1.41,1.34,2.32.97.91-.37,1.35-1.4.98-2.3-.37-.9-1.41-1.34-2.32-.97Z"/>
        </g>
        <g>
          <path class="cls-4" d="m113.52,151.25l4.12.3c1.01.07,1.56-1.2,1.65-2.41.09-1.21-.27-2.55-1.28-2.63l-4.12-.3-.37,5.04Z"/>
          <g>
            <path class="cls-48" d="m114.01,146.47c.58.04.98,1.09.89,2.35-.09,1.25-.64,2.24-1.22,2.2-.58-.04-.98-1.09-.88-2.35.09-1.26.64-2.24,1.22-2.2Z"/>
            <path class="cls-64" d="m115.13,148.83c-.09,1.2-.63,2.44-1.46,2.38-.83-.06-1.19-1.37-1.1-2.57.09-1.2.63-2.44,1.46-2.38.83.06,1.19,1.37,1.1,2.57Zm-2.1-.15c-.09,1.28.33,2.11.67,2.13.34.02.88-.73.97-2.01.09-1.28-.33-2.1-.67-2.13-.34-.03-.88.73-.97,2.01Z"/>
          </g>
        </g>
      </g>
      <g>
        <g>
          <path class="cls-6" d="m122.2,167.07l-.94-4.57c-.23-1.12-1.81-1.33-3.18-1.05-1.37.28-2.74,1.09-2.51,2.2l.94,4.57,5.68-1.15Z"/>
          <g>
            <path class="cls-53" d="m116.77,168.01c-.13-.64.91-1.4,2.33-1.68,1.41-.29,2.67,0,2.8.65.13.65-.91,1.4-2.32,1.69-1.41.29-2.67,0-2.8-.65Z"/>
            <path class="cls-50" d="m119.04,166.07c1.35-.28,2.89-.07,3.08.86.19.92-1.14,1.71-2.5,1.99-1.35.27-2.89.07-3.08-.86-.19-.93,1.14-1.71,2.5-1.99Zm.48,2.33c1.45-.29,2.23-1,2.15-1.38-.08-.38-1.08-.73-2.52-.44-1.44.29-2.23,1-2.15,1.38.08.38,1.08.73,2.52.44Z"/>
          </g>
        </g>
        <g>
          <path class="cls-7" d="m121.18,145.96l-1.74,3.24c-.43.79.42,1.71,1.39,2.22.97.51,2.21.71,2.63-.08l1.74-3.24-4.02-2.13Z"/>
          <g>
            <path class="cls-48" d="m124.95,148.1c-.25.46-1.26.4-2.26-.13-1-.53-1.62-1.33-1.37-1.79.25-.46,1.26-.4,2.26.14,1,.53,1.61,1.33,1.37,1.79Z"/>
            <path class="cls-64" d="m122.59,148.14c-.96-.51-1.79-1.4-1.43-2.06.35-.65,1.56-.47,2.52.04.96.51,1.78,1.4,1.43,2.05-.35.65-1.56.47-2.52-.04Zm.89-1.65c-1.02-.54-1.86-.5-2-.23-.15.27.28.98,1.31,1.52,1.02.54,1.85.5,2,.23.14-.27-.28-.98-1.3-1.52Z"/>
          </g>
        </g>
        <g>
          <path class="cls-56" d="m130.49,159.88c-1.01-.97-1.04-2.56-.07-3.56.97-1,2.58-1.03,3.59-.07,1.01.96,1.04,2.56.07,3.56-.97,1-2.58,1.03-3.59.07Z"/>
          <path class="cls-50" d="m129.87,155.79c1.26-1.3,3.36-1.34,4.67-.09,1.31,1.25,1.35,3.33.09,4.63-1.26,1.3-3.36,1.34-4.67.09-1.31-1.25-1.35-3.33-.08-4.63Zm3.66,3.49c.68-.7.66-1.82-.05-2.49-.71-.68-1.83-.65-2.51.05-.68.7-.66,1.82.05,2.49.71.68,1.83.65,2.51-.05Z"/>
        </g>
        <g>
          <path class="cls-5" d="m133.29,145.84l4.04-3.24c.99-.79.4-2.43-.58-3.63-.97-1.19-2.46-2.11-3.45-1.32l-4.04,3.24,4.03,4.94Z"/>
          <g>
            <path class="cls-53" d="m129.6,141.02c.57-.46,1.84.17,2.85,1.41,1,1.23,1.35,2.6.78,3.05-.57.46-1.85-.17-2.85-1.4-1-1.23-1.35-2.6-.78-3.06Z"/>
            <path class="cls-50" d="m132.67,142.25c.96,1.18,1.54,2.78.72,3.43-.82.66-2.28-.24-3.24-1.42-.96-1.18-1.53-2.78-.72-3.44.82-.66,2.27.24,3.23,1.42Zm-2.06,1.65c1.03,1.26,2.12,1.65,2.46,1.39.34-.27.18-1.42-.85-2.68-1.02-1.26-2.12-1.66-2.46-1.38-.34.27-.18,1.42.85,2.68Z"/>
          </g>
        </g>
        <g>
          <path class="cls-3" d="m138.82,157.71l.56,4.04c.14.99,1.5,1.26,2.71,1.09,1.21-.17,2.45-.79,2.31-1.78l-.56-4.04-5.02.69Z"/>
          <g>
            <path class="cls-53" d="m143.61,157.19c.08.57-.87,1.17-2.12,1.34-1.25.17-2.33-.15-2.41-.72-.08-.57.87-1.17,2.12-1.34,1.25-.17,2.33.15,2.41.72Z"/>
            <path class="cls-50" d="m141.52,158.75c-1.19.16-2.53-.1-2.64-.92-.11-.82,1.1-1.43,2.29-1.6,1.2-.16,2.53.1,2.64.92.11.82-1.09,1.43-2.29,1.59Zm-.29-2.06c-1.28.18-2,.75-1.95,1.09.05.34.9.7,2.18.52,1.28-.18,2-.75,1.95-1.09-.05-.34-.9-.7-2.18-.52Z"/>
          </g>
        </g>
        <g>
          <path class="cls-10" d="m126.25,150.03l.56,4.04c.14.99,1.5,1.26,2.71,1.09,1.21-.17,2.45-.79,2.31-1.78l-.56-4.04-5.02.69Z"/>
          <g>
            <path class="cls-53" d="m131.05,149.51c.08.57-.87,1.17-2.12,1.34-1.25.17-2.33-.15-2.41-.72-.08-.57.87-1.17,2.12-1.34,1.25-.17,2.33.15,2.41.72Z"/>
            <path class="cls-50" d="m128.96,151.08c-1.19.16-2.53-.1-2.64-.92-.11-.82,1.09-1.43,2.29-1.6,1.19-.17,2.52.1,2.64.92.11.82-1.1,1.43-2.29,1.59Zm-.29-2.06c-1.28.17-2,.75-1.95,1.09.05.33.9.7,2.18.52,1.28-.18,2-.75,1.95-1.09-.05-.34-.9-.7-2.18-.52Z"/>
          </g>
        </g>
        <g>
          <path class="cls-12" d="m119.32,146.72l-2.41,3.3c-.59.81.21,1.94,1.19,2.65.99.71,2.32,1.11,2.91.3l2.41-3.3-4.1-2.95Z"/>
          <g>
            <path class="cls-53" d="m123.13,149.64c-.34.47-1.44.25-2.46-.49-1.02-.74-1.57-1.71-1.23-2.17.34-.47,1.44-.25,2.47.49,1.02.73,1.57,1.71,1.23,2.17Z"/>
            <path class="cls-50" d="m120.53,149.33c-.98-.71-1.75-1.81-1.26-2.48.49-.67,1.79-.28,2.77.42.98.7,1.75,1.81,1.26,2.47-.49.67-1.79.28-2.76-.42Zm1.23-1.69c-1.04-.75-1.96-.83-2.16-.56-.2.27.16,1.12,1.2,1.87,1.04.75,1.97.83,2.17.55.2-.27-.16-1.12-1.2-1.87Z"/>
          </g>
        </g>
        <g>
          <path class="cls-56" d="m124.52,168.27c-1.01-.97-1.04-2.56-.07-3.56.97-1,2.58-1.03,3.59-.07,1.01.96,1.04,2.56.07,3.56-.97,1-2.58,1.03-3.59.07Z"/>
          <path class="cls-50" d="m123.9,164.19c1.26-1.3,3.36-1.34,4.67-.09,1.31,1.25,1.35,3.33.09,4.63-1.26,1.3-3.36,1.34-4.67.09-1.31-1.25-1.35-3.33-.09-4.63Zm3.66,3.5c.68-.7.66-1.82-.05-2.5-.71-.67-1.83-.65-2.51.05-.68.7-.66,1.82.05,2.49.71.67,1.84.65,2.51-.05Z"/>
        </g>
        <g>
          <path class="cls-8" d="m135.78,147.54l-3.89,1.39c-.95.34-.93,1.73-.52,2.87.42,1.14,1.3,2.22,2.25,1.88l3.88-1.39-1.73-4.75Z"/>
          <g>
            <path class="cls-48" d="m137.29,152.11c-.54.2-1.34-.61-1.77-1.79-.43-1.18-.33-2.3.22-2.5.55-.2,1.34.6,1.77,1.79.43,1.18.33,2.3-.21,2.5Z"/>
            <path class="cls-64" d="m135.31,150.4c-.41-1.13-.42-2.49.36-2.77.78-.28,1.64.77,2.06,1.9.41,1.13.42,2.49-.36,2.77-.79.28-1.65-.77-2.06-1.9Zm1.98-.71c-.44-1.21-1.16-1.79-1.48-1.68-.32.12-.51,1.02-.07,2.23.44,1.21,1.16,1.79,1.48,1.67.32-.11.51-1.02.07-2.23Z"/>
          </g>
        </g>
      </g>
      <g>
        <g>
          <path class="cls-11" d="m101.15,154.27l-.94-4.57c-.23-1.12-1.81-1.33-3.18-1.05-1.37.28-2.74,1.08-2.51,2.2l.94,4.57,5.68-1.15Z"/>
          <g>
            <path class="cls-53" d="m95.71,155.2c-.13-.64.91-1.4,2.32-1.69,1.42-.29,2.67,0,2.8.65.13.64-.91,1.4-2.32,1.69-1.42.28-2.67,0-2.8-.65Z"/>
            <path class="cls-50" d="m97.98,153.26c1.35-.27,2.89-.06,3.08.86.19.92-1.14,1.71-2.5,1.99-1.35.27-2.89.07-3.08-.86-.19-.93,1.15-1.71,2.5-1.99Zm.48,2.34c1.45-.29,2.22-1,2.15-1.38-.08-.38-1.08-.73-2.52-.44-1.45.29-2.23,1-2.15,1.38.08.38,1.08.73,2.52.44Z"/>
          </g>
        </g>
        <g>
          <path class="cls-2" d="m100.12,133.15l-1.74,3.23c-.43.79.42,1.7,1.39,2.22.97.51,2.2.71,2.63-.09l1.74-3.24-4.02-2.13Z"/>
          <g>
            <path class="cls-48" d="m103.89,135.29c-.25.46-1.26.4-2.26-.13-1-.53-1.62-1.33-1.37-1.79.24-.46,1.25-.39,2.26.14,1,.53,1.61,1.33,1.37,1.79Z"/>
            <path class="cls-64" d="m101.54,135.34c-.96-.51-1.79-1.4-1.43-2.06.35-.65,1.56-.47,2.52.04.96.51,1.79,1.4,1.43,2.06-.35.65-1.56.47-2.52-.04Zm.89-1.65c-1.02-.54-1.86-.5-2-.23-.15.27.28.98,1.31,1.52,1.02.55,1.85.5,2,.23.15-.27-.28-.98-1.3-1.52Z"/>
          </g>
        </g>
        <g>
          <path class="cls-56" d="m109.43,147.07c-1.01-.96-1.04-2.56-.07-3.56.97-1,2.58-1.03,3.59-.07,1.01.96,1.04,2.56.07,3.56-.97,1-2.58,1.03-3.59.07Z"/>
          <path class="cls-50" d="m108.81,142.99c1.26-1.3,3.36-1.34,4.67-.09,1.31,1.25,1.35,3.33.09,4.63-1.26,1.3-3.36,1.34-4.67.09-1.31-1.25-1.35-3.33-.09-4.63Zm3.66,3.49c.68-.7.66-1.82-.04-2.49-.71-.68-1.84-.65-2.52.05-.68.7-.66,1.82.05,2.49.71.68,1.83.65,2.51-.05Z"/>
        </g>
        <g>
          <path class="cls-9" d="m112.23,133.03l4.04-3.24c.99-.79.39-2.43-.57-3.62-.97-1.19-2.46-2.11-3.45-1.32l-4.04,3.24,4.02,4.94Z"/>
          <g>
            <path class="cls-53" d="m108.54,128.22c.57-.45,1.84.17,2.84,1.4,1,1.23,1.35,2.6.78,3.05-.57.46-1.84-.17-2.84-1.4-1-1.23-1.36-2.6-.78-3.06Z"/>
            <path class="cls-50" d="m111.62,129.44c.96,1.18,1.54,2.78.72,3.43-.82.65-2.27-.24-3.23-1.42-.96-1.18-1.54-2.78-.72-3.44.81-.65,2.27.24,3.23,1.42Zm-2.06,1.65c1.02,1.26,2.12,1.65,2.46,1.39.34-.27.18-1.42-.85-2.68-1.03-1.26-2.12-1.65-2.46-1.38-.34.27-.17,1.42.85,2.68Z"/>
          </g>
        </g>
        <g>
          <path class="cls-34" d="m117.76,144.9l.56,4.04c.14.99,1.5,1.26,2.71,1.09,1.21-.17,2.45-.79,2.31-1.78l-.56-4.04-5.02.69Z"/>
          <g>
            <path class="cls-53" d="m122.55,144.38c.08.57-.87,1.17-2.12,1.34-1.25.17-2.33-.15-2.41-.72-.08-.57.87-1.17,2.12-1.34,1.25-.17,2.33.15,2.41.72Z"/>
            <path class="cls-50" d="m120.46,145.95c-1.2.16-2.53-.1-2.64-.92-.11-.82,1.09-1.43,2.29-1.6,1.2-.16,2.53.1,2.64.92.11.82-1.09,1.43-2.29,1.6Zm-.29-2.06c-1.28.18-2,.75-1.95,1.09.05.34.9.7,2.18.52,1.28-.18,2-.75,1.95-1.09-.05-.34-.9-.7-2.17-.52Z"/>
          </g>
        </g>
        <g>
          <path class="cls-35" d="m105.2,137.22l.56,4.04c.14.99,1.5,1.26,2.71,1.09,1.21-.17,2.45-.79,2.31-1.78l-.56-4.04-5.02.69Z"/>
          <g>
            <path class="cls-53" d="m109.99,136.7c.08.57-.87,1.17-2.12,1.34-1.25.17-2.33-.15-2.41-.72-.08-.57.87-1.17,2.12-1.34,1.25-.17,2.33.15,2.41.72Z"/>
            <path class="cls-50" d="m107.9,138.27c-1.19.16-2.53-.1-2.64-.92-.11-.82,1.1-1.43,2.29-1.6,1.2-.16,2.53.1,2.64.92.11.82-1.09,1.43-2.29,1.59Zm-.29-2.06c-1.28.18-2,.75-1.95,1.09.05.34.9.7,2.18.52,1.28-.18,2-.75,1.95-1.09-.05-.33-.9-.7-2.18-.52Z"/>
          </g>
        </g>
        <g>
          <path class="cls-32" d="m98.26,133.91l-2.42,3.3c-.59.81.21,1.94,1.19,2.65.99.71,2.32,1.11,2.91.3l2.41-3.3-4.1-2.95Z"/>
          <g>
            <path class="cls-53" d="m102.08,136.83c-.34.47-1.45.25-2.47-.49-1.02-.73-1.57-1.71-1.23-2.17.34-.47,1.44-.25,2.47.49,1.02.74,1.58,1.71,1.23,2.17Z"/>
            <path class="cls-50" d="m99.47,136.53c-.98-.7-1.75-1.81-1.26-2.48.49-.67,1.79-.28,2.77.42.98.7,1.75,1.81,1.26,2.48-.49.67-1.79.28-2.77-.42Zm1.23-1.69c-1.04-.75-1.96-.83-2.17-.56-.2.28.16,1.12,1.2,1.87,1.04.75,1.97.83,2.17.56.2-.28-.16-1.12-1.2-1.87Z"/>
          </g>
        </g>
        <g>
          <path class="cls-56" d="m103.46,155.47c-1.01-.97-1.04-2.56-.07-3.56.97-1,2.58-1.03,3.59-.07,1.01.97,1.04,2.56.07,3.56-.97,1-2.58,1.03-3.59.07Z"/>
          <path class="cls-50" d="m102.84,151.38c1.26-1.3,3.36-1.34,4.67-.09,1.31,1.25,1.35,3.33.09,4.63-1.26,1.3-3.36,1.34-4.67.09-1.31-1.25-1.35-3.33-.09-4.63Zm3.66,3.5c.68-.7.66-1.82-.05-2.5-.71-.68-1.83-.65-2.52.04-.68.7-.66,1.82.05,2.5.71.68,1.83.65,2.51-.05Z"/>
        </g>
        <g>
          <path class="cls-33" d="m114.73,134.73l-3.89,1.39c-.95.34-.93,1.73-.52,2.87.42,1.15,1.3,2.22,2.25,1.88l3.88-1.39-1.73-4.75Z"/>
          <g>
            <path class="cls-48" d="m116.23,139.3c-.55.19-1.34-.61-1.77-1.79-.43-1.19-.33-2.3.21-2.5.55-.2,1.34.6,1.77,1.79.43,1.18.33,2.3-.22,2.5Z"/>
            <path class="cls-64" d="m114.25,137.59c-.41-1.13-.42-2.48.36-2.77.79-.28,1.65.77,2.06,1.9.41,1.13.42,2.49-.36,2.77-.78.28-1.64-.77-2.06-1.9Zm1.99-.71c-.44-1.21-1.16-1.79-1.48-1.68-.32.12-.51,1.02-.07,2.23.44,1.21,1.16,1.79,1.48,1.67.33-.11.51-1.02.07-2.23Z"/>
          </g>
        </g>
      </g>
    </g>
  </g>
</svg>