<?xml version="1.0" encoding="utf-8"?>
<!-- Generator: Adobe Illustrator 27.9.0, SVG Export Plug-In . SVG Version: 6.00 Build 0)  -->
<svg version="1.1" id="Layer_1" xmlns="http://www.w3.org/2000/svg" xmlns:xlink="http://www.w3.org/1999/xlink" x="0px" y="0px"
	 viewBox="0 0 95.68 96.22" style="enable-background:new 0 0 95.68 96.22;" xml:space="preserve">
<style type="text/css">
	.st0{fill-rule:evenodd;clip-rule:evenodd;fill:#F4F5F7;}
	.st1{fill-rule:evenodd;clip-rule:evenodd;fill:#E3E4E9;}
	.st2{fill-rule:evenodd;clip-rule:evenodd;fill:#FF6224;}
	.st3{fill-rule:evenodd;clip-rule:evenodd;fill:#ED4605;}
	.st4{fill-rule:evenodd;clip-rule:evenodd;fill:#A60603;}
	.st5{fill-rule:evenodd;clip-rule:evenodd;fill:#865334;}
	.st6{fill:#BD8F4F;}
	.st7{fill:#CEA265;}
	.st8{fill-rule:evenodd;clip-rule:evenodd;fill:#A66A44;}
	.st9{fill-rule:evenodd;clip-rule:evenodd;fill:#542E17;}
	.st10{fill-rule:evenodd;clip-rule:evenodd;fill:#663B20;}
	.st11{fill:#519A48;}
	.st12{fill-rule:evenodd;clip-rule:evenodd;fill:#F5DEB6;}
	.st13{fill:#FFF3DA;}
	.st14{fill:#FA692F;}
	.st15{fill:#EFD05C;}
	.st16{fill-rule:evenodd;clip-rule:evenodd;fill:#2E2D33;}
	.st17{fill-rule:evenodd;clip-rule:evenodd;fill:#4D4C52;}
	.st18{fill-rule:evenodd;clip-rule:evenodd;fill:#828287;}
	.st19{fill-rule:evenodd;clip-rule:evenodd;fill:#D23508;}
	.st20{fill-rule:evenodd;clip-rule:evenodd;fill:#BA2D06;}
	.st21{fill-rule:evenodd;clip-rule:evenodd;fill:#B52E1A;}
	.st22{fill-rule:evenodd;clip-rule:evenodd;fill:#E69B4C;}
	.st23{fill-rule:evenodd;clip-rule:evenodd;fill:#EB7538;}
	.st24{fill-rule:evenodd;clip-rule:evenodd;fill:#DB662C;}
	.st25{fill-rule:evenodd;clip-rule:evenodd;fill:#66666B;}
	.st26{fill-rule:evenodd;clip-rule:evenodd;fill:#DB5128;}
	.st27{fill-rule:evenodd;clip-rule:evenodd;fill:#F7B268;}
	.st28{fill-rule:evenodd;clip-rule:evenodd;fill:#CC3D26;}
	.st29{fill-rule:evenodd;clip-rule:evenodd;fill:#D9B685;}
	.st30{fill-rule:evenodd;clip-rule:evenodd;fill:#FFECD1;}
	.st31{fill-rule:evenodd;clip-rule:evenodd;fill:#358541;}
	.st32{fill-rule:evenodd;clip-rule:evenodd;fill:#26632F;}
	.st33{fill-rule:evenodd;clip-rule:evenodd;fill:#FFCCB5;}
	.st34{fill-rule:evenodd;clip-rule:evenodd;fill:#F2B922;}
	.st35{fill-rule:evenodd;clip-rule:evenodd;fill:#F3CD2E;}
	.st36{fill-rule:evenodd;clip-rule:evenodd;fill:#FAF19B;}
	.st37{fill-rule:evenodd;clip-rule:evenodd;fill:#F3FFD9;}
	.st38{fill-rule:evenodd;clip-rule:evenodd;fill:#D1E3AA;}
	.st39{fill-rule:evenodd;clip-rule:evenodd;fill:#85522E;}
	.st40{fill-rule:evenodd;clip-rule:evenodd;fill:#C77B45;}
	.st41{fill-rule:evenodd;clip-rule:evenodd;fill:#A36539;}
	.st42{fill-rule:evenodd;clip-rule:evenodd;}
	.st43{fill-rule:evenodd;clip-rule:evenodd;fill:#C7C7C9;}
	.st44{fill-rule:evenodd;clip-rule:evenodd;fill:#99441D;}
	.st45{fill-rule:evenodd;clip-rule:evenodd;fill:#6B2605;}
	.st46{fill-rule:evenodd;clip-rule:evenodd;fill:#AD5025;}
	.st47{fill-rule:evenodd;clip-rule:evenodd;fill:#C75925;}
	.st48{fill-rule:evenodd;clip-rule:evenodd;fill:#B5582D;}
	.st49{fill-rule:evenodd;clip-rule:evenodd;fill:#519A48;}
	.st50{fill-rule:evenodd;clip-rule:evenodd;fill:#FBD5B0;}
	.st51{fill:#E8BC90;}
	.st52{fill-rule:evenodd;clip-rule:evenodd;fill:#7A3312;}
	.st53{fill-rule:evenodd;clip-rule:evenodd;fill:#FA7D44;}
	.st54{fill-rule:evenodd;clip-rule:evenodd;fill:#FCE38F;}
	.st55{fill-rule:evenodd;clip-rule:evenodd;fill:#464AA6;}
	.st56{fill-rule:evenodd;clip-rule:evenodd;fill:#00C36C;}
	.st57{fill-rule:evenodd;clip-rule:evenodd;fill:#006B43;}
	.st58{fill-rule:evenodd;clip-rule:evenodd;fill:#C5C6C9;}
	.st59{fill-rule:evenodd;clip-rule:evenodd;fill:#FFC250;}
	.st60{fill-rule:evenodd;clip-rule:evenodd;fill:#FFD177;}
	.st61{fill:#FFE7B8;}
	.st62{fill-rule:evenodd;clip-rule:evenodd;fill:#3A3940;}
	.st63{fill-rule:evenodd;clip-rule:evenodd;fill:#F7C35B;}
	.st64{fill-rule:evenodd;clip-rule:evenodd;fill:#BF9A76;}
	.st65{fill-rule:evenodd;clip-rule:evenodd;fill:#452508;}
	.st66{fill-rule:evenodd;clip-rule:evenodd;fill:#BF8B24;}
	.st67{fill-rule:evenodd;clip-rule:evenodd;fill:#C44918;}
	.st68{fill-rule:evenodd;clip-rule:evenodd;fill:#E6AC37;}
	.st69{fill-rule:evenodd;clip-rule:evenodd;fill:#522C0B;}
	.st70{fill-rule:evenodd;clip-rule:evenodd;fill:#E6551C;}
	.st71{fill-rule:evenodd;clip-rule:evenodd;fill:#EDD4A1;}
	.st72{fill-rule:evenodd;clip-rule:evenodd;fill:#784212;}
	.st73{fill-rule:evenodd;clip-rule:evenodd;fill:#F77745;}
	.st74{fill-rule:evenodd;clip-rule:evenodd;fill:#66380F;}
	.st75{fill-rule:evenodd;clip-rule:evenodd;fill:#995B25;}
	.st76{fill-rule:evenodd;clip-rule:evenodd;fill:#FF4F0C;}
	.st77{fill-rule:evenodd;clip-rule:evenodd;fill:#FAD58C;}
	.st78{fill-rule:evenodd;clip-rule:evenodd;fill:#FFF3DA;}
	.st79{fill-rule:evenodd;clip-rule:evenodd;fill:#D3D4D6;}
	.st80{fill-rule:evenodd;clip-rule:evenodd;fill:#EEF5FB;}
	.st81{fill-rule:evenodd;clip-rule:evenodd;fill:#DAE3EB;}
	.st82{fill-rule:evenodd;clip-rule:evenodd;fill:#C8CED4;}
	.st83{fill-rule:evenodd;clip-rule:evenodd;fill:#CAD3DB;}
	.st84{fill-rule:evenodd;clip-rule:evenodd;fill:#FDD657;}
	.st85{fill-rule:evenodd;clip-rule:evenodd;fill:#F0C330;}
	.st86{fill-rule:evenodd;clip-rule:evenodd;fill:#315E38;}
	.st87{fill-rule:evenodd;clip-rule:evenodd;fill:#99AE4C;}
	.st88{fill-rule:evenodd;clip-rule:evenodd;fill:#D6E0E8;}
	.st89{fill-rule:evenodd;clip-rule:evenodd;fill:#FFD6C7;}
	.st90{fill-rule:evenodd;clip-rule:evenodd;fill:#BD7E18;}
	.st91{fill-rule:evenodd;clip-rule:evenodd;fill:#D5962F;}
	.st92{fill-rule:evenodd;clip-rule:evenodd;fill:#E6A947;}
	.st93{fill-rule:evenodd;clip-rule:evenodd;fill:#EDB356;}
	.st94{fill-rule:evenodd;clip-rule:evenodd;fill:#DBB97F;}
	.st95{fill-rule:evenodd;clip-rule:evenodd;fill:#EACB97;}
	.st96{fill-rule:evenodd;clip-rule:evenodd;fill:#E3BF81;}
	.st97{fill:#333333;}
	.st98{fill-rule:evenodd;clip-rule:evenodd;fill:#754528;}
	.st99{fill:#242323;}
	.st100{fill-rule:evenodd;clip-rule:evenodd;fill:#E3E4E6;}
	.st101{fill-rule:evenodd;clip-rule:evenodd;fill:#FC8A31;}
	.st102{fill-rule:evenodd;clip-rule:evenodd;fill:#E67017;}
	.st103{fill-rule:evenodd;clip-rule:evenodd;fill:#6BBA61;}
	.st104{fill-rule:evenodd;clip-rule:evenodd;fill:#FCAB6D;}
	.st105{fill-rule:evenodd;clip-rule:evenodd;fill:#FFBE8C;}
	.st106{fill:#006B43;}
	.st107{fill-rule:evenodd;clip-rule:evenodd;fill:#FA692F;}
	.st108{fill-rule:evenodd;clip-rule:evenodd;fill:#9E3E03;}
	.st109{fill-rule:evenodd;clip-rule:evenodd;fill:#C27100;}
	.st110{fill-rule:evenodd;clip-rule:evenodd;fill:#B34602;}
	.st111{fill-rule:evenodd;clip-rule:evenodd;fill:#D68007;}
	.st112{fill-rule:evenodd;clip-rule:evenodd;fill:#FDFEFF;}
	.st113{fill-rule:evenodd;clip-rule:evenodd;fill:#A66805;}
	.st114{fill-rule:evenodd;clip-rule:evenodd;fill:#CC4F00;}
	.st115{fill-rule:evenodd;clip-rule:evenodd;fill:#E68B09;}
	.st116{fill-rule:evenodd;clip-rule:evenodd;fill:#123618;}
	.st117{fill-rule:evenodd;clip-rule:evenodd;fill:#1C4622;}
	.st118{fill:#1C4622;}
	.st119{fill:#315E38;}
	.st120{fill-rule:evenodd;clip-rule:evenodd;fill:#D7D7DB;}
	.st121{fill-rule:evenodd;clip-rule:evenodd;fill:#FFFFFF;}
	.st122{fill-rule:evenodd;clip-rule:evenodd;fill:#C8CAC9;}
	.st123{fill-rule:evenodd;clip-rule:evenodd;fill:#B3B0A9;}
	.st124{fill-rule:evenodd;clip-rule:evenodd;fill:#E8DFE0;}
	.st125{fill-rule:evenodd;clip-rule:evenodd;fill:#AD8F8C;}
	.st126{fill-rule:evenodd;clip-rule:evenodd;fill:#BE9F9C;}
	.st127{fill-rule:evenodd;clip-rule:evenodd;fill:#5E4830;}
	.st128{fill:#96735A;}
	.st129{fill:#AD866B;}
	.st130{fill:#C5A189;}
	.st131{fill-rule:evenodd;clip-rule:evenodd;fill:#69523A;}
	.st132{fill-rule:evenodd;clip-rule:evenodd;fill:#DBDBDB;}
	.st133{fill-rule:evenodd;clip-rule:evenodd;fill:#F2F2F2;}
	.st134{fill-rule:evenodd;clip-rule:evenodd;fill:#6F952E;}
	.st135{fill-rule:evenodd;clip-rule:evenodd;fill:#D4E2A5;}
	.st136{fill-rule:evenodd;clip-rule:evenodd;fill:#C8D384;}
	.st137{fill-rule:evenodd;clip-rule:evenodd;fill:#F8FDFF;}
	.st138{fill-rule:evenodd;clip-rule:evenodd;fill:#F7D981;}
	.st139{fill-rule:evenodd;clip-rule:evenodd;fill:#FDE396;}
	.st140{fill-rule:evenodd;clip-rule:evenodd;fill:#E7A96E;}
	.st141{fill-rule:evenodd;clip-rule:evenodd;fill:#BA7E47;}
	.st142{fill:#FFFFFF;}
	.st143{fill-rule:evenodd;clip-rule:evenodd;fill:#C5A189;}
	.st144{fill-rule:evenodd;clip-rule:evenodd;fill:#951806;}
	.st145{fill-rule:evenodd;clip-rule:evenodd;fill:#801303;}
	.st146{fill-rule:evenodd;clip-rule:evenodd;fill:#D4510D;}
	.st147{fill-rule:evenodd;clip-rule:evenodd;fill:#E6C18A;}
	.st148{fill-rule:evenodd;clip-rule:evenodd;fill:#D59D5E;}
	.st149{fill-rule:evenodd;clip-rule:evenodd;fill:#D47507;}
	.st150{fill-rule:evenodd;clip-rule:evenodd;fill:#E38D2B;}
	.st151{fill-rule:evenodd;clip-rule:evenodd;fill:#BD6704;}
	.st152{fill-rule:evenodd;clip-rule:evenodd;fill:#E8891C;}
	.st153{fill-rule:evenodd;clip-rule:evenodd;fill:#D56400;}
	.st154{fill-rule:evenodd;clip-rule:evenodd;fill:#E6844E;}
	.st155{fill-rule:evenodd;clip-rule:evenodd;fill:#F1E2BB;}
	.st156{fill:#A33803;}
	.st157{fill-rule:evenodd;clip-rule:evenodd;fill:#A33803;}
	.st158{fill-rule:evenodd;clip-rule:evenodd;fill:#B54306;}
	.st159{fill-rule:evenodd;clip-rule:evenodd;fill:#EA6321;}
	.st160{fill-rule:evenodd;clip-rule:evenodd;fill:#821909;}
	.st161{fill-rule:evenodd;clip-rule:evenodd;fill:#C44B0E;}
	.st162{fill-rule:evenodd;clip-rule:evenodd;fill:#B3320E;}
	.st163{fill-rule:evenodd;clip-rule:evenodd;fill:#BA874D;}
	.st164{fill-rule:evenodd;clip-rule:evenodd;fill:#6F351B;}
	.st165{fill-rule:evenodd;clip-rule:evenodd;fill:#5C2C15;}
	.st166{fill-rule:evenodd;clip-rule:evenodd;fill:#FA8950;}
	.st167{fill-rule:evenodd;clip-rule:evenodd;fill:#5E401D;}
	.st168{fill:#D59D5E;}
	.st169{fill:#BA874D;}
	.st170{fill:#E4C292;}
	.st171{fill:#EA6321;}
	.st172{fill:#FA8950;}
	.st173{fill-rule:evenodd;clip-rule:evenodd;fill:#8C5B34;}
	.st174{fill:#CF9470;}
	.st175{fill-rule:evenodd;clip-rule:evenodd;fill:#AA7448;}
	.st176{fill:#EFB795;}
	.st177{fill-rule:evenodd;clip-rule:evenodd;fill:#C9D98B;}
	.st178{fill-rule:evenodd;clip-rule:evenodd;fill:#93B04A;}
	.st179{fill-rule:evenodd;clip-rule:evenodd;fill:#D1E18E;}
	.st180{fill-rule:evenodd;clip-rule:evenodd;fill:#ABCB5C;}
	.st181{fill-rule:evenodd;clip-rule:evenodd;fill:#F0DEAD;}
	.st182{fill-rule:evenodd;clip-rule:evenodd;fill:#DEBA59;}
	.st183{fill-rule:evenodd;clip-rule:evenodd;fill:#E6D3A1;}
	.st184{fill-rule:evenodd;clip-rule:evenodd;fill:#FFF3D3;}
	.st185{fill-rule:evenodd;clip-rule:evenodd;fill:#F7D474;}
	.st186{fill-rule:evenodd;clip-rule:evenodd;fill:#A86046;}
	.st187{fill-rule:evenodd;clip-rule:evenodd;fill:#CF0200;}
	.st188{fill-rule:evenodd;clip-rule:evenodd;fill:#FF2D29;}
	.st189{fill-rule:evenodd;clip-rule:evenodd;fill:#43983E;}
	.st190{fill-rule:evenodd;clip-rule:evenodd;fill:#136B29;}
	.st191{fill-rule:evenodd;clip-rule:evenodd;fill:#D1E694;}
	.st192{fill-rule:evenodd;clip-rule:evenodd;fill:#218239;}
	.st193{fill-rule:evenodd;clip-rule:evenodd;fill:#035C3B;}
	.st194{fill-rule:evenodd;clip-rule:evenodd;fill:#54A051;}
	.st195{fill-rule:evenodd;clip-rule:evenodd;fill:#FFCBA3;}
	.st196{fill-rule:evenodd;clip-rule:evenodd;fill:#EB9350;}
	.st197{fill:#EB9350;}
	.st198{fill-rule:evenodd;clip-rule:evenodd;fill:#BDBDBB;}
	.st199{fill-rule:evenodd;clip-rule:evenodd;fill:#A15E23;}
</style>
<path class="st100" d="M63.88,2.8c24.88,8.91,37.87,36.42,29.01,61.44c-8.86,25.02-36.21,38.09-61.1,29.17
	C6.91,84.51-6.08,57,2.78,31.97C11.64,6.95,39-6.11,63.88,2.8L63.88,2.8z"/>
<path class="st80" d="M63.3,4.45c23.98,8.59,36.49,35.09,27.95,59.2c-8.54,24.11-34.9,36.7-58.87,28.11
	C8.4,83.18-4.11,56.67,4.43,32.56C12.96,8.45,39.32-4.14,63.3,4.45L63.3,4.45z"/>
<path class="st81" d="M59.73,14.54c18.44,6.6,28.06,26.98,21.49,45.52C74.65,78.6,54.39,88.28,35.95,81.68
	c-18.44-6.6-28.06-26.98-21.49-45.52C21.02,17.62,41.29,7.94,59.73,14.54L59.73,14.54z"/>
<path class="st83" d="M59.73,14.54c4.15,1.49,7.85,3.67,11.02,6.37c-2.33-1.54-4.87-2.83-7.61-3.81
	c-18.44-6.6-38.7,3.08-45.27,21.62c-5.09,14.37-0.45,29.84,10.47,39.15C15.02,69.05,8.87,51.94,14.46,36.16
	C21.02,17.62,41.29,7.94,59.73,14.54L59.73,14.54z"/>
<path class="st108" d="M75.37,31.71c0.49,0.98,0.86,1.95,1.08,2.86c1.37,5.66,1.45,17.87-8.85,22.56
	c-10.29,4.69-22.03,1.78-28.47-8.01c-1.88-2.86-2.64-5.97-2.69-8.98c1.66,3.9,4.37,8.44,8.52,10.86c8.2,4.77,13.19,4.77,19.06,2.83
	c5.87-1.94,9.41-6.31,10.37-10.76C74.93,40.61,75.22,35.64,75.37,31.71L75.37,31.71z"/>
<path class="st109" d="M42.47,23c0,0,7.56-5.98,16.49-4.93c8.93,1.05,15.92,8.9,17.29,14.56c1.37,5.66,1.45,17.87-8.85,22.56
	c-10.29,4.69-22.04,1.78-28.47-8.01C32.5,37.4,39.18,24.78,42.47,23L42.47,23z M57.58,36.2c0.95,0,1.72,0.77,1.72,1.73
	s-0.77,1.73-1.72,1.73c-0.95,0-1.72-0.77-1.72-1.73S56.63,36.2,57.58,36.2L57.58,36.2z M45.85,27.28c0.91-1.12,3.1-0.84,4.89,0.62
	c1.79,1.47,2.5,3.57,1.59,4.7c-0.91,1.12-3.1,0.84-4.89-0.62C45.64,30.5,44.93,28.4,45.85,27.28L45.85,27.28z M58.86,21.85
	c1.44,0,2.61,1.88,2.61,4.21s-1.17,4.21-2.61,4.21c-1.44,0-2.61-1.88-2.61-4.21S57.41,21.85,58.86,21.85L58.86,21.85z M70.57,27.68
	c1.04,1.01,0.58,3.18-1.03,4.85c-1.61,1.67-3.75,2.2-4.79,1.2c-1.04-1.01-0.58-3.18,1.03-4.85C67.39,27.21,69.53,26.67,70.57,27.68
	L70.57,27.68z M72.75,42.53c-0.53,1.35-2.71,1.75-4.85,0.89c-2.15-0.86-3.45-2.65-2.92-4c0.53-1.35,2.71-1.75,4.85-0.89
	C71.98,39.39,73.29,41.18,72.75,42.53L72.75,42.53z M65.93,51.77c-1.15,0.88-3.21,0.09-4.61-1.76c-1.4-1.85-1.59-4.06-0.44-4.94
	c1.15-0.88,3.21-0.09,4.61,1.76C66.88,48.68,67.08,50.89,65.93,51.77L65.93,51.77z M50.13,52.17c-1.23-0.75-1.26-2.97-0.06-4.96
	c1.2-1.98,3.17-2.98,4.41-2.23c1.23,0.75,1.26,2.97,0.06,4.96C53.34,51.93,51.36,52.93,50.13,52.17L50.13,52.17z M41.75,38.96
	c0.16-1.44,2.16-2.4,4.45-2.13c2.29,0.26,4.02,1.65,3.86,3.09c-0.16,1.44-2.16,2.4-4.45,2.13C43.32,41.79,41.59,40.4,41.75,38.96
	L41.75,38.96z"/>
<path class="st108" d="M57.52,35.13c0.95,0,1.72,0.77,1.72,1.73c0,0.15-0.02,0.3-0.06,0.45c-0.25-0.65-0.87-1.1-1.6-1.1
	c-0.8,0-1.47,0.54-1.66,1.28c-0.07-0.19-0.12-0.4-0.12-0.63C55.8,35.9,56.57,35.13,57.52,35.13L57.52,35.13z M45.79,26.2
	c0.91-1.12,3.1-0.84,4.89,0.62c1.41,1.16,2.15,2.7,1.95,3.86c-0.23-0.94-0.89-1.96-1.9-2.79c-1.79-1.47-3.98-1.75-4.89-0.62
	c-0.2,0.24-0.32,0.53-0.37,0.84C45.3,27.38,45.39,26.7,45.79,26.2L45.79,26.2z M58.8,20.78c1.44,0,2.61,1.88,2.61,4.21
	c0,0.06,0,0.11,0,0.17c-0.26-1.89-1.3-3.3-2.55-3.3c-1.41,0-2.56,1.79-2.61,4.04c-0.04-0.29-0.06-0.59-0.06-0.9
	C56.18,22.66,57.35,20.78,58.8,20.78L58.8,20.78z M70.51,26.61c0.46,0.45,0.63,1.12,0.53,1.88c-0.09-0.31-0.24-0.59-0.47-0.81
	c-1.04-1.01-3.18-0.47-4.79,1.2c-0.89,0.93-1.43,2.01-1.56,2.97c-0.31-1.12,0.24-2.74,1.5-4.04C67.33,26.14,69.47,25.6,70.51,26.61
	L70.51,26.61z M64.91,39.64c-0.14-0.45-0.15-0.89,0.01-1.29c0.53-1.35,2.71-1.75,4.85-0.89c2.03,0.81,3.31,2.46,2.99,3.78
	c-0.33-1.04-1.43-2.1-2.93-2.71c-2.15-0.86-4.32-0.46-4.85,0.89C64.95,39.49,64.93,39.57,64.91,39.64L64.91,39.64z M60.14,46.51
	c-0.2-1.07,0.01-2.02,0.67-2.52c1.15-0.88,3.21-0.09,4.61,1.76c0.88,1.16,1.28,2.46,1.18,3.49c-0.15-0.78-0.53-1.63-1.12-2.42
	c-1.4-1.85-3.46-2.64-4.61-1.76C60.44,45.39,60.2,45.9,60.14,46.51L60.14,46.51z M49.2,49.76c-0.22-1.01,0.05-2.36,0.81-3.62
	c1.2-1.98,3.17-2.98,4.41-2.23c0.71,0.43,1.02,1.34,0.93,2.42c-0.13-0.59-0.42-1.07-0.87-1.34c-1.23-0.75-3.21,0.24-4.41,2.23
	C49.56,48.06,49.27,48.95,49.2,49.76L49.2,49.76z M41.7,37.89c0.16-1.44,2.16-2.4,4.45-2.13c2.29,0.26,4.02,1.65,3.86,3.09
	c-0.01,0.09-0.03,0.17-0.05,0.25c-0.42-1.11-1.9-2.06-3.75-2.27c-2.16-0.25-4.05,0.58-4.4,1.88C41.7,38.44,41.66,38.17,41.7,37.89
	L41.7,37.89z"/>
<path class="st110" d="M68.54,54.84c0.49,0.98,0.86,1.95,1.08,2.86c1.37,5.66,1.45,17.87-8.85,22.56
	c-10.29,4.69-22.04,1.78-28.47-8.01c-1.88-2.86-2.64-5.97-2.69-8.98c1.66,3.9,4.37,8.44,8.52,10.86c8.2,4.77,13.19,4.77,19.06,2.83
	c5.87-1.94,9.41-6.31,10.37-10.76C68.11,63.74,68.39,58.77,68.54,54.84L68.54,54.84z"/>
<path class="st111" d="M35.65,46.14c0,0,7.56-5.99,16.49-4.93c8.93,1.05,15.92,8.9,17.29,14.56c1.37,5.66,1.45,17.87-8.85,22.56
	c-10.29,4.69-22.04,1.78-28.47-8.01C25.67,60.53,32.35,47.92,35.65,46.14L35.65,46.14z M50.75,59.33c0.95,0,1.72,0.77,1.72,1.73
	c0,0.95-0.77,1.73-1.72,1.73c-0.95,0-1.72-0.77-1.72-1.73C49.03,60.11,49.8,59.33,50.75,59.33L50.75,59.33z M39.02,50.41
	c0.91-1.12,3.1-0.84,4.89,0.62c1.79,1.47,2.5,3.57,1.59,4.7c-0.91,1.12-3.1,0.84-4.89-0.62C38.82,53.64,38.11,51.54,39.02,50.41
	L39.02,50.41z M52.03,44.99c1.44,0,2.61,1.88,2.61,4.21c0,2.32-1.17,4.21-2.61,4.21c-1.44,0-2.61-1.88-2.61-4.21
	C49.42,46.87,50.59,44.99,52.03,44.99L52.03,44.99z M63.74,50.82c1.04,1.01,0.58,3.18-1.03,4.85c-1.61,1.67-3.75,2.2-4.79,1.2
	c-1.04-1.01-0.58-3.18,1.03-4.85C60.56,50.34,62.7,49.81,63.74,50.82L63.74,50.82z M65.93,65.67c-0.53,1.35-2.71,1.75-4.85,0.89
	c-2.15-0.86-3.45-2.65-2.92-4c0.53-1.35,2.71-1.75,4.85-0.89C65.15,62.53,66.46,64.32,65.93,65.67L65.93,65.67z M59.1,74.9
	c-1.15,0.88-3.21,0.09-4.61-1.76c-1.4-1.85-1.59-4.06-0.44-4.94c1.15-0.88,3.21-0.09,4.61,1.76C60.05,71.81,60.25,74.03,59.1,74.9
	L59.1,74.9z M43.3,75.31c-1.23-0.75-1.26-2.97-0.06-4.96c1.2-1.98,3.17-2.98,4.41-2.23c1.23,0.75,1.26,2.97,0.06,4.96
	C46.51,75.06,44.53,76.06,43.3,75.31L43.3,75.31z M34.93,62.1c0.16-1.44,2.16-2.4,4.45-2.13c2.29,0.26,4.02,1.65,3.86,3.09
	c-0.16,1.44-2.16,2.4-4.45,2.13C36.49,64.92,34.76,63.54,34.93,62.1L34.93,62.1z"/>
<path class="st110" d="M50.69,58.26c0.95,0,1.72,0.77,1.72,1.73c0,0.15-0.02,0.3-0.06,0.45c-0.25-0.65-0.87-1.1-1.6-1.1
	c-0.8,0-1.47,0.54-1.66,1.28c-0.07-0.19-0.12-0.4-0.12-0.63C48.97,59.04,49.74,58.26,50.69,58.26L50.69,58.26z M38.96,49.34
	c0.91-1.12,3.1-0.84,4.89,0.62c1.41,1.16,2.15,2.7,1.95,3.86c-0.23-0.94-0.89-1.96-1.9-2.79c-1.79-1.47-3.98-1.75-4.89-0.62
	c-0.2,0.24-0.32,0.53-0.37,0.84C38.47,50.52,38.56,49.83,38.96,49.34L38.96,49.34z M51.97,43.91c1.44,0,2.61,1.88,2.61,4.21
	c0,0.06,0,0.11,0,0.17c-0.26-1.89-1.3-3.3-2.55-3.3c-1.41,0-2.56,1.79-2.61,4.04c-0.04-0.29-0.06-0.59-0.06-0.9
	C49.36,45.8,50.53,43.91,51.97,43.91L51.97,43.91z M63.68,49.75c0.46,0.45,0.62,1.12,0.53,1.88c-0.09-0.31-0.24-0.59-0.47-0.81
	c-1.04-1.01-3.18-0.47-4.79,1.2c-0.89,0.93-1.43,2.01-1.56,2.97c-0.31-1.12,0.24-2.74,1.5-4.04C60.5,49.27,62.65,48.74,63.68,49.75
	L63.68,49.75z M58.09,62.78c-0.14-0.45-0.15-0.89,0.01-1.29c0.53-1.35,2.71-1.75,4.85-0.89c2.03,0.81,3.31,2.46,2.99,3.78
	c-0.33-1.04-1.43-2.1-2.93-2.71c-2.15-0.86-4.32-0.46-4.85,0.89C58.13,62.63,58.1,62.7,58.09,62.78L58.09,62.78z M53.31,69.65
	c-0.2-1.07,0.01-2.02,0.67-2.52c1.15-0.88,3.21-0.09,4.61,1.76c0.88,1.16,1.28,2.46,1.18,3.49c-0.15-0.78-0.53-1.63-1.12-2.42
	c-1.4-1.85-3.46-2.64-4.61-1.76C53.62,68.53,53.38,69.04,53.31,69.65L53.31,69.65z M42.37,72.89c-0.22-1.01,0.05-2.36,0.81-3.62
	c1.2-1.98,3.17-2.98,4.41-2.23c0.71,0.43,1.02,1.34,0.93,2.42c-0.13-0.59-0.42-1.07-0.87-1.34c-1.23-0.75-3.21,0.24-4.41,2.23
	C42.73,71.2,42.44,72.09,42.37,72.89L42.37,72.89z M34.87,61.03c0.16-1.44,2.16-2.4,4.45-2.13c2.29,0.26,4.02,1.65,3.86,3.09
	c-0.01,0.09-0.03,0.17-0.05,0.25c-0.42-1.11-1.9-2.06-3.75-2.27c-2.16-0.25-4.05,0.58-4.4,1.88C34.88,61.58,34.84,61.3,34.87,61.03
	L34.87,61.03z"/>
<path class="st112" d="M42.42,47.53c-2.96-0.8-4.98,1.11-4.68,4.21C36.12,47.57,39.17,45.59,42.42,47.53L42.42,47.53z M47.93,59.8
	c-0.06-2.73,1.72-3.22,3.86-2.14C50.26,57.64,48.59,58.34,47.93,59.8L47.93,59.8z M63.33,48.68c-2.68-0.1-4.98,2.15-6.55,4.04
	C58.11,49.72,59.72,47.51,63.33,48.68L63.33,48.68z"/>
<path class="st113" d="M29.99,66.67c-0.24-1.13-0.36-2.27-0.37-3.39c0.54,1.26,1.18,2.58,1.95,3.88C31.03,67,30.5,66.84,29.99,66.67
	L29.99,66.67z"/>
<path class="st113" d="M35.65,46.14c0,0,7.56-5.98,16.49-4.93c3.51,0.41,6.73,1.88,9.41,3.85c-0.03,1.49-0.15,3.42-0.5,5.52
	c-0.71,0.28-1.45,0.77-2.09,1.44c-1.61,1.67-2.07,3.84-1.03,4.85c0.32,0.31,0.74,0.47,1.21,0.5c-1.73,4.06-4.67,7.83-9.62,9.73
	c-0.83,0.32-1.67,0.58-2.51,0.79c-0.5-0.08-1.07,0.05-1.63,0.34c-5.29,0.92-10.61-0.03-15.01-1.44
	C27.19,57.73,32.73,47.71,35.65,46.14L35.65,46.14z M50.75,59.34c0.95,0,1.72,0.77,1.72,1.73c0,0.96-0.77,1.73-1.72,1.73
	c-0.95,0-1.72-0.77-1.72-1.73C49.03,60.11,49.8,59.34,50.75,59.34L50.75,59.34z M39.02,50.41c0.91-1.12,3.1-0.84,4.89,0.62
	c1.79,1.47,2.5,3.57,1.59,4.7c-0.91,1.12-3.1,0.84-4.89-0.62C38.82,53.64,38.11,51.54,39.02,50.41L39.02,50.41z M52.03,44.99
	c1.44,0,2.61,1.88,2.61,4.21c0,2.32-1.17,4.21-2.61,4.21c-1.44,0-2.61-1.88-2.61-4.21C49.42,46.87,50.59,44.99,52.03,44.99
	L52.03,44.99z M34.93,62.1c0.16-1.44,2.16-2.4,4.45-2.13c2.3,0.26,4.02,1.65,3.86,3.09c-0.16,1.44-2.16,2.4-4.45,2.13
	C36.49,64.92,34.76,63.54,34.93,62.1L34.93,62.1z"/>
<path class="st113" d="M50.69,58.26c0.95,0,1.72,0.77,1.72,1.73c0,0.15-0.02,0.3-0.06,0.45c-0.25-0.65-0.87-1.1-1.6-1.1
	c-0.8,0-1.47,0.54-1.66,1.28c-0.07-0.19-0.12-0.4-0.12-0.62C48.97,59.04,49.74,58.26,50.69,58.26L50.69,58.26z M61.22,49.42
	c-0.05,0.38-0.11,0.76-0.17,1.15c-0.71,0.28-1.45,0.77-2.09,1.44c-0.89,0.93-1.43,2.01-1.56,2.97c-0.31-1.12,0.24-2.74,1.5-4.04
	C59.61,50.2,60.44,49.68,61.22,49.42L61.22,49.42z M48.13,67.58c-0.37,0.11-0.75,0.22-1.12,0.31c-0.5-0.08-1.07,0.05-1.63,0.34
	c-0.54,0.09-1.08,0.17-1.61,0.22c1.19-1.42,2.77-2.05,3.82-1.41C47.81,67.18,47.99,67.36,48.13,67.58L48.13,67.58z M38.96,49.34
	c0.91-1.12,3.1-0.85,4.89,0.62c1.41,1.15,2.15,2.7,1.95,3.86c-0.23-0.94-0.89-1.96-1.9-2.78c-1.79-1.47-3.98-1.75-4.89-0.62
	c-0.2,0.24-0.32,0.53-0.37,0.84C38.47,50.52,38.56,49.83,38.96,49.34L38.96,49.34z M51.97,43.91c1.44,0,2.61,1.88,2.61,4.21
	c0,0.06,0,0.11,0,0.17c-0.26-1.89-1.3-3.3-2.55-3.3c-1.41,0-2.56,1.79-2.61,4.04c-0.04-0.29-0.06-0.59-0.06-0.9
	C49.36,45.8,50.53,43.91,51.97,43.91L51.97,43.91z M34.87,61.03c0.16-1.44,2.16-2.4,4.45-2.13c2.29,0.26,4.02,1.65,3.86,3.09
	c-0.01,0.09-0.03,0.17-0.05,0.25c-0.42-1.11-1.9-2.06-3.75-2.27c-2.16-0.25-4.05,0.58-4.4,1.88C34.88,61.58,34.84,61.3,34.87,61.03
	L34.87,61.03z"/>
<path class="st113" d="M42.42,47.53c-2.96-0.8-4.98,1.11-4.68,4.21C36.12,47.57,39.17,45.59,42.42,47.53L42.42,47.53z M61.34,48.37
	c-0.02,0.23-0.05,0.46-0.08,0.69c-1.8,0.71-3.34,2.28-4.49,3.67C57.83,50.34,59.07,48.45,61.34,48.37L61.34,48.37z M47.93,59.8
	c-0.06-2.73,1.72-3.22,3.86-2.14C50.26,57.64,48.59,58.34,47.93,59.8L47.93,59.8z"/>
<path class="st114" d="M56.3,37.62c0.49,0.98,0.86,1.95,1.08,2.86c1.37,5.66,1.45,17.87-8.85,22.56
	c-10.29,4.69-22.04,1.78-28.47-8.01c-1.88-2.86-2.64-5.97-2.69-8.98c1.66,3.9,4.37,8.44,8.52,10.86c8.2,4.77,13.19,4.77,19.06,2.83
	c5.87-1.94,9.41-6.31,10.37-10.76C55.87,46.52,56.15,41.55,56.3,37.62L56.3,37.62z"/>
<path class="st115" d="M23.41,28.91c0,0,7.56-5.98,16.49-4.93s15.92,8.9,17.29,14.56c1.37,5.66,1.45,17.87-8.85,22.56
	c-10.29,4.69-22.04,1.78-28.47-8.01C13.43,43.31,20.11,30.69,23.41,28.91L23.41,28.91z M38.51,42.11c0.95,0,1.72,0.77,1.72,1.73
	c0,0.95-0.77,1.73-1.72,1.73s-1.72-0.77-1.72-1.73C36.79,42.89,37.56,42.11,38.51,42.11L38.51,42.11z M26.78,33.19
	c0.91-1.12,3.1-0.84,4.89,0.62c1.79,1.47,2.5,3.57,1.59,4.7c-0.91,1.12-3.1,0.84-4.89-0.62C26.58,36.42,25.87,34.31,26.78,33.19
	L26.78,33.19z M39.79,27.76c1.44,0,2.61,1.88,2.61,4.21s-1.17,4.21-2.61,4.21c-1.44,0-2.61-1.88-2.61-4.21S38.35,27.76,39.79,27.76
	L39.79,27.76z M51.5,33.6c1.04,1.01,0.58,3.18-1.03,4.85c-1.61,1.67-3.75,2.2-4.79,1.2c-1.04-1.01-0.58-3.18,1.03-4.85
	C48.32,33.12,50.46,32.59,51.5,33.6L51.5,33.6z M53.69,48.44c-0.53,1.35-2.71,1.75-4.85,0.89c-2.15-0.86-3.45-2.65-2.92-4
	c0.53-1.35,2.71-1.75,4.85-0.89C52.91,45.31,54.22,47.1,53.69,48.44L53.69,48.44z M46.86,57.68c-1.15,0.88-3.21,0.09-4.61-1.76
	c-1.4-1.85-1.59-4.06-0.44-4.94c1.15-0.88,3.21-0.09,4.61,1.76C47.81,54.59,48.01,56.8,46.86,57.68L46.86,57.68z M31.06,58.08
	c-1.23-0.75-1.26-2.97-0.06-4.96c1.2-1.98,3.17-2.98,4.41-2.23c1.23,0.75,1.26,2.97,0.06,4.96C34.27,57.84,32.3,58.84,31.06,58.08
	L31.06,58.08z M22.69,44.88c0.16-1.44,2.16-2.4,4.45-2.13c2.29,0.26,4.02,1.65,3.86,3.09c-0.16,1.44-2.16,2.4-4.45,2.13
	C24.25,47.7,22.52,46.32,22.69,44.88L22.69,44.88z"/>
<path class="st114" d="M38.45,41.04c0.95,0,1.72,0.77,1.72,1.73c0,0.15-0.02,0.3-0.06,0.45c-0.25-0.65-0.87-1.1-1.6-1.1
	c-0.8,0-1.47,0.54-1.66,1.28c-0.08-0.19-0.12-0.4-0.12-0.63C36.73,41.81,37.5,41.04,38.45,41.04L38.45,41.04z M26.72,32.12
	c0.91-1.12,3.1-0.84,4.89,0.62c1.41,1.16,2.15,2.7,1.95,3.86c-0.23-0.94-0.89-1.96-1.9-2.79c-1.79-1.47-3.98-1.75-4.89-0.62
	c-0.2,0.24-0.32,0.53-0.37,0.84C26.23,33.29,26.32,32.61,26.72,32.12L26.72,32.12z M39.73,26.69c1.44,0,2.61,1.88,2.61,4.21
	c0,0.06,0,0.11,0,0.17c-0.26-1.89-1.3-3.3-2.55-3.3c-1.41,0-2.56,1.79-2.61,4.04c-0.04-0.29-0.06-0.59-0.06-0.9
	C37.12,28.57,38.29,26.69,39.73,26.69L39.73,26.69z M51.44,32.52c0.46,0.45,0.62,1.12,0.53,1.88c-0.09-0.31-0.24-0.59-0.47-0.81
	c-1.04-1.01-3.18-0.47-4.79,1.2c-0.89,0.93-1.43,2.01-1.56,2.97c-0.31-1.12,0.24-2.74,1.5-4.04C48.26,32.05,50.41,31.51,51.44,32.52
	L51.44,32.52z M45.85,45.55c-0.14-0.45-0.15-0.89,0.01-1.29c0.53-1.35,2.71-1.75,4.85-0.89c2.03,0.81,3.31,2.46,2.99,3.78
	c-0.33-1.04-1.43-2.1-2.93-2.71c-2.15-0.86-4.32-0.46-4.85,0.89C45.89,45.41,45.86,45.48,45.85,45.55L45.85,45.55z M41.07,52.43
	c-0.2-1.07,0.01-2.02,0.67-2.52c1.15-0.88,3.21-0.09,4.61,1.76c0.88,1.16,1.28,2.46,1.18,3.49c-0.15-0.78-0.53-1.63-1.12-2.42
	c-1.4-1.85-3.46-2.64-4.61-1.76C41.38,51.31,41.14,51.82,41.07,52.43L41.07,52.43z M30.13,55.67c-0.22-1.01,0.05-2.36,0.81-3.62
	c1.2-1.98,3.17-2.98,4.41-2.23c0.71,0.43,1.02,1.34,0.93,2.42c-0.13-0.59-0.42-1.07-0.87-1.34c-1.23-0.75-3.21,0.24-4.41,2.23
	C30.49,53.97,30.2,54.87,30.13,55.67L30.13,55.67z M22.63,43.8c0.16-1.44,2.16-2.4,4.45-2.13c2.29,0.26,4.02,1.65,3.86,3.09
	c-0.01,0.09-0.03,0.17-0.05,0.25c-0.42-1.11-1.9-2.06-3.75-2.27c-2.16-0.25-4.05,0.58-4.4,1.88C22.64,44.36,22.6,44.08,22.63,43.8
	L22.63,43.8z"/>
<path class="st112" d="M30.18,30.31c-2.96-0.8-4.98,1.11-4.68,4.21C23.88,30.35,26.93,28.37,30.18,30.31L30.18,30.31z M35.69,42.58
	c-0.06-2.73,1.72-3.22,3.86-2.14C38.02,40.41,36.35,41.12,35.69,42.58L35.69,42.58z M51.09,31.46c-2.68-0.1-4.98,2.15-6.55,4.04
	C45.87,32.5,47.48,30.29,51.09,31.46L51.09,31.46z"/>
<path class="st54" d="M51.28,31.19c0.14-0.51-0.54-1.15-1.52-1.43c-0.99-0.28-1.9-0.1-2.05,0.41c-0.14,0.51,0.54,1.15,1.52,1.43
	C50.22,31.88,51.14,31.7,51.28,31.19L51.28,31.19z M66.8,33.32c0.14-0.51-0.54-1.15-1.52-1.43c-0.99-0.28-1.9-0.1-2.05,0.41
	c-0.14,0.51,0.54,1.15,1.52,1.43C65.74,34.01,66.66,33.83,66.8,33.32L66.8,33.32z M63.54,38.56c0.36,0.39,1.26,0.13,2.01-0.58
	c0.75-0.71,1.06-1.59,0.71-1.98c-0.36-0.39-1.26-0.13-2.01,0.58C63.5,37.29,63.18,38.18,63.54,38.56L63.54,38.56z M58.35,49.14
	c0.36,0.39,1.26,0.13,2.01-0.58c0.75-0.71,1.06-1.59,0.71-1.98c-0.36-0.39-1.26-0.13-2.01,0.58C58.31,47.86,57.99,48.75,58.35,49.14
	L58.35,49.14z M50.74,53.34c0.14,0.51-0.54,1.15-1.52,1.43c-0.99,0.28-1.9,0.1-2.05-0.41c-0.14-0.51,0.54-1.15,1.52-1.43
	C49.67,52.65,50.59,52.83,50.74,53.34L50.74,53.34z M47.16,47.49c0.36-0.39,1.26-0.13,2.01,0.58c0.75,0.71,1.06,1.59,0.71,1.98
	c-0.36,0.39-1.26,0.13-2.01-0.58C47.12,48.76,46.8,47.88,47.16,47.49L47.16,47.49z M41.14,51.34c0.51,0.13,0.73,1.04,0.48,2.04
	c-0.24,1-0.86,1.71-1.37,1.59c-0.51-0.13-0.72-1.04-0.48-2.04C40.02,51.92,40.63,51.21,41.14,51.34L41.14,51.34z M59.51,30.28
	c0.14-0.51-0.54-1.15-1.52-1.43c-0.99-0.28-1.9-0.1-2.05,0.41c-0.14,0.51,0.54,1.15,1.52,1.43C58.44,30.97,59.36,30.79,59.51,30.28
	L59.51,30.28z M46.01,39.99c0.36,0.39,1.26,0.13,2.01-0.58c0.75-0.71,1.06-1.59,0.71-1.98c-0.36-0.39-1.26-0.13-2.01,0.58
	C45.96,38.72,45.65,39.61,46.01,39.99L46.01,39.99z M36.72,38.29c0.51-0.13,0.72-1.04,0.48-2.04c-0.25-1-0.86-1.71-1.37-1.59
	c-0.51,0.13-0.73,1.04-0.48,2.04C35.6,37.71,36.21,38.42,36.72,38.29L36.72,38.29z"/>
<path class="st54" d="M53.71,51.64c0.39,0.36,1.26,0.04,1.96-0.72c0.7-0.76,0.95-1.66,0.57-2.02c-0.39-0.36-1.26-0.04-1.96,0.72
	C53.58,50.37,53.33,51.28,53.71,51.64L53.71,51.64z M44.81,64.59c0.39,0.36,1.26,0.04,1.96-0.72c0.7-0.76,0.95-1.66,0.57-2.02
	c-0.39-0.36-1.26-0.04-1.96,0.72C44.68,63.33,44.42,64.23,44.81,64.59L44.81,64.59z M41.63,59.3c-0.5,0.15-0.68,1.07-0.39,2.06
	c0.29,0.99,0.93,1.67,1.43,1.53c0.5-0.15,0.68-1.07,0.39-2.06C42.78,59.83,42.14,59.15,41.63,59.3L41.63,59.3z M34.6,49.86
	c-0.5,0.15-0.68,1.07-0.39,2.06c0.29,0.99,0.93,1.67,1.43,1.53c0.5-0.15,0.68-1.07,0.39-2.06C35.75,50.4,35.11,49.71,34.6,49.86
	L34.6,49.86z M34.32,41.13c-0.52-0.1-0.78-1-0.58-2.02c0.19-1.01,0.77-1.75,1.29-1.65c0.52,0.1,0.78,1,0.58,2.02
	C35.41,40.49,34.84,41.23,34.32,41.13L34.32,41.13z M41.12,40.57c0.18,0.5-0.46,1.19-1.42,1.54c-0.96,0.35-1.89,0.24-2.07-0.26
	c-0.18-0.5,0.46-1.19,1.42-1.54C40.01,39.95,40.94,40.07,41.12,40.57L41.12,40.57z M40.43,33.43c-0.34,0.4-1.25,0.18-2.03-0.49
	c-0.78-0.67-1.13-1.54-0.79-1.94c0.34-0.4,1.25-0.18,2.03,0.49C40.43,32.16,40.78,33.03,40.43,33.43L40.43,33.43z M50.8,59.42
	c0.39,0.36,1.26,0.04,1.96-0.72c0.7-0.76,0.95-1.66,0.57-2.02c-0.39-0.36-1.26-0.04-1.96,0.72C50.67,58.16,50.42,59.06,50.8,59.42
	L50.8,59.42z M48.3,42.92c-0.5,0.15-0.68,1.07-0.39,2.06c0.29,0.99,0.93,1.67,1.43,1.53c0.5-0.15,0.68-1.07,0.39-2.06
	C49.44,43.46,48.8,42.78,48.3,42.92L48.3,42.92z M54,35.37c-0.12,0.51,0.6,1.12,1.6,1.35c1,0.23,1.91,0,2.03-0.51
	c0.12-0.52-0.6-1.12-1.6-1.35C55.03,34.62,54.12,34.85,54,35.37L54,35.37z"/>
</svg>
