<?xml version="1.0" encoding="utf-8"?>
<!-- Generator: Adobe Illustrator 27.9.0, SVG Export Plug-In . SVG Version: 6.00 Build 0)  -->
<svg version="1.1" id="Layer_1" xmlns="http://www.w3.org/2000/svg" xmlns:xlink="http://www.w3.org/1999/xlink" x="0px" y="0px"
	 viewBox="0 0 210.28 211.46" style="enable-background:new 0 0 210.28 211.46;" xml:space="preserve">
<style type="text/css">
	.st0{fill-rule:evenodd;clip-rule:evenodd;fill:#F4F5F7;}
	.st1{fill-rule:evenodd;clip-rule:evenodd;fill:#E3E4E9;}
	.st2{fill-rule:evenodd;clip-rule:evenodd;fill:#FF6224;}
	.st3{fill-rule:evenodd;clip-rule:evenodd;fill:#ED4605;}
	.st4{fill-rule:evenodd;clip-rule:evenodd;fill:#A60603;}
	.st5{fill-rule:evenodd;clip-rule:evenodd;fill:#865334;}
	.st6{fill:#BD8F4F;}
	.st7{fill:#CEA265;}
	.st8{fill-rule:evenodd;clip-rule:evenodd;fill:#A66A44;}
	.st9{fill-rule:evenodd;clip-rule:evenodd;fill:#542E17;}
	.st10{fill-rule:evenodd;clip-rule:evenodd;fill:#663B20;}
	.st11{fill:#519A48;}
	.st12{fill-rule:evenodd;clip-rule:evenodd;fill:#F5DEB6;}
	.st13{fill:#FFF3DA;}
	.st14{fill:#FA692F;}
	.st15{fill:#EFD05C;}
	.st16{fill-rule:evenodd;clip-rule:evenodd;fill:#2E2D33;}
	.st17{fill-rule:evenodd;clip-rule:evenodd;fill:#4D4C52;}
	.st18{fill-rule:evenodd;clip-rule:evenodd;fill:#828287;}
	.st19{fill-rule:evenodd;clip-rule:evenodd;fill:#D23508;}
	.st20{fill-rule:evenodd;clip-rule:evenodd;fill:#BA2D06;}
	.st21{fill-rule:evenodd;clip-rule:evenodd;fill:#B52E1A;}
	.st22{fill-rule:evenodd;clip-rule:evenodd;fill:#E69B4C;}
	.st23{fill-rule:evenodd;clip-rule:evenodd;fill:#EB7538;}
	.st24{fill-rule:evenodd;clip-rule:evenodd;fill:#DB662C;}
	.st25{fill-rule:evenodd;clip-rule:evenodd;fill:#66666B;}
	.st26{fill-rule:evenodd;clip-rule:evenodd;fill:#DB5128;}
	.st27{fill-rule:evenodd;clip-rule:evenodd;fill:#F7B268;}
	.st28{fill-rule:evenodd;clip-rule:evenodd;fill:#CC3D26;}
	.st29{fill-rule:evenodd;clip-rule:evenodd;fill:#D9B685;}
	.st30{fill-rule:evenodd;clip-rule:evenodd;fill:#FFECD1;}
	.st31{fill-rule:evenodd;clip-rule:evenodd;fill:#358541;}
	.st32{fill-rule:evenodd;clip-rule:evenodd;fill:#26632F;}
	.st33{fill-rule:evenodd;clip-rule:evenodd;fill:#FFCCB5;}
	.st34{fill-rule:evenodd;clip-rule:evenodd;fill:#F2B922;}
	.st35{fill-rule:evenodd;clip-rule:evenodd;fill:#F3CD2E;}
	.st36{fill-rule:evenodd;clip-rule:evenodd;fill:#FAF19B;}
	.st37{fill-rule:evenodd;clip-rule:evenodd;fill:#F3FFD9;}
	.st38{fill-rule:evenodd;clip-rule:evenodd;fill:#D1E3AA;}
	.st39{fill-rule:evenodd;clip-rule:evenodd;fill:#85522E;}
	.st40{fill-rule:evenodd;clip-rule:evenodd;fill:#C77B45;}
	.st41{fill-rule:evenodd;clip-rule:evenodd;fill:#A36539;}
	.st42{fill-rule:evenodd;clip-rule:evenodd;}
	.st43{fill-rule:evenodd;clip-rule:evenodd;fill:#C7C7C9;}
	.st44{fill-rule:evenodd;clip-rule:evenodd;fill:#99441D;}
	.st45{fill-rule:evenodd;clip-rule:evenodd;fill:#6B2605;}
	.st46{fill-rule:evenodd;clip-rule:evenodd;fill:#AD5025;}
	.st47{fill-rule:evenodd;clip-rule:evenodd;fill:#C75925;}
	.st48{fill-rule:evenodd;clip-rule:evenodd;fill:#B5582D;}
	.st49{fill-rule:evenodd;clip-rule:evenodd;fill:#519A48;}
	.st50{fill-rule:evenodd;clip-rule:evenodd;fill:#FBD5B0;}
	.st51{fill:#E8BC90;}
	.st52{fill-rule:evenodd;clip-rule:evenodd;fill:#7A3312;}
	.st53{fill-rule:evenodd;clip-rule:evenodd;fill:#FA7D44;}
	.st54{fill-rule:evenodd;clip-rule:evenodd;fill:#FCE38F;}
	.st55{fill-rule:evenodd;clip-rule:evenodd;fill:#464AA6;}
	.st56{fill-rule:evenodd;clip-rule:evenodd;fill:#00C36C;}
	.st57{fill-rule:evenodd;clip-rule:evenodd;fill:#006B43;}
	.st58{fill-rule:evenodd;clip-rule:evenodd;fill:#C5C6C9;}
	.st59{fill-rule:evenodd;clip-rule:evenodd;fill:#FFC250;}
	.st60{fill-rule:evenodd;clip-rule:evenodd;fill:#FFD177;}
	.st61{fill:#FFE7B8;}
	.st62{fill-rule:evenodd;clip-rule:evenodd;fill:#3A3940;}
	.st63{fill-rule:evenodd;clip-rule:evenodd;fill:#F7C35B;}
	.st64{fill-rule:evenodd;clip-rule:evenodd;fill:#BF9A76;}
	.st65{fill-rule:evenodd;clip-rule:evenodd;fill:#452508;}
	.st66{fill-rule:evenodd;clip-rule:evenodd;fill:#BF8B24;}
	.st67{fill-rule:evenodd;clip-rule:evenodd;fill:#C44918;}
	.st68{fill-rule:evenodd;clip-rule:evenodd;fill:#E6AC37;}
	.st69{fill-rule:evenodd;clip-rule:evenodd;fill:#522C0B;}
	.st70{fill-rule:evenodd;clip-rule:evenodd;fill:#E6551C;}
	.st71{fill-rule:evenodd;clip-rule:evenodd;fill:#EDD4A1;}
	.st72{fill-rule:evenodd;clip-rule:evenodd;fill:#784212;}
	.st73{fill-rule:evenodd;clip-rule:evenodd;fill:#F77745;}
	.st74{fill-rule:evenodd;clip-rule:evenodd;fill:#66380F;}
	.st75{fill-rule:evenodd;clip-rule:evenodd;fill:#995B25;}
	.st76{fill-rule:evenodd;clip-rule:evenodd;fill:#FF4F0C;}
	.st77{fill-rule:evenodd;clip-rule:evenodd;fill:#FAD58C;}
	.st78{fill-rule:evenodd;clip-rule:evenodd;fill:#FFF3DA;}
	.st79{fill-rule:evenodd;clip-rule:evenodd;fill:#D3D4D6;}
	.st80{fill-rule:evenodd;clip-rule:evenodd;fill:#EEF5FB;}
	.st81{fill-rule:evenodd;clip-rule:evenodd;fill:#DAE3EB;}
	.st82{fill-rule:evenodd;clip-rule:evenodd;fill:#C8CED4;}
	.st83{fill-rule:evenodd;clip-rule:evenodd;fill:#CAD3DB;}
	.st84{fill-rule:evenodd;clip-rule:evenodd;fill:#FDD657;}
	.st85{fill-rule:evenodd;clip-rule:evenodd;fill:#F0C330;}
	.st86{fill-rule:evenodd;clip-rule:evenodd;fill:#315E38;}
	.st87{fill-rule:evenodd;clip-rule:evenodd;fill:#99AE4C;}
	.st88{fill-rule:evenodd;clip-rule:evenodd;fill:#D6E0E8;}
	.st89{fill-rule:evenodd;clip-rule:evenodd;fill:#FFD6C7;}
	.st90{fill-rule:evenodd;clip-rule:evenodd;fill:#BD7E18;}
	.st91{fill-rule:evenodd;clip-rule:evenodd;fill:#D5962F;}
	.st92{fill-rule:evenodd;clip-rule:evenodd;fill:#E6A947;}
	.st93{fill-rule:evenodd;clip-rule:evenodd;fill:#EDB356;}
	.st94{fill-rule:evenodd;clip-rule:evenodd;fill:#DBB97F;}
	.st95{fill-rule:evenodd;clip-rule:evenodd;fill:#EACB97;}
	.st96{fill-rule:evenodd;clip-rule:evenodd;fill:#E3BF81;}
	.st97{fill:#333333;}
	.st98{fill-rule:evenodd;clip-rule:evenodd;fill:#754528;}
	.st99{fill:#242323;}
	.st100{fill-rule:evenodd;clip-rule:evenodd;fill:#E3E4E6;}
	.st101{fill-rule:evenodd;clip-rule:evenodd;fill:#FC8A31;}
	.st102{fill-rule:evenodd;clip-rule:evenodd;fill:#E67017;}
	.st103{fill-rule:evenodd;clip-rule:evenodd;fill:#6BBA61;}
	.st104{fill-rule:evenodd;clip-rule:evenodd;fill:#FCAB6D;}
	.st105{fill-rule:evenodd;clip-rule:evenodd;fill:#FFBE8C;}
	.st106{fill:#006B43;}
	.st107{fill-rule:evenodd;clip-rule:evenodd;fill:#FA692F;}
	.st108{fill-rule:evenodd;clip-rule:evenodd;fill:#9E3E03;}
	.st109{fill-rule:evenodd;clip-rule:evenodd;fill:#C27100;}
	.st110{fill-rule:evenodd;clip-rule:evenodd;fill:#B34602;}
	.st111{fill-rule:evenodd;clip-rule:evenodd;fill:#D68007;}
	.st112{fill-rule:evenodd;clip-rule:evenodd;fill:#FDFEFF;}
	.st113{fill-rule:evenodd;clip-rule:evenodd;fill:#A66805;}
	.st114{fill-rule:evenodd;clip-rule:evenodd;fill:#CC4F00;}
	.st115{fill-rule:evenodd;clip-rule:evenodd;fill:#E68B09;}
	.st116{fill-rule:evenodd;clip-rule:evenodd;fill:#123618;}
	.st117{fill-rule:evenodd;clip-rule:evenodd;fill:#1C4622;}
	.st118{fill:#1C4622;}
	.st119{fill:#315E38;}
	.st120{fill-rule:evenodd;clip-rule:evenodd;fill:#D7D7DB;}
	.st121{fill-rule:evenodd;clip-rule:evenodd;fill:#FFFFFF;}
	.st122{fill-rule:evenodd;clip-rule:evenodd;fill:#C8CAC9;}
	.st123{fill-rule:evenodd;clip-rule:evenodd;fill:#B3B0A9;}
	.st124{fill-rule:evenodd;clip-rule:evenodd;fill:#E8DFE0;}
	.st125{fill-rule:evenodd;clip-rule:evenodd;fill:#AD8F8C;}
	.st126{fill-rule:evenodd;clip-rule:evenodd;fill:#BE9F9C;}
	.st127{fill-rule:evenodd;clip-rule:evenodd;fill:#5E4830;}
	.st128{fill:#96735A;}
	.st129{fill:#AD866B;}
	.st130{fill:#C5A189;}
	.st131{fill-rule:evenodd;clip-rule:evenodd;fill:#69523A;}
	.st132{fill-rule:evenodd;clip-rule:evenodd;fill:#DBDBDB;}
	.st133{fill-rule:evenodd;clip-rule:evenodd;fill:#F2F2F2;}
	.st134{fill-rule:evenodd;clip-rule:evenodd;fill:#6F952E;}
	.st135{fill-rule:evenodd;clip-rule:evenodd;fill:#D4E2A5;}
	.st136{fill-rule:evenodd;clip-rule:evenodd;fill:#C8D384;}
	.st137{fill-rule:evenodd;clip-rule:evenodd;fill:#F8FDFF;}
	.st138{fill-rule:evenodd;clip-rule:evenodd;fill:#F7D981;}
	.st139{fill-rule:evenodd;clip-rule:evenodd;fill:#FDE396;}
	.st140{fill-rule:evenodd;clip-rule:evenodd;fill:#E7A96E;}
	.st141{fill-rule:evenodd;clip-rule:evenodd;fill:#BA7E47;}
	.st142{fill:#FFFFFF;}
	.st143{fill-rule:evenodd;clip-rule:evenodd;fill:#C5A189;}
	.st144{fill-rule:evenodd;clip-rule:evenodd;fill:#951806;}
	.st145{fill-rule:evenodd;clip-rule:evenodd;fill:#801303;}
	.st146{fill-rule:evenodd;clip-rule:evenodd;fill:#D4510D;}
	.st147{fill-rule:evenodd;clip-rule:evenodd;fill:#E6C18A;}
	.st148{fill-rule:evenodd;clip-rule:evenodd;fill:#D59D5E;}
	.st149{fill-rule:evenodd;clip-rule:evenodd;fill:#D47507;}
	.st150{fill-rule:evenodd;clip-rule:evenodd;fill:#E38D2B;}
	.st151{fill-rule:evenodd;clip-rule:evenodd;fill:#BD6704;}
	.st152{fill-rule:evenodd;clip-rule:evenodd;fill:#E8891C;}
	.st153{fill-rule:evenodd;clip-rule:evenodd;fill:#D56400;}
	.st154{fill-rule:evenodd;clip-rule:evenodd;fill:#E6844E;}
	.st155{fill-rule:evenodd;clip-rule:evenodd;fill:#F1E2BB;}
	.st156{fill:#A33803;}
	.st157{fill-rule:evenodd;clip-rule:evenodd;fill:#A33803;}
	.st158{fill-rule:evenodd;clip-rule:evenodd;fill:#B54306;}
	.st159{fill-rule:evenodd;clip-rule:evenodd;fill:#EA6321;}
	.st160{fill-rule:evenodd;clip-rule:evenodd;fill:#821909;}
	.st161{fill-rule:evenodd;clip-rule:evenodd;fill:#C44B0E;}
	.st162{fill-rule:evenodd;clip-rule:evenodd;fill:#B3320E;}
	.st163{fill-rule:evenodd;clip-rule:evenodd;fill:#BA874D;}
	.st164{fill-rule:evenodd;clip-rule:evenodd;fill:#6F351B;}
	.st165{fill-rule:evenodd;clip-rule:evenodd;fill:#5C2C15;}
	.st166{fill-rule:evenodd;clip-rule:evenodd;fill:#FA8950;}
	.st167{fill-rule:evenodd;clip-rule:evenodd;fill:#5E401D;}
	.st168{fill:#D59D5E;}
	.st169{fill:#BA874D;}
	.st170{fill:#E4C292;}
	.st171{fill:#EA6321;}
	.st172{fill:#FA8950;}
	.st173{fill-rule:evenodd;clip-rule:evenodd;fill:#8C5B34;}
	.st174{fill:#CF9470;}
	.st175{fill-rule:evenodd;clip-rule:evenodd;fill:#AA7448;}
	.st176{fill:#EFB795;}
	.st177{fill-rule:evenodd;clip-rule:evenodd;fill:#C9D98B;}
	.st178{fill-rule:evenodd;clip-rule:evenodd;fill:#93B04A;}
	.st179{fill-rule:evenodd;clip-rule:evenodd;fill:#D1E18E;}
	.st180{fill-rule:evenodd;clip-rule:evenodd;fill:#ABCB5C;}
	.st181{fill-rule:evenodd;clip-rule:evenodd;fill:#F0DEAD;}
	.st182{fill-rule:evenodd;clip-rule:evenodd;fill:#DEBA59;}
	.st183{fill-rule:evenodd;clip-rule:evenodd;fill:#E6D3A1;}
	.st184{fill-rule:evenodd;clip-rule:evenodd;fill:#FFF3D3;}
	.st185{fill-rule:evenodd;clip-rule:evenodd;fill:#F7D474;}
	.st186{fill-rule:evenodd;clip-rule:evenodd;fill:#A86046;}
	.st187{fill-rule:evenodd;clip-rule:evenodd;fill:#CF0200;}
	.st188{fill-rule:evenodd;clip-rule:evenodd;fill:#FF2D29;}
	.st189{fill-rule:evenodd;clip-rule:evenodd;fill:#43983E;}
	.st190{fill-rule:evenodd;clip-rule:evenodd;fill:#136B29;}
	.st191{fill-rule:evenodd;clip-rule:evenodd;fill:#D1E694;}
	.st192{fill-rule:evenodd;clip-rule:evenodd;fill:#218239;}
	.st193{fill-rule:evenodd;clip-rule:evenodd;fill:#035C3B;}
	.st194{fill-rule:evenodd;clip-rule:evenodd;fill:#54A051;}
	.st195{fill-rule:evenodd;clip-rule:evenodd;fill:#FFCBA3;}
	.st196{fill-rule:evenodd;clip-rule:evenodd;fill:#EB9350;}
	.st197{fill:#EB9350;}
	.st198{fill-rule:evenodd;clip-rule:evenodd;fill:#BDBDBB;}
	.st199{fill-rule:evenodd;clip-rule:evenodd;fill:#A15E23;}
</style>
<path class="st1" d="M105.14,0c58.07,0,105.14,47.34,105.14,105.73c0,58.39-47.07,105.73-105.14,105.73
	C47.07,211.46,0,164.13,0,105.73C0,47.34,47.07,0,105.14,0L105.14,0z"/>
<path class="st0" d="M105.14,4.54c55.57,0,100.63,45.31,100.63,101.19c0,55.89-45.05,101.19-100.63,101.19
	c-55.57,0-100.63-45.31-100.63-101.19C4.51,49.84,49.57,4.54,105.14,4.54L105.14,4.54z"/>
<path class="st5" d="M105.14,33.11c39.88,0,72.21,32.51,72.21,72.62c0,40.11-32.33,72.62-72.21,72.62
	c-39.88,0-72.21-32.51-72.21-72.62C32.93,65.63,65.26,33.11,105.14,33.11L105.14,33.11z"/>
<path class="st6" d="M119.55,41.4c-4.35,0.38-54.57,5.14-67.07,26.15c-10.43,17.54-10.41,17.87-9.97,24.81
	c0.13,2.02,0.29,4.54,0.29,7.94c0,8.06,0.45,16.5,2.62,24.93c2.16,8.39,6.03,16.84,12.87,25c6.89,8.22,12.64,13.23,18.06,16.13
	c5.31,2.84,10.35,3.68,15.9,3.58c2.04-0.04,4.06-0.03,6.1-0.01c9.48,0.06,19.35,0.12,33.77-5.22c7.79-2.88,14.13-7.25,18.91-11.99
	c5.72-5.69,9.18-11.86,10.15-16.65c0.87-4.27,2.76-6.16,4.51-7.9c1.97-1.96,3.7-3.69,2.03-11.12c-1.43-6.35,0.39-10.47,1.69-13.42
	c0.4-0.9,0.73-1.67,0.83-2.18c0.17-0.9-1.2-1.56-7.55-2.75c-7.27-1.36-11.5-0.52-15.12,0.21c-5.47,1.09-9.69,1.93-19.33-3.78
	c-11.07-6.57-11.53-11.23-8.58-16.25c0.89-1.52,2.1-2.99,3.39-4.56c0.97-1.18,2-2.43,2.9-3.7c1.38-1.95,1.2-2.94,0.37-3.53
	c-1-0.72-2.74-1.27-4.47-1.82c-2.45-0.78-4.88-1.55-6.36-3.12c-1.26-1.34-1.01-2.63,0.33-3.91c1.19-1.13,3.65-2.28,6.46-3.59
	c4.37-2.04,9.68-4.51,10.25-6.67C132.95,46.29,129.89,44.18,119.55,41.4L119.55,41.4z M49.26,65.62c14.05-23.63,70.14-28,70.3-28.01
	l0.31-0.03l0.32,0.08c13.34,3.56,16.96,7.46,15.96,11.26c-1.02,3.88-7.21,6.76-12.3,9.14c-1.81,0.85-3.47,1.62-4.52,2.24
	c0.97,0.49,2.31,0.91,3.64,1.34c2,0.64,4,1.27,5.51,2.35c2.62,1.87,3.57,4.47,0.51,8.8c-1.03,1.45-2.07,2.72-3.06,3.92
	c-1.2,1.46-2.32,2.82-3.05,4.07c-1.79,3.04-1.15,6.09,7.26,11.08c8.4,4.98,12.02,4.26,16.7,3.33c3.93-0.78,8.53-1.7,16.52-0.2
	c9.36,1.75,11.2,3.68,10.56,7.14c-0.18,0.99-0.6,1.92-1.08,3.02c-1.09,2.48-2.62,5.95-1.46,11.07c2.13,9.46-0.29,11.87-3.04,14.62
	c-1.36,1.36-2.84,2.83-3.48,5.98c-1.11,5.44-4.92,12.36-11.19,18.59c-5.13,5.09-11.92,9.77-20.25,12.85
	c-15.02,5.56-25.26,5.5-35.08,5.44c-2.01-0.01-4.01-0.03-6.03,0.01c-6.15,0.12-11.76-0.83-17.72-4.02
	c-5.85-3.13-11.96-8.42-19.16-17.02c-7.25-8.65-11.35-17.6-13.64-26.5c-2.28-8.86-2.75-17.58-2.75-25.88c0-3.4-0.15-5.79-0.27-7.71
	C38.25,84.55,38.23,84.17,49.26,65.62L49.26,65.62z"/>
<path class="st6" d="M144.52,62.66c-4.74-0.67-56.76-7.55-66.69,14.28c-3.8,8.36-2.39,10.76,0.34,12.02
	c0.82,0.38,1.86,0.72,2.94,1.08c5.83,1.93,12.38,4.1,10.14,17.41c-1.72,10.19-7.29,17.38-11.46,22.76
	c-2.21,2.85-3.99,5.14-4.32,6.76c-0.39,1.88,2.03,3.38,10.26,5.09c14.11,2.93,14.37,2.33,15.59-0.37c1.35-3,3.46-7.69,12.99-13.52
	c13.15-8.04,19.44-1.52,24.78,4c3.28,3.39,6.08,6.29,10.3,2.82c5.85-4.81,10.92-9.65,10.87-13.44c-0.05-3.61-5.15-6.81-19.59-9.07
	c-5.25-0.82-9.91-1.46-13.91-2c-20.42-2.78-24.67-3.36-24.67-16.98c0-5.5-1.15-10.87-2.09-15.27c-0.83-3.89-1.51-7.08-1.18-9.32
	c0.41-2.84,1.95-4.26,5.42-3.74c3.06,0.45,7.05,2.57,11.42,4.89c7,3.72,15.07,8.01,19.85,5.73c4.25-2.03,9.05-4.48,11.33-7.05
	C148.4,66.95,148.3,64.92,144.52,62.66L144.52,62.66z M74.42,75.37c11.58-25.46,70.82-16.42,70.99-16.4l0.34,0.05l0.31,0.18
	c7.12,4.08,6.97,8.2,3.57,12.04c-2.73,3.09-7.95,5.76-12.54,7.96c-6.47,3.1-15.42-1.66-23.2-5.8c-4.07-2.16-7.78-4.14-10.21-4.5
	c-0.77-0.11-1.1,0.1-1.16,0.55c-0.23,1.58,0.39,4.46,1.14,7.99c0.98,4.58,2.17,10.18,2.17,16.06c0,10.32,3.69,10.82,21.41,13.24
	c3.93,0.54,8.5,1.16,13.98,2.01c16.76,2.62,22.69,7.22,22.76,12.75c0.07,5.35-5.64,10.99-12.23,16.41
	c-6.89,5.67-10.8,1.62-15.37-3.11c-4.38-4.53-9.54-9.88-20.13-3.41c-8.54,5.22-10.36,9.27-11.52,11.85
	c-2.23,4.96-2.72,6.06-19.76,2.52c-11.02-2.29-14.08-5.21-13.19-9.54c0.51-2.49,2.53-5.09,5.04-8.33
	c3.92-5.05,9.15-11.8,10.71-21.06c1.71-10.11-3.22-11.74-7.61-13.2c-1.13-0.37-2.22-0.74-3.32-1.24
	C71.94,90.23,69.29,86.65,74.42,75.37L74.42,75.37z"/>
<path class="st6" d="M61.21,127.53c8.69,2.8,14.8,2.55,19.56,2.36c7.86-0.32,12.47-0.5,18.24,10.34c2.46,4.62,4.05,8.75,5.36,12.16
	c1.01,2.63,1.85,4.81,2.76,6.33c1.62,2.72,3.88,3.06,9.73-0.46c5.62-3.38,12.08-8.52,16.22-13.91c2.1-2.74,3.59-5.51,3.99-8.07
	c0.37-2.3-0.19-4.48-2.05-6.35c-1.39-1.4-3.51-2.66-6.48-3.72c-8.68-3.1-12.67-0.89-15.87,0.88c-5.41,3-9.08,5.03-21.1-9.24
	C81.24,105.58,79.36,92.68,78,83.37c-0.26-1.81-0.51-3.49-0.77-4.89c-0.85-4.48-2.06-7.03-5.93-6.29
	c-5.27,1.01-10.64,2.69-14.56,4.97c-2.18,1.27-3.88,2.71-4.77,4.29c-0.78,1.37-0.92,2.9-0.19,4.6c0.54,1.26,1.54,2.62,3.08,4.09
	c2.64,2.52,5.37,4.89,7.87,7.05c5.56,4.82,9.99,8.66,9.96,11.61c-0.02,2.51-2.21,3.88-7.55,3.83c-3.38-0.03-6.85-0.32-10.21-0.61
	c-5.91-0.5-11.49-0.96-14.47,0.06c-1.46,0.5-2.1,1.62-1.35,3.82c2.8,8.27,17.41,10.79,21,11.41
	C60.55,127.37,60.91,127.44,61.21,127.53L61.21,127.53L61.21,127.53z M80.92,133.66c-5.05,0.2-11.54,0.46-20.86-2.54l-0.44-0.14
	l-0.12-0.12l-0.02,0.11c0.02,0.03,0.02,0.05-0.01,0.05c-4.03-0.69-20.41-3.52-23.93-13.92c-1.63-4.81,0.04-7.35,3.7-8.61
	c3.73-1.28,9.68-0.78,15.98-0.25c3.38,0.28,6.86,0.58,9.93,0.61c2.68,0.03,3.77-0.01,3.77-0.09c0.01-1.2-3.84-4.53-8.67-8.72
	c-2.54-2.2-5.32-4.61-8-7.17c-1.91-1.83-3.19-3.61-3.93-5.31c-1.26-2.92-1-5.59,0.37-7.98c1.24-2.19,3.42-4.08,6.16-5.68
	c4.31-2.51,10.1-4.33,15.75-5.41c6.98-1.34,9.03,2.5,10.32,9.3c0.3,1.58,0.54,3.24,0.8,5.04c1.29,8.86,3.08,21.14,12.73,32.59
	c10.03,11.91,12.62,10.48,16.42,8.37c3.86-2.14,8.66-4.8,18.93-1.13c3.53,1.26,6.1,2.82,7.88,4.61c2.82,2.83,3.66,6.13,3.11,9.62
	c-0.51,3.23-2.26,6.57-4.73,9.78c-4.44,5.79-11.31,11.27-17.26,14.85c-8.41,5.05-11.94,4.1-14.88-0.84
	c-1.07-1.79-1.96-4.12-3.04-6.91c-1.28-3.32-2.83-7.34-5.17-11.75C91.05,133.26,87.31,133.41,80.92,133.66L80.92,133.66z
	 M59.3,130.67c-0.32-0.33,0.1,0.15,0.18,0.31l0.02-0.11L59.3,130.67L59.3,130.67z"/>
<path class="st6" d="M81.32,70.93c-0.63,4.54-4.88,7.91-9.5,11.57c-7.67,6.07-16.52,13.08-6.11,26.98
	c8.6,11.47,16.09,10.69,22.41,10.03c6.9-0.72,12.64-1.32,17.17,9.38c3.95,9.34,8.59,17.96,12.69,22.35
	c1.28,1.37,2.44,2.26,3.42,2.55c0.59,0.17,1.13,0.01,1.62-0.54c0.86-0.99,1.59-2.88,2.15-5.86c1.51-8.09-4.69-13.38-10.98-18.73
	c-7.28-6.21-14.66-12.49-12.64-23.45c1.79-9.73,0.59-12.48-2.69-13.09c-1.67-0.31-3.94-0.25-6.58-0.18c-2.19,0.06-4.63,0.13-7.3,0
	c-6.76-0.31-9.05-1.57-8.94-4.1c0.07-1.6,1.38-3.08,3.13-5.04c1.6-1.8,3.64-4.1,5.12-6.91c1.69-3.2,1.76-5.99,1.01-7.6
	c-0.19-0.41-0.42-0.7-0.67-0.85c-0.14-0.09-0.3-0.12-0.47-0.08C83.33,67.55,82.32,68.63,81.32,70.93L81.32,70.93z M69.49,79.53
	c4.07-3.22,7.81-6.18,8.13-9.29l0.03-0.28l0.11-0.26c1.56-3.71,3.61-5.56,5.54-6.01c1.18-0.28,2.31-0.08,3.29,0.52
	c0.87,0.53,1.6,1.38,2.1,2.46c1.18,2.53,1.22,6.62-1.09,10.99c-1.71,3.23-3.91,5.71-5.63,7.66c-1.23,1.39-2.16,2.44-2.18,2.7
	c0,0.07,1.38-0.04,5.36,0.15c2.55,0.12,4.9,0.05,7.01,0c2.86-0.08,5.3-0.14,7.37,0.24c5.74,1.07,8.04,4.79,5.7,17.49
	c-1.62,8.81,4.92,14.39,11.38,19.9c7.12,6.07,14.15,12.06,12.25,22.3c-0.69,3.69-1.72,6.18-3.02,7.67
	c-1.56,1.79-3.42,2.27-5.48,1.67c-1.66-0.48-3.38-1.74-5.12-3.6c-4.41-4.72-9.3-13.75-13.4-23.45c-3.44-8.14-7.92-7.67-13.32-7.11
	c-7.28,0.76-15.93,1.67-25.81-11.52C50.08,94.89,60.48,86.66,69.49,79.53L69.49,79.53z"/>
<path class="st6" d="M144.87,57.63c-2.47-0.67-40.77-10.77-59.62-0.33c-11.07,6.14-13.59,11.78-15.77,16.67
	c-1.8,4.04-3.4,7.62-8.55,10.69c-4.81,2.87-6.24,6.3-5.76,10.31c0.53,4.4,3.22,9.65,6.41,15.56c3,5.56,1.94,11.89,0.91,18.02
	c-1.27,7.55-2.48,14.73,5.63,18.29c7.32,3.21,13.07-1.62,19.2-6.76c6.32-5.31,13-10.92,22.48-9.85c7.41,0.84,13.6,4.73,18.84,8.03
	c2.95,1.85,5.58,3.51,7.75,4.18c3.01,0.93,5.42-0.37,7.4-6.85c2.7-8.86,0.29-17.03-1.87-24.38c-2.74-9.3-5.12-17.39,2.32-24.75
	c3.16-3.12,5.43-6.33,6.85-9.44c1.46-3.2,2.01-6.29,1.7-9.08c-0.31-2.72-1.45-5.16-3.4-7.15C148.18,59.55,146.67,58.48,144.87,57.63
	L144.87,57.63z M83.58,54.24c20.69-11.46,62.19,0.02,62.31,0.05l0.12,0.03l0.15,0.07c2.27,1.05,4.17,2.38,5.69,3.93
	c2.51,2.56,3.98,5.71,4.38,9.2c0.39,3.41-0.27,7.14-2,10.93c-1.6,3.49-4.11,7.05-7.57,10.48c-5.95,5.89-3.84,13.05-1.42,21.28
	c2.3,7.82,4.86,16.51,1.86,26.38c-2.76,9.08-6.67,10.73-11.72,9.18c-2.64-0.81-5.44-2.57-8.58-4.55
	c-4.94-3.11-10.77-6.77-17.39-7.52c-8.01-0.9-14.1,4.21-19.87,9.05c-6.98,5.86-13.53,11.36-22.82,7.28
	c-10.6-4.65-9.17-13.14-7.67-22.06c0.93-5.54,1.89-11.26-0.54-15.77c-3.36-6.23-6.2-11.8-6.8-16.82c-0.65-5.41,1.2-10.01,7.45-13.73
	c4.21-2.51,5.59-5.61,7.15-9.1C68.71,67.16,71.49,60.94,83.58,54.24L83.58,54.24z"/>
<path class="st7" d="M73.38,45.32c2.78,0.27,11.51,2.71-10.67,24.13C51.92,79.86,46.66,86.83,45.15,93.01
	c-1.46,5.97,0.66,11.53,4.65,19.14c4.18,7.97,3.46,13.37,2.82,18.19c-0.63,4.74-1.17,8.82,4.8,14.72c5.7,5.63,10.91,6.12,16.23,6.61
	c6.01,0.56,12.16,1.13,19.35,7.81c2.9,2.69,5.2,5.32,7.25,7.66c6.86,7.85,10.58,12.1,25.45-0.6c13.2-11.28,18.42-16.92,23.07-21.95
	c2.59-2.8,5.01-5.42,8.51-8.7c4.58-4.29,7.65-7.47,8.36-11.9c0.74-4.64-0.88-11-5.7-21.76c-3.71-8.29-5.51-15.57-7.08-21.9
	c-2.57-10.38-4.47-18.09-13.57-23.05c-7.1-3.88-13.75-3.73-19.77-3.59c-7.01,0.16-13.24,0.29-18.91-5.15
	c-5.27-5.06-15.72-6.03-22.39-4.92c-1.6,0.27-2.94,0.65-3.89,1.11C73.79,44.99,73.45,45.2,73.38,45.32L73.38,45.32z M60.11,66.72
	c18.62-17.98,12.64-17.67,12.62-17.67l-0.69,0.01l-0.53-0.44c-1.58-1.29-2.11-2.68-1.82-4.07c0.28-1.34,1.36-2.43,3-3.23
	c1.27-0.62,2.97-1.11,4.92-1.44c7.5-1.25,19.38-0.05,25.58,5.91c4.55,4.38,10.06,4.25,16.24,4.12c6.49-0.14,13.66-0.3,21.63,4.05
	c10.55,5.76,12.63,14.15,15.42,25.46c1.53,6.17,3.28,13.26,6.85,21.25c5.14,11.49,6.84,18.48,5.98,23.91
	c-0.9,5.63-4.36,9.25-9.51,14.07c-3.4,3.18-5.77,5.75-8.31,8.5c-4.72,5.1-10.02,10.84-23.39,22.26c-17.67,15.1-22.25,9.87-30.7,0.21
	c-2-2.29-4.25-4.86-6.97-7.38c-6.27-5.82-11.76-6.33-17.14-6.83c-6-0.56-11.87-1.1-18.52-7.68c-7.3-7.21-6.65-12.16-5.88-17.89
	c0.57-4.26,1.2-9.04-2.43-15.95c-4.41-8.41-6.72-14.64-4.97-21.8C43.2,85.17,48.77,77.67,60.11,66.72L60.11,66.72z"/>
<path class="st7" d="M98.1,63.9c-0.11-0.03-38.72-10.57-41.48,6.05c-1.35,8.17,2.23,12.21,5.25,15.61c4.05,4.57,7.3,8.22,1.28,16.56
	c-4.25,5.89-10.15,8.72-14.97,11.02c-2.21,1.06-4.17,2-5.47,3.02c-1.99,1.58-2.19,3.8,1.56,8.6c4.92,6.3,10.23,6.84,15.11,7.34
	c6.69,0.69,12.68,1.3,16.63,12.56c2.34,6.67,5.56,13.04,9.2,18.1c2.74,3.81,5.71,6.85,8.68,8.65c2.72,1.65,5.44,2.23,7.95,1.34
	c0.74-0.26,1.47-0.65,2.19-1.18c1.91-1.39,3.62-2.72,5.28-4c8.47-6.56,15.75-12.21,27.28-11.03c3.77,0.39,7.68,0.08,11.13-1.03
	c2.71-0.87,5.12-2.23,6.92-4.14c1.75-1.85,2.92-4.24,3.22-7.23c0.25-2.43-0.07-5.26-1.11-8.52c-4.08-12.85-1.57-17.73,1.62-23.92
	c1.44-2.8,3.03-5.89,4.1-10.25c0.62-2.53,1.41-4.83,2.16-7.01c0.66-1.92,1.28-3.74,1.68-5.38c1.56-6.36-0.22-11.36-17.29-15.59
	c-17.52-4.34-20.33-9.79-23.05-15.06c-1.54-2.99-3.04-5.91-8.29-8.43c-4.3-2.06-5.48-1.85-6-0.75c-0.28,0.58-0.5,1.33-0.76,2.15
	c-1.23,3.99-2.91,9.48-11.75,12.48l-0.53,0.18L98.1,63.9L98.1,63.9z M52.92,69.33c3.21-19.39,40.57-10.51,45.58-9.23
	c6.57-2.42,7.88-6.7,8.84-9.83c0.3-0.99,0.58-1.89,0.95-2.66c1.55-3.27,3.9-4.45,11.01-1.04c6.38,3.06,8.17,6.54,10.01,10.11
	c2.33,4.52,4.74,9.2,20.61,13.13c20.19,5,22.13,11.6,20.04,20.15c-0.46,1.87-1.1,3.74-1.77,5.7c-0.73,2.14-1.51,4.4-2.07,6.69
	c-1.17,4.8-2.87,8.1-4.41,11.08c-2.79,5.42-4.99,9.69-1.38,21.05c1.2,3.78,1.56,7.12,1.27,10.03c-0.39,3.89-1.94,7.02-4.23,9.46
	c-2.25,2.38-5.21,4.07-8.5,5.13c-3.95,1.27-8.38,1.63-12.63,1.19c-10.05-1.03-16.79,4.19-24.62,10.26
	c-1.76,1.36-3.57,2.77-5.37,4.08c-1.02,0.74-2.07,1.3-3.15,1.68c-3.67,1.3-7.46,0.56-11.14-1.66c-3.42-2.07-6.76-5.46-9.79-9.67
	c-3.85-5.35-7.24-12.06-9.7-19.06c-3.16-9-8.02-9.5-13.46-10.06c-5.64-0.58-11.8-1.21-17.69-8.76c-5.59-7.15-4.77-10.87-0.93-13.91
	c1.61-1.28,3.77-2.3,6.19-3.46c4.42-2.12,9.84-4.71,13.53-9.82c4.24-5.87,1.89-8.52-1.04-11.83C55.5,84.06,51.27,79.29,52.92,69.33
	L52.92,69.33z"/>
<path class="st7" d="M150.62,58.53c-2.67-0.72-44.05-11.64-64.41-0.36C74.25,64.8,71.52,70.9,69.17,76.18
	c-1.95,4.36-3.67,8.23-9.24,11.55c-5.2,3.1-6.74,6.81-6.22,11.14c0.57,4.75,3.48,10.42,6.92,16.81c3.24,6.01,2.09,12.85,0.98,19.46
	c-1.37,8.15-2.68,15.92,6.08,19.76c7.91,3.47,14.12-1.75,20.74-7.31c6.83-5.74,14.05-11.8,24.29-10.64c8,0.9,14.69,5.11,20.36,8.67
	c3.19,2,6.03,3.79,8.37,4.51c3.25,1,5.86-0.4,7.99-7.4c2.91-9.57,0.31-18.4-2.03-26.34c-2.96-10.04-5.53-18.79,2.5-26.74
	c3.41-3.38,5.87-6.84,7.4-10.2c1.58-3.45,2.18-6.8,1.83-9.81c-0.33-2.93-1.57-5.58-3.67-7.73C154.2,60.59,152.57,59.45,150.62,58.53
	L150.62,58.53z M84.4,54.86c22.35-12.39,67.19,0.02,67.32,0.05l0.13,0.04l0.16,0.08c2.45,1.13,4.51,2.57,6.15,4.25
	c2.71,2.77,4.3,6.17,4.73,9.94c0.42,3.69-0.29,7.71-2.16,11.81c-1.72,3.77-4.44,7.62-8.18,11.32c-6.43,6.36-4.15,14.1-1.53,22.99
	c2.49,8.45,5.26,17.84,2.01,28.5c-2.99,9.81-7.2,11.6-12.66,9.91c-2.85-0.88-5.88-2.78-9.27-4.91c-5.34-3.36-11.64-7.32-18.79-8.12
	c-8.65-0.98-15.24,4.55-21.47,9.78c-7.54,6.33-14.61,12.27-24.66,7.87c-11.45-5.02-9.91-14.2-8.29-23.84
	c1.01-5.98,2.05-12.17-0.58-17.04c-3.63-6.74-6.7-12.74-7.35-18.17c-0.7-5.85,1.29-10.81,8.05-14.84c4.54-2.71,6.04-6.06,7.72-9.83
	C68.34,68.82,71.34,62.1,84.4,54.86L84.4,54.86z"/>
<path class="st7" d="M121.05,66.03c-3.07,3.39-8.47,3.75-14.34,4.15c-9.74,0.65-20.98,1.41-20.19,18.79
	c0.65,14.35,7.28,17.96,12.86,21c6.1,3.33,11.17,6.09,8.89,17.49c-1.99,9.95-3,19.7-2.08,25.65c0.29,1.85,0.74,3.25,1.4,4.05
	c0.39,0.47,0.93,0.66,1.64,0.47c1.26-0.32,2.93-1.47,5.07-3.62c5.79-5.82,3.64-13.7,1.46-21.69c-2.52-9.26-5.08-18.64,2.74-26.53
	c6.95-7.01,7.5-9.96,5.14-12.33c-1.21-1.21-3.11-2.44-5.33-3.89c-1.84-1.2-3.89-2.53-6.02-4.14c-5.4-4.1-6.59-6.44-5.07-8.46
	c0.96-1.28,2.87-1.75,5.41-2.38c2.33-0.58,5.31-1.32,8.11-2.8c3.19-1.68,4.82-3.94,5.1-5.7c0.07-0.45,0.05-0.82-0.07-1.08
	c-0.07-0.15-0.18-0.27-0.35-0.33C124.61,64.38,123.17,64.7,121.05,66.03L121.05,66.03z M106.46,66.41
	c5.17-0.35,9.92-0.67,11.93-3.05l0.18-0.22l0.24-0.15c3.37-2.18,6.1-2.54,7.95-1.81c1.13,0.44,1.95,1.25,2.42,2.3
	c0.42,0.93,0.54,2.04,0.35,3.23c-0.44,2.76-2.72,6.16-7.07,8.45c-3.22,1.7-6.43,2.5-8.95,3.12c-1.8,0.45-3.15,0.78-3.31,0.99
	c-0.04,0.05,1.16,0.76,4.34,3.17c2.04,1.54,4.01,2.83,5.79,3.98c2.4,1.56,4.45,2.89,5.95,4.39c4.13,4.14,3.94,8.51-5.12,17.66
	c-6.29,6.35-4.02,14.67-1.79,22.88c2.47,9.05,4.9,17.99-2.42,25.36c-2.64,2.65-4.89,4.12-6.8,4.61c-2.3,0.59-4.1-0.07-5.46-1.73
	c-1.1-1.34-1.82-3.35-2.2-5.88c-0.99-6.4,0.05-16.63,2.11-26.96c1.73-8.67-2.23-10.83-7-13.43c-6.44-3.51-14.08-7.67-14.83-24.17
	C81.82,68.06,95.02,67.18,106.46,66.41L106.46,66.41z"/>
<path class="st7" d="M70.94,115.3c1.17-3.06,3.75-9.13,10.22-14.22c6.39-5.02,16.53-9.05,32.79-8.13c14.77,0.84,25.8-0.7,32.22-4.27
	c1.92-1.07,3.4-2.31,4.4-3.72c0.96-1.34,1.49-2.85,1.59-4.52c0.13-2.4-0.62-5.16-2.34-8.28l3.28-1.83
	c2.07,3.76,2.98,7.21,2.81,10.32c-0.13,2.41-0.91,4.58-2.29,6.51c-1.33,1.86-3.22,3.47-5.62,4.81c-7.03,3.92-18.77,5.62-34.25,4.75
	c-15.17-0.86-24.49,2.79-30.27,7.33c-5.7,4.48-7.99,9.87-9.03,12.59L70.94,115.3L70.94,115.3z"/>
<path class="st7" d="M105.57,43.17c-0.14,0.03-47.68,10.87-34.1,35.86c3.23,5.95,6.52,11.35,9.5,16.26
	c10.93,17.98,17.96,29.54,6.48,41.16l-2.66-2.66c9.41-9.51,2.97-20.09-7.02-36.53c-2.98-4.9-6.27-10.31-9.59-16.42
	c-15.98-29.4,36.39-41.31,36.54-41.35L105.57,43.17L105.57,43.17z"/>
<path class="st7" d="M49.85,143.68c0.01-0.11,1.82-38.25,42.04-29.55c15.43,3.34,25.73,7.32,33.11,10.18
	c9.96,3.85,14.08,5.44,18.6,0.03c3.27-3.91,4.72-11.31,6.05-18.06c1.18-5.99,2.26-11.5,4.59-14.44c2.44-3.08,5.7-3.58,10.56,0.3
	l-2.34,2.96c-2.7-2.16-4.29-2.17-5.28-0.91c-1.75,2.22-2.75,7.3-3.84,12.82c-1.42,7.2-2.97,15.1-6.86,19.76
	c-6.24,7.48-11.09,5.6-22.82,1.07c-7.24-2.8-17.35-6.71-32.56-10c-35.9-7.77-37.5,25.98-37.51,26.08L49.85,143.68L49.85,143.68z"/>
<path class="st7" d="M58.42,93.72c-0.01,0.13-2.74,43.89,25.51,50c15.01,3.25,27.22,0.88,36.98-1.02c9.81-1.9,17.3-3.36,23.3,1.38
	c1.73,1.37,3.54,1.81,5.27,1.55c1.92-0.29,3.82-1.42,5.52-3.13c1.8-1.81,3.34-4.23,4.44-6.99c2.07-5.22,2.51-11.58-0.02-17.15
	l3.41-1.57c2.99,6.59,2.5,14.03,0.09,20.11c-1.28,3.24-3.12,6.11-5.28,8.28c-2.25,2.26-4.88,3.78-7.62,4.19
	c-2.73,0.41-5.52-0.25-8.14-2.32c-4.65-3.67-11.42-2.36-20.28-0.64c-10.09,1.96-22.72,4.41-38.47,1
	c-31.43-6.8-28.49-53.77-28.48-53.9L58.42,93.72L58.42,93.72z"/>
<path class="st8" d="M135.44,77.57c0,0,9.29-0.42,10.79,0.58c1.49,1,0.28,4.87-0.32,6.52c-0.6,1.66-1.95,3-2.09,5.83
	c-0.14,2.83,0.87,6.95,0.81,9.85c-0.06,2.9,2.5,7.48-0.13,7.32c-2.63-0.16-6.74,0.99-10.25,0.02c-3.51-0.96-1.25-3.82-1.88-9.44
	c-0.62-5.61-0.58-8.84,0.83-12.68C134.61,81.74,133.87,78.66,135.44,77.57L135.44,77.57z"/>
<path class="st5" d="M142.46,94.31c-0.11,0.43,0.05,6.74,0.92,8.92c0.88,2.19,1.21,3.65,0.46,3.31c-0.75-0.33-1.35-2.19-1.76-4.34
	c-0.42-2.15,0-4.68-0.12-6.34C141.85,94.2,142.37,93.57,142.46,94.31L142.46,94.31z M139.28,97c0,0,0.88,7.29,1.06,8.59
	c0.18,1.29-0.63,1.76-0.67,1.32c-0.03-0.44-0.1-3.19-0.37-4.63c-0.27-1.44-0.72-4.19-0.5-5.42C139.03,95.62,139.28,97,139.28,97
	L139.28,97z M137.1,79.19c0,0,0.16,4.3-1.58,8.14c-1.74,3.84-1.02,9.96-1.16,13.35c-0.14,3.39-0.73,4.96-0.54,4.86
	c0.19-0.1,1.37-0.22,1.35-3.63c-0.02-3.41-0.25-10.14,0.41-11.64C136.25,88.77,138.62,79.05,137.1,79.19L137.1,79.19z M140.19,82.68
	c-0.25,0.17-1.95,4.26-2.61,7.8c-0.66,3.55-0.82,4.76-0.66,7.05c0.16,2.29-0.86,7.32-0.57,7.45c0.29,0.12,1.15-0.44,1.24-3.4
	c0.08-2.96-0.29-6.13,0.21-8.55c0.5-2.42,1.29-6.38,1.91-7.68C140.32,84.06,141.48,80.43,140.19,82.68L140.19,82.68z M142.97,79.22
	c0,0,0.08,3.34-0.91,6.13c-1,2.8-1.95,6.59-1.95,9.68c0,3.09,0.12,3.92,0.41,4c0.29,0.08,0.25-0.88,0.33-2.75
	c0.08-1.88,0.21-5.72,1-7.84c0.79-2.13,1.48-3.57,1.5-5.55C143.38,80.91,143.68,78.18,142.97,79.22L142.97,79.22z"/>
<path class="st8" d="M87.05,159.24c0,0,1.68-12.31,3.33-14.03c1.66-1.72,6.39,0.8,8.39,1.97c2.01,1.18,3.43,3.28,7.07,4.14
	c3.64,0.86,9.23,0.52,12.99,1.29c3.75,0.77,10.32-1.5,9.48,1.92c-0.84,3.41-0.33,9.09-2.42,13.47c-2.09,4.38-5.26,0.73-12.7,0.21
	c-7.44-0.52-11.63-1.35-16.27-4.12C92.27,161.32,88.08,161.57,87.05,159.24L87.05,159.24z"/>
<path class="st5" d="M110.46,154.02c0.53,0.24,8.76,1.54,11.81,0.92c3.05-0.63,5.02-0.71,4.41,0.19c-0.61,0.9-3.17,1.25-6.06,1.28
	c-2.89,0.03-6.08-1.12-8.27-1.36C110.17,154.79,109.48,153.96,110.46,154.02L110.46,154.02z M113.19,158.83c0,0,9.68,0.59,11.4,0.66
	c1.72,0.07,2.13,1.25,1.56,1.19c-0.58-0.06-4.17-0.63-6.1-0.62c-1.93,0.01-5.62-0.05-7.16-0.64
	C111.34,158.83,113.19,158.83,113.19,158.83L113.19,158.83z M89.55,157.44c0,0,5.63,0.81,10.2,4.02c4.57,3.21,12.69,3.72,17.06,4.71
	c4.37,0.99,6.27,2.14,6.18,1.87c-0.09-0.27,0.04-1.85-4.39-2.64c-4.43-0.79-13.23-2.09-15.02-3.32
	C101.79,160.85,89.73,155.42,89.55,157.44L89.55,157.44z M94.82,154.22c0.16,0.37,5.06,3.58,9.51,5.3c4.45,1.72,5.99,2.21,9,2.56
	c3.01,0.34,9.3,2.87,9.53,2.53c0.23-0.34-0.29-1.62-4.12-2.43c-3.83-0.82-8.03-1.08-11.06-2.31c-3.02-1.23-7.98-3.21-9.51-4.34
	C96.64,154.38,92.2,151.99,94.82,154.22L94.82,154.22z M90.99,149.74c0,0,4.35,0.69,7.75,2.66c3.39,1.98,8.1,4.14,12.11,4.87
	c4.01,0.74,5.12,0.77,5.3,0.41c0.18-0.36-1.08-0.54-3.5-1.09c-2.42-0.56-7.37-1.64-9.95-3.18c-2.58-1.54-4.28-2.79-6.85-3.3
	C93.28,149.61,89.8,148.57,90.99,149.74L90.99,149.74z"/>
<path class="st9" d="M107.07,58.23c0,0,11.21-5.21,14.61,7.63c3.4,12.83,10.86,2.57,12.98,10.25c2.12,7.68-6.39,4.55-10.52,11.37
	c-4.13,6.82-6.18,19.87-12.42,12.66c-6.25-7.21-4.92-15.28-12.18-11.74c-7.26,3.53-15.21-4.63-11.14-10.5
	c4.07-5.87-2.58-12.77,1.74-15.75C94.47,59.17,101.29,52.93,107.07,58.23L107.07,58.23z"/>
<path class="st10" d="M108.1,59.46c0,0,3.44-0.71,4.85,0.21c1.41,0.92-0.83,1.99-1.58,6.09c-0.74,4.1-0.93,8.86-1.34,9.6
	c-0.41,0.74-0.99-2.68-1.11-5.68c-0.12-3-0.88-4.41-1.08-6.13C107.66,61.83,107.56,59.84,108.1,59.46L108.1,59.46z M107.81,80.7
	c0.66-0.04,0.95,2.96,4.85,2.38c3.9-0.58,11.28-5.92,12.16-3.71c0.87,2.21-4.85,3.25-5.73,5.51c-0.87,2.25-0.87,9.97-3.73,9.76
	c-2.86-0.21-4.77-6.72-8.38-8.47C103.37,84.41,103.33,79.7,107.81,80.7L107.81,80.7z M92.42,65.93c0,0,2.41,2.17,5.85,4.84
	c3.44,2.67,9.62,3.38,8.3,5.01c-1.33,1.63-6.43,0.33-7.92,2.8c-1.49,2.46,1.41,4.63-1.87,5.55c-3.28,0.92-8.01,1.75-6.6-2.67
	c1.41-4.42,3.1-4.35,1.84-7.72C90.76,70.35,89.27,63.39,92.42,65.93L92.42,65.93z"/>
<path class="st11" d="M67.51,104.93c0.04,0.11,12.57,37.61,18.17,40.92l-2.53,4.34c-7.23-4.26-20.35-43.54-20.39-43.66L67.51,104.93
	L67.51,104.93z"/>
<path class="st11" d="M56.53,75.23c0.08-0.01,27.65-5.2,44.01-2.46l-0.82,4.97c-15.5-2.6-42.2,2.42-42.28,2.44L56.53,75.23
	L56.53,75.23z"/>
<path class="st11" d="M129.18,88.16c-0.01,0.1-2.68,33.26,2.39,39.59l-3.9,3.15c-6.33-7.91-3.49-43.03-3.48-43.14L129.18,88.16
	L129.18,88.16z"/>
<path class="st11" d="M102.86,159.26c0.1-0.05,35.87-17.88,37.76-17.88v5.05c-0.76,0-35.44,17.3-35.54,17.35L102.86,159.26
	L102.86,159.26z"/>
<path class="st11" d="M104.87,47.01c0.09,0.03,30.98,11.94,40.27,26.08l-4.17,2.78c-8.41-12.81-37.82-24.14-37.9-24.17L104.87,47.01
	L104.87,47.01z"/>
<path class="st9" d="M95.8,117.23c-5.25-0.26-15.83-5.15-19.54-1.38c-3.71,3.77,4.78,4.87,0.27,8.94
	c-4.51,4.07-16.41,8.83-4.58,12.72c11.83,3.89,2.7-7.65,15.33-0.2c12.63,7.45,17.9,2.9,14.01-5.22
	C97.4,123.97,105.85,115.03,95.8,117.23L95.8,117.23z"/>
<path class="st10" d="M98.51,120.75c0,0-1.62,4.42-0.12,9.05c1.49,4.63,2.2,7.36-0.87,7.54c-3.07,0.18-3.98-4.46-9.03-5.02
	c-5.04-0.56-5.83,1.69-9.23,1.11c-3.4-0.58-1.53-4.51,3.48-4.51s10.95,3.3,11.49,1.04c0.54-2.25-1.45-4.46-1.53-6.38
	c-0.08-1.92-4.04-2.22-6.51-3.38c-2.48-1.16,2.86-2.54,7.18-0.63C97.68,121.5,97.28,116.97,98.51,120.75L98.51,120.75z"/>
<path class="st12" d="M155.23,84.08c0,0,10.24-2.06,12.23-0.48c1.99,1.59,4.25,14.02,2.32,21.36c-1.93,7.34-6.54,12.72-10.11,12.79
	c-3.58,0.06-9.95-2.04-9.26-4.47C151.11,110.85,158.84,107.38,155.23,84.08L155.23,84.08z"/>
<path class="st13" d="M159.29,84.63c0.01,0.03,2.99,10.01,0.05,17.96c-2.9,7.85-6.02,11.76-6.03,11.77l-0.98-0.78
	c0.01-0.01,3.01-3.76,5.83-11.43c2.79-7.56-0.07-17.14-0.08-17.17L159.29,84.63L159.29,84.63z"/>
<path class="st13" d="M161.96,87.07c0.01,0,3.7,0.58,5.95-0.45l0.52,1.14c-2.59,1.19-6.65,0.55-6.66,0.55L161.96,87.07L161.96,87.07
	z M157.05,112.35c0.01,0,3.7,0.58,5.95-0.45l0.52,1.14c-2.59,1.19-6.65,0.55-6.66,0.55L157.05,112.35L157.05,112.35z M159.37,107.51
	c0.01,0,3.7,0.58,5.95-0.45l0.52,1.14c-2.59,1.19-6.65,0.55-6.66,0.55L159.37,107.51L159.37,107.51z M161.61,103.04
	c0.01,0,3.7,0.58,5.95-0.45l0.52,1.14c-2.59,1.19-6.65,0.55-6.66,0.55L161.61,103.04L161.61,103.04z M162.78,96.46
	c0.01,0,3.7,0.58,5.95-0.45l0.52,1.14c-2.59,1.19-6.65,0.55-6.66,0.55L162.78,96.46L162.78,96.46z M162.47,91.31
	c0.01,0,3.7,0.58,5.95-0.45l0.52,1.14c-2.59,1.19-6.65,0.55-6.66,0.55L162.47,91.31L162.47,91.31z"/>
<path class="st12" d="M77.15,148.23c0,0-3.79,9.79-6.19,10.62c-2.4,0.83-14.03-3.95-19.15-9.54c-5.11-5.59-7.14-12.39-5.27-15.46
	c1.87-3.06,7.06-7.33,8.73-5.44C56.94,130.32,55.69,138.73,77.15,148.23L77.15,148.23z"/>
<path class="st13" d="M74.51,151.37c-0.03-0.01-10-2.86-15.08-9.63c-5.02-6.68-6.61-11.43-6.61-11.45l1.18-0.41
	c0,0.01,1.53,4.57,6.43,11.1c4.83,6.44,14.4,9.17,14.43,9.18L74.51,151.37L74.51,151.37z"/>
<path class="st13" d="M71.02,152.32c-0.01,0.01-2.48,2.83-2.83,5.29l-1.24-0.18c0.4-2.83,3.12-5.93,3.13-5.94L71.02,152.32
	L71.02,152.32z M52.48,134.54c-0.01,0.01-2.48,2.83-2.83,5.29l-1.24-0.18c0.4-2.83,3.12-5.93,3.13-5.94L52.48,134.54L52.48,134.54z
	 M55.29,139.12c-0.01,0.01-2.48,2.83-2.83,5.29l-1.24-0.18c0.4-2.83,3.12-5.93,3.13-5.94L55.29,139.12L55.29,139.12z M57.83,143.43
	c-0.01,0.01-2.48,2.83-2.83,5.29l-1.24-0.18c0.4-2.83,3.12-5.93,3.13-5.94L57.83,143.43L57.83,143.43z M62.71,147.96
	c-0.01,0.01-2.48,2.83-2.83,5.28l-1.24-0.18c0.4-2.83,3.12-5.93,3.13-5.94L62.71,147.96L62.71,147.96z M67.19,150.46
	c-0.01,0.01-2.48,2.83-2.83,5.29l-1.24-0.18c0.4-2.83,3.12-5.93,3.13-5.94L67.19,150.46L67.19,150.46z"/>
<path class="st14" d="M90.13,97.22c0.05,0.08,17.85,28.14,25.68,30.1l-1.21,4.88c-9.79-2.46-28.63-32.18-28.68-32.26L90.13,97.22
	L90.13,97.22z"/>
<path class="st14" d="M55.09,118.95c0.05,0.08,17.85,28.14,25.68,30.1l-1.21,4.88c-9.79-2.46-28.63-32.18-28.69-32.26L55.09,118.95
	L55.09,118.95z"/>
<path class="st14" d="M109.56,79.14c0.08-0.01,27.65-5.2,44.01-2.46l-0.82,4.97c-15.5-2.6-42.2,2.42-42.28,2.44L109.56,79.14
	L109.56,79.14z"/>
<path class="st14" d="M133.37,98.3c0.09,0.03,30.98,11.94,40.27,26.08l-4.17,2.78c-8.41-12.81-37.82-24.14-37.9-24.17L133.37,98.3
	L133.37,98.3z"/>
<path class="st14" d="M91.86,49.33c-0.05,0.08-17.59,28.3-15.98,36.26l-4.91,1c-2-9.95,16.58-39.83,16.63-39.92L91.86,49.33
	L91.86,49.33z"/>
<path class="st15" d="M75.21,160.83c0.03-0.04,9.53-14.29,24.16-15.9c12.24-1.35,23.19-10.31,23.22-10.34l3.92,4.9
	c-0.04,0.03-12.39,10.14-26.48,11.69c-11.71,1.29-19.63,13.15-19.65,13.19L75.21,160.83L75.21,160.83z"/>
<path class="st15" d="M50.33,85.66c0.05-0.01,16.76-3.45,28.3,5.73c9.66,7.68,23.71,9.03,23.75,9.03l-0.63,6.26
	c-0.05,0-15.9-1.52-27.02-10.36c-9.24-7.35-23.16-4.49-23.2-4.48L50.33,85.66L50.33,85.66z"/>
<path class="st15" d="M97.51,62.81c0.05-0.01,16.76-3.45,28.3,5.73c9.66,7.68,23.71,9.03,23.75,9.03l-0.63,6.26
	c-0.05,0-15.9-1.52-27.02-10.36c-9.24-7.35-23.16-4.49-23.2-4.48L97.51,62.81L97.51,62.81z"/>
<path class="st15" d="M124.59,101.34c0.04,0.03,14.19,9.62,15.75,24.33c1.31,12.31,10.2,23.34,10.23,23.37l-4.88,3.93
	c-0.03-0.04-10.06-12.48-11.57-26.65c-1.25-11.77-13.04-19.77-13.07-19.79L124.59,101.34L124.59,101.34z"/>
<path class="st8" d="M65.51,81.95c0,0-0.74,6.65,7.85,15.48c8.59,8.83,11.66,14.6,10.44,16.92c-1.22,2.32-9.33,7.65-11.1,8.43
	c-1.77,0.78-9.48-5.53-11.87-11.48c-2.38-5.96-2.01-7.78-6.48-11.49c-4.47-3.71-6.1-10.18-2.1-14.02
	C56.24,81.95,64.98,79.42,65.51,81.95L65.51,81.95z"/>
<path class="st5" d="M51.6,93.17c1.16,0.75,8.72,7.03,10.16,10.02c1.44,2.99,2.08,7.5,4.78,10.38c2.71,2.88,4.39,2.94,3.49,3.38
	c-0.9,0.44-5.39-2.78-8.1-8.42c-2.71-5.64-2.12-7.16-6.02-9.96S50.3,92.02,51.6,93.17L51.6,93.17z M55.18,86.62
	c0,0,2.06,10.52,8.07,13.69c6.01,3.18,10.31,7.13,13.29,10.73c2.98,3.6,4,5.55,3.03,4.84c-0.97-0.72-3.43-3.73-6.46-6.24
	c-3.03-2.51-4.98-4.39-5.59-3.9c-0.61,0.49,3.36,5.67,5.65,8.07c2.29,2.4,3.32,5.23,2.37,4.81c-0.95-0.42-5.09-5.69-6.84-7.99
	c-1.75-2.3-1.96-4.04-2.76-5.88c-0.79-1.84-2.93-2.19-5.72-4.91C57.43,97.14,52.54,84.35,55.18,86.62L55.18,86.62z M59.88,83.7
	c0.49,1.46,0.99,8.53,4.55,12.41c3.57,3.88,2.36,4.17,0.53,2.53c-1.84-1.64-4.25-5.24-5.28-8.53C58.64,86.82,58.09,82.91,59.88,83.7
	L59.88,83.7z M61.98,83.73c0,0,2.01,9.01,8.97,14.65c6.96,5.64,12.03,14.99,10.85,15.43c-1.18,0.44-4.99-8.47-8.13-10.94
	c-3.14-2.47-7.76-5.8-9.89-10.07C61.64,88.53,60.71,82.6,61.98,83.73L61.98,83.73z"/>
<path class="st9" d="M104.73,102.58c0,0,3.07-0.75,11.7,2.34c8.63,3.09,9.61-2.79,15.18,0.02c5.57,2.81,10.35,6.5,3.94,9.83
	c-6.42,3.33-4.18,5.5-6.91,10.42c-2.74,4.92-8.06,11.84-12.12,3.63c-4.06-8.22-5.26-4.75-10.43-6.3c-5.17-1.56-0.35-8.67,0.73-11.68
	c1.08-3-3.65-1.42-4.73-4.84C101,102.58,104.73,102.58,104.73,102.58L104.73,102.58z"/>
<path class="st10" d="M108.66,106.61c0,0,2.75,2.65,9.97,2.48c7.22-0.17,10.12-2.67,11.37-0.58c1.24,2.09-4.65,2.42-8.71,3.5
	c-4.07,1.08,0.09,2.15-5.99,4.9c-6.07,2.76-12.18,1.27-8.12-1.82c4.07-3.09,2.81-5.59,1.03-6.53
	C106.43,107.63,104.81,103.62,108.66,106.61L108.66,106.61z M126.95,118.3c0,0-1.11,7.77-3.6,9.86c-2.49,2.09-1.78-5.07-4.33-6.18
	C116.46,120.86,123.43,112.66,126.95,118.3L126.95,118.3z"/>
</svg>
