<?xml version="1.0" encoding="UTF-8"?>
<svg id="Layer_2" data-name="Layer 2" xmlns="http://www.w3.org/2000/svg" viewBox="0 0 96.18 95.21">
  <defs>
    <style>
      .cls-1, .cls-2, .cls-3, .cls-4, .cls-5, .cls-6 {
        stroke-width: 0px;
      }

      .cls-2 {
        fill: #525154;
      }

      .cls-3 {
        fill: #2f292b;
      }

      .cls-4 {
        fill: #c8e685;
      }

      .cls-5 {
        fill: #bad674;
      }

      .cls-6 {
        fill: #678412;
      }
    </style>
  </defs>
  <g>
    <path class="cls-3" d="m7.56,47.33C7.56,25.08,25.77,7.05,48.24,7.05s40.68,18.03,40.68,40.27-18.21,40.27-40.68,40.27S7.56,69.56,7.56,47.33Z"/>
    <path class="cls-2" d="m48.09,1.66C22.46,1.66,1.68,22.23,1.68,47.6s20.78,45.94,46.41,45.94,46.41-20.57,46.41-45.94S73.73,1.66,48.09,1.66Zm0,82.22c-20.24,0-36.65-16.24-36.65-36.28S27.85,11.33,48.09,11.33s36.65,16.24,36.65,36.28-16.41,36.28-36.65,36.28Z"/>
    <path class="cls-3" d="m49.77,1.66C24.14,1.66,3.36,22.23,3.36,47.6s20.78,45.94,46.41,45.94,46.41-20.57,46.41-45.94S75.41,1.66,49.77,1.66Zm-3.36,88.64c-22.47,0-40.68-18.03-40.68-40.26S23.95,9.78,46.41,9.78c9.91,0,18.99,3.51,26.05,9.34,5.15,4.02,9.17,9.38,11.55,15.55,1.98,4.74,3.08,9.93,3.08,15.38,0,22.24-18.21,40.26-40.68,40.26Z"/>
    <path class="cls-1" d="m48.09,95.21C21.57,95.21,0,73.85,0,47.6S21.57,0,48.09,0s48.09,21.35,48.09,47.6-21.57,47.61-48.09,47.61Zm0-91.89C23.42,3.32,3.36,23.19,3.36,47.6s20.07,44.28,44.73,44.28,44.74-19.86,44.74-44.28S72.76,3.32,48.09,3.32Z"/>
  </g>
  <g>
    <g>
      <path class="cls-5" d="m62.79,18.77c-10.68-1.15-24.65,17.6-18.63,27.24,3.41,5.46,11.42,6.7,17.12,8.41,8.02,2.4,15.96-6.54,18.71-13.75,4.22-11.06-6.73-20.78-17.2-21.9Z"/>
      <g>
        <path class="cls-6" d="m61.28,54.42c.06.02.13.03.19.05-.68-.2-1.4-.4-2.14-.6.67.18,1.33.36,1.95.55Z"/>
        <path class="cls-6" d="m44.16,46.01c2.79,4.46,8.62,6.1,13.78,7.49-4.39-1.19-9.19-2.68-11.54-6.43-5.32-8.5,7.02-25.04,16.43-24.02,9.23.99,18.89,9.56,15.17,19.31-2.04,5.35-7.33,11.78-13.17,12.42,6.71-.59,12.81-7.97,15.15-14.11,4.22-11.06-6.73-20.77-17.2-21.9-10.68-1.15-24.66,17.6-18.63,27.24Z"/>
      </g>
      <path class="cls-4" d="m65.09,38.86c-.72,3.34.65,7.05-.65,10.22-3.7-.95-6.17-8.23-7.29-11.61-1.49-4.5-1.24-8.81,4.72-8.23,5.36.52,4.06,5.71,3.21,9.63Z"/>
    </g>
    <g>
      <path class="cls-5" d="m39.28,40.21c-10.68-1.15-24.66,17.6-18.63,27.24,3.41,5.46,11.42,6.7,17.12,8.41,8.02,2.4,15.96-6.54,18.71-13.75,4.22-11.06-6.73-20.78-17.2-21.9Z"/>
      <g>
        <path class="cls-6" d="m37.77,75.86c.06.02.13.03.19.05-.68-.2-1.41-.4-2.14-.6.67.18,1.32.36,1.95.55Z"/>
        <path class="cls-6" d="m20.65,67.46c2.78,4.46,8.63,6.1,13.78,7.48-4.39-1.19-9.19-2.68-11.54-6.43-5.31-8.5,7.02-25.04,16.43-24.02,9.23.99,18.89,9.56,15.17,19.31-2.04,5.35-7.33,11.78-13.17,12.43,6.71-.59,12.81-7.97,15.15-14.11,4.22-11.06-6.73-20.78-17.2-21.9-10.68-1.15-24.66,17.6-18.63,27.24Z"/>
      </g>
      <path class="cls-4" d="m41.58,60.31c-.72,3.34.65,7.05-.65,10.22-3.7-.95-6.17-8.23-7.29-11.61-1.49-4.5-1.23-8.81,4.73-8.23,5.36.52,4.06,5.71,3.21,9.63Z"/>
    </g>
    <g>
      <path class="cls-5" d="m68.17,71.92c8.37-.98,15.73-17.74,9.41-24.06-3.58-3.58-9.91-3.14-14.58-3.45-6.56-.44-11.04,7.77-11.86,13.76-1.26,9.19,8.83,14.71,17.03,13.75Z"/>
      <g>
        <path class="cls-6" d="m63,44.41c-.05,0-.1,0-.16,0,.56.04,1.14.06,1.74.09-.54-.02-1.08-.05-1.59-.08Z"/>
        <path class="cls-6" d="m77.58,47.86c-2.92-2.92-7.68-3.17-11.86-3.33,3.57.15,7.5.45,9.96,2.91,5.57,5.58-.92,20.36-8.3,21.22-7.23.85-16.14-4.02-15.02-12.13.61-4.44,3.51-10.28,7.86-11.78-5.02,1.61-8.38,8.32-9.08,13.42-1.27,9.19,8.83,14.71,17.03,13.75,8.37-.98,15.72-17.74,9.41-24.06Z"/>
      </g>
      <path class="cls-4" d="m62.85,56.96c-.04-2.68-1.75-5.27-1.32-7.92,3,.08,6.17,5.22,7.63,7.61,1.94,3.18,2.51,6.52-2.15,7.11-4.19.53-4.11-3.66-4.16-6.8Z"/>
    </g>
    <g>
      <path class="cls-5" d="m53.33,66.44c10.67-1.25,20.05-22.61,12-30.68-4.56-4.57-12.64-4-18.59-4.4-8.36-.56-14.08,9.91-15.13,17.55-1.61,11.72,11.26,18.76,21.71,17.53Z"/>
      <g>
        <path class="cls-6" d="m46.74,31.35c-.07,0-.13,0-.2,0,.71.05,1.46.08,2.23.11-.69-.03-1.38-.06-2.03-.11Z"/>
        <path class="cls-6" d="m65.33,35.76c-3.72-3.73-9.79-4.04-15.12-4.24,4.54.19,9.56.58,12.7,3.71,7.1,7.11-1.18,25.96-10.58,27.06-9.22,1.08-20.58-5.13-19.15-15.46.78-5.67,4.48-13.11,10.02-15.03-6.41,2.06-10.68,10.61-11.58,17.1-1.61,11.72,11.26,18.76,21.71,17.53,10.66-1.25,20.05-22.61,12-30.68Z"/>
      </g>
      <path class="cls-4" d="m46.55,47.36c-.05-3.42-2.23-6.73-1.68-10.1,3.82.1,7.87,6.65,9.73,9.7,2.47,4.06,3.2,8.32-2.74,9.07-5.34.68-5.25-4.66-5.31-8.67Z"/>
    </g>
    <g>
      <path class="cls-5" d="m53.32,33.56c2.08-10.82-16.31-26.68-26.88-21.32-5.98,3.04-7.95,11.11-10.2,16.8-3.18,8,5.49,16.86,12.79,20.28,11.19,5.24,22.24-5.15,24.29-15.76Z"/>
      <g>
        <path class="cls-6" d="m16.23,29.04c-.02.06-.04.13-.07.19.27-.68.53-1.4.8-2.14-.24.67-.49,1.33-.74,1.95Z"/>
        <path class="cls-6" d="m26.44,12.23c-4.88,2.48-7.09,8.31-8.96,13.47,1.6-4.39,3.56-9.17,7.68-11.26,9.32-4.72,25.54,9.26,23.7,18.81-1.8,9.36-11.55,18.52-21.42,13.9-5.41-2.53-11.68-8.48-11.87-14.5.05,6.91,7.25,13.76,13.45,16.67,11.19,5.24,22.25-5.15,24.29-15.76,2.09-10.82-16.31-26.68-26.87-21.32Z"/>
      </g>
      <path class="cls-4" d="m32.15,34.23c-3.43-1.02-7.41.08-10.61-1.52,1.3-3.71,9.1-5.62,12.73-6.48,4.82-1.15,9.3-.53,8.2,5.52-1,5.44-6.3,3.67-10.31,2.48Z"/>
    </g>
  </g>
</svg>