<?xml version="1.0" encoding="UTF-8"?>
<svg id="Layer_2" data-name="Layer 2" xmlns="http://www.w3.org/2000/svg" xmlns:xlink="http://www.w3.org/1999/xlink" viewBox="0 0 221.84 220.04">
  <defs>
    <style>
      .cls-1 {
        fill: url(#linear-gradient);
      }

      .cls-1, .cls-2, .cls-3, .cls-4, .cls-5, .cls-6, .cls-7, .cls-8, .cls-9, .cls-10, .cls-11, .cls-12, .cls-13, .cls-14, .cls-15, .cls-16, .cls-17, .cls-18, .cls-19, .cls-20 {
        stroke-width: 0px;
      }

      .cls-2 {
        fill: url(#linear-gradient-4);
      }

      .cls-3 {
        fill: url(#linear-gradient-2);
      }

      .cls-4 {
        fill: url(#linear-gradient-3);
      }

      .cls-5 {
        fill: url(#linear-gradient-8);
      }

      .cls-6 {
        fill: url(#linear-gradient-7);
      }

      .cls-7 {
        fill: url(#linear-gradient-5);
      }

      .cls-8 {
        fill: url(#linear-gradient-6);
      }

      .cls-10 {
        fill: #525154;
      }

      .cls-11 {
        fill: #85d014;
      }

      .cls-12 {
        fill: #972000;
      }

      .cls-13 {
        fill: #2f292b;
      }

      .cls-14 {
        fill: #355403;
      }

      .cls-15 {
        fill: #c8e685;
      }

      .cls-16 {
        fill: #d9c780;
      }

      .cls-17 {
        fill: #bad674;
      }

      .cls-18 {
        fill: #9fbb40;
      }

      .cls-19 {
        fill: #678412;
      }

      .cls-20 {
        fill: #681700;
      }
    </style>
    <linearGradient id="linear-gradient" x1="1210.23" y1="106.56" x2="1219.64" y2="106.56" gradientTransform="translate(1527.11 -243.49) rotate(170.73) scale(1.18 -1)" gradientUnits="userSpaceOnUse">
      <stop offset="0" stop-color="#67a842"/>
      <stop offset="1" stop-color="#40732a"/>
    </linearGradient>
    <linearGradient id="linear-gradient-2" x1="-13955.08" y1="-448.79" x2="-13762.18" y2="-448.79" gradientTransform="translate(-285 920.47) rotate(135.05) scale(.08 -.76) skewX(-82.69)" xlink:href="#linear-gradient"/>
    <linearGradient id="linear-gradient-3" x1="9582.89" y1="547.44" x2="9777.66" y2="547.44" gradientTransform="translate(520.78 571.04) rotate(-93.58) scale(.08 -.76) skewX(-82.69)" xlink:href="#linear-gradient"/>
    <linearGradient id="linear-gradient-4" x1="9448.98" y1="434.35" x2="9643.73" y2="434.35" gradientTransform="translate(520.78 571.04) rotate(-93.58) scale(.08 -.76) skewX(-82.69)" xlink:href="#linear-gradient"/>
    <linearGradient id="linear-gradient-5" x1="8723.41" y1="467.6" x2="8918.15" y2="467.6" gradientTransform="translate(520.78 571.04) rotate(-93.58) scale(.08 -.76) skewX(-82.69)" xlink:href="#linear-gradient"/>
    <linearGradient id="linear-gradient-6" x1="10410.36" y1="575.25" x2="10605.13" y2="575.25" gradientTransform="translate(520.78 571.04) rotate(-93.58) scale(.08 -.76) skewX(-82.69)" xlink:href="#linear-gradient"/>
    <linearGradient id="linear-gradient-7" x1="9556.18" y1="512.94" x2="9750.95" y2="512.94" gradientTransform="translate(520.78 571.04) rotate(-93.58) scale(.08 -.76) skewX(-82.69)" xlink:href="#linear-gradient"/>
    <linearGradient id="linear-gradient-8" x1="10328.16" y1="496.45" x2="10522.94" y2="496.45" gradientTransform="translate(520.78 571.04) rotate(-93.58) scale(.08 -.76) skewX(-82.69)" xlink:href="#linear-gradient"/>
  </defs>
  <g>
    <ellipse class="cls-13" cx="111.27" cy="109.37" rx="93.83" ry="93.07"/>
    <path class="cls-10" d="m110.92,3.84C51.8,3.84,3.87,51.38,3.87,110.02s47.93,106.18,107.05,106.18,107.05-47.54,107.05-106.18S170.04,3.84,110.92,3.84Zm0,190.02c-46.68,0-84.52-37.54-84.52-83.84S64.24,26.18,110.92,26.18s84.52,37.53,84.52,83.84-37.84,83.84-84.52,83.84Z"/>
    <path class="cls-13" d="m114.79,3.84C55.67,3.84,7.74,51.38,7.74,110.02s47.93,106.18,107.05,106.18,107.05-47.54,107.05-106.18S173.91,3.84,114.79,3.84Zm-7.75,204.86c-51.81,0-93.82-41.66-93.82-93.06S55.23,22.6,107.05,22.6c22.86,0,43.79,8.11,60.07,21.58,11.87,9.29,21.17,21.68,26.65,35.93,4.57,10.95,7.09,22.95,7.09,35.54,0,51.39-42,93.06-93.82,93.06Z"/>
    <path class="cls-9" d="m110.92,220.04C49.76,220.04,0,170.68,0,110.02S49.76,0,110.92,0s110.92,49.35,110.92,110.02-49.76,110.02-110.92,110.02Zm0-212.36C54.03,7.68,7.74,53.59,7.74,110.02s46.28,102.34,103.18,102.34,103.18-45.91,103.18-102.34S167.81,7.68,110.92,7.68Z"/>
  </g>
  <g>
    <path class="cls-18" d="m131.86,61.5c-12.43-1.34-28.72,20.54-21.7,31.79,3.98,6.37,13.29,7.82,19.94,9.81,9.34,2.8,18.59-7.64,21.79-16.05,4.92-12.91-7.84-24.24-20.03-25.56Z"/>
    <g>
      <path class="cls-19" d="m130.1,103.1c.08.02.15.04.22.06-.8-.24-1.64-.47-2.5-.7.78.21,1.55.42,2.27.64Z"/>
      <path class="cls-14" d="m110.17,93.29c3.24,5.2,10.05,7.12,16.05,8.74-5.11-1.39-10.7-3.13-13.44-7.51-6.19-9.92,8.17-29.22,19.14-28.04,10.75,1.16,22.01,11.15,17.67,22.54-2.38,6.24-8.54,13.75-15.33,14.5,7.81-.68,14.91-9.3,17.65-16.46,4.92-12.91-7.84-24.24-20.03-25.56-12.43-1.34-28.72,20.54-21.7,31.79Z"/>
    </g>
    <path class="cls-15" d="m134.54,84.95c-.84,3.9.76,8.22-.75,11.92-4.31-1.1-7.19-9.6-8.49-13.55-1.73-5.25-1.44-10.29,5.5-9.61,6.25.61,4.73,6.66,3.74,11.23Z"/>
  </g>
  <g>
    <path class="cls-18" d="m38.05,81.39c-6.6,10.53,6.22,34.57,19.49,33.17,7.51-.79,12.87-8.5,17.55-13.57,6.59-7.13,1.12-19.92-5.13-26.43-9.6-9.99-25.43-3.5-31.9,6.83Z"/>
    <g>
      <path class="cls-19" d="m75.1,100.99c.05-.06.1-.12.15-.18-.56.61-1.13,1.26-1.72,1.93.53-.61,1.06-1.2,1.57-1.75Z"/>
      <path class="cls-14" d="m57.54,114.56c6.13-.64,10.83-5.89,14.89-10.56-3.48,3.97-7.48,8.21-12.65,8.76-11.7,1.23-23.01-19.96-17.18-29.25,5.71-9.11,19.67-14.84,28.14-6.03,4.64,4.83,8.79,13.59,6.53,19.99,2.76-7.28-1.99-17.36-7.31-22.91-9.6-9.99-25.43-3.49-31.9,6.83-6.6,10.54,6.22,34.57,19.48,33.17Z"/>
    </g>
    <path class="cls-15" d="m60.52,89.16c3.18,2.44,7.8,2.89,10.51,5.84-2.87,3.38-11.84,2.26-15.99,1.72-5.52-.73-9.97-3.17-6.34-9.08,3.26-5.32,8.09-1.34,11.83,1.52Z"/>
  </g>
  <g>
    <path class="cls-18" d="m95.13,125.2c-10.66-6.49-34.81,6.36-33.33,19.51.84,7.45,8.64,12.71,13.78,17.33,7.23,6.5,20.09,1,26.62-5.24,10.02-9.58,3.38-25.24-7.07-31.6Z"/>
    <g>
      <path class="cls-19" d="m75.58,162.05c.06.05.12.09.18.15-.62-.55-1.28-1.12-1.96-1.69.61.52,1.21,1.04,1.78,1.55Z"/>
      <path class="cls-14" d="m61.79,144.72c.69,6.08,6,10.7,10.73,14.71-4.02-3.42-8.32-7.37-8.9-12.49-1.31-11.6,20-22.93,29.4-17.21,9.22,5.61,15.07,19.43,6.24,27.88-4.84,4.63-13.65,8.8-20.12,6.59,7.36,2.7,17.5-2.07,23.05-7.38,10.02-9.58,3.38-25.24-7.07-31.6-10.66-6.49-34.82,6.36-33.33,19.51Z"/>
    </g>
    <path class="cls-15" d="m87.42,147.53c-2.45,3.17-2.87,7.75-5.83,10.46-3.42-2.83-2.35-11.73-1.82-15.85.7-5.49,3.14-9.91,9.12-6.34,5.38,3.2,1.4,8.02-1.46,11.74Z"/>
  </g>
  <g>
    <path class="cls-18" d="m170.08,81.15c-10.66-6.49-34.82,6.37-33.33,19.51.84,7.45,8.64,12.71,13.78,17.34,7.23,6.5,20.09.99,26.62-5.25,10.02-9.58,3.38-25.24-7.07-31.6Z"/>
    <g>
      <path class="cls-19" d="m150.53,118c.06.05.12.1.18.15-.61-.55-1.27-1.12-1.95-1.69.61.53,1.21,1.04,1.77,1.55Z"/>
      <path class="cls-14" d="m136.75,100.67c.68,6.08,6,10.7,10.73,14.71-4.02-3.42-8.32-7.37-8.9-12.49-1.31-11.6,20-22.93,29.4-17.21,9.22,5.61,15.07,19.42,6.24,27.87-4.85,4.63-13.65,8.8-20.12,6.59,7.36,2.7,17.5-2.07,23.05-7.38,10.02-9.58,3.38-25.24-7.07-31.6-10.66-6.49-34.82,6.36-33.33,19.51Z"/>
    </g>
    <path class="cls-15" d="m162.37,103.48c-2.44,3.17-2.87,7.75-5.83,10.46-3.42-2.83-2.35-11.73-1.82-15.85.7-5.48,3.14-9.91,9.12-6.34,5.38,3.2,1.4,8.02-1.47,11.74Z"/>
  </g>
  <g>
    <path class="cls-18" d="m112.4,145.95c-10.66-6.49-34.82,6.36-33.33,19.51.84,7.45,8.64,12.71,13.78,17.33,7.23,6.5,20.09,1,26.62-5.24,10.02-9.58,3.38-25.24-7.07-31.6Z"/>
    <g>
      <path class="cls-19" d="m92.84,182.81c.06.05.12.1.18.15-.61-.55-1.27-1.12-1.95-1.69.61.52,1.21,1.04,1.78,1.54Z"/>
      <path class="cls-14" d="m79.07,165.47c.68,6.08,6,10.7,10.73,14.71-4.02-3.42-8.32-7.37-8.9-12.49-1.31-11.6,20-22.93,29.4-17.21,9.22,5.61,15.07,19.43,6.23,27.87-4.84,4.63-13.65,8.8-20.12,6.59,7.35,2.7,17.5-2.07,23.05-7.38,10.02-9.58,3.38-25.24-7.07-31.6-10.66-6.49-34.82,6.36-33.33,19.51Z"/>
    </g>
    <path class="cls-15" d="m104.69,168.29c-2.44,3.17-2.87,7.75-5.83,10.46-3.42-2.83-2.35-11.73-1.82-15.85.7-5.48,3.14-9.9,9.12-6.34,5.38,3.2,1.4,8.02-1.47,11.74Z"/>
  </g>
  <g>
    <path class="cls-18" d="m136.04,99.24c-10.66-6.49-34.81,6.36-33.33,19.51.84,7.45,8.64,12.71,13.78,17.33,7.23,6.5,20.09,1,26.62-5.24,10.02-9.58,3.38-25.24-7.07-31.6Z"/>
    <g>
      <path class="cls-19" d="m116.49,136.09c.06.05.12.1.18.15-.62-.55-1.27-1.12-1.96-1.69.61.52,1.21,1.04,1.78,1.54Z"/>
      <path class="cls-14" d="m102.71,118.76c.69,6.08,6,10.7,10.73,14.71-4.02-3.42-8.32-7.37-8.9-12.49-1.31-11.6,20-22.93,29.4-17.21,9.22,5.61,15.07,19.42,6.23,27.87-4.84,4.63-13.65,8.8-20.11,6.59,7.35,2.7,17.49-2.07,23.05-7.38,10.02-9.58,3.38-25.24-7.07-31.6-10.66-6.49-34.81,6.36-33.33,19.51Z"/>
    </g>
    <path class="cls-15" d="m128.33,121.57c-2.44,3.17-2.86,7.75-5.83,10.46-3.42-2.83-2.35-11.73-1.82-15.85.71-5.49,3.14-9.91,9.12-6.34,5.38,3.2,1.39,8.02-1.47,11.74Z"/>
  </g>
  <g>
    <path class="cls-18" d="m147.96,172.23c10.64-6.52,9.93-33.7-2.58-38.3-7.08-2.61-15.33,1.93-21.81,4.41-9.1,3.48-9.94,17.35-7.25,25.94,4.12,13.19,21.21,14.35,31.63,7.96Z"/>
    <g>
      <path class="cls-19" d="m123.58,138.33c-.08.03-.14.06-.21.09.78-.3,1.58-.63,2.41-.97-.75.31-1.48.61-2.19.88Z"/>
      <path class="cls-14" d="m145.39,133.92c-5.78-2.13-12.34.5-18.08,2.89,4.89-2.02,10.38-4.06,15.25-2.27,11.03,4.06,11.65,28.03,2.27,33.78-9.2,5.64-24.27,4.61-27.9-7.02-1.99-6.38-1.79-16.05,3.11-20.78-5.74,5.3-6,16.43-3.72,23.74,4.12,13.18,21.21,14.35,31.63,7.95,10.64-6.52,9.93-33.7-2.58-38.3Z"/>
    </g>
    <path class="cls-15" d="m131.33,155.35c-1.75-3.59-5.69-6.03-6.79-9.87,4.09-1.75,11.62,3.2,15.09,5.52,4.62,3.09,7.51,7.24,1.61,10.93-5.3,3.33-7.85-2.37-9.91-6.58Z"/>
  </g>
  <g>
    <path class="cls-18" d="m113.84,44.7c-6.22-7.75-27.89-4.64-30.39,5.64-1.41,5.82,2.99,11.88,5.58,16.74,3.64,6.83,14.81,6.18,21.43,3.26,10.15-4.48,9.48-18.04,3.38-25.64Z"/>
    <g>
      <path class="cls-19" d="m89.03,67.08c.03.06.06.11.09.16-.31-.58-.65-1.18-1-1.8.32.56.62,1.11.91,1.64Z"/>
      <path class="cls-14" d="m83.45,50.34c-1.15,4.75,1.57,9.66,4.02,13.95-2.08-3.66-4.22-7.79-3.25-11.79,2.2-9.06,21.32-11.81,26.8-4.97,5.38,6.7,5.98,18.66-2.98,22.61-4.91,2.17-12.67,2.92-16.91-.49,4.78,4.02,13.71,3.17,19.33.69,10.16-4.48,9.47-18.04,3.38-25.64-6.22-7.75-27.89-4.64-30.39,5.64Z"/>
    </g>
    <path class="cls-15" d="m101.91,59.39c-2.71,1.72-4.28,5.04-7.25,6.27-1.79-3.05,1.46-9.44,2.99-12.39,2.04-3.93,5.08-6.59,8.59-2.3,3.16,3.86-1.16,6.4-4.33,8.42Z"/>
  </g>
  <g>
    <path class="cls-17" d="m78.17,72.64c-12.43-1.34-28.72,20.54-21.7,31.79,3.97,6.38,13.3,7.82,19.94,9.82,9.34,2.8,18.59-7.64,21.79-16.05,4.92-12.91-7.84-24.24-20.03-25.56Z"/>
    <g>
      <path class="cls-19" d="m76.42,114.24c.07.02.15.04.22.06-.8-.24-1.64-.47-2.5-.7.78.21,1.54.42,2.27.64Z"/>
      <path class="cls-19" d="m56.48,104.43c3.24,5.2,10.05,7.12,16.05,8.73-5.11-1.39-10.7-3.13-13.44-7.51-6.19-9.92,8.17-29.22,19.14-28.04,10.75,1.16,22,11.15,17.67,22.54-2.38,6.24-8.54,13.75-15.33,14.5,7.81-.68,14.92-9.3,17.65-16.46,4.92-12.91-7.84-24.25-20.03-25.56-12.43-1.34-28.71,20.54-21.7,31.79Z"/>
    </g>
    <path class="cls-15" d="m80.85,96.09c-.84,3.9.75,8.22-.76,11.93-4.31-1.1-7.19-9.6-8.49-13.55-1.73-5.26-1.44-10.29,5.5-9.61,6.24.61,4.73,6.66,3.74,11.23Z"/>
  </g>
  <g>
    <path class="cls-17" d="m111.82,109.64c9.74-1.14,18.31-20.7,10.96-28.08-4.16-4.18-11.54-3.66-16.97-4.03-7.64-.52-12.86,9.07-13.82,16.06-1.47,10.73,10.28,17.17,19.84,16.05Z"/>
    <g>
      <path class="cls-19" d="m105.8,77.53c-.06,0-.12,0-.18,0,.65.04,1.33.07,2.03.1-.63-.03-1.25-.05-1.85-.1Z"/>
      <path class="cls-19" d="m122.77,81.56c-3.4-3.41-8.94-3.69-13.82-3.88,4.15.17,8.74.53,11.6,3.4,6.49,6.51-1.07,23.76-9.67,24.76-8.42.99-18.79-4.69-17.49-14.16.71-5.19,4.09-12,9.16-13.75-5.85,1.88-9.76,9.71-10.57,15.65-1.48,10.73,10.28,17.17,19.83,16.05,9.74-1.14,18.31-20.7,10.96-28.08Z"/>
    </g>
    <path class="cls-15" d="m105.62,92.18c-.05-3.13-2.04-6.16-1.53-9.25,3.49.09,7.19,6.09,8.89,8.88,2.25,3.72,2.92,7.61-2.51,8.3-4.88.62-4.79-4.27-4.85-7.94Z"/>
  </g>
  <g>
    <path class="cls-17" d="m138.56,74.57c9.74-1.14,18.31-20.7,10.96-28.08-4.17-4.18-11.55-3.66-16.98-4.03-7.63-.52-12.85,9.07-13.82,16.06-1.47,10.72,10.29,17.16,19.84,16.05Z"/>
    <g>
      <path class="cls-19" d="m132.54,42.46c-.06,0-.12,0-.18,0,.65.04,1.33.07,2.03.1-.63-.03-1.26-.06-1.85-.09Z"/>
      <path class="cls-19" d="m149.52,46.49c-3.4-3.41-8.94-3.69-13.82-3.88,4.15.17,8.74.53,11.6,3.4,6.49,6.51-1.07,23.76-9.67,24.76-8.42.99-18.79-4.69-17.5-14.15.71-5.19,4.09-12,9.16-13.75-5.85,1.88-9.76,9.71-10.58,15.65-1.48,10.73,10.29,17.17,19.84,16.05,9.74-1.14,18.31-20.7,10.96-28.08Z"/>
    </g>
    <path class="cls-15" d="m132.37,57.11c-.05-3.13-2.03-6.16-1.53-9.25,3.49.09,7.19,6.09,8.89,8.88,2.25,3.72,2.92,7.61-2.51,8.3-4.88.62-4.79-4.27-4.85-7.94Z"/>
  </g>
  <g>
    <path class="cls-17" d="m106.89,83.11c9.74-1.14,18.31-20.7,10.96-28.08-4.17-4.18-11.55-3.66-16.97-4.03-7.64-.52-12.86,9.07-13.82,16.06-1.48,10.73,10.28,17.17,19.83,16.05Z"/>
    <g>
      <path class="cls-19" d="m100.87,51c-.06,0-.12,0-.18,0,.65.04,1.33.07,2.03.1-.63-.03-1.25-.06-1.85-.09Z"/>
      <path class="cls-19" d="m117.85,55.03c-3.4-3.41-8.94-3.69-13.82-3.88,4.15.17,8.74.53,11.6,3.4,6.49,6.51-1.07,23.76-9.67,24.76-8.42.99-18.79-4.69-17.49-14.15.71-5.19,4.09-12,9.16-13.75-5.85,1.88-9.76,9.71-10.58,15.66-1.47,10.72,10.29,17.17,19.84,16.05,9.74-1.14,18.31-20.7,10.96-28.08Z"/>
    </g>
    <path class="cls-15" d="m100.7,65.65c-.05-3.13-2.04-6.15-1.53-9.25,3.49.09,7.19,6.09,8.89,8.88,2.25,3.72,2.92,7.61-2.51,8.3-4.88.62-4.79-4.27-4.85-7.94Z"/>
  </g>
  <g>
    <path class="cls-20" d="m66.73,168.67c5.76-7.79,14.95-31.96,11.02-41.35-4.72-11.29-12.91,14.52-13.6,19.69-.73,5.42-2.15,18.32,2.58,21.66Z"/>
    <path class="cls-12" d="m65.48,157.64c5.48-.18,11.16-18.61,10.4-22.64-1.56-8.38-7.41,3.15-8.48,6.95-1.38,4.94-2.19,10.55-1.93,15.69Z"/>
  </g>
  <g>
    <path class="cls-20" d="m148.68,95.74c5.76-7.79,14.95-31.95,11.02-41.35-4.72-11.29-12.91,14.52-13.6,19.69-.72,5.42-2.15,18.32,2.58,21.66Z"/>
    <path class="cls-12" d="m147.43,84.7c5.48-.18,11.16-18.61,10.4-22.64-1.56-8.38-7.41,3.15-8.47,6.95-1.38,4.94-2.2,10.55-1.93,15.69Z"/>
  </g>
  <g>
    <path class="cls-20" d="m111.38,142.81c5.76-7.79,14.95-31.95,11.02-41.35-4.72-11.29-12.91,14.52-13.6,19.69-.72,5.42-2.15,18.32,2.58,21.66Z"/>
    <path class="cls-12" d="m110.13,131.78c5.49-.18,11.16-18.61,10.41-22.64-1.56-8.38-7.41,3.15-8.48,6.95-1.38,4.94-2.19,10.55-1.93,15.69Z"/>
  </g>
  <g>
    <path class="cls-20" d="m30.04,88.96c-.32,9.66,5.84,34.75,14.42,40.31,10.32,6.68,2.4-19.21.03-23.87-2.49-4.88-8.65-16.33-14.45-16.44Z"/>
    <path class="cls-12" d="m37.35,97.38c-4.42,3.22,1.38,21.61,4.29,24.52,6.06,6.05,4.33-6.75,3.05-10.48-1.67-4.85-4.19-9.94-7.33-14.04Z"/>
  </g>
  <g>
    <path class="cls-20" d="m111.04,145.02c-.33,9.66,5.83,34.75,14.42,40.31,10.32,6.68,2.4-19.21.03-23.87-2.49-4.88-8.65-16.33-14.45-16.44Z"/>
    <path class="cls-12" d="m118.35,153.43c-4.42,3.22,1.37,21.61,4.29,24.52,6.06,6.05,4.33-6.75,3.05-10.48-1.67-4.85-4.19-9.95-7.33-14.04Z"/>
  </g>
  <g>
    <path class="cls-17" d="m88.41,141.32c12.42-1.46,23.35-26.39,13.97-35.8-5.31-5.33-14.72-4.67-21.65-5.14-9.73-.66-16.39,11.57-17.62,20.48-1.88,13.67,13.11,21.89,25.29,20.46Z"/>
    <g>
      <path class="cls-19" d="m80.74,100.38c-.08,0-.15,0-.23,0,.83.05,1.7.09,2.59.13-.81-.04-1.6-.07-2.36-.12Z"/>
      <path class="cls-19" d="m102.38,105.52c-4.33-4.35-11.4-4.71-17.61-4.95,5.29.22,11.13.67,14.79,4.34,8.27,8.3-1.37,30.29-12.32,31.57-10.74,1.26-23.96-5.98-22.3-18.04.91-6.61,5.21-15.3,11.67-17.54-7.46,2.4-12.44,12.38-13.48,19.96-1.88,13.67,13.11,21.89,25.29,20.46,12.42-1.46,23.35-26.39,13.97-35.8Z"/>
    </g>
    <path class="cls-15" d="m80.51,119.06c-.06-3.99-2.59-7.85-1.96-11.79,4.45.12,9.17,7.76,11.33,11.32,2.87,4.74,3.72,9.7-3.2,10.59-6.22.79-6.11-5.44-6.18-10.12Z"/>
  </g>
  <g>
    <path class="cls-17" d="m157.33,152.43c12.42-1.46,23.35-26.39,13.98-35.8-5.32-5.33-14.72-4.67-21.65-5.14-9.73-.66-16.39,11.57-17.62,20.48-1.88,13.67,13.11,21.89,25.29,20.46Z"/>
    <g>
      <path class="cls-19" d="m149.66,111.49c-.08,0-.15,0-.23,0,.83.06,1.7.09,2.59.13-.81-.03-1.6-.07-2.36-.12Z"/>
      <path class="cls-19" d="m171.31,116.63c-4.34-4.35-11.4-4.71-17.61-4.95,5.29.22,11.14.67,14.79,4.33,8.27,8.3-1.37,30.29-12.33,31.58-10.74,1.26-23.96-5.99-22.3-18.05.91-6.61,5.21-15.3,11.67-17.54-7.46,2.4-12.44,12.38-13.48,19.96-1.88,13.67,13.11,21.89,25.29,20.46,12.42-1.46,23.35-26.39,13.97-35.8Z"/>
    </g>
    <path class="cls-15" d="m149.44,130.17c-.06-3.99-2.59-7.85-1.96-11.79,4.45.12,9.17,7.76,11.33,11.32,2.87,4.74,3.72,9.71-3.2,10.59-6.22.79-6.11-5.44-6.18-10.12Z"/>
  </g>
  <g>
    <path class="cls-17" d="m64.5,145.5c12.42-1.45,23.35-26.39,13.98-35.8-5.31-5.33-14.73-4.67-21.65-5.14-9.73-.66-16.39,11.57-17.62,20.48-1.88,13.67,13.11,21.89,25.29,20.46Z"/>
    <g>
      <path class="cls-19" d="m56.83,104.56c-.08,0-.16,0-.23,0,.83.06,1.7.09,2.59.13-.81-.04-1.6-.07-2.36-.12Z"/>
      <path class="cls-19" d="m78.47,109.7c-4.34-4.35-11.4-4.71-17.62-4.95,5.3.22,11.14.67,14.79,4.34,8.27,8.3-1.37,30.29-12.33,31.57-10.74,1.26-23.96-5.98-22.3-18.04.91-6.62,5.21-15.3,11.67-17.54-7.46,2.4-12.44,12.38-13.48,19.96-1.88,13.67,13.11,21.89,25.29,20.46,12.42-1.45,23.35-26.39,13.97-35.8Z"/>
    </g>
    <path class="cls-15" d="m56.6,123.24c-.06-3.99-2.59-7.85-1.96-11.79,4.45.12,9.17,7.76,11.33,11.32,2.88,4.74,3.72,9.7-3.2,10.59-6.22.79-6.11-5.44-6.18-10.12Z"/>
  </g>
  <g>
    <path class="cls-17" d="m128.6,170.21c12.42-1.45,23.35-26.39,13.97-35.8-5.31-5.33-14.72-4.67-21.65-5.14-9.73-.66-16.39,11.57-17.62,20.48-1.88,13.68,13.11,21.89,25.29,20.46Z"/>
    <g>
      <path class="cls-19" d="m120.93,129.27c-.08,0-.16,0-.23,0,.83.06,1.7.09,2.59.13-.81-.03-1.6-.07-2.36-.12Z"/>
      <path class="cls-19" d="m142.57,134.41c-4.33-4.35-11.4-4.71-17.61-4.95,5.29.22,11.14.67,14.79,4.34,8.27,8.3-1.37,30.29-12.33,31.57-10.74,1.26-23.96-5.98-22.31-18.04.91-6.61,5.22-15.3,11.67-17.54-7.46,2.4-12.44,12.38-13.48,19.96-1.88,13.67,13.11,21.89,25.29,20.46,12.42-1.45,23.35-26.39,13.97-35.8Z"/>
    </g>
    <path class="cls-15" d="m120.7,147.95c-.06-3.99-2.59-7.85-1.95-11.79,4.45.12,9.17,7.76,11.33,11.32,2.87,4.74,3.72,9.7-3.2,10.59-6.23.79-6.11-5.44-6.18-10.12Z"/>
  </g>
  <g>
    <path class="cls-17" d="m103.32,75.64c2.43-12.63-19-31.14-31.3-24.89-6.97,3.54-9.25,12.97-11.88,19.61-3.7,9.33,6.4,19.68,14.89,23.67,13.03,6.12,25.91-6.01,28.29-18.39Z"/>
    <g>
      <path class="cls-19" d="m60.13,70.36c-.03.07-.05.15-.08.22.32-.8.62-1.64.94-2.5-.29.78-.57,1.55-.86,2.28Z"/>
      <path class="cls-19" d="m72.02,50.75c-5.69,2.89-8.26,9.7-10.44,15.72,1.87-5.12,4.15-10.71,8.94-13.14,10.85-5.51,29.75,10.81,27.6,21.95-2.1,10.92-13.45,21.62-24.95,16.22-6.31-2.96-13.61-9.89-13.82-16.92.06,8.06,8.44,16.06,15.67,19.45,13.04,6.12,25.91-6.01,28.29-18.39,2.43-12.63-18.99-31.14-31.3-24.89Z"/>
    </g>
    <path class="cls-15" d="m78.67,76.42c-3.99-1.19-8.63.09-12.36-1.77,1.51-4.32,10.6-6.56,14.82-7.57,5.62-1.34,10.83-.62,9.55,6.44-1.16,6.35-7.33,4.29-12.01,2.9Z"/>
  </g>
  <g>
    <g>
      <path class="cls-1" d="m121.8,88.85c.45-3.49,3.15-7.99,6.78-5.58,3.49,2.32.85,6.64.25,9.83-.48,2.57,0,5.62-.75,8.08-.96,3.15-3.35,3.26-3.28-.78-5.73,5.15-3.27-9.5-3-11.56Z"/>
      <path class="cls-11" d="m123.54,99.99c.29-3.48,3.85-16.91,4.68-13.33.96,4.13-3.69,12.97-4.68,13.33Z"/>
    </g>
    <g>
      <path class="cls-3" d="m79.87,72.46c-4.01-1.51-8.43-5.6-4.26-8.52,4.01-2.8,8.24,1.17,11.84,2.75,2.9,1.27,6.72,1.71,9.4,3.22,3.43,1.92,2.7,4.36-2.09,3.05,4.11,7.33-12.52.39-14.89-.51Z"/>
      <path class="cls-11" d="m93.8,74.12c-4.05-1.35-18.85-9.02-14.27-8.77,5.27.3,14.19,7.67,14.27,8.77Z"/>
    </g>
    <g>
      <path class="cls-4" d="m80.42,140.37c3.8-1.99,9.81-2.57,9.26,2.46-.53,4.84-6.33,5.36-9.91,6.99-2.88,1.32-5.74,3.87-8.65,4.87-3.72,1.28-5.09-.87-.93-3.57-8.27-1.79,7.99-9.57,10.23-10.75Z"/>
      <path class="cls-11" d="m69.96,149.64c3.7-2.12,19.28-8.07,16.07-4.83-3.71,3.72-15.18,5.49-16.07,4.83Z"/>
    </g>
    <g>
      <path class="cls-2" d="m162.06,72.79c3.8-1.99,9.81-2.57,9.26,2.46-.53,4.84-6.33,5.36-9.91,6.99-2.88,1.32-5.74,3.87-8.65,4.87-3.72,1.28-5.09-.87-.93-3.57-8.27-1.79,7.99-9.58,10.23-10.75Z"/>
      <path class="cls-11" d="m151.6,82.07c3.7-2.12,19.28-8.06,16.07-4.83-3.71,3.72-15.18,5.49-16.07,4.83Z"/>
    </g>
    <g>
      <path class="cls-7" d="m142.03,156.31c3.8-1.99,9.81-2.57,9.26,2.46-.53,4.84-6.33,5.36-9.91,6.99-2.88,1.32-5.74,3.87-8.65,4.87-3.72,1.28-5.09-.87-.92-3.57-8.27-1.79,7.98-9.57,10.23-10.75Z"/>
      <path class="cls-11" d="m131.58,165.58c3.7-2.12,19.28-8.06,16.07-4.83-3.71,3.73-15.18,5.5-16.07,4.83Z"/>
    </g>
    <g>
      <path class="cls-8" d="m56.21,90.89c3.8-1.99,9.81-2.57,9.26,2.46-.53,4.84-6.33,5.36-9.91,6.99-2.88,1.32-5.74,3.87-8.65,4.87-3.72,1.28-5.09-.87-.92-3.57-8.27-1.79,7.99-9.58,10.23-10.74Z"/>
      <path class="cls-11" d="m45.75,100.16c3.7-2.12,19.28-8.07,16.07-4.83-3.72,3.72-15.18,5.49-16.07,4.83Z"/>
    </g>
    <g>
      <path class="cls-6" d="m105.25,118.58c3.8-1.99,9.81-2.57,9.26,2.46-.53,4.84-6.33,5.36-9.91,7-2.88,1.31-5.74,3.87-8.65,4.87-3.72,1.28-5.09-.87-.92-3.57-8.27-1.78,7.98-9.57,10.22-10.74Z"/>
      <path class="cls-11" d="m94.79,127.85c3.71-2.12,19.29-8.06,16.07-4.83-3.71,3.72-15.18,5.49-16.07,4.83Z"/>
    </g>
    <g>
      <path class="cls-5" d="m113.04,42.87c3.8-1.99,9.81-2.57,9.26,2.46-.53,4.84-6.33,5.36-9.91,6.99-2.88,1.32-5.74,3.87-8.65,4.87-3.72,1.28-5.09-.87-.92-3.57-8.27-1.79,7.98-9.58,10.23-10.75Z"/>
      <path class="cls-11" d="m102.58,52.14c3.71-2.12,19.29-8.07,16.07-4.83-3.71,3.72-15.18,5.49-16.07,4.83Z"/>
    </g>
  </g>
  <g>
    <g>
      <path class="cls-16" d="m76.08,98.54c-.37.79-1.75.92-3.07.3-1.32-.62-2.08-1.76-1.71-2.55.37-.78,1.75-.92,3.07-.29,1.32.62,2.09,1.76,1.71,2.54Z"/>
      <path class="cls-16" d="m80.52,89.25c.62.61.3,1.94-.72,2.97-1.02,1.03-2.36,1.38-2.98.77-.63-.61-.3-1.94.72-2.97,1.02-1.03,2.36-1.38,2.98-.77Z"/>
      <path class="cls-16" d="m72.29,113.65c.62.61.3,1.94-.72,2.97-1.02,1.03-2.36,1.38-2.98.76-.62-.61-.3-1.94.72-2.97,1.02-1.04,2.36-1.38,2.99-.77Z"/>
      <path class="cls-16" d="m82.51,101.07c.62.61.3,1.94-.72,2.98-1.03,1.03-2.36,1.38-2.99.77-.63-.61-.3-1.94.72-2.97,1.03-1.03,2.36-1.38,2.99-.77Z"/>
      <path class="cls-16" d="m88.44,93.73c.62.61.3,1.94-.72,2.97-1.02,1.04-2.36,1.38-2.98.77-.62-.61-.3-1.94.72-2.97,1.02-1.03,2.36-1.38,2.98-.77Z"/>
      <path class="cls-16" d="m90.12,110.23c-.75.45-1.97-.2-2.72-1.44-.75-1.24-.76-2.61,0-3.06.75-.45,1.97.2,2.72,1.44.75,1.24.75,2.61,0,3.06Z"/>
      <path class="cls-13" d="m77.85,110.23c-.75.45-1.97-.2-2.72-1.44-.75-1.24-.75-2.61,0-3.06.75-.45,1.97.19,2.72,1.44.76,1.24.76,2.61,0,3.06Z"/>
      <path class="cls-13" d="m72.57,94.79c-.75.45-1.97-.2-2.72-1.44-.75-1.24-.76-2.61,0-3.05.75-.45,1.97.19,2.72,1.43.75,1.24.75,2.61,0,3.06Z"/>
      <path class="cls-13" d="m64.35,110.33c-.75.45-1.97-.2-2.72-1.44-.75-1.24-.75-2.61,0-3.05.75-.45,1.97.19,2.72,1.43.75,1.24.75,2.61,0,3.06Z"/>
      <path class="cls-13" d="m94.24,100.29c.16.85-.87,1.76-2.31,2.03-1.44.26-2.73-.21-2.89-1.07-.16-.85.87-1.76,2.31-2.03,1.44-.26,2.73.21,2.89,1.07Z"/>
      <path class="cls-13" d="m73.81,100.72c.16.85-.88,1.76-2.31,2.03-1.43.26-2.73-.21-2.89-1.07-.16-.86.87-1.76,2.31-2.03,1.44-.27,2.73.21,2.89,1.07Z"/>
      <path class="cls-13" d="m83.25,115.04c.16.86-.87,1.76-2.31,2.03-1.44.26-2.73-.21-2.89-1.07-.16-.85.87-1.76,2.31-2.03,1.44-.27,2.73.21,2.89,1.07Z"/>
      <path class="cls-13" d="m85.87,109.22c.16.86-.87,1.76-2.31,2.03-1.44.27-2.73-.21-2.89-1.07-.16-.85.87-1.76,2.31-2.03,1.44-.27,2.73.21,2.89,1.07Z"/>
      <path class="cls-16" d="m65.08,99.5c.53.69.03,1.96-1.13,2.84-1.16.88-2.53,1.04-3.06.35-.54-.69-.03-1.96,1.13-2.85,1.16-.88,2.53-1.04,3.07-.35Z"/>
      <path class="cls-16" d="m73.7,108.86c-.29.82-1.64,1.09-3.02.61-1.38-.48-2.26-1.53-1.97-2.35.29-.82,1.64-1.09,3.02-.61,1.38.48,2.26,1.54,1.97,2.36Z"/>
    </g>
    <g>
      <path class="cls-16" d="m79.46,123.02c-.37.79-1.75.92-3.07.3-1.32-.62-2.08-1.76-1.71-2.55.37-.79,1.75-.92,3.06-.3,1.32.62,2.09,1.76,1.71,2.55Z"/>
      <path class="cls-16" d="m83.89,113.72c.63.61.31,1.94-.72,2.97-1.02,1.03-2.36,1.38-2.99.77-.62-.61-.3-1.94.72-2.98,1.02-1.03,2.36-1.38,2.98-.77Z"/>
      <path class="cls-16" d="m75.66,138.13c.62.61.3,1.94-.72,2.97-1.02,1.03-2.36,1.38-2.99.77-.63-.61-.3-1.94.72-2.97,1.02-1.04,2.36-1.38,2.99-.77Z"/>
      <path class="cls-16" d="m85.88,125.54c.62.61.3,1.94-.72,2.98-1.03,1.03-2.36,1.38-2.99.77-.62-.61-.3-1.94.72-2.98,1.02-1.03,2.36-1.38,2.99-.77Z"/>
      <path class="cls-16" d="m91.81,118.21c.62.61.3,1.94-.72,2.97-1.03,1.04-2.36,1.38-2.99.77-.62-.61-.3-1.94.72-2.97,1.02-1.03,2.36-1.38,2.98-.77Z"/>
      <path class="cls-16" d="m93.49,134.71c-.75.45-1.97-.2-2.72-1.44-.75-1.24-.75-2.61,0-3.06.75-.45,1.97.2,2.72,1.44.76,1.24.76,2.61,0,3.06Z"/>
      <path class="cls-13" d="m81.23,134.71c-.75.45-1.97-.2-2.73-1.44-.75-1.24-.75-2.61,0-3.06.75-.45,1.97.19,2.72,1.44.75,1.24.75,2.61,0,3.06Z"/>
      <path class="cls-13" d="m75.94,119.26c-.75.45-1.97-.2-2.72-1.44-.75-1.24-.75-2.61,0-3.06.75-.45,1.97.2,2.72,1.43.75,1.24.75,2.61,0,3.06Z"/>
      <path class="cls-13" d="m67.72,134.81c-.75.44-1.97-.2-2.73-1.44-.75-1.24-.75-2.61,0-3.06.75-.45,1.97.19,2.72,1.44.76,1.24.76,2.61,0,3.06Z"/>
      <path class="cls-13" d="m97.61,124.76c.16.85-.87,1.76-2.31,2.03-1.44.26-2.73-.21-2.89-1.07-.16-.85.87-1.76,2.31-2.03,1.44-.27,2.73.21,2.89,1.07Z"/>
      <path class="cls-13" d="m77.18,125.19c.16.85-.88,1.76-2.31,2.03-1.43.26-2.73-.22-2.89-1.07-.16-.86.87-1.76,2.31-2.03,1.43-.27,2.73.21,2.89,1.07Z"/>
      <path class="cls-13" d="m86.63,139.52c.16.85-.87,1.76-2.31,2.03-1.44.26-2.73-.21-2.89-1.07-.16-.85.87-1.76,2.31-2.03,1.44-.26,2.73.21,2.89,1.07Z"/>
      <path class="cls-13" d="m89.24,133.7c.16.86-.87,1.76-2.31,2.03-1.44.27-2.73-.21-2.89-1.07-.16-.85.87-1.76,2.31-2.02,1.44-.26,2.73.21,2.89,1.07Z"/>
      <path class="cls-16" d="m68.45,123.97c.53.69.03,1.96-1.13,2.85-1.16.88-2.53,1.04-3.06.35-.54-.69-.03-1.96,1.13-2.84,1.16-.88,2.53-1.04,3.06-.35Z"/>
      <path class="cls-16" d="m77.08,133.33c-.29.82-1.64,1.09-3.02.61-1.38-.48-2.26-1.54-1.97-2.36.29-.82,1.64-1.09,3.02-.61,1.38.48,2.26,1.54,1.97,2.36Z"/>
    </g>
    <g>
      <path class="cls-16" d="m97.79,102.51c-.38.79-1.75.92-3.07.3-1.32-.62-2.08-1.76-1.71-2.55.37-.79,1.75-.92,3.07-.3,1.32.62,2.09,1.76,1.71,2.54Z"/>
      <path class="cls-16" d="m102.23,93.21c.62.61.3,1.94-.72,2.97-1.02,1.03-2.36,1.38-2.98.77-.63-.61-.3-1.94.72-2.97,1.02-1.03,2.36-1.38,2.98-.77Z"/>
      <path class="cls-16" d="m94,117.62c.63.61.3,1.94-.72,2.97-1.02,1.03-2.36,1.38-2.98.77-.62-.61-.3-1.94.72-2.97,1.02-1.04,2.36-1.38,2.98-.77Z"/>
      <path class="cls-16" d="m104.22,105.04c.62.61.3,1.94-.72,2.98-1.03,1.03-2.36,1.37-2.99.76-.63-.61-.3-1.94.72-2.97,1.03-1.03,2.36-1.38,2.99-.77Z"/>
      <path class="cls-16" d="m110.15,97.7c.62.61.3,1.95-.72,2.97-1.02,1.04-2.36,1.38-2.98.77-.62-.61-.3-1.94.72-2.97,1.02-1.03,2.36-1.38,2.98-.77Z"/>
      <path class="cls-16" d="m111.83,114.2c-.75.45-1.97-.2-2.72-1.44-.75-1.24-.76-2.61,0-3.06.75-.45,1.97.2,2.72,1.44.75,1.24.75,2.61,0,3.06Z"/>
      <path class="cls-13" d="m99.57,114.2c-.75.45-1.97-.2-2.72-1.44-.75-1.24-.75-2.61,0-3.06.75-.45,1.97.19,2.72,1.44.75,1.24.75,2.61,0,3.06Z"/>
      <path class="cls-13" d="m94.28,98.75c-.75.45-1.97-.2-2.72-1.44-.75-1.24-.75-2.61,0-3.06.75-.45,1.97.2,2.72,1.44.75,1.24.75,2.61,0,3.06Z"/>
      <path class="cls-13" d="m86.06,114.3c-.75.45-1.97-.2-2.72-1.44-.75-1.24-.75-2.61,0-3.05.75-.45,1.97.19,2.72,1.43.75,1.25.75,2.61,0,3.06Z"/>
      <path class="cls-13" d="m115.95,104.25c.16.85-.87,1.76-2.31,2.03-1.44.27-2.73-.21-2.89-1.07-.16-.85.87-1.76,2.3-2.03,1.44-.27,2.73.21,2.89,1.07Z"/>
      <path class="cls-13" d="m95.52,104.68c.16.85-.87,1.76-2.31,2.03-1.43.26-2.73-.21-2.89-1.06-.16-.86.87-1.76,2.31-2.03,1.44-.26,2.73.21,2.89,1.07Z"/>
      <path class="cls-13" d="m104.97,119.01c.16.86-.87,1.76-2.31,2.03-1.43.27-2.73-.21-2.89-1.07-.16-.85.88-1.76,2.31-2.03,1.44-.27,2.73.21,2.89,1.07Z"/>
      <path class="cls-13" d="m107.58,113.19c.16.86-.87,1.76-2.31,2.03-1.44.27-2.73-.21-2.89-1.07-.16-.85.88-1.76,2.31-2.03,1.44-.27,2.73.21,2.89,1.07Z"/>
      <path class="cls-16" d="m86.79,103.46c.53.69.03,1.96-1.13,2.85-1.16.88-2.53,1.04-3.06.35-.53-.69-.03-1.96,1.13-2.85,1.16-.88,2.53-1.04,3.06-.35Z"/>
      <path class="cls-16" d="m95.42,112.82c-.29.82-1.64,1.09-3.02.61-1.38-.48-2.26-1.53-1.97-2.35.29-.82,1.64-1.09,3.02-.61,1.38.48,2.26,1.53,1.97,2.36Z"/>
    </g>
    <g>
      <path class="cls-16" d="m144.37,132.67c-.37.78-1.75.92-3.07.3-1.32-.62-2.09-1.76-1.71-2.55.37-.78,1.75-.92,3.07-.3s2.09,1.76,1.71,2.55Z"/>
      <path class="cls-16" d="m148.8,123.38c.62.61.3,1.94-.72,2.97-1.02,1.04-2.36,1.38-2.99.77-.62-.61-.3-1.94.72-2.98,1.02-1.03,2.36-1.37,2.98-.77Z"/>
      <path class="cls-16" d="m140.58,147.78c.62.61.3,1.94-.72,2.97-1.02,1.03-2.36,1.38-2.98.77-.63-.61-.3-1.94.72-2.98,1.02-1.03,2.36-1.38,2.99-.76Z"/>
      <path class="cls-16" d="m150.79,135.2c.63.61.3,1.94-.72,2.97-1.03,1.03-2.36,1.38-2.99.77s-.3-1.94.72-2.97c1.02-1.03,2.36-1.38,2.98-.77Z"/>
      <path class="cls-16" d="m156.72,127.86c.62.61.3,1.94-.72,2.97-1.02,1.04-2.36,1.38-2.98.77-.62-.61-.3-1.94.72-2.97,1.02-1.03,2.36-1.38,2.99-.77Z"/>
      <path class="cls-16" d="m158.41,144.36c-.75.45-1.97-.2-2.72-1.44-.76-1.24-.76-2.61,0-3.06.75-.45,1.97.2,2.72,1.44.75,1.24.75,2.61,0,3.06Z"/>
      <path class="cls-13" d="m146.14,144.36c-.76.45-1.97-.2-2.73-1.44-.75-1.24-.75-2.61,0-3.06.75-.45,1.97.19,2.72,1.44.75,1.24.75,2.61,0,3.06Z"/>
      <path class="cls-13" d="m140.86,128.92c-.75.45-1.97-.2-2.72-1.44-.75-1.24-.75-2.61,0-3.06.75-.45,1.97.19,2.72,1.43.75,1.25.75,2.61,0,3.06Z"/>
      <path class="cls-13" d="m132.63,144.46c-.75.45-1.97-.2-2.72-1.44-.75-1.24-.75-2.61,0-3.06.75-.45,1.97.19,2.72,1.43.75,1.24.75,2.61,0,3.06Z"/>
      <path class="cls-13" d="m162.52,134.42c.16.85-.87,1.76-2.31,2.03-1.44.26-2.73-.21-2.89-1.07-.16-.85.87-1.76,2.31-2.03,1.44-.27,2.73.21,2.89,1.07Z"/>
      <path class="cls-13" d="m142.1,134.85c.16.85-.87,1.76-2.31,2.03-1.44.26-2.73-.21-2.89-1.07-.16-.86.87-1.76,2.31-2.03,1.44-.27,2.73.21,2.89,1.07Z"/>
      <path class="cls-13" d="m151.54,149.17c.16.86-.88,1.76-2.31,2.03-1.43.27-2.73-.21-2.89-1.07-.16-.85.87-1.76,2.31-2.03,1.44-.26,2.73.21,2.89,1.07Z"/>
      <path class="cls-13" d="m154.16,143.35c.16.86-.87,1.76-2.31,2.03-1.44.27-2.73-.21-2.89-1.07-.16-.85.88-1.76,2.31-2.03,1.44-.27,2.73.21,2.89,1.07Z"/>
      <path class="cls-16" d="m133.37,133.62c.53.69.03,1.96-1.13,2.85-1.16.88-2.53,1.04-3.06.35-.53-.69-.03-1.96,1.13-2.85,1.16-.88,2.53-1.04,3.06-.35Z"/>
      <path class="cls-16" d="m141.99,142.99c-.29.82-1.64,1.09-3.02.61-1.38-.48-2.26-1.54-1.97-2.36.29-.82,1.64-1.09,3.02-.61,1.38.48,2.26,1.53,1.97,2.36Z"/>
    </g>
    <g>
      <path class="cls-16" d="m98.44,158.15c-.37.78-1.75.92-3.07.3-1.32-.62-2.09-1.76-1.71-2.55.37-.79,1.75-.92,3.07-.3,1.32.62,2.09,1.76,1.71,2.55Z"/>
      <path class="cls-16" d="m102.88,148.86c.62.61.3,1.94-.73,2.97-1.02,1.03-2.36,1.38-2.98.77-.62-.61-.3-1.94.72-2.97,1.03-1.03,2.36-1.38,2.99-.77Z"/>
      <path class="cls-16" d="m94.65,173.27c.62.61.3,1.94-.72,2.97-1.02,1.03-2.36,1.37-2.99.77-.62-.61-.3-1.94.72-2.97,1.02-1.04,2.36-1.38,2.99-.77Z"/>
      <path class="cls-16" d="m104.87,160.68c.62.61.3,1.94-.72,2.98-1.02,1.03-2.36,1.37-2.98.76-.62-.61-.3-1.94.72-2.97,1.02-1.03,2.36-1.38,2.99-.77Z"/>
      <path class="cls-16" d="m110.79,153.35c.63.61.3,1.94-.72,2.97-1.02,1.04-2.36,1.38-2.98.77-.63-.61-.3-1.94.72-2.97,1.02-1.03,2.36-1.38,2.98-.77Z"/>
      <path class="cls-16" d="m112.48,169.85c-.75.45-1.97-.2-2.72-1.44-.75-1.24-.76-2.61,0-3.06.75-.45,1.97.2,2.72,1.44.75,1.24.75,2.61,0,3.06Z"/>
      <path class="cls-13" d="m100.21,169.85c-.75.45-1.97-.2-2.72-1.44-.75-1.24-.75-2.61,0-3.06.75-.45,1.97.19,2.72,1.44.76,1.24.76,2.61,0,3.06Z"/>
      <path class="cls-13" d="m94.93,154.4c-.75.44-1.97-.2-2.72-1.44-.75-1.24-.75-2.61,0-3.06.75-.45,1.97.2,2.72,1.44.75,1.24.75,2.61,0,3.06Z"/>
      <path class="cls-13" d="m86.7,169.95c-.75.45-1.97-.2-2.72-1.44-.75-1.24-.75-2.61,0-3.05.75-.45,1.97.19,2.72,1.43.75,1.24.75,2.61,0,3.06Z"/>
      <path class="cls-13" d="m116.59,159.9c.16.85-.87,1.76-2.31,2.03-1.44.27-2.73-.21-2.89-1.07-.16-.85.87-1.76,2.31-2.03,1.44-.26,2.73.21,2.89,1.07Z"/>
      <path class="cls-13" d="m96.17,160.33c.16.85-.87,1.76-2.31,2.03-1.43.26-2.73-.21-2.89-1.07-.16-.86.87-1.76,2.31-2.03,1.44-.26,2.73.21,2.89,1.07Z"/>
      <path class="cls-13" d="m105.61,174.65c.16.85-.87,1.76-2.31,2.03-1.43.27-2.73-.21-2.89-1.07-.16-.85.87-1.76,2.31-2.03,1.44-.26,2.73.21,2.89,1.07Z"/>
      <path class="cls-13" d="m108.23,168.84c.16.86-.87,1.76-2.31,2.02-1.43.27-2.73-.21-2.89-1.07-.16-.85.87-1.76,2.31-2.02,1.44-.27,2.73.21,2.89,1.07Z"/>
      <path class="cls-16" d="m87.44,159.11c.53.69.03,1.96-1.13,2.84-1.16.88-2.53,1.04-3.06.35-.53-.69-.03-1.96,1.13-2.84,1.16-.88,2.53-1.04,3.06-.35Z"/>
      <path class="cls-16" d="m96.06,168.47c-.29.82-1.64,1.09-3.02.61-1.38-.48-2.26-1.53-1.97-2.35.29-.82,1.64-1.09,3.02-.62,1.38.48,2.26,1.54,1.97,2.36Z"/>
    </g>
    <g>
      <path class="cls-16" d="m128.5,65.81c-.37.78-1.75.92-3.07.3-1.32-.62-2.08-1.76-1.71-2.55.37-.79,1.75-.92,3.07-.3,1.32.62,2.09,1.76,1.71,2.55Z"/>
      <path class="cls-16" d="m132.94,56.51c.62.61.3,1.94-.72,2.97-1.02,1.03-2.36,1.38-2.99.77-.62-.61-.3-1.94.72-2.98,1.02-1.03,2.36-1.38,2.99-.76Z"/>
      <path class="cls-16" d="m124.71,80.92c.63.61.3,1.94-.72,2.97-1.03,1.03-2.36,1.38-2.99.77-.62-.61-.3-1.94.72-2.97,1.02-1.04,2.36-1.38,2.98-.77Z"/>
      <path class="cls-16" d="m134.93,68.33c.62.61.3,1.94-.72,2.97-1.02,1.03-2.36,1.38-2.99.77-.63-.61-.3-1.94.72-2.97,1.02-1.03,2.36-1.38,2.98-.77Z"/>
      <path class="cls-16" d="m140.86,61c.63.61.3,1.94-.72,2.97-1.02,1.04-2.36,1.38-2.98.77-.63-.61-.3-1.94.72-2.97,1.02-1.03,2.36-1.38,2.98-.77Z"/>
      <path class="cls-16" d="m142.54,77.5c-.75.45-1.97-.2-2.72-1.44-.75-1.24-.76-2.61,0-3.06.75-.45,1.97.19,2.72,1.44.75,1.24.75,2.61,0,3.06Z"/>
      <path class="cls-13" d="m130.27,77.5c-.75.45-1.97-.2-2.72-1.44-.75-1.24-.75-2.61,0-3.06.75-.45,1.97.19,2.72,1.44.76,1.24.76,2.61,0,3.06Z"/>
      <path class="cls-13" d="m124.99,62.05c-.75.44-1.97-.2-2.72-1.44-.75-1.24-.75-2.61,0-3.06.75-.45,1.97.19,2.72,1.44.75,1.24.75,2.61,0,3.06Z"/>
      <path class="cls-13" d="m116.77,77.6c-.75.45-1.97-.2-2.72-1.44-.76-1.24-.76-2.61,0-3.06.75-.45,1.97.2,2.72,1.44.75,1.24.75,2.61,0,3.06Z"/>
      <path class="cls-13" d="m146.65,67.55c.16.85-.87,1.76-2.31,2.03-1.44.27-2.73-.21-2.89-1.07-.16-.85.87-1.76,2.31-2.03,1.44-.27,2.73.21,2.89,1.07Z"/>
      <path class="cls-13" d="m126.23,67.98c.16.85-.88,1.76-2.31,2.03-1.44.26-2.73-.21-2.89-1.07-.16-.86.87-1.76,2.31-2.03,1.44-.26,2.73.21,2.89,1.07Z"/>
      <path class="cls-13" d="m135.67,82.3c.16.86-.88,1.76-2.31,2.03-1.44.27-2.73-.21-2.89-1.07-.16-.85.87-1.76,2.31-2.03,1.44-.27,2.73.21,2.89,1.07Z"/>
      <path class="cls-13" d="m138.29,76.49c.16.86-.87,1.76-2.31,2.03-1.43.27-2.73-.21-2.89-1.07-.16-.85.87-1.76,2.31-2.03,1.44-.27,2.73.21,2.89,1.07Z"/>
      <path class="cls-16" d="m117.5,66.76c.53.69.03,1.96-1.13,2.85-1.16.88-2.53,1.04-3.06.35-.53-.69-.03-1.96,1.13-2.85,1.16-.88,2.53-1.04,3.06-.35Z"/>
      <path class="cls-16" d="m126.12,76.12c-.29.82-1.64,1.09-3.02.61-1.38-.48-2.26-1.54-1.97-2.36.29-.82,1.64-1.09,3.02-.61,1.38.48,2.26,1.53,1.97,2.35Z"/>
    </g>
    <g>
      <path class="cls-16" d="m94.09,67.43c-.38.79-1.75.92-3.07.3-1.32-.62-2.08-1.76-1.71-2.55.37-.79,1.75-.92,3.07-.3,1.32.62,2.09,1.76,1.71,2.55Z"/>
      <path class="cls-16" d="m98.52,58.13c.62.61.3,1.94-.72,2.97-1.02,1.03-2.36,1.38-2.99.77-.62-.61-.3-1.94.72-2.97,1.02-1.03,2.36-1.38,2.99-.77Z"/>
      <path class="cls-16" d="m90.3,82.54c.62.61.3,1.94-.72,2.97-1.03,1.03-2.36,1.38-2.99.77-.63-.61-.3-1.94.72-2.98,1.02-1.03,2.36-1.38,2.99-.76Z"/>
      <path class="cls-16" d="m100.51,69.96c.62.61.3,1.94-.72,2.97-1.02,1.03-2.36,1.38-2.98.77-.63-.61-.3-1.94.72-2.97,1.02-1.03,2.36-1.38,2.99-.77Z"/>
      <path class="cls-16" d="m106.44,62.62c.62.61.3,1.94-.72,2.98-1.02,1.03-2.36,1.38-2.98.77-.62-.61-.3-1.94.72-2.97,1.02-1.03,2.36-1.38,2.98-.77Z"/>
      <path class="cls-16" d="m108.13,79.12c-.75.45-1.97-.2-2.72-1.43-.75-1.24-.76-2.61,0-3.06.75-.45,1.97.19,2.72,1.44.75,1.24.75,2.61,0,3.06Z"/>
      <path class="cls-13" d="m95.86,79.12c-.76.45-1.97-.2-2.72-1.43-.75-1.24-.75-2.61,0-3.06.75-.45,1.97.19,2.72,1.44.75,1.24.75,2.61,0,3.06Z"/>
      <path class="cls-13" d="m90.58,63.67c-.75.45-1.97-.2-2.73-1.44-.75-1.24-.75-2.61,0-3.06.75-.45,1.97.19,2.72,1.44.75,1.24.75,2.61,0,3.06Z"/>
      <path class="cls-13" d="m82.35,79.22c-.75.45-1.97-.2-2.73-1.44-.75-1.24-.75-2.61,0-3.06.75-.45,1.97.19,2.72,1.44.75,1.24.75,2.61,0,3.06Z"/>
      <path class="cls-13" d="m112.24,69.17c.16.85-.87,1.76-2.31,2.03-1.44.27-2.73-.21-2.89-1.07-.16-.85.87-1.76,2.31-2.03,1.44-.26,2.73.21,2.89,1.07Z"/>
      <path class="cls-13" d="m91.82,69.6c.16.85-.88,1.76-2.31,2.03-1.44.26-2.73-.21-2.89-1.07-.16-.86.87-1.76,2.31-2.03,1.44-.26,2.73.21,2.89,1.07Z"/>
      <path class="cls-13" d="m101.26,83.93c.16.86-.88,1.76-2.31,2.03-1.43.27-2.73-.21-2.89-1.07-.16-.85.87-1.76,2.31-2.03,1.44-.26,2.73.21,2.89,1.07Z"/>
      <path class="cls-13" d="m103.88,78.11c.16.86-.87,1.76-2.31,2.02-1.43.27-2.73-.21-2.89-1.07-.16-.85.87-1.76,2.31-2.03,1.44-.26,2.73.21,2.89,1.07Z"/>
      <path class="cls-16" d="m83.09,68.38c.53.69.03,1.96-1.13,2.85-1.16.88-2.53,1.04-3.06.35-.53-.69-.03-1.96,1.13-2.85,1.16-.88,2.53-1.04,3.07-.35Z"/>
      <path class="cls-16" d="m91.71,77.74c-.29.82-1.64,1.09-3.02.61-1.38-.48-2.26-1.54-1.97-2.35.29-.82,1.64-1.09,3.02-.61,1.38.48,2.26,1.54,1.97,2.36Z"/>
    </g>
    <g>
      <path class="cls-16" d="m107.79,82.11c-.37.78-1.75.92-3.07.3-1.32-.62-2.09-1.76-1.71-2.55.37-.79,1.75-.92,3.07-.3,1.32.62,2.09,1.76,1.71,2.55Z"/>
      <path class="cls-16" d="m112.22,72.82c.62.61.3,1.94-.72,2.97-1.02,1.03-2.36,1.38-2.99.77-.62-.61-.3-1.94.72-2.98,1.02-1.03,2.36-1.38,2.99-.76Z"/>
      <path class="cls-16" d="m103.99,97.22c.62.61.3,1.94-.72,2.97-1.02,1.03-2.36,1.38-2.98.77-.62-.61-.3-1.94.72-2.97,1.02-1.04,2.36-1.38,2.99-.77Z"/>
      <path class="cls-16" d="m114.21,84.64c.62.61.3,1.94-.72,2.97-1.02,1.03-2.36,1.38-2.98.77-.62-.61-.3-1.94.72-2.97,1.02-1.03,2.36-1.38,2.98-.77Z"/>
      <path class="cls-16" d="m120.14,77.3c.62.61.3,1.94-.72,2.97-1.02,1.04-2.36,1.38-2.98.77-.63-.61-.3-1.94.72-2.97,1.03-1.03,2.36-1.38,2.98-.77Z"/>
      <path class="cls-16" d="m121.82,93.8c-.75.45-1.97-.2-2.72-1.44-.75-1.25-.76-2.61,0-3.06.75-.45,1.96.2,2.72,1.44.75,1.24.75,2.61,0,3.06Z"/>
      <path class="cls-13" d="m109.56,93.8c-.76.45-1.97-.2-2.72-1.44-.75-1.25-.76-2.61,0-3.06.75-.45,1.97.19,2.72,1.44.75,1.24.75,2.61,0,3.06Z"/>
      <path class="cls-13" d="m104.28,78.35c-.75.44-1.97-.2-2.73-1.44-.75-1.24-.75-2.61,0-3.06.75-.45,1.97.19,2.72,1.43.75,1.24.75,2.61,0,3.06Z"/>
      <path class="cls-13" d="m96.05,93.9c-.75.45-1.97-.2-2.73-1.44-.75-1.24-.75-2.61,0-3.06.75-.45,1.97.19,2.72,1.43.75,1.24.75,2.61,0,3.06Z"/>
      <path class="cls-13" d="m125.94,83.86c.16.85-.87,1.76-2.31,2.03s-2.73-.21-2.89-1.07c-.16-.85.87-1.76,2.31-2.02,1.44-.27,2.73.21,2.89,1.07Z"/>
      <path class="cls-13" d="m105.51,84.29c.16.85-.87,1.76-2.31,2.03-1.44.26-2.73-.21-2.89-1.07-.16-.86.88-1.76,2.31-2.03,1.44-.26,2.73.21,2.89,1.07Z"/>
      <path class="cls-13" d="m114.96,98.61c.16.86-.88,1.76-2.31,2.03-1.43.27-2.73-.21-2.89-1.06-.16-.86.87-1.76,2.31-2.03,1.44-.27,2.73.21,2.89,1.07Z"/>
      <path class="cls-13" d="m117.58,92.79c.16.86-.87,1.76-2.31,2.03-1.44.27-2.73-.21-2.89-1.07-.16-.85.87-1.76,2.31-2.03,1.44-.27,2.73.21,2.89,1.07Z"/>
      <path class="cls-16" d="m96.78,83.06c.53.69.03,1.96-1.13,2.85-1.16.88-2.53,1.04-3.06.35-.53-.69-.03-1.96,1.13-2.85,1.16-.88,2.53-1.04,3.06-.35Z"/>
      <path class="cls-16" d="m105.41,92.42c-.29.82-1.64,1.09-3.02.61-1.38-.48-2.26-1.54-1.97-2.35.29-.82,1.64-1.09,3.02-.61,1.38.48,2.26,1.54,1.97,2.36Z"/>
    </g>
    <g>
      <path class="cls-16" d="m96.63,142.78c.25-.83,1.58-1.18,2.99-.77,1.4.41,2.34,1.42,2.09,2.25-.25.83-1.58,1.18-2.98.77-1.4-.41-2.34-1.41-2.09-2.25Z"/>
      <path class="cls-16" d="m93.72,152.65c-.71-.5-.61-1.87.25-3.05.85-1.18,2.11-1.72,2.83-1.22.72.5.61,1.87-.24,3.05-.85,1.18-2.12,1.72-2.83,1.22Z"/>
      <path class="cls-16" d="m98,127.27c-.71-.51-.6-1.87.25-3.05.85-1.18,2.11-1.72,2.83-1.22.71.51.6,1.87-.24,3.05-.85,1.18-2.11,1.73-2.83,1.22Z"/>
      <path class="cls-16" d="m89.89,141.28c-.71-.51-.6-1.87.25-3.05.85-1.18,2.12-1.72,2.83-1.22.72.5.61,1.87-.24,3.05-.85,1.18-2.12,1.73-2.83,1.22Z"/>
      <path class="cls-16" d="m85.18,149.44c-.71-.5-.6-1.87.25-3.05.85-1.18,2.12-1.72,2.83-1.22.71.5.61,1.87-.24,3.05-.85,1.18-2.12,1.73-2.83,1.22Z"/>
      <path class="cls-16" d="m80.93,133.41c.67-.56,1.98-.11,2.92,1,.94,1.11,1.16,2.46.48,3.02-.67.56-1.97.11-2.91-1-.94-1.11-1.16-2.46-.49-3.02Z"/>
      <path class="cls-13" d="m93.04,131.51c.68-.56,1.98-.11,2.92,1,.94,1.11,1.15,2.46.48,3.02-.67.56-1.98.11-2.91-1-.94-1.11-1.16-2.46-.49-3.02Z"/>
      <path class="cls-13" d="m100.69,145.95c.67-.56,1.98-.11,2.91,1,.94,1.11,1.16,2.46.49,3.02-.67.56-1.98.11-2.92-1-.94-1.11-1.15-2.46-.48-3.02Z"/>
      <path class="cls-13" d="m106.37,129.32c.67-.56,1.98-.11,2.92,1,.94,1.11,1.15,2.46.48,3.02-.67.56-1.98.11-2.91-1-.94-1.11-1.16-2.46-.49-3.02Z"/>
      <path class="cls-13" d="m78.43,143.87c-.29-.82.58-1.88,1.96-2.36,1.38-.49,2.73-.22,3.02.61.3.82-.58,1.87-1.96,2.36-1.38.48-2.73.21-3.03-.61Z"/>
      <path class="cls-13" d="m98.54,140.28c-.29-.82.59-1.88,1.96-2.36,1.37-.48,2.72-.21,3.02.61.29.82-.58,1.88-1.96,2.36-1.38.48-2.73.22-3.02-.61Z"/>
      <path class="cls-13" d="m86.95,127.59c-.29-.82.59-1.88,1.97-2.36,1.38-.49,2.73-.22,3.02.6.3.82-.58,1.88-1.96,2.36-1.38.49-2.73.21-3.03-.6Z"/>
      <path class="cls-13" d="m85.28,133.74c-.29-.82.58-1.88,1.96-2.36,1.38-.49,2.73-.22,3.02.6.29.82-.59,1.87-1.96,2.36-1.38.49-2.73.21-3.03-.61Z"/>
      <path class="cls-16" d="m107.35,140.13c-.64-.6-.34-1.93.67-2.98,1.01-1.05,2.33-1.42,2.97-.82.63.6.34,1.94-.67,2.99-1.01,1.05-2.34,1.42-2.97.82Z"/>
      <path class="cls-16" d="m97.36,132.22c.16-.85,1.45-1.33,2.89-1.07,1.44.26,2.47,1.17,2.31,2.02-.16.86-1.45,1.33-2.89,1.08-1.44-.26-2.47-1.17-2.32-2.02Z"/>
    </g>
    <g>
      <path class="cls-16" d="m139.99,117.8c.24-.83,1.58-1.18,2.99-.77,1.4.41,2.33,1.42,2.09,2.25-.25.83-1.58,1.18-2.98.77-1.4-.41-2.34-1.42-2.09-2.25Z"/>
      <path class="cls-16" d="m137.07,127.66c-.71-.5-.6-1.87.25-3.05s2.12-1.72,2.83-1.22c.71.5.61,1.87-.25,3.05-.85,1.18-2.11,1.72-2.83,1.22Z"/>
      <path class="cls-16" d="m141.36,102.29c-.71-.51-.6-1.87.25-3.05.85-1.18,2.12-1.72,2.83-1.22.71.51.6,1.87-.24,3.05-.85,1.18-2.11,1.73-2.83,1.22Z"/>
      <path class="cls-16" d="m133.25,116.3c-.71-.5-.6-1.87.25-3.05.85-1.18,2.11-1.73,2.82-1.22.72.51.61,1.87-.24,3.05-.85,1.18-2.11,1.73-2.83,1.22Z"/>
      <path class="cls-16" d="m128.54,124.46c-.71-.5-.6-1.87.25-3.05.85-1.18,2.12-1.72,2.83-1.22.71.5.61,1.87-.25,3.05-.85,1.18-2.11,1.73-2.83,1.22Z"/>
      <path class="cls-16" d="m124.29,108.43c.67-.56,1.98-.11,2.91,1,.94,1.11,1.16,2.46.48,3.02-.67.56-1.98.11-2.91-1-.94-1.11-1.16-2.46-.48-3.02Z"/>
      <path class="cls-13" d="m136.4,106.53c.67-.56,1.98-.11,2.92,1,.94,1.11,1.16,2.46.48,3.02-.67.56-1.97.11-2.91-1-.94-1.11-1.16-2.46-.49-3.02Z"/>
      <path class="cls-13" d="m144.05,120.96c.67-.56,1.97-.11,2.92,1,.94,1.11,1.16,2.46.48,3.02-.67.56-1.98.11-2.91-.99-.94-1.11-1.15-2.46-.48-3.02Z"/>
      <path class="cls-13" d="m121.79,118.89c-.29-.82.58-1.88,1.96-2.36,1.38-.49,2.73-.21,3.02.61.29.82-.58,1.88-1.96,2.36-1.38.49-2.73.22-3.02-.61Z"/>
      <path class="cls-13" d="m141.89,115.3c-.29-.82.59-1.88,1.96-2.36,1.38-.48,2.73-.21,3.02.61.29.82-.58,1.88-1.96,2.36-1.38.48-2.73.21-3.02-.61Z"/>
      <path class="cls-13" d="m130.31,102.61c-.29-.82.58-1.88,1.96-2.36,1.38-.48,2.73-.21,3.02.61.29.82-.58,1.87-1.96,2.36-1.38.49-2.73.21-3.02-.6Z"/>
      <path class="cls-13" d="m128.64,108.76c-.29-.82.58-1.88,1.96-2.36,1.38-.49,2.73-.22,3.02.61.29.82-.59,1.87-1.96,2.36-1.38.49-2.73.21-3.03-.6Z"/>
      <path class="cls-16" d="m140.72,107.24c.16-.85,1.45-1.33,2.89-1.07,1.44.26,2.47,1.17,2.31,2.02-.16.85-1.45,1.34-2.89,1.07-1.44-.26-2.47-1.17-2.32-2.02Z"/>
    </g>
    <g>
      <path class="cls-16" d="m128.73,98.53c.25-.83,1.58-1.18,2.99-.77,1.4.41,2.34,1.42,2.09,2.25-.24.83-1.58,1.18-2.98.77-1.4-.41-2.34-1.41-2.09-2.25Z"/>
      <path class="cls-16" d="m125.82,108.39c-.71-.5-.61-1.87.24-3.05.85-1.18,2.11-1.72,2.83-1.22.71.5.6,1.87-.25,3.05-.85,1.18-2.12,1.73-2.83,1.22Z"/>
      <path class="cls-16" d="m130.1,83.01c-.71-.51-.6-1.87.24-3.05.85-1.18,2.12-1.72,2.83-1.22.71.51.6,1.87-.25,3.05-.85,1.18-2.11,1.73-2.83,1.22Z"/>
      <path class="cls-16" d="m121.99,97.02c-.71-.51-.6-1.87.24-3.05.85-1.18,2.12-1.73,2.83-1.22.71.5.6,1.87-.25,3.05-.85,1.18-2.11,1.73-2.83,1.22Z"/>
      <path class="cls-16" d="m117.29,105.19c-.71-.51-.6-1.87.24-3.05.85-1.18,2.11-1.72,2.83-1.22.71.5.6,1.87-.25,3.05-.85,1.18-2.12,1.72-2.83,1.22Z"/>
      <path class="cls-16" d="m113.03,89.15c.67-.56,1.97-.11,2.91,1,.94,1.11,1.16,2.46.48,3.02-.67.56-1.97.11-2.91-1-.94-1.11-1.16-2.46-.48-3.02Z"/>
      <path class="cls-13" d="m125.15,87.25c.67-.56,1.97-.11,2.91,1,.94,1.11,1.16,2.46.48,3.02-.67.56-1.97.11-2.91-1-.94-1.11-1.16-2.46-.49-3.02Z"/>
      <path class="cls-13" d="m132.79,101.69c.67-.56,1.97-.11,2.92,1,.94,1.11,1.16,2.46.49,3.02-.67.56-1.98.11-2.92-1-.94-1.11-1.15-2.46-.49-3.02Z"/>
      <path class="cls-13" d="m138.47,85.06c.67-.56,1.98-.11,2.92,1,.94,1.11,1.15,2.46.48,3.02-.67.56-1.97.11-2.91-1-.94-1.11-1.16-2.46-.49-3.02Z"/>
      <path class="cls-13" d="m110.53,99.61c-.29-.82.58-1.88,1.96-2.36,1.38-.49,2.73-.21,3.02.61.29.82-.58,1.87-1.96,2.36-1.38.49-2.73.21-3.02-.61Z"/>
      <path class="cls-13" d="m130.64,96.02c-.29-.82.58-1.88,1.96-2.36,1.38-.48,2.73-.21,3.02.61.3.82-.58,1.88-1.96,2.36-1.38.48-2.73.21-3.02-.61Z"/>
      <path class="cls-13" d="m119.05,83.34c-.29-.82.59-1.88,1.97-2.36,1.37-.48,2.73-.21,3.02.61.29.82-.58,1.87-1.96,2.36-1.38.48-2.73.21-3.03-.61Z"/>
      <path class="cls-13" d="m117.38,89.49c-.29-.82.58-1.88,1.96-2.36,1.38-.49,2.73-.22,3.02.61.29.82-.59,1.87-1.96,2.36-1.38.48-2.73.21-3.03-.61Z"/>
      <path class="cls-16" d="m139.45,95.88c-.64-.6-.34-1.94.67-2.99,1-1.05,2.33-1.42,2.97-.82.63.6.34,1.93-.67,2.98-1.01,1.05-2.34,1.42-2.97.82Z"/>
      <path class="cls-16" d="m129.46,87.97c.16-.85,1.45-1.33,2.89-1.07,1.44.26,2.47,1.17,2.32,2.02-.16.85-1.45,1.33-2.89,1.08-1.44-.26-2.47-1.17-2.31-2.02Z"/>
    </g>
    <g>
      <path class="cls-16" d="m85.42,93.24c.84-.26,1.86.66,2.29,2.05.43,1.38.09,2.71-.75,2.97-.83.26-1.86-.66-2.29-2.05-.43-1.39-.1-2.72.74-2.97Z"/>
      <path class="cls-16" d="m75.51,96.25c.03-.87,1.24-1.53,2.7-1.48,1.46.06,2.62.81,2.58,1.67-.03.87-1.24,1.53-2.7,1.47-1.46-.05-2.62-.8-2.58-1.67Z"/>
      <path class="cls-16" d="m99.24,85.84c.04-.87,1.24-1.53,2.7-1.47,1.46.06,2.62.8,2.58,1.67-.04.87-1.24,1.53-2.7,1.48-1.46-.05-2.62-.8-2.59-1.67Z"/>
      <path class="cls-16" d="m82.98,86.83c.03-.87,1.25-1.53,2.7-1.47,1.46.06,2.61.8,2.58,1.67-.03.87-1.24,1.53-2.7,1.48-1.46-.05-2.62-.8-2.59-1.67Z"/>
      <path class="cls-16" d="m73.52,87.42c.03-.87,1.25-1.53,2.7-1.47,1.46.05,2.62.8,2.58,1.67-.03.87-1.24,1.53-2.7,1.47-1.46-.05-2.62-.8-2.58-1.67Z"/>
      <path class="cls-16" d="m84.68,75.08c.84.25,1.18,1.58.76,2.96-.42,1.39-1.44,2.31-2.28,2.06-.84-.25-1.18-1.57-.76-2.96.41-1.39,1.44-2.31,2.28-2.06Z"/>
      <path class="cls-13" d="m92.94,84.07c.84.25,1.18,1.58.76,2.96-.42,1.39-1.44,2.31-2.28,2.06-.84-.25-1.18-1.57-.76-2.96.42-1.39,1.44-2.31,2.27-2.06Z"/>
      <path class="cls-13" d="m84.99,98.35c.84.25,1.18,1.58.76,2.96-.42,1.39-1.44,2.31-2.27,2.06-.84-.25-1.18-1.57-.77-2.96.42-1.39,1.44-2.31,2.28-2.06Z"/>
      <path class="cls-13" d="m102.12,93.9c.84.25,1.18,1.58.76,2.97-.42,1.39-1.44,2.31-2.28,2.06-.84-.25-1.18-1.57-.76-2.96.42-1.39,1.44-2.31,2.28-2.07Z"/>
      <path class="cls-13" d="m74.5,78.76c.53-.69,1.9-.55,3.07.33,1.17.88,1.68,2.15,1.15,2.84-.53.69-1.9.55-3.07-.33-1.17-.88-1.68-2.14-1.15-2.84Z"/>
      <path class="cls-13" d="m88.58,93.44c.53-.69,1.9-.55,3.07.33,1.16.88,1.68,2.14,1.15,2.84-.53.7-1.9.55-3.07-.32-1.17-.87-1.68-2.14-1.15-2.84Z"/>
      <path class="cls-13" d="m92.88,76.87c.53-.69,1.9-.55,3.07.33,1.17.87,1.68,2.14,1.15,2.84-.53.69-1.9.54-3.07-.33-1.17-.88-1.68-2.14-1.15-2.84Z"/>
      <path class="cls-13" d="m86.79,78.87c.53-.69,1.9-.55,3.07.33,1.17.87,1.68,2.14,1.15,2.84-.53.69-1.9.55-3.06-.33-1.17-.88-1.68-2.14-1.16-2.84Z"/>
      <path class="cls-16" d="m93.55,100.66c.15-.85,1.44-1.34,2.88-1.09,1.44.25,2.48,1.15,2.32,2.01-.15.85-1.44,1.34-2.88,1.09-1.44-.25-2.48-1.15-2.33-2.01Z"/>
      <path class="cls-16" d="m94.71,88.04c.8-.34,1.92.47,2.49,1.8.57,1.34.38,2.69-.43,3.03-.81.34-1.92-.47-2.5-1.8-.57-1.33-.38-2.69.43-3.03Z"/>
    </g>
    <g>
      <path class="cls-16" d="m111.39,138.97c.84-.25,1.86.67,2.29,2.05.43,1.39.09,2.72-.75,2.97-.84.25-1.86-.66-2.29-2.05-.43-1.39-.1-2.72.74-2.97Z"/>
      <path class="cls-16" d="m101.48,141.98c.03-.87,1.24-1.53,2.7-1.47,1.46.05,2.62.8,2.58,1.67-.03.87-1.24,1.53-2.7,1.48-1.46-.06-2.61-.8-2.58-1.67Z"/>
      <path class="cls-16" d="m125.21,131.57c.03-.87,1.24-1.53,2.7-1.47,1.46.05,2.62.8,2.58,1.67s-1.24,1.53-2.7,1.48c-1.46-.05-2.62-.8-2.58-1.67Z"/>
      <path class="cls-16" d="m108.95,132.56c.03-.87,1.24-1.53,2.7-1.48,1.46.05,2.62.8,2.58,1.67-.04.87-1.25,1.53-2.7,1.48-1.46-.05-2.62-.8-2.58-1.67Z"/>
      <path class="cls-16" d="m99.49,133.15c.04-.87,1.25-1.53,2.71-1.48,1.46.05,2.61.8,2.58,1.67-.03.87-1.24,1.53-2.7,1.48-1.46-.06-2.62-.8-2.59-1.67Z"/>
      <path class="cls-16" d="m110.65,120.8c.84.25,1.18,1.58.76,2.96-.42,1.39-1.44,2.31-2.28,2.06-.84-.25-1.18-1.57-.76-2.96.41-1.39,1.43-2.31,2.27-2.06Z"/>
      <path class="cls-13" d="m118.91,129.79c.84.25,1.18,1.58.76,2.96-.42,1.39-1.44,2.31-2.28,2.06-.84-.25-1.18-1.57-.76-2.96.42-1.39,1.43-2.31,2.27-2.07Z"/>
      <path class="cls-13" d="m110.96,144.07c.84.25,1.18,1.58.76,2.96-.42,1.39-1.44,2.32-2.27,2.06-.84-.25-1.18-1.58-.77-2.96.42-1.39,1.44-2.31,2.28-2.06Z"/>
      <path class="cls-13" d="m128.09,139.62c.84.25,1.18,1.58.76,2.97-.42,1.39-1.44,2.31-2.28,2.06-.84-.25-1.18-1.57-.76-2.96.41-1.39,1.44-2.31,2.28-2.07Z"/>
      <path class="cls-13" d="m100.46,124.49c.53-.69,1.9-.55,3.07.33,1.17.88,1.68,2.15,1.15,2.84-.53.69-1.9.55-3.06-.33-1.17-.88-1.68-2.14-1.15-2.84Z"/>
      <path class="cls-13" d="m114.55,139.17c.53-.69,1.9-.55,3.07.33,1.16.87,1.68,2.14,1.15,2.84-.53.7-1.9.55-3.07-.32-1.16-.87-1.68-2.14-1.15-2.84Z"/>
      <path class="cls-13" d="m118.86,122.6c.53-.69,1.9-.55,3.07.33,1.17.87,1.68,2.14,1.15,2.84-.53.69-1.9.55-3.07-.33-1.17-.88-1.68-2.15-1.15-2.84Z"/>
      <path class="cls-13" d="m112.76,124.59c.53-.69,1.9-.55,3.07.33,1.17.87,1.68,2.14,1.15,2.84-.53.69-1.9.54-3.06-.33-1.17-.87-1.68-2.14-1.16-2.84Z"/>
      <path class="cls-16" d="m119.52,146.39c.15-.85,1.44-1.34,2.88-1.09,1.44.25,2.48,1.15,2.33,2.01-.16.86-1.44,1.35-2.88,1.09-1.44-.25-2.48-1.15-2.33-2.01Z"/>
      <path class="cls-16" d="m120.68,133.76c.8-.34,1.92.47,2.49,1.8.57,1.33.38,2.69-.43,3.03-.81.34-1.92-.47-2.49-1.8-.57-1.34-.38-2.69.43-3.03Z"/>
    </g>
  </g>
</svg>