<?xml version="1.0" encoding="utf-8"?>
<!-- Generator: Adobe Illustrator 27.9.0, SVG Export Plug-In . SVG Version: 6.00 Build 0)  -->
<svg version="1.1" id="Layer_1" xmlns="http://www.w3.org/2000/svg" xmlns:xlink="http://www.w3.org/1999/xlink" x="0px" y="0px"
	 viewBox="0 0 219.56 188.9" style="enable-background:new 0 0 219.56 188.9;" xml:space="preserve">
<style type="text/css">
	.st0{fill-rule:evenodd;clip-rule:evenodd;fill:#F4F5F7;}
	.st1{fill-rule:evenodd;clip-rule:evenodd;fill:#E3E4E9;}
	.st2{fill-rule:evenodd;clip-rule:evenodd;fill:#FF6224;}
	.st3{fill-rule:evenodd;clip-rule:evenodd;fill:#ED4605;}
	.st4{fill-rule:evenodd;clip-rule:evenodd;fill:#A60603;}
	.st5{fill-rule:evenodd;clip-rule:evenodd;fill:#865334;}
	.st6{fill:#BD8F4F;}
	.st7{fill:#CEA265;}
	.st8{fill-rule:evenodd;clip-rule:evenodd;fill:#A66A44;}
	.st9{fill-rule:evenodd;clip-rule:evenodd;fill:#542E17;}
	.st10{fill-rule:evenodd;clip-rule:evenodd;fill:#663B20;}
	.st11{fill:#519A48;}
	.st12{fill-rule:evenodd;clip-rule:evenodd;fill:#F5DEB6;}
	.st13{fill:#FFF3DA;}
	.st14{fill:#FA692F;}
	.st15{fill:#EFD05C;}
	.st16{fill-rule:evenodd;clip-rule:evenodd;fill:#2E2D33;}
	.st17{fill-rule:evenodd;clip-rule:evenodd;fill:#4D4C52;}
	.st18{fill-rule:evenodd;clip-rule:evenodd;fill:#828287;}
	.st19{fill-rule:evenodd;clip-rule:evenodd;fill:#D23508;}
	.st20{fill-rule:evenodd;clip-rule:evenodd;fill:#BA2D06;}
	.st21{fill-rule:evenodd;clip-rule:evenodd;fill:#B52E1A;}
	.st22{fill-rule:evenodd;clip-rule:evenodd;fill:#E69B4C;}
	.st23{fill-rule:evenodd;clip-rule:evenodd;fill:#EB7538;}
	.st24{fill-rule:evenodd;clip-rule:evenodd;fill:#DB662C;}
	.st25{fill-rule:evenodd;clip-rule:evenodd;fill:#66666B;}
	.st26{fill-rule:evenodd;clip-rule:evenodd;fill:#DB5128;}
	.st27{fill-rule:evenodd;clip-rule:evenodd;fill:#F7B268;}
	.st28{fill-rule:evenodd;clip-rule:evenodd;fill:#CC3D26;}
	.st29{fill-rule:evenodd;clip-rule:evenodd;fill:#D9B685;}
	.st30{fill-rule:evenodd;clip-rule:evenodd;fill:#FFECD1;}
	.st31{fill-rule:evenodd;clip-rule:evenodd;fill:#358541;}
	.st32{fill-rule:evenodd;clip-rule:evenodd;fill:#26632F;}
	.st33{fill-rule:evenodd;clip-rule:evenodd;fill:#FFCCB5;}
	.st34{fill-rule:evenodd;clip-rule:evenodd;fill:#F2B922;}
	.st35{fill-rule:evenodd;clip-rule:evenodd;fill:#F3CD2E;}
	.st36{fill-rule:evenodd;clip-rule:evenodd;fill:#FAF19B;}
	.st37{fill-rule:evenodd;clip-rule:evenodd;fill:#F3FFD9;}
	.st38{fill-rule:evenodd;clip-rule:evenodd;fill:#D1E3AA;}
	.st39{fill-rule:evenodd;clip-rule:evenodd;fill:#85522E;}
	.st40{fill-rule:evenodd;clip-rule:evenodd;fill:#C77B45;}
	.st41{fill-rule:evenodd;clip-rule:evenodd;fill:#A36539;}
	.st42{fill-rule:evenodd;clip-rule:evenodd;}
	.st43{fill-rule:evenodd;clip-rule:evenodd;fill:#C7C7C9;}
	.st44{fill-rule:evenodd;clip-rule:evenodd;fill:#99441D;}
	.st45{fill-rule:evenodd;clip-rule:evenodd;fill:#6B2605;}
	.st46{fill-rule:evenodd;clip-rule:evenodd;fill:#AD5025;}
	.st47{fill-rule:evenodd;clip-rule:evenodd;fill:#C75925;}
	.st48{fill-rule:evenodd;clip-rule:evenodd;fill:#B5582D;}
	.st49{fill-rule:evenodd;clip-rule:evenodd;fill:#519A48;}
	.st50{fill-rule:evenodd;clip-rule:evenodd;fill:#FBD5B0;}
	.st51{fill:#E8BC90;}
	.st52{fill-rule:evenodd;clip-rule:evenodd;fill:#7A3312;}
	.st53{fill-rule:evenodd;clip-rule:evenodd;fill:#FA7D44;}
	.st54{fill-rule:evenodd;clip-rule:evenodd;fill:#FCE38F;}
	.st55{fill-rule:evenodd;clip-rule:evenodd;fill:#464AA6;}
	.st56{fill-rule:evenodd;clip-rule:evenodd;fill:#00C36C;}
	.st57{fill-rule:evenodd;clip-rule:evenodd;fill:#006B43;}
	.st58{fill-rule:evenodd;clip-rule:evenodd;fill:#C5C6C9;}
	.st59{fill-rule:evenodd;clip-rule:evenodd;fill:#FFC250;}
	.st60{fill-rule:evenodd;clip-rule:evenodd;fill:#FFD177;}
	.st61{fill:#FFE7B8;}
	.st62{fill-rule:evenodd;clip-rule:evenodd;fill:#3A3940;}
	.st63{fill-rule:evenodd;clip-rule:evenodd;fill:#F7C35B;}
	.st64{fill-rule:evenodd;clip-rule:evenodd;fill:#BF9A76;}
	.st65{fill-rule:evenodd;clip-rule:evenodd;fill:#452508;}
	.st66{fill-rule:evenodd;clip-rule:evenodd;fill:#BF8B24;}
	.st67{fill-rule:evenodd;clip-rule:evenodd;fill:#C44918;}
	.st68{fill-rule:evenodd;clip-rule:evenodd;fill:#E6AC37;}
	.st69{fill-rule:evenodd;clip-rule:evenodd;fill:#522C0B;}
	.st70{fill-rule:evenodd;clip-rule:evenodd;fill:#E6551C;}
	.st71{fill-rule:evenodd;clip-rule:evenodd;fill:#EDD4A1;}
	.st72{fill-rule:evenodd;clip-rule:evenodd;fill:#784212;}
	.st73{fill-rule:evenodd;clip-rule:evenodd;fill:#F77745;}
	.st74{fill-rule:evenodd;clip-rule:evenodd;fill:#66380F;}
	.st75{fill-rule:evenodd;clip-rule:evenodd;fill:#995B25;}
	.st76{fill-rule:evenodd;clip-rule:evenodd;fill:#FF4F0C;}
	.st77{fill-rule:evenodd;clip-rule:evenodd;fill:#FAD58C;}
	.st78{fill-rule:evenodd;clip-rule:evenodd;fill:#FFF3DA;}
	.st79{fill-rule:evenodd;clip-rule:evenodd;fill:#D3D4D6;}
	.st80{fill-rule:evenodd;clip-rule:evenodd;fill:#EEF5FB;}
	.st81{fill-rule:evenodd;clip-rule:evenodd;fill:#DAE3EB;}
	.st82{fill-rule:evenodd;clip-rule:evenodd;fill:#C8CED4;}
	.st83{fill-rule:evenodd;clip-rule:evenodd;fill:#CAD3DB;}
	.st84{fill-rule:evenodd;clip-rule:evenodd;fill:#FDD657;}
	.st85{fill-rule:evenodd;clip-rule:evenodd;fill:#F0C330;}
	.st86{fill-rule:evenodd;clip-rule:evenodd;fill:#315E38;}
	.st87{fill-rule:evenodd;clip-rule:evenodd;fill:#99AE4C;}
	.st88{fill-rule:evenodd;clip-rule:evenodd;fill:#D6E0E8;}
	.st89{fill-rule:evenodd;clip-rule:evenodd;fill:#FFD6C7;}
	.st90{fill-rule:evenodd;clip-rule:evenodd;fill:#BD7E18;}
	.st91{fill-rule:evenodd;clip-rule:evenodd;fill:#D5962F;}
	.st92{fill-rule:evenodd;clip-rule:evenodd;fill:#E6A947;}
	.st93{fill-rule:evenodd;clip-rule:evenodd;fill:#EDB356;}
	.st94{fill-rule:evenodd;clip-rule:evenodd;fill:#DBB97F;}
	.st95{fill-rule:evenodd;clip-rule:evenodd;fill:#EACB97;}
	.st96{fill-rule:evenodd;clip-rule:evenodd;fill:#E3BF81;}
	.st97{fill:#333333;}
	.st98{fill-rule:evenodd;clip-rule:evenodd;fill:#754528;}
	.st99{fill:#242323;}
	.st100{fill-rule:evenodd;clip-rule:evenodd;fill:#E3E4E6;}
	.st101{fill-rule:evenodd;clip-rule:evenodd;fill:#FC8A31;}
	.st102{fill-rule:evenodd;clip-rule:evenodd;fill:#E67017;}
	.st103{fill-rule:evenodd;clip-rule:evenodd;fill:#6BBA61;}
	.st104{fill-rule:evenodd;clip-rule:evenodd;fill:#FCAB6D;}
	.st105{fill-rule:evenodd;clip-rule:evenodd;fill:#FFBE8C;}
	.st106{fill:#006B43;}
	.st107{fill-rule:evenodd;clip-rule:evenodd;fill:#FA692F;}
	.st108{fill-rule:evenodd;clip-rule:evenodd;fill:#9E3E03;}
	.st109{fill-rule:evenodd;clip-rule:evenodd;fill:#C27100;}
	.st110{fill-rule:evenodd;clip-rule:evenodd;fill:#B34602;}
	.st111{fill-rule:evenodd;clip-rule:evenodd;fill:#D68007;}
	.st112{fill-rule:evenodd;clip-rule:evenodd;fill:#FDFEFF;}
	.st113{fill-rule:evenodd;clip-rule:evenodd;fill:#A66805;}
	.st114{fill-rule:evenodd;clip-rule:evenodd;fill:#CC4F00;}
	.st115{fill-rule:evenodd;clip-rule:evenodd;fill:#E68B09;}
	.st116{fill-rule:evenodd;clip-rule:evenodd;fill:#123618;}
	.st117{fill-rule:evenodd;clip-rule:evenodd;fill:#1C4622;}
	.st118{fill:#1C4622;}
	.st119{fill:#315E38;}
	.st120{fill-rule:evenodd;clip-rule:evenodd;fill:#D7D7DB;}
	.st121{fill-rule:evenodd;clip-rule:evenodd;fill:#FFFFFF;}
	.st122{fill-rule:evenodd;clip-rule:evenodd;fill:#C8CAC9;}
	.st123{fill-rule:evenodd;clip-rule:evenodd;fill:#B3B0A9;}
	.st124{fill-rule:evenodd;clip-rule:evenodd;fill:#E8DFE0;}
	.st125{fill-rule:evenodd;clip-rule:evenodd;fill:#AD8F8C;}
	.st126{fill-rule:evenodd;clip-rule:evenodd;fill:#BE9F9C;}
	.st127{fill-rule:evenodd;clip-rule:evenodd;fill:#5E4830;}
	.st128{fill:#96735A;}
	.st129{fill:#AD866B;}
	.st130{fill:#C5A189;}
	.st131{fill-rule:evenodd;clip-rule:evenodd;fill:#69523A;}
	.st132{fill-rule:evenodd;clip-rule:evenodd;fill:#DBDBDB;}
	.st133{fill-rule:evenodd;clip-rule:evenodd;fill:#F2F2F2;}
	.st134{fill-rule:evenodd;clip-rule:evenodd;fill:#6F952E;}
	.st135{fill-rule:evenodd;clip-rule:evenodd;fill:#D4E2A5;}
	.st136{fill-rule:evenodd;clip-rule:evenodd;fill:#C8D384;}
	.st137{fill-rule:evenodd;clip-rule:evenodd;fill:#F8FDFF;}
	.st138{fill-rule:evenodd;clip-rule:evenodd;fill:#F7D981;}
	.st139{fill-rule:evenodd;clip-rule:evenodd;fill:#FDE396;}
	.st140{fill-rule:evenodd;clip-rule:evenodd;fill:#E7A96E;}
	.st141{fill-rule:evenodd;clip-rule:evenodd;fill:#BA7E47;}
	.st142{fill:#FFFFFF;}
	.st143{fill-rule:evenodd;clip-rule:evenodd;fill:#C5A189;}
	.st144{fill-rule:evenodd;clip-rule:evenodd;fill:#951806;}
	.st145{fill-rule:evenodd;clip-rule:evenodd;fill:#801303;}
	.st146{fill-rule:evenodd;clip-rule:evenodd;fill:#D4510D;}
	.st147{fill-rule:evenodd;clip-rule:evenodd;fill:#E6C18A;}
	.st148{fill-rule:evenodd;clip-rule:evenodd;fill:#D59D5E;}
	.st149{fill-rule:evenodd;clip-rule:evenodd;fill:#D47507;}
	.st150{fill-rule:evenodd;clip-rule:evenodd;fill:#E38D2B;}
	.st151{fill-rule:evenodd;clip-rule:evenodd;fill:#BD6704;}
	.st152{fill-rule:evenodd;clip-rule:evenodd;fill:#E8891C;}
	.st153{fill-rule:evenodd;clip-rule:evenodd;fill:#D56400;}
	.st154{fill-rule:evenodd;clip-rule:evenodd;fill:#E6844E;}
	.st155{fill-rule:evenodd;clip-rule:evenodd;fill:#F1E2BB;}
	.st156{fill:#A33803;}
	.st157{fill-rule:evenodd;clip-rule:evenodd;fill:#A33803;}
	.st158{fill-rule:evenodd;clip-rule:evenodd;fill:#B54306;}
	.st159{fill-rule:evenodd;clip-rule:evenodd;fill:#EA6321;}
	.st160{fill-rule:evenodd;clip-rule:evenodd;fill:#821909;}
	.st161{fill-rule:evenodd;clip-rule:evenodd;fill:#C44B0E;}
	.st162{fill-rule:evenodd;clip-rule:evenodd;fill:#B3320E;}
	.st163{fill-rule:evenodd;clip-rule:evenodd;fill:#BA874D;}
	.st164{fill-rule:evenodd;clip-rule:evenodd;fill:#6F351B;}
	.st165{fill-rule:evenodd;clip-rule:evenodd;fill:#5C2C15;}
	.st166{fill-rule:evenodd;clip-rule:evenodd;fill:#FA8950;}
	.st167{fill-rule:evenodd;clip-rule:evenodd;fill:#5E401D;}
	.st168{fill:#D59D5E;}
	.st169{fill:#BA874D;}
	.st170{fill:#E4C292;}
	.st171{fill:#EA6321;}
	.st172{fill:#FA8950;}
	.st173{fill-rule:evenodd;clip-rule:evenodd;fill:#8C5B34;}
	.st174{fill:#CF9470;}
	.st175{fill-rule:evenodd;clip-rule:evenodd;fill:#AA7448;}
	.st176{fill:#EFB795;}
	.st177{fill-rule:evenodd;clip-rule:evenodd;fill:#C9D98B;}
	.st178{fill-rule:evenodd;clip-rule:evenodd;fill:#93B04A;}
	.st179{fill-rule:evenodd;clip-rule:evenodd;fill:#D1E18E;}
	.st180{fill-rule:evenodd;clip-rule:evenodd;fill:#ABCB5C;}
	.st181{fill-rule:evenodd;clip-rule:evenodd;fill:#F0DEAD;}
	.st182{fill-rule:evenodd;clip-rule:evenodd;fill:#DEBA59;}
	.st183{fill-rule:evenodd;clip-rule:evenodd;fill:#E6D3A1;}
	.st184{fill-rule:evenodd;clip-rule:evenodd;fill:#FFF3D3;}
	.st185{fill-rule:evenodd;clip-rule:evenodd;fill:#F7D474;}
	.st186{fill-rule:evenodd;clip-rule:evenodd;fill:#A86046;}
	.st187{fill-rule:evenodd;clip-rule:evenodd;fill:#CF0200;}
	.st188{fill-rule:evenodd;clip-rule:evenodd;fill:#FF2D29;}
	.st189{fill-rule:evenodd;clip-rule:evenodd;fill:#43983E;}
	.st190{fill-rule:evenodd;clip-rule:evenodd;fill:#136B29;}
	.st191{fill-rule:evenodd;clip-rule:evenodd;fill:#D1E694;}
	.st192{fill-rule:evenodd;clip-rule:evenodd;fill:#218239;}
	.st193{fill-rule:evenodd;clip-rule:evenodd;fill:#035C3B;}
	.st194{fill-rule:evenodd;clip-rule:evenodd;fill:#54A051;}
	.st195{fill-rule:evenodd;clip-rule:evenodd;fill:#FFCBA3;}
	.st196{fill-rule:evenodd;clip-rule:evenodd;fill:#EB9350;}
	.st197{fill:#EB9350;}
	.st198{fill-rule:evenodd;clip-rule:evenodd;fill:#BDBDBB;}
	.st199{fill-rule:evenodd;clip-rule:evenodd;fill:#A15E23;}
</style>
<path class="st16" d="M40.34,33.8c0,0-34.44,22.54-37.26,28.87c-2.81,6.34-3.96,52.17-2.33,57.71c1.63,5.54,37.12,34.11,37.12,34.11
	L40.34,33.8L40.34,33.8z"/>
<path class="st17" d="M37.92,152.34L40.3,35.68C32.05,41.19,8.15,57.47,5.82,62.71c-2.81,6.34-3.96,52.17-2.33,57.71
	C4.84,125.02,29.6,145.54,37.92,152.34L37.92,152.34z"/>
<path class="st18" d="M10.22,65.31L10.22,65.31c0.7,0.01,1.26,0.59,1.25,1.29l-0.57,51.36c-0.01,0.7-0.58,1.27-1.28,1.26h0
	c-0.7-0.01-1.26-0.59-1.25-1.29l0.57-51.36C8.95,65.86,9.53,65.3,10.22,65.31L10.22,65.31z"/>
<path class="st16" d="M10.75,65.43c0.43,0.21,0.73,0.65,0.73,1.17l-0.57,51.36c-0.01,0.51-0.31,0.95-0.75,1.15
	c-0.43-0.21-0.73-0.65-0.73-1.17L10,66.58C10.01,66.06,10.31,65.62,10.75,65.43L10.75,65.43z"/>
<path class="st18" d="M17.84,58.7L17.84,58.7c0.7,0.01,1.26,0.59,1.25,1.29l-0.72,64.73c-0.01,0.7-0.58,1.27-1.28,1.26h0
	c-0.7-0.01-1.26-0.59-1.25-1.29l0.72-64.73C16.57,59.26,17.15,58.7,17.84,58.7L17.84,58.7z"/>
<path class="st16" d="M18.37,58.83c0.43,0.21,0.73,0.65,0.73,1.17l-0.72,64.73c-0.01,0.51-0.31,0.95-0.75,1.15
	c-0.43-0.21-0.73-0.65-0.73-1.17l0.72-64.73C17.63,59.46,17.93,59.02,18.37,58.83L18.37,58.83z"/>
<path class="st16" d="M180.74,35.39c0,0,33.93,23.31,36.61,29.7s2.8,52.25,1.05,57.75c-1.75,5.5-37.87,33.27-37.87,33.27
	L180.74,35.39L180.74,35.39z"/>
<path class="st17" d="M180.52,153.94l0.21-116.68c8.12,5.69,31.66,22.51,33.87,27.8c2.67,6.4,2.8,52.25,1.05,57.75
	C214.19,127.38,188.98,147.34,180.52,153.94L180.52,153.94z"/>
<path class="st18" d="M210.14,67.56L210.14,67.56c-0.7-0.01-1.27,0.56-1.28,1.26l-0.57,51.36c-0.01,0.7,0.56,1.28,1.25,1.29h0
	c0.7,0.01,1.27-0.56,1.28-1.26l0.57-51.36C211.4,68.14,210.84,67.56,210.14,67.56L210.14,67.56z"/>
<path class="st16" d="M210.2,121.28c0.37-0.22,0.61-0.62,0.62-1.08l0.57-51.36c0.01-0.46-0.23-0.86-0.59-1.09
	c-0.37,0.22-0.61,0.62-0.62,1.08l-0.57,51.36C209.6,120.65,209.84,121.05,210.2,121.28L210.2,121.28z"/>
<path class="st18" d="M202.67,60.79L202.67,60.79c-0.7-0.01-1.27,0.56-1.28,1.26l-0.72,64.73c-0.01,0.7,0.56,1.28,1.25,1.29h0
	c0.7,0.01,1.27-0.56,1.28-1.26l0.72-64.73C203.93,61.37,203.37,60.79,202.67,60.79L202.67,60.79z"/>
<path class="st16" d="M202.58,127.88c0.37-0.22,0.61-0.62,0.62-1.08l0.72-64.73c0-0.46-0.23-0.86-0.59-1.09
	c-0.37,0.22-0.61,0.62-0.62,1.08l-0.72,64.73C201.98,127.25,202.22,127.66,202.58,127.88L202.58,127.88z"/>
<path class="st16" d="M111.42,0.01c51.87,0.58,93.45,43.34,92.86,95.5c-0.58,52.16-43.1,93.97-94.97,93.39
	c-51.87-0.58-93.45-43.34-92.86-95.5C17.04,41.23,59.55-0.58,111.42,0.01L111.42,0.01z"/>
<path class="st17" d="M111.34,7.65c47.67,0.54,85.89,39.84,85.35,87.78c-0.53,47.94-39.61,86.37-87.28,85.83
	c-47.67-0.54-85.89-39.84-85.35-87.78C24.59,45.54,63.67,7.11,111.34,7.65L111.34,7.65z"/>
<path class="st19" d="M111.25,15.29c43.48,0.49,78.33,36.33,77.84,80.05c-0.49,43.72-36.13,78.77-79.6,78.28
	c-43.48-0.49-78.33-36.33-77.84-80.05C32.14,49.84,67.78,14.8,111.25,15.29L111.25,15.29z"/>
<path class="st20" d="M36.8,89.79c0,0-3.47,4.1,2.11,13.84c5.58,9.75,15.6,15.11,19.48,27.63c3.88,12.52,3.39,16.42,12.77,25.36
	c9.37,8.94,18.91,7.64,18.91,7.64S72.48,107.99,36.8,89.79L36.8,89.79z"/>
<path class="st21" d="M179.23,132.85c-13.59,24.59-39.81,41.1-69.74,40.76c-1.92-0.02-3.83-0.12-5.71-0.27
	c0.04-0.07,0.08-0.13,0.12-0.19c0.62-1.15,0.39-3.69-1.03-4.94c-1.42-1.26-1.5-0.59-3.17-2.12c-1.66-1.53,1.51-2.55,1.8-4.18
	c0.29-1.63-1.6-0.8-2.83-3.73c-1.24-2.93,13.25-7.01,24.09-10.78c10.84-3.77,11.07-4.38,17.45-9.2
	c6.38-4.82,23.47-14.87,31.04-14.69C174.55,123.58,177.16,127.87,179.23,132.85L179.23,132.85z"/>
<path class="st22" d="M177.46,135.89c-3.86,6.31-8.58,12.03-13.99,17c0.4-0.56,0.78-1.16,1.23-1.85c1.91-2.91-4.1-0.48-10.13,2.39
	c-6.03,2.87-12.99,5.98-16.49,5.39c-3.5-0.59,10.74-4.86,15.09-6.9c4.35-2.04,6.42-3.59,7.67-5.89c1.24-2.3-0.59-2.06-2.39-0.76
	c-1.8,1.3-8.16,4.47-20.1,8.42c-11.94,3.95-5.13,0.25-3.11-0.26c2.02-0.52,9.07-3.25,15.2-7.21c6.14-3.96,6.66-5,6.75-5.55
	c0.09-0.55-1.72-0.5-6.65,3.06c-4.94,3.56-14.15,6.05-14.91,6.01c-0.77-0.04,4.32-1.97,9.48-5.88c5.16-3.91,14.05-8.7,12.79-9.03
	c-1.26-0.32-5.89,2.66-14.54,7.73c-8.65,5.07-15.76,6.64-17.55,6.55c-1.79-0.09,6.82-3.26,11.01-5.8c4.2-2.54,8.27-4.78,12.11-7.29
	c3.84-2.51,11.36-7.14,16.14-8.93c4.77-1.79,5.36-1.3,7.9,1.1C174.06,129.23,175.8,132.34,177.46,135.89L177.46,135.89z
	 M159.24,156.52c-1.57,1.25-3.2,2.45-4.86,3.58c-3.37,1.38-6.63,2.67-8.23,2.77c-3.1,0.18,4.9-2.79,10.39-5.08
	C157.6,157.34,158.49,156.92,159.24,156.52L159.24,156.52z"/>
<path class="st19" d="M103.37,156.62c2.26-0.68,14.77-5.63,18.6-6.57C125.8,149.12,114.68,156.09,103.37,156.62L103.37,156.62z
	 M135.53,169.49c-1.82,0.62-3.68,1.17-5.56,1.66c4.77-2.33,9.33-4.1,10.33-5.17C141.44,164.76,140.63,166.13,135.53,169.49
	L135.53,169.49z M120.23,173c-1.34,0.17-2.69,0.3-4.05,0.4c0.51-0.17,1.01-0.37,1.48-0.61c3.36-1.73,19.14-6.84,19.14-6.84
	s-5.68,2.35-13.89,5.85C121.97,172.19,121.08,172.6,120.23,173L120.23,173z M106.18,171.51c7.27-1.51,12.84-2.46,20.08-5.46
	c7.24-3,10.58-3.79,10.19-4.12c-0.39-0.33-10.34,3.18-14.51,4.08C117.77,166.9,106.43,169.08,106.18,171.51L106.18,171.51z
	 M103.94,167.23c1.16-0.07,15.43-1.97,21.49-4.39c6.06-2.42,7.91-6.06,7.62-5.56c-0.28,0.5-7.76,5.24-12.83,5.78
	c-5.07,0.54-14.06,2.24-16.26,2.34C101.75,165.5,103.94,167.23,103.94,167.23L103.94,167.23z M102.73,162.74
	c0.78-0.22,19.88-4.06,23.67-6.67c3.79-2.61,2.22-2.36-2.17-1.11c-4.39,1.24-18,4.45-21.79,3.83c-3.79-0.61,1.77,1.48,1.28,2.07
	C103.23,161.46,102.73,162.74,102.73,162.74L102.73,162.74z"/>
<path class="st23" d="M167.12,39.58c2.92,3.05,5.6,6.33,8,9.82c3.06,15.17,2.91,16.97,8.23,26.88c1.58,2.93,3.26,3.96,4.61,4.71
	c0.65,3.81,1.02,7.71,1.11,11.69c-0.79,2.86-1.92,6.52-3.46,11.23c-3.69,11.25-4.28,19.43-4.61,25.53
	c-3.15,6.43-7.15,12.36-11.84,17.65c-18.47,5.26-30.11-10.34-50.48,4.29c-20.37,14.63-19.4,23.73-33.62,11.7
	c-14.22-12.03,3.23-8.13-17.46-21.78c-20.69-13.65-26.83-7.76-31.6-24.1c-4.77-16.34,1.29-12.43,1.05-23.41
	c-0.24-10.97-5.82-27.15,7.03-37.14c12.85-10,10.18-8.29,17.46-18.61c7.27-10.32,17.46-1.87,33.87-10.85c0,0,10.02-16.9,41.7,0.65
	C153.24,36.78,162,38.27,167.12,39.58L167.12,39.58z"/>
<path class="st24" d="M86.4,164.18c-0.43-0.34-0.87-0.71-1.32-1.09c-14.22-12.03,3.23-8.13-17.46-21.78
	c-2.79-1.84-5.32-3.33-7.62-4.56c-0.46-1.64-0.98-3.44-1.61-5.48c-3.88-12.52-13.9-17.88-19.48-27.63
	c-1.05-1.84-1.78-3.48-2.28-4.93c0.29-1.26,0.48-2.81,0.43-4.9c-0.03-1.27-0.13-2.62-0.26-4.01l0,0
	c35.68,18.2,53.27,74.47,53.27,74.47S88.66,164.45,86.4,164.18L86.4,164.18z"/>
<path class="st25" d="M111.42,0.01c18.85,0.21,36.34,6,50.94,15.78C148.41,7.22,132.07,2.2,114.54,2.01
	C62.68,1.42,20.16,43.23,19.58,95.39c-0.37,33.21,16.35,62.6,41.93,79.73c-27.33-16.78-45.43-47.19-45.05-81.73
	C17.04,41.23,59.55-0.58,111.42,0.01L111.42,0.01z"/>
<path class="st18" d="M111.34,7.65c16.98,0.19,32.76,5.3,46.01,13.97c-12.56-7.44-27.17-11.78-42.79-11.96
	C66.89,9.12,27.81,47.55,27.28,95.49c-0.03,2.99,0.08,5.94,0.34,8.86c2.43,27.18,17.35,50.81,38.99,64.95
	c-20.55-12.18-35.63-32.66-40.7-56.81c-1.29-6.13-1.93-12.49-1.86-19.02C24.59,45.54,63.67,7.11,111.34,7.65L111.34,7.65z"/>
<path class="st26" d="M106.54,142.79c2.91,1.3,14.55,20.48,21.66,17.88c7.11-2.6,19.4-18.21,23.6-25.03
	c4.2-6.83,4.2-7.48,12.93-14.95c8.73-7.48,20.75-16.58,18.54-18.86c-2.21-2.28-3.67-0.81-3.99-2.44c-0.32-1.63,2.26-3.74,0.16-4.55
	c-2.1-0.81-1.94-0.16-3.72-0.81c-1.78-0.65-2.91-2.93-2.75-4.23c0.16-1.3,1.78-3.58-0.65-2.28c-2.42,1.3-5.66,1.79-4.69-0.16
	c0.97-1.95,2.1-5.85-0.49-4.88c-2.59,0.98-5.66,2.28-5.01,0.16c0.65-2.11,2.1-3.58,0.97-5.04c-1.13-1.46-1.94-2.93-3.56-0.81
	c-1.62,2.11-1.62,0-3.39,0c-1.78,0-2.75,4.71-6.47,9.75c-3.72,5.04-6.24,11.12-12.49,19.95c-6.25,8.82-11.91,15-19.51,19.23
	C110.1,129.95,104.28,137.43,106.54,142.79L106.54,142.79z"/>
<path class="st27" d="M110.42,135.31c-0.57,0.08-3.31,2.36-1.29,6.1c2.02,3.74,12.53,14.22,15.76,15.52s3.96,1.54,7.76-1.87
	c3.8-3.41,9.13-10.48,11.8-14.22c2.67-3.74,5.66-7.31,8.65-11.22c2.99-3.9,9.86-10,8.16-9.43c-1.7,0.57-7.76,4.63-13.98,12.52
	c-6.22,7.88-9.46,12.35-10.75,12.52c-1.29,0.16,5.25-7.56,8.65-13.09c3.39-5.53,7.44-9.18,6.71-8.94
	c-0.73,0.24-8.41,5.93-11.72,11.05c-3.31,5.12-4.98,5.83-5.09,5.28c-0.11-0.55,0-1.71,4.28-7.64c4.28-5.93,9.86-11.05,11.56-12.27
	c1.7-1.22,6.71-7.15-2.99,0.89c-9.7,8.05-14.47,13.33-15.68,15.2c-1.21,1.87-2.83,2.76-2.51,0.16c0.32-2.6,1.7-4.8,5.01-8.29
	c3.31-3.49,15.03-12.68,11.56-11.95c-3.48,0.73-8.84,6.18-13.42,11.05c-4.58,4.88-9.29,9.35-8.57,5.93s0.89-5.12,5.17-9.27
	c4.28-4.15,10.67-9.83,7.84-8.53c-2.83,1.3-9.88,9.15-13.42,11.62c-3.54,2.47-2.67,0.65-1.62-0.41c1.05-1.06,0.57-1.63-4.85,2.19
	C112.04,132.06,110.42,135.31,110.42,135.31L110.42,135.31z"/>
<path class="st28" d="M179.44,105c-1.86,1.46-11.72,10.65-14.95,12.92C161.26,120.2,169.09,109.63,179.44,105L179.44,105z
	 M154.71,81.43c0,0-5.33,11.38-9.54,16.66c-4.2,5.28-6.3,9.18-5.5,8.37C140.48,105.65,154.14,90.78,154.71,81.43L154.71,81.43z
	 M158.91,81.92c0,0,0,5.45-8.65,15.85c-8.65,10.4-9.46,14.15-8.61,12.03c0.85-2.12,9.1-8.95,13.22-15.45
	C158.99,87.85,158.91,81.92,158.91,81.92L158.91,81.92z M165.94,86.14c-0.73,0.16-3.8,5.61-10.18,11.87
	c-6.38,6.26-10.83,10.53-10.83,10.53s12.85-10.53,15.35-13.37c2.51-2.84,7.03-4.23,7.35-4.71
	C167.96,89.96,164.16,91.26,165.94,86.14L165.94,86.14z M171.44,92.16c-6.22,4.06-11.07,6.99-16.73,12.43
	c-5.66,5.45-8.49,7.4-8,7.56c0.48,0.16,8.49-6.75,12.04-9.1C162.31,100.69,172.08,94.52,171.44,92.16L171.44,92.16z M175.08,95.33
	c-1.05,0.49-13.66,7.48-18.43,11.95c-4.77,4.47-5.17,8.53-5.09,7.97c0.08-0.57,5.33-7.72,9.86-10.08
	c4.53-2.36,12.28-7.23,14.31-8.13C177.74,96.14,175.08,95.33,175.08,95.33L175.08,95.33z M177.82,99.07
	c-0.65,0.49-17.05,11.05-19.64,14.87c-2.59,3.82-1.21,3.01,2.42,0.24c3.64-2.76,15.16-10.73,18.91-11.54
	c3.75-0.81-2.18-0.73-1.94-1.46C177.82,100.45,177.82,99.07,177.82,99.07L177.82,99.07z"/>
<path class="st26" d="M82.2,157.3c2.05-2.45,23.62-8.33,23.12-15.92c-0.5-7.59-11.96-23.82-17.31-29.78
	c-5.34-5.97-5.97-6.15-10.67-16.66c-4.7-10.52-10.03-24.67-12.82-23.17c-2.79,1.5-1.8,3.31-3.44,3.17c-1.64-0.14-2.94-3.23-4.3-1.43
	c-1.36,1.8-0.7,1.83-1.81,3.36c-1.12,1.54-3.61,1.99-4.8,1.47c-1.2-0.52-2.92-2.72-2.35-0.01c0.56,2.7,0.13,5.96-1.46,4.48
	c-1.59-1.48-5-3.66-4.79-0.89c0.21,2.77,0.59,6.1-1.24,4.88c-1.84-1.21-2.83-3.03-4.54-2.34c-1.71,0.68-3.34,1.06-1.77,3.21
	c1.57,2.15-0.45,1.56-0.95,3.28c-0.5,1.72,3.73,3.97,7.51,8.97c3.77,5,8.88,9.13,15.56,17.64c6.68,8.5,11,15.69,12.91,24.21
	C70.93,150.28,76.45,157.99,82.2,157.3L82.2,157.3z"/>
<path class="st27" d="M76.15,151.47c-0.08,0.57,1.32,3.86,5.46,2.95c4.13-0.91,17.08-8.12,19.22-10.88
	c2.14-2.76,2.58-3.39,0.38-8.01c-2.2-4.62-7.46-11.75-10.28-15.37c-2.82-3.62-5.4-7.51-8.29-11.48c-2.89-3.98-6.79-12.31-6.72-10.52
	c0.07,1.8,2.26,8.79,8.05,17c5.79,8.21,9.15,12.58,8.95,13.88c-0.21,1.29-5.75-7.18-10.08-12.01c-4.33-4.82-6.69-9.75-6.66-8.97
	c0.03,0.77,3.32,9.77,7.28,14.4c3.96,4.63,4.18,6.44,3.62,6.39c-0.56-0.05-1.63-0.48-6.1-6.27c-4.47-5.79-7.8-12.61-8.49-14.59
	c-0.69-1.98-4.96-8.48,0.02,3.14c4.97,11.61,8.69,17.69,10.13,19.39c1.45,1.69,1.85,3.5-0.54,2.46c-2.39-1.04-4.1-2.98-6.52-7.15
	c-2.41-4.18-7.91-18.06-8.18-14.5c-0.27,3.56,3.43,10.26,6.81,16.04c3.38,5.78,6.33,11.59,3.27,9.93c-3.06-1.66-4.64-2.29-7.4-7.58
	c-2.76-5.29-6.41-13.05-5.96-9.95c0.45,3.09,5.98,12.1,7.35,16.2c1.37,4.11-0.12,2.76-0.84,1.45c-0.72-1.31-1.39-1,0.74,5.3
	C73.49,149,76.15,151.47,76.15,151.47L76.15,151.47z"/>
<path class="st28" d="M66.48,76.36c0.88,2.2,6.89,14.29,8.16,18.05C75.91,98.16,68.01,87.64,66.48,76.36L66.48,76.36z M37.07,93.65
	c0,0,9.37,8.33,13.24,13.86c3.87,5.53,7.01,8.65,6.46,7.65C56.22,114.15,45.83,96.81,37.07,93.65L37.07,93.65z M38.71,89.73
	c0,0,5.2,1.52,12.72,12.78c7.52,11.26,10.87,13.09,9.09,11.68c-1.78-1.41-6-11.28-11.06-17.08C44.39,91.31,38.71,89.73,38.71,89.73
	L38.71,89.73z M44.71,84.12c-0.05,0.75,4.29,5.23,8.49,13.15c4.19,7.91,7.03,13.39,7.03,13.39s-6.46-15.35-8.48-18.56
	c-2.02-3.21-2.07-7.97-2.45-8.42C48.92,83.24,49.1,87.27,44.71,84.12L44.71,84.12z M51.98,80.49c2.14,7.14,3.58,12.64,7.2,19.63
	c3.62,6.98,4.69,10.26,4.98,9.84c0.29-0.42-4.07-10.08-5.33-14.17C57.58,91.7,54.42,80.53,51.98,80.49L51.98,80.49z M56.03,77.87
	c0.17,1.15,3.32,15.28,6.26,21.13c2.94,5.85,6.7,7.38,6.18,7.14c-0.52-0.24-5.88-7.31-6.87-12.34c-0.99-5.03-3.47-13.88-3.76-16.08
	C57.55,75.52,56.03,77.87,56.03,77.87L56.03,77.87z M60.36,76.26c0.29,0.76,5.79,19.55,8.72,23.12c2.92,3.56,2.53,2.01,0.91-2.27
	c-1.62-4.28-6.01-17.64-5.74-21.49c0.27-3.85-1.31,1.9-1.94,1.46C61.68,76.65,60.36,76.26,60.36,76.26L60.36,76.26z"/>
<path class="st26" d="M175.94,103.02c-0.05-3.2,12.34-21.9,7-27.29c-5.34-5.39-24.59-10.02-32.52-10.98
	c-7.93-0.96-8.51-0.68-18.93-5.5c-10.42-4.81-23.69-11.94-24.81-8.97c-1.12,2.98,0.81,3.69-0.52,4.67
	c-1.33,0.98-4.33-0.49-4.17,1.77c0.15,2.26,0.67,1.84,0.83,3.73c0.16,1.9-1.41,3.89-2.65,4.29c-1.24,0.4-3.97-0.12-1.78,1.55
	c2.19,1.66,4,4.41,1.83,4.34c-2.17-0.06-6.16,0.55-4.19,2.5c1.97,1.95,4.44,4.2,2.26,4.5c-2.18,0.3-4.11-0.41-4.95,1.24
	c-0.84,1.65-1.82,3,0.77,3.59c2.59,0.58,0.68,1.47,1.43,3.1c0.75,1.62,5.41,0.52,11.52,1.79c6.11,1.27,12.66,1.01,23.25,2.99
	c10.59,1.99,18.55,4.55,25.56,9.7C162.87,105.18,172.06,107.34,175.94,103.02L175.94,103.02z"/>
<path class="st27" d="M167.57,102.63c0.31,0.48,3.52,2.03,6.04-1.39c2.52-3.42,7.55-17.42,7.36-20.91c-0.19-3.5-0.27-4.26-4.95-6.29
	c-4.68-2.03-13.3-3.91-17.8-4.77c-4.5-0.86-8.98-2.08-13.76-3.16c-4.78-1.08-13.17-4.78-11.94-3.47c1.23,1.31,7.45,5.13,17.18,7.48
	c9.73,2.36,15.12,3.42,15.82,4.53c0.69,1.11-9.03-1.61-15.44-2.38c-6.41-0.77-11.41-2.91-10.89-2.35c0.53,0.56,8.89,5.17,14.9,6.03
	c6.01,0.87,7.36,2.09,6.91,2.42c-0.45,0.33-1.54,0.72-8.69-0.69c-7.15-1.41-14.12-4.34-15.94-5.37c-1.81-1.03-9.28-3.11,2.07,2.35
	c11.34,5.46,18.12,7.58,20.31,7.9c2.2,0.32,3.68,1.42,1.2,2.22c-2.48,0.8-5.04,0.47-9.59-1.08c-4.55-1.55-17.77-8.37-15.64-5.51
	c2.12,2.86,9.29,5.46,15.62,7.58c6.33,2.12,12.34,4.54,8.96,5.31c-3.38,0.77-4.99,1.35-10.53-0.82c-5.54-2.16-13.36-5.59-11-3.56
	c2.36,2.03,12.42,5.15,16.13,7.34c3.72,2.19,1.71,2.16,0.31,1.65c-1.4-0.51-1.7,0.17,4.02,3.5
	C163.95,102.52,167.57,102.63,167.57,102.63L167.57,102.63z"/>
<path class="st28" d="M111.16,52.45c2.1,1.08,14.54,6.2,17.95,8.19C132.52,62.63,119.69,59.93,111.16,52.45L111.16,52.45z
	 M100.31,84.93c0,0,12.51,0.07,19.04,1.68c6.53,1.61,10.94,1.88,9.86,1.49C128.15,87.7,108.98,81.51,100.31,84.93L100.31,84.93z
	 M98.98,80.89c0,0,4.91-2.29,17.94,1.21c13.03,3.51,16.75,2.67,14.48,2.78c-2.27,0.12-11.9-4.53-19.5-5.55
	C104.3,78.32,98.98,80.89,98.98,80.89L98.98,80.89z M99.83,72.7c0.45,0.6,6.66,1.1,14.99,4.29c8.33,3.19,14.06,5.44,14.06,5.44
	s-14.91-7.28-18.53-8.37c-3.62-1.09-6.77-4.63-7.35-4.72C102.43,69.25,105.2,72.16,99.83,72.7L99.83,72.7z M102.94,65.15
	c6.29,3.96,10.97,7.15,18.26,10.02c7.29,2.87,10.24,4.62,10.19,4.11c-0.06-0.51-9.66-4.9-13.28-7.15
	C114.49,69.89,104.8,63.57,102.94,65.15L102.94,65.15z M104.27,60.5c0.88,0.75,12.5,9.31,18.54,11.77c6.04,2.47,9.88,1.12,9.33,1.29
	c-0.55,0.17-9.21-1.61-13.24-4.75c-4.03-3.14-11.7-8.16-13.36-9.62C103.88,57.73,104.27,60.5,104.27,60.5L104.27,60.5z
	 M106.48,56.42c0.71,0.38,17.15,10.9,21.69,11.65c4.53,0.75,3.22-0.16-0.8-2.31c-4.02-2.15-16.06-9.31-18.37-12.39
	c-2.31-3.08,0.26,2.3-0.5,2.39C107.73,55.84,106.48,56.42,106.48,56.42L106.48,56.42z"/>
<path class="st29" d="M78.79,98.81c0,0-12.85,10.28-13.05,10.04c-0.2-0.24-1.05-1.22-1.05-1.22l12.93-12.35L78.79,98.81L78.79,98.81
	z"/>
<path class="st30" d="M47.55,57.57c0,0,31.2,35.92,30.06,37.71c-1.13,1.79-12.93,12.35-12.93,12.35s-5.5-2.6-3.88-5.53
	c1.62-2.93-0.16-5.36-3.23-7.31c-3.07-1.95-5.82-1.95-7.27-5.04c-1.45-3.09-3.56-4.23-5.5-7.31c-1.94-3.09-1.77-3.1-3.95-5.94
	c-2.19-2.84-3.8-6.25-3.8-6.25S42.54,60.33,47.55,57.57L47.55,57.57z"/>
<path class="st26" d="M157.23,57.9c-1.18-2.97,3.77-24.88-3.13-28c-6.9-3.12-26.53-0.55-34.27,1.4c-7.75,1.95-8.2,2.41-19.64,1.66
	c-11.44-0.76-26.37-2.66-26.36,0.52c0.01,3.18,2.07,3.15,1.17,4.55c-0.9,1.39-4.21,1.09-3.27,3.15c0.94,2.06,1.28,1.48,2.1,3.19
	c0.82,1.71,0.06,4.14-0.96,4.96c-1.02,0.82-3.75,1.32-1.11,2.08c2.64,0.77,5.3,2.68,3.25,3.4c-2.05,0.72-5.56,2.72-3.03,3.84
	c2.53,1.11,5.63,2.33,3.7,3.4c-1.93,1.06-3.99,1.09-4.19,2.93c-0.2,1.84-0.64,3.46,1.99,3.08c2.62-0.38,1.16,1.13,2.43,2.38
	c1.27,1.25,5.24-1.45,11.4-2.46c6.16-1.01,12.18-3.6,22.79-5.54c10.6-1.94,18.94-2.4,27.32-0.11
	C145.78,64.62,155.14,63.34,157.23,57.9L157.23,57.9z"/>
<path class="st27" d="M149.27,60.55c0.46,0.34,4.01,0.63,5.15-3.46c1.14-4.1,0.88-18.98-0.54-22.18c-1.42-3.2-1.77-3.88-6.86-4.1
	c-5.09-0.22-13.82,1.11-18.32,1.93c-4.5,0.81-9.13,1.28-13.97,1.98c-4.85,0.7-14,0.25-12.39,1.04c1.61,0.78,8.77,2.12,18.7,0.83
	c9.93-1.29,15.34-2.23,16.38-1.44c1.04,0.79-9.01,1.74-15.27,3.32c-6.26,1.58-11.7,1.37-11.01,1.71c0.69,0.34,10.14,1.64,16.06,0.29
	c5.93-1.35,7.61-0.69,7.31-0.22c-0.3,0.47-1.18,1.22-8.37,2.47c-7.18,1.25-14.73,1.01-16.79,0.7c-2.06-0.32-9.77,0.43,2.76,1.46
	c12.53,1.03,19.61,0.59,21.78,0.1c2.16-0.49,3.94,0,1.91,1.64c-2.03,1.64-4.54,2.25-9.34,2.43c-4.8,0.18-19.57-1.45-16.57,0.46
	c3,1.91,10.62,1.77,17.28,1.48c6.66-0.29,13.14-0.19,10.25,1.75c-2.89,1.94-4.19,3.05-10.13,3.02c-5.94-0.03-14.47-0.43-11.54,0.62
	c2.93,1.05,13.43,0.36,17.68,1.07c4.25,0.71,2.36,1.4,0.88,1.42c-1.49,0.02-1.53,0.77,5,1.83
	C145.86,61.74,149.27,60.55,149.27,60.55L149.27,60.55z"/>
<path class="st28" d="M78.77,33.89c2.35,0.25,15.78,0.58,19.68,1.22C102.34,35.75,89.4,37.82,78.77,33.89L78.77,33.89z M80.16,68.13
	c0,0,11.71-4.42,18.39-5.26c6.68-0.84,10.89-2.16,9.74-2.15C107.15,60.74,87.05,61.82,80.16,68.13L80.16,68.13z M77.49,64.83
	c0,0,3.77-3.9,17.19-5.3c13.41-1.4,16.59-3.51,14.52-2.59c-2.08,0.92-12.72,0.04-20.18,1.81C81.54,60.52,77.49,64.83,77.49,64.83
	L77.49,64.83z M75.37,56.87c0.63,0.39,6.61-1.36,15.53-1.37c8.92-0.01,15.06,0.04,15.06,0.04s-16.51-1.46-20.28-1.17
	c-3.77,0.28-7.97-1.9-8.54-1.78C76.57,52.72,80.2,54.45,75.37,56.87L75.37,56.87z M75.6,48.71c7.28,1.45,12.78,2.75,20.61,2.81
	c7.83,0.06,11.21,0.65,10.98,0.19c-0.23-0.46-10.76-1.11-14.94-1.92C88.07,48.99,76.77,46.57,75.6,48.71L75.6,48.71z M75.19,43.89
	c1.09,0.39,14.98,4.21,21.49,4.35c6.52,0.14,9.62-2.49,9.17-2.14c-0.45,0.35-9.18,1.8-14.06,0.31c-4.88-1.48-13.82-3.43-15.89-4.2
	C73.85,41.43,75.19,43.89,75.19,43.89L75.19,43.89z M75.82,39.28c0.8,0.1,19.89,4.03,24.39,3.1c4.5-0.93,2.95-1.31-1.57-1.87
	c-4.52-0.57-18.31-2.94-21.56-4.98c-3.25-2.05,1.06,2.05,0.38,2.41C76.77,38.29,75.82,39.28,75.82,39.28L75.82,39.28z"/>
<path class="st29" d="M93.74,84.47c0,0-10.63,9.88-11.4,9.67c-0.77-0.2-2.1-2.02-2.1-2.02l12.56-9.96L93.74,84.47L93.74,84.47z"/>
<path class="st29" d="M97.54,82.27l-2.34-2.33c0,0,5.89-2.37,9.53-5.11c3.64-2.74,5.21-5.38,5.21-5.38l0.97,3.33
	C110.92,72.79,107.28,79.17,97.54,82.27L97.54,82.27z"/>
<path class="st30" d="M68.22,36.72c0,0,14.65-10.4,17.19-10.89c2.54-0.49,23.46,39.76,24.51,42.9c1.05,3.14-12.22,11.56-14.37,11.35
	c-2.15-0.22,4.42-4.99-0.46-13.87c-4.87-8.88-5.13,1.97-7.81-10.14c-2.68-12.11-2.53-16.06-4.45-17.13
	c-1.93-1.06-2.67-0.48-6.5,0.18C72.51,39.78,68.22,36.72,68.22,36.72L68.22,36.72z"/>
<path class="st30" d="M64.63,39.31c0,0,7.56,10.75,8.92,13.11c1.36,2.37,1.43,3.59,2.85,4.47c1.42,0.88,0.66,1.31,3.17,4.43
	c2.51,3.12,2.64,4.57,4.89,7.28c2.24,2.71,5.18,7.24,6.38,8.98c1.2,1.73,1.97,4.58,1.97,4.58S81.77,92.17,80.55,92.17
	c-1.22-0.01-2.32-2.24-4.59-5.97c-2.27-3.72-0.33-3.89-1.48-7.84c-1.15-3.95-4.28-6.09-5.52-6.26c-1.24-0.17-3.65-0.51-4.33-3.3
	c-0.68-2.78-0.73-5.72-1.65-7.24c-0.93-1.52-0.91-3.32-2.51-3.69c-1.59-0.37-2.82-1.03-3.75-1.98c-0.93-0.95-3.64-4.29-3.56-4.95
	C53.23,50.28,64.63,39.31,64.63,39.31L64.63,39.31z"/>
<path class="st31" d="M141.97,75.15c0,0-9.7,9.1-10.18,11.38c-0.49,2.28,10.34,39.82,11.96,39.99c1.62,0.16,8.57-7.48,9.05-13.33
	C153.29,107.33,141.97,75.15,141.97,75.15L141.97,75.15z"/>
<path class="st32" d="M134.56,82.66c-1.47,1.65-2.61,3.12-2.77,3.86c-0.19,0.87,1.3,6.96,3.29,14.13c0.95-2.6,1.47-5.41,1.47-8.34
	C136.55,88.88,135.84,85.62,134.56,82.66L134.56,82.66z"/>
<path class="st32" d="M141.97,75.15c0,0-1.48,1.39-3.31,3.21l10.73,42.8c1.72-2.46,3.19-5.39,3.41-7.97
	C153.29,107.33,141.97,75.15,141.97,75.15L141.97,75.15z"/>
<path class="st31" d="M167.09,92.23c5.79,0,10.49,4.01,10.49,8.95c0,4.94-4.7,8.95-10.49,8.95c-5.79,0-10.49-4.01-10.49-8.95
	C156.61,96.24,161.3,92.23,167.09,92.23L167.09,92.23z M167.09,94.99c4.01,0,7.25,2.77,7.25,6.19c0,3.42-3.25,6.19-7.25,6.19
	s-7.25-2.77-7.25-6.19C159.84,97.76,163.09,94.99,167.09,94.99L167.09,94.99z"/>
<path class="st33" d="M40.86,112.08c0,0-1.37,1.3,0.16,7.4c1.54,6.1,2.83,7.72,3.31,11.62c0.48,3.9,4.93,5.85,7.27,9.18
	c2.34,3.33,3.31,3.25,5.42,6.42c2.1,3.17,5.17,2.68,2.34-0.24c-2.83-2.93-4.36-6.18-6.71-8.37c-2.34-2.19-4.36-2.93-5.9-6.34
	c-1.54-3.41-0.16-4.23-2.18-7.8c-2.02-3.58-2.26-2.93-2.51-6.66C41.83,113.54,42.31,110.37,40.86,112.08L40.86,112.08z"/>
<path class="st33" d="M33.1,97.12c0,0,0.1,1.89,2.43,4.26c2.33,2.37,2.33,2.16,2.02,3.79c-0.31,1.63-1.3,2.23,0,3.62
	c1.3,1.38-1.19,1.38-1.83,1.02c-0.77-0.37-1.98-2.64-2.22-5.45c-0.24-2.8-0.81-2.8-1.17-4.31C31.97,98.55,32.33,95.91,33.1,97.12
	L33.1,97.12z M38.18,74.57c0,0,4.32,3.01,3.68,4.92c-0.65,1.91-1.09,1.95-1.01,4.59c0.08,2.64-3.56,1.58-2.83-1.18
	c0.73-2.76,3.15-4.93,0.71-5.94C36.28,75.95,37.29,74.36,38.18,74.57L38.18,74.57z M85.58,55.72c0,0-1.53,2.39,0.53,6.05
	c2.06,3.66,2.37,1.77,2.92,4.28c0.56,2.51-0.54,5.76-1.87,2.59c-1.33-3.17-3.8-7.72-5.21-10c-1.41-2.28-4.61-2.23-4.31-3.49
	c0.3-1.26,3.38,1.65,5.1,0.84C84.45,55.18,85.83,53.11,85.58,55.72L85.58,55.72z"/>
<path class="st33" d="M186.37,83.75c0,0.49,0.97,0.89,1.05,6.18c0.08,5.28,0.48,5.61-0.4,7.23c-0.89,1.63-0.57,2.52-1.13,5.36
	c-0.57,2.84-1.49,3.31-1.47,5.31c0.02,2,0.5,1.35-1.03,4.77c-1.54,3.41-1.94,5.28-2.67,6.18c-0.73,0.89-1.29,0.89-2.83,1.79
	c-1.54,0.89-3.07,0.24-0.89-1.87c2.18-2.11,2.75-3.17,3.6-5.04c0.85-1.87,0.44-1.87,1.82-5.36c1.37-3.49,2.34-5.61,2.51-7.48
	c0.16-1.87,0.65-5.45-0.57-5.04c-1.21,0.41-1.54,4.8-2.51,3.09c-0.97-1.71,0.57-3.49,1.13-6.66c0.57-3.17,1.78-2.85,1.94-5.45
	C185.08,84.16,185.24,81.56,186.37,83.75L186.37,83.75z M130.92,109.31c-1.41,1.14,0.4,3.82-8.04,5.85
	c-8.45,2.03-13.34,2.48-11.56,4.31c1.78,1.83,4.73-1.71,10.79-1.3C128.17,118.58,140.1,106.02,130.92,109.31L130.92,109.31z
	 M162.77,52.63c0.4,0.81,4.61,4.55,6.47,8.7c1.86,4.15-2.51,6.99-3.56,4.23c-1.05-2.76-1.78-6.5-4.45-4.8
	C158.57,62.46,157.37,50.76,162.77,52.63L162.77,52.63z M133.6,21.25c-1.29-0.08-0.57,0.89-10.1-1.54
	c-9.54-2.44-5.25-2.28-15.19-1.38c-9.94,0.89-5.01,0.57-11.88,1.71c-6.87,1.14-8.73,2.11-11.56,2.93c-2.83,0.81,0,1.95,4.04,0.81
	c4.04-1.14,7.11-2.28,13.17-2.6c6.06-0.33,4.08-2.36,11.24-1.26c7.16,1.09,9.93,2.48,13.32,2.56c3.39,0.08,5.58,0.16,5.41,0.89
	c-0.16,0.73-5.33,0.73-9.05,2.03c-3.72,1.3-2.67,2.52,1.21,1.71c3.88-0.81,9.13-2.68,12.93-2.11c3.8,0.57,6.55,2.52,8,1.46
	c1.45-1.06-6.22-1.46-7.68-3.25C136.02,21.42,133.6,21.25,133.6,21.25L133.6,21.25z M141.92,159.99c-3.07,2.52-5.5,3.17-3.31,3.33
	c2.18,0.16,2.59-1.79,5.25-2.52C146.53,160.07,141.92,159.99,141.92,159.99L141.92,159.99z M134.57,158.93
	c-0.57,0.41-1.78,2.84-5.01,3.58c-3.23,0.73-6.1,2.85-3.3,3.54c2.81,0.69,1.11,0.61,6.61-0.78
	C138.36,163.89,138.12,157.15,134.57,158.93L134.57,158.93z M164.87,123.5c0,0-0.28,0.28-0.79,0.83c-1.48,1.58-4.86,5.42-8.85,11.38
	c-5.38,8.03-7.55,10.48-6.34,11.49c1.2,1.01,4.11-4.19,6.45-7.77c2.34-3.58,3.56-5.77,5.33-6.83c1.78-1.06,3.56-4.8,3.72-2.76
	c0.16,2.03,1.54,5.53,2.67,3.58c1.13-1.95-0.08-4.96,2.42-6.26c2.51-1.3,6.71-1.87,7.27-2.52c0.57-0.65-0.73-2.36-4.61-1.06
	c-3.88,1.3-5.77,6.59-5.63,3.01C166.65,123.01,171.74,116.35,164.87,123.5L164.87,123.5z"/>
<path class="st31" d="M84.66,123.51c0,0,5.85,11.97,7.88,13.1c2.03,1.13,40.9,1.59,41.52,0.08c0.62-1.51-4.63-10.41-10.06-12.58
	C118.57,121.96,84.66,123.51,84.66,123.51L84.66,123.51z"/>
<path class="st32" d="M84.66,123.51c0,0,0.55,1.13,1.37,2.73c7.74-0.11,34.94-0.41,41.78,0.43c-1.21-1.11-2.51-2.02-3.82-2.55
	C118.57,121.96,84.66,123.51,84.66,123.51L84.66,123.51z"/>
<path class="st31" d="M70.19,117.12c0.28,4.62-2.65,8.56-6.54,8.8c-3.9,0.24-7.29-3.31-7.57-7.93c-0.28-4.62,2.65-8.56,6.54-8.8
	C66.51,108.95,69.9,112.5,70.19,117.12L70.19,117.12z M68.01,117.25c0.2,3.2-1.83,5.92-4.53,6.09c-2.7,0.17-5.04-2.29-5.24-5.48
	c-0.2-3.2,1.83-5.92,4.53-6.09C65.47,111.6,67.82,114.06,68.01,117.25L68.01,117.25z"/>
<path class="st31" d="M81.86,78.84c0.28,4.62-2.65,8.56-6.54,8.8c-3.9,0.24-7.29-3.31-7.57-7.93c-0.28-4.62,2.65-8.56,6.54-8.81
	C78.19,70.68,81.58,74.22,81.86,78.84L81.86,78.84z M79.69,78.98c0.2,3.2-1.83,5.92-4.53,6.09c-2.7,0.17-5.04-2.29-5.24-5.48
	c-0.2-3.2,1.83-5.92,4.53-6.09C77.14,73.33,79.49,75.78,79.69,78.98L79.69,78.98z"/>
<path class="st26" d="M62.32,51.53c0,0,3.36-0.82,2.34,0.41C63.64,53.16,62.62,53.06,62.32,51.53L62.32,51.53z M91.26,43.54
	c0,0,3.35-0.82,2.34,0.41C92.58,45.18,91.56,45.07,91.26,43.54L91.26,43.54z M86.95,69.24c0,0,0.03,3.47-0.93,2.2
	C85.07,70.16,85.4,69.19,86.95,69.24L86.95,69.24z M88.87,83.76c-1.56,0.32-1.28-1.01-0.89-1.21
	C88.36,82.36,90.61,80.42,88.87,83.76L88.87,83.76z M84.61,55.17c-1.85-0.15-2.39,1.17-1.4,1.4C84.21,56.81,86.52,55.72,84.61,55.17
	L84.61,55.17z M88.01,57.94c0,0-1.98-0.23-1.1,0.69C87.8,59.54,89.73,59,88.01,57.94L88.01,57.94z M94.43,60
	c-0.27-0.09-2.37-0.14-2.1,0.61c0.27,0.75,1.54,0.91,1.54,0.91L94.43,60L94.43,60z M90.81,73.53c0,0-1.08-0.75-1.23,0.11
	C89.43,74.5,90.56,75.81,90.81,73.53L90.81,73.53z M87.04,79.97c0,0-0.65-1.15-1.42-0.62C84.84,79.87,86.17,80.76,87.04,79.97
	L87.04,79.97z M82.5,82.39c-0.85-0.15-2.45,0.79-2.1,1.18c0.35,0.4,1.52,1.09,1.89,0.42C82.65,83.32,82.5,82.39,82.5,82.39
	L82.5,82.39z M77.56,77.97c-0.23,0.55-1.73,2.72-1.69,1.2C75.9,77.66,76.52,76.26,77.56,77.97L77.56,77.97z M82.5,59.56
	c-0.22-0.39-0.97-0.41-1.37,0.28C80.73,60.53,82.07,65.75,82.5,59.56L82.5,59.56z M90.99,65.81c-1.17-0.12-3.17,0.83-2.21,1.19
	C89.74,67.35,91.04,67.03,90.99,65.81L90.99,65.81z M87.16,62.28c0,0-1.75-1.02-1.74-0.28C85.44,62.74,86.23,63.58,87.16,62.28
	L87.16,62.28z M79.62,64.52c0,0-0.61-0.09-0.8,0.39c-0.19,0.48-0.44,1,0.16,1.09c0.61,0.09,0.75,0.04,0.79-0.15
	C79.83,65.65,80.25,64.49,79.62,64.52L79.62,64.52z M77.46,70c0,0-0.8-0.71-1.07,0.35c-0.27,1.06-1.01,1.52-0.03,1.59
	c0.98,0.07,1.25,0.14,1.25,0.14L77.46,70L77.46,70z M85.21,75.94l-0.2-1.62l-0.94,0.44c0,0-0.39,0.22-0.19,0.61
	C84.08,75.76,85.21,75.94,85.21,75.94L85.21,75.94z M81.73,75.52c-0.18-0.12-0.74-1.51-1.33-0.21c-0.59,1.3-0.43,1.42,0.09,1.41
	C81.01,76.71,81.73,75.52,81.73,75.52L81.73,75.52z M83.73,69.51c-0.05,0.2-0.66,1.39-0.83,1.2c-0.16-0.2-0.61-1.32-0.61-1.32
	l1.35-1.65L83.73,69.51L83.73,69.51z M104.88,38.35c0.66,1.46-0.69,1.48-0.97,1.15C103.63,39.17,101.25,37.41,104.88,38.35
	L104.88,38.35z M78.17,49.04c0.28,1.84,1.68,2.07,1.68,1.05C79.85,49.06,78.27,47.04,78.17,49.04L78.17,49.04z M80.07,45.07
	c0,0,0.23,1.99,0.91,0.92C81.68,44.92,80.71,43.16,80.07,45.07L80.07,45.07z M80.61,38.33c-0.03,0.28,0.41,2.35,1.07,1.92
	c0.66-0.44,0.53-1.71,0.53-1.71L80.61,38.33L80.61,38.33z M94.54,38.79c0,0-0.48,1.23,0.38,1.18C95.78,39.91,96.8,38.51,94.54,38.79
	L94.54,38.79z M101.63,41.01c0,0-0.97,0.89-0.28,1.53C102.03,43.18,102.59,41.67,101.63,41.01L101.63,41.01z M105.01,44.89
	c0.05,0.87,1.32,2.22,1.63,1.79c0.31-0.43,0.71-1.74-0.03-1.94C105.87,44.54,105.01,44.89,105.01,44.89L105.01,44.89z M101.86,50.75
	c0.58,0.1,3.02,1.07,1.55,1.38C101.93,52.43,100.43,52.15,101.86,50.75L101.86,50.75z M82.9,50.11c-0.33,0.31-0.18,1.05,0.58,1.28
	C84.24,51.62,89,49.11,82.9,50.11L82.9,50.11z M87.01,40.37c0.15,1.18,1.52,2.91,1.65,1.89C88.79,41.24,88.18,40.04,87.01,40.37
	L87.01,40.37z M84.47,44.92c0,0-0.58,1.94,0.13,1.76C85.31,46.5,85.95,45.53,84.47,44.92L84.47,44.92z M88.36,51.8
	c0,0,0.05,0.61,0.56,0.69c0.51,0.08,1.07,0.2,1.02-0.41c-0.05-0.61-0.13-0.74-0.33-0.74C89.4,51.34,88.18,51.18,88.36,51.8
	L88.36,51.8z M94.15,52.66c0,0-0.51,0.95,0.58,0.97c1.09,0.03,1.7,0.64,1.55-0.33c-0.15-0.97-0.15-1.25-0.15-1.25L94.15,52.66
	L94.15,52.66z M98.14,43.72l-1.52,0.56l0.64,0.82c0,0,0.31,0.33,0.64,0.05C98.22,44.87,98.14,43.72,98.14,43.72L98.14,43.72z
	 M98.53,47.22c-0.08,0.2-1.3,1.07,0.1,1.35c1.4,0.28,1.47,0.1,1.35-0.41C99.85,47.66,98.53,47.22,98.53,47.22L98.53,47.22z
	 M92.25,46.63c0.2,0,1.5,0.33,1.35,0.54c-0.15,0.2-1.14,0.89-1.14,0.89l-1.91-0.95L92.25,46.63L92.25,46.63z M58.01,77.23
	c0,0,0.03,3.47-0.93,2.2C56.12,78.15,56.45,77.18,58.01,77.23L58.01,77.23z M59.93,91.75c-1.56,0.32-1.28-1.01-0.89-1.21
	C59.42,90.34,61.67,88.41,59.93,91.75L59.93,91.75z M55.67,63.16c-1.85-0.15-2.39,1.17-1.4,1.4C55.27,64.79,57.58,63.71,55.67,63.16
	L55.67,63.16z M59.07,65.93c0,0-1.98-0.23-1.1,0.69C58.86,67.53,60.79,66.99,59.07,65.93L59.07,65.93z M65.49,67.99
	c-0.27-0.09-2.37-0.14-2.1,0.61c0.27,0.75,1.54,0.91,1.54,0.91L65.49,67.99L65.49,67.99z M61.86,81.52c0,0-1.08-0.75-1.23,0.1
	C60.49,82.48,61.62,83.8,61.86,81.52L61.86,81.52z M58.09,87.96c0,0-0.65-1.15-1.42-0.62C55.9,87.86,57.23,88.75,58.09,87.96
	L58.09,87.96z M53.56,90.38c-0.85-0.15-2.45,0.79-2.1,1.18c0.35,0.4,1.52,1.09,1.89,0.42C53.71,91.31,53.56,90.38,53.56,90.38
	L53.56,90.38z M48.61,85.96c-0.23,0.55-1.73,2.72-1.69,1.2C46.96,85.65,47.58,84.25,48.61,85.96L48.61,85.96z M53.56,67.54
	c-0.22-0.39-0.97-0.41-1.37,0.28C51.79,68.52,53.13,73.74,53.56,67.54L53.56,67.54z M62.05,73.79c-1.17-0.12-3.17,0.83-2.21,1.19
	C60.8,75.34,62.1,75.01,62.05,73.79L62.05,73.79z M58.22,70.27c0,0-1.75-1.02-1.74-0.28C56.49,70.73,57.29,71.57,58.22,70.27
	L58.22,70.27z M50.68,72.51c0,0-0.61-0.09-0.8,0.39c-0.19,0.48-0.44,1,0.16,1.09c0.61,0.09,0.75,0.04,0.79-0.15
	C50.89,73.63,51.31,72.47,50.68,72.51L50.68,72.51z M48.51,77.98c0,0-0.8-0.71-1.07,0.35c-0.27,1.06-1.01,1.52-0.03,1.59
	c0.98,0.07,1.25,0.14,1.25,0.14L48.51,77.98L48.51,77.98z M56.27,83.93l-0.2-1.62l-0.94,0.44c0,0-0.39,0.22-0.19,0.61
	C55.13,83.74,56.27,83.93,56.27,83.93L56.27,83.93z M52.79,83.5c-0.18-0.12-0.74-1.51-1.33-0.21c-0.59,1.3-0.43,1.42,0.09,1.41
	C52.07,84.7,52.79,83.5,52.79,83.5L52.79,83.5z M54.79,77.49c-0.05,0.2-0.66,1.39-0.83,1.2c-0.16-0.2-0.6-1.32-0.6-1.32l1.35-1.65
	L54.79,77.49L54.79,77.49z M75.94,46.34c0.66,1.46-0.69,1.48-0.97,1.15C74.69,47.16,72.3,45.39,75.94,46.34L75.94,46.34z
	 M49.23,57.02c0.28,1.84,1.68,2.07,1.68,1.05C50.9,57.05,49.33,55.03,49.23,57.02L49.23,57.02z M51.13,53.06
	c0,0,0.23,1.99,0.91,0.92C52.73,52.91,51.77,51.14,51.13,53.06L51.13,53.06z M51.67,46.31c-0.03,0.28,0.41,2.35,1.07,1.92
	c0.66-0.43,0.53-1.71,0.53-1.71L51.67,46.31L51.67,46.31z M65.59,46.77c0,0-0.48,1.23,0.38,1.18C66.84,47.9,67.86,46.49,65.59,46.77
	L65.59,46.77z M72.69,49c0,0-0.97,0.89-0.28,1.53C73.09,51.17,73.65,49.66,72.69,49L72.69,49z M76.07,52.88
	c0.05,0.87,1.32,2.22,1.63,1.79c0.31-0.43,0.71-1.74-0.03-1.94C76.93,52.52,76.07,52.88,76.07,52.88L76.07,52.88z M72.91,58.73
	c0.58,0.1,3.02,1.07,1.55,1.38C72.99,60.42,71.49,60.14,72.91,58.73L72.91,58.73z M53.95,58.1c-0.33,0.31-0.18,1.05,0.58,1.28
	C55.3,59.6,60.05,57.1,53.95,58.1L53.95,58.1z M58.07,48.36c0.15,1.18,1.52,2.91,1.65,1.89C59.85,49.23,59.24,48.03,58.07,48.36
	L58.07,48.36z M55.53,52.91c0,0-0.58,1.94,0.13,1.76C56.37,54.49,57,53.52,55.53,52.91L55.53,52.91z M59.42,59.78
	c0,0,0.05,0.61,0.56,0.69c0.51,0.08,1.07,0.2,1.02-0.41c-0.05-0.61-0.13-0.74-0.33-0.74C60.46,59.32,59.24,59.17,59.42,59.78
	L59.42,59.78z M65.21,60.65c0,0-0.51,0.95,0.58,0.97c1.09,0.03,1.7,0.64,1.55-0.33c-0.15-0.97-0.15-1.25-0.15-1.25L65.21,60.65
	L65.21,60.65z M69.2,51.71l-1.52,0.56l0.64,0.82c0,0,0.31,0.33,0.64,0.05C69.28,52.86,69.2,51.71,69.2,51.71L69.2,51.71z
	 M69.59,55.21c-0.08,0.2-1.3,1.07,0.1,1.35c1.4,0.28,1.47,0.1,1.35-0.41C70.91,55.64,69.59,55.21,69.59,55.21L69.59,55.21z
	 M63.31,54.62c0.2,0,1.5,0.33,1.35,0.54c-0.15,0.2-1.14,0.89-1.14,0.89L61.6,55.1L63.31,54.62L63.31,54.62z"/>
<path class="st26" d="M131.32,125.09c0,0,3.36-0.82,2.34,0.41C132.64,126.73,131.63,126.63,131.32,125.09L131.32,125.09z
	 M160.26,117.11c0,0,3.36-0.82,2.34,0.41C161.59,118.74,160.57,118.64,160.26,117.11L160.26,117.11z M155.96,142.81
	c0,0,0.03,3.47-0.93,2.2C154.07,143.73,154.4,142.75,155.96,142.81L155.96,142.81z M157.87,157.33c-1.56,0.32-1.28-1.01-0.89-1.21
	C157.37,155.92,159.62,153.98,157.87,157.33L157.87,157.33z M153.62,128.74c-1.85-0.15-2.39,1.17-1.4,1.4
	C153.21,130.37,155.53,129.29,153.62,128.74L153.62,128.74z M157.02,131.51c0,0-1.98-0.23-1.1,0.69
	C156.81,133.11,158.73,132.57,157.02,131.51L157.02,131.51z M163.43,133.57c-0.27-0.09-2.37-0.14-2.1,0.61
	c0.27,0.75,1.54,0.91,1.54,0.91L163.43,133.57L163.43,133.57z M159.81,147.1c0,0-1.08-0.75-1.23,0.11
	C158.44,148.06,159.57,149.38,159.81,147.1L159.81,147.1z M156.04,153.54c0,0-0.65-1.15-1.42-0.62
	C153.85,153.44,155.18,154.33,156.04,153.54L156.04,153.54z M151.51,155.96c-0.85-0.15-2.45,0.79-2.1,1.18
	c0.35,0.4,1.52,1.09,1.89,0.42C151.66,156.89,151.51,155.96,151.51,155.96L151.51,155.96z M146.56,151.54
	c-0.23,0.55-1.73,2.72-1.69,1.2C144.91,151.23,145.53,149.83,146.56,151.54L146.56,151.54z M151.5,133.12
	c-0.22-0.39-0.97-0.41-1.37,0.28C149.74,134.1,151.08,139.32,151.5,133.12L151.5,133.12z M159.99,139.37
	c-1.17-0.12-3.17,0.83-2.21,1.19C158.75,140.92,160.05,140.59,159.99,139.37L159.99,139.37z M156.17,135.85c0,0-1.75-1.02-1.74-0.28
	C154.44,136.31,155.24,137.15,156.17,135.85L156.17,135.85z M148.62,138.09c0,0-0.61-0.09-0.8,0.39c-0.19,0.48-0.44,1,0.16,1.09
	c0.61,0.09,0.75,0.04,0.79-0.15C148.83,139.21,149.26,138.05,148.62,138.09L148.62,138.09z M146.46,143.56c0,0-0.8-0.71-1.07,0.35
	c-0.27,1.06-1.01,1.52-0.03,1.59c0.98,0.07,1.25,0.14,1.25,0.14L146.46,143.56L146.46,143.56z M154.21,149.51l-0.2-1.62l-0.94,0.44
	c0,0-0.39,0.22-0.19,0.61C153.08,149.32,154.21,149.51,154.21,149.51L154.21,149.51z M150.74,149.08c-0.18-0.12-0.74-1.51-1.33-0.21
	c-0.59,1.3-0.43,1.42,0.09,1.41C150.01,150.28,150.74,149.08,150.74,149.08L150.74,149.08z M152.74,143.07
	c-0.05,0.2-0.66,1.39-0.83,1.2c-0.16-0.2-0.6-1.32-0.6-1.32l1.35-1.65L152.74,143.07L152.74,143.07z M173.89,111.92
	c0.66,1.46-0.69,1.48-0.97,1.15C172.64,112.73,170.25,110.97,173.89,111.92L173.89,111.92z M147.18,122.6
	c0.28,1.84,1.68,2.07,1.68,1.05C148.85,122.63,147.28,120.61,147.18,122.6L147.18,122.6z M149.08,118.64c0,0,0.23,1.99,0.91,0.92
	C150.68,118.49,149.72,116.72,149.08,118.64L149.08,118.64z M149.61,111.89c-0.03,0.28,0.41,2.35,1.07,1.92
	c0.66-0.43,0.53-1.71,0.53-1.71L149.61,111.89L149.61,111.89z M163.54,112.35c0,0-0.48,1.23,0.38,1.18
	C164.79,113.48,165.8,112.07,163.54,112.35L163.54,112.35z M170.63,114.57c0,0-0.97,0.89-0.28,1.53
	C171.04,116.75,171.6,115.24,170.63,114.57L170.63,114.57z M174.01,118.46c0.05,0.87,1.32,2.22,1.63,1.79
	c0.31-0.43,0.71-1.74-0.03-1.94C174.88,118.1,174.01,118.46,174.01,118.46L174.01,118.46z M170.86,124.31
	c0.58,0.1,3.02,1.07,1.55,1.38C170.94,126,169.44,125.72,170.86,124.31L170.86,124.31z M151.9,123.67
	c-0.33,0.31-0.18,1.05,0.58,1.28C153.25,125.18,158,122.68,151.9,123.67L151.9,123.67z M156.02,113.94
	c0.15,1.18,1.52,2.91,1.65,1.89C157.8,114.8,157.19,113.6,156.02,113.94L156.02,113.94z M153.48,118.49c0,0-0.58,1.94,0.13,1.76
	C154.32,120.07,154.95,119.1,153.48,118.49L153.48,118.49z M157.37,125.36c0,0,0.05,0.61,0.56,0.69c0.51,0.08,1.07,0.2,1.02-0.41
	c-0.05-0.61-0.13-0.74-0.33-0.74C158.41,124.9,157.19,124.75,157.37,125.36L157.37,125.36z M163.16,126.23c0,0-0.51,0.95,0.58,0.97
	c1.09,0.03,1.7,0.64,1.55-0.33c-0.15-0.97-0.15-1.25-0.15-1.25L163.16,126.23L163.16,126.23z M167.15,117.28l-1.52,0.56l0.64,0.82
	c0,0,0.31,0.33,0.64,0.05C167.23,118.43,167.15,117.28,167.15,117.28L167.15,117.28z M167.53,120.79c-0.08,0.2-1.3,1.07,0.1,1.35
	c1.4,0.28,1.47,0.1,1.35-0.41C168.85,121.22,167.53,120.79,167.53,120.79L167.53,120.79z M161.26,120.2c0.2,0,1.5,0.33,1.35,0.54
	c-0.15,0.2-1.14,0.89-1.14,0.89l-1.91-0.95L161.26,120.2L161.26,120.2z M127.02,150.79c0,0,0.03,3.47-0.93,2.2
	C125.13,151.71,125.46,150.74,127.02,150.79L127.02,150.79z M128.93,165.31c-1.56,0.32-1.28-1.01-0.89-1.21
	C128.43,163.91,130.68,161.97,128.93,165.31L128.93,165.31z M124.68,136.72c-1.85-0.15-2.39,1.17-1.4,1.4
	C124.27,138.36,126.59,137.28,124.68,136.72L124.68,136.72z M128.08,139.49c0,0-1.98-0.23-1.1,0.69
	C127.86,141.1,129.79,140.55,128.08,139.49L128.08,139.49z M134.49,141.55c-0.27-0.09-2.37-0.14-2.1,0.61
	c0.27,0.75,1.54,0.91,1.54,0.91L134.49,141.55L134.49,141.55z M130.87,155.09c0,0-1.08-0.75-1.23,0.11
	C129.5,156.05,130.63,157.37,130.87,155.09L130.87,155.09z M127.1,161.52c0,0-0.65-1.15-1.42-0.62
	C124.91,161.43,126.24,162.32,127.1,161.52L127.1,161.52z M122.57,163.95c-0.85-0.15-2.45,0.79-2.1,1.18
	c0.35,0.4,1.52,1.09,1.89,0.42C122.72,164.87,122.57,163.95,122.57,163.95L122.57,163.95z M117.62,159.53
	c-0.23,0.55-1.73,2.72-1.69,1.2C115.97,159.22,116.58,157.81,117.62,159.53L117.62,159.53z M122.56,141.11
	c-0.22-0.39-0.97-0.41-1.37,0.28C120.8,142.08,122.14,147.31,122.56,141.11L122.56,141.11z M131.05,147.36
	c-1.17-0.12-3.17,0.83-2.21,1.19C129.81,148.9,131.11,148.58,131.05,147.36L131.05,147.36z M127.23,143.83c0,0-1.75-1.02-1.74-0.28
	C125.5,144.29,126.3,145.14,127.23,143.83L127.23,143.83z M119.68,146.07c0,0-0.61-0.09-0.8,0.39c-0.19,0.48-0.44,1,0.16,1.09
	c0.61,0.09,0.75,0.04,0.79-0.15C119.89,147.2,120.32,146.04,119.68,146.07L119.68,146.07z M117.52,151.55c0,0-0.8-0.71-1.07,0.35
	c-0.27,1.06-1.01,1.52-0.03,1.59c0.98,0.07,1.25,0.14,1.25,0.14L117.52,151.55L117.52,151.55z M125.27,157.5l-0.2-1.62l-0.94,0.44
	c0,0-0.39,0.22-0.19,0.61C124.14,157.31,125.27,157.5,125.27,157.5L125.27,157.5z M121.8,157.07c-0.18-0.12-0.74-1.51-1.33-0.21
	c-0.59,1.3-0.43,1.42,0.09,1.41C121.07,158.27,121.8,157.07,121.8,157.07L121.8,157.07z M123.8,151.06c-0.05,0.2-0.66,1.39-0.83,1.2
	c-0.16-0.2-0.61-1.32-0.61-1.32l1.35-1.65L123.8,151.06L123.8,151.06z M144.95,119.9c0.66,1.46-0.69,1.48-0.97,1.15
	C143.7,120.72,141.31,118.96,144.95,119.9L144.95,119.9z M118.23,130.59c0.28,1.84,1.68,2.07,1.68,1.05
	C119.91,130.61,118.34,128.59,118.23,130.59L118.23,130.59z M120.14,126.63c0,0,0.23,1.99,0.92,0.92
	C121.74,126.47,120.78,124.71,120.14,126.63L120.14,126.63z M120.67,119.88c-0.03,0.28,0.41,2.35,1.07,1.92
	c0.66-0.43,0.53-1.71,0.53-1.71L120.67,119.88L120.67,119.88z M134.6,120.34c0,0-0.48,1.23,0.38,1.18
	C135.85,121.46,136.86,120.06,134.6,120.34L134.6,120.34z M141.69,122.56c0,0-0.97,0.89-0.28,1.53
	C142.1,124.73,142.66,123.23,141.69,122.56L141.69,122.56z M145.07,126.45c0.05,0.87,1.32,2.22,1.63,1.79
	c0.31-0.43,0.71-1.74-0.03-1.94C145.94,126.09,145.07,126.45,145.07,126.45L145.07,126.45z M141.92,132.3
	c0.58,0.1,3.02,1.07,1.55,1.38C142,133.99,140.5,133.7,141.92,132.3L141.92,132.3z M122.96,131.66c-0.33,0.31-0.18,1.05,0.58,1.28
	C124.31,133.17,129.06,130.66,122.96,131.66L122.96,131.66z M127.08,121.92c0.15,1.18,1.52,2.91,1.65,1.89
	C128.86,122.79,128.25,121.59,127.08,121.92L127.08,121.92z M124.54,126.47c0,0-0.58,1.94,0.13,1.76
	C125.38,128.06,126.01,127.09,124.54,126.47L124.54,126.47z M128.43,133.35c0,0,0.05,0.61,0.56,0.69c0.51,0.08,1.07,0.2,1.02-0.41
	c-0.05-0.61-0.13-0.74-0.33-0.74C129.47,132.89,128.25,132.73,128.43,133.35L128.43,133.35z M134.22,134.22c0,0-0.51,0.95,0.58,0.97
	c1.09,0.03,1.7,0.64,1.55-0.33c-0.15-0.97-0.15-1.25-0.15-1.25L134.22,134.22L134.22,134.22z M138.21,125.27l-1.52,0.56l0.64,0.82
	c0,0,0.31,0.33,0.64,0.05C138.29,126.42,138.21,125.27,138.21,125.27L138.21,125.27z M138.59,128.77c-0.08,0.2-1.3,1.07,0.1,1.35
	c1.4,0.28,1.47,0.1,1.35-0.41C139.91,129.21,138.59,128.77,138.59,128.77L138.59,128.77z M132.31,128.18c0.2,0,1.5,0.33,1.35,0.54
	c-0.15,0.2-1.14,0.89-1.14,0.89l-1.91-0.95L132.31,128.18L132.31,128.18z"/>
<path class="st26" d="M73.8,151.22c0,0-1.24-3.24,0.1-2.38C75.25,149.69,75.28,150.72,73.8,151.22L73.8,151.22z M62.19,123.4
	c0,0-1.24-3.24,0.1-2.38C63.63,121.87,63.66,122.89,62.19,123.4L62.19,123.4z M88.09,124.37c0,0,3.42-0.48,2.29,0.64
	C89.24,126.13,88.24,125.93,88.09,124.37L88.09,124.37z M102.16,120.58c0.51,1.52-0.83,1.41-1.08,1.05
	C100.84,121.27,98.64,119.27,102.16,120.58L102.16,120.58z M74.52,128.52c0.09,1.86,1.46,2.23,1.56,1.21
	C76.18,128.71,74.82,126.54,74.52,128.52L74.52,128.52z M76.81,124.77c0,0,0.03,2.01,0.82,1.01
	C78.42,124.78,77.63,122.92,76.81,124.77L76.81,124.77z M78.01,118.11c-0.05,0.28,0.17,2.38,0.87,2.01c0.7-0.37,0.7-1.65,0.7-1.65
	L78.01,118.11L78.01,118.11z M91.82,119.97c0,0-0.6,1.17,0.26,1.21C92.95,121.22,94.1,119.92,91.82,119.97L91.82,119.97z
	 M98.66,122.9c0,0-1.05,0.79-0.43,1.5C98.85,125.1,99.55,123.66,98.66,122.9L98.66,122.9z M101.63,127.11
	c-0.04,0.87,1.09,2.35,1.44,1.94c0.35-0.4,0.88-1.66,0.17-1.93C102.53,126.84,101.63,127.11,101.63,127.11L101.63,127.11z
	 M97.91,132.61c0.57,0.16,2.9,1.37,1.4,1.53C97.82,134.3,96.36,133.87,97.91,132.61L97.91,132.61z M79.11,130.06
	c-0.36,0.27-0.28,1.03,0.45,1.33C80.3,131.7,85.28,129.69,79.11,130.06L79.11,130.06z M84.18,120.79c0.03,1.18,1.23,3.05,1.45,2.05
	C85.86,121.83,85.38,120.58,84.18,120.79L84.18,120.79z M81.2,125.06c0,0-0.78,1.87-0.05,1.77C81.87,126.72,82.6,125.82,81.2,125.06
	L81.2,125.06z M84.38,132.29c0,0-0.01,0.62,0.49,0.74c0.5,0.13,1.04,0.31,1.05-0.3c0.01-0.62-0.05-0.75-0.25-0.77
	C85.46,131.94,84.27,131.66,84.38,132.29L84.38,132.29z M90.06,133.74c0,0-0.6,0.89,0.48,1.03c1.09,0.14,1.63,0.81,1.58-0.17
	c-0.05-0.98-0.03-1.26-0.03-1.26L90.06,133.74L90.06,133.74z M94.92,125.24l-1.57,0.41l0.55,0.88c0,0,0.27,0.36,0.63,0.12
	C94.88,126.39,94.92,125.24,94.92,125.24L94.92,125.24z M94.95,128.77c-0.1,0.2-1.4,0.94-0.03,1.36c1.36,0.42,1.46,0.25,1.38-0.27
	C96.22,129.33,94.95,128.77,94.95,128.77L94.95,128.77z M88.77,127.55c0.2,0.02,1.46,0.48,1.29,0.67c-0.17,0.19-1.23,0.77-1.23,0.77
	l-1.8-1.13L88.77,127.55L88.77,127.55z M55.31,110.48c1.35-0.85,1.55,0.49,1.26,0.81C56.28,111.62,54.85,114.23,55.31,110.48
	L55.31,110.48z M69.3,135.74c1.78-0.52,1.82-1.94,0.82-1.81C69.11,134.06,67.32,135.89,69.3,135.74L69.3,135.74z M65.15,134.35
	c0,0,1.94-0.49,0.79-1.03C64.79,132.77,63.17,133.96,65.15,134.35L65.15,134.35z M58.42,134.69c0.28-0.01,2.27-0.71,1.75-1.31
	c-0.51-0.6-1.76-0.31-1.76-0.31L58.42,134.69L58.42,134.69z M57.08,120.74c0,0,1.27,0.32,1.11-0.53
	C58.03,119.35,56.51,118.52,57.08,120.74L57.08,120.74z M58.35,113.38c0,0,1.01,0.85,1.55,0.08
	C60.44,112.7,58.88,112.33,58.35,113.38L58.35,113.38z M61.75,109.51c0.85-0.16,2.02-1.61,1.55-1.85c-0.47-0.25-1.81-0.49-1.91,0.28
	C61.28,108.69,61.75,109.51,61.75,109.51L61.75,109.51z M67.93,111.9c0.03-0.6,0.67-3.15,1.16-1.72
	C69.58,111.6,69.5,113.13,67.93,111.9L67.93,111.9z M69.75,130.89c0.35,0.29,1.06,0.04,1.18-0.75
	C71.06,129.35,67.98,124.93,69.75,130.89L69.75,130.89z M59.61,128.04c1.14-0.3,2.68-1.9,1.65-1.89
	C60.24,126.15,59.13,126.92,59.61,128.04L59.61,128.04z M64.43,129.98c0,0,1.99,0.33,1.72-0.35
	C65.88,128.94,64.84,128.44,64.43,129.98L64.43,129.98z M70.7,125.22c0,0,0.6-0.13,0.61-0.65c0.01-0.52,0.06-1.09-0.53-0.96
	c-0.6,0.13-0.71,0.22-0.69,0.43C70.12,124.24,70.12,125.48,70.7,125.22L70.7,125.22z M70.81,119.33c0,0,1,0.39,0.88-0.71
	c-0.12-1.09,0.41-1.78-0.53-1.5c-0.94,0.28-1.22,0.31-1.22,0.31L70.81,119.33L70.81,119.33z M61.48,116.5l0.75,1.45l0.72-0.74
	c0,0,0.29-0.35-0.03-0.64C62.6,116.28,61.48,116.5,61.48,116.5L61.48,116.5z M64.88,115.67c0.21,0.05,1.23,1.15,1.32-0.28
	c0.1-1.43-0.09-1.48-0.58-1.29C65.14,114.3,64.88,115.67,64.88,115.67L64.88,115.67z M65.11,122.01c-0.03-0.2,0.13-1.54,0.36-1.41
	c0.22,0.13,1.03,1.03,1.03,1.03l-0.69,2.02L65.11,122.01L65.11,122.01z M99.7,152.2c0,0,3.42-0.48,2.29,0.64
	C100.85,153.96,99.85,153.75,99.7,152.2L99.7,152.2z M113.77,148.41c0.51,1.52-0.83,1.41-1.08,1.05
	C112.45,149.1,110.25,147.1,113.77,148.41L113.77,148.41z M86.13,156.35c0.09,1.86,1.46,2.23,1.56,1.21
	C87.8,156.54,86.43,154.37,86.13,156.35L86.13,156.35z M88.42,152.6c0,0,0.03,2.01,0.82,1.01C90.03,152.61,89.25,150.75,88.42,152.6
	L88.42,152.6z M89.63,145.94c-0.05,0.28,0.17,2.38,0.87,2.01c0.7-0.37,0.7-1.65,0.7-1.65L89.63,145.94L89.63,145.94z M103.44,147.8
	c0,0-0.6,1.17,0.26,1.21C104.57,149.04,105.72,147.75,103.44,147.8L103.44,147.8z M110.27,150.73c0,0-1.05,0.79-0.43,1.5
	C110.46,152.93,111.17,151.49,110.27,150.73L110.27,150.73z M113.25,154.93c-0.04,0.87,1.09,2.35,1.44,1.94
	c0.35-0.4,0.88-1.66,0.17-1.93C114.14,154.66,113.25,154.93,113.25,154.93L113.25,154.93z M109.53,160.44
	c0.57,0.16,2.9,1.37,1.4,1.53C109.44,162.12,107.97,161.69,109.53,160.44L109.53,160.44z M90.73,157.89
	c-0.36,0.27-0.28,1.03,0.45,1.33C91.92,159.53,96.9,157.51,90.73,157.89L90.73,157.89z M95.8,148.62c0.03,1.18,1.23,3.05,1.45,2.05
	C97.48,149.66,96.99,148.4,95.8,148.62L95.8,148.62z M92.81,152.89c0,0-0.78,1.87-0.05,1.77C93.49,154.55,94.22,153.65,92.81,152.89
	L92.81,152.89z M96,160.12c0,0-0.01,0.62,0.49,0.74c0.5,0.13,1.04,0.31,1.05-0.3c0.01-0.62-0.05-0.75-0.25-0.77
	C97.08,159.77,95.88,159.49,96,160.12L96,160.12z M101.67,161.57c0,0-0.6,0.89,0.48,1.03c1.09,0.14,1.63,0.81,1.58-0.17
	c-0.05-0.98-0.03-1.26-0.03-1.26L101.67,161.57L101.67,161.57z M106.54,153.07l-1.57,0.41l0.55,0.88c0,0,0.27,0.36,0.63,0.12
	C106.5,154.22,106.54,153.07,106.54,153.07L106.54,153.07z M106.57,156.59c-0.1,0.2-1.4,0.94-0.03,1.36
	c1.36,0.42,1.46,0.25,1.38-0.27C107.84,157.16,106.57,156.59,106.57,156.59L106.57,156.59z M100.38,155.37
	c0.2,0.02,1.46,0.48,1.29,0.67c-0.17,0.19-1.23,0.77-1.23,0.77l-1.8-1.13L100.38,155.37L100.38,155.37z M66.93,138.31
	c1.35-0.85,1.55,0.49,1.26,0.81C67.89,139.45,66.46,142.06,66.93,138.31L66.93,138.31z M80.91,163.57c1.78-0.52,1.82-1.94,0.82-1.81
	C80.72,161.89,78.93,163.72,80.91,163.57L80.91,163.57z M76.76,162.18c0,0,1.94-0.49,0.79-1.03
	C76.4,160.6,74.79,161.79,76.76,162.18L76.76,162.18z M70.04,162.52c0.28-0.01,2.27-0.71,1.75-1.31c-0.51-0.6-1.76-0.31-1.76-0.31
	L70.04,162.52L70.04,162.52z M68.69,148.57c0,0,1.27,0.32,1.11-0.53C69.64,147.18,68.12,146.35,68.69,148.57L68.69,148.57z
	 M69.97,141.21c0,0,1.01,0.85,1.55,0.08C72.06,140.52,70.5,140.16,69.97,141.21L69.97,141.21z M73.36,137.34
	c0.85-0.16,2.02-1.6,1.55-1.85c-0.47-0.25-1.81-0.48-1.91,0.28C72.9,136.52,73.36,137.34,73.36,137.34L73.36,137.34z M79.54,139.72
	c0.03-0.6,0.67-3.15,1.16-1.72C81.2,139.43,81.11,140.96,79.54,139.72L79.54,139.72z M81.36,158.71c0.35,0.29,1.06,0.04,1.18-0.75
	C82.67,157.18,79.59,152.76,81.36,158.71L81.36,158.71z M71.23,155.87c1.14-0.3,2.68-1.9,1.65-1.89
	C71.85,153.98,70.75,154.74,71.23,155.87L71.23,155.87z M76.04,157.81c0,0,1.99,0.33,1.72-0.35
	C77.5,156.77,76.46,156.26,76.04,157.81L76.04,157.81z M82.32,153.05c0,0,0.6-0.13,0.61-0.65c0.01-0.52,0.06-1.09-0.53-0.96
	c-0.6,0.13-0.71,0.22-0.69,0.43C81.73,152.07,81.74,153.3,82.32,153.05L82.32,153.05z M82.43,147.16c0,0,1,0.38,0.88-0.71
	c-0.12-1.09,0.41-1.78-0.53-1.5c-0.94,0.28-1.22,0.31-1.22,0.31L82.43,147.16L82.43,147.16z M73.09,144.33l0.75,1.45l0.72-0.74
	c0,0,0.29-0.35-0.03-0.64C74.21,144.11,73.09,144.33,73.09,144.33L73.09,144.33z M76.49,143.5c0.21,0.05,1.23,1.15,1.32-0.28
	c0.1-1.43-0.09-1.48-0.58-1.29C76.75,142.13,76.49,143.5,76.49,143.5L76.49,143.5z M76.72,149.84c-0.03-0.2,0.13-1.54,0.36-1.41
	c0.22,0.13,1.03,1.03,1.03,1.03l-0.69,2.02L76.72,149.84L76.72,149.84z"/>
<path class="st26" d="M130.04,67.65c0,0-1.24-3.24,0.1-2.38C131.48,66.12,131.51,67.15,130.04,67.65L130.04,67.65z M118.42,39.82
	c0,0-1.24-3.24,0.1-2.38C119.86,38.29,119.89,39.32,118.42,39.82L118.42,39.82z M144.32,40.8c0,0,3.42-0.48,2.29,0.64
	C145.47,42.56,144.47,42.35,144.32,40.8L144.32,40.8z M158.39,37.01c0.51,1.52-0.83,1.41-1.08,1.05
	C157.07,37.7,154.87,35.7,158.39,37.01L158.39,37.01z M130.75,44.94c0.09,1.86,1.46,2.23,1.56,1.21
	C132.41,45.14,131.05,42.97,130.75,44.94L130.75,44.94z M133.04,41.2c0,0,0.03,2.01,0.82,1.01C134.65,41.2,133.86,39.35,133.04,41.2
	L133.04,41.2z M134.24,34.54c-0.05,0.28,0.17,2.38,0.87,2.01c0.7-0.37,0.7-1.65,0.7-1.65L134.24,34.54L134.24,34.54z M148.06,36.4
	c0,0-0.6,1.17,0.26,1.21C149.18,37.64,150.33,36.35,148.06,36.4L148.06,36.4z M154.89,39.32c0,0-1.05,0.79-0.43,1.5
	C155.08,41.53,155.78,40.08,154.89,39.32L154.89,39.32z M157.86,43.53c-0.04,0.87,1.09,2.35,1.44,1.94c0.35-0.4,0.88-1.66,0.17-1.93
	C158.76,43.26,157.86,43.53,157.86,43.53L157.86,43.53z M154.14,49.04c0.57,0.16,2.9,1.37,1.4,1.53
	C154.05,50.72,152.59,50.29,154.14,49.04L154.14,49.04z M135.34,46.49c-0.36,0.27-0.28,1.03,0.45,1.33
	C136.53,48.13,141.51,46.11,135.34,46.49L135.34,46.49z M140.41,37.22c0.03,1.18,1.23,3.05,1.45,2.05
	C142.1,38.26,141.61,37,140.41,37.22L140.41,37.22z M137.43,41.49c0,0-0.78,1.87-0.05,1.77C138.11,43.15,138.84,42.24,137.43,41.49
	L137.43,41.49z M140.61,48.72c0,0-0.01,0.62,0.49,0.74c0.5,0.13,1.04,0.31,1.05-0.3c0.01-0.62-0.05-0.75-0.25-0.77
	C141.7,48.37,140.5,48.09,140.61,48.72L140.61,48.72z M146.29,50.17c0,0-0.6,0.89,0.49,1.03c1.09,0.14,1.63,0.81,1.58-0.17
	c-0.05-0.98-0.03-1.26-0.03-1.26L146.29,50.17L146.29,50.17z M151.15,41.67l-1.57,0.41l0.55,0.88c0,0,0.27,0.36,0.63,0.12
	C151.12,42.82,151.15,41.67,151.15,41.67L151.15,41.67z M151.18,45.19c-0.1,0.2-1.4,0.94-0.03,1.36c1.36,0.42,1.46,0.25,1.38-0.27
	C152.46,45.76,151.18,45.19,151.18,45.19L151.18,45.19z M145,43.97c0.2,0.02,1.46,0.48,1.29,0.67c-0.17,0.19-1.23,0.77-1.23,0.77
	l-1.8-1.13L145,43.97L145,43.97z M111.54,26.91c1.35-0.85,1.55,0.49,1.26,0.81C112.51,28.04,111.08,30.65,111.54,26.91L111.54,26.91
	z M125.53,52.17c1.78-0.52,1.82-1.94,0.82-1.81C125.34,50.49,123.55,52.32,125.53,52.17L125.53,52.17z M121.38,50.78
	c0,0,1.94-0.49,0.79-1.03C121.02,49.2,119.41,50.39,121.38,50.78L121.38,50.78z M114.66,51.12c0.28-0.01,2.27-0.71,1.75-1.31
	c-0.51-0.6-1.76-0.31-1.76-0.31L114.66,51.12L114.66,51.12z M113.31,37.17c0,0,1.27,0.32,1.11-0.53
	C114.26,35.78,112.74,34.95,113.31,37.17L113.31,37.17z M114.59,29.81c0,0,1.01,0.85,1.55,0.08
	C116.68,29.12,115.12,28.76,114.59,29.81L114.59,29.81z M117.98,25.94c0.85-0.16,2.02-1.6,1.55-1.85c-0.47-0.25-1.8-0.49-1.91,0.28
	C117.51,25.12,117.98,25.94,117.98,25.94L117.98,25.94z M124.16,28.32c0.03-0.6,0.67-3.15,1.16-1.72
	C125.81,28.03,125.73,29.56,124.16,28.32L124.16,28.32z M125.98,47.31c0.35,0.29,1.06,0.04,1.18-0.75
	C127.29,45.77,124.21,41.36,125.98,47.31L125.98,47.31z M115.84,44.46c1.14-0.3,2.67-1.9,1.65-1.89
	C116.47,42.58,115.36,43.34,115.84,44.46L115.84,44.46z M120.66,46.41c0,0,1.99,0.33,1.72-0.35
	C122.11,45.37,121.07,44.86,120.66,46.41L120.66,46.41z M126.93,41.65c0,0,0.6-0.13,0.61-0.65c0.01-0.52,0.06-1.09-0.53-0.96
	c-0.6,0.13-0.71,0.22-0.69,0.43C126.35,40.67,126.35,41.9,126.93,41.65L126.93,41.65z M127.04,35.75c0,0,1,0.38,0.88-0.71
	c-0.12-1.09,0.41-1.78-0.53-1.5c-0.94,0.28-1.22,0.31-1.22,0.31L127.04,35.75L127.04,35.75z M117.71,32.93l0.75,1.45l0.72-0.74
	c0,0,0.29-0.35-0.03-0.64C118.83,32.71,117.71,32.93,117.71,32.93L117.71,32.93z M121.11,32.1c0.21,0.05,1.23,1.15,1.32-0.28
	c0.1-1.43-0.09-1.48-0.58-1.29C121.37,30.72,121.11,32.1,121.11,32.1L121.11,32.1z M121.34,38.43c-0.03-0.2,0.13-1.54,0.36-1.41
	c0.22,0.13,1.03,1.03,1.03,1.03l-0.69,2.02L121.34,38.43L121.34,38.43z M155.93,68.62c0,0,3.42-0.48,2.29,0.64
	C157.09,70.39,156.08,70.18,155.93,68.62L155.93,68.62z M170.01,64.84c0.51,1.52-0.83,1.41-1.08,1.05
	C168.69,65.52,166.48,63.53,170.01,64.84L170.01,64.84z M142.36,72.77c0.09,1.86,1.46,2.23,1.56,1.21
	C144.03,72.97,142.66,70.8,142.36,72.77L142.36,72.77z M144.65,69.02c0,0,0.03,2.01,0.82,1.01
	C146.26,69.03,145.48,67.18,144.65,69.02L144.65,69.02z M145.86,62.36c-0.05,0.28,0.17,2.38,0.87,2.01c0.7-0.37,0.7-1.65,0.7-1.65
	L145.86,62.36L145.86,62.36z M159.67,64.23c0,0-0.6,1.17,0.26,1.21C160.8,65.47,161.95,64.17,159.67,64.23L159.67,64.23z
	 M166.5,67.15c0,0-1.05,0.79-0.43,1.5C166.69,69.36,167.4,67.91,166.5,67.15L166.5,67.15z M169.48,71.36
	c-0.04,0.87,1.09,2.35,1.44,1.94c0.35-0.4,0.88-1.66,0.17-1.93C170.38,71.09,169.48,71.36,169.48,71.36L169.48,71.36z M165.76,76.86
	c0.57,0.16,2.9,1.37,1.4,1.53C165.67,78.55,164.2,78.12,165.76,76.86L165.76,76.86z M146.96,74.32c-0.36,0.27-0.28,1.03,0.45,1.33
	C148.15,75.95,153.13,73.94,146.96,74.32L146.96,74.32z M152.03,65.04c0.03,1.18,1.23,3.05,1.45,2.05
	C153.71,66.09,153.22,64.83,152.03,65.04L152.03,65.04z M149.04,69.31c0,0-0.78,1.87-0.05,1.77
	C149.72,70.98,150.45,70.07,149.04,69.31L149.04,69.31z M152.23,76.55c0,0-0.01,0.62,0.49,0.74c0.5,0.13,1.04,0.31,1.05-0.3
	c0.01-0.62-0.05-0.75-0.25-0.77C153.31,76.19,152.11,75.92,152.23,76.55L152.23,76.55z M157.91,78c0,0-0.6,0.89,0.48,1.03
	c1.09,0.14,1.63,0.81,1.58-0.17c-0.05-0.98-0.03-1.26-0.03-1.26L157.91,78L157.91,78z M162.77,69.5l-1.57,0.41l0.55,0.88
	c0,0,0.27,0.36,0.63,0.12C162.73,70.65,162.77,69.5,162.77,69.5L162.77,69.5z M162.8,73.02c-0.1,0.2-1.4,0.94-0.03,1.36
	c1.36,0.42,1.46,0.25,1.38-0.27C164.07,73.59,162.8,73.02,162.8,73.02L162.8,73.02z M156.61,71.8c0.2,0.02,1.46,0.48,1.29,0.67
	c-0.17,0.19-1.23,0.77-1.23,0.77l-1.8-1.13L156.61,71.8L156.61,71.8z M123.16,54.74c1.35-0.85,1.55,0.49,1.26,0.81
	C124.13,55.87,122.7,58.48,123.16,54.74L123.16,54.74z M137.15,79.99c1.78-0.52,1.82-1.94,0.82-1.81
	C136.95,78.32,135.17,80.15,137.15,79.99L137.15,79.99z M132.99,78.6c0,0,1.94-0.49,0.79-1.03
	C132.63,77.03,131.02,78.22,132.99,78.6L132.99,78.6z M126.27,78.94c0.28-0.01,2.27-0.71,1.75-1.31c-0.51-0.6-1.76-0.31-1.76-0.31
	L126.27,78.94L126.27,78.94z M124.92,65c0,0,1.27,0.32,1.11-0.53C125.87,63.61,124.35,62.78,124.92,65L124.92,65z M126.2,57.64
	c0,0,1.01,0.85,1.55,0.08C128.29,56.95,126.73,56.59,126.2,57.64L126.2,57.64z M129.59,53.76c0.85-0.16,2.02-1.6,1.55-1.85
	c-0.47-0.25-1.8-0.49-1.91,0.28C129.13,52.95,129.59,53.76,129.59,53.76L129.59,53.76z M135.77,56.15c0.03-0.6,0.67-3.15,1.16-1.72
	C137.43,55.86,137.34,57.39,135.77,56.15L135.77,56.15z M137.59,75.14c0.35,0.29,1.06,0.04,1.18-0.75
	C138.91,73.6,135.82,69.19,137.59,75.14L137.59,75.14z M127.46,72.29c1.14-0.3,2.68-1.9,1.65-1.89
	C128.09,70.41,126.98,71.17,127.46,72.29L127.46,72.29z M132.27,74.24c0,0,1.99,0.33,1.72-0.35
	C133.73,73.2,132.69,72.69,132.27,74.24L132.27,74.24z M138.55,69.47c0,0,0.6-0.13,0.61-0.65c0.01-0.52,0.06-1.09-0.53-0.96
	c-0.6,0.13-0.71,0.22-0.69,0.43C137.96,68.49,137.97,69.73,138.55,69.47L138.55,69.47z M138.66,63.58c0,0,1,0.38,0.88-0.71
	c-0.12-1.09,0.41-1.78-0.53-1.5c-0.94,0.28-1.22,0.31-1.22,0.31L138.66,63.58L138.66,63.58z M129.32,60.76l0.75,1.45l0.72-0.74
	c0,0,0.29-0.35-0.03-0.64C130.45,60.53,129.32,60.76,129.32,60.76L129.32,60.76z M132.73,59.93c0.21,0.05,1.23,1.15,1.32-0.28
	c0.1-1.43-0.09-1.48-0.58-1.29C132.98,58.55,132.73,59.93,132.73,59.93L132.73,59.93z M132.96,66.26c-0.03-0.2,0.13-1.54,0.36-1.41
	c0.22,0.13,1.03,1.03,1.03,1.03l-0.69,2.02L132.96,66.26L132.96,66.26z"/>
<path class="st31" d="M117.91,43.45c0,0-23.74,21.71-26.05,25.76c-2.3,4.05,4.75,12.3,6.04,10.56c1.3-1.74,24.75-25.18,25.61-27.06
	C124.39,50.83,117.91,43.45,117.91,43.45L117.91,43.45z"/>
<path class="st32" d="M91.61,72.64c1,3.99,5.31,8.45,6.3,7.13c0.7-0.94,7.95-8.3,14.57-15.12c-0.94-0.11-1.9-0.17-2.87-0.17
	C102.44,64.48,96.01,67.63,91.61,72.64L91.61,72.64z"/>
<path class="st34" d="M111.3,67.97c13.26,0,24,10.81,24,24.14c0,13.33-10.75,24.14-24,24.14c-13.26,0-24-10.81-24-24.14
	C87.3,78.78,98.05,67.97,111.3,67.97L111.3,67.97z"/>
<path class="st35" d="M111.3,73.06c10.46,0,18.95,8.53,18.95,19.05s-8.48,19.05-18.95,19.05c-10.46,0-18.95-8.53-18.95-19.05
	S100.84,73.06,111.3,73.06L111.3,73.06z"/>
<path class="st36" d="M121.77,78.67c3.9,3.12,6.4,7.94,6.4,13.34c0,9.42-7.59,17.06-16.96,17.06c-4.84,0-9.21-2.04-12.3-5.31
	c2.9,2.32,6.57,3.71,10.57,3.71c9.37,0,16.96-7.64,16.96-17.06C126.43,85.86,124.66,81.73,121.77,78.67L121.77,78.67z"/>
<path class="st31" d="M90.59,98.06c5.79,0,10.49,4.01,10.49,8.95c0,4.94-4.7,8.95-10.49,8.95s-10.49-4.01-10.49-8.95
	C80.1,102.06,84.8,98.06,90.59,98.06L90.59,98.06z M90.59,100.82c4.01,0,7.25,2.77,7.25,6.19c0,3.42-3.25,6.19-7.25,6.19
	c-4.01,0-7.26-2.77-7.26-6.19C83.34,103.59,86.59,100.82,90.59,100.82L90.59,100.82z"/>
<path class="st37" d="M137.1,45.86c0,0,29.31,12.1,30.17,27.7C168.12,89.16,108.48,36.48,137.1,45.86L137.1,45.86z"/>
<path class="st38" d="M165.11,71.1c0,0-13.62-15.49-26.17-21.93c-12.55-6.44-1.26,5.51,10.5,15.46
	C161.21,74.58,165.21,74.08,165.11,71.1L165.11,71.1z M132.03,47c0.09,0.46-1.67,2.4,7.37,11.58c9.04,9.18,16.51,14.1,20.17,14.97
	s5.11,0.34,5.11,0.34s-5.51-0.42-11.77-5.26C146.65,63.79,136.36,56.13,132.03,47L132.03,47z M165.05,69.44
	c-0.16-0.33-6.2-7.88-11.32-12.22c-5.12-4.34-8.35-6.33-12.7-8.53c-4.35-2.21-7.92-2.79-8.01-2.7c-0.09,0.09,7.43,2.84,10.93,5.06
	C147.45,53.27,151.86,55.68,165.05,69.44L165.05,69.44z M144.98,56.38c0.51,0.54,8.56,6.56,10.51,8.93
	C157.45,67.67,147.11,59.99,144.98,56.38L144.98,56.38z M162.56,70.22c-1.28-1.04-17.26-15.74-22.12-18.5
	c-4.86-2.77-1.96,0.65,7.07,9.44C156.53,69.95,164.8,73.03,162.56,70.22L162.56,70.22z"/>
<path class="st37" d="M73.31,139.81c0,0,26.03-0.68,32.03,10.96C111.33,162.4,48.73,142.33,73.31,139.81L73.31,139.81z"/>
<path class="st38" d="M102.89,149.62c0,0-15.49-7.22-27.06-7.9c-11.58-0.67,0.95,4.64,13.15,8.26
	C101.17,153.6,103.98,151.86,102.89,149.62L102.89,149.62z M69.91,142.4c0.22,0.32-0.42,2.4,9.48,6.35
	c9.9,3.95,17.16,5.19,20.2,4.61c3.03-0.57,3.93-1.47,3.93-1.47s-4.25,1.55-10.59-0.03C86.59,150.28,76.29,147.91,69.91,142.4
	L69.91,142.4z M102.27,148.37c-0.23-0.2-7.33-3.92-12.64-5.5c-5.31-1.58-8.41-2.01-12.41-2.22c-4.01-0.21-6.87,0.55-6.9,0.65
	c-0.04,0.1,6.52-0.34,9.9,0.17C83.58,141.97,87.7,142.32,102.27,148.37L102.27,148.37z M82.8,145.19c0.57,0.24,8.64,2.12,10.91,3.26
	C95.99,149.59,85.64,147.22,82.8,145.19L82.8,145.19z M100.68,149.81c-1.31-0.36-18.29-6.18-22.87-6.65
	c-4.58-0.47-1.24,1.16,8.52,4.82C96.09,151.64,103.32,151.19,100.68,149.81L100.68,149.81z"/>
</svg>
