<?xml version="1.0" encoding="utf-8"?>
<!-- Generator: Adobe Illustrator 27.9.0, SVG Export Plug-In . SVG Version: 6.00 Build 0)  -->
<svg version="1.1" id="Layer_1" xmlns="http://www.w3.org/2000/svg" xmlns:xlink="http://www.w3.org/1999/xlink" x="0px" y="0px"
	 viewBox="0 0 284.72 166.94" style="enable-background:new 0 0 284.72 166.94;" xml:space="preserve">
<style type="text/css">
	.st0{fill-rule:evenodd;clip-rule:evenodd;fill:#F4F5F7;}
	.st1{fill-rule:evenodd;clip-rule:evenodd;fill:#E3E4E9;}
	.st2{fill-rule:evenodd;clip-rule:evenodd;fill:#FF6224;}
	.st3{fill-rule:evenodd;clip-rule:evenodd;fill:#ED4605;}
	.st4{fill-rule:evenodd;clip-rule:evenodd;fill:#A60603;}
	.st5{fill-rule:evenodd;clip-rule:evenodd;fill:#865334;}
	.st6{fill:#BD8F4F;}
	.st7{fill:#CEA265;}
	.st8{fill-rule:evenodd;clip-rule:evenodd;fill:#A66A44;}
	.st9{fill-rule:evenodd;clip-rule:evenodd;fill:#542E17;}
	.st10{fill-rule:evenodd;clip-rule:evenodd;fill:#663B20;}
	.st11{fill:#519A48;}
	.st12{fill-rule:evenodd;clip-rule:evenodd;fill:#F5DEB6;}
	.st13{fill:#FFF3DA;}
	.st14{fill:#FA692F;}
	.st15{fill:#EFD05C;}
	.st16{fill-rule:evenodd;clip-rule:evenodd;fill:#2E2D33;}
	.st17{fill-rule:evenodd;clip-rule:evenodd;fill:#4D4C52;}
	.st18{fill-rule:evenodd;clip-rule:evenodd;fill:#828287;}
	.st19{fill-rule:evenodd;clip-rule:evenodd;fill:#D23508;}
	.st20{fill-rule:evenodd;clip-rule:evenodd;fill:#BA2D06;}
	.st21{fill-rule:evenodd;clip-rule:evenodd;fill:#B52E1A;}
	.st22{fill-rule:evenodd;clip-rule:evenodd;fill:#E69B4C;}
	.st23{fill-rule:evenodd;clip-rule:evenodd;fill:#EB7538;}
	.st24{fill-rule:evenodd;clip-rule:evenodd;fill:#DB662C;}
	.st25{fill-rule:evenodd;clip-rule:evenodd;fill:#66666B;}
	.st26{fill-rule:evenodd;clip-rule:evenodd;fill:#DB5128;}
	.st27{fill-rule:evenodd;clip-rule:evenodd;fill:#F7B268;}
	.st28{fill-rule:evenodd;clip-rule:evenodd;fill:#CC3D26;}
	.st29{fill-rule:evenodd;clip-rule:evenodd;fill:#D9B685;}
	.st30{fill-rule:evenodd;clip-rule:evenodd;fill:#FFECD1;}
	.st31{fill-rule:evenodd;clip-rule:evenodd;fill:#358541;}
	.st32{fill-rule:evenodd;clip-rule:evenodd;fill:#26632F;}
	.st33{fill-rule:evenodd;clip-rule:evenodd;fill:#FFCCB5;}
	.st34{fill-rule:evenodd;clip-rule:evenodd;fill:#F2B922;}
	.st35{fill-rule:evenodd;clip-rule:evenodd;fill:#F3CD2E;}
	.st36{fill-rule:evenodd;clip-rule:evenodd;fill:#FAF19B;}
	.st37{fill-rule:evenodd;clip-rule:evenodd;fill:#F3FFD9;}
	.st38{fill-rule:evenodd;clip-rule:evenodd;fill:#D1E3AA;}
	.st39{fill-rule:evenodd;clip-rule:evenodd;fill:#85522E;}
	.st40{fill-rule:evenodd;clip-rule:evenodd;fill:#C77B45;}
	.st41{fill-rule:evenodd;clip-rule:evenodd;fill:#A36539;}
	.st42{fill-rule:evenodd;clip-rule:evenodd;}
	.st43{fill-rule:evenodd;clip-rule:evenodd;fill:#C7C7C9;}
	.st44{fill-rule:evenodd;clip-rule:evenodd;fill:#99441D;}
	.st45{fill-rule:evenodd;clip-rule:evenodd;fill:#6B2605;}
	.st46{fill-rule:evenodd;clip-rule:evenodd;fill:#AD5025;}
	.st47{fill-rule:evenodd;clip-rule:evenodd;fill:#C75925;}
	.st48{fill-rule:evenodd;clip-rule:evenodd;fill:#B5582D;}
	.st49{fill-rule:evenodd;clip-rule:evenodd;fill:#519A48;}
	.st50{fill-rule:evenodd;clip-rule:evenodd;fill:#FBD5B0;}
	.st51{fill:#E8BC90;}
	.st52{fill-rule:evenodd;clip-rule:evenodd;fill:#7A3312;}
	.st53{fill-rule:evenodd;clip-rule:evenodd;fill:#FA7D44;}
	.st54{fill-rule:evenodd;clip-rule:evenodd;fill:#FCE38F;}
	.st55{fill-rule:evenodd;clip-rule:evenodd;fill:#464AA6;}
	.st56{fill-rule:evenodd;clip-rule:evenodd;fill:#00C36C;}
	.st57{fill-rule:evenodd;clip-rule:evenodd;fill:#006B43;}
	.st58{fill-rule:evenodd;clip-rule:evenodd;fill:#C5C6C9;}
	.st59{fill-rule:evenodd;clip-rule:evenodd;fill:#FFC250;}
	.st60{fill-rule:evenodd;clip-rule:evenodd;fill:#FFD177;}
	.st61{fill:#FFE7B8;}
	.st62{fill-rule:evenodd;clip-rule:evenodd;fill:#3A3940;}
	.st63{fill-rule:evenodd;clip-rule:evenodd;fill:#F7C35B;}
	.st64{fill-rule:evenodd;clip-rule:evenodd;fill:#BF9A76;}
	.st65{fill-rule:evenodd;clip-rule:evenodd;fill:#452508;}
	.st66{fill-rule:evenodd;clip-rule:evenodd;fill:#BF8B24;}
	.st67{fill-rule:evenodd;clip-rule:evenodd;fill:#C44918;}
	.st68{fill-rule:evenodd;clip-rule:evenodd;fill:#E6AC37;}
	.st69{fill-rule:evenodd;clip-rule:evenodd;fill:#522C0B;}
	.st70{fill-rule:evenodd;clip-rule:evenodd;fill:#E6551C;}
	.st71{fill-rule:evenodd;clip-rule:evenodd;fill:#EDD4A1;}
	.st72{fill-rule:evenodd;clip-rule:evenodd;fill:#784212;}
	.st73{fill-rule:evenodd;clip-rule:evenodd;fill:#F77745;}
	.st74{fill-rule:evenodd;clip-rule:evenodd;fill:#66380F;}
	.st75{fill-rule:evenodd;clip-rule:evenodd;fill:#995B25;}
	.st76{fill-rule:evenodd;clip-rule:evenodd;fill:#FF4F0C;}
	.st77{fill-rule:evenodd;clip-rule:evenodd;fill:#FAD58C;}
	.st78{fill-rule:evenodd;clip-rule:evenodd;fill:#FFF3DA;}
	.st79{fill-rule:evenodd;clip-rule:evenodd;fill:#D3D4D6;}
	.st80{fill-rule:evenodd;clip-rule:evenodd;fill:#EEF5FB;}
	.st81{fill-rule:evenodd;clip-rule:evenodd;fill:#DAE3EB;}
	.st82{fill-rule:evenodd;clip-rule:evenodd;fill:#C8CED4;}
	.st83{fill-rule:evenodd;clip-rule:evenodd;fill:#CAD3DB;}
	.st84{fill-rule:evenodd;clip-rule:evenodd;fill:#FDD657;}
	.st85{fill-rule:evenodd;clip-rule:evenodd;fill:#F0C330;}
	.st86{fill-rule:evenodd;clip-rule:evenodd;fill:#315E38;}
	.st87{fill-rule:evenodd;clip-rule:evenodd;fill:#99AE4C;}
	.st88{fill-rule:evenodd;clip-rule:evenodd;fill:#D6E0E8;}
	.st89{fill-rule:evenodd;clip-rule:evenodd;fill:#FFD6C7;}
	.st90{fill-rule:evenodd;clip-rule:evenodd;fill:#BD7E18;}
	.st91{fill-rule:evenodd;clip-rule:evenodd;fill:#D5962F;}
	.st92{fill-rule:evenodd;clip-rule:evenodd;fill:#E6A947;}
	.st93{fill-rule:evenodd;clip-rule:evenodd;fill:#EDB356;}
	.st94{fill-rule:evenodd;clip-rule:evenodd;fill:#DBB97F;}
	.st95{fill-rule:evenodd;clip-rule:evenodd;fill:#EACB97;}
	.st96{fill-rule:evenodd;clip-rule:evenodd;fill:#E3BF81;}
	.st97{fill:#333333;}
	.st98{fill-rule:evenodd;clip-rule:evenodd;fill:#754528;}
	.st99{fill:#242323;}
	.st100{fill-rule:evenodd;clip-rule:evenodd;fill:#E3E4E6;}
	.st101{fill-rule:evenodd;clip-rule:evenodd;fill:#FC8A31;}
	.st102{fill-rule:evenodd;clip-rule:evenodd;fill:#E67017;}
	.st103{fill-rule:evenodd;clip-rule:evenodd;fill:#6BBA61;}
	.st104{fill-rule:evenodd;clip-rule:evenodd;fill:#FCAB6D;}
	.st105{fill-rule:evenodd;clip-rule:evenodd;fill:#FFBE8C;}
	.st106{fill:#006B43;}
	.st107{fill-rule:evenodd;clip-rule:evenodd;fill:#FA692F;}
	.st108{fill-rule:evenodd;clip-rule:evenodd;fill:#9E3E03;}
	.st109{fill-rule:evenodd;clip-rule:evenodd;fill:#C27100;}
	.st110{fill-rule:evenodd;clip-rule:evenodd;fill:#B34602;}
	.st111{fill-rule:evenodd;clip-rule:evenodd;fill:#D68007;}
	.st112{fill-rule:evenodd;clip-rule:evenodd;fill:#FDFEFF;}
	.st113{fill-rule:evenodd;clip-rule:evenodd;fill:#A66805;}
	.st114{fill-rule:evenodd;clip-rule:evenodd;fill:#CC4F00;}
	.st115{fill-rule:evenodd;clip-rule:evenodd;fill:#E68B09;}
	.st116{fill-rule:evenodd;clip-rule:evenodd;fill:#123618;}
	.st117{fill-rule:evenodd;clip-rule:evenodd;fill:#1C4622;}
	.st118{fill:#1C4622;}
	.st119{fill:#315E38;}
	.st120{fill-rule:evenodd;clip-rule:evenodd;fill:#D7D7DB;}
	.st121{fill-rule:evenodd;clip-rule:evenodd;fill:#FFFFFF;}
	.st122{fill-rule:evenodd;clip-rule:evenodd;fill:#C8CAC9;}
	.st123{fill-rule:evenodd;clip-rule:evenodd;fill:#B3B0A9;}
	.st124{fill-rule:evenodd;clip-rule:evenodd;fill:#E8DFE0;}
	.st125{fill-rule:evenodd;clip-rule:evenodd;fill:#AD8F8C;}
	.st126{fill-rule:evenodd;clip-rule:evenodd;fill:#BE9F9C;}
	.st127{fill-rule:evenodd;clip-rule:evenodd;fill:#5E4830;}
	.st128{fill:#96735A;}
	.st129{fill:#AD866B;}
	.st130{fill:#C5A189;}
	.st131{fill-rule:evenodd;clip-rule:evenodd;fill:#69523A;}
	.st132{fill-rule:evenodd;clip-rule:evenodd;fill:#DBDBDB;}
	.st133{fill-rule:evenodd;clip-rule:evenodd;fill:#F2F2F2;}
	.st134{fill-rule:evenodd;clip-rule:evenodd;fill:#6F952E;}
	.st135{fill-rule:evenodd;clip-rule:evenodd;fill:#D4E2A5;}
	.st136{fill-rule:evenodd;clip-rule:evenodd;fill:#C8D384;}
	.st137{fill-rule:evenodd;clip-rule:evenodd;fill:#F8FDFF;}
	.st138{fill-rule:evenodd;clip-rule:evenodd;fill:#F7D981;}
	.st139{fill-rule:evenodd;clip-rule:evenodd;fill:#FDE396;}
	.st140{fill-rule:evenodd;clip-rule:evenodd;fill:#E7A96E;}
	.st141{fill-rule:evenodd;clip-rule:evenodd;fill:#BA7E47;}
	.st142{fill:#FFFFFF;}
	.st143{fill-rule:evenodd;clip-rule:evenodd;fill:#C5A189;}
	.st144{fill-rule:evenodd;clip-rule:evenodd;fill:#951806;}
	.st145{fill-rule:evenodd;clip-rule:evenodd;fill:#801303;}
	.st146{fill-rule:evenodd;clip-rule:evenodd;fill:#D4510D;}
	.st147{fill-rule:evenodd;clip-rule:evenodd;fill:#E6C18A;}
	.st148{fill-rule:evenodd;clip-rule:evenodd;fill:#D59D5E;}
	.st149{fill-rule:evenodd;clip-rule:evenodd;fill:#D47507;}
	.st150{fill-rule:evenodd;clip-rule:evenodd;fill:#E38D2B;}
	.st151{fill-rule:evenodd;clip-rule:evenodd;fill:#BD6704;}
	.st152{fill-rule:evenodd;clip-rule:evenodd;fill:#E8891C;}
	.st153{fill-rule:evenodd;clip-rule:evenodd;fill:#D56400;}
	.st154{fill-rule:evenodd;clip-rule:evenodd;fill:#E6844E;}
	.st155{fill-rule:evenodd;clip-rule:evenodd;fill:#F1E2BB;}
	.st156{fill:#A33803;}
	.st157{fill-rule:evenodd;clip-rule:evenodd;fill:#A33803;}
	.st158{fill-rule:evenodd;clip-rule:evenodd;fill:#B54306;}
	.st159{fill-rule:evenodd;clip-rule:evenodd;fill:#EA6321;}
	.st160{fill-rule:evenodd;clip-rule:evenodd;fill:#821909;}
	.st161{fill-rule:evenodd;clip-rule:evenodd;fill:#C44B0E;}
	.st162{fill-rule:evenodd;clip-rule:evenodd;fill:#B3320E;}
	.st163{fill-rule:evenodd;clip-rule:evenodd;fill:#BA874D;}
	.st164{fill-rule:evenodd;clip-rule:evenodd;fill:#6F351B;}
	.st165{fill-rule:evenodd;clip-rule:evenodd;fill:#5C2C15;}
	.st166{fill-rule:evenodd;clip-rule:evenodd;fill:#FA8950;}
	.st167{fill-rule:evenodd;clip-rule:evenodd;fill:#5E401D;}
	.st168{fill:#D59D5E;}
	.st169{fill:#BA874D;}
	.st170{fill:#E4C292;}
	.st171{fill:#EA6321;}
	.st172{fill:#FA8950;}
	.st173{fill-rule:evenodd;clip-rule:evenodd;fill:#8C5B34;}
	.st174{fill:#CF9470;}
	.st175{fill-rule:evenodd;clip-rule:evenodd;fill:#AA7448;}
	.st176{fill:#EFB795;}
	.st177{fill-rule:evenodd;clip-rule:evenodd;fill:#C9D98B;}
	.st178{fill-rule:evenodd;clip-rule:evenodd;fill:#93B04A;}
	.st179{fill-rule:evenodd;clip-rule:evenodd;fill:#D1E18E;}
	.st180{fill-rule:evenodd;clip-rule:evenodd;fill:#ABCB5C;}
	.st181{fill-rule:evenodd;clip-rule:evenodd;fill:#F0DEAD;}
	.st182{fill-rule:evenodd;clip-rule:evenodd;fill:#DEBA59;}
	.st183{fill-rule:evenodd;clip-rule:evenodd;fill:#E6D3A1;}
	.st184{fill-rule:evenodd;clip-rule:evenodd;fill:#FFF3D3;}
	.st185{fill-rule:evenodd;clip-rule:evenodd;fill:#F7D474;}
	.st186{fill-rule:evenodd;clip-rule:evenodd;fill:#A86046;}
	.st187{fill-rule:evenodd;clip-rule:evenodd;fill:#CF0200;}
	.st188{fill-rule:evenodd;clip-rule:evenodd;fill:#FF2D29;}
	.st189{fill-rule:evenodd;clip-rule:evenodd;fill:#43983E;}
	.st190{fill-rule:evenodd;clip-rule:evenodd;fill:#136B29;}
	.st191{fill-rule:evenodd;clip-rule:evenodd;fill:#D1E694;}
	.st192{fill-rule:evenodd;clip-rule:evenodd;fill:#218239;}
	.st193{fill-rule:evenodd;clip-rule:evenodd;fill:#035C3B;}
	.st194{fill-rule:evenodd;clip-rule:evenodd;fill:#54A051;}
	.st195{fill-rule:evenodd;clip-rule:evenodd;fill:#FFCBA3;}
	.st196{fill-rule:evenodd;clip-rule:evenodd;fill:#EB9350;}
	.st197{fill:#EB9350;}
	.st198{fill-rule:evenodd;clip-rule:evenodd;fill:#BDBDBB;}
	.st199{fill-rule:evenodd;clip-rule:evenodd;fill:#A15E23;}
</style>
<path class="st39" d="M142.36,166.92c10.58,0.18,56.09-0.42,87.14-22.91c35.34-25.6,35.55-23.06,46.7-32.15
	c11.15-9.1,9.68-34.9,5.05-45.27c-4.63-10.37-21.25-19.04-34.5-27.29C200.57,2.43,121.47-13.41,57.99,27.33
	C41.72,37.78,8.55,55.22,3.47,66.59c-4.63,10.37-6.1,36.17,5.05,45.27c11.15,9.1,11.36,6.56,46.7,32.15
	C86.27,166.5,131.78,167.11,142.36,166.92L142.36,166.92z"/>
<path class="st40" d="M142.36,163.62c10.58,0.18,56.09-0.42,87.14-22.91c35.34-25.6,35.55-23.06,46.7-32.15
	c11.15-9.1,9.68-34.9,5.05-45.27C276.62,52.92,260,44.25,246.75,36C200.57-0.87,121.47-16.71,57.99,24.03
	C41.72,34.48,8.55,51.92,3.47,63.29c-4.63,10.37-6.1,36.17,5.05,45.27c11.15,9.1,11.36,6.56,46.7,32.15
	C86.27,163.2,131.78,163.81,142.36,163.62L142.36,163.62z"/>
<path class="st41" d="M249.58,126.54c1.06-0.72,2.06-1.4,3.01-2.03c-13.26-0.81-28.19-2.59-33.56-4.07
	c7.12-1.47,28.54-2.16,43.57-2.42l0.93-0.59c-18.21-0.49-48.04-0.74-48.21,2.85C215.15,124.1,232.99,126.12,249.58,126.54
	L249.58,126.54z M257.68,121.16c0.32-0.21,0.63-0.41,0.94-0.61c-9.73-0.58-19.57-0.46-19.22,0.4
	C239.14,120.23,248.36,120.36,257.68,121.16L257.68,121.16z M269.62,113.51c0.27-0.19,0.55-0.38,0.82-0.57
	c-6.79-1.22-29.03-4.85-49.33-3.91c-24.32,1.13-101.94,1.55-147.79,0.92c-21.03-0.29-36.35-0.14-46.78,0.11
	c0.86,0.6,1.7,1.16,2.57,1.73c4.82,0.12,10.76,0.24,18.07,0.37c42.75,0.75,132.05-1.15,142.04-1.05c9.99,0.11,49.01-0.74,52.38-0.74
	C244.72,110.37,257.78,113.89,269.62,113.51L269.62,113.51z M278.43,106.32c0.56-0.67,1.07-1.4,1.54-2.17
	c-8.1,0.37-38.47,0.82-24.78,1.63C262.36,106.21,271.08,106.35,278.43,106.32L278.43,106.32z M280.17,103.83
	c0.34-0.58,0.66-1.18,0.96-1.8c-11.98-0.25-27.46-0.24-24.75,0.58C259.77,103.64,275,103.65,280.17,103.83L280.17,103.83z
	 M283.78,93.68c0.05-0.26,0.1-0.53,0.15-0.79c-8.1-0.41-22.59-0.84-28.07-0.92C253.05,94.07,273.19,93.99,283.78,93.68L283.78,93.68
	z M284.53,88.01c0.03-0.35,0.05-0.71,0.07-1.06c-12.26,0.21-33.32,0.59-34.44,0.75c5.56,1.22,9.5,0.96,23.04,0.83
	C277.78,88.48,281.55,88.27,284.53,88.01L284.53,88.01z M284.71,84.03c0.01-0.53,0.01-1.06,0-1.59
	c-11.08,0.72-20.75-0.97-19.16-1.02c1.28-0.04,11.88-0.04,19.14,0.05c-0.01-0.44-0.03-0.87-0.05-1.31
	c-2.23,0.01-4.87,0.05-7.95,0.13c-11.11,0.3-17.62,0.63-17.62,0.63s-2.93,0,0.33,0.93c3.25,0.93,10.06,2.18,14.23,2.08
	C277.34,83.85,280.6,83.94,284.71,84.03L284.71,84.03z M284.46,77.55c-0.03-0.33-0.06-0.67-0.09-0.99
	c-5.25-0.15-10.91-0.32-12.92-0.41C268.6,76.02,276.26,77.37,284.46,77.55L284.46,77.55z M283.48,70.68
	c-0.09-0.46-0.19-0.9-0.29-1.34c-13.89,0.39-41.21-2.35-48.9-4.47c7.6-1.57,31.51-2.25,46.52-2.47c-0.08-0.16-0.17-0.33-0.26-0.49
	c-17.97-0.51-49.79-0.9-49.97,2.8C230.33,70.11,266.17,71.92,283.48,70.68L283.48,70.68z M282.48,66.67c-0.1-0.34-0.21-0.68-0.32-1
	c-11.36-1.28-27.95-1.4-27.5-0.29C254.3,64.4,271.36,65,282.48,66.67L282.48,66.67z M277.59,57.75c-0.57-0.66-1.19-1.31-1.84-1.96
	c-10.15-1.42-25.22-2.98-39.36-2.33c-24.32,1.13-101.94,1.55-147.79,0.92c-45.86-0.63-64.58,0.85-64.58,0.85s-4.31,0.62,38.44,1.37
	c42.75,0.75,132.05-1.15,142.04-1.05c9.99,0.11,49.01-0.74,52.38-0.74C259.34,54.8,268.13,57.03,277.59,57.75L277.59,57.75z
	 M217.22,120.96L217.22,120.96L217.22,120.96L217.22,120.96L217.22,120.96z M264.6,97.32c5.72-0.07,19.85,0.59,16.96,1.06
	C278.66,98.84,260.92,99.3,264.6,97.32L264.6,97.32z M232.48,65.39L232.48,65.39L232.48,65.39L232.48,65.39L232.48,65.39z"/>
<path class="st41" d="M273.33,53.55c-1.01-0.88-2.09-1.74-3.21-2.59C220.4,51,120.21,52.54,111.34,52.45
	c-9.39-0.1-49.01,0.74-52.38,0.74c-3.37,0-18.41-4.13-30.92-2.96c0,0,27.1,5.43,51.41,4.3c24.32-1.13,122.63-1.27,147.79-0.92
	C244.96,53.85,262.89,53.67,273.33,53.55L273.33,53.55z M263.88,46.57c-0.79-0.52-1.59-1.04-2.4-1.55
	c-11.12,0.19-21.31,0.39-22.94,0.39c-3.37,0-18.41-4.13-30.92-2.96c0,0,27.1,5.43,51.41,4.3C260.42,46.69,262.05,46.63,263.88,46.57
	L263.88,46.57z M250.56,38.34c-0.9-0.54-1.79-1.09-2.66-1.63c-15.8,0.97-38.7,1.23-44.59,1.2
	C207.13,38.07,233.61,39.15,250.56,38.34L250.56,38.34z M242.16,32.49c-1.36-1-2.75-1.98-4.15-2.94c-7.58-0.41-15.5-0.48-21.91-0.23
	c-0.84,0.51-1.68,1.02-2.52,1.54C221.29,30.75,232.41,31.47,242.16,32.49L242.16,32.49z M210.03,33.06
	c-0.45,0.28-0.91,0.57-1.36,0.86c10.71,1.85,32.6,2.2,32.08,0.93C241.14,35.91,220.76,35.1,210.03,33.06L210.03,33.06z
	 M228.21,23.36c-0.57-0.33-1.15-0.66-1.73-0.98c-51.37-1.04-124.59-2.18-161.3-2.67c-0.94,0.53-1.87,1.08-2.8,1.63
	C105.63,21.75,178.2,22.71,228.21,23.36L228.21,23.36z M219.07,18.44c-0.95-0.47-1.9-0.94-2.87-1.4
	c-44.19-1.16-102.64-2.22-140.78-2.62c-0.64,0.3-1.28,0.6-1.92,0.91C112.51,16.08,173.85,17.43,219.07,18.44L219.07,18.44z
	 M205.61,12.41c-0.96-0.38-1.93-0.76-2.91-1.12c-33.85-0.97-81.56-1.93-114.22-2.26c-0.93,0.33-1.87,0.68-2.8,1.03
	C119.71,10.59,170.83,11.67,205.61,12.41L205.61,12.41z M191.51,7.5c-1.39-0.42-2.79-0.83-4.2-1.21
	c-26.39-0.88-59.32-1.84-81.55-2.3c-2.34,0.54-4.67,1.13-7,1.78C125.38,6.13,163.26,6.93,191.51,7.5L191.51,7.5z M55.18,25.81
	c-0.75,0.46-1.52,0.94-2.32,1.43c2.53-0.1,3.89-0.17,3.89-0.17s2.93,0-0.33-0.93C56.05,26.03,55.63,25.92,55.18,25.81L55.18,25.81z
	 M36.51,37.08c-0.84,0.51-1.68,1.02-2.52,1.54c14.24-0.19,40.1,2.45,47.54,4.5c-10.21,2.11-49.79,2.61-57.81,2.56
	c5.67,0.24,61.29,2.5,61.52-2.4C85.48,38.28,54.81,36.35,36.51,37.08L36.51,37.08z M30.44,40.83c-0.45,0.28-0.91,0.57-1.36,0.85
	c10.71,1.85,32.6,2.2,32.08,0.93C61.56,43.68,41.18,42.87,30.44,40.83L30.44,40.83z M83.35,42.6L83.35,42.6L83.35,42.6L83.35,42.6
	L83.35,42.6z"/>
<path class="st41" d="M268.01,114.59c1.22-0.8,2.39-1.6,3.64-2.5c-3.96,0.03-8.17,0.07-12.64,0.13
	c-45.86,0.63-123.48,0.21-147.79-0.92c-24.32-1.13-51.41,4.3-51.41,4.3c12.52,1.16,27.56-2.96,30.92-2.96s42.39,0.85,52.38,0.74
	C151.9,113.28,222.15,114.75,268.01,114.59L268.01,114.59z M52.82,138.98c0.78,0.56,1.57,1.14,2.39,1.73
	c0.3,0.22,0.61,0.43,0.91,0.65c1.57,0.36,3.44,0.58,5.14,0.55c4.9-0.1,8.51-0.23,12.69-0.13c4.17,0.1,10.98-1.16,14.23-2.08
	c3.25-0.93,0.33-0.93,0.33-0.93s-6.51-0.33-17.62-0.63c-11.11-0.3-16.57-0.07-17.29,0.36C53.25,138.65,52.99,138.82,52.82,138.98
	L52.82,138.98z M61.21,144.69c0.66,0.4,1.33,0.79,2,1.18c2.96,0.25,6.68,0.46,11.17,0.5c13.54,0.13,135.81,0.66,141.37-0.56
	C214.37,145.6,91.84,144.87,61.21,144.69L61.21,144.69z M73.51,151.03c0.41,0.18,0.83,0.36,1.24,0.53
	c39.49,0.36,138.06,0.56,135.31-1.49C203.32,150.17,110.27,150.64,73.51,151.03L73.51,151.03z M87.24,156.08
	c0.85,0.26,1.71,0.51,2.56,0.76c33.23,0.61,89.17,1.19,86.54-0.23C172.33,156.56,118.16,156.16,87.24,156.08L87.24,156.08z
	 M104.17,160.25c4.14,0.79,8.15,1.4,11.92,1.87c22.77,0.16,45.05,0.21,46.91-0.35C165.2,161.1,133.64,160.53,104.17,160.25
	L104.17,160.25z M55.49,120.15c5.67-0.24,61.29-2.5,61.52,2.4c0.36,7.65-71.68,8.1-60.94,2.87c5.98-2.92,37.48-3.72,36.87-2.2
	c0.47-1.27-28.73,0.13-35.68,3.11c7.08,2.58,46.55-1,56.05-3.62C103.09,120.59,63.51,120.1,55.49,120.15L55.49,120.15z
	 M56.11,139.52c1.48-0.3,24.03-0.33,25.93-0.26C83.95,139.32,69.62,141.74,56.11,139.52L56.11,139.52z M52.68,134.68
	c0,0,19.34-0.51,23.47-0.69C80.27,133.8,62.39,136.71,52.68,134.68L52.68,134.68z M115.11,123.22L115.11,123.22L115.11,123.22
	L115.11,123.22L115.11,123.22z"/>
<path class="st41" d="M9.04,60.75c0,0,27.1-5.43,51.41-4.3c24.32,1.13,101.94,1.55,147.79,0.92c45.86-0.63,64.58,0.85,64.58,0.85
	s4.31,0.62-38.44,1.37s-132.05-1.15-142.04-1.05c-9.99,0.11-49.01-0.74-52.38-0.74S21.56,61.91,9.04,60.75L9.04,60.75z
	 M267.72,114.77c0.87-0.57,1.71-1.13,2.57-1.73c-10.43-0.25-25.75-0.41-46.78-0.11c-45.86,0.63-123.48,0.21-147.79-0.92
	s-51.41,4.3-51.41,4.3c12.51,1.16,27.56-2.96,30.92-2.96c3.37,0,42.39,0.85,52.38,0.74s99.29,1.8,142.04,1.05
	C256.96,115.02,262.9,114.89,267.72,114.77L267.72,114.77z M26.22,120.63l0.41,0.26c14.14,0.14,42.72,0.78,51.17,2.53
	c-6.37,1.76-26.25,3.95-40.77,4.42c0.82,0.56,1.67,1.15,2.56,1.77c18.19,0.09,42.12-1.93,41.92-6.34
	C81.32,119.16,42.21,120.08,26.22,120.63L26.22,120.63z M31.46,124.06c0.37,0.25,0.74,0.5,1.13,0.76
	c10.94-1.36,25.18-1.78,24.85-0.89C57.87,122.87,42.71,122.94,31.46,124.06L31.46,124.06z M53.55,139.51l0.54,0.39
	C54.48,139.64,53.99,139.54,53.55,139.51L53.55,139.51z M79.62,123.94L79.62,123.94L79.62,123.94L79.62,123.94L79.62,123.94z
	 M46.67,90.69c-1.58-0.23-43.09-0.89-43.09-0.89s6.51,1.59,20.05,1.72C37.17,91.65,41.11,91.91,46.67,90.69L46.67,90.69z
	 M5.53,105.33c0.88,1.22,1.87,2.31,2.99,3.22c0.25,0.2,0.49,0.39,0.72,0.59c7.96,0.27,21.86,0.25,32.4-0.37
	c15.65-0.93-26.23-1.39-26.69-1.78c-0.46-0.4,21.36-0.13,25.51-1.39C44.09,104.49,14.98,104.87,5.53,105.33L5.53,105.33z
	 M32.24,100.31c-5.72-0.07-19.85,0.59-16.96,1.06C18.17,101.83,35.92,102.29,32.24,100.31L32.24,100.31z M40.98,94.95
	c-8.61,0.13-39.51,1.12-32.8,1.52C14.88,96.87,44.33,97.46,40.98,94.95L40.98,94.95z M4.73,65.3c5.67-0.24,61.29-2.5,61.52,2.4
	c0.36,7.65-71.68,8.1-60.94,2.87c5.98-2.92,37.48-3.72,36.87-2.2c0.47-1.27-28.73,0.13-35.68,3.11c7.08,2.58,46.55-1,56.05-3.62
	C52.34,65.74,12.75,65.25,4.73,65.3L4.73,65.3z M2.86,83.65c0.72-0.43,6.18-0.66,17.29-0.36c11.11,0.3,17.62,0.63,17.62,0.63
	s2.93,0-0.33,0.93c-3.25,0.93-10.06,2.18-14.23,2.08c-4.17-0.1-7.79,0.03-12.69,0.13C5.62,87.15-0.66,85.17,2.86,83.65L2.86,83.65z
	 M5.35,84.67c1.48-0.3,24.03-0.33,25.93-0.26C33.19,84.47,18.86,86.89,5.35,84.67L5.35,84.67z M1.92,79.83
	c0,0,19.34-0.51,23.47-0.69C29.51,78.95,11.63,81.86,1.92,79.83L1.92,79.83z M64.36,68.37L64.36,68.37L64.36,68.37L64.36,68.37
	L64.36,68.37z"/>
<path class="st17" d="M146.41,11.25L146.41,11.25c39.42,0.51,113.34,16.25,109.89,78.69c-3.35,60.59-103.42,63.34-109.89,63.46v0
	l-0.17,0l-0.17,0v0c-6.47-0.11-106.55-2.87-109.9-63.46c-3.45-62.44,70.47-78.18,109.9-78.69v-0.01l0.17,0L146.41,11.25
	L146.41,11.25z"/>
<path class="st42" d="M146.25,16.75l-0.1,0c-17.91,0.23-37.35,3.38-54.24,9.37C77.7,31.16,63.35,38.94,53.64,50.8
	c-9.2,11.23-12.79,24.4-12,38.84c0.49,8.87,3.32,16.87,8.66,23.96c7.9,10.48,20.14,17.51,32.12,22.26
	c13,5.15,27.21,8.29,41.04,10.16c7.41,1,15.21,1.76,22.71,1.89l0.07,0l0.07,0c7.49-0.13,15.29-0.89,22.71-1.89
	c13.84-1.87,28.04-5,41.04-10.16c20.69-8.2,39.44-22.02,40.78-46.22c0.8-14.43-2.79-27.6-12-38.84
	c-20.17-24.62-62.35-33.66-92.51-34.05L146.25,16.75L146.25,16.75z"/>
<path class="st17" d="M146.25,25.63c-17.03,0.21-35.32,3.16-51.4,8.86C82.22,38.97,69.1,45.9,60.46,56.45
	c-7.79,9.51-10.67,20.51-9.99,32.7c0.39,7.1,2.6,13.41,6.88,19.09c6.85,9.09,17.93,15.24,28.32,19.36
	c12.39,4.91,25.8,7.84,38.98,9.62c7.14,0.96,14.39,1.68,21.6,1.81c7.21-0.13,14.46-0.85,21.6-1.81c13.18-1.78,26.59-4.71,38.98-9.62
	c17.27-6.84,34.07-18.06,35.2-38.45c0.67-12.19-2.21-23.19-9.99-32.7C213.75,34.13,173.63,25.98,146.25,25.63L146.25,25.63z"/>
<path class="st43" d="M62.8,38.69c0,0-9.47,7.74-14.79,15.67c-5.32,7.93-8.09,22.01-8.09,22.01s-0.77-6.49,2.17-14.74
	C45.04,53.38,56.32,40.08,62.8,38.69L62.8,38.69z"/>
<path class="st43" d="M53.14,120.14c0,0,4.78,5.3,7.07,6.77c2.3,1.48,2.19,2.55,6.01,3.47c3.81,0.93,4.93,4.3,8.41,5.55
	c3.48,1.26,7.09,1.09,9.6,1.92c2.5,0.83,4.43,1.73,3.3,2.01c-1.14,0.28-7.64-1.88-9.15-1.95c-1.51-0.07-6.7-1.06-9.4-3.5
	c-2.7-2.45-4.86-2.97-6.51-3.83c-1.64-0.86-1.91-1.79-4.67-4.1C55.05,124.17,49.46,118.02,53.14,120.14L53.14,120.14z"/>
<path class="st43" d="M246.73,59.34c0,0,4.41,5.8,6.38,16.64c1.97,10.84-0.86,22.01-2.17,26.05c-1.31,4.03-3.42,5.55-3.42,5.55
	s6.38-13.35,4.73-25.91C250.61,69.1,246.73,59.34,246.73,59.34L246.73,59.34z"/>
<path class="st44" d="M195.3,118.05c0,0-3.72-3.58-12.35-5.82c-8.62-2.24-6.95-1.8-12.97-3.63c-6.02-1.83-9.42,2.86-9.42,2.86
	s-7.14,7.62,1.86,11.36c9,3.74,10.19,8.79,16.09,10.47c5.9,1.69,11.37,2.53,11.88-2.34C190.9,126.09,195.3,118.05,195.3,118.05
	L195.3,118.05z"/>
<path class="st45" d="M153.17,105.12c-0.26-1.28-7.2-10.79-14.51-15.47c-7.31-4.67-12.79-9.15-12.79-9.15s0.5,9.11-0.3,15.58
	c-0.81,6.47-4.22,7.5-2.28,10.49c1.94,2.99,0.08,5.58,3.37,6.98c3.14,2.86,11.3,7.04,18.58,5.68
	C152.5,117.87,153.17,105.12,153.17,105.12L153.17,105.12z"/>
<path class="st46" d="M171.56,119.78c0.05,3.83,0.23,9.63-0.46,13.25c-0.59,3.13-1.11,6.8-3.65,4.53c-2.54-2.26-0.88-1.69-3.74-0.93
	c-2.86,0.76-3.72,2.67-6.3,0.8c-2.58-1.87-7.39-6.5-7.2-9.53c0.18-3.04-3.84-6.25-2.11-10.19c1.73-3.94-0.67-4.99,2.63-7.43
	c3.3-2.44,0.65-7.51,8.15-3.39C166.39,110.99,171.56,119.78,171.56,119.78L171.56,119.78z"/>
<path class="st47" d="M156.46,130.65c0,0-3.65,5.86-7.08,5.77c-3.43-0.1-3.33-1.02-6.62,0.1c-3.29,1.12-8.47-3.69-9.81-6.09
	c-1.34-2.4-5.7-3.66-4.95-9.56c0.75-5.9-1.44-10.26,1.99-10.16c3.43,0.1,7.35-2.02,13.88,2.53
	C150.4,117.78,156.46,130.65,156.46,130.65L156.46,130.65z"/>
<path class="st44" d="M134.7,125.04c-2.08-0.35-11.82-5.77-17.43-5.29c-5.6,0.47-9.76-0.23-11.75,2.35
	c-1.99,2.58-8.22,4.05-3.11,6.98c5.11,2.93,14.61,6.99,24.78,8.33c10.17,1.34,13.82-2,13.53-2.96
	C140.43,133.48,134.7,125.04,134.7,125.04L134.7,125.04z"/>
<path class="st45" d="M134.7,125.04c-2.08-0.35-11.82-5.77-17.43-5.29c-4.96,0.42-8.79-0.09-10.98,1.59
	c0.49,1.02,2.91,2.62,10.94,4.84c12.37,3.43,17.36,2.75,19.36,1.68C135.54,126.27,134.7,125.04,134.7,125.04L134.7,125.04z"/>
<path class="st46" d="M132.65,105.41c-2.09-0.22-1.15,5.26-9.52-2.24c-8.37-7.49-11.77-11.58-17.68-10.74
	c-5.9,0.84-12.63,3.19-13.26,4.18c-0.63,1-7.47,1.87-2.59,8.37c4.87,6.5,3.61,7.48,13.24,11.23c9.63,3.75,8.96,7.86,15.43,9.21
	c6.47,1.35,18.26,2.33,19.17-1.3C138.35,120.5,132.65,105.41,132.65,105.41L132.65,105.41z"/>
<path class="st44" d="M106.03,92.37c-0.19,0.02-0.38,0.04-0.58,0.07c-5.9,0.84-12.63,3.19-13.26,4.18c-0.54,0.85-5.53,1.6-4.06,5.78
	C93.51,101.32,106.18,100.54,106.03,92.37L106.03,92.37z"/>
<path class="st48" d="M221.93,108.6c0,0-11.2,0.94-18.19,0.74c-6.98-0.21-13.71-2.91-15.57,1.02c-1.86,3.92-9.04,8.09-2.91,13.92
	c6.13,5.83,10.27,5.47,20.4,2.15c10.13-3.32,21.65-8.62,21.99-10.57C227.99,113.89,221.93,108.6,221.93,108.6L221.93,108.6z"/>
<path class="st44" d="M214,75.19c0.31,0.83,6.27,13.42,2.41,18.73c-3.86,5.31-4.6,9.88-9.48,9.77c-4.88-0.12-8.47,3.89-12.61,5.58
	c-4.14,1.69-11.94,6.72-13.82,2c-1.89-4.72-7.43-7.3,1.48-14.2c8.92-6.9,20.82-12.03,23.05-15.65C207.25,77.8,214,75.19,214,75.19
	L214,75.19z"/>
<path class="st44" d="M131.24,76.42c0,0-18.13,2.74-25.36,7.43c-7.23,4.69-15.32,3.7-6.64,9.14c8.69,5.44,6.13,8.36,16.73,5.62
	c10.6-2.74,14.17-4.09,15.19-4.91C132.17,92.87,131.24,76.42,131.24,76.42L131.24,76.42z"/>
<path class="st44" d="M175.08,81.44c0,0-11.81-5.9-19.39-5.5c-7.58,0.4-15.97,2.3-9.32,6.99c6.65,4.69,3.83,3.86,12.25,10.6
	c8.42,6.74,5.01,5.18,8.54,9.41c3.52,4.23,1.81,10.82,6,4.09C177.34,100.29,181.53,87.97,175.08,81.44L175.08,81.44z"/>
<path class="st47" d="M193.52,84.58c-1.83-0.19-6.18,3.47-17.04,6.18c-10.86,2.71-21.45-0.93-25.53,3.95
	c-4.08,4.89-10.79,8.43-2.74,11.01c8.06,2.58,14.27,5.1,23.99,5.72c9.72,0.63,17.2,1.15,19.79-7.22
	C194.59,95.86,193.52,84.58,193.52,84.58L193.52,84.58z"/>
<path class="st45" d="M82.63,94.55c0,0-3.38-6.87-9.6-6.86c-6.21,0.01-8.67-5.57-13.56-3.03c-4.89,2.54-13.13,1.67-7.46,8.12
	c5.67,6.45,12.56,7.57,22.04,11.76c9.48,4.19,17.23,11.71,17.94,3.85C92.71,100.53,82.63,94.55,82.63,94.55L82.63,94.55z"/>
<path class="st47" d="M74.86,99.31c-3.7,1.21-16.17,0.42-14.53,6.18c1.65,5.76-3.68,8.65,6.24,9.83c9.92,1.18,10.62,0.85,14.03,3.61
	c3.41,2.75,3.48,4.62,8.48,7.41c5,2.79,5.89,6.87,9.68,4.74c3.79-2.13,8.04,1.51,6.65-5.41c-1.39-6.93,2.27-12.92-0.74-14.44
	C101.67,109.72,74.86,99.31,74.86,99.31L74.86,99.31z"/>
<path class="st45" d="M236.99,94.99c0,0-3.72-3.58-12.35-5.82c-8.62-2.24-6.95-1.8-12.97-3.63c-6.02-1.83-9.42,2.86-9.42,2.86
	s-7.14,7.62,1.85,11.36c9,3.74,10.19,8.79,16.09,10.47c5.9,1.69,11.37,2.53,11.88-2.34C232.58,103.03,236.99,94.99,236.99,94.99
	L236.99,94.99z"/>
<path class="st47" d="M238.72,75.45c0.31,0.83,6.27,13.42,2.41,18.73c-3.86,5.31-4.6,9.88-9.48,9.77
	c-4.88-0.12-8.47,3.89-12.61,5.58c-4.14,1.69-11.94,6.72-13.82,2c-1.89-4.72-7.43-7.3,1.48-14.2c8.92-6.9,20.82-12.03,23.05-15.65
	C231.97,78.06,238.72,75.45,238.72,75.45L238.72,75.45z"/>
<path class="st47" d="M162.3,83.41c0,0-3.72-3.58-12.35-5.82c-8.62-2.24-6.95-1.8-12.97-3.63c-6.02-1.83-9.42,2.86-9.42,2.86
	s-7.14,7.62,1.86,11.36c9,3.74,10.19,8.79,16.09,10.47c5.91,1.69,11.37,2.53,11.88-2.34C157.9,91.45,162.3,83.41,162.3,83.41
	L162.3,83.41z"/>
<path class="st46" d="M226.09,68.22c0,0-11.81-5.9-19.39-5.5c-7.58,0.4-15.97,2.3-9.32,6.99c6.65,4.69,3.83,3.86,12.25,10.6
	c8.42,6.74,5.01,5.18,8.54,9.41c3.52,4.23,1.81,10.82,6,4.09C228.35,87.07,232.55,74.75,226.09,68.22L226.09,68.22z"/>
<path class="st46" d="M99.53,86.56c-0.26-1.18-7.2-9.96-14.51-14.27c-7.31-4.31-12.79-8.45-12.79-8.45s0.5,8.41-0.3,14.37
	c-0.81,5.97-4.22,6.92-2.28,9.68c1.94,2.76,0.08,5.15,3.37,6.44c3.14,2.64,11.29,6.5,18.58,5.24
	C98.86,98.33,99.53,86.56,99.53,86.56L99.53,86.56z"/>
<path class="st47" d="M116.75,79.62c0,0-3.65,5.86-7.08,5.77c-3.43-0.1-3.33-1.02-6.62,0.1c-3.29,1.12-8.47-3.69-9.81-6.09
	c-1.34-2.4-5.7-3.66-4.95-9.56c0.75-5.9-1.44-10.26,1.99-10.16c3.43,0.1,7.35-2.02,13.88,2.53
	C110.69,66.75,116.75,79.62,116.75,79.62L116.75,79.62z"/>
<path class="st47" d="M74.27,72.97c0.05,3.83,0.23,9.63-0.46,13.25c-0.59,3.13-1.11,6.8-3.65,4.53c-2.54-2.26-0.88-1.69-3.74-0.93
	c-2.86,0.76-3.72,2.67-6.3,0.8c-2.58-1.87-7.39-6.5-7.2-9.53c0.18-3.04-3.84-6.25-2.11-10.19c1.73-3.94-0.67-4.99,2.63-7.43
	c3.3-2.44,0.65-7.51,8.15-3.39C69.1,64.19,74.27,72.97,74.27,72.97L74.27,72.97z"/>
<path class="st47" d="M238.44,64.83c-0.26-1.28-6.36-12.53-14.51-15.47c-11.21-4.04-5.33-7.79-13.1,6.42
	c-3.12,5.71-4.22,7.5-2.28,10.49c1.94,2.99,0.08,5.58,3.37,6.98c3.14,2.86,11.29,7.04,18.58,5.68
	C237.77,77.58,238.44,64.83,238.44,64.83L238.44,64.83z"/>
<path class="st44" d="M151.41,98.45c0,0,0.53-3.64,6.84-3.97c6.31-0.33,9.33-0.6,13.28-0.73c3.94-0.13,10.71,0.33,13.67-1.19
	c2.96-1.52,2.81-1.28,4.53-2.15c1.72-0.87,3.66-1.49,1.04,0.73c-2.62,2.22-7.61,3.08-8.34,3.54c-0.72,0.46-3.82,1.01-4.21,0.93
	c-0.38-0.08-1.45,2.12,1.58,1.98c3.02-0.13,7.89-1.26,9.53-1.52c1.64-0.26,2.3,2.05-0.66,2.31c-2.96,0.26-7.86-0.43-8.53,0.22
	c-0.67,0.65,0.45-0.48-2.05,2.95c-2.5,3.44-7.43,1.52-7.49-0.2c-0.07-1.72,1.37-2.94-1.52-3.19c-2.89-0.25-4.2-0.91-6.83-0.65
	c-2.63,0.26-5.92,0.53-6.84,0.86c-0.92,0.33-3.03,2.17-3.75,2.71c-0.72,0.54,2.3,2.78,5.85,1.92c3.55-0.86,2.34-3.6,8.76-1.17
	c6.42,2.43,14.38,2.69,14.71,2.96c0.33,0.26,4.27,3.11-4.93,1.26c-9.2-1.85-10.06-3.77-14.13-2.97c-4.08,0.79-7.23,1.98-9.93,0.66
	C149.31,102.41,148.61,99.45,151.41,98.45L151.41,98.45z"/>
<path class="st44" d="M131.72,76.13c0,0,4.24-0.33,10.29,0.96c6.05,1.29,9.89,3.17,12.42,3.8c2.53,0.63,5.88,0.79,5.46,1.42
	c-0.43,0.63-1.94-0.23-5.06-0.53c-3.12-0.3-6.21-1.06-8.05-1.95c-1.84-0.89-3.06-1.49-6.34-1.82c-3.29-0.33-5.39-0.66-6.28-0.36
	c-0.89,0.3-3.02,1.98-0.82,1.98c2.2,0,2.43-1.36,7.23,0.36c4.8,1.72,3.62,3.27,8.78,3.87c5.16,0.59,9.01,0.4,9.07,0.63
	c0.07,0.23-0.66,0.69-5.69,0.26c-5.03-0.43-2.24,1.32-7.26-1.22c-5.03-2.55-4.96-3.31-7.4-3.31c-2.43,0-6.28-0.07-7.23-0.07
	c-0.95,0-2.43-0.2-1.51,0.36c0.92,0.56,2.83,4.36,5.39,5.92c2.56,1.55,6.77,0.93,8.51,1.09s2.37,0.36,5.52,1.22
	c3.16,0.86,4.17,1.72,3.94,2.12c-0.23,0.4-5.88-2.21-8.18-2.08c-2.3,0.13-4.39-0.72-4.04,0.83c0.35,1.55,0.72,2.51,1.61,3.31
	c0.89,0.79-0.99,1.65-3.94-1.82s-5.39-3.67-7.17-5.55c-1.77-1.88-1.94-3.07-2.83-4.3c-0.89-1.22-0.26-2.25,0.85-2.21
	C130.11,79.08,129.69,75.37,131.72,76.13L131.72,76.13z"/>
<path class="st3" d="M124.09,90.27c0,0,0.53,6.61,16.17,13.88c15.65,7.27,19.32,7.33,19.32,7.33l-2.23,2.98
	c0,0-17.04-4.02-25.35-10.4c-8.31-6.39-11.07-12.87-11.07-12.87L124.09,90.27L124.09,90.27z"/>
<path class="st3" d="M101.13,70.75c0,0-4.8,4.54-0.67,21.37c4.13,16.83,6.38,19.75,6.38,19.75l-3.71,0.12c0,0-7.53-15.88-7.76-26.4
	c-0.24-10.52,3.07-16.73,3.07-16.73L101.13,70.75L101.13,70.75z"/>
<path class="st3" d="M213.96,63.66c0,0-4.8,4.54-0.67,21.37c4.13,16.83,6.38,19.75,6.38,19.75l-3.71,0.12c0,0-7.53-15.88-7.76-26.4
	c-0.24-10.52,3.07-16.73,3.07-16.73L213.96,63.66L213.96,63.66z"/>
<path class="st49" d="M67.83,78.91c0,0,13.54,4.89,16.7,8.33c3.16,3.44,4.73,3.97,4.73,3.97l0.92,5.42c0,0-4.46-3.17-10.55-6.05
	c-6.09-2.88-14.69-7.44-14.69-7.44L67.83,78.91L67.83,78.91z"/>
<path class="st49" d="M115.29,106.14c0,0,11.83,1.2,14.07,2.64c2.24,1.45,7.49,4.58,7.49,4.58l0.02,5.39c0,0-7.61-5.28-10.85-5.52
	c-3.24-0.25-8.64-1.7-8.64-1.7L115.29,106.14L115.29,106.14z"/>
<path class="st49" d="M156.5,119.5c0,0,2.63-0.46,3.65,0.76c1.02,1.22,1.12,5.29-1.71,4.5C155.62,123.96,154.07,121.81,156.5,119.5
	L156.5,119.5z M157.72,120.69c0,0,1.88-0.02,1.93,1.1c0.04,1.12-1.83,1.48-2.58,0.72C156.31,121.75,157.72,120.69,157.72,120.69
	L157.72,120.69z"/>
<path class="st31" d="M178.89,123.49c0,0,7.46-12.37,11.44-14.8c3.98-2.43,4.81-3.88,4.81-3.88l5.47,0.17c0,0-3.98,3.76-7.99,9.19
	c-4.02,5.43-10.17,13-10.17,13L178.89,123.49L178.89,123.49z"/>
<path class="st31" d="M215.48,89.91c0,0,7.46-12.37,11.44-14.8c3.98-2.43,4.81-3.88,4.81-3.88l5.47,0.17c0,0-3.98,3.76-7.99,9.19
	c-4.02,5.43-10.17,13-10.17,13L215.48,89.91L215.48,89.91z"/>
<path class="st50" d="M206.33,83.4c0,0-4.76,5.65-10.26,9.39c-5.49,3.73-9.95,4.43-11.68,5.59c-1.73,1.16-0.94,4.99-0.94,4.99
	s0.49-2.9,6.85-5.53c6.35-2.63,16.37-9.37,16.29-10.87C206.51,85.47,206.33,83.4,206.33,83.4L206.33,83.4z"/>
<path class="st50" d="M66.38,63.49c0,0-4.99,1.53-5.95,11.35c-0.96,9.82,2.76,22.87,2.76,22.87s-3.29,0-3.29-1.72
	c0-1.72-3.16-12.51-2.23-20.63c0.93-8.11,5.91-14.08,5.91-14.08L66.38,63.49L66.38,63.49z"/>
<path class="st51" d="M65.11,62.54c-0.01,0.01-4.88,4.2-5.6,12.05c-0.72,7.9,2.55,21.58,2.56,21.62l-0.39,0.09
	c-0.01-0.04-3.29-13.78-2.57-21.75c0.73-8.01,5.72-12.3,5.73-12.32L65.11,62.54L65.11,62.54z"/>
<path class="st50" d="M65.67,104.42c0,0-0.26,5.24,8.6,9.47c8.86,4.24,22.33,5.14,22.33,5.14s-1.11,3.11-2.72,2.53
	c-1.61-0.58-12.78-1.25-20.05-4.88c-7.27-3.63-11.17-10.36-11.17-10.36L65.67,104.42L65.67,104.42z"/>
<path class="st51" d="M64.36,105.3c0.01,0.02,2.27,6.04,9.38,9.38c7.14,3.36,21.05,4.9,21.09,4.91l-0.05,0.4
	c-0.04,0-14.01-1.55-21.21-4.94c-7.25-3.41-9.57-9.58-9.58-9.6L64.36,105.3L64.36,105.3z"/>
<path class="st52" d="M184.81,62.53c0,0-11.81-5.9-19.39-5.5c-7.58,0.4-15.97,2.3-9.32,6.99c6.65,4.69,3.83,3.86,12.25,10.6
	c8.42,6.74,5.01,5.18,8.54,9.41c3.52,4.23,1.81,10.82,6,4.09C187.07,81.38,191.26,69.06,184.81,62.53L184.81,62.53z"/>
<path class="st47" d="M183.6,92.46c0,0,5.12-0.57,12.37-5.78c7.24-5.21,5.83-4.21,11.1-7.67c5.26-3.47,3.87-9.1,3.87-9.1
	s-1.23-10.4-9.85-5.86c-8.63,4.53-13.24,2.21-18.32,5.68c-5.08,3.47-9.23,7.14-5.84,10.66C180.3,83.9,183.6,92.46,183.6,92.46
	L183.6,92.46z"/>
<path class="st49" d="M69.87,67.93c0,0,4.01-0.71,5.56,1.16c1.55,1.87,1.7,8.07-2.61,6.86C68.52,74.73,66.16,71.45,69.87,67.93
	L69.87,67.93z M71.73,69.74c0,0,2.87-0.03,2.94,1.67s-2.79,2.26-3.94,1.1C69.57,71.35,71.73,69.74,71.73,69.74L71.73,69.74z"/>
<path class="st53" d="M131.68,81.13c0.22-0.05,2.58-0.02,3.56-0.19c0.99-0.17,1.42,0,2.5,0.19c1.08,0.19,0.77,0.24,1.81,0.8
	c1.04,0.56,3.15,0.73,2.5,1.11c-0.65,0.39-3.3,1.02-2.58,0.29c-0.63-0.87-3.01-1.11-4.48-1.04
	C133.53,82.37,131.39,82.83,131.68,81.13L131.68,81.13z M126.99,80.36c-0.17,0.65-0.92,1.09,0.77,3.12c1.69,2.03,3.2,2.18,2.12,2.64
	c-1.08,0.46-3.44-0.94-4.05-2.57C125.23,81.94,126.02,80.12,126.99,80.36L126.99,80.36z"/>
<path class="st53" d="M157.6,92.71c0,0-2.47-0.14-4.92,2.38c-2.46,2.52-4.48,4.84-5.15,5.04C146.85,100.31,149.93,90.53,157.6,92.71
	L157.6,92.71z M168.99,106.31c2.85,0.64,0.16,1.46,5.89,1.36c5.73-0.1,4.77,0,7.03-0.15c2.26-0.15,1.3-1.02,4.57-1.45
	c3.27-0.44,3.52-1.55,3.23-0.58c-0.29,0.97-1.97,2.66-4.33,2.81c-2.36,0.15-2.55,1.11-6.65,1.4c-4.09,0.29-7.48-0.73-7.48-0.73
	s-2.15-1.5-3.79-1.45C165.82,107.58,164.76,105.64,168.99,106.31L168.99,106.31z"/>
<path class="st44" d="M137.94,113.37c0,0,4.09,1.9,8.62,6.89c4.53,4.99,5.59,6.49,6.36,7.89c0.77,1.4,2.26,2.47,0.91,2.08
	c-1.35-0.39-0.43-0.87-2.65-3.24c-2.22-2.37-5.1-3.63-7.18-6.15c-2.07-2.52-4.19-3.68-4.19-3.68s-0.91,1.55-0.72,1.94
	c0.19,0.39-1.93,2.37,0.67,3.58c2.6,1.21,4.29,1.74,6.26,2.76c1.97,1.02,5.01,3.15,5.01,4.94c0,1.79-1.83,3.78-2.6,3.97
	c-0.77,0.19-0.87,0.29,0.1-1.94c0.96-2.23,2.02-3-1.2-4.79c-3.23-1.79-6.65-2.66-7.13-3c-0.48-0.34-2.12-0.73-0.63,0.97
	c1.49,1.69,2.6,3.78,2.94,5.47c0.34,1.7,0.29,4.02-0.1,3.68c-0.39-0.34,0.96,0.1-0.53-3.1c-1.49-3.2-2.89-4.65-3.37-5.71
	c-0.48-1.07,1.01-1.69,0.19-2.95c-0.82-1.26-1.64-1.31-1.06-3.15c0.58-1.84,1.54-2.03,1.2-3.87
	C138.52,114.11,136.85,113.37,137.94,113.37L137.94,113.37z"/>
<path class="st52" d="M135.56,131.06c0,0,6.48,1.99-5.9,0.17c-12.38-1.82-16.37-3.7-17.38-4.24c-1.01-0.53-5.3-1.96-5.3-1.96
	s-0.99,0.51,0.05,0.9c1.04,0.39,3.66,1.57,7.87,2.83c4.21,1.26,7.08,2.45,9.7,2.59c2.62,0.14,6.96,0.63,6.93,0.87
	c-0.02,0.24-3.35,0.41-7.83,0.24c-4.48-0.17-7.63-0.94-10.5-1.62c-2.87-0.68-5.2-1.43-5.25-1.09c-0.05,0.34-0.77,1.69,10.93,2.98
	c11.7,1.28,12.52,0.48,14.42,0.29c1.9-0.19,4.62,0.53,4.98-0.15C138.66,132.2,138.06,130.34,135.56,131.06L135.56,131.06z"/>
<path class="st44" d="M102.98,113.58c0,0,0.05,0.44,0.39,6.3c0.34,5.86,1.88,7.26,0.05,8.09c-1.83,0.82-3.52,2.13-5.3,1.4
	c-1.78-0.73-3.37-3.24-6.07-4.6c-2.7-1.36-3.76-1.18-4.29-1.6c-0.53-0.42,3.1-0.84,4.14-0.4c1.03,0.44,5.69,3.93,7.28,4.22
	c1.59,0.29,3.23-0.06,2.82-2.09c-0.41-2.03-1.23-3.33-1.23-4.79c0-1.45,1.2-2.52-1.54-3.05c-2.75-0.53,1.78,1.99-9.92-1.16
	c-11.7-3.15-15.07-4.7-16.95-5.62c-1.88-0.92,0.2-1.92,3.61-0.3c3.42,1.61,13.72,4.95,17.48,5.39c3.76,0.44,3.61-0.05,5.44,0.1
	c1.83,0.15,2.12,0.53,2.12-0.58c0-1.11,3.47-1.6-1.3-2.47c-4.77-0.87-13.96-1.26-20.08-3.58c-6.12-2.32-7.18-2.71-7.18-2.71
	s-4.77-2.47-6.84-2.52c-2.07-0.05-3.03-0.63-1.78-0.78c1.25-0.15,3.06-1,7.21,0.44c4.15,1.45,7.62,4.16,15.23,5.56
	c7.61,1.4,12.53,2.38,14.01,2.35C101.77,111.16,103.14,111.98,102.98,113.58L102.98,113.58z"/>
<path class="st45" d="M77.74,69.42c0,0,7.8,4.55,11.85,9.78c4.04,5.23,5.01,5.42,5.2,8.23c0.19,2.81,0.58,7.94,0,7.65
	c-0.58-0.29-0.19-3-0.67-5.13c-0.48-2.13-0.87-3.78-2.02-5.71c-1.16-1.94-5.2-4.94-7.03-6.59c-1.83-1.65-6.26-4.26-6.26-4.26
	s-1.16,1.94,1.16,3.97c2.31,2.03,5.01,3.68,7.42,6.39c2.41,2.71,3.56,5.23,3.56,5.23s-1.64-0.39-4.24-2.81
	c-2.6-2.42-4.14-4.94-6.07-5.71c-1.93-0.77-2.99-1.74-2.89-0.68c0.1,1.07-2.5-0.97-1.35-3c1.16-2.03,1.06-5.04,1.06-5.04
	L77.74,69.42L77.74,69.42z"/>
<path class="st45" d="M108.56,102.25c0,0,2.79,5.23,7.51,10.07c4.72,4.84,4.82,3.68,9.05,4.84c4.24,1.16,4.43,0.1,7.9,2.23
	c3.47,2.13,2.21,3.2,0,2.03c-2.22-1.16-0.96-1.07-7.22-2.52c-6.26-1.45-7.4-1.63-10.97-5.85c-3.57-4.22-5.21-6.83-5.21-6.83
	s-3.65,2.86-0.09,6.61c3.56,3.75,3.27,7.24,8.66,8.69c5.39,1.45,12.62,0.77,13.39,1.36c0.77,0.58-2,0.21-6.07,0.78
	c-4.07,0.56-8.67,1.83-11.99-2.86c-3.32-4.69-4.86-5.64-6.02-8.66c-1.15-3.01-1.06-4.56-0.19-6.11c0.87-1.55,0.19-2.52-0.77-4.07
	c-0.96-1.55-0.29-1.45,1.35-1.36c1.64,0.1,3.37,0.87,4.82,0.29c1.45-0.58,0.1-1.26,5.68,1.36c5.59,2.61,6.9,5.64,4.89,4.32
	c-2-1.32-7.3-4.03-9.13-4.22C112.32,102.15,111.74,102.93,108.56,102.25L108.56,102.25z"/>
<path class="st45" d="M223.46,115.32c0,0-5.3,5.23-17.43,7.56c-12.14,2.32-14.93,2.13-15.99,1.26c-1.06-0.87-4.72-1.94,1.35-1.74
	c6.07,0.19,15.22,1.84,20.42-2.23c5.2-4.07,7.32-4.85,7.32-4.85s3.8-3.64-0.03-2.32c-3.83,1.31-12.59,4.66-15.57,4.66
	c-2.99,0-5.08-1.43-8.22,0.4c-3.14,1.83-2.37-2.24-1.22-2.33c1.16-0.1,3.28-0.78,7.03-0.49c3.75,0.29,3.95,0.54,8.47-0.99
	c4.53-1.53,9.77-3.89,11.84-2.59C223.51,112.93,223.46,115.32,223.46,115.32L223.46,115.32z"/>
<path class="st44" d="M237.62,80.55c0,0,1.05,2.08,1.88,4.53c0.71,2.08,1.26,4.43,0.91,6.02c-0.77,3.49-0.96,3.93-4.67,6.32
	c-3.71,2.39-4.58,2.97-7.85,4.52c-3.27,1.55-4.76,4.13-7.9,5.42c-3.14,1.3-10.02,3.58-10.69,3.49c-0.67-0.1-4.62-2.81-2.41-2.81
	c2.22,0,5.59,0.19,9.82-1.45c4.24-1.65,7.8-4.75,10.5-6.88c2.7-2.13,4.72-3.78,4.91-4.46c0.19-0.68,0.03-4.81-0.99-3.86
	c-1.03,0.95-5.36,1.73-2.95-1.18c2.41-2.91,1.25-2.52,3.37-5.23c2.12-2.71,3.85-2.42,2.79-0.87s-3.85,4.46-1.83,5.81
	c2.02,1.36-1.81,6.42,2.85,3.79C240.03,91.11,235.69,79.58,237.62,80.55L237.62,80.55z"/>
<path class="st44" d="M232.42,61.67c0,0,2.41-0.68,0.87,3c-1.54,3.68-3.27,6.39-4.91,6.88c-1.64,0.48-7.9,3.87-8.19,2.71
	c-0.29-1.16-2.89-2.81-2.31-4.26c0.58-1.45,1.67-4.56,1.67-4.56s-3.41,1.95,1.41,3.69c4.82,1.74,8.48-2.75,9.05-3.58
	C230.59,64.71,232.42,61.67,232.42,61.67L232.42,61.67z M225.87,52.66c0,0-8.09-0.68-9.73,2.42c-1.64,3.1,1.06,3.49-0.19,9.01
	c-1.25,5.52-1.35,7.85-0.48,6.39c0.87-1.45,3.85-7.85,2.6-10.17c-1.25-2.32-1.54-4.23,0.96-4.88c2.5-0.64,4.41-4.94,5.77-1.58
	c1.36,3.36,0.49,2.2-0.28,5.01c-0.77,2.81-3.27,7.55-0.87,4.75C226.06,60.8,229.14,56.53,225.87,52.66L225.87,52.66z"/>
<path class="st44" d="M208.37,75.85c0,0-3.24,2.77-8.89,5.29c-5.65,2.53-9.86,3.27-12.28,4.25c-2.42,0.98-5.23,2.83-5.25,2.07
	c-0.02-0.76,1.71-0.96,4.41-2.56c2.7-1.6,5.65-2.81,7.66-3.17c2.01-0.36,3.34-0.6,6.2-2.27c2.85-1.67,4.75-2.65,5.3-3.41
	c0.54-0.76,1.29-3.39-0.49-2.09c-1.78,1.3-1.18,2.53-6.07,3.97c-4.89,1.44-4.84-0.52-9.36,2.05c-4.53,2.56-7.52,4.99-7.71,4.84
	c-0.19-0.15,0.13-0.95,4.45-3.57c4.32-2.62,1.04-2.39,6.6-3.3c5.56-0.91,5.95-0.25,7.92-1.69c1.97-1.44,5.12-3.65,5.89-4.21
	c0.77-0.56,2.08-1.27,1.01-1.19c-1.07,0.09-4.83-1.86-7.82-1.61c-2.98,0.25-6.02,3.25-7.53,4.14c-1.51,0.89-2.13,1.1-5.19,2.27
	c-3.06,1.17-4.38,1.07-4.43,0.61c-0.04-0.46,6.06-1.68,7.84-3.14c1.79-1.46,3.98-2,2.79-3.05c-1.19-1.05-2.05-1.61-3.23-1.73
	c-1.18-0.12-0.17-1.92,4.25-0.86c4.42,1.06,6.51-0.21,9.04,0.27c2.54,0.48,3.36,1.34,4.8,1.81c1.43,0.47,1.52,1.66,0.6,2.3
	C207.96,72.52,210.46,75.27,208.37,75.85L208.37,75.85z"/>
<path class="st53" d="M188.07,75.04c0.22-0.05,2.58-0.02,3.56-0.19c0.99-0.17,1.42,0,2.5,0.19c1.08,0.19,0.77,0.24,1.81,0.8
	c1.04,0.56,3.15,0.73,2.5,1.11c-0.65,0.39-3.3,1.02-2.58,0.29c-0.63-0.87-3.01-1.11-4.48-1.04
	C189.93,76.28,187.78,76.74,188.07,75.04L188.07,75.04z M183.38,74.27c-0.17,0.65-0.92,1.09,0.77,3.12c1.69,2.03,3.2,2.18,2.12,2.64
	c-1.08,0.46-3.44-0.94-4.05-2.57C181.62,75.84,182.42,74.02,183.38,74.27L183.38,74.27z"/>
<path class="st53" d="M198.23,118.25c0.22-0.05,2.58-0.02,3.56-0.19c0.99-0.17,1.42,0,2.5,0.19c1.08,0.19,0.77,0.24,1.81,0.8
	c1.04,0.56,3.15,0.73,2.5,1.11c-0.65,0.39-3.3,1.02-2.58,0.29c-0.63-0.87-3.01-1.11-4.48-1.04
	C200.09,119.48,197.94,119.94,198.23,118.25L198.23,118.25z M193.54,117.47c-0.17,0.65-0.91,1.09,0.77,3.12
	c1.69,2.03,3.2,2.18,2.12,2.64c-1.08,0.46-3.44-0.94-4.04-2.57C191.78,119.05,192.57,117.23,193.54,117.47L193.54,117.47z"/>
<path class="st53" d="M116.97,86.97c0,0-2.47-0.14-4.92,2.38c-2.46,2.52-4.48,4.84-5.15,5.04C106.22,94.58,109.3,84.79,116.97,86.97
	L116.97,86.97z M114.11,117.62c2.85,0.64,0.16,1.46,5.89,1.36c5.73-0.1,4.77,0,7.03-0.15c2.26-0.15,1.3-1.02,4.57-1.45
	c3.27-0.44,3.51-1.55,3.23-0.58c-0.29,0.97-1.97,2.66-4.33,2.81c-2.36,0.15-2.55,1.11-6.65,1.4c-4.09,0.29-7.48-0.73-7.48-0.73
	s-2.15-1.5-3.79-1.45C110.94,118.89,109.88,116.95,114.11,117.62L114.11,117.62z"/>
<path class="st44" d="M165.48,116.82c0,0,1.73,4.84,2.46,11.19c0.72,6.34,0.91,10.41-0.39,7.12c-1.3-3.29-1.16-4.36-3.42-2.62
	c-2.26,1.74-5.35,5.23-4,1.26c1.35-3.97,5.88,0.44,4.86-6.92C163.99,119.49,162.4,113.59,165.48,116.82L165.48,116.82z"/>
<path class="st45" d="M172.71,114.06c0,0,2.6,4.5,4.04,8.09c1.44,3.58-1.11,6.39,3.9,7.6c5.01,1.21,4.53-2.18,5.73-1.21
	c1.2,0.97,2.65,4.41,0.67,4.26c-1.97-0.15-6.89,0.58-9.53-2.66c-2.65-3.24-1.93-5.42-2.94-7.51c-1.01-2.08-0.72-5.76-2.99-7.36
	c-2.26-1.6-6.12-3.58-1.16-2.9c4.96,0.67,10.61,0.51,11.59,0.57c0.98,0.06-0.18,4.12-1.14,4.32
	C179.93,117.45,176.56,114.31,172.71,114.06L172.71,114.06z"/>
<path class="st44" d="M96.96,63.75c0.58,0,1.16-1.45,9.63,7.94c8.48,9.39,9.05,11.43,6.84,10.27c-2.22-1.16-7.8-4.55-7.8-4.55
	s1.44,2.23-0.67,3.2c-2.12,0.97-6.93-3.39-4.05-5.13C103.8,73.72,104.69,69.62,96.96,63.75L96.96,63.75z"/>
<path class="st52" d="M163.7,80.7c0,0,10.69,2.52,10.69,5.33c0,2.81-2.99,3.97-5.2,3.87c-2.22-0.1-5.2,1.26-5.3-0.1
	c-0.1-1.36,2.12-1.06,3.95-1.94C169.67,86.99,170.06,84.86,163.7,80.7L163.7,80.7z"/>
<path class="st45" d="M122.14,83.22c-0.29,0.34,2.89,6.63-0.67,7.22c-3.56,0.58-4.38,1.27-5.78,3.1c-1.39,1.83-1.11,2.03-4.05,2.61
	c-2.94,0.58-6.5-0.05-3.52-0.87c2.99-0.82,4.96-2.18,8.28-4.7c3.32-2.52,5.15-2.66,4.48-3.97c-0.67-1.31-5.59-4.02-6.45-2.86
	c-0.87,1.16-1.19-1.14,0.47-1.66C116.56,81.57,122.14,83.22,122.14,83.22L122.14,83.22z"/>
<path class="st53" d="M71.75,75.6c0,0-2.47-0.14-4.92,2.38c-2.46,2.52-4.48,4.84-5.15,5.04C61,83.21,64.09,73.43,71.75,75.6
	L71.75,75.6z M68.89,106.25c2.85,0.64,0.16,1.46,5.89,1.36c5.73-0.1,4.77,0,7.03-0.14c2.26-0.15,1.3-1.02,4.57-1.45
	c3.27-0.44,3.52-1.55,3.23-0.58c-0.29,0.97-1.97,2.66-4.33,2.81c-2.36,0.15-2.55,1.11-6.65,1.4c-4.09,0.29-7.48-0.73-7.48-0.73
	s-2.15-1.5-3.79-1.45C65.72,107.52,64.66,105.58,68.89,106.25L68.89,106.25z"/>
<path class="st44" d="M57.76,61.33c0,0,1.59,3.24-0.96,5.23c-2.55,1.99-3.6,4.25-3.68,5.88c-0.08,1.63,0.31,3.42,1.08,6.23
	c0.77,2.81,1.25,4.79,1.3,2.86c0.05-1.94-3.61-4.95-0.84-9.31c2.77-4.35,7.1-7.93,5.99-9.68C59.54,60.79,57.76,61.33,57.76,61.33
	L57.76,61.33z"/>
<path class="st53" d="M210.75,95.86c0,0,2.61,3.79,2.07,6.39c-0.54,2.6-1.16,1.26-3.56,1.79c-2.41,0.53-4.96,4.46-4.77,1.69
	c0.19-2.76,1.25-3.24,3.71-5.04C210.65,98.91,207.62,96.24,210.75,95.86L210.75,95.86z"/>
<path class="st53" d="M215.13,72.51c0,0,6.9,2.83,9.34,2.71c2.45-0.12-1.59,1.5-3.66,1.5C218.74,76.73,213.93,74.26,215.13,72.51
	L215.13,72.51z"/>
<path class="st53" d="M228.81,93.97c-1.44,3.2-7.8,4.65-8.19,7.26C220.23,103.85,231.32,96.3,228.81,93.97L228.81,93.97z"/>
<path class="st53" d="M161.68,114.55c0,0-8.62-0.19-8.62,1.11c0,1.31,2.26-1.07,5.97,1.02
	C162.74,118.76,162.74,117.07,161.68,114.55L161.68,114.55z"/>
<path class="st44" d="M189.71,62.5c0,0-3.72-3.58-12.35-5.82c-8.62-2.24-6.95-1.8-12.97-3.63c-6.02-1.83-9.42,2.86-9.42,2.86
	s-7.14,7.62,1.86,11.36c9,3.74,10.19,8.79,16.09,10.47c5.9,1.69,11.37,2.53,11.88-2.34C185.3,70.54,189.71,62.5,189.71,62.5
	L189.71,62.5z"/>
<path class="st45" d="M147.58,49.57c-0.26-1.28-7.2-10.79-14.51-15.47c-7.31-4.67-12.79-9.15-12.79-9.15s0.5,9.11-0.3,15.58
	c-0.81,6.47-4.22,7.5-2.28,10.49c1.94,2.99,0.08,5.58,3.37,6.98c3.14,2.86,11.29,7.04,18.58,5.68
	C146.91,62.32,147.58,49.57,147.58,49.57L147.58,49.57z"/>
<path class="st46" d="M165.97,64.23c0.05,3.83,0.23,9.63-0.46,13.25c-0.59,3.13-1.11,6.8-3.65,4.53c-2.54-2.26-0.88-1.69-3.74-0.93
	c-2.86,0.76-3.72,2.67-6.3,0.8c-2.58-1.87-7.39-6.5-7.2-9.53c0.18-3.04-3.84-6.25-2.11-10.19c1.73-3.94-0.67-4.99,2.63-7.43
	c3.3-2.44,0.65-7.51,8.15-3.39C160.8,55.44,165.97,64.23,165.97,64.23L165.97,64.23z"/>
<path class="st47" d="M150.87,75.1c0,0-3.65,5.86-7.08,5.77c-3.43-0.1-3.33-1.02-6.62,0.1c-3.29,1.12-8.47-3.69-9.81-6.09
	c-1.34-2.4-5.7-3.66-4.95-9.56c0.75-5.9-1.44-10.26,1.99-10.16c3.43,0.1,7.35-2.02,13.88,2.53C144.81,62.24,150.87,75.1,150.87,75.1
	L150.87,75.1z"/>
<path class="st44" d="M129.11,69.49c-2.08-0.35-11.82-5.77-17.43-5.29c-5.6,0.47-9.76-0.23-11.75,2.35
	c-1.99,2.58-8.22,4.05-3.11,6.98c5.11,2.93,14.61,6.99,24.78,8.33c10.17,1.34,13.82-2,13.53-2.96
	C134.84,77.93,129.11,69.49,129.11,69.49L129.11,69.49z"/>
<path class="st45" d="M129.11,69.49c-2.08-0.35-11.82-5.77-17.43-5.29c-4.96,0.42-8.79-0.09-10.98,1.59
	c0.49,1.02,2.91,2.62,10.94,4.84C124.01,74.05,129,73.38,131,72.3C129.95,70.72,129.11,69.49,129.11,69.49L129.11,69.49z"/>
<path class="st46" d="M127.06,49.86c-2.09-0.22-1.15,5.26-9.52-2.24c-8.37-7.49-11.77-11.58-17.68-10.74
	c-5.9,0.84-12.63,3.19-13.26,4.18c-0.63,1-7.47,1.87-2.59,8.37c4.87,6.5,3.61,7.48,13.24,11.23c9.63,3.75,8.96,7.86,15.43,9.21
	c6.47,1.35,18.26,2.33,19.17-1.3C132.76,64.95,127.06,49.86,127.06,49.86L127.06,49.86z"/>
<path class="st44" d="M100.44,36.82c-0.19,0.02-0.38,0.04-0.58,0.07c-5.9,0.84-12.63,3.19-13.26,4.18c-0.54,0.85-5.53,1.6-4.06,5.78
	C87.92,45.77,100.59,44.99,100.44,36.82L100.44,36.82z"/>
<path class="st48" d="M216.34,53.05c0,0-11.2,0.95-18.19,0.74c-6.99-0.21-13.71-2.91-15.57,1.02c-1.86,3.92-9.04,8.09-2.91,13.92
	c6.13,5.83,10.27,5.47,20.4,2.15c10.13-3.32,21.65-8.62,21.99-10.58C222.4,58.34,216.34,53.05,216.34,53.05L216.34,53.05z"/>
<path class="st44" d="M200.07,24.78c0.31,0.83,6.27,13.42,2.41,18.73c-3.86,5.31-4.6,9.88-9.48,9.77
	c-4.88-0.12-8.47,3.89-12.61,5.58c-4.14,1.69-11.94,6.72-13.82,2c-1.89-4.72-7.43-7.3,1.48-14.2c8.92-6.9,20.82-12.03,23.05-15.65
	C193.32,27.39,200.07,24.78,200.07,24.78L200.07,24.78z"/>
<path class="st44" d="M125.65,20.87c0,0-18.13,2.74-25.36,7.43c-7.23,4.69-15.32,3.7-6.64,9.14c8.69,5.44,6.13,8.36,16.73,5.62
	c10.6-2.74,14.17-4.09,15.19-4.91C126.58,37.32,125.65,20.87,125.65,20.87L125.65,20.87z"/>
<path class="st44" d="M169.49,25.89c0,0-11.81-5.9-19.39-5.5c-7.58,0.4-15.97,2.3-9.32,6.99c6.65,4.69,3.83,3.86,12.25,10.6
	c8.42,6.74,5.01,5.18,8.54,9.41c3.52,4.23,1.81,10.82,6,4.09C171.75,44.74,175.94,32.42,169.49,25.89L169.49,25.89z"/>
<path class="st47" d="M187.93,29.03c-1.83-0.19-6.18,3.47-17.04,6.18c-10.86,2.71-21.45-0.93-25.53,3.95
	c-4.08,4.89-10.79,8.43-2.74,11.01c8.06,2.58,14.27,5.1,23.99,5.72c9.72,0.63,17.2,1.15,19.79-7.22
	C189,40.31,187.93,29.03,187.93,29.03L187.93,29.03z"/>
<path class="st47" d="M69.27,43.76c-3.7,1.21-16.17,0.42-14.53,6.18c1.65,5.76-3.68,8.65,6.25,9.83c9.92,1.18,10.62,0.85,14.03,3.61
	c3.41,2.75,3.48,4.62,8.48,7.41c5,2.79,5.89,6.87,9.68,4.74c3.79-2.13,8.04,1.51,6.65-5.41c-1.39-6.93,2.27-12.92-0.74-14.44
	C96.08,54.17,69.27,43.76,69.27,43.76L69.27,43.76z"/>
<path class="st45" d="M224.26,43.63c0,0-3.72-3.58-12.35-5.82c-8.62-2.24-6.95-1.8-12.97-3.63c-6.02-1.83-9.42,2.86-9.42,2.86
	s-7.14,7.62,1.86,11.36c8.99,3.74,10.19,8.79,16.09,10.47c5.9,1.69,11.37,2.53,11.88-2.34C219.85,51.67,224.26,43.63,224.26,43.63
	L224.26,43.63z"/>
<path class="st47" d="M222.2,36.12c0.31,0.83,6.27,13.42,2.41,18.73c-3.86,5.31-4.6,9.88-9.48,9.77c-4.88-0.12-8.47,3.89-12.61,5.58
	c-4.14,1.69-11.94,6.72-13.82,2s-7.43-7.3,1.48-14.2c8.92-6.9,20.82-12.03,23.05-15.65C215.45,38.73,222.2,36.12,222.2,36.12
	L222.2,36.12z"/>
<path class="st47" d="M156.71,27.86c0,0-3.72-3.58-12.35-5.82c-8.62-2.24-6.95-1.8-12.97-3.63c-6.02-1.83-9.42,2.86-9.42,2.86
	s-7.14,7.62,1.85,11.36c9,3.74,10.19,8.79,16.09,10.47c5.9,1.69,11.37,2.53,11.88-2.34C152.3,35.9,156.71,27.86,156.71,27.86
	L156.71,27.86z"/>
<path class="st44" d="M145.82,42.9c0,0,0.53-3.64,6.84-3.97c6.31-0.33,9.33-0.6,13.28-0.73c3.94-0.13,10.72,0.33,13.67-1.19
	c2.96-1.52,2.82-1.28,4.53-2.15c1.72-0.87,3.66-1.49,1.04,0.73c-2.62,2.22-7.61,3.08-8.34,3.54c-0.72,0.46-3.82,1.01-4.21,0.93
	c-0.38-0.08-1.45,2.12,1.58,1.98c3.02-0.13,7.89-1.26,9.53-1.52c1.64-0.26,2.3,2.05-0.66,2.31c-2.96,0.26-7.86-0.43-8.53,0.22
	c-0.67,0.65,0.45-0.48-2.05,2.95c-2.5,3.44-7.43,1.52-7.49-0.2c-0.07-1.72,1.37-2.94-1.52-3.19c-2.89-0.25-4.2-0.91-6.83-0.65
	c-2.63,0.26-5.92,0.53-6.84,0.86c-0.92,0.33-3.03,2.17-3.75,2.71c-0.72,0.55,2.3,2.78,5.85,1.92c3.55-0.86,2.34-3.6,8.76-1.17
	c6.42,2.43,14.38,2.69,14.71,2.96c0.33,0.26,4.27,3.11-4.93,1.26c-9.2-1.85-10.06-3.77-14.13-2.98c-4.08,0.79-7.23,1.98-9.93,0.66
	C143.72,46.86,143.02,43.9,145.82,42.9L145.82,42.9z"/>
<path class="st44" d="M126.13,20.58c0,0,4.24-0.33,10.29,0.96c6.05,1.29,9.89,3.17,12.42,3.8c2.53,0.63,5.88,0.79,5.46,1.42
	c-0.43,0.63-1.94-0.23-5.06-0.53c-3.12-0.3-6.21-1.06-8.05-1.95c-1.84-0.89-3.06-1.49-6.34-1.82c-3.29-0.33-5.39-0.66-6.28-0.36
	c-0.89,0.3-3.02,1.98-0.82,1.98c2.2,0,2.43-1.36,7.23,0.36c4.8,1.72,3.62,3.27,8.78,3.87c5.16,0.59,9.01,0.4,9.07,0.63
	c0.07,0.23-0.66,0.69-5.69,0.26c-5.03-0.43-2.24,1.32-7.26-1.22c-5.03-2.55-4.96-3.31-7.4-3.31c-2.43,0-6.28-0.07-7.23-0.07
	c-0.95,0-2.43-0.2-1.51,0.36c0.92,0.56,2.83,4.36,5.39,5.92c2.56,1.55,6.77,0.93,8.51,1.09c1.74,0.17,2.37,0.36,5.52,1.22
	c3.16,0.86,4.17,1.72,3.94,2.12c-0.23,0.4-5.88-2.21-8.18-2.08c-2.3,0.13-4.39-0.72-4.04,0.83c0.35,1.55,0.72,2.51,1.61,3.31
	c0.89,0.79-0.99,1.65-3.94-1.82c-2.96-3.47-5.39-3.67-7.17-5.55c-1.77-1.88-1.94-3.07-2.83-4.3c-0.89-1.22-0.26-2.25,0.85-2.21
	C124.52,23.53,124.09,19.82,126.13,20.58L126.13,20.58z"/>
<path class="st3" d="M171.93,23.29c0,0,0.53,6.61,16.17,13.88c15.65,7.27,19.32,7.33,19.32,7.33l-2.23,2.98
	c0,0-17.04-4.02-25.35-10.4c-8.31-6.39-11.07-12.87-11.07-12.87L171.93,23.29L171.93,23.29z"/>
<path class="st3" d="M92.08,34.76c0,0-4.8,4.54-0.67,21.37c4.13,16.83,6.38,19.75,6.38,19.75L94.08,76c0,0-7.53-15.88-7.76-26.4
	c-0.24-10.52,3.07-16.73,3.07-16.73L92.08,34.76L92.08,34.76z"/>
<path class="st49" d="M109.7,50.6c0,0,11.83,1.2,14.07,2.64c2.24,1.45,7.49,4.58,7.49,4.58l0.02,5.39c0,0-7.61-5.28-10.85-5.52
	c-3.24-0.25-8.64-1.7-8.64-1.7L109.7,50.6L109.7,50.6z"/>
<path class="st49" d="M150.91,63.95c0,0,2.63-0.46,3.65,0.76c1.02,1.22,1.12,5.29-1.71,4.5C150.02,68.41,148.48,66.26,150.91,63.95
	L150.91,63.95z M152.13,65.14c0,0,1.88-0.02,1.93,1.1c0.04,1.12-1.83,1.48-2.58,0.72C150.71,66.2,152.13,65.14,152.13,65.14
	L152.13,65.14z"/>
<path class="st31" d="M173.29,67.94c0,0,7.46-12.37,11.44-14.8c3.98-2.43,4.81-3.88,4.81-3.88l5.47,0.17c0,0-3.98,3.76-7.99,9.19
	c-4.02,5.43-10.17,13-10.17,13L173.29,67.94L173.29,67.94z"/>
<path class="st31" d="M145.36,93.07c0,0,7.46-12.37,11.44-14.8c3.98-2.43,4.81-3.88,4.81-3.88l5.47,0.17c0,0-3.98,3.76-7.99,9.19
	c-4.02,5.43-10.17,13-10.17,13L145.36,93.07L145.36,93.07z"/>
<path class="st50" d="M177.91,32.56c0,0-4.76,5.65-10.25,9.39c-5.49,3.73-9.95,4.43-11.68,5.59c-1.73,1.16-0.94,4.99-0.94,4.99
	s0.49-2.9,6.85-5.53c6.35-2.63,16.37-9.37,16.29-10.87C178.1,34.63,177.91,32.56,177.91,32.56L177.91,32.56z"/>
<path class="st50" d="M106.44,34.26c0,0-4.99,1.53-5.95,11.35c-0.96,9.82,2.76,22.87,2.76,22.87s-3.29,0-3.29-1.72
	c0-1.72-3.16-12.51-2.24-20.63c0.93-8.11,5.91-14.08,5.91-14.08L106.44,34.26L106.44,34.26z"/>
<path class="st51" d="M105.17,33.31c-0.01,0.01-4.88,4.2-5.6,12.05c-0.72,7.9,2.55,21.58,2.56,21.62l-0.39,0.09
	c-0.01-0.04-3.29-13.78-2.57-21.75c0.73-8.01,5.72-12.3,5.73-12.32L105.17,33.31L105.17,33.31z"/>
<path class="st50" d="M60.08,48.87c0,0-0.26,5.24,8.6,9.47c8.86,4.24,22.33,5.14,22.33,5.14s-1.11,3.11-2.72,2.53
	c-1.61-0.58-12.78-1.25-20.05-4.88c-7.27-3.63-11.17-10.36-11.17-10.36L60.08,48.87L60.08,48.87z"/>
<path class="st51" d="M58.76,49.75c0.01,0.02,2.27,6.04,9.38,9.38c7.14,3.36,21.05,4.9,21.09,4.91l-0.05,0.4
	c-0.04,0-14.01-1.55-21.21-4.94c-7.25-3.41-9.57-9.58-9.58-9.6L58.76,49.75L58.76,49.75z"/>
<path class="st47" d="M129.72,53.21c0,0,5.12-0.57,12.37-5.78c7.24-5.21,5.83-4.21,11.1-7.67c5.26-3.47,3.87-9.1,3.87-9.1
	s-1.23-10.4-9.85-5.86c-8.63,4.53-13.24,2.21-18.32,5.68c-5.08,3.47-9.23,7.14-5.84,10.66C126.42,44.65,129.72,53.21,129.72,53.21
	L129.72,53.21z"/>
<path class="st53" d="M126.09,25.58c0.22-0.05,2.58-0.02,3.56-0.19c0.99-0.17,1.42,0,2.5,0.19c1.08,0.19,0.77,0.24,1.81,0.8
	c1.04,0.56,3.15,0.73,2.5,1.11c-0.65,0.39-3.3,1.02-2.58,0.29c-0.63-0.87-3.01-1.11-4.48-1.04
	C127.94,26.82,125.8,27.28,126.09,25.58L126.09,25.58z M121.39,24.81c-0.17,0.65-0.91,1.09,0.77,3.12c1.69,2.03,3.2,2.18,2.12,2.64
	c-1.08,0.46-3.44-0.94-4.05-2.57C119.64,26.39,120.43,24.57,121.39,24.81L121.39,24.81z"/>
<path class="st53" d="M152.01,37.16c0,0-2.47-0.14-4.92,2.38c-2.46,2.52-4.48,4.84-5.15,5.04
	C141.26,44.76,144.34,34.98,152.01,37.16L152.01,37.16z M163.4,50.76c2.85,0.64,0.16,1.46,5.89,1.36c5.73-0.1,4.77,0,7.03-0.15
	c2.26-0.15,1.3-1.02,4.57-1.45c3.27-0.44,3.51-1.55,3.23-0.58c-0.29,0.97-1.97,2.66-4.33,2.81c-2.36,0.15-2.55,1.11-6.65,1.4
	c-4.09,0.29-7.48-0.73-7.48-0.73s-2.15-1.5-3.79-1.45C160.23,52.03,159.17,50.09,163.4,50.76L163.4,50.76z"/>
<path class="st44" d="M132.35,57.82c0,0,4.09,1.9,8.62,6.89c4.53,4.99,5.59,6.49,6.36,7.89c0.77,1.4,2.26,2.47,0.92,2.08
	c-1.35-0.39-0.43-0.87-2.65-3.24c-2.22-2.37-5.1-3.63-7.18-6.15c-2.07-2.52-4.19-3.68-4.19-3.68s-0.91,1.55-0.72,1.94
	c0.19,0.39-1.93,2.37,0.67,3.58s4.29,1.74,6.26,2.76c1.97,1.02,5.01,3.15,5.01,4.94c0,1.79-1.83,3.78-2.6,3.97
	c-0.77,0.19-0.87,0.29,0.1-1.94c0.96-2.23,2.02-3-1.2-4.79c-3.23-1.79-6.65-2.66-7.13-3c-0.48-0.34-2.12-0.73-0.63,0.97
	c1.49,1.69,2.6,3.78,2.94,5.47c0.34,1.69,0.29,4.02-0.1,3.68c-0.39-0.34,0.96,0.1-0.53-3.1c-1.49-3.2-2.89-4.65-3.37-5.71
	c-0.48-1.07,1.01-1.69,0.19-2.95c-0.82-1.26-1.64-1.31-1.06-3.15c0.58-1.84,1.54-2.03,1.2-3.87
	C132.92,58.56,131.26,57.82,132.35,57.82L132.35,57.82z"/>
<path class="st52" d="M129.96,75.51c0,0,6.48,1.99-5.9,0.17c-12.38-1.82-16.37-3.7-17.38-4.24c-1.01-0.53-5.3-1.96-5.3-1.96
	s-0.99,0.51,0.05,0.9c1.04,0.39,3.66,1.57,7.87,2.83c4.21,1.26,7.08,2.45,9.7,2.59c2.62,0.15,6.96,0.63,6.93,0.87
	c-0.02,0.24-3.35,0.41-7.83,0.24c-4.48-0.17-7.63-0.94-10.5-1.62c-2.87-0.68-5.2-1.43-5.25-1.09c-0.05,0.34-0.77,1.69,10.93,2.98
	c11.7,1.28,12.52,0.48,14.42,0.29c1.9-0.19,4.62,0.53,4.98-0.15C133.07,76.65,132.47,74.79,129.96,75.51L129.96,75.51z"/>
<path class="st44" d="M97.39,58.03c0,0,0.05,0.44,0.39,6.3c0.34,5.86,1.88,7.26,0.05,8.09c-1.83,0.82-3.52,2.13-5.3,1.4
	c-1.78-0.73-3.37-3.24-6.07-4.6c-2.7-1.36-3.76-1.18-4.29-1.6c-0.53-0.42,3.1-0.84,4.14-0.4c1.03,0.44,5.69,3.93,7.28,4.22
	c1.59,0.29,3.23-0.06,2.82-2.09c-0.41-2.03-1.23-3.33-1.23-4.79c0-1.45,1.2-2.52-1.54-3.05c-2.75-0.53,1.78,1.99-9.92-1.16
	c-11.7-3.15-15.07-4.7-16.95-5.62c-1.88-0.92,0.2-1.92,3.61-0.3c3.42,1.61,13.72,4.95,17.48,5.39c3.76,0.44,3.61-0.05,5.44,0.1
	c1.83,0.15,2.12,0.53,2.12-0.58c0-1.11,3.47-1.6-1.3-2.47c-4.77-0.87-13.96-1.26-20.08-3.58c-6.12-2.32-7.18-2.71-7.18-2.71
	s-4.77-2.47-6.84-2.52c-2.07-0.05-3.03-0.63-1.78-0.77c1.25-0.15,3.06-1,7.21,0.44c4.15,1.45,7.62,4.16,15.23,5.56
	c7.61,1.4,12.53,2.38,14.01,2.35C96.18,55.61,97.55,56.43,97.39,58.03L97.39,58.03z"/>
<path class="st45" d="M102.97,46.7c0,0,2.79,5.23,7.51,10.07c4.72,4.84,4.82,3.68,9.05,4.84c4.24,1.16,4.43,0.1,7.9,2.23
	c3.47,2.13,2.22,3.2,0,2.03c-2.22-1.16-0.96-1.07-7.22-2.52c-6.26-1.45-7.4-1.63-10.97-5.85c-3.57-4.22-5.21-6.83-5.21-6.83
	s-3.65,2.86-0.09,6.61c3.56,3.75,3.27,7.24,8.66,8.69c5.39,1.45,12.62,0.77,13.39,1.36c0.77,0.58-2,0.21-6.07,0.77
	c-4.07,0.56-8.67,1.83-11.99-2.86c-3.32-4.69-4.86-5.64-6.02-8.66c-1.15-3.01-1.06-4.56-0.19-6.11c0.87-1.55,0.19-2.52-0.77-4.07
	c-0.96-1.55-0.29-1.45,1.35-1.36c1.64,0.1,3.37,0.87,4.82,0.29c1.44-0.58,0.1-1.26,5.68,1.36c5.59,2.62,6.9,5.64,4.89,4.32
	c-2-1.32-7.3-4.03-9.13-4.22C106.73,46.6,106.15,47.38,102.97,46.7L102.97,46.7z"/>
<path class="st44" d="M217.87,59.77c0,0-5.3,5.23-17.43,7.56c-12.14,2.32-14.93,2.13-15.99,1.26c-1.06-0.87-4.72-1.94,1.35-1.74
	c6.07,0.19,15.22,1.84,20.42-2.23c5.2-4.07,7.32-4.85,7.32-4.85s3.8-3.64-0.03-2.32c-3.83,1.31-12.59,4.66-15.57,4.66
	c-2.99,0-5.08-1.43-8.22,0.4c-3.14,1.83-2.37-2.24-1.22-2.33c1.16-0.1,3.28-0.78,7.03-0.49c3.75,0.29,3.95,0.54,8.47-0.99
	c4.53-1.53,9.77-3.89,11.84-2.59C217.92,57.38,217.87,59.77,217.87,59.77L217.87,59.77z"/>
<path class="st44" d="M221.1,41.23c0,0,1.05,2.08,1.88,4.53c0.71,2.08,1.26,4.43,0.91,6.02c-0.77,3.49-0.96,3.93-4.67,6.32
	c-3.71,2.39-4.58,2.97-7.85,4.52c-3.27,1.55-4.76,4.13-7.9,5.42c-3.14,1.3-10.02,3.58-10.69,3.49c-0.67-0.1-4.62-2.81-2.41-2.81
	s5.59,0.19,9.82-1.45c4.24-1.65,7.8-4.75,10.5-6.88c2.7-2.13,4.72-3.78,4.91-4.46c0.19-0.68,0.03-4.81-0.99-3.86
	c-1.03,0.95-5.36,1.73-2.95-1.18c2.41-2.91,1.25-2.52,3.37-5.23c2.12-2.71,3.85-2.42,2.79-0.87c-1.06,1.55-3.85,4.46-1.83,5.81
	c2.02,1.36-1.81,6.42,2.85,3.79C223.5,51.78,219.17,40.26,221.1,41.23L221.1,41.23z"/>
<path class="st44" d="M154.49,36.6c0,0-3.24,2.77-8.89,5.29c-5.65,2.52-9.86,3.27-12.28,4.25c-2.42,0.98-5.23,2.83-5.25,2.07
	c-0.02-0.76,1.71-0.96,4.41-2.56c2.7-1.6,5.65-2.81,7.66-3.17c2.01-0.36,3.34-0.6,6.2-2.27c2.85-1.67,4.75-2.65,5.3-3.41
	c0.54-0.76,1.29-3.39-0.49-2.09c-1.78,1.3-1.18,2.53-6.07,3.97c-4.89,1.44-4.84-0.52-9.36,2.05c-4.53,2.56-7.52,4.99-7.71,4.84
	c-0.19-0.15,0.13-0.95,4.45-3.57c4.32-2.62,1.04-2.39,6.6-3.3c5.56-0.91,5.95-0.25,7.92-1.69c1.97-1.44,5.12-3.65,5.89-4.21
	c0.77-0.56,2.09-1.27,1.01-1.19c-1.07,0.09-4.83-1.86-7.82-1.61c-2.98,0.25-6.02,3.25-7.53,4.14c-1.51,0.89-2.13,1.1-5.19,2.27
	c-3.06,1.17-4.38,1.07-4.43,0.61c-0.05-0.46,6.06-1.68,7.84-3.14c1.79-1.46,3.98-2,2.79-3.05c-1.19-1.05-2.05-1.61-3.23-1.73
	c-1.18-0.12-0.17-1.92,4.25-0.86c4.42,1.06,6.51-0.21,9.04,0.27c2.54,0.48,3.36,1.35,4.8,1.81c1.43,0.47,1.52,1.66,0.6,2.3
	C154.08,33.27,156.58,36.01,154.49,36.6L154.49,36.6z"/>
<path class="st53" d="M134.19,35.78c0.22-0.05,2.58-0.02,3.56-0.19c0.99-0.17,1.42,0,2.5,0.19c1.08,0.19,0.77,0.24,1.81,0.8
	c1.04,0.56,3.15,0.73,2.5,1.11c-0.65,0.39-3.3,1.02-2.58,0.29c-0.63-0.87-3.01-1.11-4.48-1.04
	C136.04,37.02,133.9,37.48,134.19,35.78L134.19,35.78z M129.49,35.01c-0.17,0.65-0.92,1.09,0.77,3.12c1.69,2.03,3.2,2.18,2.12,2.64
	c-1.08,0.46-3.44-0.94-4.05-2.57C127.74,36.59,128.53,34.77,129.49,35.01L129.49,35.01z"/>
<path class="st53" d="M192.64,62.7c0.22-0.05,2.58-0.02,3.56-0.19c0.99-0.17,1.42,0,2.5,0.19c1.08,0.19,0.77,0.24,1.81,0.8
	c1.04,0.56,3.15,0.73,2.5,1.11c-0.65,0.39-3.3,1.02-2.58,0.29c-0.63-0.87-3.01-1.11-4.48-1.04C194.5,63.93,192.35,64.39,192.64,62.7
	L192.64,62.7z M187.95,61.92c-0.17,0.65-0.92,1.09,0.77,3.12c1.69,2.03,3.2,2.18,2.12,2.64c-1.08,0.46-3.44-0.94-4.04-2.57
	C186.19,63.5,186.98,61.68,187.95,61.92L187.95,61.92z"/>
<path class="st53" d="M111.38,31.42c0,0-2.47-0.14-4.92,2.38c-2.46,2.52-4.48,4.84-5.15,5.04
	C100.63,39.03,103.71,29.24,111.38,31.42L111.38,31.42z M108.51,62.07c2.85,0.64,0.16,1.46,5.89,1.36c5.73-0.1,4.77,0,7.03-0.15
	c2.26-0.15,1.3-1.02,4.57-1.45c3.27-0.44,3.51-1.55,3.23-0.58c-0.29,0.97-1.97,2.66-4.33,2.81c-2.36,0.15-2.55,1.11-6.65,1.4
	c-4.09,0.29-7.48-0.73-7.48-0.73s-2.15-1.5-3.79-1.45C105.35,63.34,104.29,61.4,108.51,62.07L108.51,62.07z"/>
<path class="st44" d="M159.89,61.27c0,0,1.73,4.84,2.46,11.19c0.72,6.34,0.91,10.41-0.39,7.12c-1.3-3.29-1.16-4.36-3.42-2.61
	c-2.26,1.74-5.35,5.23-4,1.26c1.35-3.97,5.88,0.44,4.86-6.92C158.4,63.94,156.81,58.04,159.89,61.27L159.89,61.27z"/>
<path class="st45" d="M167.11,58.51c0,0,2.6,4.5,4.04,8.09c1.44,3.58-1.11,6.39,3.9,7.6c5.01,1.21,4.53-2.18,5.73-1.21
	c1.2,0.97,2.65,4.41,0.67,4.26c-1.97-0.15-6.89,0.58-9.53-2.66c-2.65-3.24-1.93-5.42-2.94-7.51c-1.01-2.08-0.72-5.76-2.99-7.36
	c-2.26-1.6-6.12-3.58-1.16-2.9c4.96,0.67,10.61,0.51,11.59,0.57c0.98,0.06-0.18,4.12-1.14,4.32
	C174.34,61.9,170.97,58.76,167.11,58.51L167.11,58.51z"/>
<path class="st45" d="M158.11,25.15c0,0,10.69,2.52,10.69,5.33c0,2.81-2.99,3.97-5.2,3.87c-2.22-0.1-5.2,1.26-5.3-0.1
	c-0.1-1.36,2.12-1.06,3.95-1.94C164.08,31.44,164.47,29.31,158.11,25.15L158.11,25.15z"/>
<path class="st45" d="M116.55,27.67c-0.29,0.34,2.89,6.63-0.67,7.22c-3.56,0.58-4.38,1.27-5.78,3.1c-1.39,1.83-1.11,2.03-4.05,2.62
	c-2.94,0.58-6.5-0.05-3.52-0.87c2.99-0.82,4.96-2.18,8.28-4.7c3.32-2.52,5.15-2.66,4.48-3.97c-0.67-1.31-5.59-4.02-6.45-2.86
	c-0.87,1.16-1.19-1.14,0.47-1.66C110.97,26.02,116.55,27.67,116.55,27.67L116.55,27.67z"/>
<path class="st53" d="M194.22,56.53c0,0,2.61,3.79,2.07,6.39c-0.54,2.6-1.16,1.26-3.56,1.79c-2.41,0.53-4.96,4.46-4.77,1.69
	c0.19-2.76,1.25-3.24,3.71-5.04C194.13,59.58,191.09,56.92,194.22,56.53L194.22,56.53z"/>
<path class="st53" d="M223.21,38.42c-1.44,3.2-7.8,4.65-8.19,7.26C214.64,48.3,225.73,40.75,223.21,38.42L223.21,38.42z"/>
<path class="st53" d="M156.09,59c0,0-8.62-0.19-8.62,1.11c0,1.31,2.26-1.07,5.97,1.02C157.14,63.21,157.14,61.52,156.09,59
	L156.09,59z"/>
<path class="st49" d="M207.55,69.41c0,0,4.01-0.71,5.56,1.16c1.55,1.87,1.7,8.07-2.61,6.86C206.2,76.21,203.84,72.94,207.55,69.41
	L207.55,69.41z M209.41,71.22c0,0,2.87-0.03,2.94,1.68c0.07,1.7-2.79,2.26-3.94,1.1C207.25,72.84,209.41,71.22,209.41,71.22
	L209.41,71.22z"/>
<path class="st49" d="M187.58,86c0,0,4.01-0.71,5.56,1.16c1.55,1.87,1.7,8.07-2.61,6.86C186.23,92.81,183.87,89.53,187.58,86
	L187.58,86z M189.44,87.82c0,0,2.87-0.03,2.94,1.68c0.07,1.7-2.79,2.26-3.94,1.1C187.28,89.43,189.44,87.82,189.44,87.82
	L189.44,87.82z"/>
<path class="st54" d="M139.26,98.21c0.14,0.51-0.54,1.15-1.53,1.44c-0.99,0.28-1.91,0.1-2.05-0.41c-0.15-0.51,0.54-1.15,1.53-1.44
	C138.2,97.52,139.12,97.7,139.26,98.21L139.26,98.21z M167.03,86.51c0.14,0.51-0.54,1.15-1.53,1.44c-0.99,0.28-1.91,0.1-2.05-0.41
	c-0.14-0.51,0.54-1.15,1.53-1.44C165.96,85.82,166.88,86,167.03,86.51L167.03,86.51z M177.65,68.98c0.36-0.39,1.26-0.13,2.01,0.58
	c0.75,0.71,1.07,1.59,0.71,1.98c-0.36,0.39-1.26,0.13-2.01-0.58C177.61,70.25,177.29,69.37,177.65,68.98L177.65,68.98z
	 M155.74,63.45c0.36-0.39,1.26-0.13,2.01,0.58c0.75,0.71,1.07,1.59,0.71,1.98c-0.36,0.39-1.26,0.13-2.01-0.58
	C155.7,64.72,155.38,63.84,155.74,63.45L155.74,63.45z M149.67,53.41c0.14-0.51-0.54-1.15-1.53-1.44c-0.99-0.28-1.91-0.1-2.05,0.41
	c-0.14,0.51,0.54,1.15,1.53,1.44C148.6,54.1,149.52,53.92,149.67,53.41L149.67,53.41z M131.85,51.39c0.36,0.39,1.26,0.13,2.01-0.58
	c0.75-0.71,1.07-1.59,0.71-1.98c-0.36-0.39-1.26-0.13-2.01,0.58C131.81,50.12,131.49,51,131.85,51.39L131.85,51.39z M141.32,68.46
	c0.51-0.13,0.73-1.04,0.48-2.05c-0.25-1-0.86-1.71-1.37-1.59c-0.51,0.13-0.73,1.04-0.48,2.05
	C140.19,67.88,140.81,68.59,141.32,68.46L141.32,68.46z M172.23,99.02c0.14,0.51-0.54,1.15-1.53,1.44c-0.99,0.28-1.91,0.1-2.05-0.41
	c-0.14-0.51,0.54-1.15,1.53-1.44C171.17,98.32,172.09,98.51,172.23,99.02L172.23,99.02z M146.19,79.83
	c0.36-0.39,1.26-0.13,2.01,0.58c0.75,0.71,1.07,1.59,0.71,1.98c-0.36,0.39-1.26,0.13-2.01-0.58
	C146.15,81.1,145.83,80.21,146.19,79.83L146.19,79.83z M136.89,81.53c0.51,0.13,0.73,1.04,0.48,2.05c-0.25,1-0.86,1.71-1.37,1.59
	c-0.51-0.13-0.73-1.04-0.48-2.05C135.77,82.11,136.38,81.4,136.89,81.53L136.89,81.53z"/>
<path class="st54" d="M115.86,102.19c0.14,0.51-0.54,1.15-1.53,1.44c-0.99,0.28-1.91,0.1-2.05-0.41c-0.14-0.51,0.54-1.15,1.53-1.44
	C114.8,101.5,115.72,101.68,115.86,102.19L115.86,102.19z M143.62,90.5c0.15,0.51-0.54,1.15-1.53,1.44
	c-0.99,0.28-1.91,0.1-2.05-0.41c-0.15-0.51,0.54-1.15,1.53-1.44C142.56,89.81,143.48,89.99,143.62,90.5L143.62,90.5z M154.25,72.96
	c0.36-0.39,1.26-0.13,2.01,0.58c0.75,0.71,1.07,1.59,0.71,1.98c-0.36,0.39-1.26,0.13-2.01-0.58
	C154.2,74.24,153.89,73.35,154.25,72.96L154.25,72.96z M132.34,67.44c0.36-0.39,1.26-0.13,2.01,0.58c0.75,0.71,1.07,1.59,0.71,1.98
	c-0.36,0.39-1.26,0.13-2.01-0.58C132.29,68.71,131.98,67.82,132.34,67.44L132.34,67.44z M126.26,57.4c0.14-0.51-0.54-1.15-1.53-1.44
	c-0.99-0.28-1.91-0.1-2.05,0.41c-0.14,0.51,0.54,1.15,1.53,1.44C125.2,58.09,126.12,57.91,126.26,57.4L126.26,57.4z M108.45,55.38
	c0.36,0.39,1.26,0.13,2.01-0.58c0.75-0.71,1.07-1.59,0.71-1.98c-0.36-0.39-1.26-0.13-2.01,0.58
	C108.4,54.1,108.09,54.99,108.45,55.38L108.45,55.38z M117.92,72.45c0.51-0.13,0.73-1.04,0.48-2.05c-0.25-1-0.86-1.71-1.37-1.59
	c-0.51,0.13-0.73,1.04-0.48,2.05C116.79,71.87,117.4,72.58,117.92,72.45L117.92,72.45z M148.83,103c0.15,0.51-0.54,1.15-1.53,1.44
	c-0.99,0.28-1.91,0.1-2.05-0.41c-0.15-0.51,0.54-1.15,1.53-1.44C147.77,102.31,148.68,102.49,148.83,103L148.83,103z M122.79,83.81
	c0.36-0.39,1.26-0.13,2.01,0.58c0.75,0.71,1.07,1.59,0.71,1.98c-0.36,0.39-1.26,0.13-2.01-0.58
	C122.75,85.09,122.43,84.2,122.79,83.81L122.79,83.81z M113.49,85.52c0.51,0.13,0.73,1.04,0.48,2.05c-0.25,1-0.86,1.71-1.37,1.59
	c-0.51-0.13-0.73-1.04-0.48-2.05C112.36,86.1,112.98,85.39,113.49,85.52L113.49,85.52z"/>
<path class="st54" d="M167.63,90.53c0.14,0.51-0.54,1.15-1.53,1.44c-0.99,0.28-1.91,0.1-2.05-0.41c-0.14-0.51,0.54-1.15,1.53-1.44
	C166.57,89.83,167.49,90.02,167.63,90.53L167.63,90.53z M195.39,78.83c0.15,0.51-0.54,1.15-1.53,1.44c-0.99,0.28-1.91,0.1-2.05-0.41
	c-0.14-0.51,0.54-1.15,1.53-1.44C194.33,78.14,195.25,78.32,195.39,78.83L195.39,78.83z M206.02,61.3c0.36-0.39,1.26-0.13,2.01,0.58
	c0.75,0.71,1.07,1.59,0.71,1.98c-0.36,0.39-1.26,0.13-2.01-0.58C205.98,62.57,205.66,61.69,206.02,61.3L206.02,61.3z M184.11,55.77
	c0.36-0.39,1.26-0.13,2.01,0.58c0.75,0.71,1.07,1.59,0.71,1.98c-0.36,0.39-1.26,0.13-2.01-0.58
	C184.07,57.04,183.75,56.16,184.11,55.77L184.11,55.77z M178.04,45.73c0.14-0.51-0.54-1.15-1.53-1.44c-0.99-0.28-1.91-0.1-2.05,0.41
	c-0.14,0.51,0.54,1.15,1.53,1.44C176.97,46.42,177.89,46.24,178.04,45.73L178.04,45.73z M160.22,43.71
	c0.36,0.39,1.26,0.13,2.01-0.58s1.07-1.59,0.71-1.98c-0.36-0.39-1.26-0.13-2.01,0.58C160.18,42.44,159.86,43.32,160.22,43.71
	L160.22,43.71z M169.69,60.78c0.51-0.13,0.73-1.04,0.48-2.05c-0.25-1-0.86-1.71-1.37-1.59c-0.51,0.13-0.73,1.04-0.48,2.05
	C168.56,60.2,169.18,60.91,169.69,60.78L169.69,60.78z M200.6,91.33c0.14,0.51-0.54,1.15-1.53,1.44c-0.99,0.28-1.91,0.1-2.05-0.41
	c-0.15-0.51,0.54-1.15,1.53-1.44C199.54,90.64,200.46,90.83,200.6,91.33L200.6,91.33z M174.56,72.15c0.36-0.39,1.26-0.13,2.01,0.58
	c0.75,0.71,1.07,1.59,0.71,1.98c-0.36,0.39-1.26,0.13-2.01-0.58C174.52,73.42,174.2,72.53,174.56,72.15L174.56,72.15z M165.26,73.85
	c0.51,0.13,0.73,1.04,0.48,2.05c-0.25,1-0.86,1.71-1.37,1.59c-0.51-0.13-0.73-1.04-0.48-2.05
	C164.14,74.43,164.75,73.72,165.26,73.85L165.26,73.85z"/>
<path class="st54" d="M101.28,56.38c0.14-0.51-0.54-1.15-1.53-1.44c-0.99-0.28-1.91-0.1-2.05,0.41c-0.14,0.51,0.54,1.15,1.53,1.44
	C100.22,57.07,101.14,56.89,101.28,56.38L101.28,56.38z M129.05,68.07c0.14-0.51-0.54-1.15-1.53-1.44c-0.99-0.28-1.91-0.1-2.05,0.41
	c-0.14,0.51,0.54,1.15,1.53,1.44C127.98,68.77,128.9,68.58,129.05,68.07L129.05,68.07z M139.67,85.61c0.36,0.39,1.26,0.13,2.01-0.58
	c0.75-0.71,1.07-1.59,0.71-1.98c-0.36-0.39-1.26-0.13-2.01,0.58C139.63,84.33,139.31,85.22,139.67,85.61L139.67,85.61z
	 M117.76,91.14c0.36,0.39,1.26,0.13,2.01-0.58c0.75-0.71,1.07-1.59,0.71-1.98c-0.36-0.39-1.26-0.13-2.01,0.58
	C117.72,89.86,117.4,90.75,117.76,91.14L117.76,91.14z M111.69,101.17c0.14,0.51-0.54,1.15-1.53,1.44c-0.99,0.28-1.91,0.1-2.05-0.41
	c-0.14-0.51,0.54-1.15,1.53-1.44C110.62,100.48,111.54,100.66,111.69,101.17L111.69,101.17z M93.87,103.2
	c0.36-0.39,1.26-0.13,2.01,0.58c0.75,0.71,1.07,1.59,0.71,1.98c-0.36,0.39-1.26,0.13-2.01-0.58
	C93.83,104.47,93.51,103.58,93.87,103.2L93.87,103.2z M103.34,86.12c0.51,0.13,0.73,1.04,0.48,2.05c-0.25,1-0.86,1.71-1.37,1.59
	c-0.51-0.13-0.73-1.04-0.48-2.05C102.21,86.71,102.83,85.99,103.34,86.12L103.34,86.12z M134.25,55.57
	c0.14-0.51-0.54-1.15-1.53-1.44c-0.99-0.28-1.91-0.1-2.05,0.41c-0.14,0.51,0.54,1.15,1.53,1.44
	C133.19,56.26,134.11,56.08,134.25,55.57L134.25,55.57z M108.21,74.76c0.36,0.39,1.26,0.13,2.01-0.58c0.75-0.71,1.07-1.59,0.71-1.98
	c-0.36-0.39-1.26-0.13-2.01,0.58C108.17,73.48,107.85,74.37,108.21,74.76L108.21,74.76z M98.91,73.06c0.51-0.13,0.73-1.04,0.48-2.05
	c-0.25-1-0.86-1.71-1.37-1.59c-0.51,0.13-0.73,1.04-0.48,2.05C97.79,72.47,98.4,73.18,98.91,73.06L98.91,73.06z"/>
</svg>
