<?xml version="1.0" encoding="UTF-8"?>
<svg id="Layer_1" data-name="Layer 1" xmlns="http://www.w3.org/2000/svg" viewBox="0 0 200.28 201.41">
  <defs>
    <style>
      .cls-1 {
        fill: #358541;
      }

      .cls-1, .cls-2, .cls-3, .cls-4, .cls-5, .cls-6, .cls-7, .cls-8, .cls-9, .cls-10, .cls-11, .cls-12 {
        fill-rule: evenodd;
        stroke-width: 0px;
      }

      .cls-2 {
        fill: #315e38;
      }

      .cls-3 {
        fill: #cad3db;
      }

      .cls-4 {
        fill: #c8ced4;
      }

      .cls-5 {
        fill: #d3d4d6;
      }

      .cls-6 {
        fill: #dae3eb;
      }

      .cls-7 {
        fill: #d6e0e8;
      }

      .cls-8 {
        fill: #fdd657;
      }

      .cls-9 {
        fill: #f0c330;
      }

      .cls-10 {
        fill: #fce38f;
      }

      .cls-11 {
        fill: #99ae4c;
      }

      .cls-12 {
        fill: #eef5fb;
      }
    </style>
  </defs>
  <path class="cls-5" d="m133.72,5.86c52.09,18.65,79.28,76.23,60.73,128.62-18.55,52.38-75.81,79.72-127.89,61.07C14.47,176.89-12.72,119.31,5.83,66.93,24.38,14.55,81.64-12.79,133.72,5.86h0Z"/>
  <path class="cls-12" d="m132.5,9.32c50.19,17.97,76.39,73.46,58.52,123.93-17.87,50.47-73.05,76.82-123.23,58.85C17.59,174.12-8.61,118.63,9.26,68.16,27.14,17.69,82.31-8.66,132.5,9.32h0Z"/>
  <path class="cls-6" d="m125.02,30.44c38.59,13.82,58.74,56.48,44.99,95.29-13.74,38.81-56.17,59.07-94.76,45.25-38.59-13.82-58.74-56.48-44.99-95.29,13.74-38.81,56.17-59.07,94.76-45.25h0Z"/>
  <path class="cls-4" d="m54.66,159.64c-18.41-14.36-29.09-36.77-28.7-60.18l.15-.13h0s.22-.19.22-.19l.23-.2h0s.24-.22.24-.22l.25-.23h0s.26-.24.26-.24l.26-.25h0s.27-.27.27-.27l.28-.28.29-.29.3-.3.3-.31.3-.31.3-.31.3-.32h0l.3-.32.3-.32.3-.33h0l.3-.33h0l.3-.33h0s.3-.33.3-.33l.3-.34h0l.3-.34.3-.34h0s.3-.34.3-.34l.31-.34.31-.34.31-.34h0s.31-.34.31-.34h0l.31-.34h0s.31-.34.31-.34h0l.31-.34.31-.34.31-.34h0s.31-.34.31-.34h0l.32-.33.32-.33h0l.32-.33h0s.32-.33.32-.33h0s.32-.32.32-.32h0s.32-.32.32-.32h0s.32-.32.32-.32l.32-.31.33-.31.33-.31h0s.33-.3.33-.3h0s.33-.3.33-.3h0s.33-.29.33-.29l.33-.29h0s.33-.28.33-.28h0l.33-.28h0s.34-.27.34-.27h0s.34-.27.34-.27h0s.34-.26.34-.26h0s.34-.25.34-.25l.34-.25.34-.24h0c.11-.08.23-.16.35-.23h0s.35-.22.35-.22h0c.12-.07.23-.14.35-.22h0c.12-.07.23-.14.35-.21h0c.12-.07.24-.13.35-.2h0c.12-.07.24-.13.35-.19h0c.12-.06.24-.12.36-.18h0c.12-.06.24-.12.36-.17h0c.12-.06.24-.11.36-.16h0c.12-.05.24-.1.36-.15h0c.12-.05.24-.1.36-.14h0c.12-.05.24-.09.37-.13h0c.12-.04.25-.08.37-.12h0c.12-.04.25-.08.37-.11h0c.12-.04.25-.07.37-.1h0c.12-.03.25-.06.37-.09h0c.13-.03.25-.05.38-.08h0s.38-.07.38-.07h0s.37-.07.37-.07h0s.37-.06.37-.06h0s.36-.06.36-.06h0s.36-.05.36-.05h0s.36-.05.36-.05h0s.35-.05.35-.05h0l.35-.04.35-.04h0l.34-.03.34-.03.34-.02h0l.33-.02h0s.33-.02.33-.02h.33s.32-.02.32-.02h.32s0,0,0,0h.32s.31,0,.31,0h.31s.31.02.31.02h.3s0,.01,0,.01l.3.02h0l.3.02h0l.29.03h0s.29.03.29.03h0l.29.03h0l.29.04h0l.28.04h0l.28.04h0l.28.05h0l.27.05h0l.27.05h0l.27.06.27.06.27.06h0s.26.07.26.07h0l.26.07h0l.26.07h0l.26.08h0l.25.08.25.08h0l.25.09h0l.25.09h0l.25.09h0l.24.1.24.1.24.1h0l.24.1.24.11.23.11.23.11.23.12h0c.15.08.31.16.46.24l.23.12h0s.23.13.23.13h0s.22.13.22.13h0s.22.13.22.13h0c.15.09.29.18.44.27h0s.22.14.22.14h0s.22.14.22.14h0s.22.14.22.14h0s.06.04.06.04c.05.03.09.06.14.09l.09.05.11.06.11.06.11.05.11.05.15.07.06.03h0c.07.03.14.06.2.09h.01s.11.04.11.04l.15.06.09.03.15.05.11.04.16.05.07.02h.01s.23.06.23.06l.14.03.16.04.08.02.17.04.14.03h.02s.22.05.22.05h.02s.25.05.25.05h.04s.03.01.03.01c.19.03.39.06.58.09h.04c.63.1,1.28.17,1.96.24h.03c3.04.34,6.43.67,9.23,2.52h0c1.75,1.16,3.28,2.9,4.34,5.6.55,1.39,1.18,2.54,1.87,3.53.07.1.14.19.21.29l.02.03c.08.1.15.21.23.31v.02c.35.43.7.83,1.06,1.2h0c.09.09.17.18.26.26l.03.03.25.25h0c.09.09.18.17.27.25l.02.02c.51.46,1.03.88,1.55,1.28l.14.11c.58.43,1.16.84,1.73,1.26l.06.04c.46.33.91.66,1.36,1.01l.03.02.25.2.02.02h0c.17.15.35.29.52.43h.01c.18.16.35.32.52.48h0c.09.08.17.16.26.25h0c1.95,1.9,3.56,4.48,4.3,9.11,2.08,12.9-1.6,10.02-.29,15.13,1.31,5.1-.44,6.76-3.72,10.72-3.29,3.97-1.87,7.63-6.17,10.24-1.96,1.19-4.08,3.22-6.49,5.21h0l-.19.16-.08.06-.14.11-.04.03-.24.19h-.01s-.26.21-.26.21h0s-.14.12-.14.12l-.11.09-.03.02-.14.11-.09.07-.05.04-.14.11-.07.05-.22.16-.04.03-.1.07-.14.11-.02.02-.12.09-.14.1h0s-.27.19-.27.19l-.03.02-.21.14-.04.03-.05.03-.15.1-.08.05-.07.05c-.15.1-.3.2-.46.3l-.03.02-.22.14-.06.03h0s-.07.04-.07.04l-.22.13h-.02s-.23.14-.23.14l-.04.03-.05.03-.24.14h0s-.28.15-.28.15l-.05.02-.23.12-.04.02-.04.02-.25.13h-.01s-.3.15-.3.15h-.01s-.29.14-.29.14h0s-.28.13-.28.13l-.05.02-.28.12h-.02s-.25.11-.25.11l-.05.02-.04.02-.26.1h-.02s-.3.11-.3.11h-.02s0,.01,0,.01l-.31.1h-.02s-.29.1-.29.1l-.05.02-.29.08h-.03c-.21.07-.42.12-.63.17h-.03s-.02.01-.02.01c-.11.02-.21.05-.32.07h0l-.34.07h0l-.34.06h0l-.33.06h0l-.33.06h0l-.33.05h0l-.32.05h0l-.32.04h0l-.32.04-.31.04h0l-.31.03h0s-.31.03-.31.03h0l-.3.03h0s-.3.02-.3.02h0l-.3.02h0s-.29.02-.29.02h0l-.29.02h0s-.29.01-.29.01h-.28s0,.01,0,.01h-.28s-.28.01-.28.01h0s-.28,0-.28,0h0s-.27,0-.27,0h-.27s-.27,0-.27,0h0s-.27,0-.27,0h-.27s-.26-.01-.26-.01h0s-.26,0-.26,0h-.26s0-.01,0-.01h-.26s-.26-.02-.26-.02h-.25s-.25-.03-.25-.03h0s-.25-.02-.25-.02l-.25-.02-.25-.02h0s-.25-.02-.25-.02h0s-.25-.02-.25-.02h0s-.24-.02-.24-.02l-.24-.02-.24-.02h0s-.24-.02-.24-.02l-.24-.02-.24-.02-.24-.02-.24-.02h-.24s-.24-.03-.24-.03h-.24s-.24-.02-.24-.02h-.24s-.24-.02-.24-.02h0s-.24,0-.24,0h0s-.23,0-.23,0h-.24s-.23,0-.23,0h-.24s-.24,0-.24,0h-.24s-.24,0-.24,0h-.24s-.24.02-.24.02h-.24s0,.01,0,.01h-.24s-.23.03-.23.03h-.06s-.17,0-.17,0h-.07s-.2,0-.2,0h-.05s-.2,0-.2,0h-.04s-.01,0-.01,0h-.07s-.19,0-.19,0h-.06s-.17-.01-.17-.01h-.15s-.02,0-.02,0h-.19s-.04-.02-.04-.02l-.24-.02h-.02s-.22-.02-.22-.02h0s-.21-.02-.21-.02h-.07s-.18-.03-.18-.03h-.03s-.22-.03-.22-.03h-.03s-.26-.04-.26-.04h-.04s-.18-.03-.18-.03h0Zm43.15-56.01c-.09-.08-.17-.17-.26-.25l.26.25h0Zm-.26-.25c-.17-.16-.35-.31-.52-.47l.52.47h0Zm-30.77-21.12c-.15-.09-.29-.18-.44-.27l.44.27h0Z"/>
  <path class="cls-4" d="m125.02,30.43c7.01,2.51,13.41,5.98,19.11,10.2,3.29,5.76,5.13,2.75,7.9,11.22l.04.13.08.26.04.13.07.25v.02s.04.13.04.13h0s.07.27.07.27h0s.03.14.03.14l.03.14.03.14v.06s.06.2.06.2l.05.23.03.15v.04s.03.14.03.14v.05s.04.16.04.16v.06s.03.14.03.14v.04s.03.12.03.12l.04.26.02.12.04.31v.08s.04.32.04.32v.03s0,.02,0,.02c0,.12.02.24.02.36h0s0,.01,0,.01v.02c0,.12.01.23.02.35v.02s0,.02,0,.02c0,.12,0,.23,0,.35v.06c0,.12,0,.24,0,.36v.02c0,.12,0,.25-.02.37v.05c-.01.12-.02.23-.03.35v.02s0,.01,0,.01c-.01.12-.02.25-.04.38h0s0,.02,0,.02c-.01.12-.03.24-.05.36v.03s0,.04,0,.04c-.02.12-.04.24-.06.35h0c-.02.14-.05.26-.07.38v.05c-.04.12-.06.25-.09.37h0c-.03.14-.07.27-.1.4l-.11.39-.11.37-.1.35-.1.34-.1.32-.1.31-.09.29h0s-.09.28-.09.28l-.09.26-.09.25-.09.24-.09.23h0s-.09.22-.09.22l-.08.21-.08.2-.08.19h0s-.08.18-.08.18l-.08.17-.08.16-.08.15h0s-.08.15-.08.15h0l-.08.14-.08.13-.08.13-.08.12-.08.12h0s-.09.12-.09.12l-.09.11-.09.11-.09.11-.09.11-.09.11-.09.1-.09.11h0l-.1.1-.1.11-.1.11-.1.11-.11.11h0l-.11.12-.11.12-.12.12h0s-.12.13-.12.13h0l-.12.13-.13.14-.13.15-.13.15h0s-.14.16-.14.16h0s-.14.17-.14.17l-.14.18h0s-.15.19-.15.19h0l-.15.2h0s-.16.21-.16.21l-.16.22-.17.23h0s-.17.24-.17.24h0l-.18.25h0s-.18.26-.18.26h0l-.19.28h0l-.19.29h0l-.2.31h0l-.2.32h0l-.21.34h0l-.22.35h0l-.22.36h0l-.22.37h0l-.22.37h0l-.22.37-.22.38h0l-.22.38-.22.38-.22.39-.22.39-.22.39-.22.39-.22.4-.22.4-.22.4-.22.4-.22.4-.22.4-.22.4-.22.4-.22.4-.22.4h0s-.23.4-.23.4h0l-.23.4h0l-.23.4-.23.4h0l-.23.4-.23.4-.23.39-.24.39h0l-.24.39-.24.39h0l-.24.38-.24.38-.25.38-.25.37h0l-.25.37-.25.37-.25.36-.26.36-.26.35h0l-.26.35h0s-.27.34-.27.34l-.27.34-.27.33h0s-.27.32-.27.32l-.28.32c-.09.1-.19.21-.28.31h0s-.28.3-.28.3c-.1.1-.19.2-.29.3h0c-.1.1-.19.2-.29.29-.1.1-.2.19-.3.28h0c-.1.09-.2.19-.3.28h0c-.1.09-.2.18-.3.27h0c-.1.09-.2.17-.31.26-.1.09-.21.17-.31.25h0c-.1.08-.21.16-.31.24-.11.08-.21.16-.32.23h0c-.11.08-.21.15-.32.22-.11.07-.22.14-.33.21h0c-.11.07-.22.14-.33.2-.11.07-.22.13-.33.19h0c-.11.06-.23.12-.34.18h0c-.11.06-.23.12-.34.17h0c-.12.06-.23.11-.35.16h0s-.35.16-.35.16h0s-.35.15-.35.15h0s-.34.15-.34.15h0s-.34.14-.34.14h0s-.34.13-.34.13h0s-.34.13-.34.13h0s-.33.13-.33.13l-.33.12h0s-.33.12-.33.12h0s-.33.11-.33.11h0s-.32.11-.32.11h0s-.32.1-.32.1l-.32.1h0s-.32.09-.32.09l-.31.09h0s-.31.08-.31.08l-.31.08-.31.07-.3.07h0l-.3.06h0s-.3.06-.3.06l-.3.06h0l-.3.05h0s-.29.05-.29.05h0l-.29.04-.29.04h0s-.29.03-.29.03h0l-.29.03h0s-.28.03-.28.03h0l-.28.02-.28.02h-.28s-.28.02-.28.02h0s-.28,0-.28,0c-.18,0-.37,0-.55,0h-.27s-.27-.01-.27-.01h-.27s-.27-.03-.27-.03l-.27-.02-.26-.02-.26-.03h0l-.26-.03-.26-.03-.26-.04h0l-.26-.04-.26-.04-.26-.05-.25-.05-.25-.05-.25-.06-.25-.06-.25-.06-.25-.07-.25-.07-.25-.07h0s-.25-.07-.25-.07l-.25-.08-.25-.08-.25-.08-.24-.08-.24-.09-.24-.09c-.07-.03-.15-.05-.23-.08l-.06-.02c-.06-.02-.12-.04-.18-.05h-.05s-.19-.06-.19-.06h-.06s-.19-.05-.19-.05h-.05s0-.01,0-.01h-.02s-.22-.04-.22-.04h-.1s-.15-.03-.15-.03h-.12s-.16-.03-.16-.03h-.09s-.21-.02-.21-.02h-.05s-.01,0-.01,0c-.09,0-.18,0-.28,0h-.26s-.09,0-.09,0h-.22s-.04,0-.04,0h-.29s-.02.01-.02.01h-.25s-.04.02-.04.02h-.04c-.19.02-.38.03-.58.05h-.03c-.21.02-.43.04-.64.07l-.23.03h-.1s-.34.05-.34.05h-.1s-.24.04-.24.04h-.04s-.28.04-.28.04h-.03c-3.03.38-6.4.83-9.55-.31h-.02c-.47-.18-.94-.39-1.4-.64h0c-1.45-.8-2.83-2-4.09-3.81-.84-1.21-1.71-2.18-2.59-2.97-.1-.09-.2-.18-.3-.27h0c-2.17-1.86-4.43-2.72-6.63-3.62l-.1-.04-.16-.07-.06-.03c-.2-.08-.39-.16-.59-.25l-.05-.02-.28-.12-.04-.02-.28-.13-.03-.02h0s-.28-.13-.28-.13h-.03c-.08-.05-4.72-1.17-7.82-8.71-4.96-12.07-.72-10.12-3.16-14.79-2.44-4.67-1.11-6.68,1.18-11.29,2.3-4.62.08-7.85,3.67-11.39,1.64-1.61,3.24-4.07,5.13-6.57l.11-.14.04-.06.06-.08.11-.14.03-.04.19-.24h.01s.1-.14.1-.14l.1-.13c.13-.17.27-.33.4-.5,14.92-4.78,31.46-4.87,47.35.82h0Zm-46.52,53.83c.2.08.39.17.59.25l-.59-.25h0Zm7.86,4.29h-.02s.02,0,.02,0h0Z"/>
  <path class="cls-3" d="m125.02,30.44c8.68,3.11,16.43,7.68,23.07,13.34-4.87-3.22-10.2-5.92-15.93-7.97-38.59-13.82-81.01,6.44-94.76,45.25-10.65,30.08-.94,62.46,21.93,81.95-27.89-18.45-40.76-54.28-29.06-87.32,13.74-38.81,56.17-59.07,94.76-45.25h0Z"/>
  <path class="cls-8" d="m141.49,37.63s-3.48-7.18-9.34-12c-5.87-4.82-7.9-3.06-12.47-7.27-4.57-4.21-16.4-4.81-21.27-3.32-4.87,1.5-9.72,1.09-16.49,4.23-6.78,3.14-10.17,10.72-13.76,14.26-3.59,3.53-1.37,6.77-3.67,11.39-2.3,4.62-3.62,6.63-1.18,11.29,2.44,4.67-1.8,2.72,3.16,14.79,4.96,12.07,12.83,7.16,19.24,16.39,6.41,9.23,16.18,2.91,21.37,4.86,5.19,1.96,10.75,2.14,18.24-1.24,7.49-3.37,11.74-14.16,16.44-21.85,4.69-7.69,5.13-4.11,7.47-12.54,2.34-8.43-4.55-17.66-7.73-19h0Z"/>
  <path class="cls-9" d="m116.02,16.18c-.25,2.68-1.22,5.41-4.13,5.03-5.56-.73-8.45-7.88-11.35-2.05-2.9,5.83,5.73,5.18-2.1,9.85-7.82,4.68-12.35,3.26-15.23,6.77-2.88,3.51-7.46,4.31-6.6,8.22.87,3.91,1.98-1.63,4.34,6.45,2.36,8.08-2.18,7.8,2.12,9.22,4.3,1.42,8.84,1.92,6.4,7.04-2.44,5.12-4.36,2.5-4.21,6.94.15,4.44,3.26.84.28,6.57-.72,1.39-1.55,2.85-2.42,4.22-3.43-3.1-7.09-3.57-10.4-5.55-.39-2.54-.76-5.01-1.27-6.87-1.31-4.81-10.03-13.21-5.01-13.66,5.02-.45,9.88-.39,6.94-5.67-2.93-5.29-8.3-1.99-3.35-8.68s7.01-8.82,3.96-9.1c-3.06-.28-6.95-2.56-2.08-4.12,4.87-1.56,4.33-1.27,10.13-3.7,5.8-2.43,8.8-4.25,8.8-4.25,0,0-6.3-2.33-11.2.86-1.67,1.08-4.04,2.36-6.37,3.29,2.26-2.97,4.94-5.98,8.62-7.69,6.78-3.14,11.63-2.74,16.49-4.23,3.86-1.19,12.08-1.05,17.61,1.15h0Zm-26.22,75.01c5.97,3.27,13.11-.52,17.28,1.06,5.19,1.96,10.75,2.14,18.24-1.24,7.49-3.37,11.74-14.16,16.44-21.85,4.69-7.69,5.13-4.11,7.47-12.54.83-2.99.49-6.09-.42-8.9-1.15.03-2.53.36-4.16,1.23-6.37,3.39-7.04,2.47-12.98,5.15-5.94,2.68-12.84,3.92-9.07,5.59s11.83-6.9,13.76-1.7c1.93,5.21-6.38,14.6-8.91,19.72-2.53,5.12-6.61,10.89-5.24,5.31,1.37-5.58,7.11-17.26,1.23-10.71-5.89,6.55-.91,8.12-7.21,9.37-6.3,1.26-2.94,3.62-1.64,4.54,1.3.92-7.99,4.18-9.53.57-1.53-3.62-5.62-1.7-2.23-6.93,3.39-5.23,9.43-3.24,5.45-5.64-3.98-2.39-10.3-4.37-9.58-8.24.72-3.88-7.18,3.49-.87,11.11,6.3,7.61-1.11,3.66-6.18,11.41-.62.95-1.25,1.84-1.84,2.67h0Zm51.03-54.82c-1.27-2.27-4.31-7.16-8.68-10.74-5.75-4.72-7.81-3.13-12.19-7.02-1.93,2.86-5.12,8.33-7.45,7.76-2.72-.66-5.78-1.77-12.37,3.8-6.59,5.57,1.86,1.58,4.6,5.15s1.89,4.52,3.89,1.57c2-2.95,4.89,1.89,8.12-2.48,3.23-4.37,6.56-8.05,7.77-9.74,1.21-1.69,4.69.06,4.69.06,0,0,2.03,4.23-2.13,6.37-4.15,2.14.02,1.7-.96,5.61-.98,3.91.62,4,7.07.47,2.42-1.32,5.13-1.34,7.63-.82h0Z"/>
  <path class="cls-2" d="m77.33,58.17s4.07-.1,9.29.2c1.12,1.78,2.64,5.06,3.72,5.31,1.45.33,5.32-3.32,8.04-2.89,2.72.43,6.63,1.44,8.33,1.86,1.7.42,5.58,1.74,10.17,2.99,1.36.37,2.55.56,3.55.64,5.23,1.71,9.18,3.06,9.18,3.06l-1.97,3.75s-14.04-4.49-25.27-7.01c-11.22-2.52-25.09-2.21-25.09-2.21l.06-5.71h0Z"/>
  <path class="cls-1" d="m76.34,53.4s2.95-.98,7.94-2.19c.59.42,1.38.7,2.34.75,3.56.18,4.59-1.53,7.23-1.66,2.64-.13,5.34.82,7.31-.52,1.98-1.34,2.75-.39,8.63-1.14,2.34-.3,3.84-.95,4.79-1.63,10.33-.19,18.67.81,18.67.81l-.2,3.52s-19.32-2.48-30.96-.05c-11.63,2.43-24.25,5.2-24.25,5.2l-1.51-3.09h0Zm4.24-15.2c2.11-1.61,8.97-2.86,17.97-7.26,8.99-4.41,14.84-8.14,14.84-8.14l.69,3.22s-13.61,6.73-19.01,9.22c-5.4,2.49-6.41-.11-9.56,3.28-3.15,3.39-2.25,3.5-3.48,3.5s-1.44-3.81-1.44-3.81h0Z"/>
  <path class="cls-1" d="m98.22,66.38c11.94,7.09,18.2,16.05,18.2,16.05l-3.89,2.7s-9.81-12.62-20.28-17.12c-10.46-4.51-21.37-6.74-21.37-6.74l.15-1.75c.42,1.08.9,1.98.9,1.98,0,0,1.75-1.6,3.23-1.87,1.48-.27,5.5.97,6.61.84,1.11-.13,4.87,1.54,7.22,2.79,1.18.63,5.36,1.96,9.25,3.12h0Z"/>
  <path class="cls-11" d="m107.32,33.41s.14,3.26-6.9,7.47c-7.03,4.21-11.51,3.54-11.51,3.54l-.02,2.4s5.56.3,11.28-3.31c5.72-3.61,10.44-9.26,10.44-9.26l-3.29-.83h0Z"/>
  <path class="cls-11" d="m137.24,38.08s-2.5,2.29-5.09,3.38c-2.6,1.09-1.62-.39-5.93-1.23-4.31-.84-13.69-.77-13.69-.77,0,0,.2,3.14.42,2.98.23-.17,9.41-1.02,13.01.54,3.59,1.55,6.57,2.41,9.32.27,2.75-2.14,4.16-3.98,4.16-3.98l-2.2-1.17h0Z"/>
  <path class="cls-10" d="m119.62,71.31c-.35.56,3.21,3.35.63,6.06-2.58,2.71-6.38,2.45-5.4.14.99-2.31,3.59-7.69,4.77-6.2h0Zm-43.84-29.97c1.86,1.78,7.11,5.44,2.99,9.47-4.12,4.03-6.1,2.52-6.58,5.75-.48,3.23-4.28-4.17-.92-5.71,3.36-1.54,6.29-4.99,4.48-5.85-1.81-.87-3.21-4.44.03-3.66h0Zm23.32-16.3c-3.19,1.23-4.87,4.79-8.91,4.95-4.04.16-7.38-.38-5.89-2.47,1.49-2.09,3.36-.59,6.38-1.75,3.02-1.16,9.56-5.01,8.42-.74h0Zm27.72,29.34s-4.46,2.76-6.49,1.19c-2.03-1.57-3.36-.55-7.34-.46-3.98.09,1.74-4.06,4.79-2.61,3.06,1.45,8.58,1.6,9.04,1.88h0Z"/>
  <path class="cls-8" d="m16.98,125.06s1.75,7.79,6.36,13.83c4.61,6.05,6.99,4.8,10.48,9.95,3.49,5.15,14.87,8.47,19.95,8.13,5.08-.33,9.7,1.18,17.02-.32,7.31-1.5,12.34-8.09,16.64-10.71,4.3-2.61,2.88-6.27,6.17-10.24,3.29-3.97,5.03-5.62,3.72-10.72-1.31-5.1,2.37-2.23.29-15.13-2.08-12.9-10.85-9.92-14.99-20.39-4.14-10.46-15.09-6.56-19.69-9.66-4.6-3.1-9.97-4.56-18.04-3-8.06,1.56-14.66,11.07-20.98,17.47-6.32,6.4-5.93,2.82-10.13,10.48-4.19,7.66.4,18.24,3.19,20.28h0Z"/>
  <path class="cls-9" d="m36.89,151.8c.86-2.55,2.42-4.99,5.17-3.94,5.25,2,6.43,9.62,10.58,4.62,4.15-5-4.39-6.36,4.29-9.11,8.68-2.75,12.77-.32,16.37-3.08,3.6-2.76,8.25-2.48,8.29-6.48.05-4-2.29,1.13-2.75-7.28-.46-8.41,3.9-7.09.03-9.46-3.87-2.37-8.17-3.91-4.63-8.33,3.54-4.42,4.82-1.43,5.68-5.78.86-4.36-2.98-1.57,1.22-6.46,1.02-1.19,2.16-2.42,3.31-3.55,2.63,3.81,6.09,5.11,8.86,7.8-.2,2.56-.4,5.05-.33,6.98.18,4.99,6.75,15.17,1.76,14.45-4.99-.72-9.7-1.9-8.05,3.92,1.65,5.82,7.63,3.85,1.28,9.22-6.35,5.37-8.84,6.97-5.93,7.95,2.91.98,6.18,4.09,1.09,4.49-5.09.4-4.5.24-10.71,1.27-6.2,1.03-9.53,2.11-9.53,2.11,0,0,5.6,3.72,11.1,1.75,1.87-.67,4.47-1.36,6.95-1.74-2.87,2.37-6.17,4.69-10.15,5.5-7.31,1.5-11.94-.02-17.02.32-4.02.26-12-1.76-16.88-5.17h0Zm42.62-66.97c-5.07-4.56-12.88-2.52-16.58-5.01-4.6-3.1-9.97-4.56-18.04-3-8.06,1.56-14.66,11.07-20.98,17.47-6.32,6.4-5.93,2.82-10.13,10.48-1.49,2.72-1.87,5.81-1.62,8.76,1.12.24,2.55.23,4.33-.24,6.97-1.83,7.42-.78,13.81-2.02,6.39-1.24,13.39-.86,10.1-3.35-3.29-2.49-13.09,3.99-13.78-1.52s9.54-12.75,13.16-17.14c3.63-4.4,8.92-9.07,6.31-3.96-2.61,5.11-10.86,15.16-3.63,10.14,7.23-5.02,2.74-7.69,9.15-7.46,6.42.23,3.69-2.85,2.63-4.04-1.06-1.19,8.73-2.23,9.4,1.64.67,3.87,5.09,2.95.59,7.26s-9.92.98-6.59,4.23c3.33,3.25,9.03,6.63,7.45,10.23-1.59,3.61,7.78-1.75,3.38-10.61-4.4-8.86,1.91-3.31,8.62-9.68.82-.78,1.63-1.5,2.4-2.18h0Zm-62.17,41.6c.72,2.5,2.57,7.96,6,12.46,4.52,5.92,6.89,4.85,10.26,9.64,2.53-2.33,6.88-6.93,9.02-5.84,2.49,1.27,5.22,3.06,12.91-.84,7.69-3.9-1.45-1.97-3.3-6.08-1.85-4.11-.81-4.84-3.43-2.43-2.62,2.41-4.32-2.97-8.47.54-4.14,3.51-8.22,6.32-9.78,7.69-1.56,1.37-4.55-1.14-4.55-1.14,0,0-1.01-4.58,3.52-5.71,4.53-1.13.37-1.66,2.21-5.24,1.84-3.58.31-4.03-6.78-2.09-2.65.73-5.29.12-7.61-.96h0Z"/>
  <path class="cls-2" d="m80.75,123.92s-3.99-.84-9-2.33c-.68-1.99-1.41-5.53-2.41-6.02-1.33-.65-5.93,2-8.49.96-2.55-1.04-6.13-2.93-7.69-3.73-1.56-.8-5.03-2.98-9.22-5.26-1.24-.68-2.35-1.13-3.3-1.44-4.7-2.87-8.23-5.1-8.23-5.1l2.77-3.2s12.65,7.61,23,12.65c10.35,5.04,23.92,7.93,23.92,7.93l-1.36,5.55h0Z"/>
  <path class="cls-1" d="m84,124.72s-3.1.27-8.23.3c-.48-.54-1.18-1-2.11-1.27-3.42-.99-4.82.43-7.42-.05-2.6-.48-5.01-2.03-7.24-1.17-2.23.85-2.77-.25-8.66-.88-2.35-.25-3.95.04-5.03.48-10.1-2.19-17.99-5.09-17.99-5.09l1-3.38s18.24,6.87,30.12,7.18c11.88.31,24.79.53,24.79.53l.77,3.35h0Zm-7.59,13.82c-2.43,1.08-9.38.71-19.14,2.93-9.76,2.22-16.3,4.5-16.3,4.5l.07-3.29s14.79-3.41,20.6-4.59c5.82-1.18,6.21,1.59,10.05-.99,3.84-2.58,2.99-2.89,4.19-2.61,1.2.29.53,4.05.53,4.05h0Z"/>
  <path class="cls-1" d="m65.66,107.04c-10-9.65-14.05-19.82-14.05-19.82l4.4-1.73s6.68,14.54,15.83,21.34c9.16,6.8,19.27,11.49,19.27,11.49l-.54,1.67c-.17-1.15-.42-2.14-.42-2.14,0,0-2.06,1.16-3.57,1.08-1.5-.08-5.13-2.21-6.24-2.34-1.11-.13-4.39-2.62-6.39-4.38-1-.88-4.78-3.14-8.29-5.17h0Z"/>
  <path class="cls-11" d="m49.29,137.04s.61-3.2,8.42-5.68c7.81-2.48,12.01-.79,12.01-.79l.57-2.33s-5.34-1.58-11.74.62c-6.4,2.2-12.27,6.61-12.27,6.61l3.01,1.57h0Z"/>
  <path class="cls-11" d="m21.22,125.59s2.95-1.65,5.73-2.11c2.78-.46,1.48.75,5.49,2.57,4,1.82,13.15,3.91,13.15,3.91,0,0,.53-3.11.27-2.99-.26.11-9.39-1.18-12.54-3.52-3.14-2.34-5.84-3.86-9.01-2.41-3.17,1.45-4.96,2.92-4.96,2.92l1.88,1.64h0Z"/>
  <path class="cls-10" d="m45.95,97.31c.46-.46-2.36-4,.77-6.04,3.13-2.04,6.77-.91,5.29,1.11-1.49,2.02-5.25,6.66-6.05,4.94h0Zm35.84,39.28c-1.4-2.16-5.68-6.93-.75-9.9,4.93-2.97,6.51-1.05,7.72-4.08,1.2-3.03,3.21,5.05-.41,5.77-3.62.72-4.79,2.72-3.22,3.99,1.57,1.26-.36,5.74-3.34,4.23h0Zm-26.42,10.49c3.39-.46,5.83-3.54,9.8-2.77,3.96.78,7.1,2.07,5.17,3.76-1.93,1.69-3.02,3.32-6.23,3.75-3.2.43-10.83-.85-8.74-4.75h0Zm-40.75-31.78s4.97-1.66,6.59.34c1.62,2,3.15,1.31,7.04,2.14,3.89.83-2.62,3.55-5.26,1.44-2.64-2.11-7.99-3.53-8.37-3.91h0Z"/>
  <path class="cls-2" d="m36.09,135.93c1.01-1.13,7.57-5.21,16.1-4.19,8.52,1.02,20.33,1.14,20.33,1.14,0,0,2.92,1.92-.56,2.26-3.48.34-23.77-.98-23.77-.98,0,0-3.32-1.62-5.12.3-1.8,1.92-4.27,5.88-4.27,5.88l-2.7-4.41h0Z"/>
  <path class="cls-7" d="m159.59,92.74s-.5-.17-1.36-.4l-.09-.03h-.03s-.12-.04-.12-.04h-.02s-.11-.03-.11-.03l-.06-.02-.07-.02-.11-.03h-.02s-.14-.04-.14-.04h-.02s-.12-.04-.12-.04l-.08-.02-.07-.02-.13-.03h-.02s-.16-.04-.16-.04h-.03s-.13-.04-.13-.04l-.09-.02-.08-.02-.15-.03h-.02s-.17-.04-.17-.04h-.04s-.14-.04-.14-.04l-.1-.02-.08-.02-.17-.03h-.01s-.19-.04-.19-.04h-.05s-.14-.04-.14-.04l-.12-.02h-.07s-.19-.05-.19-.05h0s-.2-.04-.2-.04h-.06s-.14-.04-.14-.04l-.13-.02h-.07s-.21-.05-.21-.05h0l-.21-.03h-.07s-.14-.03-.14-.03l-.15-.02-.29-.04h0s-.21-.03-.21-.03h-.08s-.14-.03-.14-.03l-.16-.02h-.06s-.23-.04-.23-.04h-.01s-.21-.03-.21-.03h-.09s-.14-.03-.14-.03l-.18-.02h-.06s-.24-.03-.24-.03h-.02s-.21-.02-.21-.02h-.11s-.13-.02-.13-.02l-.19-.02h-.05s-.24-.02-.24-.02h-.03s-.03,0-.03,0c-.2-.02-.41-.03-.62-.04h-.02s-.04,0-.04,0h-.25s-.04-.02-.04-.02h-.06s-.26-.01-.26-.01h-.02s-.12,0-.12,0h-.22s-.03,0-.03,0h-.25s-.05,0-.05,0h-.2s-.14,0-.14,0h-.12s-.23,0-.23,0h-.28s-.06,0-.06,0h-.02s-.31,0-.31,0h-.03s-.34.01-.34.01h-.02s-.32.01-.32.01h-.04s-.3.02-.3.02h-.05s-.33.02-.33.02h0s-.32.03-.32.03h-.07s-.26.03-.26.03h-.08s-.32.04-.32.04l-.34.04h0s-.32.04-.32.04h-.01s-.31.04-.31.04h-.02s-.29.05-.29.05h-.03s-.28.05-.28.05h-.03s-.26.05-.26.05h-.04s-.25.05-.25.05h-.04s-.08.03-.08.03c-.16.03-.32.07-.47.1l-.21.05h-.05s-.2.06-.2.06h-.06s-.19.06-.19.06l-.06.02-.18.05-.06.02-.06.02-.18.05-.16.05-.07.02-.07.02-.14.04h-.04s-.16.07-.16.07l-.05.02-.18.06h0c-.41.14-.8.3-1.16.45h0s-.09.04-.09.04l-.09.04-.35.15-.07.03-.1.05-.34.16-.06.03-.11.05-.06.03-.27.13-.05.02c-.2.09-.4.19-.61.28l-.03.02c-1.39.63-2.85,1.16-5.21,1.33h0c-.12,0-.25.02-.38.02-1.29.07-2.68.47-4.1,1.11l-.23.1h-.03s-.25.13-.25.13l-.2.1-.08.04-.21.11-.04.02-.23.12-.04.02-.22.12-.26.14-.21.12-.06.04-.21.12-.07.04c-.33.2-.65.4-.97.61h-.02s-.24.17-.24.17h-.02s-.24.18-.24.18l-.25.18-.21.15-.05.04-.18.13-.1.07-.18.13-.08.06-.19.14-.25.19-.2.16-.06.05-.19.15-.06.05-.21.17-.03.02-.22.18-.24.2-.18.15-.09.07-.18.16-.05.05c-.15.13-.29.26-.43.38l-.23.21-.04.04-.18.17h-.01s-.2.2-.2.2l-.03.03-.19.18h0s-.21.21-.21.21h0s-.21.22-.21.22l-.05.05-.16.16-.02.02-.15.15-.04.04-.15.16-.05.05-.2.21h0s-.19.21-.19.21l-.14.16-.05.05-.1.11-.04.04-.19.21h0s-.04.05-.04.05l-.18.21h-.01s-.17.21-.17.21l-.06.07-.03.04-.16.19-.03.04-.07.08-.14.17-.19.23-.02.02-.17.22-.09.11-.04.05-.1.13-.02.03-.16.22v.02s-.15.19-.15.19l-.02.03-.02.03-.13.19-.02.04-.15.22h0s-.15.24-.15.24h0c-.14.23-.27.45-.39.67h0s-.11.22-.11.22h0l-.11.21h0l-.11.21h0l-.11.21-.12.21h0l-.12.21h0l-.12.2h0l-.12.2-.12.2h0l-.12.2-.13.2h0l-.13.2h0l-.13.2h0l-.13.2-.13.2h0l-.13.2h0l-.27.39h0l-.13.2-.14.2-.14.2h0l-.14.2h0s-.14.2-.14.2l-.14.2-.14.2h0l-.14.2h0l-.14.2-.14.2-.14.2-.14.21h0l-.14.21-.14.21h0s-.14.21-.14.21h0l-.14.21h0l-.14.21-.14.22-.14.22h0s-.14.22-.14.22l-.14.22h0s-.14.23-.14.23h0s-.14.23-.14.23l-.14.23h0s-.14.23-.14.23h0s-.14.24-.14.24l-.14.24-.14.24-.14.25h0l-.14.25-.14.25h0s-.14.26-.14.26h0s-.14.26-.14.26h0s-.14.27-.14.27h0s-.13.27-.13.27h0s-.13.27-.13.27l-.13.28h0s-.13.28-.13.28h0s-.13.29-.13.29h0s-.13.29-.13.29h0s-.13.3-.13.3h0s-.13.3-.13.3h0s-.12.31-.12.31h0s-.12.31-.12.31h0s-.12.32-.12.32h0s-.12.32-.12.32h0s-.12.33-.12.33h0s0,.02,0,.02c-.07.21-.14.41-.2.62v.04c-.04.1-.07.2-.1.3v.04s-.09.3-.09.3v.02c-.09.33-.17.66-.23.99h0s0,.02,0,.02l-.06.31h0s-.05.34-.05.34v.02s-.05.32-.05.32v.02c-.03.22-.06.43-.08.65v.02s0,.02,0,.02l-.03.31h0c-.02.23-.03.44-.04.65v.05s-.01.23-.01.23v.08s0,.02,0,.02v.26s-.01.05-.01.05h0s0,.31,0,.31v.36s0,0,0,0v.33s0,.03,0,.03v.3s0,.06,0,.06c0,.18.01.36.02.55v.06s.02.3.02.3v.03s.02.33.02.33h0s.02.33.02.33h0s0,.03,0,.03l.02.27v.04s0,.05,0,.05l.02.18v.1s.02.08.02.08l.02.18v.07s.02.11.02.11c.03.27.06.55.1.82v.05s0,.02,0,.02l.02.18.02.13v.05s.03.17.03.17v.1s.02.07.02.07l.02.17c.44,3.11,1.07,5.98,1.07,8.28,0,5.05,3.85,5.72,5.52,10.6,1.67,4.88,2.18,7.24,7.2,8.75,5.02,1.51.67,3.2,12.72,8.08,4.33,1.75,7.36,1.7,9.98,1.01h0s.04-.01.04-.01l.3-.08h0c.11-.03.22-.07.33-.1h0s.32-.1.32-.1h0s.01,0,.01,0c.11-.03.21-.07.31-.11h.02s.29-.11.29-.11h.01s.03-.02.03-.02l.16-.06.13-.05h.03s.28-.12.28-.12h.01s.04-.02.04-.02c.31-.12.61-.25.91-.38l.06-.03.16-.07.1-.04.07-.03.16-.07.41-.18.08-.03.16-.07.08-.03c1.55-.67,3.15-1.32,5.03-1.65h0c.36-.07.74-.12,1.13-.16h.13s.17-.03.17-.03l.21-.02c1.18-.08,2.46-.02,3.9.22,2.16.36,3.99.21,5.57-.27h0c.5-.16.98-.35,1.44-.57h0c2.91-1.41,4.9-3.99,6.7-6.36l.06-.08.15-.2.02-.02.4-.52.1-.13.1-.13c.14-.18.28-.35.41-.52l.15-.18.06-.07.03-.03c.13-.16.25-.31.38-.46h0s.03-.04.03-.04c.13-.15.25-.29.38-.43l.02-.03.17-.19.03-.04.17-.17.04-.04.19-.18h0s.19-.19.19-.19l.06-.06.14-.12.06-.05.16-.13.05-.04c.07-.05.14-.1.2-.15h0c.06-.05.13-.09.19-.14l.09-.06.13-.08.06-.04.17-.1.05-.03c.07-.04.15-.07.22-.11l.23-.11.23-.11.23-.12h0s.23-.12.23-.12l.23-.12.23-.12h0l.23-.13.22-.13.22-.13h0s.22-.13.22-.13l.22-.14.22-.14h0s.22-.14.22-.14h0l.21-.15h0l.21-.15h0l.21-.15h0s.21-.15.21-.15h0s.21-.16.21-.16h0s.21-.16.21-.16h0s.21-.16.21-.16h0s.2-.17.2-.17h0s.2-.17.2-.17h0l.2-.17h0s.2-.18.2-.18h0s.2-.18.2-.18h0s.2-.18.2-.18h0s.19-.19.19-.19h0s.19-.19.19-.19h0s.19-.2.19-.2h0s.19-.2.19-.2h0s.19-.2.19-.2h0s.19-.21.19-.21h0s.18-.21.18-.21h0s.18-.22.18-.22h0s.18-.22.18-.22h0s.18-.22.18-.22h0s.18-.23.18-.23h0s.18-.23.18-.23h0s.18-.24.18-.24h0s.17-.24.17-.24h0s.17-.24.17-.24h0s.17-.25.17-.25h0s.17-.25.17-.25h0s.17-.26.17-.26h0s.17-.26.17-.26h0s.16-.27.16-.27h0s.16-.27.16-.27h0s.16-.28.16-.28h0s.16-.28.16-.28h0s.16-.29.16-.29h0s.16-.29.16-.29h0s.15-.3.15-.3h0s.15-.3.15-.3h0s.15-.31.15-.31h0s.15-.31.15-.31h0s.15-.32.15-.32h0s.15-.32.15-.32h0s.14-.33.14-.33h0s.14-.33.14-.33h0s.14-.34.14-.34h0s.14-.34.14-.34h0s.14-.35.14-.35h0s.14-.35.14-.35h0s.13-.36.13-.36h0c.04-.12.09-.24.13-.36h0c.04-.12.08-.25.12-.37h0c.04-.12.07-.25.11-.37h0c.03-.12.07-.25.1-.38h0c.03-.13.06-.25.09-.38h0c.03-.13.05-.26.08-.38h0c.02-.13.05-.26.07-.39h0c.02-.13.04-.26.06-.39h0c.02-.13.03-.26.05-.39h0c.01-.13.03-.27.04-.4h0c.01-.13.02-.27.03-.4h0c0-.13.02-.27.02-.4h0c0-.14.01-.27.01-.41h0c0-.14,0-.27,0-.41h0s0-.41,0-.41h0s-.01-.41-.01-.41h0c0-.14-.01-.28-.02-.42h0c0-.14-.02-.28-.02-.42h0c0-.14-.02-.28-.03-.42h0s-.04-.42-.04-.42h0s-.04-.43-.04-.43h0s-.05-.43-.05-.43h0s-.06-.43-.06-.43h0s-.06-.43-.06-.43h0s-.07-.43-.07-.43h0s-.07-.43-.07-.43h0s-.08-.44-.08-.44h0s-.08-.44-.08-.44h0s-.09-.44-.09-.44h0s-.09-.44-.09-.44h0s-.1-.44-.1-.44h0s-.1-.44-.1-.44h0s-.1-.44-.1-.44h0s-.11-.44-.11-.44h0s-.11-.44-.11-.44h0s-.11-.44-.11-.44h0s-.12-.44-.12-.44h0s-.12-.44-.12-.44l-.12-.44-.12-.44h0s-.12-.44-.12-.44h0s-.13-.44-.13-.44h0s-.13-.44-.13-.44h0s-.13-.44-.13-.44h0s-.13-.44-.13-.44h0s-.13-.44-.13-.44h0s-.13-.44-.13-.44h0s-.13-.44-.13-.44h0s-.13-.44-.13-.44l-.13-.44h0s-.13-.44-.13-.44l-.13-.44-.13-.43-.13-.43-.13-.43-.12-.43-.12-.43h0s-.12-.43-.12-.43h0s-.12-.42-.12-.42h0s-.12-.42-.12-.42l-.11-.42-.11-.42h0s-.11-.41-.11-.41l-.1-.41-.1-.4-.09-.39-.08-.37-.08-.36-.07-.34-.07-.33h0l-.06-.32-.05-.3-.05-.29h0l-.04-.28-.04-.27h0l-.04-.26-.03-.25-.03-.24h0l-.02-.23-.02-.22h0l-.02-.21h0l-.02-.2h0v-.19s-.03-.19-.03-.19h0v-.18s-.02-.18-.02-.18v-.17h0v-.16h0v-.16s-.01-.16-.01-.16h0v-.15s-.01-.15-.01-.15v-.15s-.01-.14-.01-.14h0v-.14s-.02-.14-.02-.14v-.14s-.02-.14-.02-.14v-.14s-.03-.14-.03-.14h0l-.02-.14-.02-.14-.03-.14-.03-.15-.03-.15-.04-.15h0s-.04-.16-.04-.16l-.05-.16-.05-.17-.06-.17-.06-.18h0l-.07-.18h0s-.07-.19-.07-.19l-.08-.2-.09-.2h0s-.09-.21-.09-.21h0s-.1-.22-.1-.22h0l-.11-.23h0s-.12-.24-.12-.24h0s-.12-.25-.12-.25l-.13-.26-.14-.27-.15-.28h0s-.16-.3-.16-.3l-.17-.31h0s-.18-.32-.18-.32h0s-.19-.33-.19-.33h0s-.2-.35-.2-.35h0s0-.02,0-.02c-.06-.11-.13-.22-.19-.32h0s-.01-.03-.01-.03c-.06-.1-.12-.19-.19-.29l-.04-.05c-.06-.09-.13-.18-.19-.28l-.05-.07c-.06-.09-.13-.18-.2-.27l-.04-.06c-.07-.09-.14-.18-.21-.27h0s0-.02,0-.02c-.08-.09-.15-.19-.23-.28l-.02-.02h-.01s0-.01,0-.01c-.08-.09-.15-.18-.23-.26l-.04-.04c-.07-.08-.15-.16-.23-.24l-.05-.06c-.08-.08-.16-.16-.24-.24l-.05-.05c-.08-.08-.16-.15-.24-.23h-.02s-.03-.04-.03-.04c-.08-.07-.16-.15-.24-.22l-.03-.03h0s-.02-.02-.02-.02l-.22-.19-.1-.08-.23-.19-.06-.05-.23-.18-.09-.07-.22-.16-.15-.11-.11-.08-.03-.02-.16-.11-.16-.11-.11-.08-.12-.08-.12-.07-.23-.14h0s-.12-.08-.12-.08l-.12-.07-.12-.07h-.02s-.22-.14-.22-.14l-.12-.07c-4.95-2.72-10.88-3.12-13.03-2.21h0Zm-17.37-1.33c-.16.03-.32.06-.47.1l.47-.1h0Z"/>
  <path class="cls-8" d="m155.35,90.22s-7.53-2.52-15.06-1.68c-7.53.84-7.7,3.53-13.89,3.87-6.19.34-14.9,8.42-17.24,12.96-2.34,4.54-6.02,7.74-8.54,14.81-2.51,7.07.5,14.81.5,19.86s3.85,5.72,5.52,10.6,2.18,7.24,7.2,8.75c5.02,1.51.67,3.2,12.72,8.08,12.05,4.88,14.06-4.21,25.1-2.36,11.05,1.85,13.39-9.59,18.41-11.95,5.02-2.36,9.04-6.23,11.88-13.97,2.85-7.74-1.84-18.35-4.02-27.1-2.18-8.75.67-6.56-3.68-14.14-4.35-7.57-15.73-9.09-18.91-7.74h0Z"/>
  <path class="cls-9" d="m122.3,93.52c1.73,2.06,3,4.66.68,6.49-4.41,3.48-11.51.55-9.4,6.72,2.11,6.16,7.68-.49,5.53,8.4s-6.33,11.15-5.85,15.68c.48,4.52-2.16,8.38,1.22,10.49,3.38,2.11.23-2.56,7.62,1.4,7.39,3.95,4.02,7.02,8.03,4.92,4.02-2.1,7.55-5.01,9.48.32,1.93,5.33-1.28,4.88,1.98,7.88,3.26,3,2.87-1.76,4.86,4.4.48,1.49.94,3.11,1.3,4.69-4.6.3-7.5,2.59-11.22,3.58-2.08-1.49-4.09-2.96-5.77-3.9-4.34-2.42-16.4-2.04-13.21-5.96,3.19-3.92,6.64-7.37.83-8.96-5.81-1.59-7.23,4.57-8.51-3.67-1.29-8.24-1.36-11.21-3.7-9.21-2.34,2-6.68,3.2-4.38-1.39,2.29-4.59,2.12-4,4.46-9.87,2.34-5.87,3.14-9.29,3.14-9.29,0,0-6.06,2.9-7.23,8.64-.4,1.95-1.16,4.55-2.12,6.88-.53-3.7-.79-7.74.57-11.58,2.51-7.07,6.19-10.27,8.54-14.81,1.86-3.6,7.71-9.42,13.13-11.85h0Zm34.94,71.32c6.5-2,8.81-9.78,12.85-11.68,5.02-2.36,9.04-6.23,11.88-13.97,2.84-7.74-1.84-18.35-4.02-27.1-2.18-8.75.67-6.56-3.68-14.14-1.55-2.69-3.98-4.62-6.62-5.92-.79.84-1.51,2.07-2.04,3.85-2.05,6.95-3.17,6.78-5.42,12.93-2.25,6.14-6.2,11.97-2.38,10.43,3.82-1.54,3.37-13.33,8.42-11.07,5.05,2.26,5.91,14.8,7.78,20.2,1.87,5.4,3.11,12.37.11,7.48-3-4.89-7.28-17.19-6.75-8.37.53,8.82,5.13,6.33,1.61,11.74-3.52,5.4.51,4.65,2.08,4.35,1.56-.29-2.62,8.67-6.26,7.24-3.64-1.43-5.14,2.85-6.48-3.25-1.34-6.1,4.3-9.04-.19-7.86-4.49,1.18-10.31,4.35-12.56,1.11-2.25-3.23-2.54,7.6,7.28,8.4,9.82.8,1.83,3.36,3.78,12.43.24,1.12.43,2.18.61,3.19h0Zm-3.24-75.02c-2.5-.68-8.1-1.91-13.7-1.28-7.38.82-7.69,3.42-13.51,3.85.67,3.39,2.34,9.51.3,10.78-2.37,1.49-5.3,2.91-5.96,11.54-.66,8.64,2.43-.23,6.88.3,4.45.54,4.53,1.81,3.84-1.7-.69-3.5,4.76-2.19,3.92-7.57-.84-5.38-1.13-10.34-1.48-12.4-.36-2.05,3.33-3.33,3.33-3.33,0,0,4.42,1.5,3.04,5.98-1.38,4.48,1.22,1.17,3.31,4.61,2.09,3.44,3.27,2.35,5.28-4.75.75-2.66,2.64-4.62,4.76-6.05h0Z"/>
  <path class="cls-2" d="m125.05,150.7s2.78-3,6.64-6.54c2.04.44,5.44,1.64,6.37,1.04,1.25-.81,1.37-6.14,3.58-7.8,2.21-1.66,5.67-3.76,7.15-4.69,1.49-.93,5.14-2.79,9.24-5.21,1.22-.72,2.18-1.44,2.94-2.1,4.87-2.56,8.6-4.45,8.6-4.45l1.29,4.04s-13.02,6.95-22.66,13.25-19.12,16.48-19.12,16.48l-4.02-4.04h0Z"/>
  <path class="cls-1" d="m114.2,139.06s2.33-2.07,6.43-5.17c.7.15,1.54.1,2.45-.24,3.34-1.25,3.62-3.23,5.99-4.4,2.37-1.17,5.22-1.37,6.51-3.39,1.29-2.02,2.37-1.45,7.47-4.48,2.03-1.21,3.15-2.4,3.75-3.4,9.41-4.29,17.46-6.7,17.46-6.7l1.2,3.31s-18.72,5.41-28.44,12.28c-9.72,6.87-20.22,14.43-20.22,14.43l-2.61-2.23h0Z"/>
  <path class="cls-1" d="m149.04,129.75c13.39-3.62,24.14-1.84,24.14-1.84l-.8,4.69s-15.83-1.78-26.35,2.59c-10.53,4.36-19.74,10.64-19.74,10.64l-1.14-1.33c1.07.45,2.03.74,2.03.74,0,0,.08-2.37.93-3.63.84-1.25,4.54-3.27,5.22-4.16.68-.89,4.5-2.42,7.03-3.23,1.27-.4,5.14-2.49,8.69-4.46h0Z"/>
  <path class="cls-11" d="m117.89,106.09s2.41,2.18.48,10.18c-1.93,8-5.54,10.75-5.54,10.75l1.69,1.7s4.11-3.78,5.54-10.42c1.44-6.64.72-13.98.72-13.98l-2.89,1.78h0Z"/>
  <path class="cls-11" d="m139.22,108.31s-.12,3.39-1.16,6.02c-1.04,2.63-1.41.89-5.02,3.39-3.62,2.5-10.12,9.29-10.12,9.29,0,0,2.37,2.06,2.41,1.78.04-.28,5.87-7.47,9.48-8.97,3.62-1.5,6.31-3.03,6.71-6.51.4-3.47.08-5.78.08-5.78l-2.37.77h0Z"/>
  <path class="cls-10" d="m162.55,134.05c.08.57,4.18-.4,3.94,2.99-.24,3.39-3.05,5.98-3.7,3.96-.64-2.02-1.93-6.95-.24-6.95h0Zm-47.97,14.46c2.33-.32,8.12-2.02,7.55,3.23-.56,5.25-2.81,5.82-1.29,8,1.53,2.18-5.4.7-3.94-2.59,1.47-3.29,1.53-7.35-.24-6.55-1.77.81-4.81-.22-2.09-2.1h0Zm6.91-26.02c-1.53,2.99-.64,6.22-3.38,9.21-2.73,2.99-5.38,5.09-5.54,2.83-.16-2.26,2.01-2.75,3.46-5.58,1.45-2.83,3.8-9.72,5.46-6.46h0Zm36.32-3.24s-1.53,4.78-3.86,5.34c-2.33.57-4.18-.81-6.91,2.1-2.73,2.91-1.13-3.56,1.85-4.93,2.97-1.37,8.43-2.34,8.92-2.51h0Z"/>
</svg>