<?xml version="1.0" encoding="utf-8"?>
<!-- Generator: Adobe Illustrator 27.9.0, SVG Export Plug-In . SVG Version: 6.00 Build 0)  -->
<svg version="1.1" id="Layer_1" xmlns="http://www.w3.org/2000/svg" xmlns:xlink="http://www.w3.org/1999/xlink" x="0px" y="0px"
	 viewBox="0 0 205.12 206.28" style="enable-background:new 0 0 205.12 206.28;" xml:space="preserve">
<style type="text/css">
	.st0{fill-rule:evenodd;clip-rule:evenodd;fill:#F4F5F7;}
	.st1{fill-rule:evenodd;clip-rule:evenodd;fill:#E3E4E9;}
	.st2{fill-rule:evenodd;clip-rule:evenodd;fill:#FF6224;}
	.st3{fill-rule:evenodd;clip-rule:evenodd;fill:#ED4605;}
	.st4{fill-rule:evenodd;clip-rule:evenodd;fill:#A60603;}
	.st5{fill-rule:evenodd;clip-rule:evenodd;fill:#865334;}
	.st6{fill:#BD8F4F;}
	.st7{fill:#CEA265;}
	.st8{fill-rule:evenodd;clip-rule:evenodd;fill:#A66A44;}
	.st9{fill-rule:evenodd;clip-rule:evenodd;fill:#542E17;}
	.st10{fill-rule:evenodd;clip-rule:evenodd;fill:#663B20;}
	.st11{fill:#519A48;}
	.st12{fill-rule:evenodd;clip-rule:evenodd;fill:#F5DEB6;}
	.st13{fill:#FFF3DA;}
	.st14{fill:#FA692F;}
	.st15{fill:#EFD05C;}
	.st16{fill-rule:evenodd;clip-rule:evenodd;fill:#2E2D33;}
	.st17{fill-rule:evenodd;clip-rule:evenodd;fill:#4D4C52;}
	.st18{fill-rule:evenodd;clip-rule:evenodd;fill:#828287;}
	.st19{fill-rule:evenodd;clip-rule:evenodd;fill:#D23508;}
	.st20{fill-rule:evenodd;clip-rule:evenodd;fill:#BA2D06;}
	.st21{fill-rule:evenodd;clip-rule:evenodd;fill:#B52E1A;}
	.st22{fill-rule:evenodd;clip-rule:evenodd;fill:#E69B4C;}
	.st23{fill-rule:evenodd;clip-rule:evenodd;fill:#EB7538;}
	.st24{fill-rule:evenodd;clip-rule:evenodd;fill:#DB662C;}
	.st25{fill-rule:evenodd;clip-rule:evenodd;fill:#66666B;}
	.st26{fill-rule:evenodd;clip-rule:evenodd;fill:#DB5128;}
	.st27{fill-rule:evenodd;clip-rule:evenodd;fill:#F7B268;}
	.st28{fill-rule:evenodd;clip-rule:evenodd;fill:#CC3D26;}
	.st29{fill-rule:evenodd;clip-rule:evenodd;fill:#D9B685;}
	.st30{fill-rule:evenodd;clip-rule:evenodd;fill:#FFECD1;}
	.st31{fill-rule:evenodd;clip-rule:evenodd;fill:#358541;}
	.st32{fill-rule:evenodd;clip-rule:evenodd;fill:#26632F;}
	.st33{fill-rule:evenodd;clip-rule:evenodd;fill:#FFCCB5;}
	.st34{fill-rule:evenodd;clip-rule:evenodd;fill:#F2B922;}
	.st35{fill-rule:evenodd;clip-rule:evenodd;fill:#F3CD2E;}
	.st36{fill-rule:evenodd;clip-rule:evenodd;fill:#FAF19B;}
	.st37{fill-rule:evenodd;clip-rule:evenodd;fill:#F3FFD9;}
	.st38{fill-rule:evenodd;clip-rule:evenodd;fill:#D1E3AA;}
	.st39{fill-rule:evenodd;clip-rule:evenodd;fill:#85522E;}
	.st40{fill-rule:evenodd;clip-rule:evenodd;fill:#C77B45;}
	.st41{fill-rule:evenodd;clip-rule:evenodd;fill:#A36539;}
	.st42{fill-rule:evenodd;clip-rule:evenodd;}
	.st43{fill-rule:evenodd;clip-rule:evenodd;fill:#C7C7C9;}
	.st44{fill-rule:evenodd;clip-rule:evenodd;fill:#99441D;}
	.st45{fill-rule:evenodd;clip-rule:evenodd;fill:#6B2605;}
	.st46{fill-rule:evenodd;clip-rule:evenodd;fill:#AD5025;}
	.st47{fill-rule:evenodd;clip-rule:evenodd;fill:#C75925;}
	.st48{fill-rule:evenodd;clip-rule:evenodd;fill:#B5582D;}
	.st49{fill-rule:evenodd;clip-rule:evenodd;fill:#519A48;}
	.st50{fill-rule:evenodd;clip-rule:evenodd;fill:#FBD5B0;}
	.st51{fill:#E8BC90;}
	.st52{fill-rule:evenodd;clip-rule:evenodd;fill:#7A3312;}
	.st53{fill-rule:evenodd;clip-rule:evenodd;fill:#FA7D44;}
	.st54{fill-rule:evenodd;clip-rule:evenodd;fill:#FCE38F;}
	.st55{fill-rule:evenodd;clip-rule:evenodd;fill:#464AA6;}
	.st56{fill-rule:evenodd;clip-rule:evenodd;fill:#00C36C;}
	.st57{fill-rule:evenodd;clip-rule:evenodd;fill:#006B43;}
	.st58{fill-rule:evenodd;clip-rule:evenodd;fill:#C5C6C9;}
	.st59{fill-rule:evenodd;clip-rule:evenodd;fill:#FFC250;}
	.st60{fill-rule:evenodd;clip-rule:evenodd;fill:#FFD177;}
	.st61{fill:#FFE7B8;}
	.st62{fill-rule:evenodd;clip-rule:evenodd;fill:#3A3940;}
	.st63{fill-rule:evenodd;clip-rule:evenodd;fill:#F7C35B;}
	.st64{fill-rule:evenodd;clip-rule:evenodd;fill:#BF9A76;}
	.st65{fill-rule:evenodd;clip-rule:evenodd;fill:#452508;}
	.st66{fill-rule:evenodd;clip-rule:evenodd;fill:#BF8B24;}
	.st67{fill-rule:evenodd;clip-rule:evenodd;fill:#C44918;}
	.st68{fill-rule:evenodd;clip-rule:evenodd;fill:#E6AC37;}
	.st69{fill-rule:evenodd;clip-rule:evenodd;fill:#522C0B;}
	.st70{fill-rule:evenodd;clip-rule:evenodd;fill:#E6551C;}
	.st71{fill-rule:evenodd;clip-rule:evenodd;fill:#EDD4A1;}
	.st72{fill-rule:evenodd;clip-rule:evenodd;fill:#784212;}
	.st73{fill-rule:evenodd;clip-rule:evenodd;fill:#F77745;}
	.st74{fill-rule:evenodd;clip-rule:evenodd;fill:#66380F;}
	.st75{fill-rule:evenodd;clip-rule:evenodd;fill:#995B25;}
	.st76{fill-rule:evenodd;clip-rule:evenodd;fill:#FF4F0C;}
	.st77{fill-rule:evenodd;clip-rule:evenodd;fill:#FAD58C;}
	.st78{fill-rule:evenodd;clip-rule:evenodd;fill:#FFF3DA;}
	.st79{fill-rule:evenodd;clip-rule:evenodd;fill:#D3D4D6;}
	.st80{fill-rule:evenodd;clip-rule:evenodd;fill:#EEF5FB;}
	.st81{fill-rule:evenodd;clip-rule:evenodd;fill:#DAE3EB;}
	.st82{fill-rule:evenodd;clip-rule:evenodd;fill:#C8CED4;}
	.st83{fill-rule:evenodd;clip-rule:evenodd;fill:#CAD3DB;}
	.st84{fill-rule:evenodd;clip-rule:evenodd;fill:#FDD657;}
	.st85{fill-rule:evenodd;clip-rule:evenodd;fill:#F0C330;}
	.st86{fill-rule:evenodd;clip-rule:evenodd;fill:#315E38;}
	.st87{fill-rule:evenodd;clip-rule:evenodd;fill:#99AE4C;}
	.st88{fill-rule:evenodd;clip-rule:evenodd;fill:#D6E0E8;}
	.st89{fill-rule:evenodd;clip-rule:evenodd;fill:#FFD6C7;}
	.st90{fill-rule:evenodd;clip-rule:evenodd;fill:#BD7E18;}
	.st91{fill-rule:evenodd;clip-rule:evenodd;fill:#D5962F;}
	.st92{fill-rule:evenodd;clip-rule:evenodd;fill:#E6A947;}
	.st93{fill-rule:evenodd;clip-rule:evenodd;fill:#EDB356;}
	.st94{fill-rule:evenodd;clip-rule:evenodd;fill:#DBB97F;}
	.st95{fill-rule:evenodd;clip-rule:evenodd;fill:#EACB97;}
	.st96{fill-rule:evenodd;clip-rule:evenodd;fill:#E3BF81;}
	.st97{fill:#333333;}
	.st98{fill-rule:evenodd;clip-rule:evenodd;fill:#754528;}
	.st99{fill:#242323;}
	.st100{fill-rule:evenodd;clip-rule:evenodd;fill:#E3E4E6;}
	.st101{fill-rule:evenodd;clip-rule:evenodd;fill:#FC8A31;}
	.st102{fill-rule:evenodd;clip-rule:evenodd;fill:#E67017;}
	.st103{fill-rule:evenodd;clip-rule:evenodd;fill:#6BBA61;}
	.st104{fill-rule:evenodd;clip-rule:evenodd;fill:#FCAB6D;}
	.st105{fill-rule:evenodd;clip-rule:evenodd;fill:#FFBE8C;}
	.st106{fill:#006B43;}
	.st107{fill-rule:evenodd;clip-rule:evenodd;fill:#FA692F;}
	.st108{fill-rule:evenodd;clip-rule:evenodd;fill:#9E3E03;}
	.st109{fill-rule:evenodd;clip-rule:evenodd;fill:#C27100;}
	.st110{fill-rule:evenodd;clip-rule:evenodd;fill:#B34602;}
	.st111{fill-rule:evenodd;clip-rule:evenodd;fill:#D68007;}
	.st112{fill-rule:evenodd;clip-rule:evenodd;fill:#FDFEFF;}
	.st113{fill-rule:evenodd;clip-rule:evenodd;fill:#A66805;}
	.st114{fill-rule:evenodd;clip-rule:evenodd;fill:#CC4F00;}
	.st115{fill-rule:evenodd;clip-rule:evenodd;fill:#E68B09;}
	.st116{fill-rule:evenodd;clip-rule:evenodd;fill:#123618;}
	.st117{fill-rule:evenodd;clip-rule:evenodd;fill:#1C4622;}
	.st118{fill:#1C4622;}
	.st119{fill:#315E38;}
	.st120{fill-rule:evenodd;clip-rule:evenodd;fill:#D7D7DB;}
	.st121{fill-rule:evenodd;clip-rule:evenodd;fill:#FFFFFF;}
	.st122{fill-rule:evenodd;clip-rule:evenodd;fill:#C8CAC9;}
	.st123{fill-rule:evenodd;clip-rule:evenodd;fill:#B3B0A9;}
	.st124{fill-rule:evenodd;clip-rule:evenodd;fill:#E8DFE0;}
	.st125{fill-rule:evenodd;clip-rule:evenodd;fill:#AD8F8C;}
	.st126{fill-rule:evenodd;clip-rule:evenodd;fill:#BE9F9C;}
	.st127{fill-rule:evenodd;clip-rule:evenodd;fill:#5E4830;}
	.st128{fill:#96735A;}
	.st129{fill:#AD866B;}
	.st130{fill:#C5A189;}
	.st131{fill-rule:evenodd;clip-rule:evenodd;fill:#69523A;}
	.st132{fill-rule:evenodd;clip-rule:evenodd;fill:#DBDBDB;}
	.st133{fill-rule:evenodd;clip-rule:evenodd;fill:#F2F2F2;}
	.st134{fill-rule:evenodd;clip-rule:evenodd;fill:#6F952E;}
	.st135{fill-rule:evenodd;clip-rule:evenodd;fill:#D4E2A5;}
	.st136{fill-rule:evenodd;clip-rule:evenodd;fill:#C8D384;}
	.st137{fill-rule:evenodd;clip-rule:evenodd;fill:#F8FDFF;}
	.st138{fill-rule:evenodd;clip-rule:evenodd;fill:#F7D981;}
	.st139{fill-rule:evenodd;clip-rule:evenodd;fill:#FDE396;}
	.st140{fill-rule:evenodd;clip-rule:evenodd;fill:#E7A96E;}
	.st141{fill-rule:evenodd;clip-rule:evenodd;fill:#BA7E47;}
	.st142{fill:#FFFFFF;}
	.st143{fill-rule:evenodd;clip-rule:evenodd;fill:#C5A189;}
	.st144{fill-rule:evenodd;clip-rule:evenodd;fill:#951806;}
	.st145{fill-rule:evenodd;clip-rule:evenodd;fill:#801303;}
	.st146{fill-rule:evenodd;clip-rule:evenodd;fill:#D4510D;}
	.st147{fill-rule:evenodd;clip-rule:evenodd;fill:#E6C18A;}
	.st148{fill-rule:evenodd;clip-rule:evenodd;fill:#D59D5E;}
	.st149{fill-rule:evenodd;clip-rule:evenodd;fill:#D47507;}
	.st150{fill-rule:evenodd;clip-rule:evenodd;fill:#E38D2B;}
	.st151{fill-rule:evenodd;clip-rule:evenodd;fill:#BD6704;}
	.st152{fill-rule:evenodd;clip-rule:evenodd;fill:#E8891C;}
	.st153{fill-rule:evenodd;clip-rule:evenodd;fill:#D56400;}
	.st154{fill-rule:evenodd;clip-rule:evenodd;fill:#E6844E;}
	.st155{fill-rule:evenodd;clip-rule:evenodd;fill:#F1E2BB;}
	.st156{fill:#A33803;}
	.st157{fill-rule:evenodd;clip-rule:evenodd;fill:#A33803;}
	.st158{fill-rule:evenodd;clip-rule:evenodd;fill:#B54306;}
	.st159{fill-rule:evenodd;clip-rule:evenodd;fill:#EA6321;}
	.st160{fill-rule:evenodd;clip-rule:evenodd;fill:#821909;}
	.st161{fill-rule:evenodd;clip-rule:evenodd;fill:#C44B0E;}
	.st162{fill-rule:evenodd;clip-rule:evenodd;fill:#B3320E;}
	.st163{fill-rule:evenodd;clip-rule:evenodd;fill:#BA874D;}
	.st164{fill-rule:evenodd;clip-rule:evenodd;fill:#6F351B;}
	.st165{fill-rule:evenodd;clip-rule:evenodd;fill:#5C2C15;}
	.st166{fill-rule:evenodd;clip-rule:evenodd;fill:#FA8950;}
	.st167{fill-rule:evenodd;clip-rule:evenodd;fill:#5E401D;}
	.st168{fill:#D59D5E;}
	.st169{fill:#BA874D;}
	.st170{fill:#E4C292;}
	.st171{fill:#EA6321;}
	.st172{fill:#FA8950;}
	.st173{fill-rule:evenodd;clip-rule:evenodd;fill:#8C5B34;}
	.st174{fill:#CF9470;}
	.st175{fill-rule:evenodd;clip-rule:evenodd;fill:#AA7448;}
	.st176{fill:#EFB795;}
	.st177{fill-rule:evenodd;clip-rule:evenodd;fill:#C9D98B;}
	.st178{fill-rule:evenodd;clip-rule:evenodd;fill:#93B04A;}
	.st179{fill-rule:evenodd;clip-rule:evenodd;fill:#D1E18E;}
	.st180{fill-rule:evenodd;clip-rule:evenodd;fill:#ABCB5C;}
	.st181{fill-rule:evenodd;clip-rule:evenodd;fill:#F0DEAD;}
	.st182{fill-rule:evenodd;clip-rule:evenodd;fill:#DEBA59;}
	.st183{fill-rule:evenodd;clip-rule:evenodd;fill:#E6D3A1;}
	.st184{fill-rule:evenodd;clip-rule:evenodd;fill:#FFF3D3;}
	.st185{fill-rule:evenodd;clip-rule:evenodd;fill:#F7D474;}
	.st186{fill-rule:evenodd;clip-rule:evenodd;fill:#A86046;}
	.st187{fill-rule:evenodd;clip-rule:evenodd;fill:#CF0200;}
	.st188{fill-rule:evenodd;clip-rule:evenodd;fill:#FF2D29;}
	.st189{fill-rule:evenodd;clip-rule:evenodd;fill:#43983E;}
	.st190{fill-rule:evenodd;clip-rule:evenodd;fill:#136B29;}
	.st191{fill-rule:evenodd;clip-rule:evenodd;fill:#D1E694;}
	.st192{fill-rule:evenodd;clip-rule:evenodd;fill:#218239;}
	.st193{fill-rule:evenodd;clip-rule:evenodd;fill:#035C3B;}
	.st194{fill-rule:evenodd;clip-rule:evenodd;fill:#54A051;}
	.st195{fill-rule:evenodd;clip-rule:evenodd;fill:#FFCBA3;}
	.st196{fill-rule:evenodd;clip-rule:evenodd;fill:#EB9350;}
	.st197{fill:#EB9350;}
	.st198{fill-rule:evenodd;clip-rule:evenodd;fill:#BDBDBB;}
	.st199{fill-rule:evenodd;clip-rule:evenodd;fill:#A15E23;}
</style>
<path class="st20" d="M102.56,0c56.64,0,102.56,46.18,102.56,103.14c0,56.96-45.92,103.14-102.56,103.14
	C45.92,206.28,0,160.1,0,103.14C0,46.18,45.92,0,102.56,0L102.56,0z"/>
<path class="st0" d="M102.56,4.43c54.21,0,98.16,44.19,98.16,98.71c0,54.52-43.95,98.71-98.16,98.71
	c-54.21,0-98.16-44.19-98.16-98.71C4.4,48.62,48.35,4.43,102.56,4.43L102.56,4.43z"/>
<path class="st89" d="M112.69,27.2c-2.68-0.29-5.36-0.56-8.05-0.64c-2.78-0.09-5.57,0.04-8.36,0.22c0-2.48,0-4.97,0-7.45
	c0-2.48,0-4.97,0-7.45c1.73-0.1,3.47-0.19,5.2-0.21c1.73-0.02,3.47,0.03,5.2,0.09c0,1.03,0,2.05,0,3.08c0,1.02,0,2.05,0,3.07
	c-1.39-0.06-2.78-0.1-4.16-0.11c0,0.68,0,1.36,0,2.04c1.04,0.01,2.08,0.02,3.12,0.06c1.04,0.04,2.08,0.11,3.12,0.18
	c0-1.72,0-3.44,0-5.16c0-1.72,0-3.45,0-5.17c-2.43-0.13-4.86-0.23-7.29-0.21c-2.43,0.03-4.86,0.18-7.28,0.36c0,2.84,0,5.69,0,8.53
	c0,2.84,0,5.69,0,8.53c-0.47,0.05-0.94,0.11-1.4,0.17c-2.67,0.41-5.32,0.86-7.94,1.48c-2.71,0.64-5.37,1.49-8.01,2.39
	c-0.64-2.4-1.28-4.8-1.92-7.2c-0.64-2.4-1.28-4.8-1.92-7.2c1.65-0.55,3.3-1.08,4.97-1.55c1.67-0.47,3.36-0.87,5.05-1.26
	c0.26,0.99,0.53,1.98,0.79,2.97c0.26,0.99,0.53,1.98,0.79,2.97c-1.36,0.3-2.71,0.63-4.05,0.98c0.18,0.66,0.35,1.32,0.53,1.97
	c1.01-0.26,2.02-0.52,3.03-0.75c1.02-0.23,2.04-0.44,3.06-0.64c-0.44-1.66-0.89-3.32-1.33-4.99c-0.44-1.66-0.89-3.33-1.33-4.99
	c-2.38,0.51-4.75,1.04-7.09,1.7c-2.34,0.66-4.64,1.44-6.94,2.24c0.73,2.75,1.46,5.5,2.2,8.24c0.73,2.75,1.46,5.49,2.19,8.24
	c-0.44,0.17-0.88,0.35-1.31,0.53c-2.47,1.09-4.92,2.22-7.29,3.49c-2.45,1.32-4.81,2.84-7.13,4.4c-1.23-2.15-2.47-4.3-3.7-6.45
	c-1.23-2.15-2.47-4.3-3.7-6.45c1.45-0.96,2.91-1.91,4.4-2.8c1.49-0.89,3.02-1.72,4.55-2.53c0.51,0.89,1.02,1.78,1.53,2.66
	c0.51,0.89,1.02,1.77,1.53,2.66c-1.23,0.64-2.45,1.31-3.66,2c0.34,0.59,0.68,1.18,1.02,1.77c0.91-0.51,1.81-1.03,2.74-1.51
	c0.92-0.49,1.86-0.95,2.8-1.41c-0.86-1.49-1.71-2.98-2.57-4.47c-0.86-1.49-1.71-2.98-2.57-4.48c-2.17,1.11-4.32,2.24-6.41,3.49
	c-2.09,1.24-4.12,2.6-6.13,3.98c1.41,2.46,2.83,4.93,4.24,7.39c1.41,2.46,2.83,4.93,4.24,7.39c-0.38,0.28-0.76,0.57-1.13,0.85
	c-2.1,1.7-4.18,3.42-6.14,5.27c-2.03,1.92-3.91,3.99-5.75,6.1c-1.75-1.75-3.49-3.51-5.24-5.27c-1.74-1.75-3.49-3.51-5.24-5.27
	c1.15-1.31,2.32-2.6,3.53-3.85c1.21-1.25,2.48-2.45,3.75-3.63c0.72,0.72,1.44,1.45,2.16,2.17c0.72,0.72,1.44,1.45,2.16,2.17
	c-1.02,0.94-2.03,1.9-3.02,2.88c0.48,0.48,0.96,0.96,1.44,1.45c0.74-0.73,1.49-1.47,2.25-2.17c0.77-0.71,1.55-1.4,2.34-2.09
	c-1.21-1.22-2.42-2.43-3.63-3.65c-1.21-1.22-2.42-2.44-3.63-3.65c-1.81,1.64-3.6,3.29-5.3,5.04c-1.7,1.75-3.31,3.58-4.9,5.43
	c2,2.01,4,4.02,6,6.03c2,2.01,4,4.02,6,6.03c-0.29,0.37-0.58,0.74-0.88,1.11c-1.59,2.19-3.16,4.39-4.58,6.69
	c-1.47,2.38-2.75,4.87-3.98,7.39c-2.14-1.24-4.28-2.48-6.41-3.72c-2.14-1.24-4.28-2.48-6.42-3.73c0.78-1.56,1.57-3.11,2.42-4.63
	c0.85-1.52,1.76-3.01,2.68-4.49c0.88,0.51,1.77,1.03,2.65,1.54c0.88,0.51,1.76,1.02,2.64,1.54c-0.75,1.18-1.47,2.37-2.18,3.57
	c0.59,0.34,1.17,0.68,1.76,1.02c0.53-0.9,1.06-1.8,1.62-2.69c0.56-0.88,1.14-1.76,1.72-2.63c-1.48-0.86-2.96-1.72-4.45-2.58
	c-1.48-0.86-2.97-1.72-4.45-2.58c-1.33,2.05-2.63,4.12-3.82,6.24c-1.19,2.13-2.27,4.32-3.33,6.52c2.45,1.42,4.9,2.85,7.35,4.27
	c2.45,1.42,4.9,2.84,7.35,4.27c-0.19,0.43-0.37,0.87-0.56,1.3c-0.98,2.53-1.92,5.07-2.7,7.65c-0.8,2.68-1.4,5.42-1.95,8.18
	c-2.38-0.64-4.77-1.29-7.15-1.93c-2.38-0.64-4.77-1.29-7.16-1.93c0.35-1.71,0.72-3.42,1.15-5.11c0.43-1.69,0.93-3.36,1.44-5.03
	c0.98,0.27,1.97,0.53,2.95,0.8c0.98,0.27,1.97,0.53,2.95,0.79c-0.42,1.33-0.81,2.67-1.19,4.01c0.66,0.18,1.31,0.35,1.96,0.53
	c0.28-1.01,0.56-2.02,0.87-3.01c0.31-1,0.64-1.99,0.98-2.99c-1.65-0.45-3.31-0.89-4.96-1.34c-1.65-0.45-3.31-0.89-4.96-1.34
	c-0.75,2.33-1.48,4.66-2.08,7.02c-0.6,2.37-1.08,4.76-1.54,7.17c2.73,0.74,5.47,1.47,8.2,2.21c2.73,0.74,5.46,1.47,8.19,2.21
	c-0.07,0.47-0.14,0.94-0.2,1.4c-0.29,2.7-0.55,5.4-0.64,8.09c-0.09,2.8,0.04,5.6,0.22,8.4c-2.47,0-4.94,0-7.41,0
	c-2.47,0-4.94,0-7.41,0c-0.1-1.74-0.19-3.49-0.21-5.23c-0.02-1.74,0.03-3.49,0.09-5.23c1.02,0,2.04,0,3.06,0c1.02,0,2.04,0,3.05,0
	c-0.06,1.4-0.1,2.79-0.11,4.19c0.68,0,1.36,0,2.03,0c0.01-1.05,0.02-2.09,0.06-3.14c0.04-1.05,0.11-2.09,0.18-3.14
	c-1.71,0-3.42,0-5.14,0c-1.71,0-3.43,0-5.14,0c-0.13,2.44-0.23,4.89-0.2,7.33c0.03,2.44,0.18,4.88,0.36,7.32c2.83,0,5.66,0,8.49,0
	c2.83,0,5.65,0,8.48,0c0.05,0.47,0.11,0.94,0.17,1.41c0.41,2.68,0.85,5.36,1.47,7.98c0.64,2.73,1.48,5.4,2.38,8.06
	c-2.38,0.64-4.77,1.29-7.15,1.93c-2.38,0.64-4.77,1.29-7.16,1.93c-0.55-1.66-1.08-3.32-1.55-5c-0.47-1.68-0.87-3.38-1.26-5.08
	c0.99-0.27,1.97-0.53,2.95-0.8c0.98-0.27,1.97-0.53,2.95-0.79c0.3,1.36,0.62,2.72,0.97,4.07c0.65-0.18,1.31-0.35,1.96-0.53
	c-0.26-1.01-0.52-2.03-0.75-3.05c-0.23-1.02-0.43-2.05-0.63-3.08c-1.65,0.45-3.31,0.89-4.96,1.34c-1.65,0.45-3.31,0.89-4.96,1.34
	c0.5,2.39,1.03,4.78,1.69,7.13c0.65,2.35,1.43,4.67,2.23,6.98c2.73-0.74,5.47-1.47,8.2-2.21c2.73-0.74,5.46-1.47,8.19-2.21
	c0.17,0.44,0.35,0.88,0.52,1.32c1.09,2.48,2.2,4.95,3.47,7.33c1.32,2.47,2.82,4.83,4.37,7.16c-2.14,1.24-4.28,2.48-6.41,3.72
	c-2.14,1.24-4.28,2.48-6.42,3.73c-0.96-1.46-1.9-2.93-2.78-4.43c-0.88-1.5-1.71-3.04-2.52-4.58c0.88-0.51,1.77-1.02,2.65-1.54
	c0.88-0.51,1.76-1.02,2.65-1.53c0.64,1.24,1.3,2.47,1.98,3.68c0.59-0.34,1.17-0.68,1.76-1.02c-0.51-0.91-1.02-1.82-1.5-2.75
	c-0.48-0.93-0.95-1.87-1.4-2.81c-1.48,0.86-2.96,1.72-4.45,2.58c-1.48,0.86-2.97,1.72-4.45,2.58c1.1,2.18,2.23,4.35,3.47,6.45
	c1.24,2.1,2.58,4.14,3.95,6.16c2.45-1.42,4.9-2.85,7.35-4.27c2.45-1.42,4.9-2.84,7.35-4.26c0.28,0.38,0.56,0.76,0.84,1.14
	c1.69,2.11,3.4,4.21,5.24,6.18c1.91,2.04,3.97,3.93,6.07,5.78c-1.74,1.76-3.49,3.51-5.24,5.27c-1.74,1.76-3.49,3.51-5.24,5.27
	c-1.3-1.16-2.58-2.34-3.82-3.55c-1.24-1.22-2.43-2.49-3.61-3.77c0.72-0.73,1.44-1.45,2.16-2.18c0.72-0.72,1.44-1.45,2.16-2.17
	c0.94,1.03,1.89,2.05,2.86,3.04c0.48-0.48,0.96-0.96,1.44-1.45c-0.73-0.75-1.46-1.5-2.16-2.27c-0.7-0.77-1.39-1.56-2.08-2.35
	c-1.21,1.22-2.42,2.43-3.63,3.65c-1.21,1.22-2.42,2.44-3.63,3.66c1.63,1.82,3.27,3.62,5.01,5.33c1.74,1.71,3.56,3.33,5.4,4.93
	c2-2.01,4-4.02,6-6.04c2-2.01,4-4.02,6-6.03c0.37,0.3,0.74,0.59,1.11,0.88c2.18,1.6,4.37,3.18,6.65,4.6
	c2.37,1.47,4.85,2.77,7.35,4.01c-1.23,2.15-2.47,4.3-3.7,6.45c-1.23,2.15-2.47,4.3-3.7,6.45c-1.55-0.78-3.1-1.58-4.61-2.44
	c-1.51-0.85-2.99-1.77-4.46-2.7c0.51-0.89,1.02-1.78,1.53-2.66c0.51-0.89,1.02-1.77,1.53-2.66c1.17,0.75,2.36,1.48,3.55,2.19
	c0.34-0.59,0.68-1.18,1.02-1.77c-0.9-0.53-1.79-1.07-2.67-1.63s-1.75-1.14-2.61-1.73c-0.86,1.49-1.71,2.98-2.57,4.47
	c-0.86,1.49-1.71,2.98-2.57,4.48c2.04,1.33,4.09,2.64,6.21,3.84c2.12,1.2,4.29,2.29,6.49,3.35c1.41-2.46,2.83-4.93,4.24-7.39
	c1.41-2.46,2.83-4.92,4.24-7.39c0.43,0.19,0.86,0.38,1.3,0.56c2.52,0.98,5.04,1.93,7.61,2.71c2.67,0.81,5.39,1.41,8.13,1.96
	c-0.64,2.4-1.28,4.8-1.92,7.19c-0.64,2.4-1.28,4.8-1.92,7.2c-1.7-0.35-3.4-0.72-5.08-1.15c-1.68-0.43-3.34-0.93-5-1.45
	c0.26-0.99,0.53-1.98,0.79-2.97c0.26-0.99,0.53-1.98,0.79-2.97c1.33,0.42,2.66,0.82,3.99,1.19c0.18-0.66,0.35-1.32,0.53-1.97
	c-1-0.28-2.01-0.56-3-0.88c-0.99-0.31-1.98-0.65-2.97-0.99c-0.44,1.66-0.89,3.32-1.33,4.99c-0.44,1.66-0.89,3.33-1.33,4.99
	c2.31,0.76,4.63,1.49,6.98,2.09c2.35,0.61,4.74,1.09,7.13,1.55c0.73-2.75,1.46-5.5,2.2-8.24c0.73-2.75,1.46-5.49,2.19-8.24
	c0.46,0.07,0.93,0.14,1.4,0.2c2.68,0.29,5.37,0.56,8.05,0.64c2.78,0.09,5.57-0.04,8.36-0.23c0,2.48,0,4.97,0,7.45
	c0,2.48,0,4.97,0,7.45c-1.74,0.1-3.47,0.19-5.2,0.21c-1.73,0.02-3.47-0.03-5.2-0.09c0-1.03,0-2.05,0-3.07c0-1.02,0-2.05,0-3.07
	c1.39,0.06,2.78,0.1,4.16,0.11c0-0.68,0-1.36,0-2.04c-1.04-0.01-2.08-0.02-3.12-0.06c-1.04-0.04-2.08-0.11-3.12-0.18
	c0,1.72,0,3.44,0,5.16c0,1.72,0,3.45,0,5.17c2.43,0.13,4.86,0.23,7.29,0.2c2.43-0.03,4.86-0.18,7.28-0.36c0-2.84,0-5.69,0-8.53
	c0-2.84,0-5.69,0-8.53c0.47-0.05,0.93-0.11,1.4-0.17c2.67-0.41,5.33-0.86,7.94-1.48c2.71-0.64,5.37-1.49,8.01-2.39
	c0.64,2.4,1.28,4.8,1.92,7.19c0.64,2.4,1.28,4.8,1.92,7.2c-1.65,0.55-3.3,1.09-4.97,1.55c-1.67,0.47-3.36,0.87-5.05,1.26
	c-0.26-0.99-0.53-1.98-0.79-2.97c-0.26-0.99-0.53-1.98-0.79-2.97c1.36-0.3,2.71-0.63,4.05-0.98c-0.18-0.66-0.35-1.32-0.53-1.97
	c-1.01,0.26-2.02,0.52-3.03,0.75c-1.02,0.23-2.04,0.44-3.06,0.63c0.44,1.66,0.89,3.33,1.33,4.99c0.44,1.66,0.89,3.33,1.33,4.99
	c2.38-0.51,4.75-1.04,7.09-1.7c2.34-0.66,4.64-1.44,6.94-2.25c-0.73-2.75-1.46-5.5-2.2-8.24c-0.73-2.75-1.46-5.49-2.19-8.24
	c0.44-0.17,0.87-0.35,1.31-0.52c2.47-1.09,4.92-2.22,7.29-3.49c2.45-1.32,4.81-2.84,7.13-4.4c1.23,2.15,2.47,4.3,3.7,6.45
	c1.23,2.15,2.47,4.3,3.7,6.45c-1.45,0.96-2.91,1.91-4.4,2.8c-1.49,0.89-3.02,1.72-4.56,2.54c-0.51-0.89-1.02-1.78-1.53-2.66
	c-0.51-0.89-1.02-1.77-1.53-2.66c1.23-0.64,2.45-1.31,3.66-1.99c-0.34-0.59-0.68-1.18-1.02-1.77c-0.91,0.51-1.81,1.03-2.74,1.51
	c-0.92,0.48-1.86,0.95-2.8,1.41c0.86,1.49,1.71,2.98,2.57,4.47c0.86,1.49,1.71,2.99,2.57,4.48c2.17-1.11,4.32-2.24,6.41-3.49
	c2.09-1.24,4.12-2.6,6.13-3.98c-1.41-2.46-2.83-4.93-4.24-7.39c-1.41-2.46-2.83-4.92-4.24-7.39c0.38-0.28,0.76-0.56,1.13-0.85
	c2.1-1.7,4.18-3.42,6.14-5.27c2.03-1.92,3.91-3.99,5.75-6.1c1.74,1.76,3.49,3.51,5.24,5.27c1.74,1.75,3.49,3.51,5.24,5.27
	c-1.15,1.31-2.32,2.6-3.53,3.85c-1.21,1.25-2.48,2.45-3.75,3.63c-0.72-0.73-1.44-1.45-2.16-2.17c-0.72-0.72-1.44-1.45-2.16-2.17
	c1.02-0.94,2.03-1.91,3.02-2.88c-0.48-0.48-0.96-0.96-1.43-1.44c-0.74,0.73-1.49,1.46-2.25,2.17c-0.77,0.71-1.55,1.4-2.34,2.09
	c1.21,1.22,2.42,2.43,3.63,3.65c1.21,1.22,2.42,2.44,3.63,3.66c1.81-1.64,3.6-3.29,5.3-5.04c1.7-1.75,3.31-3.58,4.9-5.43
	c-2-2.01-4-4.02-6-6.03c-2-2.01-4-4.02-6-6.03c0.29-0.37,0.59-0.74,0.88-1.12c1.59-2.19,3.16-4.39,4.57-6.69
	c1.47-2.38,2.75-4.87,3.99-7.39c2.14,1.24,4.28,2.48,6.41,3.73c2.14,1.24,4.28,2.48,6.42,3.72c-0.78,1.56-1.57,3.11-2.42,4.63
	c-0.85,1.52-1.76,3.01-2.68,4.48c-0.88-0.51-1.77-1.02-2.65-1.54c-0.88-0.51-1.76-1.02-2.64-1.54c0.75-1.18,1.47-2.37,2.18-3.57
	c-0.59-0.34-1.17-0.68-1.76-1.02c-0.53,0.9-1.06,1.8-1.62,2.69c-0.56,0.88-1.14,1.76-1.72,2.63c1.48,0.86,2.96,1.72,4.45,2.58
	c1.48,0.86,2.97,1.72,4.45,2.58c1.33-2.05,2.63-4.12,3.82-6.24c1.19-2.13,2.27-4.32,3.33-6.52c-2.45-1.42-4.9-2.85-7.35-4.27
	c-2.45-1.42-4.9-2.84-7.35-4.26c0.19-0.43,0.37-0.87,0.56-1.3c0.98-2.53,1.92-5.07,2.7-7.65c0.8-2.68,1.4-5.42,1.95-8.18
	c2.39,0.64,4.77,1.29,7.15,1.93c2.38,0.64,4.77,1.29,7.16,1.93c-0.35,1.71-0.72,3.42-1.15,5.11c-0.43,1.69-0.93,3.36-1.44,5.03
	c-0.99-0.27-1.97-0.53-2.95-0.8c-0.98-0.27-1.97-0.53-2.95-0.79c0.42-1.33,0.81-2.67,1.19-4.01c-0.65-0.18-1.31-0.35-1.96-0.53
	c-0.28,1.01-0.56,2.02-0.87,3.01c-0.31,1-0.65,1.99-0.98,2.99c1.65,0.45,3.31,0.89,4.96,1.34c1.65,0.45,3.31,0.89,4.96,1.34
	c0.76-2.33,1.48-4.66,2.08-7.02c0.6-2.37,1.08-4.76,1.54-7.17c-2.73-0.74-5.47-1.47-8.2-2.21c-2.73-0.74-5.46-1.47-8.19-2.21
	c0.07-0.47,0.14-0.94,0.2-1.4c0.29-2.7,0.55-5.4,0.64-8.09c0.09-2.8-0.04-5.6-0.22-8.4c2.47,0,4.94,0,7.41,0c2.47,0,4.94,0,7.41,0
	c0.1,1.74,0.19,3.49,0.21,5.23c0.02,1.74-0.03,3.49-0.1,5.23c-1.02,0-2.04,0-3.06,0c-1.02,0-2.03,0-3.05,0
	c0.06-1.4,0.1-2.79,0.11-4.19c-0.68,0-1.36,0-2.03,0c-0.01,1.04-0.02,2.09-0.07,3.14c-0.04,1.05-0.11,2.09-0.18,3.14
	c1.71,0,3.42,0,5.13,0c1.71,0,3.43,0,5.14,0c0.13-2.44,0.23-4.89,0.2-7.33c-0.03-2.44-0.18-4.88-0.36-7.32c-2.83,0-5.66,0-8.49,0
	c-2.83,0-5.66,0-8.48,0c-0.05-0.47-0.11-0.94-0.17-1.41c-0.41-2.68-0.85-5.36-1.47-7.98c-0.64-2.73-1.48-5.4-2.38-8.06
	c2.38-0.64,4.77-1.29,7.15-1.93c2.38-0.64,4.77-1.29,7.16-1.93c0.55,1.66,1.08,3.32,1.55,5c0.47,1.68,0.87,3.38,1.26,5.08
	c-0.99,0.27-1.97,0.53-2.95,0.8c-0.98,0.26-1.97,0.53-2.95,0.8c-0.3-1.36-0.62-2.72-0.97-4.07c-0.66,0.18-1.31,0.35-1.96,0.53
	c0.26,1.01,0.52,2.03,0.74,3.05c0.23,1.02,0.43,2.05,0.63,3.08c1.65-0.45,3.31-0.89,4.96-1.34c1.65-0.45,3.31-0.89,4.96-1.34
	c-0.5-2.39-1.03-4.78-1.69-7.13c-0.65-2.35-1.43-4.67-2.23-6.98c-2.73,0.74-5.47,1.47-8.2,2.21c-2.73,0.74-5.46,1.47-8.19,2.21
	c-0.17-0.44-0.35-0.88-0.52-1.32c-1.09-2.48-2.2-4.95-3.47-7.33c-1.32-2.47-2.82-4.83-4.37-7.17c2.14-1.24,4.28-2.48,6.41-3.72
	c2.14-1.24,4.28-2.48,6.42-3.73c0.96,1.46,1.9,2.93,2.78,4.43c0.88,1.5,1.71,3.04,2.52,4.58c-0.88,0.51-1.76,1.03-2.65,1.54
	c-0.88,0.51-1.76,1.02-2.65,1.53c-0.64-1.24-1.3-2.47-1.98-3.68c-0.59,0.34-1.17,0.68-1.76,1.02c0.51,0.91,1.02,1.82,1.51,2.75
	c0.48,0.93,0.94,1.87,1.4,2.81c1.48-0.86,2.96-1.72,4.45-2.58c1.48-0.86,2.97-1.72,4.45-2.58c-1.1-2.18-2.23-4.35-3.47-6.45
	c-1.24-2.1-2.58-4.14-3.95-6.16c-2.45,1.42-4.9,2.84-7.35,4.27c-2.45,1.42-4.9,2.84-7.34,4.27c-0.28-0.38-0.56-0.76-0.84-1.14
	c-1.69-2.12-3.4-4.21-5.24-6.18c-1.91-2.04-3.97-3.93-6.07-5.78c1.74-1.75,3.49-3.51,5.24-5.27c1.74-1.76,3.49-3.51,5.24-5.27
	c1.3,1.16,2.59,2.34,3.82,3.55c1.24,1.22,2.43,2.49,3.61,3.77c-0.72,0.73-1.44,1.45-2.16,2.17c-0.72,0.73-1.44,1.45-2.16,2.17
	c-0.94-1.03-1.89-2.04-2.86-3.04c-0.48,0.48-0.96,0.96-1.44,1.44c0.73,0.75,1.46,1.5,2.16,2.27c0.71,0.77,1.39,1.56,2.08,2.35
	c1.21-1.22,2.42-2.43,3.63-3.65c1.21-1.22,2.42-2.44,3.63-3.65c-1.63-1.82-3.27-3.62-5.01-5.33c-1.74-1.71-3.56-3.33-5.41-4.92
	c-2,2.01-4,4.02-6,6.03c-2,2.01-4,4.02-6,6.03c-0.37-0.29-0.74-0.59-1.11-0.88c-2.18-1.6-4.37-3.18-6.65-4.6
	c-2.37-1.48-4.85-2.77-7.35-4.01c1.23-2.15,2.47-4.3,3.7-6.45c1.23-2.15,2.47-4.3,3.7-6.45c1.55,0.78,3.1,1.58,4.61,2.44
	c1.51,0.85,2.99,1.77,4.46,2.7c-0.51,0.89-1.02,1.78-1.53,2.66c-0.51,0.89-1.02,1.77-1.53,2.66c-1.17-0.75-2.36-1.48-3.55-2.19
	c-0.34,0.59-0.68,1.18-1.01,1.77c0.9,0.53,1.79,1.06,2.67,1.63c0.88,0.56,1.75,1.14,2.61,1.73c0.86-1.49,1.71-2.98,2.57-4.47
	c0.86-1.49,1.71-2.98,2.57-4.48c-2.04-1.33-4.09-2.64-6.21-3.84c-2.12-1.2-4.29-2.29-6.49-3.35c-1.41,2.46-2.83,4.93-4.24,7.39
	c-1.41,2.46-2.83,4.92-4.24,7.39c-0.43-0.19-0.86-0.37-1.3-0.56c-2.52-0.98-5.04-1.93-7.61-2.71c-2.67-0.81-5.39-1.41-8.13-1.96
	c0.64-2.4,1.28-4.8,1.92-7.19c0.64-2.4,1.28-4.8,1.92-7.2c1.7,0.35,3.4,0.72,5.08,1.15c1.68,0.43,3.34,0.93,5,1.45
	c-0.26,0.99-0.53,1.98-0.79,2.97c-0.26,0.99-0.53,1.98-0.79,2.97c-1.32-0.42-2.66-0.82-3.99-1.19c-0.18,0.66-0.35,1.32-0.53,1.98
	c1,0.28,2.01,0.56,3,0.87c0.99,0.31,1.98,0.65,2.97,0.99c0.44-1.66,0.89-3.32,1.33-4.99c0.44-1.66,0.89-3.33,1.33-4.99
	c-2.31-0.76-4.63-1.49-6.98-2.09c-2.35-0.61-4.74-1.09-7.13-1.55c-0.73,2.75-1.47,5.5-2.2,8.24c-0.73,2.75-1.46,5.49-2.19,8.24
	C113.62,27.34,113.16,27.27,112.69,27.2L112.69,27.2z M92.12,8.07c3.11-0.28,6.21-0.51,9.32-0.55c3.11-0.03,6.21,0.13,9.32,0.33
	c0.03,0,0.06,0,0.09,0c0,2.42,0,4.83,0,7.24c0,2.41,0,4.83,0,7.24c-0.03,0-0.06,0-0.09,0c-1.72-0.15-3.43-0.29-5.14-0.36
	c-1.71-0.07-3.43-0.07-5.14-0.05l-0.03,0c0-1.02,0-2.05,0-3.06c0-1.02,0-2.05,0-3.07l0.03,0c1.38-0.02,2.75-0.02,4.13,0.01
	c0-0.68,0-1.36,0-2.05v0c-1.04-0.02-2.08-0.03-3.12-0.02c-1.04,0.01-2.08,0.05-3.12,0.09c0,1.8,0,3.59,0,5.39c0,1.79,0,3.59,0,5.39
	c2.44-0.09,4.88-0.15,7.32-0.04c2.29,0.1,4.57,0.32,6.86,0.57l1.94-7.27c0.82-3.08,1.65-6.17,2.47-9.26
	c3.07,0.54,6.13,1.12,9.14,1.9c3.01,0.78,5.97,1.74,8.92,2.75c0.03,0.01,0.06,0.02,0.08,0.03c-0.62,2.33-1.24,4.66-1.86,6.99
	c-0.62,2.33-1.24,4.66-1.86,6.99c-0.03-0.01-0.06-0.02-0.08-0.03c-1.62-0.6-3.24-1.18-4.88-1.69c-1.64-0.51-3.29-0.96-4.95-1.38
	l-0.03-0.01c0.26-0.99,0.53-1.98,0.79-2.96c0.26-0.99,0.53-1.98,0.79-2.96l0.03,0.01c1.33,0.34,2.66,0.7,3.99,1.08
	c0.18-0.66,0.35-1.32,0.53-1.98l0,0c-1-0.29-2-0.57-3.01-0.83c-1.01-0.26-2.02-0.49-3.04-0.72c-0.46,1.74-0.92,3.47-1.39,5.21
	c-0.46,1.73-0.92,3.47-1.39,5.2c2.38,0.55,4.75,1.13,7.08,1.87c2.18,0.69,4.33,1.5,6.48,2.34l3.74-6.52
	c1.59-2.76,3.18-5.53,4.77-8.3c2.83,1.32,5.64,2.68,8.34,4.21c2.71,1.53,5.32,3.24,7.91,4.98c0.03,0.01,0.05,0.03,0.08,0.05
	c-1.2,2.09-2.4,4.18-3.6,6.27c-1.2,2.09-2.4,4.18-3.6,6.27c-0.03-0.02-0.05-0.03-0.08-0.05c-1.41-1-2.82-1.98-4.27-2.9
	c-1.45-0.92-2.93-1.78-4.43-2.62l-0.03-0.02c0.51-0.88,1.02-1.77,1.52-2.65c0.51-0.88,1.02-1.77,1.53-2.66l0.03,0.01
	c1.2,0.67,2.39,1.37,3.57,2.08c0.34-0.59,0.68-1.18,1.02-1.78l0,0c-0.89-0.54-1.79-1.08-2.69-1.59c-0.91-0.51-1.83-1-2.75-1.49
	c-0.89,1.56-1.79,3.11-2.68,4.67c-0.89,1.55-1.79,3.11-2.68,4.66c2.16,1.15,4.3,2.33,6.36,3.64c1.93,1.24,3.8,2.58,5.66,3.94
	l5.3-5.33c2.24-2.26,4.49-4.52,6.74-6.78c2.39,2.01,4.75,4.05,6.97,6.24c2.22,2.19,4.3,4.51,6.36,6.86
	c0.02,0.02,0.04,0.04,0.06,0.07c-1.7,1.71-3.39,3.41-5.09,5.12c-1.7,1.71-3.39,3.41-5.09,5.12c-0.02-0.02-0.04-0.05-0.06-0.07
	c-1.1-1.33-2.22-2.65-3.38-3.92c-1.16-1.27-2.38-2.49-3.6-3.69l-0.02-0.02c0.72-0.72,1.44-1.45,2.16-2.17
	c0.72-0.72,1.44-1.45,2.16-2.17l0.02,0.02c0.99,0.96,1.96,1.94,2.92,2.94c0.48-0.48,0.96-0.96,1.44-1.45l0,0
	c-0.72-0.75-1.45-1.51-2.19-2.24c-0.74-0.73-1.51-1.44-2.27-2.15c-1.26,1.27-2.53,2.54-3.79,3.81c-1.26,1.27-2.53,2.54-3.79,3.81
	c1.79,1.67,3.55,3.37,5.2,5.17c1.55,1.7,3,3.48,4.45,5.28l6.49-3.77c2.75-1.6,5.5-3.2,8.26-4.79c1.79,2.57,3.55,5.15,5.13,7.84
	c1.58,2.69,2.99,5.48,4.37,8.29c0.01,0.02,0.03,0.05,0.04,0.08c-2.08,1.21-4.16,2.41-6.24,3.62c-2.08,1.21-4.16,2.41-6.23,3.62
	c-0.01-0.03-0.03-0.05-0.04-0.08c-0.72-1.57-1.46-3.13-2.26-4.66c-0.8-1.53-1.65-3.02-2.53-4.5l-0.02-0.03
	c0.88-0.51,1.76-1.02,2.64-1.53c0.88-0.51,1.76-1.02,2.64-1.53l0.02,0.03c0.71,1.19,1.39,2.39,2.06,3.6
	c0.59-0.34,1.18-0.68,1.77-1.03l0,0c-0.5-0.92-1.01-1.83-1.54-2.73c-0.53-0.9-1.08-1.79-1.64-2.67c-1.55,0.9-3.1,1.8-4.64,2.69
	c-1.55,0.9-3.09,1.8-4.64,2.69c1.3,2.08,2.56,4.18,3.69,6.35c1.06,2.04,2.01,4.15,2.94,6.26l7.24-1.95
	c3.07-0.83,6.14-1.65,9.21-2.48c1.07,2.94,2.1,5.9,2.94,8.91c0.84,3.01,1.48,6.07,2.09,9.14c0.01,0.03,0.01,0.06,0.02,0.09
	c-2.32,0.62-4.64,1.25-6.95,1.87c-2.32,0.62-4.64,1.25-6.95,1.87c-0.01-0.03-0.01-0.06-0.02-0.09c-0.29-1.71-0.61-3.41-0.98-5.09
	c-0.38-1.68-0.82-3.35-1.29-5.01l-0.01-0.03c0.98-0.26,1.96-0.53,2.94-0.79c0.98-0.26,1.97-0.53,2.95-0.79l0.01,0.03
	c0.38,1.33,0.73,2.67,1.07,4.01c0.65-0.18,1.31-0.35,1.97-0.53l0,0c-0.25-1.02-0.51-2.03-0.79-3.04c-0.28-1.01-0.59-2.01-0.9-3.01
	c-1.73,0.46-3.45,0.93-5.18,1.39c-1.72,0.46-3.45,0.93-5.17,1.39c0.72,2.34,1.4,4.7,1.93,7.1c0.5,2.25,0.87,4.53,1.23,6.81h7.49
	c3.17,0,6.35,0,9.54,0c0.28,3.12,0.51,6.25,0.54,9.37c0.03,3.12-0.13,6.25-0.33,9.37c0,0.03,0,0.06,0,0.09c-2.4,0-4.8,0-7.2,0
	c-2.4,0-4.8,0-7.2,0c0-0.03,0-0.06,0-0.09c0.15-1.73,0.29-3.45,0.36-5.17c0.07-1.72,0.07-3.45,0.05-5.17l0-0.03
	c1.02,0,2.03,0,3.05,0c1.02,0,2.04,0,3.05,0l0,0.03c0.02,1.38,0.02,2.77-0.01,4.15c0.68,0,1.36,0,2.04,0h0
	c0.02-1.05,0.03-2.1,0.02-3.14c-0.01-1.05-0.05-2.09-0.09-3.14c-1.79,0-3.57,0-5.36,0c-1.78,0-3.57,0-5.36,0
	c0.09,2.45,0.15,4.91,0.04,7.36c-0.1,2.3-0.32,4.6-0.57,6.9l7.23,1.95c3.07,0.83,6.14,1.65,9.21,2.48
	c-0.53,3.09-1.11,6.17-1.89,9.19c-0.77,3.03-1.73,6-2.74,8.97c-0.01,0.03-0.02,0.06-0.03,0.08c-2.32-0.62-4.64-1.25-6.95-1.87
	c-2.32-0.63-4.64-1.25-6.95-1.87c0.01-0.03,0.02-0.06,0.03-0.08c0.59-1.63,1.17-3.25,1.68-4.9c0.51-1.65,0.95-3.31,1.37-4.98
	l0.01-0.03c0.98,0.26,1.96,0.53,2.94,0.79c0.98,0.26,1.97,0.53,2.95,0.79l-0.01,0.03c-0.34,1.34-0.7,2.68-1.07,4.01
	c0.66,0.18,1.31,0.35,1.97,0.53l0,0c0.29-1.01,0.57-2.01,0.83-3.03c0.26-1.01,0.49-2.03,0.72-3.06c-1.73-0.46-3.45-0.93-5.18-1.39
	c-1.72-0.46-3.45-0.93-5.17-1.39c-0.54,2.39-1.12,4.78-1.86,7.12c-0.69,2.2-1.49,4.36-2.32,6.52l6.49,3.77
	c2.75,1.6,5.5,3.2,8.26,4.79c-1.31,2.85-2.66,5.67-4.19,8.39c-1.52,2.72-3.22,5.35-4.95,7.95c-0.02,0.03-0.03,0.05-0.05,0.07
	c-2.08-1.21-4.16-2.41-6.23-3.62c-2.08-1.21-4.16-2.41-6.23-3.62c0.01-0.03,0.03-0.05,0.05-0.07c0.99-1.42,1.97-2.84,2.89-4.3
	c0.92-1.46,1.77-2.95,2.61-4.46l0.01-0.03c0.88,0.51,1.76,1.02,2.64,1.53c0.88,0.51,1.76,1.02,2.64,1.53l-0.01,0.03
	c-0.67,1.21-1.36,2.41-2.07,3.6c0.59,0.34,1.18,0.68,1.77,1.03l0,0c0.54-0.9,1.07-1.8,1.58-2.71c0.51-0.91,1-1.84,1.48-2.76
	c-1.55-0.9-3.09-1.8-4.64-2.7c-1.55-0.9-3.09-1.79-4.64-2.69c-1.14,2.17-2.31,4.32-3.62,6.39c-1.23,1.94-2.57,3.82-3.92,5.69
	l5.3,5.33c2.25,2.26,4.5,4.52,6.74,6.78c-2,2.41-4.03,4.78-6.21,7.01c-2.17,2.23-4.48,4.33-6.82,6.39
	c-0.02,0.02-0.04,0.04-0.07,0.06c-1.7-1.71-3.39-3.41-5.09-5.12c-1.7-1.71-3.39-3.41-5.09-5.12c0.02-0.02,0.04-0.04,0.06-0.06
	c1.32-1.11,2.63-2.23,3.89-3.4c1.26-1.17,2.47-2.39,3.67-3.62l0.02-0.02c0.72,0.72,1.44,1.45,2.16,2.17
	c0.72,0.72,1.44,1.45,2.16,2.17l-0.02,0.02c-0.96,0.99-1.93,1.97-2.93,2.93c0.48,0.48,0.96,0.97,1.44,1.45l0,0
	c0.75-0.73,1.5-1.46,2.22-2.21c0.73-0.75,1.44-1.51,2.14-2.28c-1.26-1.27-2.53-2.54-3.79-3.81c-1.26-1.27-2.53-2.54-3.79-3.81
	c-1.66,1.8-3.35,3.57-5.14,5.23c-1.69,1.56-3.46,3.02-5.25,4.48l3.74,6.52c1.59,2.77,3.18,5.53,4.77,8.3
	c-2.55,1.81-5.12,3.57-7.8,5.16c-2.67,1.59-5.45,3.01-8.24,4.4c-0.03,0.01-0.05,0.03-0.08,0.04c-1.2-2.09-2.4-4.18-3.6-6.27
	c-1.2-2.09-2.4-4.18-3.6-6.27c0.03-0.01,0.05-0.03,0.08-0.04c1.56-0.73,3.12-1.47,4.64-2.27c1.52-0.8,3-1.66,4.47-2.55l0.03-0.02
	c0.51,0.88,1.02,1.77,1.52,2.65c0.51,0.88,1.02,1.77,1.52,2.66l-0.03,0.02c-1.18,0.71-2.37,1.4-3.58,2.07
	c0.34,0.59,0.68,1.18,1.02,1.78l0,0c0.91-0.51,1.82-1.02,2.72-1.55c0.89-0.53,1.78-1.09,2.66-1.65c-0.89-1.56-1.79-3.11-2.68-4.67
	c-0.89-1.55-1.79-3.11-2.68-4.67c-2.06,1.31-4.15,2.58-6.32,3.71c-2.03,1.06-4.12,2.02-6.23,2.96l1.94,7.28
	c0.82,3.08,1.65,6.17,2.47,9.26c-2.93,1.08-5.87,2.11-8.86,2.95c-2.99,0.84-6.03,1.49-9.09,2.1c-0.03,0.01-0.06,0.01-0.09,0.02
	c-0.62-2.33-1.24-4.66-1.86-6.99c-0.62-2.33-1.24-4.66-1.86-6.99c0.03-0.01,0.06-0.01,0.09-0.02c1.7-0.3,3.39-0.61,5.06-0.99
	c1.67-0.38,3.33-0.83,4.98-1.29l0.03-0.01c0.26,0.99,0.53,1.98,0.79,2.96c0.26,0.99,0.53,1.98,0.79,2.96l-0.03,0.01
	c-1.32,0.38-2.65,0.73-3.99,1.07c0.18,0.66,0.35,1.32,0.53,1.98l0,0c1.01-0.25,2.02-0.51,3.02-0.79c1-0.28,2-0.59,2.99-0.9
	c-0.46-1.74-0.93-3.47-1.39-5.21c-0.46-1.73-0.92-3.47-1.39-5.2c-2.33,0.72-4.67,1.41-7.06,1.94c-2.24,0.5-4.5,0.88-6.78,1.23
	l0,7.53c0,3.19,0,6.39,0,9.59c-3.11,0.28-6.21,0.51-9.32,0.55c-3.11,0.03-6.21-0.13-9.32-0.33c-0.03,0-0.06,0-0.09,0
	c0-2.41,0-4.83,0-7.24c0-2.41,0-4.83,0-7.24c0.03,0,0.06,0,0.09,0.01c1.72,0.16,3.43,0.29,5.14,0.36c1.71,0.07,3.43,0.07,5.14,0.05
	l0.03,0c0,1.02,0,2.05,0,3.07c0,1.02,0,2.05,0,3.07l-0.03,0c-1.38,0.02-2.75,0.02-4.13-0.01c0,0.68,0,1.36,0,2.05v0
	c1.04,0.02,2.08,0.03,3.12,0.02c1.04-0.01,2.08-0.05,3.12-0.09c0-1.8,0-3.59,0-5.39c0-1.8,0-3.59,0-5.39
	c-2.44,0.09-4.88,0.15-7.31,0.04c-2.29-0.1-4.57-0.32-6.86-0.57l-1.94,7.28c-0.82,3.08-1.64,6.17-2.47,9.26
	c-3.07-0.54-6.13-1.12-9.14-1.9c-3.01-0.78-5.97-1.74-8.92-2.75c-0.03-0.01-0.06-0.02-0.08-0.03c0.62-2.33,1.24-4.66,1.86-6.99
	c0.62-2.33,1.24-4.66,1.86-6.99c0.03,0.01,0.06,0.02,0.08,0.03c1.62,0.6,3.24,1.18,4.88,1.69c1.64,0.51,3.29,0.96,4.96,1.38
	l0.03,0.01c-0.26,0.99-0.53,1.98-0.79,2.96c-0.26,0.99-0.53,1.98-0.79,2.96l-0.03-0.01c-1.33-0.34-2.66-0.7-3.99-1.08
	c-0.18,0.66-0.35,1.32-0.53,1.98l0,0c1,0.29,2,0.57,3.01,0.83c1.01,0.26,2.02,0.49,3.04,0.72c0.46-1.74,0.92-3.47,1.39-5.21
	c0.46-1.73,0.92-3.47,1.39-5.2c-2.38-0.55-4.75-1.13-7.08-1.87c-2.18-0.69-4.33-1.5-6.48-2.34l-3.74,6.52
	c-1.59,2.76-3.18,5.53-4.77,8.3c-2.83-1.32-5.63-2.68-8.34-4.21c-2.71-1.53-5.32-3.24-7.91-4.98c-0.03-0.02-0.05-0.03-0.07-0.05
	c1.2-2.09,2.4-4.18,3.6-6.27c1.2-2.09,2.4-4.18,3.6-6.27c0.02,0.01,0.05,0.03,0.07,0.05c1.41,1,2.82,1.98,4.27,2.9
	c1.45,0.92,2.93,1.78,4.43,2.62l0.03,0.01c-0.51,0.89-1.02,1.77-1.52,2.66c-0.51,0.88-1.02,1.77-1.53,2.66l-0.03-0.01
	c-1.2-0.67-2.39-1.37-3.58-2.08c-0.34,0.59-0.68,1.18-1.02,1.78l0,0c0.89,0.54,1.79,1.08,2.69,1.59c0.91,0.51,1.83,1,2.75,1.49
	c0.89-1.56,1.79-3.11,2.68-4.67c0.89-1.56,1.79-3.11,2.68-4.67c-2.16-1.15-4.3-2.33-6.36-3.64c-1.93-1.24-3.8-2.58-5.66-3.95
	l-5.3,5.33c-2.25,2.26-4.49,4.52-6.74,6.78c-2.39-2.01-4.75-4.05-6.97-6.24c-2.22-2.18-4.3-4.51-6.36-6.87
	c-0.02-0.02-0.04-0.04-0.06-0.07c1.7-1.71,3.39-3.41,5.09-5.12c1.7-1.71,3.39-3.41,5.09-5.12c0.02,0.02,0.04,0.04,0.06,0.07
	c1.1,1.33,2.22,2.65,3.38,3.92c1.16,1.27,2.38,2.49,3.6,3.69l0.02,0.02c-0.72,0.72-1.44,1.45-2.16,2.17
	c-0.72,0.72-1.44,1.45-2.16,2.17l-0.02-0.02c-0.99-0.96-1.96-1.95-2.92-2.94c-0.48,0.48-0.96,0.97-1.44,1.45l0,0
	c0.72,0.75,1.45,1.51,2.19,2.24c0.74,0.73,1.51,1.44,2.27,2.15c1.26-1.27,2.53-2.54,3.79-3.81c1.26-1.27,2.53-2.54,3.79-3.81
	c-1.79-1.67-3.55-3.37-5.2-5.17c-1.55-1.7-3.01-3.48-4.45-5.28l-6.49,3.77c-2.75,1.6-5.5,3.2-8.26,4.8
	c-1.79-2.57-3.55-5.15-5.13-7.84c-1.58-2.69-2.99-5.48-4.37-8.29c-0.01-0.03-0.03-0.05-0.04-0.08c2.08-1.21,4.16-2.41,6.23-3.62
	c2.08-1.21,4.16-2.41,6.23-3.62c0.01,0.03,0.03,0.05,0.04,0.08c0.72,1.57,1.46,3.13,2.26,4.66c0.8,1.53,1.65,3.02,2.53,4.5
	l0.02,0.03c-0.88,0.51-1.76,1.02-2.64,1.53c-0.88,0.51-1.76,1.02-2.64,1.54l-0.02-0.03c-0.71-1.19-1.39-2.39-2.06-3.6
	c-0.59,0.34-1.18,0.68-1.77,1.02l0,0c0.5,0.92,1.01,1.83,1.54,2.73c0.53,0.9,1.08,1.79,1.64,2.67c1.55-0.9,3.1-1.8,4.64-2.69
	c1.55-0.9,3.09-1.8,4.64-2.69c-1.3-2.08-2.56-4.18-3.69-6.35c-1.06-2.04-2.01-4.14-2.94-6.26l-7.24,1.95
	c-3.07,0.83-6.14,1.65-9.21,2.48c-1.07-2.94-2.1-5.9-2.94-8.91c-0.84-3.01-1.48-6.07-2.09-9.14c-0.01-0.03-0.01-0.06-0.02-0.09
	c2.32-0.62,4.64-1.25,6.95-1.87c2.32-0.63,4.64-1.25,6.95-1.87c0.01,0.03,0.01,0.06,0.02,0.09c0.29,1.71,0.61,3.41,0.98,5.09
	c0.38,1.68,0.82,3.35,1.29,5.01l0.01,0.03c-0.98,0.26-1.97,0.53-2.94,0.79c-0.98,0.26-1.97,0.53-2.95,0.79l-0.01-0.03
	c-0.38-1.33-0.73-2.67-1.06-4.01c-0.66,0.18-1.31,0.35-1.97,0.53l0,0c0.25,1.02,0.51,2.03,0.79,3.04c0.28,1.01,0.59,2.01,0.9,3.01
	c1.73-0.46,3.45-0.93,5.18-1.39c1.72-0.46,3.45-0.93,5.17-1.39c-0.72-2.35-1.4-4.7-1.93-7.1c-0.5-2.25-0.87-4.53-1.23-6.81h-7.49
	c-3.18,0-6.36,0-9.53,0c-0.28-3.12-0.51-6.25-0.54-9.37c-0.03-3.12,0.13-6.25,0.33-9.37c0-0.03,0-0.06,0-0.09c2.4,0,4.8,0,7.2,0
	c2.4,0,4.8,0,7.2,0c0,0.03,0,0.06,0,0.09c-0.16,1.73-0.29,3.45-0.36,5.17c-0.07,1.72-0.07,3.45-0.04,5.17l0,0.03
	c-1.02,0-2.03,0-3.05,0c-1.02,0-2.04,0-3.05,0l0-0.03c-0.02-1.38-0.02-2.77,0.01-4.15c-0.68,0-1.36,0-2.04,0h0
	c-0.02,1.05-0.03,2.1-0.02,3.14c0.01,1.05,0.05,2.09,0.09,3.14c1.79,0,3.57,0,5.36,0c1.78,0,3.57,0,5.36,0
	c-0.09-2.45-0.15-4.91-0.04-7.36c0.1-2.3,0.32-4.6,0.57-6.9l-7.23-1.95c-3.07-0.83-6.14-1.65-9.21-2.48
	c0.53-3.09,1.11-6.17,1.89-9.19c0.77-3.03,1.73-6,2.73-8.97c0.01-0.03,0.02-0.06,0.03-0.08c2.32,0.62,4.64,1.25,6.95,1.87
	c2.32,0.63,4.64,1.25,6.95,1.87c-0.01,0.03-0.02,0.06-0.03,0.08c-0.59,1.63-1.17,3.25-1.68,4.9c-0.51,1.65-0.95,3.31-1.37,4.98
	l-0.01,0.03c-0.98-0.26-1.96-0.53-2.94-0.79c-0.98-0.26-1.97-0.53-2.95-0.79l0.01-0.03c0.33-1.34,0.7-2.68,1.07-4.01
	c-0.66-0.18-1.31-0.35-1.97-0.53l0,0c-0.29,1.01-0.57,2.02-0.83,3.03c-0.26,1.01-0.49,2.03-0.72,3.06c1.73,0.46,3.45,0.93,5.18,1.39
	c1.72,0.46,3.45,0.93,5.17,1.39c0.54-2.39,1.12-4.78,1.86-7.12c0.69-2.2,1.5-4.36,2.32-6.52l-6.49-3.77c-2.75-1.6-5.5-3.2-8.26-4.79
	c1.31-2.84,2.66-5.67,4.19-8.39c1.52-2.72,3.22-5.35,4.95-7.95c0.01-0.02,0.03-0.05,0.05-0.07c2.08,1.21,4.16,2.41,6.23,3.62
	c2.08,1.21,4.16,2.41,6.23,3.62c-0.01,0.03-0.03,0.05-0.05,0.07c-0.99,1.42-1.97,2.84-2.89,4.3c-0.92,1.46-1.77,2.95-2.61,4.46
	l-0.01,0.03c-0.88-0.51-1.76-1.02-2.64-1.53c-0.88-0.51-1.76-1.02-2.64-1.53l0.01-0.03c0.67-1.21,1.36-2.41,2.07-3.6
	c-0.59-0.34-1.18-0.68-1.77-1.02l0,0c-0.54,0.9-1.07,1.8-1.58,2.71c-0.51,0.91-1,1.84-1.48,2.77c1.55,0.9,3.09,1.8,4.64,2.69
	c1.55,0.9,3.09,1.8,4.64,2.69c1.14-2.17,2.31-4.32,3.62-6.39c1.23-1.94,2.57-3.82,3.92-5.69l-5.3-5.33
	c-2.25-2.26-4.49-4.52-6.74-6.78c2-2.41,4.03-4.78,6.21-7.01c2.17-2.23,4.48-4.33,6.83-6.39c0.02-0.02,0.04-0.04,0.06-0.06
	c1.7,1.71,3.39,3.41,5.09,5.12c1.7,1.71,3.39,3.41,5.09,5.12c-0.02,0.02-0.04,0.04-0.06,0.06c-1.32,1.11-2.63,2.23-3.89,3.4
	c-1.26,1.17-2.47,2.39-3.67,3.62l-0.02,0.02c-0.72-0.72-1.44-1.45-2.16-2.17c-0.72-0.72-1.44-1.45-2.16-2.17l0.02-0.02
	c0.96-0.99,1.93-1.97,2.93-2.93c-0.48-0.48-0.96-0.97-1.44-1.45l0,0c-0.75,0.73-1.5,1.46-2.22,2.2c-0.73,0.75-1.44,1.52-2.14,2.28
	c1.26,1.27,2.53,2.54,3.79,3.81c1.26,1.27,2.53,2.54,3.79,3.81c1.66-1.8,3.35-3.57,5.15-5.23c1.69-1.56,3.46-3.02,5.25-4.47
	l-3.75-6.52c-1.59-2.77-3.18-5.54-4.77-8.31c2.55-1.8,5.12-3.57,7.8-5.16c2.67-1.59,5.44-3.01,8.24-4.4
	c0.03-0.01,0.05-0.03,0.08-0.04c1.2,2.09,2.4,4.18,3.6,6.27c1.2,2.09,2.4,4.18,3.6,6.27c-0.03,0.01-0.05,0.03-0.08,0.04
	c-1.56,0.73-3.12,1.47-4.64,2.27c-1.52,0.8-3,1.66-4.48,2.55l-0.03,0.02c-0.51-0.89-1.02-1.77-1.52-2.66
	c-0.51-0.88-1.02-1.77-1.53-2.66l0.03-0.02c1.18-0.71,2.38-1.4,3.58-2.07c-0.34-0.59-0.68-1.18-1.02-1.78l0,0
	c-0.91,0.51-1.82,1.02-2.72,1.55c-0.89,0.53-1.78,1.09-2.66,1.65c0.89,1.56,1.79,3.11,2.68,4.67c0.89,1.55,1.79,3.11,2.68,4.66
	c2.07-1.31,4.15-2.58,6.32-3.71c2.03-1.06,4.12-2.02,6.23-2.95l-1.94-7.27c-0.82-3.09-1.64-6.17-2.47-9.26
	c2.93-1.08,5.87-2.11,8.86-2.95c2.99-0.84,6.03-1.49,9.09-2.1c0.03-0.01,0.06-0.01,0.09-0.02c0.62,2.33,1.24,4.66,1.86,6.99
	c0.62,2.33,1.24,4.66,1.86,6.99c-0.03,0.01-0.06,0.01-0.09,0.02c-1.7,0.3-3.39,0.61-5.06,0.99c-1.67,0.38-3.33,0.83-4.98,1.3
	l-0.03,0.01c-0.26-0.99-0.53-1.98-0.79-2.96c-0.26-0.99-0.53-1.98-0.79-2.97l0.03-0.01c1.32-0.38,2.66-0.73,3.99-1.07
	c-0.18-0.66-0.35-1.32-0.53-1.98l0,0c-1.01,0.25-2.02,0.51-3.02,0.79c-1,0.28-2,0.59-2.99,0.9c0.46,1.74,0.92,3.47,1.39,5.21
	c0.46,1.73,0.92,3.47,1.39,5.2c2.33-0.72,4.67-1.41,7.06-1.94c2.24-0.5,4.5-0.88,6.77-1.23v-7.53
	C92.12,14.46,92.12,11.26,92.12,8.07L92.12,8.07z"/>
<path class="st90" d="M102.56,32.3c38.9,0,70.44,31.72,70.44,70.84s-31.54,70.84-70.44,70.84c-38.9,0-70.44-31.72-70.44-70.84
	S63.66,32.3,102.56,32.3L102.56,32.3z"/>
<path class="st91" d="M102.56,35c37.42,0,67.76,30.51,67.76,68.14c0,6.67-0.96,13.12-2.74,19.22l-0.11-0.17
	c0,0-3.63,13.73-28.35,33.92c-24.73,20.19-62.69,0.39-69.61-16.67c-6.93-17.06-15.93-14.78-24.67-24.91
	c-6.93-8.03-5.31-30-4.35-38.75C50.97,51.77,74.82,35,102.56,35L102.56,35z"/>
<path class="st92" d="M136.43,144.58c-7.09-2.9-9.04-14.64-4.36-26.24c4.68-11.6,14.23-18.65,21.32-15.75
	c7.09,2.9,9.04,14.64,4.36,26.24C153.06,140.43,143.52,147.48,136.43,144.58L136.43,144.58z"/>
<path class="st93" d="M140.44,143.33c8.88-4.19,14.63-14.85,16.24-24.17c1.04-6.02,0.18-10.57-4.75-13.96
	c1.65,0.9,2.93,1.7,4.03,3.32C163.8,120.07,153.29,138.83,140.44,143.33L140.44,143.33z"/>
<path class="st92" d="M164.07,89.59c-3.08,7.04-14.81,8.67-26.2,3.63c-11.39-5.04-18.13-14.83-15.05-21.88
	c3.08-7.04,14.81-8.67,26.2-3.63C160.41,72.75,167.15,82.55,164.07,89.59L164.07,89.59z"/>
<path class="st93" d="M162.94,85.53c-3.92-9.05-14.34-15.13-23.56-17.02c-5.95-1.22-10.5-0.48-14.01,4.38
	c0.94-1.64,1.78-2.9,3.41-3.95C140.49,61.38,158.83,72.48,162.94,85.53L162.94,85.53z"/>
<path class="st90" d="M65.82,132.28c-2.9-4.38-6.05-6.71-9.32-8.77c-0.86-2.84-0.57-5.58,1.68-6.73c5.16-2.62,9.48,0.9,5.16-5.25
	c-4.32-6.15-6.57-6.83-4.32-13.69c2.25-6.86,8.24-20.88,7.95-23.68c-0.29-2.8-3.63-5.18,7.25-7.05
	c10.88-1.87,26.64-10.43,29.13-12.12c2.49-1.69,38.92,0,38.92,0s5.03,3.39,3.82,10.25c-1.21,6.86-10.73,9.28-20.39,8.07
	c-9.66-1.21-16.98-7.38-16.98-7.38s-4.02,8.75-14.7,10.15c-10.68,1.4-19.75,4.68-18.71,7.76c1.04,3.08,7.56,9.09,18.18,3.08
	c10.62-6.01,25.18-8.03,27.15-3.08c1.97,4.95-0.01,0.85,12.81,0.42c12.82-0.42,24.77-2.17,23.44,2.65c-1.33,4.82-6.3,4.14-3.81,12.9
	c2.49,8.76,3.94,17.13-3.44,19.75c-7.37,2.62-10.44-5.58-14.22-2.79c-3.78,2.79,1.82,9.07-9.72,10.82
	c-11.54,1.75-22.36-0.08-22.36,1.36c0,1.43,3.42,8.73-0.81,13.28c-4.22,4.56,20.16-6.64,30.92-6.38
	c10.76,0.26,14.51,5.47,12.63,11.72c-1.88,6.25-35.52,20.32-47.77,11.98c-12.26-8.33-10.75-10.68-16.92-18.75
	C76.01,133.73,70.78,133.26,65.82,132.28L65.82,132.28z"/>
<path class="st94" d="M143.64,141.27c2.77,7.17-4.39,16.66-15.99,21.19c-11.6,4.53-23.25,2.39-26.02-4.79
	c-2.77-7.17,4.39-16.66,15.99-21.19C129.22,131.95,140.87,134.09,143.64,141.27L143.64,141.27z"/>
<path class="st94" d="M97.27,126.95c6.02,4.75,4.68,16.58-3.01,26.43c-7.68,9.85-18.79,13.98-24.81,9.23
	c-6.02-4.75-4.68-16.58,3.01-26.43C80.14,126.33,91.25,122.2,97.27,126.95L97.27,126.95z"/>
<path class="st94" d="M67.49,70.95c6.02,4.75,4.68,16.58-3.01,26.43c-7.68,9.85-18.79,13.98-24.81,9.23s-4.68-16.58,3.01-26.43
	C50.36,70.34,61.46,66.2,67.49,70.95L67.49,70.95z"/>
<path class="st94" d="M144.16,64.11c-3.08,7.04-14.81,8.67-26.2,3.64c-11.39-5.04-18.13-14.83-15.05-21.88
	c3.08-7.04,14.81-8.67,26.2-3.63C140.5,47.27,147.24,57.07,144.16,64.11L144.16,64.11z"/>
<path class="st95" d="M141.7,141.27c2.77,7.17-4.39,16.66-15.99,21.19c-11.6,4.53-23.25,2.39-26.02-4.79
	c-2.77-7.17,4.39-16.66,15.99-21.19C127.28,131.95,138.93,134.09,141.7,141.27L141.7,141.27z"/>
<path class="st95" d="M95.33,126.63c6.02,4.75,4.68,16.58-3.01,26.43c-7.68,9.85-18.79,13.98-24.81,9.23
	c-6.02-4.75-4.68-16.58,3.01-26.43C78.2,126.01,89.31,121.88,95.33,126.63L95.33,126.63z"/>
<path class="st96" d="M65.75,69.08c6.02,4.75,4.67,16.58-3.01,26.43c-7.68,9.85-18.79,13.98-24.81,9.23
	c-6.02-4.75-4.67-16.58,3.01-26.43C48.62,68.47,59.72,64.33,65.75,69.08L65.75,69.08z"/>
<path class="st96" d="M145.37,62.42c-3.08,7.04-14.81,8.67-26.2,3.63c-11.39-5.04-18.13-14.83-15.05-21.88
	c3.08-7.04,14.81-8.67,26.2-3.63C141.71,45.58,148.45,55.38,145.37,62.42L145.37,62.42z"/>
<polygon class="st3" points="59.03,120.77 127.61,114.16 128.01,118.37 59.43,124.98 59.03,120.77 "/>
<polygon class="st3" points="56.89,126.18 125.47,119.57 125.87,123.78 57.29,130.39 56.89,126.18 "/>
<polygon class="st76" points="56.74,118.14 125.32,111.53 125.72,115.74 57.15,122.35 56.74,118.14 "/>
<polygon class="st76" points="58.19,123.39 126.77,116.78 127.17,120.99 58.59,127.6 58.19,123.39 "/>
<polygon class="st57" points="126.66,88.85 137.86,96.66 144.23,118.21 131.25,108.97 126.66,88.85 "/>
<path class="st57" d="M126.24,85.26l-14.76,17.06l8.29,3.06l10.1-12.83C129.86,92.55,126.04,85.26,126.24,85.26L126.24,85.26z"/>
<path class="st97" d="M106.94,76.44c-0.01,0.07-2.74,25.79,0.68,36.67l-4.72,1.05c-3.64-11.58-0.83-38.01-0.82-38.08L106.94,76.44
	L106.94,76.44z"/>
<path class="st56" d="M119.69,96.23l18.58,14.46l-10.36,3.84l-11.85-9.15C116.06,105.38,119.82,96.23,119.69,96.23L119.69,96.23z"/>
<path class="st56" d="M131.51,85.33l24.09-1.5l-5.5,8.59l-24.22,1.3C125.87,93.73,131.44,85.4,131.51,85.33L131.51,85.33z"/>
<path class="st56" d="M153.1,94.92l-6.67,22.65l-7.31-8.32l4.19-14.42C143.31,94.83,153.15,95.04,153.1,94.92L153.1,94.92z"/>
<path class="st12" d="M71.91,161.48c9.7-1.54,18.17-10.15,22.3-18.65c2.67-5.48,3.1-10.1-0.69-14.74c1.34,1.33,2.34,2.46,2.95,4.32
	C100.8,145.7,85.51,160.77,71.91,161.48L71.91,161.48z"/>
<path class="st12" d="M102.04,158.8c8.93,4.1,20.72,1.6,28.83-3.2c5.23-3.1,8.13-6.7,7.51-12.68c0.39,1.85,0.61,3.35,0.09,5.23
	C134.79,161.66,113.77,165.74,102.04,158.8L102.04,158.8z"/>
<path class="st94" d="M105.84,59.31c0.54,7.68-9.08,14.62-21.49,15.51C71.93,75.7,61.43,70.2,60.89,62.52
	c-0.54-7.68,9.08-14.62,21.49-15.51C94.79,46.13,105.29,51.63,105.84,59.31L105.84,59.31z"/>
<path class="st95" d="M106.25,56.5c0.54,7.68-9.08,14.62-21.49,15.51C72.35,72.9,61.84,67.39,61.3,59.72
	c-0.54-7.68,9.08-14.62,21.49-15.51C95.21,43.32,105.71,48.83,106.25,56.5L106.25,56.5z"/>
<path class="st12" d="M63.79,62.24c7.61,6.23,19.65,6.82,28.7,4.24c5.84-1.66,9.55-4.42,10.45-10.36c-0.09,1.89-0.26,3.39-1.23,5.09
	C94.75,73.33,73.39,71.94,63.79,62.24L63.79,62.24z"/>
<path class="st95" d="M62.57,68.98c-9.72,1.34-18.36,9.79-22.67,18.21c-2.78,5.43-3.3,10.04,0.4,14.75
	c-1.31-1.35-2.29-2.5-2.86-4.37C33.37,84.18,48.96,69.42,62.57,68.98L62.57,68.98z"/>
<path class="st95" d="M144.23,58.36c-3.92-9.05-14.34-15.13-23.56-17.02c-5.95-1.22-10.5-0.48-14.01,4.38
	c0.94-1.64,1.78-2.9,3.41-3.95C121.79,34.21,140.13,45.31,144.23,58.36L144.23,58.36z"/>
<path class="st98" d="M60.86,100.8l59.83-35.55l4.05,4.69c0,0-43.25,26.31-51.15,30.86c-7.9,4.56-9.45,7.79-9.45,7.79
	S60.86,101.32,60.86,100.8L60.86,100.8z"/>
<path class="st98" d="M65.69,111.37c0,0,8.55-5.42,16.06-12.53c7.51-7.11,38.95-25.53,38.95-25.53l2.84,2.77
	c0,0-32.78,18.76-36.48,25.63c-3.69,6.87-17.74,12.45-17.74,12.45L65.69,111.37L65.69,111.37z"/>
<path class="st5" d="M65.69,103.73l5.56,5.18c0,0,14.85-12.34,24.94-17.17c10.09-4.82,30.98-14.26,30.98-14.26l-3.64-4.4
	C123.53,73.07,96.43,80.06,65.69,103.73L65.69,103.73z"/>
<path class="st5" d="M75.47,122.19c0,0,9.77-13.42,20.96-24.35c11.19-10.93,30.74-22.94,30.74-22.94l-2.43-4.23
	c0,0-29.72,21.1-40.34,31.65c-10.62,10.55-14.89,15.89-14.89,15.89L75.47,122.19L75.47,122.19z"/>
<path class="st5" d="M63.35,88.78c0,0,24.29-7.15,37.68-11.31c13.39-4.16,23.71-6.8,23.71-6.8v4.23c0,0-33.73,10.63-44.48,16.08
	c-10.75,5.45-14.57,6.86-14.57,6.86L63.35,88.78L63.35,88.78z"/>
<path class="st8" d="M66.04,90.99c0,0,9.26-3.62,22.13-7.15c12.87-3.53,35.36-10.52,35.36-10.52s-20.17,7.26-27.77,9.71
	c-7.6,2.45-25.48,6.81-27.78,7.97C65.69,92.15,66.04,90.99,66.04,90.99L66.04,90.99z"/>
<path class="st8" d="M69.51,104.69c0,0,11.92-8.95,21.72-14.9c9.8-5.95,13.09-7.41,13.09-7.41S84.78,95.42,80.53,97.84
	c-4.25,2.42-11.02,7.54-11.02,7.54S69.51,104.62,69.51,104.69L69.51,104.69z M71.58,106c0,0,8.74-6.75,15.34-10.88
	c6.6-4.13,11.65-7.14,11.65-7.14S82.39,98.35,80.61,99.82c-1.78,1.47-9.36,6.89-9.36,6.89S71.71,105.96,71.58,106L71.58,106z"/>
<path class="st8" d="M75.84,114.53c0,0,7.43-8.99,14.41-15.89c6.98-6.9,18.21-14.38,18.21-14.38s-13.99,11.7-18.94,16.82
	c-4.95,5.12-10.66,14.1-11.11,13.9c-0.44-0.2-1.34-0.1-0.38-1.14c0.95-1.04,5.6-6.9,5.46-6.82c-0.14,0.08-6.56,7.31-7.1,7.96
	C75.84,115.63,75.84,114.45,75.84,114.53L75.84,114.53z"/>
<path class="st99" d="M128.78,76.74l-1.42,1.26c-14.62,12.97-22.25,19.75-28.92,39.56l-4.63-1.58
	c7.08-21.04,15.06-28.12,30.32-41.66l1.42-1.26L128.78,76.74L128.78,76.74z"/>
<path class="st97" d="M98.54,78.15c-0.01,0.07-3.55,24.41,5.6,37.2l-3.96,2.86c-10.31-14.42-6.49-40.66-6.48-40.74L98.54,78.15
	L98.54,78.15z"/>
<path class="st99" d="M120.67,76.5c-0.06,0.07-20.11,23.65-24.87,36.29l-4.57-1.73c5.06-13.46,25.67-37.68,25.73-37.75L120.67,76.5
	L120.67,76.5z"/>
<path class="st97" d="M119.58,74.68c-0.03,0.07-9.05,24.29-8.44,35.69l-4.83-0.17c-0.65-12.13,8.63-37.01,8.65-37.09L119.58,74.68
	L119.58,74.68z"/>
<path class="st78" d="M80.12,112.25c0.12,0.43-0.45,0.96-1.28,1.2c-0.83,0.24-1.6,0.09-1.72-0.34c-0.12-0.43,0.45-0.96,1.28-1.2
	C79.23,111.67,80,111.82,80.12,112.25L80.12,112.25z M109.49,80.93c0.12-0.43-0.45-0.96-1.28-1.2c-0.83-0.24-1.6-0.09-1.72,0.34
	c-0.12,0.43,0.45,0.96,1.28,1.2C108.6,81.51,109.37,81.35,109.49,80.93L109.49,80.93z M121.46,80.33c0.12-0.43-0.45-0.96-1.28-1.2
	c-0.83-0.24-1.6-0.09-1.72,0.34c-0.12,0.43,0.45,0.96,1.28,1.2C120.56,80.91,121.33,80.76,121.46,80.33L121.46,80.33z M113.51,88.25
	c0.3,0.32,1.05,0.11,1.68-0.48c0.63-0.59,0.89-1.33,0.59-1.66c-0.3-0.32-1.05-0.11-1.68,0.49
	C113.47,87.18,113.21,87.92,113.51,88.25L113.51,88.25z M112.01,99.63c0.3,0.32,1.05,0.11,1.68-0.49c0.63-0.59,0.89-1.33,0.59-1.66
	c-0.3-0.32-1.05-0.11-1.68,0.49C111.98,98.56,111.71,99.31,112.01,99.63L112.01,99.63z M107.51,94.88c0.43-0.11,0.61-0.87,0.4-1.71
	c-0.21-0.84-0.72-1.43-1.15-1.33c-0.43,0.11-0.61,0.87-0.4,1.71C106.57,94.39,107.08,94.99,107.51,94.88L107.51,94.88z
	 M91.38,101.87c0.12,0.43-0.45,0.96-1.28,1.2c-0.83,0.24-1.6,0.09-1.72-0.34c-0.12-0.43,0.45-0.96,1.28-1.2
	C90.49,101.29,91.26,101.44,91.38,101.87L91.38,101.87z M103.35,102.46c0.12,0.43-0.45,0.96-1.28,1.2c-0.83,0.24-1.6,0.09-1.72-0.34
	c-0.12-0.43,0.45-0.96,1.28-1.2C102.46,101.89,103.23,102.04,103.35,102.46L103.35,102.46z M95.4,94.55
	c0.3-0.32,1.05-0.11,1.68,0.49c0.63,0.59,0.89,1.33,0.59,1.66c-0.3,0.32-1.05,0.11-1.68-0.49C95.36,95.62,95.1,94.87,95.4,94.55
	L95.4,94.55z M93.9,83.17c0.3-0.32,1.05-0.11,1.68,0.49c0.63,0.59,0.89,1.33,0.59,1.66c-0.3,0.32-1.05,0.11-1.68-0.49
	C93.87,84.23,93.6,83.49,93.9,83.17L93.9,83.17z M89.4,87.92c0.43,0.11,0.61,0.87,0.4,1.71c-0.21,0.84-0.72,1.43-1.15,1.33
	c-0.43-0.11-0.61-0.87-0.4-1.71C88.46,88.4,88.97,87.81,89.4,87.92L89.4,87.92z M76.86,75.36c0.12-0.43-0.45-0.96-1.28-1.2
	c-0.83-0.24-1.6-0.09-1.72,0.34c-0.12,0.43,0.45,0.96,1.28,1.2C75.97,75.94,76.74,75.79,76.86,75.36L76.86,75.36z M88.82,74.77
	c0.12-0.43-0.45-0.96-1.28-1.2c-0.83-0.24-1.6-0.09-1.72,0.34c-0.12,0.43,0.45,0.96,1.28,1.2C87.93,75.35,88.7,75.19,88.82,74.77
	L88.82,74.77z M80.88,82.68c0.3,0.32,1.05,0.11,1.68-0.49c0.63-0.59,0.89-1.33,0.59-1.66c-0.3-0.32-1.05-0.11-1.68,0.49
	C80.84,81.62,80.58,82.36,80.88,82.68L80.88,82.68z M79.38,94.07c0.3,0.32,1.05,0.11,1.68-0.49c0.63-0.59,0.89-1.33,0.59-1.66
	c-0.3-0.32-1.05-0.11-1.68,0.49C79.34,93,79.08,93.74,79.38,94.07L79.38,94.07z M74.88,89.32c0.43-0.11,0.61-0.87,0.4-1.71
	c-0.21-0.84-0.72-1.43-1.15-1.33c-0.43,0.11-0.61,0.87-0.4,1.71C73.93,88.83,74.45,89.42,74.88,89.32L74.88,89.32z M116.03,116.3
	c0.12,0.43-0.45,0.96-1.28,1.2c-0.83,0.24-1.6,0.09-1.72-0.34c-0.12-0.43,0.45-0.96,1.28-1.2
	C115.14,115.73,115.91,115.88,116.03,116.3L116.03,116.3z M127.99,116.9c0.12,0.43-0.45,0.96-1.28,1.2
	c-0.83,0.24-1.6,0.09-1.72-0.34c-0.12-0.43,0.45-0.96,1.28-1.2C127.1,116.32,127.87,116.47,127.99,116.9L127.99,116.9z
	 M120.05,108.98c0.3-0.32,1.05-0.11,1.68,0.49c0.63,0.59,0.89,1.33,0.59,1.66c-0.3,0.32-1.05,0.11-1.68-0.49
	C120.01,110.05,119.74,109.31,120.05,108.98L120.05,108.98z M118.55,97.6c0.3-0.32,1.05-0.11,1.68,0.49
	c0.63,0.59,0.89,1.33,0.59,1.66c-0.3,0.32-1.05,0.11-1.68-0.48C118.51,98.67,118.25,97.92,118.55,97.6L118.55,97.6z M114.04,102.35
	c0.43,0.11,0.61,0.87,0.4,1.71c-0.21,0.84-0.72,1.43-1.15,1.33c-0.43-0.11-0.61-0.87-0.4-1.71
	C113.1,102.84,113.62,102.24,114.04,102.35L114.04,102.35z M92.08,112.85c0.12,0.43-0.45,0.96-1.28,1.2
	c-0.83,0.24-1.6,0.09-1.72-0.34c-0.12-0.43,0.45-0.96,1.28-1.2C91.19,112.27,91.96,112.42,92.08,112.85L92.08,112.85z M84.14,104.93
	c0.3-0.32,1.05-0.11,1.68,0.49c0.63,0.59,0.89,1.33,0.59,1.66c-0.3,0.32-1.05,0.11-1.68-0.49C84.1,106,83.83,105.26,84.14,104.93
	L84.14,104.93z M82.64,93.55c0.3-0.32,1.05-0.11,1.68,0.48c0.63,0.59,0.89,1.33,0.59,1.66c-0.3,0.32-1.05,0.11-1.68-0.49
	C82.6,94.61,82.34,93.87,82.64,93.55L82.64,93.55z M78.13,98.3c0.43,0.11,0.61,0.87,0.4,1.71c-0.21,0.84-0.72,1.43-1.15,1.33
	c-0.43-0.11-0.61-0.87-0.4-1.71C77.19,98.79,77.71,98.19,78.13,98.3L78.13,98.3z"/>
<path class="st71" d="M64.57,57.18c0,0,10.82-9.33,28.37-13.25c17.55-3.92,34.11,0.98,41.22,5.77c7.11,4.8,12.93,10.65,9.78,10.48
	c-3.15-0.16-3.16-6.42-8.81-5.49c-5.65,0.94-8.64,1.75-10.83-1.26c-2.18-3.01-1.7-3.82-4.85-4.88c-3.15-1.06-1.94-1.71-6.79-1.79
	c-4.85-0.08-11.88-0.49-8.32,2.44c3.56,2.93,9.54,2.28,2.99,4.63c-6.55,2.36-6.68-0.69-5.82-1.46c0.86-0.77,0.89-3.01-3.56-3.66
	c-4.45-0.65-4.93-2.76-8.08,0.24c-3.15,3.01-3.07,2.44-6.87,1.79c-3.8-0.65-8.16,1.46-11.23,3.66c-3.07,2.19-0.6,2.3-5.74,5.2
	C60.89,62.52,60.53,58.32,64.57,57.18L64.57,57.18z"/>
<path class="st71" d="M128.78,146.42c0,0,1.45,4.23,5.17,2.93c3.72-1.3,2.67-3.41,6.47-2.84c3.8,0.57,7.44-3.09,8.57-5.77
	c1.13-2.68,3.8-8.53,0.97-6.99c-2.83,1.54-2.51,3.41-5.33,6.01c-2.83,2.6-4.93-0.49-7.11,0.98c-2.18,1.46-1.78,3.25-3.72,4.88
	C131.85,147.23,126.52,141.05,128.78,146.42L128.78,146.42z M39.09,92.33c0,0-4.69,18.21,1.45,31.37
	c6.14,13.17,2.1,10.24,13.74,19.83c11.64,9.59,9.14-1.8,20.85,5.53c11.71,7.33,3.59,7.09,14.48,9.89
	c10.89,2.79,7.74,7.67,19.46,8.32c11.72,0.65,14.63-0.73,19.07-4.23c4.44-3.5,12.12-5.2,8.24-5.53c-3.88-0.33-6.06,0.57-12.45,2.76
	c-6.38,2.19-10.83-3.66-18.83-4.31c-8-0.65-10.02,2.19-13.5,0.24c-3.47-1.95-4.64,0.02-4.38-3.36c0.26-3.38-0.96-6.63-3.38-5.17
	c-2.42,1.46-3.07-1.95-6.95-3.49c-3.88-1.54-2.18-3.74-9.05-2.36c-6.87,1.38-8.65,2.52-11.4-1.06c-2.75-3.58-4.77-2.76-6.79-7.88
	c-2.02-5.12-6.3-7.23-5.01-10.24c1.29-3.01,5.82-0.57,5.58-3.98c-0.24-3.41,1.7-4.8-1.86-3.98c-3.56,0.81-7.76,3.82-6.71-0.65
	c1.05-4.47,0.81,0,1.37-5.36c0.57-5.36,0.97-5.36-0.4-7.15c-1.37-1.79-2.71-1.58-1.62-4.1c1.09-2.52,1.05-3.33,3.39-5.12
	c2.34-1.79,1.05-5.12-1.17-3.54C41.03,90.34,39.09,90.42,39.09,92.33L39.09,92.33z M143.49,126.43c-5.25,0-8.89,1.42-11.56,4.55
	c-2.66,3.13-6.06,3.09-7.35,2.93c-1.29-0.16,3.39,7.64,7.03,3.49c3.64-4.15,2.67-7.15,6.47-7.23c3.8-0.08,6.47,2.76,7.92,0.41
	C147.45,128.21,145.27,125.86,143.49,126.43L143.49,126.43z"/>
</svg>
