<?xml version="1.0" encoding="utf-8"?>
<!-- Generator: Adobe Illustrator 27.9.0, SVG Export Plug-In . SVG Version: 6.00 Build 0)  -->
<svg version="1.1" id="Layer_1" xmlns="http://www.w3.org/2000/svg" xmlns:xlink="http://www.w3.org/1999/xlink" x="0px" y="0px"
	 viewBox="0 0 205.78 206.94" style="enable-background:new 0 0 205.78 206.94;" xml:space="preserve">
<style type="text/css">
	.st0{fill-rule:evenodd;clip-rule:evenodd;fill:#F4F5F7;}
	.st1{fill-rule:evenodd;clip-rule:evenodd;fill:#E3E4E9;}
	.st2{fill-rule:evenodd;clip-rule:evenodd;fill:#FF6224;}
	.st3{fill-rule:evenodd;clip-rule:evenodd;fill:#ED4605;}
	.st4{fill-rule:evenodd;clip-rule:evenodd;fill:#A60603;}
	.st5{fill-rule:evenodd;clip-rule:evenodd;fill:#865334;}
	.st6{fill:#BD8F4F;}
	.st7{fill:#CEA265;}
	.st8{fill-rule:evenodd;clip-rule:evenodd;fill:#A66A44;}
	.st9{fill-rule:evenodd;clip-rule:evenodd;fill:#542E17;}
	.st10{fill-rule:evenodd;clip-rule:evenodd;fill:#663B20;}
	.st11{fill:#519A48;}
	.st12{fill-rule:evenodd;clip-rule:evenodd;fill:#F5DEB6;}
	.st13{fill:#FFF3DA;}
	.st14{fill:#FA692F;}
	.st15{fill:#EFD05C;}
	.st16{fill-rule:evenodd;clip-rule:evenodd;fill:#2E2D33;}
	.st17{fill-rule:evenodd;clip-rule:evenodd;fill:#4D4C52;}
	.st18{fill-rule:evenodd;clip-rule:evenodd;fill:#828287;}
	.st19{fill-rule:evenodd;clip-rule:evenodd;fill:#D23508;}
	.st20{fill-rule:evenodd;clip-rule:evenodd;fill:#BA2D06;}
	.st21{fill-rule:evenodd;clip-rule:evenodd;fill:#B52E1A;}
	.st22{fill-rule:evenodd;clip-rule:evenodd;fill:#E69B4C;}
	.st23{fill-rule:evenodd;clip-rule:evenodd;fill:#EB7538;}
	.st24{fill-rule:evenodd;clip-rule:evenodd;fill:#DB662C;}
	.st25{fill-rule:evenodd;clip-rule:evenodd;fill:#66666B;}
	.st26{fill-rule:evenodd;clip-rule:evenodd;fill:#DB5128;}
	.st27{fill-rule:evenodd;clip-rule:evenodd;fill:#F7B268;}
	.st28{fill-rule:evenodd;clip-rule:evenodd;fill:#CC3D26;}
	.st29{fill-rule:evenodd;clip-rule:evenodd;fill:#D9B685;}
	.st30{fill-rule:evenodd;clip-rule:evenodd;fill:#FFECD1;}
	.st31{fill-rule:evenodd;clip-rule:evenodd;fill:#358541;}
	.st32{fill-rule:evenodd;clip-rule:evenodd;fill:#26632F;}
	.st33{fill-rule:evenodd;clip-rule:evenodd;fill:#FFCCB5;}
	.st34{fill-rule:evenodd;clip-rule:evenodd;fill:#F2B922;}
	.st35{fill-rule:evenodd;clip-rule:evenodd;fill:#F3CD2E;}
	.st36{fill-rule:evenodd;clip-rule:evenodd;fill:#FAF19B;}
	.st37{fill-rule:evenodd;clip-rule:evenodd;fill:#F3FFD9;}
	.st38{fill-rule:evenodd;clip-rule:evenodd;fill:#D1E3AA;}
	.st39{fill-rule:evenodd;clip-rule:evenodd;fill:#85522E;}
	.st40{fill-rule:evenodd;clip-rule:evenodd;fill:#C77B45;}
	.st41{fill-rule:evenodd;clip-rule:evenodd;fill:#A36539;}
	.st42{fill-rule:evenodd;clip-rule:evenodd;}
	.st43{fill-rule:evenodd;clip-rule:evenodd;fill:#C7C7C9;}
	.st44{fill-rule:evenodd;clip-rule:evenodd;fill:#99441D;}
	.st45{fill-rule:evenodd;clip-rule:evenodd;fill:#6B2605;}
	.st46{fill-rule:evenodd;clip-rule:evenodd;fill:#AD5025;}
	.st47{fill-rule:evenodd;clip-rule:evenodd;fill:#C75925;}
	.st48{fill-rule:evenodd;clip-rule:evenodd;fill:#B5582D;}
	.st49{fill-rule:evenodd;clip-rule:evenodd;fill:#519A48;}
	.st50{fill-rule:evenodd;clip-rule:evenodd;fill:#FBD5B0;}
	.st51{fill:#E8BC90;}
	.st52{fill-rule:evenodd;clip-rule:evenodd;fill:#7A3312;}
	.st53{fill-rule:evenodd;clip-rule:evenodd;fill:#FA7D44;}
	.st54{fill-rule:evenodd;clip-rule:evenodd;fill:#FCE38F;}
	.st55{fill-rule:evenodd;clip-rule:evenodd;fill:#464AA6;}
	.st56{fill-rule:evenodd;clip-rule:evenodd;fill:#00C36C;}
	.st57{fill-rule:evenodd;clip-rule:evenodd;fill:#006B43;}
	.st58{fill-rule:evenodd;clip-rule:evenodd;fill:#C5C6C9;}
	.st59{fill-rule:evenodd;clip-rule:evenodd;fill:#FFC250;}
	.st60{fill-rule:evenodd;clip-rule:evenodd;fill:#FFD177;}
	.st61{fill:#FFE7B8;}
	.st62{fill-rule:evenodd;clip-rule:evenodd;fill:#3A3940;}
	.st63{fill-rule:evenodd;clip-rule:evenodd;fill:#F7C35B;}
	.st64{fill-rule:evenodd;clip-rule:evenodd;fill:#BF9A76;}
	.st65{fill-rule:evenodd;clip-rule:evenodd;fill:#452508;}
	.st66{fill-rule:evenodd;clip-rule:evenodd;fill:#BF8B24;}
	.st67{fill-rule:evenodd;clip-rule:evenodd;fill:#C44918;}
	.st68{fill-rule:evenodd;clip-rule:evenodd;fill:#E6AC37;}
	.st69{fill-rule:evenodd;clip-rule:evenodd;fill:#522C0B;}
	.st70{fill-rule:evenodd;clip-rule:evenodd;fill:#E6551C;}
	.st71{fill-rule:evenodd;clip-rule:evenodd;fill:#EDD4A1;}
	.st72{fill-rule:evenodd;clip-rule:evenodd;fill:#784212;}
	.st73{fill-rule:evenodd;clip-rule:evenodd;fill:#F77745;}
	.st74{fill-rule:evenodd;clip-rule:evenodd;fill:#66380F;}
	.st75{fill-rule:evenodd;clip-rule:evenodd;fill:#995B25;}
	.st76{fill-rule:evenodd;clip-rule:evenodd;fill:#FF4F0C;}
	.st77{fill-rule:evenodd;clip-rule:evenodd;fill:#FAD58C;}
	.st78{fill-rule:evenodd;clip-rule:evenodd;fill:#FFF3DA;}
	.st79{fill-rule:evenodd;clip-rule:evenodd;fill:#D3D4D6;}
	.st80{fill-rule:evenodd;clip-rule:evenodd;fill:#EEF5FB;}
	.st81{fill-rule:evenodd;clip-rule:evenodd;fill:#DAE3EB;}
	.st82{fill-rule:evenodd;clip-rule:evenodd;fill:#C8CED4;}
	.st83{fill-rule:evenodd;clip-rule:evenodd;fill:#CAD3DB;}
	.st84{fill-rule:evenodd;clip-rule:evenodd;fill:#FDD657;}
	.st85{fill-rule:evenodd;clip-rule:evenodd;fill:#F0C330;}
	.st86{fill-rule:evenodd;clip-rule:evenodd;fill:#315E38;}
	.st87{fill-rule:evenodd;clip-rule:evenodd;fill:#99AE4C;}
	.st88{fill-rule:evenodd;clip-rule:evenodd;fill:#D6E0E8;}
	.st89{fill-rule:evenodd;clip-rule:evenodd;fill:#FFD6C7;}
	.st90{fill-rule:evenodd;clip-rule:evenodd;fill:#BD7E18;}
	.st91{fill-rule:evenodd;clip-rule:evenodd;fill:#D5962F;}
	.st92{fill-rule:evenodd;clip-rule:evenodd;fill:#E6A947;}
	.st93{fill-rule:evenodd;clip-rule:evenodd;fill:#EDB356;}
	.st94{fill-rule:evenodd;clip-rule:evenodd;fill:#DBB97F;}
	.st95{fill-rule:evenodd;clip-rule:evenodd;fill:#EACB97;}
	.st96{fill-rule:evenodd;clip-rule:evenodd;fill:#E3BF81;}
	.st97{fill:#333333;}
	.st98{fill-rule:evenodd;clip-rule:evenodd;fill:#754528;}
	.st99{fill:#242323;}
	.st100{fill-rule:evenodd;clip-rule:evenodd;fill:#E3E4E6;}
	.st101{fill-rule:evenodd;clip-rule:evenodd;fill:#FC8A31;}
	.st102{fill-rule:evenodd;clip-rule:evenodd;fill:#E67017;}
	.st103{fill-rule:evenodd;clip-rule:evenodd;fill:#6BBA61;}
	.st104{fill-rule:evenodd;clip-rule:evenodd;fill:#FCAB6D;}
	.st105{fill-rule:evenodd;clip-rule:evenodd;fill:#FFBE8C;}
	.st106{fill:#006B43;}
	.st107{fill-rule:evenodd;clip-rule:evenodd;fill:#FA692F;}
	.st108{fill-rule:evenodd;clip-rule:evenodd;fill:#9E3E03;}
	.st109{fill-rule:evenodd;clip-rule:evenodd;fill:#C27100;}
	.st110{fill-rule:evenodd;clip-rule:evenodd;fill:#B34602;}
	.st111{fill-rule:evenodd;clip-rule:evenodd;fill:#D68007;}
	.st112{fill-rule:evenodd;clip-rule:evenodd;fill:#FDFEFF;}
	.st113{fill-rule:evenodd;clip-rule:evenodd;fill:#A66805;}
	.st114{fill-rule:evenodd;clip-rule:evenodd;fill:#CC4F00;}
	.st115{fill-rule:evenodd;clip-rule:evenodd;fill:#E68B09;}
	.st116{fill-rule:evenodd;clip-rule:evenodd;fill:#123618;}
	.st117{fill-rule:evenodd;clip-rule:evenodd;fill:#1C4622;}
	.st118{fill:#1C4622;}
	.st119{fill:#315E38;}
	.st120{fill-rule:evenodd;clip-rule:evenodd;fill:#D7D7DB;}
	.st121{fill-rule:evenodd;clip-rule:evenodd;fill:#FFFFFF;}
	.st122{fill-rule:evenodd;clip-rule:evenodd;fill:#C8CAC9;}
	.st123{fill-rule:evenodd;clip-rule:evenodd;fill:#B3B0A9;}
	.st124{fill-rule:evenodd;clip-rule:evenodd;fill:#E8DFE0;}
	.st125{fill-rule:evenodd;clip-rule:evenodd;fill:#AD8F8C;}
	.st126{fill-rule:evenodd;clip-rule:evenodd;fill:#BE9F9C;}
	.st127{fill-rule:evenodd;clip-rule:evenodd;fill:#5E4830;}
	.st128{fill:#96735A;}
	.st129{fill:#AD866B;}
	.st130{fill:#C5A189;}
	.st131{fill-rule:evenodd;clip-rule:evenodd;fill:#69523A;}
	.st132{fill-rule:evenodd;clip-rule:evenodd;fill:#DBDBDB;}
	.st133{fill-rule:evenodd;clip-rule:evenodd;fill:#F2F2F2;}
	.st134{fill-rule:evenodd;clip-rule:evenodd;fill:#6F952E;}
	.st135{fill-rule:evenodd;clip-rule:evenodd;fill:#D4E2A5;}
	.st136{fill-rule:evenodd;clip-rule:evenodd;fill:#C8D384;}
	.st137{fill-rule:evenodd;clip-rule:evenodd;fill:#F8FDFF;}
	.st138{fill-rule:evenodd;clip-rule:evenodd;fill:#F7D981;}
	.st139{fill-rule:evenodd;clip-rule:evenodd;fill:#FDE396;}
	.st140{fill-rule:evenodd;clip-rule:evenodd;fill:#E7A96E;}
	.st141{fill-rule:evenodd;clip-rule:evenodd;fill:#BA7E47;}
	.st142{fill:#FFFFFF;}
	.st143{fill-rule:evenodd;clip-rule:evenodd;fill:#C5A189;}
	.st144{fill-rule:evenodd;clip-rule:evenodd;fill:#951806;}
	.st145{fill-rule:evenodd;clip-rule:evenodd;fill:#801303;}
	.st146{fill-rule:evenodd;clip-rule:evenodd;fill:#D4510D;}
	.st147{fill-rule:evenodd;clip-rule:evenodd;fill:#E6C18A;}
	.st148{fill-rule:evenodd;clip-rule:evenodd;fill:#D59D5E;}
	.st149{fill-rule:evenodd;clip-rule:evenodd;fill:#D47507;}
	.st150{fill-rule:evenodd;clip-rule:evenodd;fill:#E38D2B;}
	.st151{fill-rule:evenodd;clip-rule:evenodd;fill:#BD6704;}
	.st152{fill-rule:evenodd;clip-rule:evenodd;fill:#E8891C;}
	.st153{fill-rule:evenodd;clip-rule:evenodd;fill:#D56400;}
	.st154{fill-rule:evenodd;clip-rule:evenodd;fill:#E6844E;}
	.st155{fill-rule:evenodd;clip-rule:evenodd;fill:#F1E2BB;}
	.st156{fill:#A33803;}
	.st157{fill-rule:evenodd;clip-rule:evenodd;fill:#A33803;}
	.st158{fill-rule:evenodd;clip-rule:evenodd;fill:#B54306;}
	.st159{fill-rule:evenodd;clip-rule:evenodd;fill:#EA6321;}
	.st160{fill-rule:evenodd;clip-rule:evenodd;fill:#821909;}
	.st161{fill-rule:evenodd;clip-rule:evenodd;fill:#C44B0E;}
	.st162{fill-rule:evenodd;clip-rule:evenodd;fill:#B3320E;}
	.st163{fill-rule:evenodd;clip-rule:evenodd;fill:#BA874D;}
	.st164{fill-rule:evenodd;clip-rule:evenodd;fill:#6F351B;}
	.st165{fill-rule:evenodd;clip-rule:evenodd;fill:#5C2C15;}
	.st166{fill-rule:evenodd;clip-rule:evenodd;fill:#FA8950;}
	.st167{fill-rule:evenodd;clip-rule:evenodd;fill:#5E401D;}
	.st168{fill:#D59D5E;}
	.st169{fill:#BA874D;}
	.st170{fill:#E4C292;}
	.st171{fill:#EA6321;}
	.st172{fill:#FA8950;}
	.st173{fill-rule:evenodd;clip-rule:evenodd;fill:#8C5B34;}
	.st174{fill:#CF9470;}
	.st175{fill-rule:evenodd;clip-rule:evenodd;fill:#AA7448;}
	.st176{fill:#EFB795;}
	.st177{fill-rule:evenodd;clip-rule:evenodd;fill:#C9D98B;}
	.st178{fill-rule:evenodd;clip-rule:evenodd;fill:#93B04A;}
	.st179{fill-rule:evenodd;clip-rule:evenodd;fill:#D1E18E;}
	.st180{fill-rule:evenodd;clip-rule:evenodd;fill:#ABCB5C;}
	.st181{fill-rule:evenodd;clip-rule:evenodd;fill:#F0DEAD;}
	.st182{fill-rule:evenodd;clip-rule:evenodd;fill:#DEBA59;}
	.st183{fill-rule:evenodd;clip-rule:evenodd;fill:#E6D3A1;}
	.st184{fill-rule:evenodd;clip-rule:evenodd;fill:#FFF3D3;}
	.st185{fill-rule:evenodd;clip-rule:evenodd;fill:#F7D474;}
	.st186{fill-rule:evenodd;clip-rule:evenodd;fill:#A86046;}
	.st187{fill-rule:evenodd;clip-rule:evenodd;fill:#CF0200;}
	.st188{fill-rule:evenodd;clip-rule:evenodd;fill:#FF2D29;}
	.st189{fill-rule:evenodd;clip-rule:evenodd;fill:#43983E;}
	.st190{fill-rule:evenodd;clip-rule:evenodd;fill:#136B29;}
	.st191{fill-rule:evenodd;clip-rule:evenodd;fill:#D1E694;}
	.st192{fill-rule:evenodd;clip-rule:evenodd;fill:#218239;}
	.st193{fill-rule:evenodd;clip-rule:evenodd;fill:#035C3B;}
	.st194{fill-rule:evenodd;clip-rule:evenodd;fill:#54A051;}
	.st195{fill-rule:evenodd;clip-rule:evenodd;fill:#FFCBA3;}
	.st196{fill-rule:evenodd;clip-rule:evenodd;fill:#EB9350;}
	.st197{fill:#EB9350;}
	.st198{fill-rule:evenodd;clip-rule:evenodd;fill:#BDBDBB;}
	.st199{fill-rule:evenodd;clip-rule:evenodd;fill:#A15E23;}
</style>
<path class="st112" d="M102.89,0c56.83,0,102.89,46.33,102.89,103.47c0,57.15-46.07,103.47-102.89,103.47
	C46.07,206.94,0,160.62,0,103.47C0,46.33,46.07,0,102.89,0L102.89,0z"/>
<path class="st83" d="M102.89,2.91c55.23,0,100,45.03,100,100.57s-44.77,100.57-100,100.57c-55.23,0-100-45.03-100-100.57
	S47.66,2.91,102.89,2.91L102.89,2.91z"/>
<path class="st144" d="M99.34,19.28c-2.14-0.27-23.06-0.54-36.73,7.28c-13.67,7.82-15.01,15.5-26.01,24.27
	C25.62,59.59,21.33,69.7,19.58,76.44c-1.74,6.74-5.5,26.56-2.01,42.19c3.49,15.64,8.85,23.32,13,30.2
	c4.16,6.88,15.68,18.06,15.68,18.06s18.5,16.85,35.66,21.57c17.16,4.72,29.76,0.94,45.31-0.67c15.55-1.62,19.17-8.49,23.32-9.57
	c4.16-1.08,19.97-16.58,24.53-25.75c4.56-9.17,7.51-9.98,11.53-24c4.02-14.02-2.15-31.01-3.49-44.22
	c-1.34-13.21-2.68-23.19-8.58-28.04c-5.9-4.85-14.61-19.01-16.62-19.82s-11.26-9.98-22.39-11.05
	C124.41,24.27,120.93,13.75,99.34,19.28L99.34,19.28z"/>
<path class="st145" d="M40.59,92.61c-6.03,2.43-18.63,9.57-12.87,18.2c5.76,8.63,9.52,12.27,8.58,16.85
	c-0.94,4.58-0.67,10.11,6.84,9.17c7.51-0.94,13.27-3.1,18.36,2.83c5.09,5.93,0.27,12,9.12,12.4c8.85,0.4-12.06,5.93-19.57,5.53
	c-7.51-0.4-14.48,0.4-4.02,6.07c10.46,5.66,17.43,4.99,20.51,10.11c3.08,5.12-2.02,6.85,12.66,11.25s48.46,2.1,51.68-1.27
	c3.22-3.37,5.36-7.68-5.09-9.57c-10.46-1.89-33.38-7.55-36.19-8.22c-2.81-0.67-17.02-9.17-5.63-9.3c11.39-0.13,18.1,1.75,18.1-1.21
	c0-2.97,8.04,12.94,13.81,9.57c5.76-3.37,21.72-18.6,28.28-20.63c6.57-2.02,8.85,5.12,18.63,2.7c9.79-2.43,10.32-13.48,10.05-21.3
	c-0.27-7.82,7.54-15.5,6.5-22.2c-1.04-6.71-8.11-12.17-11.86-19.72c-3.75-7.55-13.67-16.45-10.19-21.57
	c3.49-5.12,3.79-12.12,3.79-12.12s-22.02-5.94-27.92-5.94c-5.9,0-38.61,3.24-42.36,1.35c-3.75-1.89-7.51-10.25-14.48-9.71
	c-6.97,0.54-11.53-5.93-20.11,6.2C48.63,54.19,45.95,56.35,37.1,62.55c-8.85,6.2-0.27,12,1.61,21.03S40.59,92.61,40.59,92.61
	L40.59,92.61z M26.56,71.62c0,0,6.5,4.65,3.75,9.71c-2.75,5.06-10.19,1.89-6.64,9.03c3.55,7.14-3.89,6.88-4.22,9.03
	c-0.34,2.16,3.22,14.09,6.84,16.18c3.62,2.09,5.83,4.58,6.1,7.82c0.27,3.24-3.35,2.97-1.94,7.68c1.41,4.72,1.94,9.91,4.36,10.51
	c2.41,0.61,5.23-1.21,9.18-1.21c3.95,0,9.52-0.07,9.38,0.88c-0.13,0.94-6.77-0.34-9.85,1.48c-3.08,1.82-3.22,5.32-6.37,5.39
	c-3.15,0.07-3.69-3.98-5.3-6.2c-1.61-2.22-4.16-2.97-4.96-7.15c-0.8-4.18,0.74-5.66,0.2-7.95c-0.54-2.29-0.6-3.3-3.08-4.58
	c-2.48-1.28-1.81-10.45-3.62-13.35c-1.81-2.9-3.35-6.88-2.88-9.3c0.47-2.43,3.28-3.77,1.74-5.8c-1.54-2.02-1.27-8.63,1.54-10.79
	c2.82-2.16,5.03-4.04,3.89-6.13c-1.14-2.09-1.68-7.68,1.01-9.44C28.37,65.69,30.32,68.72,26.56,71.62L26.56,71.62z M76.65,108.99
	c2.01,0.13,30.09-0.13,31.37,4.45c1.27,4.58-7.98,3.03-13.41,7.55C89.18,125.5,65.25,116.67,76.65,108.99L76.65,108.99z
	 M72.29,64.91c0,0-1.68,5.19,3.02,10.04c4.69,4.85,0,4.58-9.12,10.31c-9.12,5.73-18.03,4.52-14.61-2.29
	C55,76.16,74.84,58.57,72.29,64.91L72.29,64.91z M113.37,50.25c0,0,6.14,12.89,0.68,14.99c-5.46,2.1-11.53,15.64-13.67,17.79
	c-2.14,2.16-20.11-16.45-14.75-25.88C90.99,47.72,113.37,50.25,113.37,50.25L113.37,50.25z"/>
<path class="st146" d="M96.32,91.47c0,0-8.18-1.75-12.2-2.43c-4.02-0.67-7.24,11.32-6.17,14.56c1.07,3.24,48.66,10.24,54.56,9.17
	c5.9-1.08,6.43-5.53,6.43-9.98c0-4.45,1.34-6.88-4.69-6.88C128.23,95.92,106.11,94.03,96.32,91.47L96.32,91.47z"/>
<path class="st147" d="M138.55,72.06c0,0,1.47-9.71,9.52-8.22c8.04,1.48,27.88,43.81,28.15,44.62c0.27,0.81-3.89,10.38-9.79,8.63
	c-5.9-1.75-13.54-14.02-13.94-21.3c-0.4-7.28-4.69-11.59-9.12-15.64C138.95,76.11,138.55,72.06,138.55,72.06L138.55,72.06z"/>
<path class="st148" d="M152.71,97.53c-0.11-0.61-0.18-1.19-0.21-1.75c-0.22-3.96-1.59-7.05-3.51-9.69c0.51-1.15,1.49-2.31,2.92-3.56
	c2.55-2.22,3.49-3.37,2.08-4.52c-1.41-1.15-1.34-3.03-4.96-4.31c-3.62-1.28-4.02-3.1-4.96-1.48c-0.94,1.62,6.23,1.15,3.22,3.5
	c-3.02,2.36-3.02,0.13-5.16-1.15c-2.14-1.28-2.14-4.99-0.13-4.92c0,0,4.62-2.9,6.43-1.89c1.81,1.01,0.74,1.55,2.08,4.25
	c1.34,2.7,4.16,2.83,5.5,4.99c1.34,2.16,1.89,0.6,2.15,3.67c0.26,3.07,3.28,7.86,4.75,9.07c1.47,1.21,0.8,0.74,2.95,4.25
	c2.15,3.51,4.09,9.3,6.17,12.94c2.08,3.64,2.68,5.26-0.87,4.92c-3.55-0.34,0.27-4.72-2.28-4.72c-2.55,0-6.17,4.04-8.11,2.36
	c-1.94-1.69,2.21-5.86,2.55-7.41c0.34-1.55-1.07-3.91-2.48-3.84c-1.41,0.07-3.55-1.68-4.76,1.08
	C154.93,101.9,153.96,100.69,152.71,97.53L152.71,97.53z"/>
<path class="st149" d="M74.07,80.28c0,0-0.67,6.2,3.75,11.86c4.42,5.66,9.92-0.4,28.82-1.75c18.9-1.35,26.27-2.56,26.94-6.34
	c0.67-3.77,3.22-10.92-4.42-12.4C121.52,70.17,69.92,77.86,74.07,80.28L74.07,80.28z"/>
<path class="st150" d="M130.09,74.72c0.5,0.17,1.81,4.41,1.41,6.03c-0.4,1.62-4.62-0.4-3.15,2.36c1.47,2.76,3.55,3.77-0.97,3.71
	c-4.52-0.07-8.33-1.42-7.88-1.95c0.46-0.54-5.16-1.69-7.84-0.14c-2.68,1.55-2.08,1.48-6.23,2.16c-4.16,0.67-4.69,0.47-8.04,1.08
	c-3.35,0.61-9.58-2.7-5.43-3.84c4.16-1.15,2.75,0.88,8.24,0.27c5.5-0.61,8.11-4.25,12.87-3.5c4.76,0.74,5.97,2.43,8.51-0.54
	c2.55-2.97,1.07-6.2,3.62-6.61C127.74,73.34,130.09,74.72,130.09,74.72L130.09,74.72z"/>
<path class="st151" d="M74.07,80.28c0,0-0.67,6.2,3.75,11.86c2.62,3.35,5.61,2.59,11.54,1.14c-1.34-5.09-5.09-12.58-7.71-15.99
	C76.17,78.49,72.9,79.6,74.07,80.28L74.07,80.28z M128.27,71.54c-5.9-0.51-24.82,1.77-38.71,4.22c1.06,0.5,2,0.83,2.25,0.79
	c0.74-0.13,4.26,2.02,4.79,2.43c0.54,0.4,0.57,1.45,4.36,2.22c3.79,0.78,3.72-0.94,7.21-0.98c3.49-0.03,7.81-1.11,10.42-3.94
	C120.73,73.96,125.6,72.32,128.27,71.54L128.27,71.54z"/>
<path class="st147" d="M71.66,38.22c0,0,8.98,1.35,11.66,5.12c2.68,3.77-3.75,13.21-7.51,16.04c-3.75,2.83-10.32,5.39-14.61,14.69
	C56.91,83.39,48.47,85.41,47.53,85c-0.94-0.4-8.04-0.54-3.08-7.68c4.96-7.14,18.9-18.87,21.58-27.23
	C68.71,41.73,71.66,38.22,71.66,38.22L71.66,38.22z"/>
<path class="st148" d="M75.31,39.03c2.81,0.77,6.46,2.14,8.01,4.32c0.77,1.08,0.79,2.63,0.34,4.35c-2.05-0.69-3.76-1.69-5.28-2.23
	c-2.48-0.88-3.82-0.4-4.49,1.21c-0.67,1.62-1.47,2.16-3.22,4.18c-1.74,2.02-3.82,3.1-3.55,4.25c0.27,1.15,5.03-2.09,6.97-1.42
	c1.94,0.67,1.61,4.31-1.41,5.26c-3.02,0.94-4.22-1.15-6.64,2.09c-2.41,3.24-2.55,1.01-5.63,5.59c-3.08,4.58-3.82,7.14-5.23,8.49
	c-1.41,1.35-4.09,3.3-5.03,4.38c-0.94,1.08-4.56,1.95-5.43,0.61c-0.22-0.34-0.73-0.7-1.29-1.14c0.26-0.51,0.59-1.06,1.01-1.66
	c4.96-7.14,18.9-18.87,21.58-27.23c1.8-5.6,3.71-9.03,4.78-10.67C72.44,39.5,73.98,39.31,75.31,39.03L75.31,39.03z"/>
<path class="st146" d="M49.81,142.97c0,0,0,0.81,9.38,7.55c9.38,6.74,10.86,18.2,10.86,18.2s-20.78-6.2-26.68-8.36
	C37.48,158.2,37.88,144.59,49.81,142.97L49.81,142.97z"/>
<path class="st149" d="M132.52,174.78c0,0,5.5,10.52-1.88,11.59c-7.37,1.08-55.5,1.08-56.03-3.77c-0.54-4.85-1.34-14.02,3.49-15.5
	C82.92,165.61,132.52,174.78,132.52,174.78L132.52,174.78z"/>
<path class="st151" d="M132.52,174.78c0,0,1.43,2.73,1.85,5.55c-1.15-0.15-2.57-0.36-4.4-0.64c-6.1-0.94-8.11-2.56-9.05-3.77
	c-0.94-1.21-1.81-2.63-4.69-2.76c-2.88-0.13-6.1-0.27-10.52-1.21c-4.42-0.94-1.47-2.56-7.57-1.55c-6.1,1.01-8.11,0.67-10.93-0.4
	c-2.82-1.08-4.09-0.94-5.43-1.55c-0.69-0.31-1.92-0.93-2.95-1.46C86.57,166.29,132.52,174.78,132.52,174.78L132.52,174.78z"/>
<path class="st150" d="M75.46,183.59c-0.51-0.3-0.81-0.63-0.85-0.99c-0.54-4.85-1.34-14.02,3.49-15.5c0.08-0.03,0.18-0.05,0.29-0.07
	c0.37,0.67,0.59,1.64,0.51,3.04C78.63,174.73,78.02,181.77,75.46,183.59L75.46,183.59z"/>
<path class="st149" d="M167.51,111.83c0,0,7.37,16.04,6.97,21.3c-0.4,5.26-10.19,13.48-13.27,7.82c-3.08-5.66-5.38-13.44-5.04-19.12
	C156.52,116.14,161.61,111.29,167.51,111.83L167.51,111.83z"/>
<path class="st151" d="M164.35,142.85c-1.28,0-2.41-0.55-3.14-1.91c-3.08-5.66-5.38-13.44-5.04-19.12c0.04-0.67,0.15-1.34,0.32-1.98
	c0.22,0.19,0.56,0.31,1.03,0.33c2.85,0.1,7.61-4.48,7.74-2.12c0.13,2.36-5.63,1.55-3.22,4.92c2.41,3.37,5.5,0.51,4.22,2.43
	c-1.27,1.92-5.6,1.99-3.55,3.47c2.04,1.48,6.03-1.31,6.3,0c0.27,1.31-4.59,5.39-4.52,9C164.53,139.85,164.7,141.74,164.35,142.85
	L164.35,142.85z"/>
<path class="st152" d="M174.4,131.42c0.08,0.65,0.11,1.22,0.08,1.7c-0.33,4.33-7.03,10.67-11.1,9.61c-0.1-0.07-0.2-0.13-0.31-0.2
	c-2.11-1.31-0.64-5.53,3.99-9.3c4.62-3.77,6.48-2.62,6.48-2.62C173.77,130.59,174.09,130.9,174.4,131.42L174.4,131.42z"/>
<path class="st153" d="M168.18,61.68c0,0-2.14,4.04,1.47,12.81c3.62,8.76-1.07,14.83-1.07,14.83l-6.84-12.27
	c0,0,4.02,1.08,2.14-5.39c-1.88-6.47,0.27-10.65,0.27-10.65L168.18,61.68L168.18,61.68z"/>
<path class="st153" d="M57.72,36.2c0,0-5.36,16.18-10.19,23.86c-4.83,7.68-16.62,14.69-15.01,14.69c1.61,0,10.34,7.71,10.34,7.71
	s13.39-11.76,18.08-25.64C65.63,42.94,65.76,42,65.76,42L57.72,36.2L57.72,36.2z"/>
<path class="st149" d="M44.72,113.17c-1.21,1.08-6.3,10.11-5.9,16.04c0.4,5.93,21.85,0.54,31.23,5.8c9.38,5.26,20.91,3.1,22.12-3.1
	c1.21-6.2,0.4-8.9,0.4-8.9S46.86,105.89,44.72,113.17L44.72,113.17z"/>
<path class="st151" d="M81.06,137.98c5.69,0.05,10.37-2.24,11.12-6.07c0.54-2.79,0.68-4.87,0.66-6.32
	C85.85,129.51,82.41,135.18,81.06,137.98L81.06,137.98z"/>
<path class="st151" d="M62.75,132.89c1.89,0.25,3.68,0.63,5.26,1.2c0.06-2.97,0.27-13.39,0.32-19.05c-1.9-0.54-3.81-1.05-5.66-1.51
	c-0.23,3.57-1.02,17.09,0.02,19.26L62.75,132.89L62.75,132.89z"/>
<path class="st151" d="M43.89,114.23c-1.47,2.21-4,7.17-4.83,11.62c1.98,0.99,4.25,1.4,6.17,0.24c3.6-2.17,12.66-10.02,16.33-12.82
	c-4.96-1.19-9.47-1.96-12.59-1.89C47.33,112.28,45.59,113.26,43.89,114.23L43.89,114.23z"/>
<path class="st151" d="M71.05,135.54c3.33,1.66,6.87,2.42,10.09,2.44c-0.28-1.36-1.23-3.72-3.12-7.71
	c-2.48-5.24-1.7-10.2-1.04-12.62c-2.39-0.76-4.9-1.53-7.43-2.26C69.41,117.38,70.22,130.05,71.05,135.54L71.05,135.54z"/>
<path class="st154" d="M137.28,97.6c0,0,1.14,0.34,0.74,4.92c-0.4,4.58-1.61,6.47-3.02,7.08c-1.41,0.61-0.94-0.34-3.55-2.22
	c-2.61-1.89-5.7-1.55-8.58-1.28c-2.88,0.27-2.68-1.95-6.23-2.76c-3.55-0.81-3.69-3.03-7.37-0.2c-3.69,2.83-2.01-2.23-3.28-4.25
	c-1.27-2.02-4.76-3.84-6.77-1.68c-2.01,2.16-3.15,4.92-6.97,3.71c-3.82-1.21,1.21-3.17-5.5-0.61c-6.7,2.56-6.43,1.89-6.3-1.21
	c0.13-3.1-2.28-8.22,4.02-7.21c6.3,1.01,8.45,1.15,15.08,1.48c6.64,0.34,19.17,5.86,25.67,4.99
	C131.72,97.47,131.24,95.83,137.28,97.6L137.28,97.6z"/>
<path class="st147" d="M59.86,84.73c0,0-21.45,14.56-24.93,21.57c-3.49,7.01,5.5,19.68,8.98,15.91
	c3.49-3.77,34.45-22.65,37.53-25.75c3.08-3.1-0.13-13.35-0.8-14.29C79.97,81.23,76.75,75.16,59.86,84.73L59.86,84.73z"/>
<path class="st148" d="M35.4,105.48c-0.18,0.28-0.34,0.56-0.47,0.82c-3.49,7.01,5.5,19.68,8.98,15.91
	c3.49-3.77,34.45-22.65,37.53-25.75c3.08-3.1-0.13-13.35-0.8-14.29c-0.21-0.29-0.66-1.07-1.68-1.73c0.34,1.73,0.91,3.8,1.42,5.67
	c1.21,4.45,0.74,6.13-0.83,7.64c-1.57,1.5-4.13,3.96-6.61,3.28c-2.48-0.67-4.76-0.74-8.38-0.2c-3.62,0.54-2.35,5.32-3.28,7.82
	c-0.94,2.49-3.62,3.24-7.04,4.45c-3.42,1.21-6.23,0.81-8.24,3.98c-2.01,3.17-4.26,5.03-6.5,3.1C37.52,114.47,36,109.31,35.4,105.48
	L35.4,105.48z"/>
<path class="st154" d="M75.83,81.22c0,0,0.74-1.21,2.88,3.44c2.14,4.65,2.84,7.99,1.21,10.58c-1.64,2.59-2.75,0.34-3.22-2.22
	s-1.88-6.74-4.02-4.65c-2.14,2.09-3.35,5.73-5.97,4.04c-2.61-1.68-1.88-2.83-2.21-3.57C64.16,88.09,67.43,81.07,75.83,81.22
	L75.83,81.22z"/>
<path class="st154" d="M53.3,92.88c-2.68,3.44,2.95,5.86-3.49,8.02c-6.43,2.16-10.66,5.33-11.8,6.94c-1.14,1.62-1.68,1.89-0.27,5.86
	c1.41,3.98,0.59,6.09,3.65,5.14c3.05-0.96-0.63-4.06,0.71-7.56c1.34-3.5,8.24-5.05,10.52-6.27c2.28-1.21,0.6-1.62,4.56-4.45
	c3.95-2.83,3.02-0.88,7.17-0.07c4.16,0.81,11.6-1.62,2.95-3.71c-8.65-2.09-8.24-3.91-8.71-5.66C58.13,89.37,55.52,89.24,53.3,92.88
	L53.3,92.88z"/>
<path class="st155" d="M137.02,101.51c0,0,0.05-0.12-0.08,2.76c-0.13,2.88-1.04,5.04-2.71,5.5c-1.67,0.46-1.43-1.44-2.92-1.37
	c-1.49,0.07-3.95-0.51-3.32-1.7c0.64-1.2,2.03-0.96,4.17-2.09C134.31,103.48,134.98,99.77,137.02,101.51L137.02,101.51z
	 M81.67,98.31c-0.2,1.31,0.44,3.64-0.84,3.94C79.56,102.55,79.46,98.04,81.67,98.31L81.67,98.31z M97.76,99.49
	c-0.67,0.3-1.98,1.28-4.69,1.68c-2.71,0.4-4.12,1.38-2.11,1.48c2.01,0.1,1.84-0.47,4.32,0.47C97.76,104.07,100.14,98.17,97.76,99.49
	L97.76,99.49z"/>
<path class="st155" d="M67.06,83.91c-0.87,0.4-1.41,3.44-4.76,4.11c-3.35,0.67-6.23,1.75-8.85,4.58c-2.61,2.83-2.88,3.84-5.56,6.34
	c-2.68,2.49-4.96,1.15-1.61-1.89c3.35-3.03,6.3-6.88,10.59-8.7c4.29-1.82,6.5-2.7,7.44-3.77C65.25,83.51,67.71,80.97,67.06,83.91
	L67.06,83.91z"/>
<path class="st153" d="M74.07,101.85c0,0-3.62,18.47,0.4,28.58c4.02,10.11,10.32,12.4,10.32,12.4l-8.04,6.34
	c0,0-9.12,5.66-12.33-15.1c-3.22-20.76,1.34-34.91,1.34-34.91S74.34,97.67,74.07,101.85L74.07,101.85z"/>
<path class="st156" d="M73.3,101.92c0,0.02-1.74,7.93-1.67,14.77c0.03,3.42,0.28,6.18,0.8,8.78c0.52,2.6,1.3,5.03,2.4,7.77
	c2.18,5.46,8.07,9.65,8.09,9.66l-0.29,0.42c-0.02-0.01-6.03-4.29-8.27-9.89c-1.11-2.78-1.9-5.24-2.43-7.86
	c-0.52-2.62-0.78-5.42-0.81-8.88c-0.07-6.9,1.68-14.86,1.68-14.89L73.3,101.92L73.3,101.92z"/>
<path class="st157" d="M66.65,101.32c0.23,0,6.23-0.37,5.4,0.84c-0.84,1.21-2.98-0.44-3.25,1.52c-0.27,1.95,1.17,2.39,0.2,3.07
	c-0.97,0.67-2.48,0.03-2.45,1.01c0.03,0.98-0.07,2.22,0.67,3.13c0.74,0.91,0.1,2.29-0.47,2.66c-0.57,0.37-1.98,0.57-0.77,1.52
	c1.21,0.94,1.37,1.15,1.74,2.02c0.37,0.88,2.48,0.13,2.88,0.88c0.4,0.74-1.17,0.54-3.08,1.62c-1.91,1.08-1.31,3.34-0.33,3.91
	c0.97,0.57,2.04,0.64,1.37,1.72c-0.67,1.08-1.31,1.58-1.31,1.58s-1.84,3.1,1.31,4.04c3.15,0.94,4.09-0.13,3.89,1.92
	c-0.2,2.06-4.19,1.72-1.81,3.34c2.38,1.62,2.28,1.48,3.85,2.46c1.58,0.98,1.61,1.82,1.34,1.92c-0.27,0.1-4.83-5.02-4.76-1.38
	c0.07,3.64,1.61,4.31,3.85,4.15c2.24-0.17,4.26-0.1,3.72,1.35c-0.54,1.45-1.27,1.99-3.69,1.01c-2.41-0.98-3.02,2.02-4.02,1.15
	c-1.01-0.88-2.55-0.57-2.35-4.68c0.2-4.11-0.77-4.01-1.41-5.56c-0.64-1.55-0.1-1.15,0.54-2.53c0.64-1.38-0.84-0.74-1.54-2.49
	c-0.7-1.75-1.54-4.04-1.21-4.89c0.33-0.84-1.17-1.55-1.01-2.33c0.17-0.78-0.94-2.06,0.37-4.15c1.31-2.09,0.27-2.63,0.2-3.67
	c-0.07-1.05-0.31-2.52-0.31-2.52s1.65-0.45,1.25-3.14c-0.4-2.7-0.84-3.57,0.03-4.31c0.87-0.74,1.64-0.13,1.81-1.72
	c0.17-1.58,1.98-1.72,0-1.99C65.35,102.5,65.58,101.35,66.65,101.32L66.65,101.32z"/>
<path class="st146" d="M77.71,119.72c0,0,2.38,4.75,7.24,4.04c4.86-0.71,6.37-0.57,6.17,0.94c-0.2,1.52-0.3,2.66-0.97,3.81
	c-0.67,1.15-0.44,0.54-2.92,2.06c-2.48,1.52-2.21,2.7-3.59,3.2c-1.37,0.51-5.36-2.76-2.08-4.35c3.28-1.58,7.21-3.81,3.62-3.57
	c-3.59,0.24-5.16,2.06-6.37,0.24C77.61,124.27,71.78,118.04,77.71,119.72L77.71,119.72z"/>
<path class="st146" d="M60.82,118c0,0-1.44,2.29-0.03,6.54c1.41,4.25,0.77,6.94-1.01,4.85c-1.78-2.09-0.97-5.53-3.52-3.47
	c-2.55,2.06-3.25,3.17-4.76,3.13c-1.51-0.03-2.48,1.68-3.85,0.27c-1.37-1.42-0.3-3.17-2.75-2.76c-2.45,0.4-2.41-5.06,2.25-3.98
	c4.66,1.08,7.04,1.99,7.84-1.21c0.8-3.2,1.41-2.12,3.22-1.89C60.02,119.72,62.57,113.15,60.82,118L60.82,118z"/>
<path class="st155" d="M42.14,126.78c0.62,0.32,3.23-0.96,4.04,0.66c0.8,1.62,2.41,1.48,1.91,2.56c-0.5,1.08-2.88-1.04-4.96-0.81
	C41.05,129.43,39.34,126.9,42.14,126.78L42.14,126.78z M91.76,125.75c-0.7,0.3-3.99,5.09-6.67,3.17c-2.68-1.92,0.17-2.49,1.31-2.76
	C87.53,125.89,91.62,122.28,91.76,125.75L91.76,125.75z"/>
<path class="st149" d="M125.41,110.08c0,0,9.38,12.67,7.24,14.69c-2.14,2.02-17.43,8.63-28.82,19.95
	c-11.39,11.32-9.52,15.23-14.34,13.89c-4.83-1.35-10.73-9.69-9.92-14.29C80.38,139.71,105.71,111.56,125.41,110.08L125.41,110.08z"
	/>
<path class="st151" d="M125.41,110.08c0,0,9.38,12.67,7.24,14.69c-0.31,0.29-0.9,0.68-1.71,1.17c-1.27-1.32-2.88-3.6-4.83-7.03
	c-2.63-4.63-3.03-7.18-2.76-8.58C124.04,110.21,124.73,110.13,125.41,110.08L125.41,110.08z"/>
<path class="st150" d="M129.15,123.74c-1.08,1.26-3.65,0.21-5.74,1.02c-2.61,1.01-11.06-2.83-6.1-4.11
	c4.96-1.28,4.49-4.92,4.49-4.38c0,0.54-4.42-1.08-7.37,1.08c-2.95,2.16-1.27,4.18-3.75,6.88c-2.48,2.7-7.57-1.55-5.9,4.38
	c1.68,5.93,4.09,5.06,1.88,7.48c-2.21,2.43-1.94-2.49-4.62-2.22c-2.68,0.27-3.95,2.36-3.49,4.65c0.47,2.29,2.61,2.43-1.47,3.37
	c-4.09,0.94-0.87-4.45-3.82-3.03c-2.95,1.42-4.89,5.06-3.28,7.82c1.61,2.76,1.01,4.31,0.4,5.93c-0.6,1.62,4.99,3.12,0.07,3.37
	c-4.92,0.25-3.99-3.37-5.86-5.05c-1.88-1.69-4.69-3.54-3.75-6.84c0.94-3.3,2.75-2.66,7.44-6.88c4.69-4.21,1.47-5.8,11.46-13.28
	c9.94-7.45,19.49-12.96,23.57-12.31c0.12,1.53,0.84,3.83,2.82,7.3C127.24,120.89,128.25,122.49,129.15,123.74L129.15,123.74z"/>
<path class="st146" d="M149.94,114.53c0,0,12.06,12.27,9.38,15.91c-2.68,3.64-18.23,9.3-28.15,17.66
	c-9.92,8.36-13.94,14.69-18.5,13.48c-4.56-1.21-10.46-9.3-9.65-13.08c0.8-3.77,30.03-26.42,37.8-30.47
	C148.6,113.99,148.2,113.58,149.94,114.53L149.94,114.53z"/>
<path class="st158" d="M157.41,123.61c1.8,2.76,2.94,5.42,1.91,6.82c-2.68,3.64-18.23,9.3-28.15,17.66
	c-9.92,8.36-13.94,14.69-18.5,13.48c-3.55-0.94-7.91-6.06-9.29-10.05c0.46,0.19,0.97,0.79,1.51,2.05c1.54,3.64,7.91,0.61,11.66,0.34
	c3.75-0.27,2.55-0.61,8.65-7.15c6.1-6.54,3.62-3.57,7.91-7.95c4.29-4.38,5.36-1.01,10.32-2.36c4.96-1.35,2.01-5.26,5.9-6.81
	C152.11,128.54,155.62,125.36,157.41,123.61L157.41,123.61z"/>
<path class="st146" d="M109.7,59.18c0,0-7.93,2.66-11.74,4.13c-3.81,1.47-0.53,13.45,2.03,15.69c2.56,2.24,47.1-16,51.64-19.94
	c4.54-3.94,2.76-8.05,0.51-11.88c-2.24-3.83-2.31-6.61-7.51-3.53C139.44,46.74,119.43,56.4,109.7,59.18L109.7,59.18z"/>
<path class="st154" d="M148.09,43.57c0,0,1.15-0.29,3.12,3.86c1.97,4.15,1.88,6.4,0.97,7.64c-0.91,1.24-0.98,0.19-4.18-0.1
	c-3.21-0.29-5.69,1.57-8.04,3.27c-2.35,1.7-3.3-0.32-6.77,0.8c-3.47,1.12-4.71-0.73-6.46,3.59c-1.75,4.32-2.85-0.89-4.97-1.99
	c-2.12-1.09-6.04-0.88-6.68,2c-0.64,2.88-0.23,5.85-4.14,6.75c-3.9,0.9-0.56-3.35-5.04,2.28c-4.48,5.63-4.59,4.91-6.04,2.17
	c-1.45-2.74-6.11-5.92-0.17-8.27c5.94-2.34,7.86-3.32,13.74-6.42c5.89-3.1,19.48-4.73,24.64-8.8
	C143.23,46.29,141.99,45.13,148.09,43.57L148.09,43.57z"/>
<path class="st155" d="M149.83,47.07c0,0-0.02-0.13,1.32,2.42c1.34,2.55,1.65,4.87,0.44,6.12c-1.2,1.25-1.96-0.51-3.21,0.31
	c-1.25,0.82-3.66,1.58-3.72,0.23c-0.05-1.36,1.26-1.86,2.54-3.93C148.49,50.15,147.2,46.61,149.83,47.07L149.83,47.07z
	 M100.52,72.55c0.49,1.24,2.21,2.91,1.27,3.83C100.85,77.28,98.48,73.45,100.52,72.55L100.52,72.55z M114.98,65.36
	c-0.42,0.6-1.06,2.11-3.19,3.85c-2.14,1.73-2.86,3.29-1.07,2.36c1.78-0.94,1.35-1.35,3.96-1.8
	C117.29,69.31,116.37,63.01,114.98,65.36L114.98,65.36z"/>
<path class="st149" d="M140.18,45.32c0,0-5.38,14.84-8.24,14.15c-2.86-0.69-16.74-9.91-32.41-13.27
	c-15.67-3.36-17.89,0.36-19.42-4.43c-1.53-4.8,2.16-14.34,6.43-16.18C90.82,23.74,128.13,29.57,140.18,45.32L140.18,45.32z"/>
<path class="st151" d="M140.18,45.32c0,0-5.38,14.84-8.24,14.15c-0.41-0.1-1.06-0.38-1.91-0.8c0.4-1.8,1.41-4.4,3.19-7.92
	c2.4-4.75,4.3-6.49,5.62-7.03C139.31,44.24,139.76,44.78,140.18,45.32L140.18,45.32z"/>
<path class="st150" d="M130.87,55.97c-1.63-0.21-2.18-2.96-4-4.26c-2.28-1.64-3.72-10.85,0.07-7.38c3.79,3.47,6.56,1.07,6.11,1.37
	c-0.45,0.3-1.53-4.31-4.94-5.6c-3.41-1.29-4.17,1.22-7.77,0.62c-3.6-0.6-2.87-7.22-6.88-2.55c-4.01,4.67-1.96,6.21-5.19,5.69
	c-3.23-0.53,1.01-3-0.69-5.11c-1.7-2.11-4.13-2.03-5.78-0.38c-1.65,1.65-0.58,3.53-3.61,0.61c-3.03-2.92,3.22-3.17,0.42-4.88
	c-2.8-1.7-6.89-1.34-8.3,1.53c-1.41,2.87-3.03,3.21-4.71,3.59c-1.68,0.38,0.14,5.9-2.76,1.91c-2.91-4,0.61-5.2,0.98-7.7
	c0.37-2.5,0.36-5.89,3.63-6.91c3.26-1.02,3.72,0.85,9.8,2.48c6.08,1.63,5.63-1.94,17.33,2.34c11.65,4.27,21.47,9.26,23.17,13.06
	c-1.2,0.94-2.72,2.81-4.52,6.37C132.19,52.79,131.42,54.52,130.87,55.97L130.87,55.97z"/>
<path class="st153" d="M176.97,79.67c0,0-16.71,8.48-22.17,17.89c-5.46,9.4-3.38,15.81-3.38,15.81l-9.91-2.49
	c0,0-10.04-3.75,4.26-19.06c14.31-15.31,28.21-20.4,28.21-20.4S180.41,77.32,176.97,79.67L176.97,79.67z"/>
<path class="st156" d="M176.45,79.1c-0.02,0.01-7.28,3.49-12.61,7.76c-2.66,2.13-4.68,4.03-6.4,6.03c-1.72,2.01-3.14,4.12-4.62,6.68
	c-2.94,5.09-2.61,12.33-2.61,12.35l-0.5,0.02c0-0.02-0.34-7.42,2.67-12.63c1.5-2.59,2.94-4.73,4.68-6.76
	c1.74-2.03,3.78-3.95,6.47-6.1c5.37-4.3,12.69-7.81,12.71-7.82L176.45,79.1L176.45,79.1z"/>
<path class="st157" d="M172.83,73.46c0.14,0.19,4.12,4.72,2.66,4.8c-1.47,0.08-1.49-2.64-3.19-1.65c-1.7,0.99-1.16,2.4-2.28,2.04
	c-1.13-0.36-1.55-1.95-2.3-1.32c-0.75,0.63-1.79,1.31-2.05,2.46c-0.26,1.14-1.74,1.49-2.38,1.26c-0.64-0.22-1.66-1.22-1.66,0.32
	c0,1.54-0.05,1.79-0.52,2.63c-0.46,0.83,1.42,2.05,1.08,2.82c-0.33,0.77-1.14-0.6-3.16-1.45c-2.02-0.85-3.42,1.01-3.27,2.14
	c0.15,1.12,0.75,2.02-0.5,2.15c-1.26,0.13-2.05-0.06-2.05-0.06s-3.57,0.44-2.37,3.52c1.2,3.08,2.62,3.16,0.88,4.26
	c-1.74,1.1-3.92-2.27-3.73,0.62c0.19,2.88,0.24,2.72,0.44,4.57c0.2,1.85-0.44,2.39-0.68,2.24c-0.24-0.15,0.97-6.91-1.84-4.62
	c-2.81,2.29-2.39,3.93-0.88,5.61c1.51,1.68,2.69,3.31,1.23,3.78c-1.47,0.47-2.34,0.21-3.06-2.3c-0.72-2.51-3.44-1.15-3.37-2.49
	c0.07-1.34-1.12-2.37,2.23-4.74c3.35-2.37,2.67-3.08,3.5-4.53c0.82-1.46,0.84-0.78,2.31-1.13c1.48-0.34,0.07-1.12,1.01-2.76
	c0.94-1.64,2.22-3.71,3.09-3.96s0.49-1.88,1.21-2.23s1.04-2.01,3.48-2.26c2.44-0.25,2.23-1.4,3-2.1c0.78-0.7,1.78-1.8,1.78-1.8
	s1.37,1.04,3.23-0.94c1.87-1.98,2.29-2.86,3.4-2.62c1.12,0.24,1.11,1.22,2.46,0.38c1.35-0.84,2.56,0.51,1.56-1.22
	C171.1,73.15,172.14,72.63,172.83,73.46L172.83,73.46z"/>
<path class="st153" d="M161.36,146.22c0,0-16.71,8.48-22.17,17.89c-5.46,9.4-3.38,15.81-3.38,15.81l-9.91-2.49
	c0,0-10.04-3.75,4.26-19.06c14.31-15.31,28.21-20.4,28.21-20.4S164.81,143.87,161.36,146.22L161.36,146.22z"/>
<path class="st156" d="M160.84,145.65c-0.02,0.01-7.28,3.49-12.61,7.76c-2.66,2.13-4.68,4.03-6.4,6.03
	c-1.72,2.01-3.14,4.12-4.62,6.68c-2.94,5.09-2.61,12.33-2.61,12.35l-0.5,0.02c0-0.02-0.34-7.42,2.67-12.63
	c1.5-2.59,2.94-4.73,4.68-6.76c1.74-2.03,3.78-3.95,6.47-6.1c5.37-4.3,12.69-7.81,12.71-7.82L160.84,145.65L160.84,145.65z"/>
<path class="st157" d="M157.22,140.01c0.14,0.19,4.12,4.72,2.66,4.8c-1.47,0.08-1.49-2.63-3.19-1.65c-1.7,0.99-1.16,2.4-2.28,2.04
	c-1.13-0.36-1.55-1.95-2.3-1.32c-0.75,0.63-1.79,1.31-2.05,2.46c-0.26,1.14-1.74,1.49-2.38,1.26c-0.64-0.22-1.66-1.22-1.66,0.32
	c0,1.54-0.05,1.79-0.52,2.63c-0.46,0.83,1.42,2.05,1.08,2.82c-0.33,0.77-1.14-0.6-3.16-1.45c-2.02-0.85-3.42,1.01-3.27,2.14
	c0.15,1.12,0.75,2.02-0.5,2.15c-1.26,0.13-2.05-0.06-2.05-0.06s-3.57,0.44-2.37,3.52c1.2,3.08,2.62,3.16,0.88,4.26
	c-1.74,1.1-3.92-2.27-3.73,0.62c0.19,2.88,0.24,2.72,0.44,4.57c0.2,1.85-0.44,2.39-0.68,2.24c-0.24-0.15,0.97-6.91-1.84-4.62
	c-2.81,2.29-2.39,3.93-0.88,5.61c1.51,1.68,2.7,3.31,1.23,3.78c-1.47,0.47-2.34,0.21-3.06-2.3c-0.72-2.51-3.44-1.15-3.37-2.49
	c0.07-1.34-1.12-2.37,2.23-4.74c3.35-2.37,2.67-3.08,3.5-4.53c0.82-1.46,0.84-0.78,2.31-1.13c1.47-0.34,0.07-1.12,1.01-2.76
	c0.94-1.64,2.22-3.71,3.09-3.96c0.87-0.25,0.49-1.88,1.21-2.23c0.71-0.34,1.04-2.01,3.48-2.26c2.44-0.25,2.23-1.4,3.01-2.1
	c0.78-0.7,1.78-1.8,1.78-1.8s1.37,1.04,3.23-0.94c1.87-1.98,2.29-2.86,3.4-2.63c1.12,0.24,1.11,1.22,2.46,0.38
	c1.35-0.84,2.56,0.51,1.56-1.22C155.5,139.7,156.54,139.18,157.22,140.01L157.22,140.01z"/>
<path class="st152" d="M81.04,174.85c0.74,0,7.98-0.61,11.33,2.76c3.35,3.37,4.96,5.26,7.91,2.9c2.95-2.36,1.14-4.04,6.23-3.03
	c5.09,1.01,4.76,1.75,4.56,2.63c-0.2,0.88-3.28,2.7,0.74,2.7c4.02,0,3.62,3.1,4.89-0.88c1.27-3.98,3.55-6.47,6.23-4.92
	c2.68,1.55,0.67,1.68,3.49,3.17c2.81,1.48,4.96,0,3.35,1.82c-1.61,1.82-4.02,0.07-6.37-0.2c-2.35-0.27-2.08,1.08-4.42,2.56
	c-2.35,1.48-2.59,3.1-6.37,1.21c-3.78-1.88-3.64-2.29-4.96-3.24c-1.32-0.94-3.02-2.22-3.02-2.22s-0.4,2.83-6.43,3.57
	c-6.03,0.74-8.51-1.55-9.38-3.44c-0.87-1.89-0.6-3.91-3.75-2.7C81.91,178.76,78.28,176.5,81.04,174.85L81.04,174.85z"/>
<path class="st155" d="M80.6,176.83c-0.54,0.94-0.2,2.59-1.01,3.27c-0.8,0.67-2.71,2.26-0.57,2.29c2.14,0.03,0.54-3.47,3.22-3.4
	C84.93,179.05,83.95,174.64,80.6,176.83L80.6,176.83z M102.62,179.66c-2.14,0.94-2.75,0.94-4.99,1.01
	c-2.24,0.07-5.66,1.72-1.47,2.22C100.34,183.4,107.72,180.67,102.62,179.66L102.62,179.66z"/>
<path class="st159" d="M148.13,116.74c0,0,3.42,2.12,3.85,3.77c0.44,1.65-2.28-0.57-3.79,1.11c-1.51,1.69,2.21,4.08-1.91,4.04
	c-4.12-0.03-5.06-2.02-6.64-0.03c-1.58,1.99-3.15,1.01-3.69,3.67c-0.54,2.66-1.27,3.24-3.99,1.89c-2.71-1.35-4.79-3.2-4.02-1.15
	c0.77,2.06,4.79,5.22,1.78,7.04c-3.02,1.82-3.15-3.3-4.56-0.81c-1.41,2.49-0.07,3.77-3.08,4.31c-3.02,0.54-2.48-3.17-4.22-0.88
	c-1.74,2.29,1.21,3.84,0.27,4.99c-0.94,1.15-3.42-0.64-3.85,0.03c-0.44,0.67,0.07,3.07,1.37,3.3c1.31,0.24,2.75-1.35,2.85,0.24
	c0.1,1.58-1.41,3.64-4.52,2.49c-3.12-1.15-2.11,1.65-5.5,1.28c-3.38-0.37-5.73-3.5-2.01-5.36c3.72-1.85,4.06-3,5.16-5.09
	c1.11-2.09,2.25-2.46,4.96-4.04c2.71-1.58,2.45-4.58,4.93-4.75c2.48-0.17,2.65,2.19,3.9,0.88c1.26-1.31,0.25-4.55,1.36-5.38
	c1.11-0.84,3.97,1.15,5.5,0.36c1.52-0.79,1.83-4.8,4-6.05c2.18-1.25,3.32,0.57,5.6-0.67c2.28-1.25,2.41-1.75,3.15-3.51
	C145.77,116.69,147.21,115.74,148.13,116.74L148.13,116.74z"/>
<path class="st155" d="M154.13,124.52c-1.32,1.12-0.71-0.55-1.9,0.35c-1.19,0.9-3.15,1.71-3.69,0.48
	C146.43,120.59,157.38,121.75,154.13,124.52L154.13,124.52z M104.15,147.4c0.57,1.2,2.4,2.76,1.52,3.73
	C104.79,152.1,102.17,148.43,104.15,147.4L104.15,147.4z M118.1,139.25c-0.38,0.63-0.92,2.18-2.93,4.05
	c-2.02,1.87-2.63,3.48-0.91,2.42c1.72-1.06,1.26-1.43,3.84-2.06C120.67,143.04,119.33,136.82,118.1,139.25L118.1,139.25z"/>
<path class="st160" d="M142.87,79.67c0,0-1.19-3.11,0.1-2.29C144.25,78.2,144.28,79.18,142.87,79.67L142.87,79.67z M88.38,87.05
	c0,0-1.19-3.11,0.1-2.29C89.77,85.58,89.8,86.57,88.38,87.05L88.38,87.05z M47.05,78.82c0,0,3.29-0.46,2.2,0.62
	C48.16,80.51,47.19,80.32,47.05,78.82L47.05,78.82z M128,116.16c0.49,1.46-0.8,1.35-1.03,1.01S124.62,114.9,128,116.16L128,116.16z
	 M66.98,88.87c0.09,1.79,1.41,2.14,1.5,1.16C68.58,89.06,67.27,86.98,66.98,88.87L66.98,88.87z M103.95,111.95
	c0,0,0.03,1.93,0.79,0.97C105.49,111.96,104.74,110.18,103.95,111.95L103.95,111.95z M105.1,105.55c-0.05,0.27,0.16,2.29,0.84,1.94
	c0.67-0.35,0.67-1.59,0.67-1.59L105.1,105.55L105.1,105.55z M113.91,124.34c0,0-0.58,1.13,0.25,1.16
	C114.99,125.53,116.1,124.29,113.91,124.34L113.91,124.34z M124.63,118.39c0,0-1.01,0.76-0.41,1.44
	C124.82,120.51,125.49,119.12,124.63,118.39L124.63,118.39z M127.63,78.35c-0.03,0.84,1.05,2.25,1.38,1.87
	c0.33-0.39,0.85-1.59,0.16-1.86C128.49,78.09,127.63,78.35,127.63,78.35L127.63,78.35z M124.05,83.64c0.55,0.15,2.79,1.32,1.35,1.47
	C123.96,85.26,122.56,84.85,124.05,83.64L124.05,83.64z M153.37,126.49c-0.34,0.26-0.27,0.99,0.44,1.28
	C154.52,128.06,159.3,126.12,153.37,126.49L153.37,126.49z M43.29,75.38c0.03,1.14,1.18,2.93,1.4,1.97
	C44.91,76.38,44.44,75.18,43.29,75.38L43.29,75.38z M108.16,112.23c0,0-0.74,1.8-0.05,1.7
	C108.81,113.82,109.51,112.96,108.16,112.23L108.16,112.23z M158.44,128.63c0,0-0.01,0.59,0.47,0.71c0.48,0.12,1,0.3,1.01-0.29
	c0.01-0.59-0.05-0.72-0.24-0.74C159.48,128.29,158.32,128.03,158.44,128.63L158.44,128.63z M112.22,137.57c0,0-0.58,0.86,0.47,0.99
	c1.04,0.13,1.57,0.78,1.51-0.17c-0.05-0.94-0.03-1.21-0.03-1.21L112.22,137.57L112.22,137.57z M116.89,129.4l-1.51,0.39l0.53,0.84
	c0,0,0.26,0.35,0.6,0.11C116.85,130.51,116.89,129.4,116.89,129.4L116.89,129.4z M116.92,132.79c-0.09,0.19-1.34,0.9-0.03,1.31
	c1.31,0.4,1.4,0.24,1.33-0.26C118.14,133.33,116.92,132.79,116.92,132.79L116.92,132.79z M47.7,81.87c0.19,0.02,1.4,0.46,1.24,0.64
	c-0.17,0.18-1.18,0.74-1.18,0.74l-1.73-1.09L47.7,81.87L47.7,81.87z M52.95,121.01c1.3-0.81,1.49,0.47,1.21,0.78
	C53.88,122.11,52.5,124.61,52.95,121.01L52.95,121.01z M55.4,61.71c1.71-0.5,1.75-1.87,0.78-1.74C55.22,60.1,53.5,61.86,55.4,61.71
	L55.4,61.71z M83.71,100.41c0,0,1.86-0.47,0.76-0.99C83.37,98.89,81.82,100.04,83.71,100.41L83.71,100.41z M81.81,138.48
	c0.27-0.01,2.18-0.68,1.68-1.26c-0.49-0.58-1.69-0.3-1.69-0.3L81.81,138.48L81.81,138.48z M83.47,84.5c0,0,1.22,0.31,1.07-0.51
	C84.38,83.17,82.92,82.37,83.47,84.5L83.47,84.5z M55.87,123.8c0,0,0.97,0.81,1.49,0.08C57.88,123.14,56.38,122.79,55.87,123.8
	L55.87,123.8z M59.13,120.08c0.82-0.16,1.94-1.54,1.49-1.78c-0.45-0.24-1.74-0.47-1.84,0.27C58.69,119.3,59.13,120.08,59.13,120.08
	L59.13,120.08z M68.09,58.88c0.02-0.57,0.64-3.03,1.12-1.66C69.68,58.6,69.6,60.07,68.09,58.88L68.09,58.88z M92.69,134.83
	c0.33,0.28,1.02,0.04,1.14-0.72C93.96,133.35,90.99,129.1,92.69,134.83L92.69,134.83z M82.95,132.09c1.09-0.29,2.57-1.82,1.59-1.82
	C83.56,130.28,82.49,131.01,82.95,132.09L82.95,132.09z M87.58,133.96c0,0,1.91,0.32,1.66-0.34
	C88.98,132.96,87.98,132.47,87.58,133.96L87.58,133.96z M135.17,68.99c0,0,0.58-0.13,0.58-0.62c0.01-0.5,0.06-1.05-0.51-0.92
	c-0.58,0.13-0.69,0.21-0.66,0.41C134.6,68.05,134.61,69.23,135.17,68.99L135.17,68.99z M135.27,63.33c0,0,0.96,0.37,0.85-0.68
	c-0.11-1.05,0.39-1.71-0.51-1.44c-0.9,0.27-1.17,0.3-1.17,0.3L135.27,63.33L135.27,63.33z M87.69,80.43l0.72,1.39l0.7-0.71
	c0,0,0.28-0.33-0.03-0.62C88.77,80.21,87.69,80.43,87.69,80.43L87.69,80.43z M65.16,62.51c0.2,0.05,1.18,1.11,1.27-0.27
	c0.09-1.37-0.09-1.43-0.55-1.24C65.41,61.19,65.16,62.51,65.16,62.51L65.16,62.51z M129.79,65.9c-0.03-0.19,0.13-1.48,0.34-1.36
	c0.21,0.12,0.99,0.99,0.99,0.99l-0.66,1.94L129.79,65.9L129.79,65.9z M121.48,155.31c0,0,3.29-0.46,2.2,0.62
	C122.59,157,121.63,156.81,121.48,155.31L121.48,155.31z M106.32,41.81c0.49,1.46-0.8,1.35-1.03,1.01
	C105.05,42.47,102.93,40.55,106.32,41.81L106.32,41.81z M105.76,175.07c0.09,1.79,1.41,2.14,1.5,1.16
	C107.36,175.25,106.05,173.17,105.76,175.07L105.76,175.07z M107.96,171.46c0,0,0.03,1.93,0.79,0.97
	C109.51,171.47,108.75,169.69,107.96,171.46L107.96,171.46z M111.8,149.29c-0.05,0.27,0.16,2.29,0.84,1.94
	c0.67-0.35,0.67-1.59,0.67-1.59L111.8,149.29L111.8,149.29z M125.07,151.08c0,0-0.58,1.13,0.25,1.16
	C126.16,152.28,127.26,151.03,125.07,151.08L125.07,151.08z M102.95,44.03c0,0-1.01,0.76-0.41,1.44
	C103.13,46.15,103.81,44.76,102.95,44.03L102.95,44.03z M105.81,48.08c-0.03,0.84,1.05,2.25,1.38,1.87
	c0.33-0.39,0.85-1.59,0.16-1.86C106.67,47.82,105.81,48.08,105.81,48.08L105.81,48.08z M130.93,163.23
	c0.55,0.15,2.79,1.32,1.35,1.47C130.84,164.85,129.43,164.43,130.93,163.23L130.93,163.23z M110.18,176.55
	c-0.34,0.26-0.27,0.99,0.44,1.28C111.32,178.13,116.11,176.19,110.18,176.55L110.18,176.55z M116.56,167.39
	c0.03,1.14-0.33,3.18-0.11,2.22C116.67,168.64,117.71,167.19,116.56,167.39L116.56,167.39z M112.18,171.74c0,0-0.74,1.8-0.05,1.7
	C112.83,173.34,113.53,172.47,112.18,171.74L112.18,171.74z M115.24,178.7c0,0-0.01,0.59,0.47,0.71c0.48,0.12,1,0.3,1.01-0.29
	c0.01-0.59-0.05-0.72-0.24-0.74C116.28,178.36,115.13,178.09,115.24,178.7L115.24,178.7z M123.38,164.32c0,0-0.58,0.86,0.47,0.99
	c1.04,0.13,1.57,0.78,1.51-0.17c-0.05-0.94-0.03-1.21-0.03-1.21L123.38,164.32L123.38,164.32z M128.05,156.15l-1.51,0.39l0.53,0.84
	c0,0,0.26,0.35,0.6,0.11C128.02,157.26,128.05,156.15,128.05,156.15L128.05,156.15z M128.08,159.53c-0.09,0.19-1.34,0.9-0.03,1.31
	c1.31,0.4,1.4,0.24,1.33-0.26C129.3,160.08,128.08,159.53,128.08,159.53L128.08,159.53z M122.14,158.36
	c0.19,0.02,1.4,0.46,1.24,0.64c-0.17,0.18-1.18,0.74-1.18,0.74l-1.73-1.09L122.14,158.36L122.14,158.36z M85.43,104.22
	c1.3-0.81,1.49,0.47,1.21,0.78C86.36,105.31,84.98,107.82,85.43,104.22L85.43,104.22z M90.16,177.83c1.71-0.5,1.75-1.86,0.78-1.74
	C89.97,176.22,88.25,177.98,90.16,177.83L90.16,177.83z M67.13,162.88c0,0,1.86-0.47,0.76-0.99
	C66.79,161.36,65.23,162.51,67.13,162.88L67.13,162.88z M60.67,163.2c0.27-0.01,2.18-0.68,1.68-1.26s-1.69-0.3-1.69-0.3L60.67,163.2
	L60.67,163.2z M91.68,151.82c0,0,1.22,0.31,1.07-0.51C92.59,150.49,91.13,149.69,91.68,151.82L91.68,151.82z M88.35,107
	c0,0,0.97,0.81,1.49,0.08C90.36,106.34,88.86,106,88.35,107L88.35,107z M65.87,97.35c0.82-0.16,1.94-1.54,1.49-1.78
	c-0.45-0.24-1.74-0.47-1.84,0.26C65.43,96.57,65.87,97.35,65.87,97.35L65.87,97.35z M153.78,135.77c0.02-0.57,0.64-3.03,1.12-1.66
	C155.37,135.49,155.29,136.96,153.78,135.77L153.78,135.77z M90.59,173.16c0.33,0.28,1.02,0.04,1.14-0.72
	C91.85,171.69,88.88,167.44,90.59,173.16L90.59,173.16z M61.81,156.81c1.09-0.29,2.57-1.82,1.59-1.82
	C62.41,155,61.35,155.73,61.81,156.81L61.81,156.81z M66.44,158.68c0,0,1.91,0.32,1.66-0.34C67.84,157.68,66.84,157.19,66.44,158.68
	L66.44,158.68z M165.7,108.6c0,0,0.58-0.12,0.58-0.62c0.01-0.5,0.06-1.05-0.51-0.92c-0.58,0.13-0.69,0.21-0.66,0.41
	C165.14,107.66,165.14,108.85,165.7,108.6L165.7,108.6z M165.81,102.94c0,0,0.96,0.37,0.85-0.68c-0.11-1.05,0.39-1.71-0.51-1.44
	c-0.9,0.27-1.17,0.3-1.17,0.3L165.81,102.94L165.81,102.94z M132.84,107.78l0.72,1.39l0.7-0.71c0,0,0.28-0.33-0.03-0.62
	C133.92,107.56,132.84,107.78,132.84,107.78L132.84,107.78z M136.11,106.98c0.2,0.05,1.18,1.11,1.27-0.27
	c0.09-1.37-0.09-1.43-0.55-1.24C136.36,105.66,136.11,106.98,136.11,106.98L136.11,106.98z M145.67,78.33
	c-0.03-0.19,0.13-1.48,0.34-1.36c0.21,0.12,0.99,0.99,0.99,0.99l-0.66,1.94L145.67,78.33L145.67,78.33z"/>
<polygon class="st31" points="60.75,129.72 67.45,134.91 64.97,137.24 57.26,132.11 60.75,129.72 "/>
<path class="st103" d="M71.1,116.75c0,0,4.79,2.39,4.22,3.74c-0.57,1.35-0.07,4.85-0.6,5.06c-0.54,0.2-7.44-2.26-7.44-2.46
	C67.28,122.88,66.85,117.49,71.1,116.75L71.1,116.75z"/>
<path class="st31" d="M119.83,141.82c0,0-3.65,3.2-2.38,3.94c1.27,0.74,4.83,3.2,4.96,2.97c0.13-0.24,1.27-2.33,1.44-3.24
	C124.02,144.58,122.48,142.23,119.83,141.82L119.83,141.82z"/>
<path class="st31" d="M95,156.11l5.33-1.38c0,0,0.27-2.29-0.07-3.81c-0.34-1.52-0.47-1.89-0.47-1.89l-6.1,0.34
	C93.69,149.37,92.49,154.02,95,156.11L95,156.11z"/>
<path class="st86" d="M93.53,150.19c-0.21,1.4-0.38,4.23,1.34,5.8c0.46-0.62,0.82-1.53,0.5-2.78
	C94.94,151.56,94.14,150.65,93.53,150.19L93.53,150.19z"/>
<polygon class="st31" points="98.35,53.93 100.09,62.26 96.71,62.41 94.16,53.48 98.35,53.93 "/>
<path class="st103" d="M114.61,50.84c0,0,2.1,4.95,0.79,5.6c-1.3,0.65-3.19,3.64-3.73,3.45c-0.54-0.2-4.19-6.58-4.06-6.73
	C107.74,53.01,110.9,48.62,114.61,50.84L114.61,50.84z"/>
<path class="st31" d="M135.44,101.75c0,0-4.85,0.05-4.36,1.44c0.49,1.4,1.6,5.59,1.85,5.5c0.25-0.09,2.47-0.94,3.19-1.52
	C136.84,106.59,137.19,103.79,135.44,101.75L135.44,101.75z"/>
<path class="st31" d="M107.33,96.38l4.94,2.43c0,0,1.68-1.57,2.41-2.94c0.73-1.37,0.86-1.74,0.86-1.74l-4.85-3.73
	C110.69,90.4,106.77,93.15,107.33,96.38L107.33,96.38z"/>
<path class="st86" d="M110.04,90.92c-1.06,0.92-3.03,2.97-2.74,5.28c0.75-0.17,1.61-0.63,2.18-1.79
	C110.23,92.88,110.2,91.67,110.04,90.92L110.04,90.92z"/>
<path class="st31" d="M60.71,68.08c0,0-3.65,3.2-2.38,3.94c1.27,0.74,4.83,3.2,4.96,2.97c0.13-0.24,1.27-2.33,1.44-3.24
	C64.9,70.84,63.36,68.48,60.71,68.08L60.71,68.08z"/>
<path class="st31" d="M34.97,94.65l0.08,5.53c0,0,2.15,0.8,3.7,0.83c1.54,0.03,1.93-0.02,1.93-0.02l1.11-6.04
	C41.79,94.96,37.58,92.68,34.97,94.65L34.97,94.65z"/>
<path class="st86" d="M41.04,94.61c-1.3-0.53-4-1.37-5.92-0.06c0.49,0.6,1.29,1.16,2.57,1.14C39.38,95.66,40.45,95.09,41.04,94.61
	L41.04,94.61z"/>
<path class="st31" d="M89.84,93.63c0,0-3.65,3.2-2.38,3.94c1.27,0.74,4.83,3.2,4.96,2.97c0.13-0.24,1.27-2.33,1.44-3.24
	C94.03,96.4,92.49,94.04,89.84,93.63L89.84,93.63z"/>
<path class="st31" d="M155.31,115.38c0,0-3.92-2.86-4.35-1.45c-0.43,1.41-2.03,5.45-1.77,5.52c0.26,0.08,2.54,0.73,3.46,0.69
	C153.57,120.1,155.51,118.07,155.31,115.38L155.31,115.38z"/>
<path class="st103" d="M162.96,66.84c0,0,2.1,3.66,0.79,4.14c-1.3,0.48-3.19,2.69-3.73,2.55c-0.54-0.15-4.19-4.86-4.06-4.97
	C156.09,68.44,159.24,65.2,162.96,66.84L162.96,66.84z"/>
<path class="st159" d="M34.52,80.42c0,0,5.16,5.39,4.42,8.96c-0.74,3.57-4.56-0.61-7.1,5.8c-2.55,6.4-13.87,10.04-10.05,4.72
	c3.82-5.32,11.13-6.07,10.52-10.78C31.7,84.4,30.7,78.47,34.52,80.42L34.52,80.42z M81.92,159.01c0,0,7.24,2.02,3.49,2.9
	C81.65,162.79,78.37,160.76,81.92,159.01L81.92,159.01z M37.03,135.09c0,0-2.09,3.14,6.11,1.73c8.21-1.4,12.03,0.08,9.41,0.75
	c-2.61,0.67-8.24-0.27-12.13,1.82C36.53,141.49,30.8,133.55,37.03,135.09L37.03,135.09z M65.33,149.41c0.91,0.4,2.88,1.62,5.19,1.99
	c2.31,0.37-1.94,2.76-4.36,1.89C63.76,152.41,63.19,147.79,65.33,149.41L65.33,149.41z"/>
<path class="st159" d="M139.03,81.03c0.2,0.44,3.12,2.26,2.95,3.98c-0.17,1.72-3.92,1.95-4.89,2.56
	C136.11,88.17,133.16,80.15,139.03,81.03L139.03,81.03z M76.9,62.22c-0.4,0.81-0.67,7.68,3.22,4.72c3.89-2.97-3.05-5.76,2.95-6.23
	c6-0.47,1.14-3.91-1.37-2.83C79.18,58.95,76.9,62.22,76.9,62.22L76.9,62.22z M101.56,50.86c1.47,1.01,1.88,3.71,0.2,3.37
	C100.09,53.9,96.67,49.52,101.56,50.86L101.56,50.86z"/>
<path class="st145" d="M170.67,151.83c0,0-4.42-2.97-10.72,2.29c-6.3,5.26-6.03,8.83-12.8,12.4c-6.77,3.57-11.13,6.67-7.98,8.69
	c3.15,2.02,7.04-6.4,14.14-8.09c7.1-1.69,9.25-10.52,13.94-10.58c4.69-0.07,5.43-2.29,9.12-9.37c3.69-7.08,5.43-13.08,3.89-14.36
	c-1.54-1.28-3.55,0-4.56,6.74C174.69,146.31,172.28,149.68,170.67,151.83L170.67,151.83z M101.9,23.63
	c2.21-0.81,5.9-2.83,15.08-0.67c9.18,2.16,7.31,3.64,12.13,4.18c4.83,0.54,6.7-0.74,10.39,1.15c3.69,1.89-0.07,2.7,6.57,6.2
	c6.64,3.5,6.77,3.03,10.79,6.34c4.02,3.3,7.51,5.46,7.24,6.67c-0.27,1.21-6.43-2.16-10.66-5.46c-4.22-3.3-14.81-10.04-13.87-6.87
	c0.94,3.17,10.46,9.44,2.68,6.81c-7.77-2.63-5.3-9.64-12.27-10.52c-6.97-0.88-6.77,0.94-10.99-2.22c-4.22-3.17-6.17-4.18-10.59-3.77
	C103.98,25.86,94.5,25.61,101.9,23.63L101.9,23.63z M179.11,83.69c0,0,3.62,12.54,5.23,19.82c1.61,7.28-0.94,11.59-2.14,16.04
	c-1.21,4.45-3.09,7.54-3.09,7.54s-1.2-4.43,1.62-12.25c2.81-7.82-0.29-12.34-1.42-17.97C178.18,91.24,175.65,80.38,179.11,83.69
	L179.11,83.69z"/>
<path class="st161" d="M58.47,39.34c0,0,7.24,1.62,5.9,3.44c-1.34,1.82-6.3-1.08-4.89,2.49c1.41,3.57-0.8,4.92-1.27,5.53
	c-0.47,0.61,0.27-0.2-2.35,3.84c-2.61,4.04-5.16,3.44-5.3,7.08c-0.13,3.64-0.67,5.39-1.94,6c-1.27,0.61-0.34,0.47-3.42,1.42
	c-3.08,0.94-4.42,3.98-5.83,4.99c-1.41,1.01-3.49,0.07-2.28-1.28c1.21-1.35,6.5-5.32,9.05-8.09c2.55-2.76,10.46-12.47,9.85-14.9
	c-0.6-2.43,0.34-2.36,0.8-4.38c0.47-2.02,2.24-3.23,1.61-3.71C57.77,41.29,55.92,38.93,58.47,39.34L58.47,39.34z"/>
<path class="st154" d="M48.31,144.59c0,0-4.06-0.07-5.53,4.08c-1.47,4.15-2.14,7.18-1.34,8.46c0.8,1.28,1.68,0.47,4.69,1.69
	c3.02,1.21,3.52,1.35,6.74,2.49c3.22,1.15,3.92,1.95,6,2.76c2.08,0.81,5.16,1.58,6.5,1.62c1.34,0.03,2.08-0.81-1.07-1.58
	c-3.15-0.78-4.39-3.03-6.77-3.67c-2.38-0.64-4.12-1.18-6.74-2.26c-2.61-1.08-5.83-2.06-6.97-3.24c-1.14-1.18,0.9-7.35,2.78-8.36
	C48.48,145.56,49.35,144.59,48.31,144.59L48.31,144.59z"/>
<path class="st162" d="M51.06,146.37c-0.54,0.1-3.75,1.72-4.69,3.64c-0.94,1.92-0.67,3.03,2.55,2.9c3.22-0.13,2.71,1.55,4.12,2.9
	c1.41,1.35,0.84-5.22,4.12-2.16c3.28,3.07,3.59,3.64,4.93,5.06c1.34,1.42-0.9-2.33-2.21-4.62c-1.31-2.29-2.18-3.4-4.32-4.11
	C53.41,149.27,52.04,145.12,51.06,146.37L51.06,146.37z"/>
</svg>
