<?xml version="1.0" encoding="UTF-8"?>
<svg id="Layer_2" data-name="Layer 2" xmlns="http://www.w3.org/2000/svg" viewBox="0 0 315.2 187.97">
  <defs>
    <style>
      .cls-1 {
        opacity: .89;
      }

      .cls-2 {
        opacity: .78;
      }

      .cls-3 {
        fill: #7a4e32;
      }

      .cls-3, .cls-4, .cls-5, .cls-6, .cls-7, .cls-8, .cls-9, .cls-10, .cls-11, .cls-12, .cls-13, .cls-14 {
        stroke-width: 0px;
      }

      .cls-4 {
        fill: #4b2b18;
      }

      .cls-5 {
        fill: #54331e;
      }

      .cls-6 {
        fill: #972000;
      }

      .cls-7 {
        fill: #2f292b;
      }

      .cls-8 {
        fill: #1a3400;
      }

      .cls-9 {
        fill: #3f3c3e;
      }

      .cls-10 {
        fill: #c7874c;
      }

      .cls-11 {
        fill: #de9b00;
      }

      .cls-12 {
        fill: #8e6949;
      }

      .cls-13 {
        fill: #ffd43e;
      }

      .cls-14 {
        fill: #681700;
      }
    </style>
  </defs>
  <g>
    <path class="cls-9" d="m315.2,169.91c0,9.93-8.2,18.06-18.22,18.06H18.21c-10.02,0-18.21-8.13-18.21-18.06V18.06C0,8.13,8.2,0,18.21,0h278.77c10.02,0,18.22,8.13,18.22,18.06v151.84Z"/>
    <path class="cls-7" d="m294.55,7.36H19.33c-4.93,0-9.25,2.57-11.53,6.35,1.94-1.06,4.19-1.67,6.58-1.67h275.22c7.28,0,13.23,5.58,13.23,12.41v148.52c0,2.2-.62,4.26-1.7,6.06,3.96-2.15,6.65-6.16,6.65-10.74V19.77c0-6.83-5.96-12.41-13.23-12.41Z"/>
    <path class="cls-7" d="m283.27,148.65c0,8.71-7.18,15.83-15.96,15.83H42.38c-8.78,0-15.96-7.12-15.96-15.83V40.76c0-8.71,7.18-15.83,15.96-15.83h224.93c8.78,0,15.96,7.13,15.96,15.83v107.89Z"/>
  </g>
  <path class="cls-4" d="m129.47,38.18c-16.1-2.29-30.86-5.7-47.23-3.38-9,1.27-17.52,5.22-26.07,8.09-6.72,2.26-13.3.24-17.98,7-4.04,5.82-2.1,12.26-.12,18.85,2.44,8.13,1.16,9.35-2.76,16.59-4.09,7.55.19,10.66,3.61,17.95,4.14,8.84,1.21,9.62-2.52,17.69-2.63,5.69-2.72,10.92,1.07,16.7,8.63,13.18,20.57,12.46,33.94,14.43,12.34,1.83,30.01,2.59,41.56-2.36,8.81-3.77,15.46-9.57,25.92-9.19,6.58.24,13.41,3.17,19.37,5.74,5.77,2.49,12.4,6.63,18.49,7.25,8.92.91,17.47-4.31,25.81-6.51,15.9-4.2,26.94,8.63,42.43-1.44,6.44-4.19,13.44-8.4,19.58-12.8,7.03-5.03,5.23-8.48,4.76-16.55-.84-14.59,10.79-24.52,6.69-40.27-1.73-6.63-3.88-15.51-8.69-20.31-5.37-5.35-12.5-5.11-18.88-8.09-9.09-4.25-17.2-9.48-26.84-12.13-14.52-3.99-28.02.6-42.81,2.76-15.36,2.24-33.94,2.18-49.32-.02Z"/>
  <g class="cls-1">
    <path class="cls-3" d="m58.05,37.52c-11.35-4.65-27.21.63-27.24,14.45-.01,6.77,3.62,13.58,10.3,15.73,7.33,2.36,12.29-2.93,16.18-8.18,1.96-2.65,3.47-5.17,7.09-4.16,2.7.75,4.31,3.57,5.19,5.99,1.91,5.25,1.41,11.88-1.59,16.62-1.9,3.01-9.19,6.99-11.78,2.85-2.37-3.79-.57-9.97.62-13.84,1.47-4.79,3.99-10.46,8.16-13.55,1.64-1.22.22-3.87-1.65-2.79-11.82,6.84-26.52,11.11-32.11,24.74-5.14,12.54-.17,27.08,12.7,32.41,11.84,4.91,24.73-1.94,26.19-14.92,1.23-10.96-11.74-15.89-20.59-12.88-8.24,2.8-13.46,13.8-5.16,19.52,6.87,4.73,20.94,4.86,26.75-1.7.94-1.06.32-2.72-1.16-2.76-12.76-.37-25.61,11.73-30.63,22.5-2.46,5.28-2.9,11.21.33,16.26,2.8,4.37,8,6.41,13.04,6.5,4.64.08,9.37-1.86,12.1-5.65,3.03-4.22,1.19-10.11-2.09-13.57-7.97-8.43-27.07-.52-29.57,9.69-1.45,5.92,2.72,11.8,7.24,15.15,5.14,3.81,11.58,3.35,16.08-1.07,4.27-4.19,2.58-10.49-1.33-14.19-4.57-4.31-10.65-3.84-15.45-.32-10.25,7.52,1.66,16.76,9.02,20.01,9.69,4.29,22.82,5.93,28.03-5.52,2.66-5.85,2.47-12.79,2.59-19.07.12-6.44-.23-14.07,4.48-19.1,4.44-4.73,12.57-7.55,18.74-4.74,3.29,1.5,5.26,4.85,5.99,8.24.65,3.04-1.44,5.43-3.57,7.27-3.9,3.38-9.19,5.77-11.21,10.83-1.96,4.91-.75,10.16,3.8,13.07,10.22,6.54,24.57-2.78,22.86-14.49-2.01-13.78-18.49-21.86-29.36-11.66-8.83,8.28-2.54,22.6,5.46,28.84,10.08,7.87,25.17,3.44,31.25-7.34,6.57-11.64-10.46-24.59-20.57-16.6-4.15,3.28-5.74,9.77-3.68,14.63,2.27,5.34,7.53,8.62,12.64,10.94,10.39,4.71,24.01,6.49,33.62-.86,10-7.65,11.35-21.47,9.72-32.94-.31-2.2-1.03-5.45.48-7.37,1.87-2.39,6.67-2.14,9.33-1.7,7.12,1.18,14.48,5.59,19.96,10.13v-2.29c-4.86,4.2-9.87,8.24-14.19,13-3.29,3.62-6.82,8.37-6.22,13.52.7,6.05,7.19,8.97,12.27,10.74,5.56,1.93,11.95,2.99,17.6.81,7.74-2.98,10.88-11.82,8.91-19.43-2.16-8.31-10.72-10.64-17.17-5.1-3.84,3.3-5.41,8.95-5.11,13.81.34,5.59,3.82,9.5,9.11,11.08,5.25,1.57,10.51-1.66,11.3-6.99.77-5.18-3.02-9.98-7.15-12.66-9.06-5.88-22.33-3.11-31.95-.42-10.32,2.89-21.19,7.33-29.64,14.01.85.11,1.71.22,2.56.33-4.28-9.53-3.34-20.35-4.71-30.48-.94-6.88-3.39-16.02-10.15-19.51-4.21-2.18-9.09-.21-11.75,3.38-3.58,4.84-3.72,11.16-1.56,16.61,3.67,9.26,18.16,19.9,28.46,14.79,11.01-5.46,5.96-19.67,1.78-27.8-4.29-8.34-13.15-21.11-24.22-19.13-4.71.84-8.17,5.08-8.51,9.66-.37,5.06,3.24,9.97,6.86,13.13,3.86,3.37,9.02,5.42,14.16,4.38,5.33-1.08,8.88-6.58,10.32-11.38,3.49-11.64-5.17-23.79-13.66-30.86-9.25-7.71-21.48-11.91-32.89-6.59-11.25,5.24-17.21,17.31-16.97,29.28.24,12.11,7.2,23.52,18.31,28.69,11.73,5.45,26.64,2.66,34.28-8.01,7.94-11.09,1.5-23.88-9.01-30.27-5.27-3.21-12.65-3.38-18.52-5.01-2.98-.83-6.15-1.9-8.38-4.12-2.48-2.46-3.55-7.55-.26-9.63,5.19-3.28,14.1-2.35,19.62-.42,5.22,1.83,9.5,5.73,12.38,10.34,5.45,8.72,5.36,20.79-2.35,28.15-8.53,8.14-24.16,8.3-32.51.03-7.94-7.86-9.01-20.87-5.97-31.05,3.89-13.04,17.13-22.5,30.98-18.64,7.35,2.05,13.32,8.49,13.89,16.14.55,7.35-4.61,14.09-10.9,17.35-5.77,3-12.39,4.62-18.79,5.56-6.01.89-13.27,1.2-18.68-1.98-4.02-2.37-5.41-7.95-3.06-11.87,2.48-4.13,7.91-6.38,12.21-7.98,22.22-8.29,51.77-9.44,71.55,5.02,12.75,9.32,18.16,26.63,10.53,40.72-2.87,5.3-7.68,10.67-13.87,11.91-7.22,1.44-11.06-7.05-12.63-12.52-5.27-18.36,7.44-34.12,23.37-41.79,14.06-6.78,34.94-9.1,46.59,3.42,6.57,7.06,7.38,17.34,6.34,26.43-1.83,15.99-10.57,31.46-22.69,42.01-11.58,10.08-31.57,15.98-43.75,3.59-9.58-9.75-8.58-26.47-4.8-38.44,3.47-10.99,11.51-21.37,19.1-29.85,7.4-8.27,17.79-18.18,29.63-18.75,8.53-.41,14.1,6.36,17.52,13.3,4.84,9.82,3.53,19.84-1.35,29.36-9.73,18.97-28.09,31.61-39.58,49.31,1.01.27,2.03.54,3.04.82-1.94-19.29,5.75-38.48,10.73-56.79,2.84-10.43,4.1-22.05,9.25-31.7.34-.64,1.66-3.02,2.44-2.66,2.21,1.01,3.06,5.54,3.67,7.54,2.52,8.28,0,17.37-3.56,24.95-6.75,14.35-20.99,30.66-37.87,32.33-6.96.69-13.35-2.3-16.66-8.47-3.95-7.37-1.73-16.46,1.01-23.79,6.52-17.5,20.23-32.14,36.23-41.6,7.24-4.28,15.38-7.58,23.58-9.55,6.88-1.65,14.7-1.75,19.67,3.98,5.49,6.33,5.21,16.87,3.5,24.47-1.86,8.27-5.73,16-9.08,23.74-4.77,11.01-12.06,29.74-.57,39.37,9.5,7.98,23.85-3.32,29.88-10.51,7.7-9.19,5.41-23.46,5.33-34.57-.04-6.1-.29-12.57,1.33-18.5.59-2.17,1.59-3.61,3.83-4.28,2.35-.71,3.85,1.65,4.74,3.39,2.47,4.85,2.63,11.21,2.15,16.51-.54,5.93-4.58,10.77-8.47,15.02-9.29,10.15-21.73,18.3-26.47,31.77-2.82,8.03-2.67,27.34,10.37,24.8,5.15-1,9.75-5.04,13.38-8.55,3.67-3.54,7.64-7.99,9.55-12.78,2.8-7.02,3.9-23.53-5.33-26.81-4.63-1.64-10.06,1.43-13.19,4.72-1.97,2.07-2.67,5.51-.07,7.39,2.67,1.94,6.11.45,8.29-1.47,4.42-3.91,5.73-11.26,5.83-16.79.23-12.29-3.87-26.37-12.71-35.26-8.95-9.01-23.25-8.36-31.07,1.58-7.05,8.95-9.52,24.59.48,32.43,3.02,2.37,7.38,4.32,11.03,2.18,3.32-1.95,4.12-6.5,4.44-9.95.91-9.85-2.31-22.06-9.07-29.48-7.04-7.72-19.39-8.16-28.89-6.2-12.17,2.51-23.58,9.48-32.81,17.56.66-.09,1.32-.17,1.98-.25-7.25-4.92-14.81-8.4-23.45-10.08-10.56-2.04-21.73-1.59-32.45-1.65-3.79-.02-7.76-.43-11.48.37-2.99.64-5.99,1.25-9.01,1.77-2.95.51-15.28,3.46-13.74-3.09,1.11-4.71,9.58-7.36,13.48-8.74,6.13-2.18,12.28-2.92,18.78-3.31,10.34-.62,20.74.37,30.61,3.59,4.86,1.59,9.41,3.92,13.69,6.68,3.92,2.53,7.26,5.82,11.25,8.25,11.42,6.94,27.8-1.17,34.12-11.69,2.75-4.57,2.03-10.56-2.26-13.97-3.17-2.52-7.87-3.27-11.75-3.93-5.51-.93-11.17-1.24-16.75-.85-4.13.29-8.63.99-11.95,3.63-3.42,2.72-1.82,7.31.95,9.78,3.93,3.5,9.45,4.41,14.09,6.6.13-.99.26-1.97.39-2.96-22.89,4.78-45.87,9.81-69.34,10.4-9.16.23-18.88.52-26.96-4.34-4.95-2.98-10.11-9.32-5.77-14.88,5.09-6.52,16.32-7.57,23.94-7.98,9.49-.51,19.04.69,28.37,2.27,16.9,2.86,33.53,7.17,50.37,10.34,14.77,2.78,29.17,6.97,44.15,8.74,12.82,1.51,29.3,1.97,38.81-8.32.62-.67.62-1.62,0-2.29-8.02-8.71-21.5-10.36-32.7-10.98-14.61-.81-29.34.81-43.78,2.86-20.89,2.97-41.51,7.6-62.5,9.87-11.86,1.28-24.45,2.32-36.22-.14-4.04-.84-8.27-2.28-11.09-5.41-2.03-2.25-2.93-6.29-1.5-9.04,1.5-2.89,5.32-3.9,8.26-4.5,4.72-.97,9.69-.84,14.48-.59,11.67.61,23.26,2.84,34.65,5.32,7.86,1.71,15.65,3.71,23.43,5.73,9.06,2.35,17.9,4.72,27.18,6.15,10.88,1.68,21.86,2.62,32.81,3.73,8.31.84,16.7,1.59,24.91,3.11,7.18,1.34,14.71,3.5,20.29,8.39,6.52,5.72,7.16,14.9,4.24,22.58-3.38,8.88-11.67,14.25-20.91,15.32-17.86,2.07-35.82-7.32-51.18-15.11-12.27-6.22-25.51-10.74-39.01-13.45-26.65-5.36-60.09-2.13-72.9,25.52-3.27,7.05-3.8,15.25-.8,22.46,3.06,7.34,10.05,12.55,17.33,15.35,15.95,6.14,34.17-1.95,48.19-9.28,8.25-4.31,16.06-9.31,24.68-12.88,9.48-3.93,19.56-6.47,29.74-7.78,16.7-2.14,34.52-.55,50.34,5.37,5.43,2.03,12.6,5.3,14.95,11,3.13,7.59-7.4,11.97-13.2,13.06-1.7.32-1.41,2.65,0,3.12,6.56,2.2,14.15.39,15.58-7.17,1.23-6.48-3.75-11.83-10.33-10.97-7.8,1.01-14.91,8.66-8.98,15.78,4.74,5.69,14.63,5.89,17.9-1.26.4-.86.2-1.67-.58-2.22-13.87-9.71-33.56.04-47.63,4.39-8.84,2.74-17.99,5.14-26.75.95-9.59-4.59-17.6-14.87-18.4-25.53-.16-2.07-3.42-2.08-3.26,0,.75,9.94,6.64,18.72,14.41,24.78,7.57,5.9,15.79,7.25,25.04,5.5,9.73-1.84,18.96-5.77,28.47-8.44,8.6-2.42,18.66-4.32,26.49,1.15-.2-.74-.39-1.48-.59-2.21-2.43,5.32-8.65,4.6-12.4,1-5.33-5.1,2.48-10.4,7.49-10.77,4.3-.32,6.63,3.58,5.9,7.44-1.07,5.63-6.95,5.98-11.48,4.46v3.12c5.96-1.12,13.46-4.42,15.65-10.49,1.9-5.28-1.72-10.36-5.65-13.52-10.36-8.32-26.21-10.98-39.03-12.21-19.42-1.87-39.27,1.8-57.12,9.41-16.76,7.15-31.09,18.66-49.4,22.22-9.17,1.78-18.42.46-26.14-4.9-8.33-5.79-11.44-15.21-9.11-24.86,3.57-14.85,17.88-25,32.03-28.66,28.05-7.24,58.13,3.96,82.88,16.37,15.13,7.59,33.06,15.04,50.35,12,15.39-2.7,26.1-19.37,21.2-34.28-4.43-13.48-20.96-17.09-33.35-18.84-20.31-2.87-40.9-3.58-61.07-7.48-10.29-1.99-20.33-5.28-30.52-7.77-10.88-2.67-21.86-4.99-32.96-6.57-10.36-1.47-44.56-6.4-39.51,13.57,2.1,8.3,12.46,10.8,19.79,11.74,12.27,1.57,24.85.42,37.07-1.07,20.79-2.52,41.27-7.1,62.02-9.91,13.09-1.78,26.39-2.93,39.61-2.29,10.31.5,23.02,2.02,30.39,10.04v-2.29c-9.62,10.41-27.06,8.7-39.77,6.96-13.94-1.91-27.43-5.93-41.24-8.44-17.21-3.14-34.15-7.66-51.42-10.49-15.54-2.55-36.01-5.12-49.97,4.06-5.84,3.84-7.44,10.4-3.75,16.3,4.21,6.75,12.81,10.17,20.43,10.92,28.49,2.81,57.66-4.35,85.32-10.13,1.33-.28,1.65-2.36.39-2.96-4.46-2.1-13.09-3.23-15.19-8.28-2.15-5.16,10.15-5.7,12.71-5.81,6.36-.27,12.91.38,19.05,2.02,1.82.49,3.97,1.08,5.39,2.38,4,3.66,2.4,8.55-.59,12.19-5.19,6.3-15.84,11.98-24.06,9.67-4.11-1.16-7.68-4.34-10.94-6.9-3.93-3.09-8.04-5.65-12.6-7.74-8.65-3.97-18.14-5.68-27.61-6.13-7.79-.37-16.28-.12-23.88,1.81-6.99,1.77-15.93,4.57-20.36,10.61-1.9,2.59-1.42,5.99.62,8.33,2.34,2.68,6.84,2.01,10,1.71,4.74-.46,9.44-1.42,14.09-2.41,6.76-1.43,14.42-.49,21.32-.38,8.44.14,16.9.23,25.16,2.11,7.12,1.63,13.44,5,19.43,9.07.63.43,1.45.21,1.98-.25,12.7-11.12,32.24-21.96,49.56-16,11.56,3.98,15.49,17.86,15.73,28.84.07,3.12-.04,9.41-3.86,10.56-1.99.6-4.26-.9-5.83-1.9-3.03-1.91-4.74-5.16-5.56-8.52-1.6-6.56.84-13.85,4.58-19.24,4.1-5.91,10.83-8.47,17.88-6.91,13.68,3.03,19.12,21.01,20.3,32.96.63,6.3.24,14.28-4.3,19.21-1.14,1.23-6.25,2.96-4.44-.32,1.17-2.12,4.31-3.71,6.47-4.51,2.65-.98,4.9-.04,6.4,2.23,3.01,4.56,2.8,11.47,1.84,16.61-1.01,5.38-4.67,9.8-8.33,13.72-3.71,3.97-8.47,8.31-14,9.39-7,1.36-7.23-9.67-7.14-13.93.16-7.5,4.31-14.09,9.1-19.6,8.49-9.76,21.39-17.55,26.25-29.99,1.75-4.47,1.41-10.16.75-14.8-.64-4.49-1.83-9.61-5.68-12.47-3.24-2.41-8.02-.37-9.94,2.69-2.61,4.15-2.5,10.25-2.64,14.93-.22,7.05.08,14.12,0,21.17-.07,5.45.15,11.91-2.97,16.63-6.08,9.19-25.41,22.62-30.79,5.89-2.42-7.53.04-15.77,2.7-22.88,2.91-7.79,6.74-15.21,9.6-23.03,4.39-12.01,6.65-31.89-7.12-39.07-5.69-2.96-12.7-2.05-18.68-.62-7.82,1.88-15.56,5.22-22.56,9.13-15.4,8.6-28.2,22.07-35.95,37.8-5.65,11.47-10.48,29.39,1.69,38.7,11.83,9.04,27.62,1.43,37.37-6.94,11.97-10.27,22.13-25.81,22.69-41.86.19-5.56-1.2-12.96-5.09-17.23-2.53-2.78-5.62-.71-7.32,1.71-2.86,4.08-4.16,9.5-5.47,14.22-1.32,4.75-2.4,9.56-3.54,14.36-4.35,18.4-11.74,36.28-12.43,55.37-.09,2.47.03,4.94.27,7.4.16,1.58,2.12,2.24,3.04.82,8.35-12.88,20.39-23.14,29.98-35.08,8.66-10.76,16.62-23.79,14.06-38.1-1.93-10.77-9.94-22.73-21.74-23.64-10.97-.85-21.34,7.52-28.71,14.56-17.16,16.39-32.39,40.42-26.22,64.94,3.31,13.18,14.11,20.83,27.59,21,16.04.21,29.99-11.55,38.77-23.77,11.73-16.33,21.07-46.32,3.73-62.41-12.26-11.37-32.25-9.5-46.5-3.41-15.63,6.68-29.31,20.57-28.62,38.45.36,9.34,5.2,24.08,16.94,23.02,11.6-1.05,19.77-15.4,20.89-25.68,1.58-14.55-7.38-28.06-19.43-35.49-11.28-6.96-25.77-9.58-38.91-8.84-10.38.59-21.01,2.33-30.82,5.75-7.79,2.71-17.92,7.96-16.22,17.69,2.11,12.1,17.49,11.88,26.84,10.62,11.81-1.6,26.11-5.93,30.72-18.11,4.99-13.2-5.36-26.39-18.83-28-12.79-1.53-24.38,6.28-29.53,17.6-8.76,19.26,1.02,47.51,25.63,45.19,10.9-1.03,20.56-7.26,23.23-18.18,2.35-9.62-1.49-20.12-8.55-26.86-3.84-3.67-8.8-6.02-14.01-6.97-5.61-1.02-13.15-.8-18.08,2.31-4.79,3.03-3.44,10.19-.23,13.91,3.98,4.62,11.25,5.79,16.91,7.02,2.98.65,5.99,1.21,8.91,2.11,3.79,1.17,7.35,4.39,9.71,7.48,3.96,5.17,4.33,11.86,1.35,17.55-7.07,13.48-26.38,13.46-37.13,4.79-10.1-8.14-12.82-22.71-8.32-34.45,2.39-6.24,7.27-11.13,13.22-14.1,5.91-2.95,12.18-2.48,18.24-.24,11.67,4.32,23.53,16.31,24.09,29.17.26,5.78-3.06,12.86-9.21,14.11-5.77,1.16-11.73-3.99-14.5-8.44-3.09-4.96-1.91-11.1,4.32-12.61,5.41-1.32,10.75,4.12,13.89,7.7,4.29,4.88,7.57,10.89,9.68,17,1.77,5.13,2.56,11.13-1.87,15.23-4.83,4.47-13.26.29-17.63-2.7-5.92-4.05-10.3-10.89-8.88-18.21,1.12-5.81,6.89-10.23,11.95-5.49,7.21,6.75,6.72,19.9,7.35,28.87.44,6.29,1.35,12.45,3.95,18.26.47,1.04,1.83.91,2.56.33,10.16-8.04,24.14-12.91,36.78-15.15,6.4-1.14,13.73-1.5,19.71,1.43,2.98,1.46,5.33,4.06,6.43,7.17,1.92,5.47-3.21,8.3-7.91,6.9-14.02-4.19-.33-29.28,8.36-19.18,5.36,6.22,1.38,17-5.9,19.48-4.83,1.65-10.15.3-14.82-1.19-4.72-1.5-11.01-4.56-9.74-10.45.95-4.41,4.77-8.16,7.85-11.22,3.62-3.61,7.62-6.83,11.48-10.17.63-.54.65-1.75,0-2.29-5.68-4.71-12.51-8.54-19.64-10.56-4.8-1.36-12.85-1.48-15.35,3.8-1.01,2.14-.76,4.67-.5,6.94.42,3.57,1.04,7.06.93,10.67-.23,7.4-3.01,15.31-8.65,20.31-10.47,9.27-31.11,4.24-39.87-5.18-2.82-3.03-2.83-6.43-1.89-10.2,1.23-4.96,6.84-6.01,11.12-4.83,3.65,1,7.25,3.95,8.24,7.63.9,3.32-1.24,6.76-3.35,9.12-4.66,5.19-12.69,8.17-19.44,5.81-6.09-2.12-10.62-8.05-12.39-14.01-1.91-6.41.53-12.39,6.61-15.32,8.29-4,16.9,2.6,19.38,10.4,2.45,7.74-3.19,14.14-10.82,14.75-6.57.52-12.09-4.36-8.92-11,2.33-4.89,8.44-7.1,12.04-10.92,3.98-4.23,3.18-9.79.25-14.37-7.04-10.99-23.61-5.5-29.87,3.24-3.49,4.88-3.22,12.33-3.35,18-.15,6.67.28,14.17-3.13,20.18-6.23,10.97-24.59,3.41-31.38-3.05-4.73-4.5-1.73-9.61,4.1-11.21,3.35-.92,6.93,1.36,8.79,3.95,2.6,3.64.87,7.44-2.62,9.64-5.77,3.64-12.87-2.75-14.93-7.76-2.63-6.38,2.84-10.88,8.02-13.55,5.21-2.68,12.92-3.74,16.69,1.73,2.95,4.27,1.1,8.88-3.24,11.04-4.14,2.06-9.46,1.38-13.24-1.06-5.03-3.26-5.21-9.49-3.42-14.56,3.64-10.3,16.69-22.31,28.25-21.98-.38-.92-.77-1.84-1.15-2.76-5.02,5.67-28.29,6.02-25.3-5.12,3.04-11.33,23.43-10.76,23.39,1.8-.02,7.16-6.47,13.46-13.43,14.09-6.55.59-12.79-3.14-16.83-7.97-5.24-6.27-4.95-14.79-2.25-22.07,2.59-7,8.96-11.35,15.27-14.78,5.07-2.76,10.34-5.13,15.33-8.02-.55-.93-1.1-1.86-1.65-2.79-7.45,5.52-11.54,17.09-11.36,26.07.08,3.65,1.37,7.28,4.99,8.71,4.01,1.58,9.77-1.25,12.5-4.08,6.35-6.6,6.45-22.05-1.37-27.66-4.54-3.25-8.89-1.94-12.09,2.19-2.19,2.83-4.13,6.19-7.25,8.11-4.39,2.72-9.92-.08-12.4-3.85-3.91-5.95-2.83-14.3,3.09-18.35,5.14-3.52,12.17-3.43,17.75-1.14,1.95.8,2.79-2.34.87-3.12h0Z"/>
  </g>
  <g class="cls-2">
    <path class="cls-5" d="m52.54,38.18c-22.06-1.11-25.04,34.89-12.04,46.67.51.46,1.36.67,1.98.25,4.9-3.35,6.82-8.9,8.4-14.34,1.62-5.57,2.81-13.85,9.35-15.72-.67-.38-1.34-.75-2.01-1.13,1.24,7.29-2.89,15.52-4.62,22.46-1.54,6.19-2.62,13.94,2.86,18.55.64.54,1.69.71,2.31,0,10.08-11.45,5.09-29.03,11.48-42.07,1.67-3.41,4.03-7.67,7.81-9.1,3.99-1.51,4.55,4.33,4.54,6.8-.01,4.84-2.03,9.57-3.48,14.12-1.86,5.82-3.6,11.72-4.5,17.78-.64,4.35-1.09,9.69,1.59,13.49,2.52,3.56,7.04,3.89,10.11.95,3.89-3.72,5.65-12.13,11.63-13.07-.67-.38-1.34-.75-2.01-1.13,1.33,5.37-15.23,6.87-18.29,7.48-8.92,1.76-19.78,3.69-26.07,10.87-5.29,6.03-5.62,23.31,5.96,21.27,5.82-1.02,10.15-5.77,15.75-6.97,3.36-.72,18.11-2.1,14.81,4.82-2.95,6.2-10.13,7.37-16.18,8.65-5.54,1.17-11.67,2.22-15.92,6.23-3.43,3.23-4.54,9.5-.68,12.8,4.06,3.48,11.11,2.52,15.97,2.03,17.07-1.73,34.69-.93,51.51-4.53,4-.86,7.87-2.18,11.56-3.94,3.36-1.6,6.69-3.61,10.28-4.68,2.12-.63,3.87.33,5.64,1.42,3.62,2.23,6.93,4.93,10.62,7.06,14.06,8.11,33.15,5.29,48.28,2.59,8.95-1.6,17.94-2.94,26.89-4.52,7.51-1.33,15.12-3.43,20.79-8.76.75-.71.57-2.04-.33-2.54-6.38-3.54-14.83-1.89-21.61-.59-9.28,1.78-18.28,4.69-27.44,6.93-8.11,1.98-16.74,2.76-25.06,3.33-9.36.65-21.36.51-27.61-7.65-.2.74-.39,1.48-.59,2.21,16.42-8.78,36.65.68,53.97,1.06,10.17.23,21.12-2.24,30.45-6.09,3.43-1.41,8.14-3.53,9.46-7.33,1.36-3.9-1.94-7.25-5.15-8.94-5.23-2.75-11.96-2.38-17.65-1.87-7.4.66-14.71,2.27-21.95,3.89-5.24,1.18-10.51,2.63-15.86,3.3-5.56.7-11.4.66-17,.67-10.82.02-27.31-.58-32.38-12.1-.2.74-.39,1.48-.59,2.22,16.47-7.09,36.22-.33,52.92,2.55,17.23,2.97,35.48,3.45,48.99-9.28.61-.57.66-1.73,0-2.29-4.73-4.01-12.04-3.87-17.89-3.74-9.66.21-19.28,1.58-28.89,2.49-9.34.88-19.05,1.78-28.37.24-7.02-1.16-13.67-4.49-14.35-12.23-.4.52-.8,1.04-1.2,1.56,4.3-1.51,10.24.31,14.57.94,5.54.8,11.24,1.62,16.8.64,9.34-1.64,11.4-13.67,1.84-16.67-8.53-2.68-22.92.47-28.53,7.72-7.64,9.87,6.65,19.42,15.74,18.44,5.29-.57,10.09-5.33,9.24-10.84-.93-6.03-11.33-4.87-15.29-4.06-1.32.27-1.43,1.84-.72,2.71,9.11,11.07,24.3,5.18,32.92-3.28,4.17-4.09,7.57-9.52,7.95-15.44.4-6.24-4.14-10.54-9.53-12.77-.15,1.06-.29,2.12-.43,3.18,6.38-.31,12.92,1.97,18.54,4.77,5.75,2.87,12.48,7.68,13.29,14.54,1.68,14.23-23.4,15.31-23.16.78.11-6.88,7.43-12.15,12.76-15.26,5.52-3.22,12.32-5.84,18.82-5.65,7.99.24,14.66,7.16,16.52,14.44,2.1,8.22-3.23,15.5-10.7,18.48-3.42,1.37-7.5,1.84-10.75-.16-4.28-2.63-3.48-8.83-1.78-12.67,1.72-3.88,4.87-7.88,8.99-9.38,4.71-1.71,8.34,3.16,8.69,7.31.66,7.78-6.67,15.7-13.67,18.06-4.25,1.43-9.79.11-11.29-4.54-1.64-5.09,3.75-10.41,7.92-12.24-.75-.19-1.49-.39-2.24-.58,3.27,5.71-.26,9.51-5.96,11.04-5.58,1.49-12.24.66-17.06-2.55-3.31-2.21-5.44-6.3-7.35-9.65-2.22-3.9-4.32-7.76-7.22-11.21-5.28-6.27-13.94-9.63-21.51-12.22-12.58-4.31-27.71-6.62-37.87,3.77-5.43,5.56-9.93,16.41-5.05,23.6,5.56,8.2,19.84,1.2,22.8-5.96,4.66-11.27-6.98-23-16.37-27.32-11.14-5.13-22.19-.34-30.09,8.03-6.36,6.75-12.46,18.02-7.88,27.21,4.81,9.64,21.01,9.56,28.45,3.52,7.94-6.44,9.36-18.76,3.06-26.82-6.28-8.04-21.83-11.83-30.22-4.83-7.54,6.29-7.61,17.86-10.15,26.57-1.05,3.61-2.66,7.38-5.74,9.73.66.09,1.32.17,1.98.25-9.41-8.56-11.18-23.63-7.13-35.16,2.34-6.67,8.36-12.53,15.2-14.53,6.7-1.96,13.21,3.56,18.93,6.09,10.41,4.61,24.54,10.24,34.43,1.91,3.93-3.31,4.91-7.94,1.57-11.93-3.46-4.15-10.05-6.03-15.1-7.23v3.12c8.83-1.62,16.1.53,22.18,7.1,4.94,5.33,7.77,12.63,13.23,17.48,4.9,4.35,11.82,1.5,16.62-1.53,6.94-4.37,10.46-12.76,18.94-14.75,6.65-1.56,16.35-.61,21.54,4.15,5.19,4.75-1.4,13.29-1.92,18.8-.5,5.23,4.03,9.67,9.31,9.74,4.65.06,7.12-5.18,8.61-8.73,1.77-4.22,2.46-8.17,6.09-11.29,3.71-3.19,8.07-1.55,11.08,1.6,5.23,5.46,8.94,19.6-1.76,21.08.67.67,1.34,1.33,2.01,1.99.76-4.27,4.27-8.37,8.79-8.86,4.62-.51,6.21,4.9,6.31,8.4.17,6.06-2.94,14.43-8.07,18.07-4.15,2.95-11.25,3.81-15.82,1.37-2.99-1.59-2.75-5.22-1.25-7.77,1.87-3.19,6.05-2.74,8.86-1.29,6.38,3.3,5.75,11.95.04,15.53-5.06,3.18-12.35,1.69-17.7.19-5.37-1.5-11.02-3.9-15.34-7.48-5.8-4.8-10.22-11.44-15.67-16.66-13.45-12.9-34.28-16.94-52.48-15.42-8.17.69-17.22,3.04-22.03,10.18-5.29,7.84-.27,19.2,10.02,15.67,1.08-.37,1.41-1.38.98-2.38-4.85-11.16-24.25-10.22-33.77-7.22-5.03,1.58-11.23,4.53-11.04,10.66.14,4.49,4.63,7.63,8.77,8.09,3.44.38,10.17-.62,11.18-4.75.85-3.47-3.96-5.41-6.41-6.34-5.29-2.02-11.28-2.7-16.92-2.74-4.96-.03-10.91.59-14.91,3.79-8.82,7.08-8.17,22.15,5.09,22.53,1.78.05,2.01-2.12.82-3.02-5.04-3.81-11.37-3.73-15.76.97-.87.93-.45,2.3.72,2.71,2.34.8,4.48,1.41,6.97,1.5,1.71.06,2.12-2.17.82-3.02-6.74-4.39-13.44,1.03-20.12,2.72.62.79,1.23,1.58,1.84,2.38,3.5-5.13,11.39-8.11,17.17-9.5,2.74-.66,6.52-1.14,8.88.79,4.55,3.71.16,7.09-3.72,8.51-3.91,1.43-7.8.91-11.32-1.25-3.24-1.99.44-4.75,2.34-5.97,5.81-3.75,13.04-4.95,19.65-2.95,9.87,2.99,11.41,16.57,3.23,22.48-1.5,1.09-7.56,1.86-5.55-1.29,2.51-3.94,8.32-6.42,12.38-8.3,5.49-2.55,11.59-4.56,17.67-4.92,4.97-.29,7.66,1.58,10.76,5.18,3.63,4.23,6.82,8.82,10.75,12.8,2.77,2.8,6.52,5.8,10.74,4.84,4.62-1.05,7.11-7.58,7.39-11.66.34-4.84-3.59-8.9-7.86-10.52-4.36-1.66-9.45-1.56-13.1,1.57-3.61,3.09-3.57,9.13-1.15,12.85,6.08,9.33,24.3,7.73,27.85-2.94.3-.91-.35-1.68-1.14-1.99-4.28-1.69-8.55-.4-10.8,3.67-2.39,4.32-.38,9.12,2.92,12.23,7.42,7.01,20.5,3.03,28.8.18,9.96-3.42,19.3-8.4,29.08-12.27,4.83-1.92,10.3-3.91,15.58-3.03,6.34,1.05,9.54,7.31,11.5,12.73.4,1.11,1.82,1.64,2.73.71,5.38-5.51,9.16-13.15,16.69-16.13-.62-.25-1.23-.5-1.84-.74,8.69,16.69-26.71,12.85-33.12,20.35-.56.65-.69,1.65,0,2.29,12.37,11.36,30.25-3.72,36.04-15.02,4-7.81,4.31-16.87,3.78-25.43-.27-4.42-.82-8.82-1.28-13.22-.54-5.26-.18-10.16.78-15.36,1.65-8.94,2.45-17.01-2.66-25.05-4.55-7.15-11.62-13.8-19.14-17.75-8.62-4.53-18.72-3.26-28.09-2.71-11.29.66-22.52,2.03-33.74,3.34-5.88.69-11.77,1.35-17.66,1.93-2.08.2-2.1,3.44,0,3.24,20.37-1.98,40.62-5.13,61.11-5.69,4.58-.12,8.92-.16,13.33,1.24,4.45,1.42,8.39,4.29,11.84,7.33,7.18,6.33,13.51,14.14,13.21,24.08-.13,4.18-1.22,8.34-1.91,12.45-.72,4.35-.75,8.56-.32,12.94.83,8.42,1.99,16.82,1.18,25.29-.85,8.81-5,16.68-11.7,22.47-5.88,5.08-15.73,9.79-22.45,3.62v2.29c2.08-2.44,6.7-2.89,9.64-3.51,4.92-1.05,9.89-1.89,14.69-3.42,3.69-1.18,7.33-2.87,9.71-6,2.59-3.42,1.38-7.89-.41-11.33-.31-.59-1.2-1-1.84-.74-8.27,3.27-12.23,10.92-18.13,16.97.91.24,1.82.48,2.73.71-3.07-8.5-8.42-15.69-18.3-15.28-9.04.38-18.11,5.39-26.18,9.06-9.16,4.17-18.73,8.61-28.85,9.81-4.53.53-9.51.18-12.97-3.08-4.71-4.45-1.8-12.78,5.2-10.03-.38-.66-.76-1.33-1.14-1.99-3.57,10.74-26.51,7.81-22.65-4.66,1.75-5.66,10.02-3.96,13.6-1.55,4.93,3.33,3.61,11.81-1.39,14.52-3.78,2.05-9.18-5.04-11.12-7.3-3.43-3.99-6.38-8.46-10.18-12.14-7.1-6.89-20.07-2.17-27.77,1.12-3.87,1.65-21.12,9.1-15.52,15.73,2.2,2.6,6.56,2.21,9.23.81,3.48-1.83,5.67-5.71,6.83-9.29,3.39-10.5-3.83-18.82-14.11-20.46-6.04-.96-12.29.88-17.55,3.81-3.46,1.93-7.92,6.02-4.92,10.16,7.25,9.98,31.92.21,21.37-10.15-4.35-4.27-11.39-2.6-16.51-.83-5.39,1.87-11.78,4.96-15.08,9.8-.84,1.23.53,2.71,1.84,2.38,5.54-1.4,12.06-6.65,17.61-3.04.28-1,.55-2.01.82-3.02-2.19-.08-4.05-.68-6.1-1.38.24.9.48,1.8.72,2.71,3.5-3.74,7.91-3.41,11.81-.47.27-1,.55-2.01.82-3.02-6.63-.19-9.18-5.19-7.21-11.1,1.66-5,6.15-7.38,11.04-8.29,5.15-.96,10.72-.48,15.83.48,2.92.55,8.39,1.38,10.23,4.08.46.68-2.59,1.74-2.79,1.82-2.52.93-5.34.84-7.72-.4-5.65-2.94-1.81-8.19,2.23-10.22,5.34-2.69,12.04-3.08,17.9-2.82,5.6.25,13.2,1.58,15.68,7.29.33-.79.65-1.59.98-2.38-5.14,1.77-8.92-1.54-8.02-6.87.59-3.5,3.17-6.35,6.03-8.25,5.69-3.78,13.26-4.48,19.91-4.63,13.75-.29,29.3,2.57,40.51,10.78,5.96,4.36,10.71,10.29,15.64,15.7,4.23,4.64,8.24,7.9,14,10.5,8.79,3.96,23.97,8.28,31.11-.86,3.26-4.16,3.74-9.97.7-14.34-2.8-4.01-8.25-6.26-13.01-4.84-4.85,1.45-7.29,7.57-5.46,12.07,1.9,4.67,7.79,5.59,12.25,5.42,12.2-.49,18.81-11.15,19.85-22.38.5-5.35-1.67-11.51-7.35-13.04-6.57-1.75-13.07,5.25-14.1,11.06-.23,1.31.73,2.17,2.01,1.99,19.88-2.76,4.12-41.07-12.5-28.09-3.8,2.97-4.86,7.28-6.48,11.56-.86,2.27-1.89,4.62-3.61,6.38-2.33,2.39-6.09.35-7.79-1.84-1.85-2.38.24-6.73,1.09-9.14,1.1-3.09,2.31-6.21,2.19-9.54-.2-6.21-7.16-9.29-12.31-10.58-7.19-1.8-16.33-1.74-22.43,2.93-3.91,2.99-6.86,6.97-10.52,10.23-3.1,2.76-9.26,6.4-13.55,4.37-3.47-1.65-5.64-6.34-7.69-9.35-2.6-3.79-5.24-7.57-8.55-10.79-6.47-6.31-14.84-7.62-23.51-6.03-1.61.3-1.52,2.76,0,3.12,4.73,1.13,13.23,3.18,14.82,8.52,1.02,3.4-4.29,6.87-6.87,7.84-3.17,1.19-6.91.81-10.17.27-6.32-1.05-12.93-3.44-18.57-6.44-5.26-2.8-10.72-6.21-16.93-5.63-5.84.54-11.51,4.94-15.15,9.25-3.49,4.13-5.3,9.45-6.12,14.71-1.71,11,1.17,23.81,9.65,31.53.49.45,1.39.7,1.98.25,7.92-6.05,8.29-17.19,10.65-26.04,1.21-4.55,3.07-9.23,7.37-11.7,5.39-3.09,13.7-1.54,18.88,1.2,10.58,5.6,10.94,21.35.95,27.66-5.31,3.35-13.18,3.05-18.54-.02-4.57-2.62-5.21-7.97-4.19-12.65,2.33-10.65,12.27-21.35,23.18-23.44,11.53-2.22,28.56,10.46,26.6,22.88-.93,5.84-8.2,9.74-13.77,9.54-4.15-.15-5.36-4.5-5.32-7.89.12-11.37,10.62-20.17,21.58-20.34,11.83-.18,24.97,4.59,34.74,11,9.7,6.36,10.88,20.06,20.8,26.08,9.76,5.92,35.46,2.21,26.4-13.61-.48-.83-1.43-.94-2.23-.58-5.44,2.39-10.89,8.82-9.58,15.13,1.19,5.74,7.2,8.89,12.81,8.13,10.67-1.44,21.15-13.9,18.22-24.74-1.45-5.38-6.86-8.95-12.32-7.44-5.93,1.65-10.1,8.1-12.01,13.5-1.87,5.3-.41,11.73,4.55,14.79,4.82,2.96,11.36,1.09,15.95-1.31,13.18-6.92,12.85-24.05,2.1-32.98-10.61-8.82-25.17-3.7-35.39,3.07-4.97,3.29-9.64,7.88-11.13,13.79-1.32,5.22.91,10.53,5.21,13.6,4.29,3.07,10.48,3.2,15.31,1.51,5.21-1.82,8.19-6.03,8.83-11.34.94-7.81-5.98-14.06-11.97-17.79-6.6-4.12-15.23-7.24-23.13-6.86-1.95.1-2.08,2.5-.43,3.18,11.57,4.81,6.5,16.56-.31,23.24-7.33,7.19-20.16,12.18-27.85,2.84-.24.9-.48,1.8-.72,2.71,2.98-.61,6.1-.83,9.06-.02,3.92,1.07,1.73,5.49-.53,7.22-4.6,3.51-11.98.58-15.54-3.01-3.94-3.97-2.1-8.76,2.01-11.47,4.4-2.9,10.04-4.23,15.25-4.57,3.34-.22,9.53-.18,10.78,3.79,1.69,5.34-4.45,7.29-8.41,7.54-5.57.34-11.21-.77-16.7-1.56-3.74-.54-8.33-1.62-12.03-.31-.65.23-1.26.81-1.2,1.56,1.58,18.07,25.37,16.73,38.58,15.84,10.19-.68,20.31-2.1,30.5-2.82,6.13-.43,16.22-1.86,21.37,2.51v-2.29c-28.43,26.78-69.14-7.61-101.25,6.22-.88.38-.91,1.48-.58,2.21,5.26,11.95,21.24,13.39,32.65,13.68,6.33.16,12.65-.26,18.97-.61,5.8-.32,11.67-2.17,17.31-3.44,7.52-1.7,15.11-3.32,22.81-3.92,5.6-.44,12.95-.69,17.13,3.71,6.24,6.57-18.91,12.1-22.23,12.76-10.28,2.05-20.09,1.22-30.4-.52-12.8-2.16-26.91-5.13-38.97,1.32-.71.38-1.11,1.53-.58,2.22,11.06,14.43,34.74,9.21,50.17,7.07,8.91-1.24,17.59-4.39,26.3-6.55,7.57-1.88,19.02-5.49,26.42-1.38-.11-.85-.22-1.69-.33-2.54-6.78,6.38-17.3,7.94-26.25,9.04-10.94,1.34-21.64,4.11-32.6,5.29-9.52,1.02-19.47.9-28.63-2.13-7.02-2.33-11.92-8.68-18.89-10.88-4.98-1.57-11.32,3.07-15.47,5.07-8.77,4.23-18.78,5.21-28.38,5.83-9.2.6-18.44.56-27.6,1.59-5.72.64-12.19,2.03-17.79.19-3.3-1.08-3.23-4.63-1.87-7.25,1.44-2.77,4.73-4.11,7.53-5.04,5.97-1.98,12.37-2.34,18.21-4.75,4.33-1.79,9.7-6.58,9.09-11.72-.62-5.24-7.8-5.92-11.88-5.99-2.76-.05-6.28.06-8.85,1.13-2.7,1.12-5.2,2.69-7.77,4.05-2.46,1.3-5.17,2.66-8.02,2.56-3.7-.12-4.23-5.77-4.21-8.42.08-10.45,12.4-14.05,20.69-16.05,6.62-1.59,13.46-2.37,19.96-4.41,3.94-1.24,8.48-3.67,7.29-8.48-.23-.93-1.15-1.27-2.01-1.13-5.69.9-8.48,7.41-11.3,11.65-1.39,2.1-3.02,4.25-5.68,2.84-2.01-1.07-2.46-3.82-2.62-5.83-.87-10.93,4.54-21.92,7.43-32.23,1.33-4.77,1.97-11.32-1.71-15.23-3.96-4.21-9.92.45-12.41,3.8-4.74,6.37-6.36,13.58-7.4,21.27-1.06,7.81-1.22,16.46-5.29,23.46-.46.79-1.04,1.51-1.64,2.2h2.31c-5.65-4.75-2.58-13.67-.89-19.61,1.8-6.36,4.64-13.26,3.49-19.97-.15-.86-1.22-1.36-2.01-1.13-13.58,3.88-8.24,23.35-18.53,30.39.66.08,1.32.17,1.98.25-10.93-9.9-9.32-42.09,9.73-41.14,2.11.1,2.1-3.13,0-3.24h0Z"/>
  </g>
  <g>
    <path class="cls-14" d="m239.17,90.68c-2.03,9.99-.02,37.16,7.93,44.42,9.56,8.73,5.87-19.58,4.22-24.83-1.73-5.51-6.13-18.48-12.15-19.6Z"/>
    <path class="cls-6" d="m245.31,100.69c-5.17,2.59-2.36,22.72.16,26.25,5.24,7.34,5.69-6.28,5.01-10.38-.88-5.34-2.61-11.07-5.17-15.87Z"/>
  </g>
  <g>
    <path class="cls-14" d="m232.01,50.28c8.42,5.84,34.34,14.85,44.24,10.51,11.88-5.21-15.76-13.15-21.27-13.74-5.78-.62-19.53-1.8-22.97,3.23Z"/>
    <path class="cls-6" d="m243.71,48.7c.33,5.73,20.06,11.22,24.33,10.33,8.87-1.84-3.53-7.68-7.59-8.69-5.29-1.33-11.28-2.04-16.74-1.64Z"/>
  </g>
  <g>
    <path class="cls-14" d="m126.43,141.68c7.97,6.43,33.16,17.31,43.34,13.7,12.24-4.33-14.74-14.26-20.19-15.25-5.72-1.04-19.35-3.21-23.15,1.55Z"/>
    <path class="cls-6" d="m138.22,140.96c-.1,5.74,19.18,12.64,23.5,12.07,8.99-1.19-2.95-7.92-6.93-9.23-5.17-1.71-11.1-2.85-16.57-2.85Z"/>
  </g>
  <g>
    <path class="cls-14" d="m48.74,44.56c-2.03,9.99-.02,37.16,7.93,44.42,9.56,8.73,5.87-19.58,4.22-24.83-1.73-5.51-6.13-18.48-12.15-19.6Z"/>
    <path class="cls-6" d="m54.87,54.58c-5.17,2.58-2.36,22.72.16,26.25,5.24,7.34,5.69-6.28,5.01-10.38-.89-5.33-2.62-11.07-5.17-15.87Z"/>
  </g>
  <path class="cls-8" d="m114.24,53.76c6.54-1.51,17.81-10.15,5-10.22-7.98-.04-15.26,6.17-23,7.48-9.69,1.64-20.42,1.66-29.14,6.7-8.87,5.13-25.68,18.56-11.01,24.59,2.12-16.99,19.51-23.04,33.5-24.4,8.39-.82,16.73-2.33,24.65-4.16Z"/>
  <g>
    <path class="cls-14" d="m173.35,59.08c-8.59-5.6-34.75-13.88-44.52-9.27-11.73,5.54,16.13,12.7,21.65,13.14,5.8.46,19.57,1.25,22.87-3.87Z"/>
    <path class="cls-6" d="m161.7,60.99c-.49-5.72-20.37-10.65-24.61-9.64-8.82,2.09,3.75,7.58,7.84,8.48,5.32,1.17,11.33,1.72,16.78,1.16Z"/>
  </g>
  <path class="cls-8" d="m212.23,56.21c7.55.55,15.5,5.93,22.37,8.61-6.29-2.46-9.8-7.08-15.88-10.47-6-3.34-15.98-4.86-22.68-5.23-3.82-.21-14.95-2.15-17.11.9-8.66,12.21,29.54,5.92,33.29,6.19Z"/>
  <path class="cls-8" d="m196.4,108.87c4.61-7.36,4.2-18.14-2.97-23.72,2.41,8.5,2.07,20.22-5.2,26.45-5.79,4.97-24.31,5.46-23.12,16.59,15.4,4.06,23.67-7.16,31.29-19.32Z"/>
  <g class="cls-2">
    <path class="cls-12" d="m83.86,48c-1.54-10.57-11.83-11.7-20.38-8.48-10.46,3.93-19.94,12.9-23.28,23.59-2.81,8.99,1.1,21.64,9.18,26.97,6.61,4.35,14.75,0,20.4-3.85,8.26-5.65,15.33-12.82,23.31-18.82,5.81-4.37,14.39-10.33,21.71-5.86,5.7,3.48,9.6,10.32,8.67,16.97-.86,6.13-5.31,11.22-10.33,14.56-10.6,7.04-27.76,6.11-33.63-6.48-4.21-9.03-1.87-20.94,2.13-29.6,3.6-7.81,10.98-16.45,20.52-12.76v-3.12c-9.03,2.97-18.59,2.37-27.85,4.09-8.11,1.51-14.94,6.04-20.05,12.38-7.44,9.23-9.78,21.86-6.24,33.12,3.43,10.89,12.57,18.51,23.91,20.01,12.41,1.64,24-4.17,30.75-14.36,5.49-8.28,7.62-20.44,0-28.12-7.83-7.9-21.43-6.91-30.5-2.05-17.18,9.2-30.12,36.27-16.71,53.26,7.95,10.07,24.03,11.99,35.58,8.26,6.5-2.1,11.93-6.65,14.77-12.83,2.98-6.49,2.01-14.02,2.64-20.95.67-7.32,3.38-13.69,9.36-18.26,6.36-4.87,16.06-8.75,23.14-3.12,6.21,4.95,6.32,14.05,4.01,20.91-2.17,6.48-8.04,9.92-13.87,12.8-9.45,4.67-23.48,8.5-25,20.69-1.54,12.27,9.86,18.2,20.59,17.25,9.6-.85,18.88-5.75,22.62-14.8,3.81-9.22,5.24-20.04,4.94-29.94-.22-7.36-2-17.81-10.93-18.98-4.48-.58-10.82,2.14-13.46,5.67-3.1,4.14-.4,8.37,3.38,10.84,4.66,3.04,11.64,3.76,16.73,1.45,4.15-1.88,6.77-5.15,9-9,5.53-9.57,8.2-20.56,14.41-29.78,2.5-3.72,6.02-7.12,10.79-7.05,3.93.06,8.91,2.8,11.2,5.99,4.15,5.79-4.26,12.69-8.12,15.99-7.87,6.72-16.78,12.2-25.17,18.25-6.7,4.83-14.64,10.24-18.51,17.76-4.3,8.37,2.76,16.99,10.89,19.46,11.04,3.35,24.72-2.7,31.2-11.7,6.39-8.88,9.13-21.51,9.36-32.22.24-11.07-4.09-21.49-16.15-23.09-2.5-.33-6.32.76-5.49,4.03.89,3.46,4.7,6.16,7.87,7.4,11.69,4.59,24.7-.5,36.71-.66-.47-.81-.94-1.62-1.41-2.44-6.36,10.38-23.98,22.94-12.63,36.21,7.54,8.82,24.15,10.13,31.6.39,7.07-9.25,3.09-25.49-5.78-32.24-3.56-2.71-10.45-3.79-13.55.16-2.92,3.72-.67,9.22,1.32,12.8,2.64,4.77,6.68,8.6,12.01,10.07,6.36,1.74,12.73-.07,17.8-4.02,9.81-7.65,13.72-23.94,8.03-34.96-5.86-11.34-19.88-18.19-32.01-20.22-11.33-1.89-26.64,1.31-30.39,13.79-1.35,4.49,1.28,8.59,5.24,10.6,4.47,2.27,9.92,1.88,14.39-.09,5.2-2.29,7.98-7.62,8.43-13.03.41-4.89-2.45-8.98-6.18-11.83-8.45-6.46-22.16-7.64-32.38-6.25-9.86,1.34-17.66,6.68-22.71,15.12-4.9,8.17-6.97,17.71-9.98,26.64-2.64,7.81-6.4,16.36-15.08,18.85-5.45,1.56-11.43.38-16.76-1.09-7.78-2.16-14.03-6.5-17.04-14.14-2.8-7.09-1.87-15.19,1.34-21.96,2.87-6.06,7.62-10.1,13.83-12.54,3.79-1.49,10.38-3.4,13.98-.46,4.41,3.6-1.71,12.32-4.49,15.02-5.39,5.25-25.54,10.22-25.1-2.44.2-5.58,4.94-10.62,9.55-13.22,4.88-2.75,10.71-3.64,16.24-3.7,10.56-.12,23.63,3.51,29.23,13.17,7.24,12.49-5.93,23.54-13.38,31.95-4.03,4.55-7.51,9.57-8.24,15.72-.73,6.12,2.59,12.21,6.65,16.55,8.89,9.54,24.21,13.54,36.86,11.31,13.03-2.29,19.91-15.04,22.88-26.8,1.32-5.22,1.38-11.11-3.09-14.84-3.16-2.64-6.33-.76-7.87,2.5-2.12,4.48-2.5,9.9-2.76,14.77-.29,5.46.51,9.7,3.71,14.33,7.34,10.62,25.37,17,35.42,6.25,6.79-7.27,7.58-21.79-1.13-27.9-6.55-4.6-20.23-.95-23.14,6.69-2.57,6.76,4.34,13.91,9.1,17.67,6.07,4.79,14.23,8.74,22.18,7.61,8.32-1.18,12.37-11.66,9.35-18.86-4.27-10.19-20.95-10.14-30.02-8.96-9.04,1.18-18.83,6.1-25.63,12.07-3.2,2.8-5.6,6.34-8.25,9.63-2.44,3.02-5.43,4.88-8.38,7.3-.92.76-.39.72-1.14.22-1.49-.99-2.85-2.26-4.25-3.37-3.39-2.66-6.61-5.45-9.78-8.37-5.51-5.08-11.11-10.1-18.23-12.81-5.88-2.24-13.18-2.19-18.84.66-4.04,2.04-7.08,5.69-9.63,9.3-5.64,8.01-8.61,17.76-14.8,25.39-2.22,2.73-5.14,4.95-8.84,4.14-5.16-1.13-10.22-6.62-12.95-10.81-2.44-3.75-4.55-12.63,1.07-14.81,3.24-1.25,7.88.53,10.27,2.71,2.79,2.56,1.69,6.66.12,9.52-3.2,5.84-10.28,8.98-16.8,8.91-5.1-.06-9.16-3.24-11.5-7.54-5.97-10.96-.13-25.64,11.62-29.61-.53-.9-1.06-1.8-1.59-2.71-15.1,13.62-40.35-11.43-30.18-27.23,4.39-6.82,13.15-11.14,20.69-13.43,6.65-2.02,16.72-3.15,20.12,4.48.33-.79.65-1.59.97-2.38-8.97,2.77-17.72-7.58-13.54-15.9,3.01-5.99,11.29-8.22,17.44-8.78,6.49-.59,12.71,1,17.16,5.91,4,4.42,4.41,10.97,4.47,16.59.11,11.47-1.93,24.16,6.55,33.41,7.31,7.97,22.47,12.01,32.19,6.31,8.64-5.07,11.75-16.46,14.13-25.41,1.43-5.36,2.62-10.79,4.19-16.12,1.35-4.57,2.86-9.5,6.53-12.78,8.57-7.65,23.79-6.9,34.02-3.86,5.23,1.55,10.53,4.34,13.63,8.95,3.67,5.47,1.54,11.56-.5,17.2-2.18,6.02-5.28,13.11-2.36,19.38,3.37,7.24,12.65,5.76,18.2,2.6,12.12-6.88,15.31-20.62,22.78-31.36,3.77-5.42,9.42-9.65,15.97-5.76,5.88,3.5,8.11,11.84,8.19,18.17.14,10.67-10.4,17.86-17.84,23.95-10,8.19-20.58,15.9-29.32,25.46-6,6.57-12.1,15.54-8.07,24.61,1.91,4.3,6.17,8.36,10.75,9.66,4.16,1.18,8.41-.62,11.73-3.03,8.79-6.37,14.35-16.92,19.9-25.94,1.79-2.92,3.54-6.5,6.22-8.74h-2.31c4.19,3.43,8.35,7.97,7.04,13.76-1.13,4.95-5.96,8.62-10,11.21-9.37,6-20.43,8.36-31.41,9.06-11.85.76-26.48-1.52-32.99-12.72-3.71-6.4-6.81-22.81,3.66-24.48-.67-.38-1.34-.75-2.01-1.13,7.18,21.23-40.57,16.13-48.53,4.51-1.18-1.72-3.8-.23-2.82,1.63,6.97,13.16-4.91,24.16-17.12,27.39-6.15,1.62-12.98,1.3-18.58-1.85-3.1-1.75-7.29-5.41-6.54-9.32,1.07-5.58,10.36-2.07,13.02-.41,8.39,5.23-.85,13.49-6.33,16.12-8.02,3.85-17.62,3.69-25.38-.56-7.64-4.19-12.33-12.14-13.63-20.51-1.11-7.14-1.24-14.92-7.02-20.15-6.03-5.44-15.65-4.05-23.04-3.66-3.46.18-7.28.38-10.45-1.25-4.39-2.26-4.57-8.28-4.5-12.51-1.07.14-2.14.29-3.21.43,4.33,15.41,6.75,34.57,25.66,38.01,6.98,1.27,20-.19,19.61,9.87-.14,3.52-.99,6.8.23,10.24,1.02,2.89,3.72,5.09,6.46,6.26,6.2,2.66,13.75.67,19.77-1.49,6.02-2.16,11.8-5.17,16.57-9.42,9.45-8.39,13.82-20.84,18.31-32.23,4.57-11.59,9.89-23.59,21.74-29.39,6.72-3.29,15.48-4.74,22.63-2.21,8.57,3.03,11.46,12.51,9.34,20.63-1.94,7.45-9.13,12.08-14.92,16.45-5.48,4.12-10.27,8.94-13.66,14.92-4.22,7.43-3.33,16.05,5.09,19.74,6.5,2.85,15.82,2.67,21.57-1.82,2.72-2.12,4.02-5.16,3.62-8.57-.57-4.87-5.13-7.67-9.34-9.27-9.15-3.47-23.68-3.43-28.51,6.54-4.96,10.25,9.24,14.4,16.56,15.62,10.54,1.77,21.58,1.23,31.29-3.54,10.8-5.3,15.61-16.36,19.56-26.95,4.52-12.12,9.04-24.99,21.26-31.43,5.16-2.72,11.34-3.62,16.91-1.67,6.61,2.31,9.5,9.15,10.4,15.52.14,1,1.6,1.52,2.4.97,31.42-21.66-4.22-70.31-36.08-62.69-1.48.36-1.64,2.89,0,3.12,4.82.68,10.46-1.22,9.46-7.12-.98-5.77-6.27-9.23-11.56-10.74-11.99-3.42-26.83.92-37.52,6.46-5.68,2.95-9.65,7.58-13.21,12.77-4.46,6.49-8.29,13.98-16.32,16.54-7.63,2.44-16.57.95-24.3-.18-7.84-1.15-15.7-2.83-23.65-2.91-2.11-.02-2.1,3.22,0,3.24,13.82.14,27.23,4.77,41.11,4.19,5.64-.23,10.92-1.74,15.31-5.33,5.02-4.1,8.14-10.33,11.79-15.54,6.96-9.92,18.19-14.12,29.81-16.23,5.77-1.05,11.94-1.26,17.57.56,2.69.87,5.06,2.56,6.66,4.88,2.71,3.96.16,6.92-4.28,6.29v3.12c28.16-6.73,61.87,37.26,33.57,56.77.8.32,1.6.65,2.4.97-1.8-12.75-11.49-20.84-24.54-18.47-13.78,2.5-21.7,14.56-26.67,26.44-4.88,11.67-7.7,25.52-18.95,33.03-10.14,6.77-24.11,6.68-35.59,4-3.73-.87-10.66-2.71-11.09-7.39-.53-5.84,6.09-8.65,10.76-9.26,5.89-.77,12.58.03,17.75,3.05,3.6,2.11,5.32,6.61,2.26,9.9-4.87,5.23-15.5,4.61-21.08,1.09-10.6-6.67,2.78-21.24,8.53-25.99,5.39-4.47,11.4-8.03,15.64-13.74,4.28-5.76,5.07-13.8,2.62-20.43-5.21-14.13-23.17-13.82-34.81-8.79-24.71,10.68-23.38,42.74-39.95,60.62-6.4,6.9-16.06,11.2-25.23,12.92-5.18.97-10.94.42-14.06-4.28-3-4.54,1.48-10.88-1.35-15.7-2.42-4.12-7.16-5.3-11.63-5.96-5.52-.81-11.18-.78-16.31-3.23-11.93-5.7-13.33-22.55-16.46-33.65-.5-1.78-3.18-1.4-3.21.43-.08,5.45.6,11.26,5.26,14.77,3.71,2.79,9.25,2.43,13.61,2.2,5.55-.29,11.24-.97,16.61.85,8.24,2.79,8.5,12.56,9.52,19.71,2.2,15.43,14.75,27.53,30.85,27.12,7.04-.18,14.39-2.88,19.61-7.58,4.12-3.71,6.52-9.58,2.97-14.45-4.53-6.22-21.95-9.63-21.16,1.98.32,4.75,4.95,8.63,8.83,10.81,3.81,2.15,8.31,2.9,12.64,2.89,17-.05,36.36-15.37,26.91-33.2-.94.55-1.88,1.09-2.82,1.63,6.87,10.04,23.2,12.13,34.36,11.66,10.64-.45,24.56-5.58,20.14-18.66-.31-.91-1.09-1.28-2.01-1.13-12.16,1.95-10.15,18.38-6.85,26.62,5.33,13.3,21.12,17.22,34.11,17.06,13.31-.16,27.09-3.34,38.1-11.02,4.48-3.13,8.73-7.47,9.65-13.03,1.06-6.42-3.48-11.8-8.13-15.61-.73-.6-1.58-.61-2.31,0-2.74,2.29-4.57,5.89-6.42,8.87-2.96,4.8-5.87,9.63-9.11,14.25-4.99,7.09-14.54,19.3-23.76,11.06-9.33-8.33-3.5-18.51,3.38-26.18,8.63-9.62,19.33-17.32,29.32-25.46,7.13-5.82,16.62-12.57,18.44-22.18,2.03-10.7-3.82-26.57-16.44-27.08-5.63-.22-9.9,4.23-12.98,8.34-4.15,5.51-6.93,11.96-10.2,18-3.4,6.28-8.19,11.68-15.04,14.4-4.44,1.76-9.83.29-11.14-4.66-.99-3.73.8-8.2,2-11.68,2.03-5.93,4.84-11.72,3.58-18.12-.93-4.73-4.4-8.46-8.23-11.15-9.25-6.49-22.43-7.65-33.28-5.67-5.04.92-10,2.93-13.84,6.36-3.43,3.06-5.01,7.8-6.39,12.04-3.4,10.46-4.7,21.65-9.45,31.67-2.05,4.34-4.95,8.28-9.35,10.48-5.41,2.7-11.98,1.21-17.37-.66-6.91-2.39-12.05-7.39-14.05-14.38-1.68-5.88-1.19-12.25-1.04-18.29.29-11.31-.89-23.23-12.61-28.46-9.97-4.45-26.02-1.16-32.14,8.15-6.95,10.58,5.28,24.83,16.89,21.24,1.09-.34,1.41-1.41.98-2.38-3.95-8.85-15.12-8.29-23.05-6.18-9.2,2.44-19.65,8.12-24.33,16.7-5.07,9.31.99,21.02,7.86,27.59,8,7.65,19.75,9.79,28.38,2,1.19-1.07-.04-3.23-1.59-2.71-10.27,3.47-16.29,12.88-16.24,23.49.04,9.04,5.47,18.65,15.19,19.86,5.63.71,11.85-1.15,16.32-4.56,4.16-3.17,8.08-8.93,7.01-14.4-1.2-6.06-7.94-9.06-13.7-8.81-5.1.21-7.7,4.51-8.13,9.09-.52,5.59,2.26,10.63,5.84,14.67,3.25,3.66,7.35,7.53,12.31,8.61,8.26,1.81,13.46-7.03,16.77-13.02,4.65-8.41,8.38-18.9,16.36-24.86,5.64-4.21,13.61-3.82,19.85-1.2,7.44,3.13,13.17,9.43,19.04,14.72,2.99,2.69,6.22,5.09,9.35,7.62,1.37,1.11,2.82,2.5,4.72,2.06,1.88-.43,3.79-2.71,5.39-3.7,3.57-2.2,6.05-6.16,8.58-9.38,10.43-13.29,28.95-19.5,45.4-15.74,6.48,1.48,10.95,5,10.2,11.97-.4,3.77-2.32,7.28-6.1,8.49-7.5,2.41-16.72-3.07-22.14-7.71-4.57-3.92-10.84-11.95-3.7-16.57,4.32-2.79,11.67-4.37,15.97-.95,4.59,3.65,4.66,10.81,3.26,15.93-2.04,7.47-8.62,11.33-16.24,10.93-8.11-.43-15.61-6.19-19.31-13.12-2.38-4.46-1.55-9.99-.98-14.82.22-1.88,1.5-12.44,5.01-9.51,5.4,4.51,1.34,14.2-.93,19.31-2.57,5.78-5.97,11.66-11.78,14.65-12.35,6.35-30.49.79-39.71-8.55-5.01-5.08-7.27-12.37-4.36-19.06,2.7-6.21,8.19-11.03,12.69-15.94,7.53-8.24,13.14-18.99,6.56-29.56-5.59-8.97-17.29-12.7-27.29-13.61-10-.92-22.04,1.27-28.68,9.42-3.11,3.82-5.53,9.19-4.13,14.13,1.16,4.14,5.33,6.44,9.29,7.28,10.99,2.36,22.48-4.28,26.46-14.49,1.51-3.87,2.27-8.99-1.66-11.75-3.63-2.55-8.64-1.98-12.71-1.03-12.34,2.87-21.01,12.8-22.68,25.24-.9,6.68.26,13.39,3.77,19.2,3.63,6.01,9.59,9.39,16.16,11.4,9.23,2.82,19.92,3.68,27.51-3.23,6.38-5.8,8.8-15.13,11.24-23.04,2.78-9.01,5.52-18.69,12.33-25.62,7.74-7.87,19.66-8.55,30.02-7.1,5.73.8,11.94,2.41,16.48,6.14,4.75,3.89,4.94,10.15,1.66,15.1-3.21,4.84-10.56,6.03-15.63,3.75-6.75-3.03-3.21-9.91.85-13.64,10.58-9.72,28.61-4.78,39.45,1.68,5.61,3.34,10.93,8.18,13.38,14.32,2.64,6.61.92,14.81-2.16,20.96-3.29,6.58-9.37,11.68-17.01,11.71-6.94.03-11.67-4.55-14.67-10.33-1.24-2.39-3.12-7.56.45-8.92,4.83-1.85,9.45,2.26,11.81,5.94,4.95,7.73,6.19,20.72-2.54,26.24-8.18,5.17-21.27,1.92-25.09-7.13-4.57-10.8,10.14-20.94,15.07-28.98.64-1.04-.18-2.45-1.41-2.44-9.17.12-18.12,2.61-27.32,2.45-4.26-.08-8.49-1.06-11.83-3.77-.65-.53-2.41-1.97-2.27-2.95.08-.54,4.59.38,5.28.57,12.42,3.36,10.52,21.4,8.54,30.74-2.4,11.37-6.91,22.11-18.01,27.32-6.1,2.86-13.9,3.93-20.07.77-3.77-1.93-7.66-6.67-6.73-11.15,1.56-7.59,10.9-13.59,16.66-17.84,8.32-6.13,17.09-11.65,25.19-18.08,5.07-4.03,12.31-9.8,12.32-16.94,0-7.41-10.16-12.54-16.57-12.33-9.86.32-15.07,12.13-18.45,19.65-2.33,5.17-4.37,10.46-6.85,15.56-1.98,4.07-4.19,7.95-8.13,10.37-5.01,3.08-14.41,1.76-17.61-3.47-2.95-4.84,8.14-8.33,11.63-7.69,8.85,1.62,7.51,17.94,7.01,24.08-.44,5.32-1.44,10.62-2.9,15.75-1.07,3.77-2.38,7.54-5.18,10.4-6.91,7.05-24.3,11.22-31.16,2-3.71-4.98-2.59-11.99,1.61-16.2,4.3-4.32,10.68-6.61,16.13-9.11,5.42-2.48,11.03-5.16,15.08-9.63,4.44-4.89,5.93-12.42,5.14-18.8-.75-6.01-4.12-11.55-9.67-14.27-6.7-3.29-14.21-.72-20.26,2.68-5.89,3.31-10.35,8.23-12.62,14.56-2.22,6.21-2.01,13.18-2.25,19.67-.68,18.51-20.35,24.54-35.93,19.52-11.47-3.69-16.74-14.26-15.13-25.71,1.55-11.04,8.29-21.71,17.48-28.06,8.83-6.1,24.64-8.04,31.29,2.34,6.33,9.87-1.87,23.73-10.04,29.71-10.37,7.6-26.23,6.55-35.18-2.64-9.04-9.29-9.46-24.3-3.72-35.34,4.03-7.76,11.12-13.62,19.6-15.91,9.82-2.66,20.22-1.36,29.98-4.57,1.61-.53,1.49-2.55,0-3.12-10.22-3.96-18.7,4.02-23.26,12.37-5.3,9.7-7.58,22.63-3.72,33.2,8.92,24.4,49.36,14.31,50.83-9.71.58-9.44-8.11-20.48-18.06-20.28-8.49.17-16.21,6.8-22.4,11.85-7.49,6.12-14.53,13.27-23.15,17.85-3.06,1.63-6.63,2.82-10.09,1.87-4.16-1.15-6.58-5.53-8.24-9.12-5.79-12.54.91-24.44,11.38-32.06,6.94-5.04,22.49-11.29,24.39,1.77.3,2.06,3.45,1.18,3.15-.86h0Z"/>
  </g>
  <g>
    <path class="cls-10" d="m81.95,80.28c.5.53.24,1.68-.58,2.58-.83.89-1.9,1.19-2.4.66-.51-.53-.25-1.68.58-2.58.82-.9,1.9-1.19,2.4-.66Z"/>
    <path class="cls-10" d="m92.21,88.58c-.41.61-1.52.5-2.47-.24-.95-.74-1.39-1.83-.97-2.44.42-.61,1.53-.5,2.48.23.95.74,1.39,1.84.97,2.44Z"/>
    <path class="cls-10" d="m79.04,93.88c-.42.61-1.52.5-2.48-.24-.95-.74-1.38-1.84-.97-2.44.41-.61,1.52-.51,2.47.24.95.74,1.39,1.83.97,2.44Z"/>
    <path class="cls-10" d="m123.37,90.01c-.42.61-1.52.5-2.47-.24-.95-.74-1.39-1.83-.97-2.44.41-.61,1.52-.5,2.47.24.95.74,1.39,1.83.97,2.44Z"/>
    <path class="cls-10" d="m116.78,78.3c-.42.61-1.52.5-2.48-.23-.95-.74-1.38-1.84-.97-2.44.41-.61,1.52-.5,2.47.24.95.74,1.39,1.83.97,2.44Z"/>
    <path class="cls-10" d="m116.28,102.67c-.41.61-1.52.5-2.48-.24-.95-.74-1.38-1.83-.97-2.44.42-.61,1.53-.5,2.48.24.95.74,1.39,1.83.97,2.44Z"/>
    <path class="cls-10" d="m109.69,89.27c-.42.61-1.52.5-2.48-.24-.95-.74-1.38-1.83-.97-2.44.42-.61,1.52-.5,2.47.24.95.74,1.39,1.83.97,2.44Z"/>
    <path class="cls-10" d="m103.85,91.58c-.42.61-1.52.5-2.47-.24-.95-.74-1.39-1.83-.97-2.44.41-.61,1.52-.5,2.48.23.95.74,1.38,1.83.97,2.45Z"/>
    <path class="cls-10" d="m87.54,95.62c-.42.61-1.53.5-2.48-.24-.95-.74-1.39-1.83-.97-2.44.41-.61,1.52-.5,2.48.24.95.74,1.38,1.83.97,2.44Z"/>
    <path class="cls-10" d="m98.13,86.84c-.42.61-1.52.5-2.47-.24-.95-.74-1.39-1.84-.97-2.44.41-.61,1.52-.5,2.47.24.95.74,1.39,1.83.97,2.44Z"/>
    <path class="cls-10" d="m98.13,81.36c-.42.61-1.52.5-2.47-.24-.95-.74-1.39-1.83-.97-2.44.41-.61,1.52-.5,2.47.23.95.74,1.39,1.83.97,2.45Z"/>
    <path class="cls-10" d="m103.05,75.73c-.42.61-1.52.5-2.48-.24-.95-.74-1.38-1.84-.97-2.44.42-.61,1.52-.5,2.47.24.95.74,1.38,1.83.97,2.44Z"/>
    <path class="cls-10" d="m122.29,70.22c-.48-.55-.17-1.69.7-2.55.86-.85,1.95-1.1,2.43-.54.48.55.17,1.69-.69,2.55-.87.85-1.95,1.1-2.43.54Z"/>
    <path class="cls-10" d="m105.95,65.05c-.48-.55-.17-1.69.69-2.54.86-.86,1.95-1.1,2.43-.55.48.55.17,1.69-.69,2.55-.86.85-1.95,1.09-2.43.54Z"/>
    <path class="cls-10" d="m108.5,81.56c-.48-.55-.17-1.69.7-2.55.87-.85,1.95-1.1,2.43-.54.48.55.17,1.69-.7,2.55-.87.85-1.95,1.1-2.43.54Z"/>
    <path class="cls-10" d="m94.84,70.22c-.48-.55-.17-1.69.7-2.55.87-.85,1.95-1.1,2.43-.54.48.55.17,1.69-.69,2.55-.87.85-1.96,1.1-2.44.54Z"/>
    <path class="cls-10" d="m65.83,72.06c-.48-.56-.17-1.69.7-2.55.86-.85,1.95-1.09,2.43-.54.48.55.17,1.69-.7,2.55-.86.85-1.95,1.1-2.43.54Z"/>
    <path class="cls-10" d="m58.2,79.72c-.48-.55-.17-1.69.7-2.55.87-.85,1.95-1.1,2.43-.54.48.55.17,1.7-.69,2.55-.86.85-1.95,1.09-2.43.54Z"/>
    <path class="cls-10" d="m108.65,96.02c-.43.6-1.53.46-2.47-.31-.93-.77-1.34-1.87-.91-2.47.43-.6,1.53-.46,2.47.3.93.77,1.34,1.87.91,2.47Z"/>
    <path class="cls-10" d="m96.06,104.16c-.43.6-1.53.46-2.47-.31-.93-.77-1.34-1.87-.91-2.47.43-.6,1.53-.46,2.47.31.93.77,1.34,1.87.91,2.47Z"/>
    <path class="cls-10" d="m69.18,114.88c-.03-.75.9-1.4,2.08-1.46,1.18-.05,2.15.51,2.18,1.26.03.75-.9,1.41-2.07,1.46-1.18.06-2.16-.51-2.19-1.27Z"/>
    <path class="cls-10" d="m77.06,100.54c-.03-.75.9-1.41,2.08-1.46,1.17-.05,2.15.51,2.18,1.26.03.75-.9,1.41-2.07,1.46-1.17.06-2.15-.51-2.19-1.26Z"/>
    <path class="cls-10" d="m116.2,92.38c-.03-.75.9-1.41,2.07-1.46,1.18-.05,2.15.51,2.18,1.26.03.75-.9,1.41-2.07,1.46-1.18.05-2.15-.51-2.18-1.27Z"/>
    <path class="cls-10" d="m88.37,78.27c-.03-.75.9-1.41,2.07-1.46,1.18-.05,2.16.51,2.18,1.26.03.75-.9,1.41-2.07,1.46-1.18.06-2.16-.51-2.18-1.27Z"/>
    <path class="cls-10" d="m70.25,58.12c-.03-.75.9-1.4,2.07-1.46,1.18-.05,2.15.51,2.18,1.26.03.75-.9,1.41-2.07,1.46-1.18.06-2.15-.51-2.18-1.27Z"/>
    <path class="cls-10" d="m66.05,92.72c.48.55.18,1.69-.68,2.55-.86.86-1.95,1.11-2.43.56-.48-.55-.18-1.69.68-2.55.86-.86,1.95-1.11,2.43-.56Z"/>
    <path class="cls-10" d="m97.45,84.7c-.03-.75.9-1.41,2.08-1.46,1.17-.05,2.15.51,2.18,1.27.03.75-.9,1.4-2.07,1.46-1.17.05-2.15-.51-2.18-1.26Z"/>
    <path class="cls-10" d="m65.24,98.87c-.41.61-1.52.5-2.47-.24-.95-.74-1.39-1.83-.97-2.44.42-.61,1.52-.51,2.47.23.95.74,1.39,1.83.97,2.45Z"/>
    <path class="cls-10" d="m100.13,98.41c-.42.61-1.52.5-2.47-.24-.95-.74-1.38-1.83-.97-2.44.42-.61,1.53-.51,2.47.24.95.74,1.39,1.83.97,2.44Z"/>
    <path class="cls-10" d="m107.81,88.57c-.42.61-1.52.5-2.48-.24-.95-.74-1.39-1.83-.97-2.44.42-.61,1.52-.5,2.47.24.95.74,1.39,1.83.97,2.44Z"/>
    <path class="cls-10" d="m87.91,104.87c-.41.61-1.52.5-2.47-.23-.95-.74-1.38-1.84-.97-2.44.42-.61,1.52-.51,2.47.23.95.74,1.39,1.83.97,2.44Z"/>
    <path class="cls-10" d="m71.16,97.13c-.42.61-1.52.5-2.48-.24-.95-.74-1.38-1.84-.97-2.44.42-.61,1.52-.5,2.47.24.95.74,1.39,1.83.97,2.44Z"/>
    <path class="cls-10" d="m71.16,91.64c-.42.61-1.52.5-2.48-.24-.95-.74-1.38-1.83-.97-2.44s1.52-.5,2.47.23c.95.74,1.39,1.83.97,2.44Z"/>
    <path class="cls-10" d="m76.08,86.02c-.42.61-1.52.5-2.47-.24-.95-.74-1.39-1.83-.97-2.44.42-.61,1.52-.51,2.48.23.95.74,1.39,1.84.97,2.44Z"/>
    <path class="cls-10" d="m95.32,80.51c-.48-.55-.17-1.69.7-2.55.86-.85,1.95-1.1,2.43-.54.48.55.17,1.7-.7,2.55-.86.85-1.95,1.1-2.43.55Z"/>
    <path class="cls-10" d="m98.33,93.03c-.42.6-1.61.58-2.67-.04-1.05-.62-1.56-1.61-1.14-2.2.42-.6,1.61-.58,2.66.04,1.05.62,1.57,1.61,1.15,2.2Z"/>
    <path class="cls-10" d="m93.42,97.53c-.68-.28-.81-1.38-.27-2.45.54-1.07,1.53-1.71,2.22-1.44.69.28.81,1.38.27,2.45-.54,1.08-1.53,1.72-2.22,1.44Z"/>
    <path class="cls-10" d="m96.33,102.93c-.69-.28-.81-1.38-.27-2.45.54-1.07,1.53-1.72,2.21-1.43.69.28.81,1.37.27,2.45-.54,1.07-1.53,1.72-2.21,1.44Z"/>
    <path class="cls-10" d="m101.74,101.82c-.68-.28-.8-1.38-.26-2.45.54-1.07,1.53-1.72,2.21-1.43.69.28.8,1.38.27,2.45-.54,1.07-1.53,1.72-2.22,1.43Z"/>
    <path class="cls-10" d="m102.81,91.71c.74-.18,1.57.59,1.86,1.72.29,1.13-.07,2.19-.81,2.37-.74.18-1.57-.58-1.87-1.71-.29-1.13.07-2.2.81-2.38Z"/>
    <path class="cls-10" d="m98.3,101.83c.74-.18,1.57.59,1.86,1.72.29,1.13-.07,2.2-.81,2.38-.74.18-1.57-.59-1.86-1.72-.29-1.13.07-2.2.81-2.38Z"/>
    <path class="cls-10" d="m88.8,95.12c-.68-.28-.8-1.38-.26-2.45.54-1.07,1.53-1.72,2.21-1.43.69.28.81,1.38.27,2.45-.54,1.07-1.53,1.72-2.22,1.44Z"/>
    <path class="cls-10" d="m99.75,108.81c-.64.35-1.7-.19-2.37-1.2-.67-1.01-.69-2.12-.05-2.47.64-.35,1.7.18,2.37,1.2.67,1.01.69,2.12.05,2.47Z"/>
    <path class="cls-10" d="m86.41,123.23c-.49-.55-.11-1.59.85-2.32.96-.73,2.14-.88,2.62-.32.49.55.11,1.59-.84,2.32-.96.73-2.14.88-2.63.33Z"/>
    <path class="cls-10" d="m80.7,116.98c-.49-.55-.11-1.58.85-2.32.96-.73,2.14-.87,2.63-.32.49.55.11,1.59-.85,2.32-.96.73-2.13.88-2.62.32Z"/>
    <path class="cls-10" d="m78.51,105.7c.74.16,1.15,1.21.91,2.36-.24,1.14-1.04,1.94-1.78,1.78-.74-.16-1.15-1.21-.91-2.36.24-1.14,1.04-1.94,1.78-1.78Z"/>
    <path class="cls-10" d="m71.58,115.04c-.49-.55-.11-1.59.85-2.32.96-.73,2.13-.87,2.62-.32.49.55.11,1.59-.85,2.32-.96.73-2.14.87-2.63.32Z"/>
    <path class="cls-10" d="m80.88,118.32c.45-.59,1.55-.43,2.46.36.91.79,1.3,1.9.85,2.49-.45.59-1.55.43-2.46-.35-.91-.78-1.29-1.9-.85-2.49Z"/>
    <path class="cls-10" d="m141.08,116.49c-.08.75-1.09,1.26-2.26,1.15-1.17-.11-2.06-.81-1.98-1.56.08-.75,1.09-1.27,2.26-1.16,1.17.11,2.06.81,1.98,1.56Z"/>
    <path class="cls-10" d="m109.96,118.17c.68-.26,1.66.42,2.17,1.53.51,1.1.38,2.2-.31,2.46-.68.26-1.66-.42-2.18-1.53-.51-1.1-.38-2.2.31-2.46Z"/>
    <path class="cls-10" d="m125.24,105.78c.41.62-.12,1.59-1.17,2.18-1.06.58-2.24.56-2.64-.05-.41-.62.12-1.59,1.17-2.18,1.05-.58,2.24-.56,2.65.05Z"/>
    <path class="cls-10" d="m129.99,112.78c.41.61-.12,1.59-1.17,2.17-1.05.58-2.24.56-2.65-.05-.41-.62.12-1.59,1.17-2.18,1.05-.59,2.24-.56,2.65.06Z"/>
    <path class="cls-10" d="m130.53,124.25c-.71-.26-.96-1.36-.56-2.46.4-1.1,1.3-1.78,2.02-1.52.71.26.96,1.37.56,2.46-.4,1.1-1.3,1.77-2.02,1.51Z"/>
    <path class="cls-10" d="m138.74,115.99c.41.61-.12,1.58-1.18,2.17-1.05.58-2.24.56-2.65-.05-.41-.62.12-1.59,1.17-2.17,1.05-.59,2.24-.56,2.65.05Z"/>
    <path class="cls-10" d="m99.21,50.62c.41.61-.12,1.58-1.17,2.17-1.05.58-2.24.56-2.65-.05-.41-.62.12-1.59,1.17-2.18,1.05-.59,2.24-.56,2.65.06Z"/>
    <path class="cls-10" d="m130.01,111.43c-.53.52-1.59.21-2.39-.7-.79-.9-1.01-2.06-.48-2.58.52-.52,1.59-.21,2.38.7.79.91,1.01,2.06.48,2.58Z"/>
    <path class="cls-10" d="m102.02,98.91c.45-.57,1.64-.5,2.65.16,1.02.67,1.48,1.67,1.03,2.25-.45.58-1.64.51-2.66-.16-1.02-.67-1.48-1.68-1.03-2.26Z"/>
    <path class="cls-10" d="m78.97,75.33c-.48-.55-.17-1.69.7-2.55.86-.85,1.95-1.1,2.43-.54.48.55.17,1.69-.69,2.55-.86.85-1.95,1.1-2.43.54Z"/>
    <path class="cls-10" d="m86.58,66.58c-.48-.55-.17-1.69.7-2.55.86-.85,1.95-1.1,2.43-.54.48.55.17,1.69-.7,2.55-.86.85-1.95,1.1-2.43.54Z"/>
    <path class="cls-10" d="m109.72,65.05c-.48-.55-.17-1.69.7-2.54.86-.86,1.95-1.1,2.43-.54.48.55.17,1.69-.7,2.55-.86.85-1.95,1.09-2.43.54Z"/>
    <path class="cls-10" d="m67.87,80.51c-.48-.55-.17-1.69.7-2.55.86-.85,1.95-1.1,2.43-.54.48.55.17,1.7-.69,2.55-.86.85-1.95,1.1-2.44.55Z"/>
    <path class="cls-10" d="m111.25,80.05c-.46.58-1.56.39-2.45-.42-.89-.81-1.25-1.93-.78-2.51.46-.58,1.56-.39,2.45.42.89.81,1.24,1.93.79,2.51Z"/>
    <path class="cls-10" d="m108.8,68.7c-.44-.59-.04-1.7.88-2.49.93-.78,2.03-.95,2.47-.36.43.59.04,1.7-.88,2.49-.93.79-2.03.95-2.47.36Z"/>
    <path class="cls-10" d="m61.39,88.56c-.03-.75.9-1.41,2.07-1.46,1.18-.06,2.15.51,2.18,1.26.03.75-.9,1.41-2.07,1.46-1.18.05-2.15-.51-2.18-1.27Z"/>
    <path class="cls-10" d="m130.8,81.24c-.42.61-1.52.5-2.48-.24-.95-.74-1.38-1.83-.97-2.44.41-.61,1.52-.5,2.47.24.95.74,1.39,1.83.97,2.44Z"/>
    <path class="cls-10" d="m127.28,74.99c-.48-.55-.17-1.69.7-2.55.86-.85,1.95-1.1,2.43-.54.48.55.17,1.69-.69,2.54-.86.85-1.95,1.1-2.44.55Z"/>
    <path class="cls-10" d="m116.11,83.78c-.03-.75.9-1.41,2.07-1.46,1.18-.05,2.16.51,2.18,1.27.03.75-.9,1.41-2.07,1.46-1.18.05-2.16-.51-2.19-1.27Z"/>
    <path class="cls-10" d="m70.48,94.99c-.03-.76.9-1.41,2.07-1.46,1.18-.05,2.15.51,2.18,1.26.03.76-.9,1.41-2.07,1.46-1.17.05-2.15-.51-2.18-1.26Z"/>
    <path class="cls-10" d="m81.56,72.46c-.03-.75.9-1.41,2.07-1.46,1.18-.05,2.15.51,2.18,1.26.03.75-.9,1.41-2.07,1.46-1.18.06-2.15-.51-2.18-1.27Z"/>
  </g>
  <g>
    <path class="cls-10" d="m205.81,88.05c.5.53.24,1.68-.58,2.58-.83.89-1.9,1.19-2.4.66-.51-.53-.24-1.68.58-2.58.82-.9,1.9-1.2,2.4-.67Z"/>
    <path class="cls-10" d="m216.08,96.34c-.41.61-1.52.5-2.47-.24-.95-.74-1.38-1.83-.97-2.44.41-.61,1.53-.5,2.48.23.95.74,1.38,1.83.97,2.44Z"/>
    <path class="cls-10" d="m202.9,101.65c-.42.61-1.52.5-2.48-.24-.95-.74-1.39-1.83-.97-2.44.42-.61,1.52-.51,2.47.24.95.74,1.38,1.83.97,2.44Z"/>
    <path class="cls-10" d="m247.24,97.78c-.41.61-1.52.5-2.47-.24-.95-.74-1.39-1.83-.97-2.44.41-.61,1.52-.5,2.47.24.95.74,1.39,1.83.97,2.44Z"/>
    <path class="cls-10" d="m240.65,86.06c-.42.61-1.52.5-2.48-.24-.95-.74-1.38-1.83-.97-2.44.42-.61,1.52-.51,2.47.24.95.74,1.39,1.83.97,2.44Z"/>
    <path class="cls-10" d="m240.14,110.43c-.42.61-1.52.5-2.47-.24-.95-.74-1.38-1.83-.97-2.44.41-.61,1.52-.5,2.47.24.95.74,1.39,1.84.97,2.44Z"/>
    <path class="cls-10" d="m233.55,97.04c-.41.61-1.52.5-2.47-.24-.95-.74-1.39-1.83-.97-2.44.41-.61,1.52-.5,2.47.24.95.74,1.39,1.83.97,2.44Z"/>
    <path class="cls-10" d="m227.71,99.34c-.42.61-1.52.5-2.47-.24-.95-.74-1.39-1.83-.97-2.44.41-.61,1.52-.5,2.47.24.95.74,1.38,1.83.97,2.44Z"/>
    <path class="cls-10" d="m211.4,103.38c-.42.61-1.52.5-2.47-.24-.95-.74-1.39-1.83-.97-2.44.42-.61,1.52-.5,2.47.24.95.74,1.38,1.83.97,2.44Z"/>
    <path class="cls-10" d="m221.99,94.61c-.42.61-1.52.5-2.47-.24-.95-.74-1.39-1.83-.97-2.44.41-.61,1.52-.5,2.47.24.95.74,1.39,1.83.97,2.44Z"/>
    <path class="cls-10" d="m221.99,89.13c-.42.61-1.52.5-2.47-.24-.95-.74-1.39-1.83-.97-2.44.41-.61,1.52-.5,2.47.24.95.74,1.39,1.83.97,2.45Z"/>
    <path class="cls-10" d="m226.92,83.5c-.42.61-1.53.5-2.48-.24-.95-.74-1.38-1.83-.97-2.44.42-.61,1.53-.5,2.47.24.95.74,1.38,1.83.97,2.44Z"/>
    <path class="cls-10" d="m246.16,77.99c-.48-.55-.16-1.69.7-2.55.86-.85,1.95-1.1,2.43-.54.48.55.17,1.69-.69,2.54-.86.85-1.95,1.1-2.43.54Z"/>
    <path class="cls-10" d="m229.81,72.81c-.48-.56-.17-1.69.7-2.55.86-.86,1.95-1.1,2.43-.54.48.55.17,1.69-.69,2.55-.86.85-1.96,1.09-2.43.54Z"/>
    <path class="cls-10" d="m232.36,89.33c-.48-.55-.17-1.69.7-2.54.86-.85,1.96-1.1,2.43-.54.48.55.17,1.69-.7,2.55-.87.85-1.95,1.09-2.43.54Z"/>
    <path class="cls-10" d="m218.71,77.99c-.48-.55-.17-1.69.7-2.55.86-.85,1.95-1.1,2.43-.54.48.55.17,1.69-.7,2.54-.86.85-1.95,1.1-2.43.54Z"/>
    <path class="cls-10" d="m189.69,79.83c-.48-.55-.17-1.69.7-2.55.86-.85,1.95-1.1,2.43-.55.48.55.17,1.69-.7,2.55-.86.85-1.96,1.1-2.43.54Z"/>
    <path class="cls-10" d="m182.06,87.49c-.48-.55-.17-1.7.7-2.55.86-.85,1.95-1.1,2.43-.54.48.55.17,1.69-.69,2.54-.87.85-1.95,1.1-2.43.54Z"/>
    <path class="cls-10" d="m232.51,103.78c-.43.6-1.53.46-2.47-.31-.93-.77-1.34-1.87-.91-2.47.43-.6,1.53-.46,2.47.31.93.77,1.34,1.87.91,2.47Z"/>
    <path class="cls-10" d="m219.92,111.92c-.43.59-1.53.46-2.47-.31-.93-.77-1.34-1.87-.91-2.47.43-.6,1.54-.46,2.47.31.93.77,1.34,1.87.91,2.47Z"/>
    <path class="cls-10" d="m193.05,122.64c-.03-.75.9-1.4,2.07-1.46,1.17-.05,2.15.51,2.18,1.26.03.75-.9,1.4-2.07,1.46-1.18.05-2.16-.51-2.18-1.27Z"/>
    <path class="cls-10" d="m200.92,108.3c-.03-.76.9-1.41,2.08-1.46,1.17-.05,2.15.51,2.18,1.26.03.75-.9,1.41-2.07,1.46-1.17.05-2.15-.51-2.19-1.26Z"/>
    <path class="cls-10" d="m240.06,100.15c-.03-.75.9-1.41,2.08-1.46,1.17-.05,2.15.51,2.18,1.26.03.75-.9,1.41-2.08,1.46-1.17.05-2.15-.51-2.18-1.26Z"/>
    <path class="cls-10" d="m212.23,86.04c-.03-.75.9-1.41,2.08-1.46,1.18-.05,2.15.51,2.18,1.27.03.75-.9,1.41-2.07,1.46-1.17.05-2.15-.51-2.18-1.27Z"/>
    <path class="cls-10" d="m194.11,65.89c-.03-.75.9-1.4,2.08-1.46,1.18-.05,2.15.51,2.18,1.27.03.75-.9,1.41-2.07,1.46-1.18.05-2.15-.51-2.18-1.27Z"/>
    <path class="cls-10" d="m189.91,100.49c.48.55.18,1.69-.68,2.55-.86.86-1.94,1.11-2.43.56-.48-.55-.18-1.69.68-2.55.86-.86,1.95-1.11,2.43-.56Z"/>
    <path class="cls-10" d="m221.31,92.47c-.03-.75.9-1.4,2.08-1.46,1.18-.05,2.15.51,2.18,1.27.03.75-.9,1.41-2.07,1.46-1.17.05-2.15-.51-2.19-1.27Z"/>
    <path class="cls-10" d="m189.11,106.63c-.42.61-1.52.5-2.47-.24-.95-.74-1.39-1.83-.97-2.44.42-.61,1.52-.51,2.48.23.95.74,1.38,1.83.97,2.44Z"/>
    <path class="cls-10" d="m223.99,106.18c-.42.6-1.52.5-2.47-.24-.95-.74-1.38-1.83-.97-2.44.41-.61,1.52-.5,2.48.24.95.74,1.38,1.83.97,2.44Z"/>
    <path class="cls-10" d="m231.67,96.34c-.42.61-1.52.5-2.48-.24-.95-.74-1.39-1.83-.97-2.44.41-.61,1.52-.5,2.47.24.95.74,1.39,1.83.97,2.44Z"/>
    <path class="cls-10" d="m211.78,112.63c-.42.61-1.52.5-2.47-.24-.95-.74-1.38-1.84-.97-2.44.42-.61,1.52-.5,2.48.24.95.74,1.38,1.83.97,2.44Z"/>
    <path class="cls-10" d="m195.02,104.89c-.42.61-1.52.5-2.47-.23-.95-.74-1.39-1.83-.97-2.44.41-.61,1.52-.5,2.47.23.95.74,1.39,1.83.97,2.44Z"/>
    <path class="cls-10" d="m195.02,99.41c-.42.61-1.52.5-2.47-.24-.95-.74-1.39-1.84-.97-2.44.41-.61,1.52-.5,2.47.23.95.74,1.39,1.83.97,2.44Z"/>
    <path class="cls-10" d="m199.94,93.79c-.42.61-1.52.5-2.47-.24-.95-.74-1.39-1.83-.97-2.44.42-.61,1.52-.5,2.47.24.95.74,1.39,1.83.97,2.44Z"/>
    <path class="cls-10" d="m219.18,88.27c-.48-.55-.17-1.69.7-2.55.86-.85,1.95-1.1,2.43-.54.48.55.17,1.69-.69,2.55-.86.85-1.95,1.1-2.43.54Z"/>
    <path class="cls-10" d="m222.19,100.79c-.42.6-1.61.58-2.66-.04-1.05-.62-1.56-1.61-1.14-2.2.42-.6,1.61-.58,2.66.04,1.05.62,1.57,1.61,1.14,2.2Z"/>
    <path class="cls-10" d="m217.28,105.3c-.68-.28-.8-1.38-.27-2.45.54-1.07,1.53-1.72,2.22-1.44.69.28.8,1.38.27,2.45-.54,1.07-1.53,1.72-2.22,1.44Z"/>
    <path class="cls-10" d="m220.19,110.69c-.68-.28-.81-1.38-.27-2.45.54-1.07,1.53-1.72,2.21-1.43.69.28.81,1.38.27,2.45-.54,1.07-1.53,1.72-2.22,1.44Z"/>
    <path class="cls-10" d="m225.61,109.58c-.69-.28-.8-1.38-.27-2.45.54-1.07,1.53-1.72,2.21-1.43.69.28.81,1.38.27,2.45-.54,1.08-1.53,1.72-2.22,1.44Z"/>
    <path class="cls-10" d="m226.68,99.47c.73-.18,1.57.59,1.86,1.72.29,1.13-.07,2.2-.81,2.38-.74.18-1.57-.59-1.87-1.72-.29-1.13.07-2.19.81-2.38Z"/>
    <path class="cls-10" d="m222.17,109.6c.74-.18,1.57.59,1.86,1.72.29,1.13-.07,2.2-.81,2.38-.74.18-1.57-.59-1.86-1.72-.29-1.13.07-2.2.81-2.38Z"/>
    <path class="cls-10" d="m212.66,102.88c-.68-.28-.8-1.38-.27-2.45.54-1.07,1.53-1.72,2.21-1.44.68.28.81,1.38.27,2.45-.54,1.07-1.53,1.72-2.21,1.44Z"/>
    <path class="cls-10" d="m223.61,116.57c-.64.35-1.71-.19-2.37-1.2-.67-1.01-.7-2.12-.05-2.47.64-.36,1.7.18,2.37,1.2.67,1.01.69,2.12.05,2.48Z"/>
    <path class="cls-10" d="m210.27,131c-.49-.55-.11-1.59.85-2.32.96-.73,2.14-.88,2.62-.32.5.55.12,1.59-.84,2.32-.96.73-2.14.88-2.63.32Z"/>
    <path class="cls-10" d="m204.56,124.75c-.49-.55-.11-1.59.85-2.32.96-.73,2.14-.87,2.63-.32.49.55.11,1.59-.85,2.32-.96.73-2.13.87-2.63.32Z"/>
    <path class="cls-10" d="m202.38,113.46c.74.16,1.15,1.21.91,2.36-.24,1.14-1.04,1.94-1.78,1.78-.74-.16-1.15-1.21-.91-2.36.24-1.14,1.03-1.94,1.78-1.78Z"/>
    <path class="cls-10" d="m195.44,122.81c-.49-.55-.11-1.59.85-2.32.96-.73,2.14-.87,2.62-.32.49.55.11,1.59-.85,2.32-.96.73-2.14.87-2.62.32Z"/>
    <path class="cls-10" d="m204.74,126.09c.45-.59,1.54-.43,2.46.36.91.79,1.29,1.9.85,2.49-.45.59-1.55.43-2.46-.35-.91-.78-1.3-1.9-.85-2.49Z"/>
    <path class="cls-10" d="m264.95,124.25c-.08.75-1.09,1.26-2.26,1.15-1.17-.12-2.06-.81-1.98-1.56.08-.75,1.09-1.27,2.26-1.16,1.17.11,2.06.81,1.98,1.56Z"/>
    <path class="cls-10" d="m233.83,125.93c.68-.26,1.66.43,2.17,1.53.52,1.1.38,2.2-.31,2.46-.68.26-1.66-.42-2.18-1.52-.52-1.1-.38-2.2.31-2.46Z"/>
    <path class="cls-10" d="m249.1,113.55c.4.61-.12,1.59-1.17,2.17-1.05.59-2.24.56-2.64-.05-.41-.62.12-1.59,1.17-2.18,1.06-.58,2.24-.56,2.65.06Z"/>
    <path class="cls-10" d="m253.85,120.54c.41.61-.12,1.59-1.17,2.17-1.05.59-2.24.56-2.64-.05-.41-.62.12-1.59,1.17-2.17,1.05-.59,2.24-.57,2.64.05Z"/>
    <path class="cls-10" d="m254.39,132.02c-.71-.26-.96-1.36-.56-2.46.4-1.1,1.31-1.78,2.02-1.51.71.26.96,1.36.56,2.46-.4,1.1-1.31,1.78-2.02,1.51Z"/>
    <path class="cls-10" d="m262.6,123.76c.41.61-.12,1.58-1.17,2.17-1.05.58-2.24.56-2.64-.05-.41-.61.12-1.59,1.17-2.17,1.05-.58,2.24-.56,2.64.06Z"/>
    <path class="cls-10" d="m223.08,58.39c.41.61-.12,1.58-1.17,2.17-1.05.58-2.24.56-2.64-.05-.41-.62.12-1.59,1.17-2.17,1.05-.59,2.24-.56,2.65.05Z"/>
    <path class="cls-10" d="m253.87,119.19c-.53.52-1.59.2-2.38-.7-.79-.9-1.01-2.06-.49-2.58.53-.52,1.59-.21,2.38.7.79.91,1.01,2.06.48,2.58Z"/>
    <path class="cls-10" d="m225.88,106.68c.45-.58,1.64-.5,2.66.16,1.01.67,1.48,1.67,1.03,2.25-.45.58-1.64.51-2.66-.16-1.01-.67-1.47-1.68-1.03-2.26Z"/>
    <path class="cls-10" d="m202.83,83.1c-.48-.55-.17-1.69.7-2.55.86-.85,1.95-1.1,2.43-.54.48.55.17,1.69-.69,2.55-.86.85-1.96,1.1-2.43.54Z"/>
    <path class="cls-10" d="m210.45,74.34c-.48-.55-.17-1.69.7-2.55.86-.85,1.95-1.1,2.43-.54.48.55.17,1.69-.7,2.55-.86.85-1.95,1.1-2.44.54Z"/>
    <path class="cls-10" d="m233.59,72.81c-.48-.56-.17-1.69.69-2.55.87-.86,1.95-1.1,2.43-.54.48.55.17,1.69-.7,2.55-.86.85-1.95,1.09-2.43.54Z"/>
    <path class="cls-10" d="m191.73,88.27c-.48-.55-.17-1.69.7-2.55.86-.85,1.95-1.1,2.43-.54.48.55.17,1.69-.69,2.55-.86.85-1.96,1.1-2.44.54Z"/>
    <path class="cls-10" d="m235.12,87.81c-.46.58-1.56.39-2.45-.42-.89-.81-1.24-1.93-.79-2.51.46-.58,1.56-.39,2.45.42.89.81,1.25,1.93.79,2.51Z"/>
    <path class="cls-10" d="m232.66,76.46c-.43-.58-.04-1.7.89-2.49.93-.79,2.03-.95,2.47-.36.44.59.04,1.7-.88,2.49-.92.79-2.03.95-2.47.36Z"/>
    <path class="cls-10" d="m185.26,96.32c-.03-.75.9-1.41,2.07-1.46,1.18-.05,2.15.51,2.18,1.27.03.75-.9,1.41-2.07,1.46-1.17.05-2.15-.51-2.18-1.27Z"/>
    <path class="cls-10" d="m254.66,89c-.42.61-1.52.5-2.47-.24-.95-.74-1.39-1.84-.97-2.44.41-.61,1.52-.5,2.47.24.95.74,1.38,1.83.97,2.44Z"/>
    <path class="cls-10" d="m251.15,82.75c-.48-.55-.17-1.69.7-2.54.86-.85,1.95-1.09,2.43-.54.48.55.17,1.69-.7,2.54-.86.85-1.95,1.1-2.43.54Z"/>
    <path class="cls-10" d="m239.97,91.55c-.03-.75.9-1.41,2.07-1.46,1.17-.05,2.15.51,2.18,1.26.03.75-.9,1.41-2.07,1.46-1.18.05-2.16-.51-2.18-1.27Z"/>
    <path class="cls-10" d="m161.54,91.15c-.42.61-1.52.5-2.47-.24-.95-.74-1.39-1.84-.97-2.44.42-.61,1.52-.5,2.48.24.95.74,1.38,1.83.97,2.44Z"/>
    <path class="cls-10" d="m192.7,92.59c-.42.61-1.53.5-2.47-.24-.95-.74-1.39-1.83-.97-2.44.41-.61,1.52-.5,2.47.24.95.74,1.39,1.83.97,2.44Z"/>
    <path class="cls-10" d="m186.11,80.87c-.42.61-1.52.5-2.47-.24-.95-.74-1.38-1.83-.97-2.44.41-.61,1.52-.5,2.47.24.95.74,1.38,1.83.97,2.44Z"/>
    <path class="cls-10" d="m185.6,105.24c-.42.61-1.52.5-2.48-.24-.95-.74-1.38-1.83-.97-2.44.42-.61,1.52-.51,2.48.24.95.74,1.38,1.83.97,2.44Z"/>
    <path class="cls-10" d="m179.01,91.84c-.42.61-1.52.5-2.48-.24-.95-.74-1.38-1.83-.97-2.44.42-.61,1.52-.5,2.48.24.95.74,1.38,1.83.97,2.44Z"/>
    <path class="cls-10" d="m173.17,94.14c-.42.61-1.52.5-2.48-.24-.95-.74-1.39-1.84-.97-2.44.42-.61,1.52-.5,2.47.24.95.74,1.39,1.83.97,2.44Z"/>
    <path class="cls-10" d="m156.87,98.19c-.42.61-1.53.5-2.48-.24-.95-.74-1.38-1.83-.97-2.44.41-.61,1.52-.5,2.47.24.95.74,1.38,1.83.97,2.44Z"/>
    <path class="cls-10" d="m167.46,89.41c-.42.61-1.52.5-2.47-.24-.95-.74-1.39-1.83-.97-2.44.41-.61,1.52-.5,2.47.24.95.74,1.38,1.83.97,2.44Z"/>
    <path class="cls-10" d="m167.46,83.93c-.42.61-1.52.5-2.47-.24-.95-.74-1.39-1.83-.97-2.44.41-.61,1.52-.5,2.47.24.95.74,1.38,1.83.97,2.45Z"/>
    <path class="cls-10" d="m172.38,78.3c-.42.61-1.52.5-2.48-.24-.95-.74-1.38-1.83-.97-2.44.42-.61,1.52-.5,2.47.24.95.74,1.38,1.83.97,2.44Z"/>
    <path class="cls-10" d="m191.62,72.79c-.48-.55-.17-1.69.7-2.54.86-.85,1.95-1.1,2.43-.54.48.55.17,1.69-.69,2.55-.87.85-1.95,1.1-2.43.54Z"/>
    <path class="cls-10" d="m175.27,67.62c-.48-.55-.17-1.69.69-2.54.87-.85,1.95-1.1,2.43-.54.48.55.17,1.69-.69,2.55-.86.85-1.95,1.09-2.43.54Z"/>
    <path class="cls-10" d="m177.82,84.13c-.48-.55-.16-1.69.7-2.55.86-.85,1.95-1.1,2.43-.54.48.55.17,1.7-.69,2.55-.86.85-1.96,1.09-2.44.54Z"/>
    <path class="cls-10" d="m164.17,72.79c-.48-.55-.17-1.69.69-2.54.86-.85,1.95-1.1,2.43-.54.48.55.17,1.69-.69,2.55-.86.85-1.95,1.1-2.43.54Z"/>
    <path class="cls-10" d="m177.97,98.59c-.43.59-1.53.46-2.47-.31-.93-.76-1.34-1.87-.91-2.47.43-.6,1.53-.46,2.47.31.93.77,1.34,1.87.91,2.47Z"/>
    <path class="cls-10" d="m165.39,106.72c-.43.6-1.53.46-2.47-.31-.93-.77-1.34-1.87-.91-2.47.43-.6,1.54-.46,2.47.31.93.77,1.34,1.87.91,2.47Z"/>
    <path class="cls-10" d="m185.53,94.95c-.03-.75.9-1.41,2.07-1.46,1.17-.05,2.15.51,2.18,1.26.03.75-.89,1.41-2.07,1.46-1.18.05-2.16-.51-2.18-1.26Z"/>
    <path class="cls-10" d="m157.69,80.84c-.03-.75.9-1.4,2.08-1.46,1.17-.05,2.15.51,2.18,1.27.03.75-.9,1.41-2.07,1.46-1.18.05-2.15-.51-2.18-1.27Z"/>
    <path class="cls-10" d="m166.78,87.27c-.03-.75.9-1.41,2.07-1.46,1.18-.05,2.16.51,2.19,1.27.03.75-.9,1.41-2.07,1.46-1.18.06-2.15-.51-2.18-1.26Z"/>
    <path class="cls-10" d="m169.45,100.98c-.41.61-1.52.5-2.47-.24-.95-.74-1.38-1.83-.97-2.44.41-.61,1.52-.5,2.47.24.95.74,1.39,1.83.97,2.44Z"/>
    <path class="cls-10" d="m177.13,91.14c-.42.6-1.52.5-2.48-.24-.95-.74-1.39-1.83-.97-2.44.41-.61,1.52-.5,2.47.24.95.74,1.39,1.83.97,2.44Z"/>
    <path class="cls-10" d="m157.24,107.44c-.41.61-1.52.5-2.47-.24-.95-.74-1.39-1.84-.97-2.44.41-.61,1.52-.5,2.47.24.95.74,1.39,1.83.97,2.44Z"/>
    <path class="cls-10" d="m164.64,83.08c-.48-.55-.16-1.7.7-2.55.86-.85,1.95-1.1,2.43-.54.48.55.17,1.69-.69,2.55-.86.85-1.95,1.09-2.43.54Z"/>
    <path class="cls-10" d="m167.65,95.6c-.42.6-1.61.58-2.66-.04-1.05-.62-1.56-1.61-1.14-2.2.42-.6,1.61-.58,2.66.04,1.05.62,1.56,1.61,1.14,2.2Z"/>
    <path class="cls-10" d="m162.74,100.1c-.68-.28-.8-1.38-.27-2.45.54-1.07,1.53-1.71,2.22-1.44.69.28.81,1.38.27,2.45-.54,1.07-1.53,1.72-2.22,1.44Z"/>
    <path class="cls-10" d="m165.65,105.5c-.69-.28-.81-1.38-.27-2.45.54-1.07,1.53-1.72,2.21-1.43.69.28.81,1.38.27,2.45-.54,1.07-1.53,1.72-2.22,1.44Z"/>
    <path class="cls-10" d="m171.07,104.39c-.69-.28-.8-1.38-.27-2.45.54-1.07,1.53-1.72,2.22-1.44.68.28.8,1.38.27,2.45-.54,1.07-1.53,1.72-2.22,1.44Z"/>
    <path class="cls-10" d="m172.14,94.28c.74-.18,1.57.59,1.86,1.72.29,1.13-.07,2.2-.81,2.38-.73.18-1.57-.59-1.86-1.72-.29-1.13.07-2.19.81-2.38Z"/>
    <path class="cls-10" d="m167.63,104.4c.74-.18,1.57.59,1.86,1.72.29,1.13-.07,2.2-.81,2.38-.74.18-1.57-.59-1.86-1.72-.29-1.13.07-2.2.81-2.38Z"/>
    <path class="cls-10" d="m158.12,97.69c-.68-.28-.8-1.38-.26-2.45.54-1.07,1.53-1.72,2.21-1.44.69.28.81,1.38.27,2.45-.54,1.07-1.53,1.72-2.22,1.44Z"/>
    <path class="cls-10" d="m169.07,111.38c-.64.35-1.7-.19-2.37-1.2-.67-1.01-.69-2.12-.05-2.47.64-.36,1.7.18,2.37,1.2.67,1.01.69,2.12.05,2.48Z"/>
    <path class="cls-10" d="m155.74,125.8c-.49-.55-.11-1.59.85-2.32.96-.73,2.14-.88,2.62-.32.49.55.11,1.59-.84,2.32-.96.73-2.14.88-2.63.32Z"/>
    <path class="cls-10" d="m210.41,119.06c-.08.75-1.09,1.26-2.26,1.15-1.17-.12-2.06-.81-1.98-1.56.08-.75,1.09-1.27,2.26-1.16,1.17.11,2.06.81,1.98,1.56Z"/>
    <path class="cls-10" d="m179.29,120.74c.68-.26,1.66.42,2.18,1.53.52,1.1.38,2.2-.31,2.46-.68.26-1.66-.42-2.18-1.53-.52-1.1-.38-2.2.31-2.46Z"/>
    <path class="cls-10" d="m194.56,108.35c.41.61-.12,1.59-1.17,2.17-1.05.59-2.24.56-2.64-.05-.41-.62.12-1.59,1.17-2.18,1.06-.58,2.24-.56,2.65.05Z"/>
    <path class="cls-10" d="m199.31,115.34c.41.61-.12,1.59-1.17,2.17-1.05.59-2.24.56-2.65-.05-.41-.62.12-1.59,1.17-2.17,1.05-.59,2.24-.56,2.65.05Z"/>
    <path class="cls-10" d="m199.85,126.82c-.71-.26-.96-1.36-.56-2.46.4-1.1,1.31-1.78,2.02-1.51.71.26.96,1.36.56,2.46-.4,1.1-1.3,1.78-2.02,1.51Z"/>
    <path class="cls-10" d="m208.06,118.56c.41.61-.12,1.58-1.17,2.17-1.05.58-2.24.56-2.64-.05-.41-.62.12-1.59,1.17-2.17,1.05-.59,2.24-.56,2.65.05Z"/>
    <path class="cls-10" d="m168.54,53.19c.41.61-.12,1.58-1.17,2.17-1.05.58-2.24.56-2.65-.05-.41-.62.12-1.59,1.17-2.17,1.05-.59,2.24-.56,2.65.05Z"/>
    <path class="cls-10" d="m199.33,114c-.52.52-1.59.2-2.39-.7-.79-.9-1.01-2.06-.48-2.58.53-.52,1.59-.21,2.38.7.79.91,1.01,2.06.48,2.58Z"/>
    <path class="cls-10" d="m171.34,101.48c.45-.57,1.64-.5,2.65.16,1.02.66,1.48,1.67,1.03,2.25-.45.58-1.64.51-2.66-.16-1.01-.67-1.48-1.68-1.03-2.26Z"/>
    <path class="cls-10" d="m155.91,69.15c-.48-.55-.16-1.69.7-2.55.86-.85,1.95-1.1,2.43-.54.48.55.17,1.69-.69,2.55-.87.85-1.95,1.1-2.44.54Z"/>
    <path class="cls-10" d="m179.05,67.62c-.48-.55-.17-1.69.7-2.54.86-.85,1.95-1.1,2.43-.54.48.55.17,1.69-.7,2.55-.86.85-1.95,1.09-2.43.54Z"/>
    <path class="cls-10" d="m180.58,82.62c-.46.58-1.56.39-2.46-.42-.89-.81-1.24-1.93-.78-2.51.46-.58,1.56-.39,2.45.41.9.81,1.24,1.93.79,2.51Z"/>
    <path class="cls-10" d="m178.12,71.27c-.43-.59-.04-1.7.89-2.49.92-.79,2.03-.95,2.46-.36.44.59.04,1.7-.88,2.49-.92.79-2.03.95-2.47.36Z"/>
    <path class="cls-10" d="m131.68,94.15c-.42.61-1.52.5-2.48-.24-.95-.74-1.39-1.83-.97-2.44.42-.61,1.52-.5,2.47.23.95.74,1.39,1.83.97,2.44Z"/>
    <path class="cls-10" d="m127.94,69.93c-.48-.55-.17-1.69.69-2.54.87-.85,1.95-1.1,2.43-.55.48.55.17,1.69-.69,2.55-.86.85-1.95,1.1-2.43.54Z"/>
    <path class="cls-10" d="m130.5,86.45c-.48-.56-.17-1.69.7-2.55.87-.85,1.95-1.1,2.43-.54.48.55.17,1.69-.7,2.55-.86.85-1.95,1.1-2.43.54Z"/>
    <path class="cls-10" d="m129.8,93.45c-.42.61-1.52.5-2.48-.24-.95-.74-1.38-1.83-.97-2.44.41-.61,1.52-.5,2.47.23.95.74,1.38,1.84.97,2.44Z"/>
    <path class="cls-10" d="m131.72,69.93c-.48-.55-.17-1.69.7-2.54.86-.85,1.95-1.1,2.43-.54.48.55.17,1.69-.7,2.55-.86.85-1.95,1.1-2.43.54Z"/>
    <path class="cls-10" d="m133.25,84.93c-.46.58-1.56.39-2.45-.42-.89-.81-1.24-1.93-.78-2.51.46-.58,1.56-.39,2.45.42.89.81,1.24,1.93.79,2.51Z"/>
    <path class="cls-10" d="m130.8,73.58c-.43-.58-.04-1.7.89-2.49.92-.79,2.03-.95,2.47-.36.44.58.04,1.7-.88,2.49-.92.79-2.03.95-2.47.36Z"/>
    <path class="cls-10" d="m200.12,83.81c-.42.61-1.52.5-2.48-.24-.95-.74-1.38-1.83-.97-2.44.41-.61,1.52-.5,2.47.24.95.74,1.39,1.83.97,2.44Z"/>
    <path class="cls-10" d="m196.61,77.56c-.48-.55-.17-1.69.7-2.55.86-.85,1.95-1.09,2.43-.54.48.55.17,1.69-.69,2.54-.86.85-1.96,1.1-2.43.54Z"/>
    <path class="cls-10" d="m185.43,86.35c-.03-.75.9-1.41,2.07-1.46,1.18-.05,2.16.52,2.19,1.26.03.75-.9,1.41-2.07,1.46-1.18.05-2.16-.51-2.19-1.27Z"/>
    <path class="cls-10" d="m194.34,102.75c-.03-.75.9-1.4,2.07-1.46,1.17-.05,2.15.52,2.18,1.27.03.75-.9,1.41-2.07,1.46-1.17.06-2.15-.51-2.18-1.27Z"/>
    <path class="cls-10" d="m205.42,80.22c-.03-.75.9-1.41,2.07-1.46,1.18-.05,2.15.51,2.19,1.26.03.75-.9,1.41-2.08,1.46-1.18.05-2.15-.51-2.18-1.27Z"/>
  </g>
  <g>
    <g>
      <path class="cls-11" d="m151.82,65.97c-11.06-4.07-17.39,9.57-17.13,18.45.14,4.91,2.49,9.22,7.13,11.2,4.16,1.79,7.58-.33,10.06-3.64,2.56-3.44,3.66-7.96,6.7-11.05,1.29-1.31,3.44-.95,4.4.58,1.29,2.04.16,5.34-.54,7.37-1.61,4.68-5.43,9.99-11.19,8.47-4-1.06-2.7-6.82.59-7.79,2.21-.65,5.19.13,5.52,2.68.35,2.73-1.53,5.17-3.83,6.39-2.19,1.16-5.84.76-7.94-.43-1.8-1.02-1.86-3.37-1.76-5.16.27-4.95,2.73-9.9,4.52-14.45,1.42-3.61,3.47-8,1.19-11.69-2.74-4.45-9.35-1.52-12.72.32-5.08,2.77-9.42,6.69-11.12,12.31-1.68,5.57.09,12.23,4.47,16.09,4.71,4.16,10.77,2.58,15.1-1.2.24-.23.47-.47.71-.7,1.85-1.81-1-4.63-2.85-2.82-2.42,2.36-5.54,4.25-8.91,2.65-2.99-1.41-4.58-4.94-5-8.02-.95-7.03,4.06-11.66,9.62-14.87,1.67-.96,4.93-2.83,6.94-1.91,1.68.76.37,4.05,0,5.19-1.56,4.76-3.76,9.27-5.1,14.1-1.06,3.81-1.83,8.89,1.09,12.12,3.29,3.63,9.55,3.75,13.78,1.91,4.34-1.88,6.81-7.46,5.42-11.88-1.45-4.59-7.62-5.89-11.63-3.97-3.66,1.75-5.17,5.77-4.33,9.59.95,4.31,5.5,6.28,9.57,5.58,5.47-.92,8.54-4.35,10.79-9.17,1.84-3.92,3.5-9.75.5-13.54-2.7-3.41-7.58-3.21-10.46-.27-3.04,3.09-4.38,7.58-6.74,11.14-.92,1.39-2.16,2.78-3.96,2.78-2.38,0-4.58-2.4-5.35-4.42-1.87-4.88-.13-10.99,2.71-15.13,2.06-2.99,5.21-4.22,8.65-2.96,2.44.9,3.48-2.96,1.07-3.85h0Z"/>
      <path class="cls-11" d="m172.84,91.04c4.08-4.81,16.59.32,12.74,6.86-2.96,5.03-13.53,4.37-18.07,2.43-1.26-.54-2.47-.12-2.96,1.19-1.12,2.99-2.06,6.71-4.89,8.57-2.15,1.42-.14,4.88,2.03,3.45,3.85-2.53,5.21-6.85,6.74-10.95-.99.4-1.97.8-2.96,1.19,7.5,3.22,22.1,3.13,24.7-6.55,2.66-9.88-14.19-16.08-20.19-9.01-1.66,1.96,1.17,4.8,2.84,2.82h0Z"/>
      <path class="cls-11" d="m160.97,96.64c-4.03,10.55-13.95,11.99-24,13.18-2.55.3-2.58,4.3,0,3.99,5.54-.66,11.35-1.12,16.5-3.43,5.65-2.54,9.21-6.99,11.38-12.67.92-2.41-2.97-3.45-3.88-1.06h0Z"/>
      <path class="cls-11" d="m124.77,112.65c9.91,6.86,20.65,8.12,31.91,3.68,4.07-1.6,8.11-3.26,12.04-5.16,3.19-1.54,7.6-3.49,9.34-6.79,1.21-2.27-2.27-4.29-3.48-2.01-1.38,2.6-5.4,4.12-7.9,5.35-3.44,1.7-7.01,3.15-10.57,4.56-4.39,1.74-8.87,2.92-13.62,2.87-5.8-.05-11.06-2.75-15.7-5.96-2.13-1.48-4.15,1.99-2.03,3.45h0Z"/>
      <path class="cls-11" d="m134.64,120.4c13.2,2.59,27.14,2.01,38.99-4.86,5.92-3.43,10.66-8.52,14.28-14.25.47-.75,2.04-6.7,2.8-6.37,2.83,1.23,2.61,6.04.26,7.63.99.4,1.97.79,2.96,1.19-1.04-4.29-.83-8.74-2.18-12.97-.93-2.92-2.93-5.32-5.07-7.45-4.08-4.1-9.92-7.94-15.96-6.93-4.61.78-8.4,8.35-1.83,8.97,6.28.59,10.51-5.7,7.92-11.34-2.39-5.2-7.26-7.76-12.75-8.34-3.64-.39-10.12.62-8.27,5.77,1.98,5.52,10.02,5.18,12.95.68,2.3-3.53,1.25-9.03-2.19-11.49-4.93-3.52-12.26-1.71-17.33.53-3.67,1.62-9.12,6.42-3.86,9.78,1.31.84,3.01-.27,3.03-1.73.09-6.48-6.28-7.77-10.58-3.81-2.39,2.2-3.2,5.65-2.96,8.76.15,2.08.66,4.14,1.38,6.1.49,1.36,1.38,2.75,1.51,4.21.15,1.58-2.02,2.93-3.07,3.74-2.78,2.16-5.74,2-9.07,2.05-4.15.07-8.51,1.68-10.87,5.21-4.62,6.92,5.46,14,10.99,15.6,2.49.72,3.56-3.13,1.07-3.85-4.87-1.41-13.4-7.99-5.8-11.93,3.28-1.7,7.37-.86,10.92-1.4,3.2-.48,6.56-3.03,8.46-5.55,3.16-4.18-.49-8.6-1.32-12.96-.54-2.83-.17-5.52,2.02-7.53,1.79-1.65,3.33-.9,3.29,1.37,1.01-.57,2.02-1.15,3.03-1.72-.44-.28-.31.05-.03-.29.7-.86,1.69-1.44,2.65-1.97,2.72-1.52,5.96-2.36,9.07-2.5,2.41-.11,5.48.35,6.46,2.88.68,1.76.56,3.98-1.04,5.16-1.11.82-2.65,1.11-3.92.51-1.28-.61-1.37-1.2-.55-1.46,3.1-.97,7.1.11,9.73,1.79,2.52,1.61,4.76,5.02,3.34,7.96-.7,1.45-2.18,1.82-3.64,1.85-.81-.11-.73-.15.25-.14.47-.59,1.39-.85,2.08-1.04,4.65-1.26,10.26,3.99,13.08,6.96,4.66,4.91,3.7,11.5,5.18,17.6.29,1.2,1.9,1.91,2.96,1.2,4.75-3.22,5.08-10.68.45-14.1-2.01-1.48-4.78-1.53-6.31.62-.83,1.17-1.27,2.56-1.7,3.92-.65,2.04-1.49,3.65-2.72,5.42-10.56,15.11-29.97,18.03-47.01,14.69-2.54-.5-3.62,3.35-1.07,3.85h0Z"/>
    </g>
    <g>
      <path class="cls-13" d="m163.44,57.16c-8.33-7.05-23.04-5.08-27.18,5.67-1.96,5.08.11,11.68,3.61,15.61,3.2,3.58,8.38,4.29,12.93,4.22,8.06-.13,23.18-5.34,24.41,7.01.85,8.53-12.63,14.95-19.12,9.62-4.7-3.86-1.89-9.8,1.56-13.34,2.15-2.22,5.09-3.96,8.25-4.06,3.4-.11,7.06,5.12,2.53,6.27-2.52.64-1.45,4.49,1.07,3.85,6.03-1.53,6.37-8.62,1.97-12.25-5-4.12-11.94-.81-16.07,2.8-4.3,3.76-7.04,9.35-5.18,14.95,1.35,4.08,4.98,6.72,9.16,7.39,8.31,1.35,18.8-4.23,19.79-13.1.51-4.55-1.56-9.47-5.25-12.21-3.59-2.67-8.94-2.21-13.11-1.81-8.46.79-19.5,3.37-22.62-7.05-3.57-11.9,12.17-17.71,20.41-10.73,1.96,1.66,4.83-1.15,2.85-2.83h0Z"/>
      <path class="cls-13" d="m160.23,62.35c-15.48-.74-30.61,14.25-30.34,29.59.24,14.05,17.94,14.28,27.75,11.16,2.46-.78,1.41-4.64-1.07-3.85-7.43,2.36-21.89,3.62-22.65-7.31-.93-13.24,13.52-26.21,26.32-25.6,2.6.12,2.59-3.87,0-3.99h0Z"/>
      <path class="cls-13" d="m172.23,82.61c2.98,2.67,5.58,6.16,4.89,10.36-.52,3.15-2.85,5.57-5.6,7.01-2.93,1.54-6.37,1.25-9.14-.43-4.01-2.44-4.78-6.76-4.67-11.02.07-3.08.47-6.5-1.29-9.22-1.82-2.82-6.01-3.2-9.02-2.56-8.32,1.76-13.16,11.2-12.88,19.1.09,2.57,4.12,2.58,4.03,0-.17-4.84,1.82-9.63,5.34-12.98,2.79-2.66,9.39-4.1,9.84,1.05.33,3.79-.45,7.5.54,11.25.93,3.55,3.98,6.76,7.17,8.46,5.86,3.12,13.46.66,17.24-4.49,4.85-6.59,2.06-14.29-3.59-19.34-1.92-1.72-4.78,1.1-2.85,2.82h0Z"/>
      <path class="cls-13" d="m162.79,63.4c6.53,3.39,14.22,10.63,11.94,18.67-1.28,4.53-7.58,12.48-13.12,9.72-3.03-1.51-3.97-6.27-4.15-9.28-.15-2.48.72-4.85,2.86-6.23,4.77-3.08,11.5.29,15.04,3.67,1.87,1.79,4.72-1.04,2.84-2.82-5.18-4.95-14.31-8.5-20.78-3.7-6.73,5-4.34,16.92,1.64,21.49,7.14,5.45,16.27-4.03,18.87-9.95,4.52-10.31-4.3-20.44-13.1-25.01-2.3-1.2-4.33,2.25-2.03,3.45h0Z"/>
      <path class="cls-13" d="m155.71,68.21c-.47-.75-.17-.31-.26-.2.28-.31.83-.47,1.21-.61,1.62-.58,3.4-.75,5.1-.89,3.24-.26,6.64-.25,9.86.27,4.11.66,6.8,5.45,8.25,8.9,1.84,4.41,2.64,9.6,1.69,14.31-1.29,6.41-13.96,12.29-10.53,19.73,3.32,7.23,14.59,5.12,16.2-2.25.55-2.51-3.33-3.58-3.88-1.06-.47,2.15-1.94,3.24-4.03,3.76-1.8.45-5.08-.59-4.71-2.94.63-4.07,5.65-7.79,8.01-10.96,5.63-7.52,3.5-18.34-.99-25.98-1.75-2.98-4.72-6.34-8.22-7.23-3.1-.79-6.55-.73-9.71-.65-3.82.1-15.59,1.2-11.46,7.82,1.36,2.18,4.85.18,3.48-2.02h0Z"/>
      <path class="cls-13" d="m146.69,81.69c-5.44,2.47-10.17,6.56-10.71,12.79-.47,5.37,3.74,9.94,8.34,12.05,5.57,2.55,13.64,2.47,19.06-.45,2.64-1.42,4.02-4.21,4.52-7.04.46-2.63-1.3-3.3-1.98-5.23-.83.82-1.65,1.64-2.48,2.45-.71-.45-.76-.42-.15.09,1.87,1.79,4.71-1.03,2.84-2.82-.45-.43-.97-1.01-1.62-1.12-1.38-.23-3.04.88-2.48,2.46.39,1.08,1.18,1.99,1.82,2.93,1.14,1.67-1.78,4.43-3.1,5.14-3.93,2.12-10.17,1.62-14.22.19-3.49-1.23-6.39-4.34-6.54-8.09-.21-4.94,4.8-8.12,8.73-9.91,2.36-1.07.31-4.51-2.03-3.45h0Z"/>
      <path class="cls-13" d="m183.85,88.9c10.58,2.35,2.69,18.68-6.33,14.43-.85-.4-1.65-.93-2.32-1.59-.42-.42,0-.11-.43.19.67-.47,1.7.05,2.22.53,1.59,1.46.95,4.4.53,6.17-.62,2.63-2.02,4.88-4.36,6.3-4.09,2.47-9.78,1.29-14.08.11-5.13-1.41-10.01-3.77-14.52-6.55-4.67-2.88-8.26-7.04-13.31-9.39-5.73-2.67-11.12-1.33-14.8,3.73-.48.67-.33,1.9.32,2.42,8.95,7.16,10.72-10.17,3.65-10.09-3.8.04-7.85,4.92-6.42,8.61,1.56,4.06,7.41,5.32,11.16,6.22,1.57.38,3.75.42,5.14,1.26,1.63,1,2.77,1.91,4.68,2.32,2.27.49,4.63.44,6.93.27,2.09-.16,4.16-.42,6.26-.46,2.15-.04,4.16.81,6.17,1.47,3.12,1.03,6.73,1.19,10,1.42,6.43.44,13.16.03,19.07-2.67,2.5-1.14,4.55-3.02,6.07-5.27.95-1.4,3.31-4.43,2.12-6.21-4.54-6.85-12.63-9.24-20.07-11.91-5.49-1.97-10.17-4.77-14.97-8.07-5.63-3.88-11.44-8.34-15.37-13.99-1.35-1.95-2.7-4.46-2.23-6.9.58-3.02,4.03-4.63,6.6-5.62,2.4-.92,1.36-4.78-1.07-3.85-4.17,1.6-8.59,4.09-9.5,8.82-.8,4.16,1.56,8.22,4.04,11.36,6.18,7.83,15.07,13.88,23.67,18.82,4.6,2.64,9.92,3.97,14.83,5.94,2.91,1.17,6.04,2.52,8.4,4.63.55.5.98,1.16,1.42,1.74,1,1.31,1.05-.81.41.01-1.1,1.41-1.55,3.11-2.76,4.47-4.41,4.97-13.04,4.99-19.12,4.79-3.18-.11-6.44-.4-9.55-1.09-1.86-.42-3.6-1.23-5.47-1.63-2.28-.49-4.68-.22-6.97,0-3.26.32-7.26.98-10.18-.83-1.45-.91-2.39-1.59-4.06-1.94-3.25-.68-6.61-1.3-9.63-2.73-.8-.38-2.54-1.18-2.3-2.31.15-.74,2.09-2.91,2.52-2.67.64.35.58,2.06.57,2.64-.03,1.46-.24,1.38-1.21.61.11.81.21,1.61.31,2.42,5.36-7.36,14.04.13,18.76,4.4,3.65,3.3,8.71,5.62,13.21,7.49,8.97,3.71,22.97,6.92,28.37-3.88,1.98-3.97,2.95-10.12-.7-13.47-2.07-1.9-6.38-2.43-8.07.29-2.33,3.75,2.88,6.73,5.68,7.84,4.56,1.8,9.53-.44,12.48-3.96,5.36-6.4,4.32-16.48-4.73-18.49-2.53-.56-3.6,3.29-1.07,3.85h0Z"/>
    </g>
  </g>
  <path class="cls-8" d="m109.86,106.57c0-9.41,2.82-18.23,4-27.19-9.59,1.26-8.39,26.67-9.12,33.98-.94,9.47,2.2,18.45,2.32,27.81,7.06-1.45,2.8-28.1,2.8-34.61Z"/>
  <g>
    <path class="cls-14" d="m45.77,134.79c6.08-8.22,15.77-33.71,11.62-43.62-4.98-11.91-13.62,15.32-14.34,20.77-.76,5.72-2.26,19.33,2.72,22.85Z"/>
    <path class="cls-6" d="m44.45,123.14c5.78-.19,11.77-19.63,10.98-23.88-1.65-8.84-7.82,3.32-8.94,7.33-1.46,5.21-2.32,11.13-2.04,16.55Z"/>
  </g>
</svg>