<?xml version="1.0" encoding="utf-8"?>
<!-- Generator: Adobe Illustrator 27.9.0, SVG Export Plug-In . SVG Version: 6.00 Build 0)  -->
<svg version="1.1" id="Layer_1" xmlns="http://www.w3.org/2000/svg" xmlns:xlink="http://www.w3.org/1999/xlink" x="0px" y="0px"
	 viewBox="0 0 217.8 187.12" style="enable-background:new 0 0 217.8 187.12;" xml:space="preserve">
<style type="text/css">
	.st0{fill-rule:evenodd;clip-rule:evenodd;fill:#F4F5F7;}
	.st1{fill-rule:evenodd;clip-rule:evenodd;fill:#E3E4E9;}
	.st2{fill-rule:evenodd;clip-rule:evenodd;fill:#FF6224;}
	.st3{fill-rule:evenodd;clip-rule:evenodd;fill:#ED4605;}
	.st4{fill-rule:evenodd;clip-rule:evenodd;fill:#A60603;}
	.st5{fill-rule:evenodd;clip-rule:evenodd;fill:#865334;}
	.st6{fill:#BD8F4F;}
	.st7{fill:#CEA265;}
	.st8{fill-rule:evenodd;clip-rule:evenodd;fill:#A66A44;}
	.st9{fill-rule:evenodd;clip-rule:evenodd;fill:#542E17;}
	.st10{fill-rule:evenodd;clip-rule:evenodd;fill:#663B20;}
	.st11{fill:#519A48;}
	.st12{fill-rule:evenodd;clip-rule:evenodd;fill:#F5DEB6;}
	.st13{fill:#FFF3DA;}
	.st14{fill:#FA692F;}
	.st15{fill:#EFD05C;}
	.st16{fill-rule:evenodd;clip-rule:evenodd;fill:#2E2D33;}
	.st17{fill-rule:evenodd;clip-rule:evenodd;fill:#4D4C52;}
	.st18{fill-rule:evenodd;clip-rule:evenodd;fill:#828287;}
	.st19{fill-rule:evenodd;clip-rule:evenodd;fill:#D23508;}
	.st20{fill-rule:evenodd;clip-rule:evenodd;fill:#BA2D06;}
	.st21{fill-rule:evenodd;clip-rule:evenodd;fill:#B52E1A;}
	.st22{fill-rule:evenodd;clip-rule:evenodd;fill:#E69B4C;}
	.st23{fill-rule:evenodd;clip-rule:evenodd;fill:#EB7538;}
	.st24{fill-rule:evenodd;clip-rule:evenodd;fill:#DB662C;}
	.st25{fill-rule:evenodd;clip-rule:evenodd;fill:#66666B;}
	.st26{fill-rule:evenodd;clip-rule:evenodd;fill:#DB5128;}
	.st27{fill-rule:evenodd;clip-rule:evenodd;fill:#F7B268;}
	.st28{fill-rule:evenodd;clip-rule:evenodd;fill:#CC3D26;}
	.st29{fill-rule:evenodd;clip-rule:evenodd;fill:#D9B685;}
	.st30{fill-rule:evenodd;clip-rule:evenodd;fill:#FFECD1;}
	.st31{fill-rule:evenodd;clip-rule:evenodd;fill:#358541;}
	.st32{fill-rule:evenodd;clip-rule:evenodd;fill:#26632F;}
	.st33{fill-rule:evenodd;clip-rule:evenodd;fill:#FFCCB5;}
	.st34{fill-rule:evenodd;clip-rule:evenodd;fill:#F2B922;}
	.st35{fill-rule:evenodd;clip-rule:evenodd;fill:#F3CD2E;}
	.st36{fill-rule:evenodd;clip-rule:evenodd;fill:#FAF19B;}
	.st37{fill-rule:evenodd;clip-rule:evenodd;fill:#F3FFD9;}
	.st38{fill-rule:evenodd;clip-rule:evenodd;fill:#D1E3AA;}
	.st39{fill-rule:evenodd;clip-rule:evenodd;fill:#85522E;}
	.st40{fill-rule:evenodd;clip-rule:evenodd;fill:#C77B45;}
	.st41{fill-rule:evenodd;clip-rule:evenodd;fill:#A36539;}
	.st42{fill-rule:evenodd;clip-rule:evenodd;}
	.st43{fill-rule:evenodd;clip-rule:evenodd;fill:#C7C7C9;}
	.st44{fill-rule:evenodd;clip-rule:evenodd;fill:#99441D;}
	.st45{fill-rule:evenodd;clip-rule:evenodd;fill:#6B2605;}
	.st46{fill-rule:evenodd;clip-rule:evenodd;fill:#AD5025;}
	.st47{fill-rule:evenodd;clip-rule:evenodd;fill:#C75925;}
	.st48{fill-rule:evenodd;clip-rule:evenodd;fill:#B5582D;}
	.st49{fill-rule:evenodd;clip-rule:evenodd;fill:#519A48;}
	.st50{fill-rule:evenodd;clip-rule:evenodd;fill:#FBD5B0;}
	.st51{fill:#E8BC90;}
	.st52{fill-rule:evenodd;clip-rule:evenodd;fill:#7A3312;}
	.st53{fill-rule:evenodd;clip-rule:evenodd;fill:#FA7D44;}
	.st54{fill-rule:evenodd;clip-rule:evenodd;fill:#FCE38F;}
	.st55{fill-rule:evenodd;clip-rule:evenodd;fill:#464AA6;}
	.st56{fill-rule:evenodd;clip-rule:evenodd;fill:#00C36C;}
	.st57{fill-rule:evenodd;clip-rule:evenodd;fill:#006B43;}
	.st58{fill-rule:evenodd;clip-rule:evenodd;fill:#C5C6C9;}
	.st59{fill-rule:evenodd;clip-rule:evenodd;fill:#FFC250;}
	.st60{fill-rule:evenodd;clip-rule:evenodd;fill:#FFD177;}
	.st61{fill:#FFE7B8;}
	.st62{fill-rule:evenodd;clip-rule:evenodd;fill:#3A3940;}
	.st63{fill-rule:evenodd;clip-rule:evenodd;fill:#F7C35B;}
	.st64{fill-rule:evenodd;clip-rule:evenodd;fill:#BF9A76;}
	.st65{fill-rule:evenodd;clip-rule:evenodd;fill:#452508;}
	.st66{fill-rule:evenodd;clip-rule:evenodd;fill:#BF8B24;}
	.st67{fill-rule:evenodd;clip-rule:evenodd;fill:#C44918;}
	.st68{fill-rule:evenodd;clip-rule:evenodd;fill:#E6AC37;}
	.st69{fill-rule:evenodd;clip-rule:evenodd;fill:#522C0B;}
	.st70{fill-rule:evenodd;clip-rule:evenodd;fill:#E6551C;}
	.st71{fill-rule:evenodd;clip-rule:evenodd;fill:#EDD4A1;}
	.st72{fill-rule:evenodd;clip-rule:evenodd;fill:#784212;}
	.st73{fill-rule:evenodd;clip-rule:evenodd;fill:#F77745;}
	.st74{fill-rule:evenodd;clip-rule:evenodd;fill:#66380F;}
	.st75{fill-rule:evenodd;clip-rule:evenodd;fill:#995B25;}
	.st76{fill-rule:evenodd;clip-rule:evenodd;fill:#FF4F0C;}
	.st77{fill-rule:evenodd;clip-rule:evenodd;fill:#FAD58C;}
	.st78{fill-rule:evenodd;clip-rule:evenodd;fill:#FFF3DA;}
	.st79{fill-rule:evenodd;clip-rule:evenodd;fill:#D3D4D6;}
	.st80{fill-rule:evenodd;clip-rule:evenodd;fill:#EEF5FB;}
	.st81{fill-rule:evenodd;clip-rule:evenodd;fill:#DAE3EB;}
	.st82{fill-rule:evenodd;clip-rule:evenodd;fill:#C8CED4;}
	.st83{fill-rule:evenodd;clip-rule:evenodd;fill:#CAD3DB;}
	.st84{fill-rule:evenodd;clip-rule:evenodd;fill:#FDD657;}
	.st85{fill-rule:evenodd;clip-rule:evenodd;fill:#F0C330;}
	.st86{fill-rule:evenodd;clip-rule:evenodd;fill:#315E38;}
	.st87{fill-rule:evenodd;clip-rule:evenodd;fill:#99AE4C;}
	.st88{fill-rule:evenodd;clip-rule:evenodd;fill:#D6E0E8;}
	.st89{fill-rule:evenodd;clip-rule:evenodd;fill:#FFD6C7;}
	.st90{fill-rule:evenodd;clip-rule:evenodd;fill:#BD7E18;}
	.st91{fill-rule:evenodd;clip-rule:evenodd;fill:#D5962F;}
	.st92{fill-rule:evenodd;clip-rule:evenodd;fill:#E6A947;}
	.st93{fill-rule:evenodd;clip-rule:evenodd;fill:#EDB356;}
	.st94{fill-rule:evenodd;clip-rule:evenodd;fill:#DBB97F;}
	.st95{fill-rule:evenodd;clip-rule:evenodd;fill:#EACB97;}
	.st96{fill-rule:evenodd;clip-rule:evenodd;fill:#E3BF81;}
	.st97{fill:#333333;}
	.st98{fill-rule:evenodd;clip-rule:evenodd;fill:#754528;}
	.st99{fill:#242323;}
	.st100{fill-rule:evenodd;clip-rule:evenodd;fill:#E3E4E6;}
	.st101{fill-rule:evenodd;clip-rule:evenodd;fill:#FC8A31;}
	.st102{fill-rule:evenodd;clip-rule:evenodd;fill:#E67017;}
	.st103{fill-rule:evenodd;clip-rule:evenodd;fill:#6BBA61;}
	.st104{fill-rule:evenodd;clip-rule:evenodd;fill:#FCAB6D;}
	.st105{fill-rule:evenodd;clip-rule:evenodd;fill:#FFBE8C;}
	.st106{fill:#006B43;}
	.st107{fill-rule:evenodd;clip-rule:evenodd;fill:#FA692F;}
	.st108{fill-rule:evenodd;clip-rule:evenodd;fill:#9E3E03;}
	.st109{fill-rule:evenodd;clip-rule:evenodd;fill:#C27100;}
	.st110{fill-rule:evenodd;clip-rule:evenodd;fill:#B34602;}
	.st111{fill-rule:evenodd;clip-rule:evenodd;fill:#D68007;}
	.st112{fill-rule:evenodd;clip-rule:evenodd;fill:#FDFEFF;}
	.st113{fill-rule:evenodd;clip-rule:evenodd;fill:#A66805;}
	.st114{fill-rule:evenodd;clip-rule:evenodd;fill:#CC4F00;}
	.st115{fill-rule:evenodd;clip-rule:evenodd;fill:#E68B09;}
	.st116{fill-rule:evenodd;clip-rule:evenodd;fill:#123618;}
	.st117{fill-rule:evenodd;clip-rule:evenodd;fill:#1C4622;}
	.st118{fill:#1C4622;}
	.st119{fill:#315E38;}
	.st120{fill-rule:evenodd;clip-rule:evenodd;fill:#D7D7DB;}
	.st121{fill-rule:evenodd;clip-rule:evenodd;fill:#FFFFFF;}
	.st122{fill-rule:evenodd;clip-rule:evenodd;fill:#C8CAC9;}
	.st123{fill-rule:evenodd;clip-rule:evenodd;fill:#B3B0A9;}
	.st124{fill-rule:evenodd;clip-rule:evenodd;fill:#E8DFE0;}
	.st125{fill-rule:evenodd;clip-rule:evenodd;fill:#AD8F8C;}
	.st126{fill-rule:evenodd;clip-rule:evenodd;fill:#BE9F9C;}
	.st127{fill-rule:evenodd;clip-rule:evenodd;fill:#5E4830;}
	.st128{fill:#96735A;}
	.st129{fill:#AD866B;}
	.st130{fill:#C5A189;}
	.st131{fill-rule:evenodd;clip-rule:evenodd;fill:#69523A;}
	.st132{fill-rule:evenodd;clip-rule:evenodd;fill:#DBDBDB;}
	.st133{fill-rule:evenodd;clip-rule:evenodd;fill:#F2F2F2;}
	.st134{fill-rule:evenodd;clip-rule:evenodd;fill:#6F952E;}
	.st135{fill-rule:evenodd;clip-rule:evenodd;fill:#D4E2A5;}
	.st136{fill-rule:evenodd;clip-rule:evenodd;fill:#C8D384;}
	.st137{fill-rule:evenodd;clip-rule:evenodd;fill:#F8FDFF;}
	.st138{fill-rule:evenodd;clip-rule:evenodd;fill:#F7D981;}
	.st139{fill-rule:evenodd;clip-rule:evenodd;fill:#FDE396;}
	.st140{fill-rule:evenodd;clip-rule:evenodd;fill:#E7A96E;}
	.st141{fill-rule:evenodd;clip-rule:evenodd;fill:#BA7E47;}
	.st142{fill:#FFFFFF;}
	.st143{fill-rule:evenodd;clip-rule:evenodd;fill:#C5A189;}
	.st144{fill-rule:evenodd;clip-rule:evenodd;fill:#951806;}
	.st145{fill-rule:evenodd;clip-rule:evenodd;fill:#801303;}
	.st146{fill-rule:evenodd;clip-rule:evenodd;fill:#D4510D;}
	.st147{fill-rule:evenodd;clip-rule:evenodd;fill:#E6C18A;}
	.st148{fill-rule:evenodd;clip-rule:evenodd;fill:#D59D5E;}
	.st149{fill-rule:evenodd;clip-rule:evenodd;fill:#D47507;}
	.st150{fill-rule:evenodd;clip-rule:evenodd;fill:#E38D2B;}
	.st151{fill-rule:evenodd;clip-rule:evenodd;fill:#BD6704;}
	.st152{fill-rule:evenodd;clip-rule:evenodd;fill:#E8891C;}
	.st153{fill-rule:evenodd;clip-rule:evenodd;fill:#D56400;}
	.st154{fill-rule:evenodd;clip-rule:evenodd;fill:#E6844E;}
	.st155{fill-rule:evenodd;clip-rule:evenodd;fill:#F1E2BB;}
	.st156{fill:#A33803;}
	.st157{fill-rule:evenodd;clip-rule:evenodd;fill:#A33803;}
	.st158{fill-rule:evenodd;clip-rule:evenodd;fill:#B54306;}
	.st159{fill-rule:evenodd;clip-rule:evenodd;fill:#EA6321;}
	.st160{fill-rule:evenodd;clip-rule:evenodd;fill:#821909;}
	.st161{fill-rule:evenodd;clip-rule:evenodd;fill:#C44B0E;}
	.st162{fill-rule:evenodd;clip-rule:evenodd;fill:#B3320E;}
	.st163{fill-rule:evenodd;clip-rule:evenodd;fill:#BA874D;}
	.st164{fill-rule:evenodd;clip-rule:evenodd;fill:#6F351B;}
	.st165{fill-rule:evenodd;clip-rule:evenodd;fill:#5C2C15;}
	.st166{fill-rule:evenodd;clip-rule:evenodd;fill:#FA8950;}
	.st167{fill-rule:evenodd;clip-rule:evenodd;fill:#5E401D;}
	.st168{fill:#D59D5E;}
	.st169{fill:#BA874D;}
	.st170{fill:#E4C292;}
	.st171{fill:#EA6321;}
	.st172{fill:#FA8950;}
	.st173{fill-rule:evenodd;clip-rule:evenodd;fill:#8C5B34;}
	.st174{fill:#CF9470;}
	.st175{fill-rule:evenodd;clip-rule:evenodd;fill:#AA7448;}
	.st176{fill:#EFB795;}
	.st177{fill-rule:evenodd;clip-rule:evenodd;fill:#C9D98B;}
	.st178{fill-rule:evenodd;clip-rule:evenodd;fill:#93B04A;}
	.st179{fill-rule:evenodd;clip-rule:evenodd;fill:#D1E18E;}
	.st180{fill-rule:evenodd;clip-rule:evenodd;fill:#ABCB5C;}
	.st181{fill-rule:evenodd;clip-rule:evenodd;fill:#F0DEAD;}
	.st182{fill-rule:evenodd;clip-rule:evenodd;fill:#DEBA59;}
	.st183{fill-rule:evenodd;clip-rule:evenodd;fill:#E6D3A1;}
	.st184{fill-rule:evenodd;clip-rule:evenodd;fill:#FFF3D3;}
	.st185{fill-rule:evenodd;clip-rule:evenodd;fill:#F7D474;}
	.st186{fill-rule:evenodd;clip-rule:evenodd;fill:#A86046;}
	.st187{fill-rule:evenodd;clip-rule:evenodd;fill:#CF0200;}
	.st188{fill-rule:evenodd;clip-rule:evenodd;fill:#FF2D29;}
	.st189{fill-rule:evenodd;clip-rule:evenodd;fill:#43983E;}
	.st190{fill-rule:evenodd;clip-rule:evenodd;fill:#136B29;}
	.st191{fill-rule:evenodd;clip-rule:evenodd;fill:#D1E694;}
	.st192{fill-rule:evenodd;clip-rule:evenodd;fill:#218239;}
	.st193{fill-rule:evenodd;clip-rule:evenodd;fill:#035C3B;}
	.st194{fill-rule:evenodd;clip-rule:evenodd;fill:#54A051;}
	.st195{fill-rule:evenodd;clip-rule:evenodd;fill:#FFCBA3;}
	.st196{fill-rule:evenodd;clip-rule:evenodd;fill:#EB9350;}
	.st197{fill:#EB9350;}
	.st198{fill-rule:evenodd;clip-rule:evenodd;fill:#BDBDBB;}
	.st199{fill-rule:evenodd;clip-rule:evenodd;fill:#A15E23;}
</style>
<path class="st16" d="M36.95,36.92c0,0-33.01,23.95-35.49,30.36c-2.48,6.4-1.44,51.81,0.44,57.21c1.87,5.4,38.35,31.96,38.35,31.96
	L36.95,36.92L36.95,36.92z"/>
<path class="st17" d="M40.19,154.31L37,38.78c-7.9,5.85-30.77,23.11-32.83,28.4c-2.48,6.4-1.43,51.81,0.44,57.21
	C6.17,128.88,31.64,147.99,40.19,154.31L40.19,154.31z"/>
<path class="st18" d="M8.66,69.54L8.66,69.54c0.69-0.03,1.27,0.52,1.3,1.21l1.88,50.84c0.03,0.69-0.52,1.28-1.21,1.31h0
	c-0.69,0.03-1.27-0.52-1.3-1.21L7.45,70.84C7.42,70.15,7.97,69.56,8.66,69.54L8.66,69.54z"/>
<path class="st16" d="M9.18,69.63c0.44,0.18,0.75,0.61,0.77,1.12l1.88,50.84c0.02,0.51-0.27,0.96-0.69,1.17
	c-0.44-0.18-0.75-0.61-0.77-1.12L8.49,70.81C8.48,70.3,8.76,69.85,9.18,69.63L9.18,69.63z"/>
<path class="st18" d="M15.88,62.64L15.88,62.64c0.69-0.03,1.27,0.52,1.3,1.21l2.37,64.08c0.03,0.69-0.52,1.28-1.21,1.31h0
	c-0.69,0.03-1.27-0.52-1.3-1.21l-2.37-64.08C14.65,63.25,15.19,62.67,15.88,62.64L15.88,62.64z"/>
<path class="st16" d="M16.41,62.74c0.44,0.18,0.75,0.61,0.77,1.12l2.37,64.08c0.02,0.51-0.27,0.96-0.69,1.17
	c-0.44-0.18-0.75-0.61-0.77-1.12l-2.37-64.08C15.7,63.4,15.98,62.95,16.41,62.74L16.41,62.74z"/>
<path class="st16" d="M175.93,31.74c0,0,34.68,21.43,37.63,27.63c2.95,6.2,5.25,51.56,3.78,57.08
	c-1.47,5.52-35.89,34.74-35.89,34.74L175.93,31.74L175.93,31.74z"/>
<path class="st17" d="M181.36,149.04l-5.34-115.45c8.31,5.24,32.39,20.75,34.83,25.87c2.95,6.2,5.25,51.56,3.78,57.08
	C213.41,121.14,189.42,142.1,181.36,149.04L181.36,149.04z"/>
<path class="st18" d="M206.56,62.15L206.56,62.15c-0.69,0.03-1.23,0.61-1.21,1.31l1.88,50.84c0.03,0.69,0.61,1.24,1.3,1.21h0
	c0.69-0.03,1.23-0.61,1.21-1.31l-1.88-50.84C207.83,62.67,207.24,62.12,206.56,62.15L206.56,62.15z"/>
<path class="st16" d="M209.17,115.3c0.35-0.24,0.58-0.64,0.56-1.1l-1.88-50.84c-0.02-0.45-0.27-0.84-0.64-1.05
	c-0.35,0.24-0.58,0.64-0.56,1.1l1.88,50.84C208.55,114.7,208.8,115.09,209.17,115.3L209.17,115.3z"/>
<path class="st18" d="M198.84,55.81L198.84,55.81c-0.69,0.03-1.23,0.61-1.21,1.31L200,121.2c0.03,0.69,0.61,1.24,1.3,1.21h0
	c0.69-0.03,1.23-0.61,1.21-1.31l-2.37-64.08C200.12,56.33,199.53,55.79,198.84,55.81L198.84,55.81z"/>
<path class="st16" d="M201.95,122.2c0.35-0.24,0.58-0.64,0.56-1.1l-2.37-64.08c-0.02-0.45-0.27-0.84-0.64-1.05
	c-0.35,0.24-0.58,0.64-0.56,1.1l2.37,64.08C201.32,121.6,201.58,121.99,201.95,122.2L201.95,122.2z"/>
<path class="st16" d="M105.67,0.07c51.34-1.92,94.51,38.39,96.42,90.02c1.91,51.63-38.17,95.05-89.52,96.96
	c-51.34,1.92-94.51-38.39-96.42-90.02C14.25,45.39,54.33,1.98,105.67,0.07L105.67,0.07z"/>
<path class="st17" d="M105.95,7.63c47.19-1.76,86.87,35.28,88.62,82.74c1.75,47.46-35.08,87.36-82.28,89.12
	c-47.19,1.76-86.87-35.28-88.62-82.74C21.93,49.29,58.76,9.39,105.95,7.63L105.95,7.63z"/>
<path class="st17" d="M131.89,13.46c0,0-8.03,2.34-14.51,10.14c-6.48,7.8-6.07,12.94-8.61,15.98c-2.54,3.04-5.73,1.35-5.68,7.12
	c0.05,5.77,1.45,10.42,4.97,13.08c3.52,2.67,7.84,2.05,11.81,2.38c3.97,0.34,16.82-6.87,25.37-2c8.55,4.87,12.32,16.56,17.14,10.49
	c4.82-6.07,8.58-10.86,9.79-15.12c1.21-4.26,6.86-10.59,2.3-14.13c-4.56-3.54-6.47-1.67-20.33-11.63
	C140.28,19.81,131.89,13.46,131.89,13.46L131.89,13.46z"/>
<path class="st62" d="M106.23,15.19c43.04-1.61,79.22,32.18,80.82,75.46c1.6,43.28-32,79.67-75.03,81.27
	c-43.04,1.61-79.22-32.18-80.82-75.46C29.6,53.19,63.19,16.8,106.23,15.19L106.23,15.19z"/>
<path class="st63" d="M107.77,15.15c13.11-0.23,25.54,2.81,36.52,8.4c-6.7,3.4-18.69,6.77-27.75,1.1
	C109.5,20.25,107.87,17.15,107.77,15.15L107.77,15.15z"/>
<path class="st64" d="M31.61,84.92c0.46-4.25,1.26-8.4,2.38-12.42c3.27,0.18,8.49,0.74,8.49,0.74l-1.61,10.69
	C40.28,83.89,34.17,85.63,31.61,84.92L31.61,84.92z"/>
<path class="st65" d="M106.23,15.19c2.28-0.09,4.55-0.07,6.79,0.04c0.59,2.22,1.84,5.71,4.31,11.19
	c10.47,23.25,16.41,37.77,30.37,52.81c13.96,15.04,26.39,17.58,29.21,26.07c2.82,8.48,0.84,6.58-7.56,21.98
	c-8.4,15.4-69.19,32.09-69.19,32.09s-8.53,4.21-17.75,0.77c-9.23-3.44-10.92-1.17-16.5-4.96c-5.58-3.79-11.07-8.11-9.36-12.59
	c1.72-4.48,29.81-14.76,28.72-32.62c-1.09-17.86-22.9-24.36-21.18-43.28c1.72-18.92,9.14-25.61,15.72-38.21
	c1.81-3.47,4.18-6.95,6.84-10.03C92.87,16.57,99.43,15.45,106.23,15.19L106.23,15.19z"/>
<path class="st66" d="M128.79,105.36c0,0,0.39,16.12-8.1,20.03c-8.49,3.91-13.87-6.43-16.77-13.78c-2.9-7.35,10.6-21.14,13.33-21.21
	C119.98,90.34,128.79,105.36,128.79,105.36L128.79,105.36z"/>
<path class="st67" d="M97.99,58.94c0,0-7.7,9.65-8.39,13.67c-0.69,4.02-2.72,11.36,1.78,17.08c4.5,5.72,7.63,8.24,10.52,7.39
	c2.9-0.84,6.31-2.02,10.41-7.12c4.1-5.1,5.67-13.47,7.33-16.89c1.65-3.43,11.62-9.98,11.78-13.36c0.16-3.39-0.87-5.56-3.79-5.45
	C124.7,54.37,97.99,58.94,97.99,58.94L97.99,58.94z"/>
<path class="st67" d="M54.98,37.13c6.41-6.23,13.89-11.36,22.15-15.11c3.54,2.89,2.93,13.36,3.69,16.72c0.87,3.86-0.64,8.12-5.73,12
	c-5.09,3.87-11.75,7.49-15.97,1.02C56.25,47.35,55.3,40.95,54.98,37.13L54.98,37.13z"/>
<path class="st67" d="M48.02,142.27c-7.7-9.76-13.16-21.42-15.53-34.22c1.26-1.1,2.43-2.19,3.29-3.13
	c3.62-3.94,7.01-2.68,12.92-1.43c5.9,1.25,11.1,3.06,12.96,10.98c1.86,7.92,0.52,11.13-2.38,14.92c-2.89,3.79-6.72,5.09-10.84,12.29
	C48.31,141.89,48.17,142.09,48.02,142.27L48.02,142.27z"/>
<path class="st68" d="M184.94,75.17c1.19,4.98,1.91,10.16,2.11,15.48c0.4,10.79-1.39,21.15-4.97,30.65
	c-2.19-1.01-5.03-6.21-9.04-9.89c-5.85-5.36-5.8-5.16-4.88-10.44c0.91-5.28,0.93-22.86,6.91-25.29
	C178.24,74.39,182.06,74.65,184.94,75.17L184.94,75.17z"/>
<path class="st66" d="M173.72,112.06c-0.22-0.22-0.45-0.43-0.68-0.65c-5.85-5.36-5.8-5.16-4.88-10.44
	c0.91-5.28,0.93-22.86,6.91-25.29c2.13-0.87,4.56-1.04,6.8-0.9c-0.15,0.77-0.32,1.82-0.54,3.24c-1.09,7.25-4.85,17.43-3.55,19.96
	C178.93,100.23,176.57,107.67,173.72,112.06L173.72,112.06z"/>
<path class="st69" d="M179.67,127.01c-12.04,25.63-37.53,43.79-67.65,44.92c-12.81,0.48-25.01-2.18-35.87-7.29
	c0.69-1.47,2.78-3.25,7.77-5.13c13-4.9,12.23-6.2,20.38-16.25c8.15-10.06,21.65-12.66,37.77-12.21c16.13,0.45,15.65-1.21,27.27-3.75
	C174.11,126.24,177.51,126.24,179.67,127.01L179.67,127.01z"/>
<path class="st69" d="M125.1,16.79c8.87,1.86,17.21,5.24,24.72,9.87c1.37,0.99,2.81,2.03,4.32,3.12c1.42,1.02,2.71,1.91,3.89,2.71
	c6.34,5.14,11.87,11.26,16.36,18.14c-0.87,1.75-1.81,3.46-2.22,4.92c-1.21,4.26-4.97,9.05-9.79,15.12
	c-4.82,6.07-8.59-5.62-17.14-10.49c-8.55-4.87-21.4,2.33-25.37,2c-3.97-0.34-8.29,0.28-11.81-2.38c-3.52-2.67-4.92-7.32-4.97-13.08
	c-0.05-5.77,3.14-4.08,5.68-7.12c2.54-3.04,2.14-8.18,8.61-15.98C119.91,20.56,122.67,18.35,125.1,16.79L125.1,16.79z"/>
<path class="st65" d="M130.79,18.21c0.47,0.14,0.94,0.28,1.41,0.42c-0.29,0.38-0.4,0.54-1,0.31
	C130.82,18.79,130.72,18.53,130.79,18.21L130.79,18.21z M143.35,23.09c0.83,0.41,1.64,0.83,2.45,1.26c-0.3,0.26-0.65,0.57-1.07,0.93
	c-2.56,2.22-0.94,0-1.77,0.01c-0.84,0.01-0.81,0.81-1.76,2c-0.95,1.19-2.72-0.34-4.39-1.25c-1.67-0.91,1.13,2.17,2.31,3.7
	c1.18,1.53-0.26,0.85-1.47-0.53c-1.2-1.38-2.34-2.36-3.37-2.63c-1.03-0.26-1.07,1.67-2.41,1c-2.26-0.36-1.79-0.1-3.13-0.1
	c-1.35,0-2.6,0.33-3.75,0.45c-1.15,0.12,1.57,1.74,1.48,2.77c-0.1,1.03-2.16-1.88-2.62-2.04c-0.46-0.16-0.35,0.56,0.21,1.65
	c0.56,1.09,2.65,3.05,2.65,3.05c-0.14,0.97-4.35-3.53-5.37-3.1c-1.02,0.43,2.32,3.45,3.28,5.19c0.96,1.74-2.84-1.75-3.37-2.28
	c-0.53-0.53,0.45-1.52-1.84-2.28c-2.29-0.76,0.33-1.39,0.16-2.75c-0.16-1.37,1.74,0.38,2.15-0.15c0.41-0.53,0.26-1.2,1.06-0.82
	c0.8,0.38,1.48-0.66,1.48-0.66s0.44-0.33,2.5,0.2c2.06,0.53,4.38-0.39,4.43-1.03c0.05-0.64-1.69-0.42-2.54,0.19
	c-0.84,0.61-1.98-0.37-1.98-0.37s-1.23-1.24-3.03-2.97c-1.8-1.73,0.41-1.47,0.41-1.47s1.93,1.6,2.4,3.02
	c0.47,1.42,3.37,0.39,4.12-0.48c0.75-0.87,0.91-0.8,1.44,1.62c0.53,2.42,4.08-0.44,4.95-0.25c0.87,0.19,0.23-2,2.74,0.19
	c2.51,2.19,1.08-0.37,2.28-1.22C142.32,23.68,142.81,23.38,143.35,23.09L143.35,23.09z M125.29,38.47c3.42,0.1,2.53,0.41,5.01-1.38
	c2.48-1.79,3.83,0.17,5.71-0.43c1.88-0.59,1.64,0.36,3.47-1.48c1.83-1.84,0.24-2.25,3.79-3.21c3.55-0.97,6.65-0.08,5.92-0.99
	c-0.73-0.91-1.73-0.62-3.55-0.84c-3.86,0.57-6.22,4.71-8.94,4.97c-2.72,0.26-5.51-0.83-7.28,0.47c-1.77,1.3-1.49,2.44-2.62,2.16
	C125.66,37.47,121.37,38.12,125.29,38.47L125.29,38.47z"/>
<path class="st69" d="M40.1,74.88c0,0-4.77,6.81-5.48,15.98c-0.71,9.18,2.33,12.12,2.04,15.7c-0.29,3.59-3.58,4.66-0.47,8.22
	c3.11,3.56,6.63,5.54,10.68,4.86c4.05-0.68,6.97-3.94,10.12-6.37c3.15-2.43,8.95-15.48,17.95-18.13c9-2.65,18.05,2.13,18.43-4.86
	c0.38-6.99,0.65-12.49-0.71-15.95c-1.36-3.47-0.49-11.18-5.8-10.35c-5.3,0.83-5.74,3.26-21.42,6.27
	C49.77,73.26,40.1,74.88,40.1,74.88L40.1,74.88z"/>
<path class="st65" d="M63.49,97.37c0.24-1.6,0.92-2.96,1.77-2.61c0.85,0.25-1.71,4.31-3.44,6.36c-1.73,2.05-2.85,2.84-4.05,2.89
	c-1.2,0.04-3.07,0.02-2.64-1.22c0.44-1.24,0.72-0.12,2.87-0.77C60.14,101.36,63.49,97.37,63.49,97.37L63.49,97.37z M36.83,92.57
	c2.24-2.92,1.42-2.41,4.41-3.09c2.99-0.68,2.47-3.3,4.18-4.4c1.71-1.1,0.84-1.64,3.43-1.73c2.59-0.1,1.81,1.54,4.92-0.66
	c3.11-2.19,4.56-5.46,4.73-4.14c0.17,1.32-0.71,1.91-1.79,3.59c-3.03,2.76-7.66,1.51-9.7,3.57c-2.03,2.06-3.12,5.21-5.28,5.67
	c-2.15,0.46-2.8-0.65-3.36,0.5C37.82,93.04,34.43,96.09,36.83,92.57L36.83,92.57z M41.52,95.36c0,0,0.01,3.24,0.43,4.55
	c0.42,1.31,0.87,1.96,1.06,1.46c0.19-0.51-0.54-4.47,0.29-3.75c0.82,0.72,0.16,4.23,1.03,3.37c0.87-0.86,1.96-1.65,2.87-2.77
	c0.91-1.11,0.78-0.53,2.05-2.68c0.42-1.62,1.86-0.16,2.37-1.22c0.5-1.06,0.56-2.76,0.36-4.83c-0.2-2.07,0.28-3.79,0.6-1.63
	c0.32,2.16,0.68,6.87,1.14,4.77c0.47-2.09,0.55-4.74,2.06-4.61c1.51,0.13,2.08,0.77,2.66,0.09c0.58-0.68-2.15-1.05,1.21-1.46
	c3.36-0.41,3.31-0.22,3.89-2.32c0.59-2.1,0.17-3.69,0.95-2.02c0.79,1.67,1.8,3.05,2.81,0.93c1.01-2.11,2.72-6.24,2.29-3.39
	c-0.44,2.85-3.99,6.28-4.49,5.83c-0.5-0.45-1.08,0.04-1.63,1.48c-0.55,1.44-3.29,2.48-4.72,2.82c-1.43,0.34-2.34-2.84-2.44,0.94
	c-0.1,3.78-1.27,1.56-1.72,2.42c-0.45,0.87-4.95,1.6-3.53,3.91c1.41,2.31,1.36,2.5,0.21,2.45c-1.15-0.05-3.86,1.56-3.14,3.04
	c0.72,1.48,0.58,4.32,0.58,4.32s-1.31,2.03-1.36-0.8c-0.04-2.83-0.12-4.81-0.12-4.81s0.06-1.7,1.07-1.93
	c1.02-0.23,2.36-1.5,1.86-1.96c-0.5-0.45-2.75,0.76-3.75,2.88c-1.01,2.11-1.55,2.23-1.55,2.23s-1.22-0.24-1.48,0.72
	c-0.27,0.95-0.65,0.31-1.32,0.24c-0.67-0.07-0.68,2.86-1.57,1.66c-0.89-1.19-3.12,0.49-2.12-2c0.99-2.49-0.39-2.44-0.42-3.29
	c-0.03-0.85-0.01-6.7,0.62-4.55c0.62,2.15,0.57,7.25,1.57,6.74C41.15,101.69,40.72,94.72,41.52,95.36L41.52,95.36z"/>
<path class="st25" d="M105.67,0.07c18.66-0.7,36.23,4.19,51.15,13.16c-14.2-7.8-30.61-11.98-47.96-11.33
	C57.51,3.81,17.43,47.22,19.34,98.86c1.21,32.87,19.15,61.15,45.27,76.86c-27.84-15.29-47.19-44.5-48.46-78.69
	C14.25,45.39,54.33,1.98,105.67,0.07L105.67,0.07z"/>
<path class="st18" d="M105.95,7.63c16.81-0.63,32.66,3.67,46.19,11.61c-12.78-6.76-27.44-10.35-42.9-9.77
	c-47.19,1.76-84.03,41.66-82.28,89.12c0.11,2.96,0.37,5.88,0.76,8.75c3.7,26.78,19.58,49.43,41.67,62.39
	c-20.91-11.06-36.8-30.6-42.97-54.24c-1.57-6-2.51-12.27-2.75-18.72C21.93,49.29,58.76,9.39,105.95,7.63L105.95,7.63z"/>
<path class="st63" d="M33.39,74.81c1.94-7.92,5.07-15.39,9.21-22.18c2.04-1.22,4.49-2.38,6.68-2.55c4.9-0.39,13.5,1.89,16.61,2.12
	c3.1,0.23,7.64,0.14,8.06,3.07c0.42,2.93,1.03,13.74-3.06,16.31c-4.09,2.57-11.53-0.73-19.8,1.9
	C44.31,75.62,36.39,75.62,33.39,74.81L33.39,74.81z"/>
<path class="st68" d="M33.39,74.81c0.72-2.93,1.6-5.79,2.63-8.59c2.01-1.13,4.73-2.04,8.15-1.86c8.28,0.43,5.6,1.58,13.35,1.82
	c7.75,0.24,12.98,1.72,13.08,1.41c0.09-0.32,1.34-3.47,0.07-5.1c-1.26-1.64-2.12-7.86-1.04-9.64c0.13-0.21,0.39-0.28,0.75-0.24
	c0.19,0.04,0.38,0.07,0.57,0.12c0.58,0.17,1.31,0.51,2.1,0.94c0.48,0.4,0.8,0.92,0.9,1.6c0.42,2.93,1.03,13.74-3.06,16.31
	c-4.09,2.57-11.53-0.73-19.8,1.9C44.31,75.62,36.39,75.62,33.39,74.81L33.39,74.81z"/>
<path class="st70" d="M163.08,150.17c-7.69,7.42-16.91,13.28-27.15,17.05c-10.12,2.91-15.05-7.42-14.03-13.76
	c1.02-6.35,4.15-32.03,4.15-32.03s1.63-3.95,12.67-2.47c11.04,1.48,19.41,1.69,21.34,8.57
	C161.43,132.39,163.02,143.36,163.08,150.17L163.08,150.17z"/>
<path class="st67" d="M163.08,150.17c-7.69,7.42-16.91,13.28-27.15,17.05c-10.12,2.91-15.05-7.42-14.03-13.76
	c1.02-6.35,4.15-32.03,4.15-32.03s1.03-2.5,7.01-2.78c-2.88,9.57-6.48,26.59-0.25,30.19c6.01,3.47,21.02-0.56,30.11-2.41
	C163.02,147.76,163.07,149.02,163.08,150.17L163.08,150.17z"/>
<path class="st71" d="M94.06,63.4l2.55,4.01c0,0-14.86,2.76-23.47,13.18c-8.61,10.42-9.36,24.23-9.36,24.23l-3.7-3.86
	c0,0,0.65-19.17,12.88-27.94C85.2,64.26,94.06,63.4,94.06,63.4L94.06,63.4z"/>
<path class="st72" d="M115.09,29.58c-0.35-1.04,8.86-3.7-7.13-6.26c-15.99-2.56-24.11,1.32-28.16,5.15
	c-4.04,3.83-1.98,0.18-6.85,9.93c-4.87,9.75-4.44,18.68-3.29,21.27c1.14,2.59,9.05-1.49,17.53,1.66c8.48,3.15,19.71,4,21.39,1.41
	c1.68-2.59,2.22-2.19,3.39-10.22C113.13,44.49,118.58,36.19,115.09,29.58L115.09,29.58z"/>
<path class="st73" d="M161.23,144.79c0.22,0.31,1.49,0.4-0.08,2.02c-1.56,1.62-6.95,3.19-16.19,3.64
	c-9.24,0.45-12.39,0.25-14.04-2.16c-1.66-2.41-1.92-6.77-0.95-6.01c0.97,0.75,0.12,4.62,4.55,5.56c4.43,0.94,13,0.78,19.17-0.72
	C159.85,145.63,159.71,144.63,161.23,144.79L161.23,144.79z"/>
<path class="st72" d="M95.71,86.25c0,0,6.87,4.79,16.58,24c9.7,19.2,14.56,20.28,8.69,31.44c-5.86,11.16-8.97,6.44-17.95,6.77
	c-8.98,0.34-18.85,5.12-31.93,2.03c-13.09-3.09-17.53-4.39-17.82-12.38c-0.29-7.98,5.65-5.68,2.64-19.03
	c-3-13.35-4.57-16.24,1.28-21.93C63.06,91.46,74.28,78,95.71,86.25L95.71,86.25z"/>
<path class="st74" d="M115.25,148.57c-0.61,0.29-1.22,0.45-1.86,0.54c0.12-0.6,0.68-1.29,0.42-1.67c-0.42-0.62-0.89-0.86-3.19-0.67
	c-2.29,0.19-5.64,0.37-6.87-0.43c-1.23-0.8-1.77,0.33-2.91,0.63c-1.14,0.31-6.73,0.57-9.17,0.87c-2.45,0.3-1.59,0.95-4.99,2.18
	c-3.41,1.23-7.25,0.43-8.35,0.47c-1.1,0.04-1.98-1.24-3.21-1.88c-1.23-0.64-3.5,0.13-4.87-0.24c-1.37-0.37-1.65-2.2-3.92-2.64
	c-2.27-0.44-3.3-0.03-4.39,0.01c-1.1,0.04-0.36-1.2-2.38-2.07c-2.02-0.87-3.73-0.44-4.14-1.63c-0.41-1.19-0.93-4.02,0.01-6.94
	c0.94-2.93,2.92-3.05,2.92-3.05s-1.43,2.37-1.82,3.17c-0.39,0.8-0.21,2.85-0.12,5.26c0.09,2.42,3.05,1.78,3.41,1.77
	c0.37-0.01,0.15-0.16-0.08-2.26s0.56-3.39,0.56-3.39s0.44,3.35,0.47,5.77c0.04,2.42,2.1,1.76,2.95,1.89
	c0.84,0.13,3.47,0.4,4.05,0.59c0.58,0.19,2.38,2.12,3.27,2.3c0.9,0.18,2.83,0.21,3.83,0.38c1,0.17,2.22,0.6,2.56,1.38
	s3.17,0.83,4.43,0.94c1.26,0.11,6.78-1.94,6.78-1.94s-0.7-0.5-2.8-0.63c-2.1-0.13-2.33-0.91-4.84-0.77
	c-2.5,0.15-2.69-0.69-2.69-0.69l2.44-0.41c0,0,0.95,0.23,1.42,0.26c0.47,0.04,3.57,0.39,4.26,0.52c0.68,0.13,2.15,0.13,4.04,0.48
	c1.9,0.35,2.97-0.22,5.07-0.19c2.09,0.03,3.6-0.34,3.6-0.34s3.42-0.81,3.89-0.88c0.47-0.07,1.2,0.01,2.32,0.54
	c1.12,0.54,4.6-0.12,7-0.31c2.4-0.19,2.34-3.09,2.34-3.09s0.33-0.96-0.26-1.41c-0.59-0.45,0.21-2.01,0.21-2.01s0.61,0.82,0.97,2.07
	c0.36,1.25-0.46,3.09-0.23,2.93c0.23-0.17,3.55-3.08,3.75-5.27c0.21-2.19-2.22-1.97-2.05-2.97c0.17-1.01,1.53-1.06,1.53-1.06
	s-0.44,0.73-0.51,0.94c-0.07,0.21,1.92,2.43,1.93,2.74c0.01,0.32-0.11,1.95-0.37,2.72c-0.26,0.77-0.43,1.04-2.02,2.73
	c-1.59,1.69-1,1.14-2.01,1.5c-1.01,0.35-0.97,1.35-0.89,2.08C114.78,147.67,115,148.11,115.25,148.57L115.25,148.57z"/>
<path class="st74" d="M78.72,83.94c0.15-0.02,0.3-0.04,0.45-0.06c0.17,0.17,0.38,0.3,0.65,0.34c0.4,0.07,0.68-0.16,1-0.51
	c0.62-0.04,1.25-0.07,1.89-0.07c-0.9,0.38-1.48,0.88-1.34,1.57c0.51,2.51,1.72,1.2,1.2,4.27c-0.51,3.07-0.59,3.81,0.47,7.14
	c1.06,3.33,2.81,5.36,3.58,9.12c0.77,3.76-0.89,7.08,1.08,9.53c1.97,2.45,2.9,2,4.6,5.51c1.7,3.51,2.86,3.89,4.33,6.68
	c1.46,2.79,4.86,4.13,4.86,4.13s-1.11,1.15-3.14-0.09c-2.03-1.24-2.55-1.17-2.97-2.68c-0.42-1.51-0.58-2.82-2.2-4.23
	c-1.62-1.41-2.49-2.27-7.12-0.16c-4.63,2.12-6,1.8-7.71,2.23c-1.71,0.43-1.96-0.61-1.96-0.61s0.43,0.25,2.6-0.47
	c2.17-0.71,4.57-0.8,5.94-1.9c1.37-1.1,0.98-1.72,2.49-1.83c1.51-0.11,2.46,0.01,2.44-0.46c-0.02-0.47-1.61-2.57-1.61-2.57
	s-1.87-0.98-2.85-0.74c-0.98,0.25-0.35,0.43-3.18,0.28c-2.83-0.16-4.44-1.2-4.44-1.2s0.49-0.81,2.76-0.31
	c2.27,0.49,3.52,0.5,4.51,0.36c0.99-0.14,1.87-0.33,1.87-0.33s-1.13-0.96-1.53-3.1c-0.39-2.14,0.05-5.63-0.07-7.62
	c-0.13-1.99-1.23-3.48-1.47-4.47c-0.25-0.99-1.96-2.19-2-3.29c-0.04-1.1-1.24-0.9-2.49-0.85c-1.25,0.05-4.74,0.55-5.41,0.78
	c-0.67,0.24-4.62,2.38-4.62,2.38s-0.55,2.02-1.23,3.62c-0.67,1.6-2.61,4.36-2.27,3.77c0.34-0.59,1.75-3.59,2.01-5.12
	c0.26-1.53,0.43-2.65,0.43-2.65s-2.31,1.14-2.9,0.84c-0.59-0.29-0.41-2.51-0.41-2.51s0.06,1.58,0.84,1.49
	c0.78-0.08,2.83-1.16,2.83-1.16s0.93,1.02,1.42,0.26c0.5-0.76,3.07-1.96,4.47-2.27c1.4-0.32,1.87-0.39,3.59-0.5
	c1.72-0.12,2.95,0.47,3.08-0.22c0.13-0.69,0.36-1.49-0.17-3.15c-0.53-1.66-0.38-3.09-0.04-3.94c0.33-0.85,0.52-1.49,0.52-1.49
	l-1.9-1.82c0,0-0.14,0.58-0.54-0.51C78.91,84.93,78.8,84.41,78.72,83.94L78.72,83.94z"/>
<path class="st64" d="M61.74,137.86c0,0,0.04,6.84,16.25,6.76c16.21-0.08,39.27-1.57,34.23-4.85c-5.04-3.28-21.53-5.19-30.96-5.58
	C71.84,133.8,58.32,133.04,61.74,137.86L61.74,137.86z"/>
<path class="st74" d="M65.89,136.97c3.02-0.43,14.78-1.92,22.08,0.33c7.3,2.25,17.48,0.4,15.88,2.35c-1.6,1.95-9.12-0.5-12.73,0.79
	c-3.61,1.29-16.03,2.18-20.91,0.36C65.33,138.99,64.33,137.24,65.89,136.97L65.89,136.97z"/>
<path class="st75" d="M91.63,124.7c0,0,0.28,0.52,1.24,2.32c0.96,1.81,3.22,2.19,0.57,2.61c-2.65,0.41-6.72-0.75-10.31-0.09
	c-3.58,0.66-7.14,2-10.29,1.86c-3.14-0.15-5.64-2.63-7.73-2.45c-2.09,0.18-0.86-1.97,2.11-1.03c2.96,0.94,4.78,2.08,7.18,1.68
	C76.79,129.2,90.75,123.19,91.63,124.7L91.63,124.7z"/>
<path class="st75" d="M96.82,100.84c0,0,1.65,10.67,3.84,13.22c2.19,2.55,4.02,3.95,6.9,5.53c2.88,1.58,7.08,4.89,6.28,5.66
	c-0.81,0.77-1.95,3.86-7.05-1c-5.1-4.86-6.52-3.75-8.88-8.29c-2.36-4.54-1.09-4.06-1.79-8.77c-0.7-4.71-0.46-6.72-1.92-9.5
	C92.73,94.89,96.37,97.07,96.82,100.84L96.82,100.84z"/>
<path class="st75" d="M62.55,110.32c0,0,0.61,2.29,5.61,1.89c5.01-0.4,9.49-0.78,9.49-0.78s-0.98,1.82-4.83,2.28
	c-3.85,0.46-6.52-0.81-7.09,0.69c-0.57,1.49-3.31,1.07-2.29,3.24c1.02,2.17,8.09,3.7,6.65,4.49c-1.44,0.79-5.82-1.78-7.81-1.81
	c-1.99-0.03-2.7,3.36-3.3,1.28c-0.6-2.08-0.82-2.28,1.16-5.3C62.13,113.28,59.95,107.89,62.55,110.32L62.55,110.32z"/>
<path class="st72" d="M115.71,66.21c0,0,6.51-5.28,27.57-9.23c21.06-3.95,23.45-8.33,32.45,0.47c8.99,8.8,3.61,10.47,1.4,19.23
	c-2.21,8.76-0.42,19.63-7.06,31.39c-6.63,11.76-9.13,15.67-16.83,13.71c-7.7-1.96-3.83-7.05-17.41-7.91
	c-13.59-0.86-16.78-0.16-20.56-7.42C111.49,99.19,101.8,84.57,115.71,66.21L115.71,66.21z"/>
<path class="st74" d="M180.68,64.92c0.1,0.67,0.09,1.31-0.01,1.94c-0.54-0.28-1.04-1.02-1.48-0.88c-0.7,0.23-1.07,0.62-1.54,2.89
	c-0.46,2.27-1.24,5.54-2.34,6.51c-1.11,0.96-0.18,1.8-0.21,2.98c-0.03,1.19-1.35,6.65-1.76,9.1c-0.4,2.45,0.46,1.8,0.68,5.43
	c0.22,3.63-1.63,7.12-1.9,8.19c-0.27,1.07-1.74,1.56-2.7,2.57c-0.95,1-0.86,3.41-1.6,4.63c-0.74,1.22-2.56,0.97-3.62,3.03
	c-1.06,2.06-0.96,3.17-1.23,4.24c-0.27,1.07-1.24,0.01-2.64,1.71c-1.4,1.7-1.47,3.47-2.73,3.53c-1.26,0.06-4.09-0.23-6.62-1.96
	c-2.53-1.73-2.09-3.68-2.09-3.68s1.86,2.05,2.51,2.65c0.66,0.6,2.66,1,4.99,1.6c2.33,0.59,2.56-2.44,2.65-2.79
	c0.09-0.36-0.11-0.19-2.18-0.56c-2.07-0.36-3.08-1.49-3.08-1.49s3.32,0.52,5.64,1.17c2.32,0.65,2.27-1.53,2.63-2.31
	c0.36-0.78,1.36-3.23,1.7-3.74c0.34-0.51,2.69-1.7,3.11-2.51c0.42-0.81,1-2.67,1.44-3.59c0.45-0.92,1.2-1.97,2.04-2.08
	c0.84-0.11,1.68-2.82,2.14-4.01c0.46-1.18,0.06-7.09,0.06-7.09s-0.67,0.53-1.39,2.52c-0.72,1.99-1.53,2-2.09,4.45
	c-0.57,2.46-1.42,2.4-1.42,2.4l0.3-2.47c0,0,0.48-0.85,0.65-1.3c0.17-0.45,1.38-3.34,1.7-3.96c0.32-0.62,0.73-2.04,1.6-3.77
	c0.87-1.73,0.63-2.93,1.25-4.94c0.62-2.01,0.68-3.57,0.68-3.57s0.19-3.53,0.26-4c0.07-0.47,0.35-1.16,1.17-2.09
	c0.83-0.93,1.18-4.47,1.67-6.84c0.49-2.37-2.28-3.13-2.28-3.13s-0.82-0.59-1.42-0.15c-0.6,0.44-1.85-0.77-1.85-0.77
	s0.95-0.35,2.25-0.35c1.29,0,2.82,1.32,2.73,1.05c-0.09-0.27-1.94-4.29-3.97-5.11c-2.03-0.82-2.5,1.58-3.41,1.14
	c-0.91-0.45-0.58-1.77-0.58-1.77s0.57,0.63,0.75,0.76c0.18,0.13,2.86-1.17,3.16-1.09c0.3,0.08,1.83,0.66,2.49,1.12
	c0.66,0.47,0.87,0.71,2.04,2.72c1.17,2.01,0.81,1.29,0.86,2.36c0.05,1.07,1.02,1.32,1.74,1.45
	C179.68,65.11,180.16,65.03,180.68,64.92L180.68,64.92z"/>
<path class="st74" d="M108.72,81.96c0.02-0.15,0.04-0.3,0.06-0.45c0.21-0.12,0.39-0.28,0.51-0.53c0.18-0.37,0.04-0.71-0.2-1.11
	c0.13-0.61,0.29-1.22,0.47-1.84c0.1,0.98,0.43,1.68,1.12,1.73c2.53,0.21,1.63-1.32,4.41,0.04c2.78,1.36,3.47,1.64,6.94,1.55
	c3.47-0.09,5.91-1.2,9.71-0.88c3.8,0.32,6.51,2.85,9.4,1.64c2.89-1.21,2.72-2.23,6.55-2.88c3.83-0.65,4.52-1.67,7.59-2.29
	c3.07-0.63,5.31-3.53,5.31-3.53s0.78,1.39-0.97,3c-1.76,1.61-1.83,2.14-3.39,2.12c-1.56-0.02-2.85-0.24-4.66,0.93
	c-1.8,1.17-2.87,1.76-2.15,6.83c0.72,5.06,0.03,6.3-0.04,8.07c-0.07,1.77-1.13,1.72-1.13,1.72s0.36-0.34,0.29-2.64
	c-0.07-2.29,0.52-4.64-0.14-6.27c-0.67-1.63-1.36-1.43-1.04-2.92c0.32-1.49,0.71-2.37,0.25-2.48c-0.46-0.12-2.91,0.83-2.91,0.83
	s-1.46,1.52-1.5,2.54c-0.04,1.02,0.32,0.46-0.63,3.15c-0.95,2.69-2.4,3.94-2.4,3.94s-0.63-0.7,0.48-2.75
	c1.11-2.05,1.47-3.26,1.61-4.25c0.14-0.99,0.21-1.9,0.21-1.9s-1.23,0.82-3.39,0.6c-2.15-0.22-5.36-1.64-7.29-2.08
	c-1.94-0.44-3.66,0.2-4.68,0.16c-1.01-0.04-2.64,1.28-3.71,1.01c-1.06-0.27-1.21,0.94-1.52,2.16c-0.31,1.22-0.81,4.73-0.78,5.44
	c0.04,0.71,0.97,5.13,0.97,5.13s1.77,1.1,3.11,2.2c1.34,1.1,3.42,3.75,2.95,3.25c-0.47-0.5-2.93-2.7-4.32-3.38
	c-1.39-0.68-2.4-1.16-2.4-1.16s0.44,2.55-0.01,3.03c-0.45,0.48-2.51-0.31-2.51-0.31s1.52,0.39,1.66-0.39
	c0.14-0.78-0.31-3.06-0.31-3.06s1.23-0.61,0.65-1.3c-0.58-0.69-1-3.51-0.91-4.95c0.09-1.44,0.16-1.91,0.53-3.61
	c0.37-1.69,1.28-2.71,0.66-3.03c-0.62-0.32-1.32-0.77-3.05-0.72c-1.74,0.04-3.05-0.51-3.77-1.07c-0.72-0.56-1.28-0.92-1.28-0.92
	l-2.27,1.32c0,0,0.52,0.29-0.64,0.38C109.72,82.05,109.19,82.02,108.72,81.96L108.72,81.96z"/>
<path class="st64" d="M155.38,113.54c0,0,6.53,1.88,11.03-13.78c4.49-15.66,9.56-38.34,5.01-34.4c-4.55,3.94-11.02,19.31-14.04,28.3
	C154.35,102.65,149.82,115.48,155.38,113.54L155.38,113.54z"/>
<path class="st74" d="M155.7,109.28c0.44-3.03,2.33-14.8,6.54-21.21c4.21-6.41,5.31-16.76,6.72-14.66c1.41,2.1-3.05,8.66-2.83,12.51
	c0.21,3.85-2.44,16.08-5.55,20.27C157.47,110.38,155.52,110.86,155.7,109.28L155.7,109.28z"/>
<path class="st75" d="M151.24,80.98c0,0,0.57-0.13,2.56-0.54c1.99-0.41,3-2.49,2.65,0.19c-0.35,2.68-2.61,6.28-2.99,9.92
	c-0.38,3.64-0.1,7.46-1.13,10.45c-1.02,2.99-4.1,4.7-4.51,6.77c-0.41,2.06-2.12,0.27-0.38-2.32c1.73-2.59,3.34-4.03,3.62-6.45
	C151.35,96.57,149.56,81.4,151.24,80.98L151.24,80.98z"/>
<path class="st75" d="M129.94,69.25c0,0,10.64,1.41,13.69,0.02c3.05-1.39,4.9-2.76,7.22-5.1c2.32-2.34,6.66-5.46,7.17-4.46
	c0.5,1,3.13,2.97-2.94,6.52c-6.07,3.55-5.42,5.23-10.42,6.24c-5,1-4.18-0.09-8.87-0.74c-4.69-0.65-6.54-1.45-9.61-0.82
	C123.11,71.52,126.21,68.63,129.94,69.25L129.94,69.25z"/>
<path class="st75" d="M129.33,104.99c0,0,2.36,0.06,3.39-4.88c1.03-4.94,1.93-9.38,1.93-9.38s1.47,1.46,0.82,5.31
	c-0.65,3.85-2.61,6.06-1.34,7.03c1.26,0.97,0.09,3.49,2.45,3.12c2.36-0.37,5.8-6.76,6.15-5.15c0.35,1.61-3.34,5.11-3.93,7.02
	c-0.59,1.91,2.45,3.55,0.29,3.54c-2.16-0.01-2.41,0.14-4.73-2.62C132.04,106.23,126.28,106.82,129.33,104.99L129.33,104.99z"/>
<path class="st74" d="M130.28,64.34c0.7-0.51,4.8-2.27,6.98-1.87c2.18,0.4,3.37,0.12,4.06-0.72c0.69-0.83-0.18-0.56,1.15-1.33
	c1.33-0.77,1.23-1.42,3.39-1.5c2.16-0.08,2.61,1.35,5.22,0.29c2.6-1.06,2.77-0.99,4.82-1.95c2.05-0.96,3.81-0.95,5.24-1.24
	c1.43-0.29,4.21-0.88,3.92-0.15c-0.29,0.74-3.17,3.18-0.99,5.6c2.17,2.42,3.46,4.87,2.53,5.63c-0.93,0.76-5.26,3.43-5.62,4.87
	c-0.37,1.45-4.7-1.39-4.7-1.39s-2.24-1-3.55,0.5c-1.31,1.5-3.53,4.08-3.53,4.08s1.03-4.71,2.68-5.58c1.65-0.87,2.12-1.29,4.13-0.96
	c2.01,0.33,2.72,1.99,3.35,1.73c0.63-0.27,2.19-1.53,3.58-2.87c1.39-1.34,2.6-1.14,1.83-2.4c-0.77-1.26-2.64-2.08-2.68-3.04
	c-0.04-0.97-0.23-3.94-0.23-3.94l-4.17-0.17c0,0-3.53,1.9-4.09,2.09c-0.55,0.18-4.14,0.8-4.14,0.8s-2.81,1.96-3.67,2.55
	c-0.86,0.6-3.12,3.08-1.27,0.29c1.84-2.79,2.02-4.49,0.73-3.48c-1.3,1.01-1.9,1.92-3.08,2.77c-1.17,0.85-2.93,0.83-3.97,0.87
	c-1.04,0.04-2.32,0.09-2.32,0.09s-1.61-0.26-2.39,0.33c-0.78,0.59-1.86,1.6-1.86,1.6s-2.63,0.5-3.35,0.37
	c-0.73-0.13-1.74-1.55-1.36-2.2c0.38-0.66,1.07-1.99,3.09-2.65c2.02-0.66,5.65-0.9,5.65-0.9s-5.42,2.24-6.22,2.99
	C128.63,64.19,130.28,64.34,130.28,64.34L130.28,64.34z"/>
<path class="st71" d="M109.41,63.14c0,0,10.1,7.3,28.06,3.48c17.95-3.83,22.18-8.4,22.31-7.78c0.13,0.63,2.24,1.28-0.77,4.66
	c-3.01,3.37-13.44,9.86-28.11,9.15c-14.67-0.71-22.34-7.37-22.34-7.37L109.41,63.14L109.41,63.14z"/>
<path class="st3" d="M83.28,77.32c2.3-0.09,35.93,12.75,50.15,12.64c14.22-0.11,17.27,0.41,15.97,2.03
	c-1.3,1.63-0.25,4.43-15.27,2.78c-15.02-1.65-33.15-5.39-41.85-8.64c-8.7-3.25-11.31-5.99-11.31-5.99L83.28,77.32L83.28,77.32z"/>
<path class="st76" d="M90.06,64.9c1.62,0.96,14.58,20.84,31.23,30.8c16.65,9.96,20.54,9.26,20.05,10.43
	c-0.48,1.17-1.64,3.64-2.48,3.44c-0.84-0.2-15.68-5.2-29.51-16.77C95.55,81.25,87,66.98,87,66.98L90.06,64.9L90.06,64.9z"/>
<path class="st71" d="M163.69,101.63c0,0-10.29,13.11-13.46,15.02c-3.17,1.91,1.83,4.14,3.04,2.94c1.21-1.2,9.87-7.42,13.47-14.7
	c3.6-7.29,2.39-5.98,2.39-5.98l-4.19-0.05L163.69,101.63L163.69,101.63z"/>
<path class="st77" d="M66.88,53.41c-1.41,0-11.29-1.31-14.49-1.56c-3.2-0.25-8.32,1.2-8.32,1.2s-3.86,7.3-3.72,8.34
	c0.14,1.05,2.67-4.04,5.01-5.97c2.33-1.93,13.04-2.33,18-1.15S69.34,53.69,66.88,53.41L66.88,53.41z"/>
<path class="st65" d="M113.91,162.06c0.27-0.9,0.96-1.67,1.81-1.49c0.85,0.13-1.78,2.43-3.55,3.6c-1.77,1.17-2.89,1.63-4.1,1.68
	c-1.2,0.05-3.07,0.06-2.62-0.64c0.46-0.7,0.72-0.08,2.88-0.48C110.49,164.34,113.91,162.06,113.91,162.06L113.91,162.06z
	 M87.35,159.82c2.29-1.66,1.46-1.37,4.46-1.8c3-0.43,2.52-1.88,4.25-2.53c1.72-0.64,0.87-0.93,3.46-1.02
	c2.59-0.1,1.78,0.83,4.93-0.45c3.15-1.27,4.65-3.12,4.8-2.39c0.15,0.73-0.74,1.08-1.85,2.03c-3.08,1.59-7.68,0.97-9.75,2.15
	c-2.07,1.18-3.21,2.96-5.37,3.25c-2.16,0.29-2.79-0.32-3.36,0.34C88.33,160.07,84.89,161.83,87.35,159.82L87.35,159.82z
	 M91.99,161.3c0,0-0.04,1.81,0.36,2.53c0.4,0.73,0.84,1.08,1.04,0.79c0.2-0.29-0.46-2.48,0.35-2.1c0.81,0.39,0.09,2.36,0.97,1.86
	c0.88-0.5,1.98-0.95,2.91-1.59c0.93-0.64,0.78-0.31,2.09-1.53c0.45-0.91,1.87-0.12,2.39-0.72c0.52-0.6,0.61-1.55,0.44-2.7
	c-0.16-1.15,0.34-2.12,0.63-0.92c0.29,1.2,0.56,3.82,1.06,2.64c0.5-1.18,0.63-2.65,2.14-2.6c1.51,0.05,2.06,0.4,2.65,0.01
	c0.59-0.39-2.13-0.55,1.24-0.84c3.37-0.28,3.31-0.18,3.93-1.36c0.62-1.18,0.23-2.06,0.98-1.14c0.76,0.92,1.75,1.67,2.79,0.47
	c1.04-1.2,2.82-3.52,2.34-1.93c-0.48,1.6-4.09,3.57-4.58,3.33c-0.49-0.24-1.08,0.04-1.66,0.85c-0.57,0.81-3.32,1.44-4.76,1.65
	c-1.44,0.21-2.29-1.54-2.45,0.56c-0.16,2.11-1.29,0.89-1.76,1.38c-0.46,0.49-4.97,0.97-3.6,2.24c1.37,1.26,1.32,1.37,0.17,1.36
	c-1.15-0.01-3.88,0.93-3.19,1.75c0.69,0.82,0.51,2.4,0.51,2.4s-1.34,1.15-1.34-0.42c0-1.58-0.04-2.68-0.04-2.68s0.09-0.95,1.11-1.09
	c1.02-0.14,2.38-0.88,1.89-1.12c-0.49-0.24-2.76,0.47-3.8,1.67c-1.04,1.2-1.58,1.27-1.58,1.27s-1.21-0.11-1.49,0.42
	c-0.28,0.54-0.66,0.18-1.32,0.15c-0.66-0.03-0.72,1.6-1.59,0.95c-0.87-0.65-3.12,0.33-2.09-1.08c1.03-1.41-0.35-1.35-0.37-1.83
	c-0.02-0.47,0.1-3.74,0.69-2.55c0.59,1.19,0.45,4.03,1.46,3.73C91.52,164.84,91.19,160.96,91.99,161.3L91.99,161.3z"/>
<path class="st65" d="M145.08,49.3c0.27-0.9,0.96-1.67,1.81-1.49c0.85,0.13-1.78,2.43-3.55,3.6c-1.77,1.17-2.89,1.63-4.1,1.68
	c-1.2,0.04-3.07,0.06-2.62-0.64c0.46-0.7,0.72-0.08,2.88-0.48C141.67,51.58,145.08,49.3,145.08,49.3L145.08,49.3z M118.53,47.07
	c2.29-1.66,1.46-1.37,4.46-1.8c3-0.43,2.52-1.88,4.25-2.53c1.73-0.64,0.87-0.93,3.46-1.02c2.59-0.1,1.78,0.83,4.93-0.45
	c3.15-1.27,4.65-3.12,4.8-2.39c0.15,0.73-0.74,1.08-1.85,2.03c-3.08,1.59-7.68,0.97-9.75,2.15c-2.07,1.18-3.21,2.96-5.37,3.25
	c-2.16,0.29-2.79-0.32-3.36,0.34C119.5,47.31,116.07,49.07,118.53,47.07L118.53,47.07z M123.17,48.54c0,0-0.04,1.81,0.36,2.53
	c0.4,0.73,0.84,1.08,1.04,0.79c0.2-0.29-0.46-2.48,0.35-2.1c0.81,0.39,0.09,2.36,0.97,1.86c0.88-0.5,1.98-0.95,2.91-1.59
	c0.93-0.64,0.78-0.31,2.09-1.53c0.45-0.91,1.87-0.12,2.39-0.72c0.52-0.6,0.61-1.55,0.44-2.7c-0.16-1.15,0.34-2.12,0.63-0.92
	c0.29,1.2,0.56,3.82,1.06,2.64c0.5-1.18,0.63-2.65,2.13-2.6c1.51,0.05,2.06,0.4,2.65,0.01c0.59-0.39-2.13-0.55,1.24-0.84
	c3.37-0.28,3.31-0.18,3.93-1.36c0.62-1.18,0.23-2.06,0.98-1.14c0.76,0.92,1.75,1.67,2.79,0.47c1.04-1.2,2.82-3.52,2.34-1.93
	c-0.48,1.6-4.09,3.57-4.58,3.33c-0.49-0.24-1.08,0.04-1.66,0.85c-0.57,0.81-3.32,1.44-4.76,1.65c-1.44,0.21-2.29-1.54-2.45,0.56
	c-0.16,2.11-1.29,0.89-1.76,1.38c-0.46,0.49-4.97,0.97-3.6,2.24c1.37,1.26,1.32,1.37,0.17,1.36c-1.15-0.01-3.88,0.93-3.19,1.75
	c0.69,0.82,0.51,2.4,0.51,2.4s-1.34,1.15-1.34-0.42c0-1.58-0.04-2.68-0.04-2.68s0.09-0.95,1.11-1.09c1.02-0.14,2.38-0.88,1.89-1.12
	c-0.49-0.24-2.76,0.47-3.8,1.67c-1.04,1.2-1.58,1.27-1.58,1.27s-1.21-0.11-1.49,0.42c-0.28,0.54-0.66,0.18-1.32,0.15
	c-0.66-0.03-0.72,1.6-1.59,0.95c-0.87-0.65-3.12,0.33-2.09-1.08c1.03-1.41-0.35-1.35-0.37-1.83c-0.02-0.47,0.1-3.74,0.69-2.55
	c0.59,1.19,0.45,4.03,1.46,3.73C122.7,52.08,122.37,48.2,123.17,48.54L123.17,48.54z"/>
<path class="st75" d="M86.12,29.03c0.47,0.14,0.94,0.28,1.41,0.42c-0.29,0.38-0.4,0.54-1,0.31C86.14,29.62,86.04,29.35,86.12,29.03
	L86.12,29.03z M98.68,33.91c0.83,0.41,1.64,0.83,2.45,1.26c-0.3,0.26-0.65,0.57-1.07,0.93c-2.56,2.22-0.94,0-1.77,0.01
	c-0.84,0.01-0.81,0.81-1.76,2c-0.95,1.19-2.72-0.34-4.39-1.25c-1.67-0.91,1.13,2.17,2.31,3.7c1.18,1.53-0.26,0.85-1.47-0.53
	c-1.2-1.38-2.34-2.36-3.37-2.63c-1.03-0.26-1.07,1.67-2.41,1c-2.26-0.36-1.79-0.1-3.13-0.1c-1.35,0-2.6,0.33-3.75,0.45
	c-1.15,0.12,1.57,1.74,1.48,2.77c-0.1,1.03-2.16-1.88-2.62-2.04c-0.46-0.16-0.35,0.56,0.21,1.65c0.56,1.09,2.65,3.05,2.65,3.05
	c-0.14,0.97-4.35-3.53-5.37-3.1c-1.02,0.43,2.32,3.45,3.28,5.19c0.96,1.74-2.84-1.75-3.37-2.28c-0.53-0.53,0.45-1.52-1.84-2.28
	c-2.29-0.76,0.33-1.39,0.16-2.75c-0.16-1.37,1.74,0.38,2.15-0.15c0.41-0.53,0.26-1.2,1.06-0.82c0.8,0.38,1.48-0.66,1.48-0.66
	s0.44-0.33,2.5,0.2c2.06,0.53,4.38-0.39,4.43-1.03c0.05-0.64-1.69-0.42-2.54,0.19c-0.84,0.61-1.98-0.37-1.98-0.37
	s-1.23-1.24-3.03-2.97c-1.8-1.73,0.41-1.47,0.41-1.47s1.93,1.6,2.4,3.02c0.47,1.42,3.37,0.39,4.12-0.48
	c0.75-0.87,0.91-0.8,1.44,1.62c0.53,2.42,4.08-0.44,4.95-0.25c0.87,0.19,0.23-2,2.74,0.19c2.51,2.19,1.08-0.37,2.28-1.22
	C97.64,34.51,98.13,34.2,98.68,33.91L98.68,33.91z M80.61,49.29c3.42,0.1,2.53,0.41,5.01-1.38c2.48-1.79,3.83,0.17,5.71-0.43
	c1.88-0.59,1.64,0.36,3.47-1.48c1.83-1.84,0.24-2.25,3.79-3.21c3.55-0.97,6.65-0.08,5.92-0.99c-0.73-0.91-1.73-0.62-3.55-0.84
	c-3.86,0.57-6.22,4.71-8.94,4.97c-2.72,0.26-5.51-0.83-7.28,0.47c-1.77,1.3-1.49,2.44-2.62,2.16C80.99,48.29,76.7,48.94,80.61,49.29
	L80.61,49.29z"/>
<path class="st64" d="M110.8,29.53c0,0,3.61-1.29,2.87,6.94c-0.74,8.23-3.35,11.17-4.26,17.73c-0.91,6.56-4.55,9.95-5.59,1.47
	c-1.05-8.48-0.69-13.02,1.93-18.48C108.37,31.73,110.8,29.53,110.8,29.53L110.8,29.53z"/>
<path class="st69" d="M111.59,33.92c0.25,1.04,1.58,3.1-0.41,8.64c-1.99,5.54-2.02,16.06-3.65,11.71
	c-1.63-4.36-0.58-10.08,0.75-13.6C109.62,37.15,110.61,32.7,111.59,33.92L111.59,33.92z"/>
<path class="st74" d="M100.83,55.2c0,0-0.2,0.32-3.78-0.38c-3.58-0.71-5.6-0.16-6.17-0.08c-0.57,0.07-2.34,0.51-3.87-0.07
	c-1.54-0.57-2.08-1.03-3.33-0.98c-1.25,0.05-2.09,0.08-2.87,0.05c-0.79-0.02-1.85-0.67-2.7-1c-0.85-0.34-1.81-0.93-1.81-0.93
	s-3.9-2.22-3.01-3.57c0.89-1.35,0.27-2.64,0.27-2.64s-0.63-1.61-0.75-1.92c-0.12-0.31-1-0.07-0.75,1.03
	c0.25,1.1,0.15,2.62,0.15,2.62l-1.45,1.79c0,0,1.05,0.07,1.5,0.84c0.45,0.77-0.43,1.78,1.31,1.91c1.74,0.13,1.9,0.28,1.93,0.91
	c0.02,0.63-2.17,2.13-2.67,2.78c-0.5,0.65-1.15,2.78-0.93,3.14c0.22,0.36,0.76-0.66,1.19-1.78c0.43-1.12,1.37-1.1,2.02-1.97
	c0.65-0.87,0.58,1.45,0.59,1.82c0.01,0.37,0.02,0.42,0.1,1.31c0.09,0.89,1.06,0.43,1.02-0.72c-0.04-1.16-1.14-2.48-0.64-3.08
	c0.5-0.6-0.08-0.89,0.93-0.19c1.02,0.7,0.45,0.77,2.34,0.91c1.89,0.14,2.68,0.22,3.72,0.18c1.04-0.04,2.61-0.04,3.43,0.71
	c0.81,0.76,0.86,2.02,1.32,3.16c0.46,1.14,2.11,1.87,2.11,1.87s-1.25-1.27-1.34-2.37c-0.09-1.1-0.22-1.62,0.08-2.05
	c0.3-0.43,0.19-0.59,0.87-0.51c0.68,0.08,0.68,0.08,1.41,0.05c0.73-0.03,1.2-0.1,2.08-0.39c0.88-0.3,3.37,0.56,3.37,0.56
	s2.36-1.19,2.1,0.08c-0.27,1.27-1.88,2.23-1.67,3.01c0.21,0.77-0.4,3.28,0.7,3.29c1.1,0.01,1.87-0.28,0.9-1.14
	c-0.97-0.86-0.82-2.11-0.82-2.11l1.73-1.66c0,0,1.23,0.74,2.16,1.76c0.93,1.02,1.24,2.48,2.25,2.76c1,0.28,1.38,0.63,2.41,0.12
	c1.03-0.51,1.32-1.21,1.32-1.21s-1.14,0.31-2.18,0.34c-1.04,0.04-2.73-1.74-3.29-2.72c-0.56-0.98-2.57-1.74-2.27-2.12
	C100.08,56.23,102.7,56.24,100.83,55.2L100.83,55.2z"/>
<path class="st76" d="M67.64,89.4c1.86,0.32,20.98,14.29,40.06,17.68c19.08,3.38,22.47,1.34,22.43,2.61
	c-0.04,1.27-0.25,3.99-1.1,4.1c-0.85,0.11-16.5,0.73-33.5-5.17c-17-5.89-30.02-16.19-30.02-16.19L67.64,89.4L67.64,89.4z"/>
<path class="st78" d="M93.5,65.69c0.12-0.49-0.55-1.07-1.49-1.3c-0.94-0.23-1.81-0.03-1.93,0.46c-0.12,0.49,0.55,1.07,1.49,1.3
	C92.52,66.38,93.38,66.18,93.5,65.69L93.5,65.69z M120.14,75.76c0.12-0.49-0.55-1.07-1.49-1.3c-0.94-0.23-1.81-0.03-1.93,0.46
	c-0.12,0.49,0.55,1.07,1.49,1.3C119.16,76.45,120.02,76.25,120.14,75.76L120.14,75.76z M130.79,91.96c0.35,0.35,1.19,0.08,1.88-0.62
	c0.68-0.69,0.95-1.54,0.6-1.9c-0.35-0.35-1.2-0.08-1.88,0.62C130.71,90.75,130.44,91.6,130.79,91.96L130.79,91.96z M110.28,97.95
	c0.35,0.35,1.2,0.08,1.88-0.62c0.68-0.69,0.95-1.54,0.6-1.89c-0.35-0.35-1.2-0.08-1.88,0.62C110.19,96.75,109.92,97.6,110.28,97.95
	L110.28,97.95z M104.89,107.65c0.15,0.48-0.47,1.11-1.39,1.41c-0.92,0.3-1.8,0.16-1.95-0.31c-0.15-0.48,0.47-1.11,1.39-1.41
	C103.86,107.04,104.74,107.18,104.89,107.65L104.89,107.65z M88.12,110.19c0.33-0.38,1.19-0.16,1.92,0.48
	c0.73,0.64,1.06,1.47,0.74,1.85c-0.33,0.38-1.19,0.16-1.92-0.48C88.13,111.4,87.8,110.57,88.12,110.19L88.12,110.19z M96.48,93.72
	c0.49,0.1,0.72,0.96,0.53,1.92c-0.2,0.96-0.75,1.65-1.24,1.55c-0.49-0.1-0.72-0.96-0.53-1.92C95.43,94.32,95.99,93.62,96.48,93.72
	L96.48,93.72z M124.62,63.76c0.12-0.49-0.55-1.07-1.49-1.3c-0.94-0.23-1.81-0.03-1.92,0.46c-0.12,0.49,0.55,1.07,1.49,1.3
	C123.64,64.45,124.5,64.25,124.62,63.76L124.62,63.76z M100.68,82.81c0.35,0.35,1.2,0.08,1.88-0.62c0.68-0.69,0.95-1.54,0.6-1.9
	c-0.35-0.35-1.2-0.08-1.88,0.62C100.6,81.61,100.33,82.46,100.68,82.81L100.68,82.81z M91.84,81.53c0.48-0.14,0.65-1.01,0.38-1.95
	c-0.27-0.94-0.87-1.59-1.35-1.45c-0.48,0.14-0.65,1.01-0.38,1.95C90.75,81.02,91.36,81.67,91.84,81.53L91.84,81.53z"/>
<path class="st78" d="M110.38,77.15c0.12-0.49-0.55-1.07-1.49-1.3c-0.94-0.23-1.81-0.03-1.93,0.46c-0.12,0.49,0.55,1.07,1.49,1.3
	C109.4,77.84,110.26,77.64,110.38,77.15L110.38,77.15z M137.02,87.22c0.12-0.49-0.55-1.07-1.49-1.3c-0.94-0.23-1.81-0.03-1.93,0.46
	c-0.12,0.49,0.55,1.07,1.49,1.3C136.04,87.91,136.9,87.71,137.02,87.22L137.02,87.22z M147.68,103.42c0.35,0.35,1.2,0.08,1.88-0.62
	c0.68-0.69,0.95-1.54,0.6-1.9c-0.35-0.35-1.19-0.08-1.88,0.62C147.59,102.22,147.32,103.06,147.68,103.42L147.68,103.42z
	 M127.16,109.42c0.35,0.35,1.2,0.08,1.88-0.62c0.68-0.69,0.95-1.54,0.6-1.89c-0.35-0.35-1.2-0.08-1.88,0.62
	C127.08,108.21,126.81,109.06,127.16,109.42L127.16,109.42z M121.78,119.11c0.15,0.48-0.47,1.11-1.39,1.41
	c-0.92,0.3-1.8,0.16-1.95-0.31c-0.15-0.48,0.47-1.11,1.39-1.41C120.75,118.5,121.62,118.64,121.78,119.11L121.78,119.11z
	 M105.01,121.65c0.33-0.38,1.19-0.16,1.92,0.48c0.73,0.64,1.06,1.47,0.74,1.85c-0.33,0.38-1.19,0.16-1.92-0.48
	C105.01,122.86,104.68,122.03,105.01,121.65L105.01,121.65z M113.36,105.18c0.49,0.1,0.72,0.96,0.53,1.92
	c-0.2,0.96-0.75,1.65-1.24,1.55c-0.49-0.1-0.72-0.96-0.53-1.92C112.32,105.78,112.87,105.08,113.36,105.18L113.36,105.18z
	 M141.51,75.22c0.12-0.49-0.55-1.07-1.49-1.3c-0.94-0.23-1.81-0.03-1.93,0.46c-0.12,0.49,0.55,1.07,1.49,1.3
	C140.53,75.91,141.39,75.71,141.51,75.22L141.51,75.22z M117.57,94.27c0.35,0.35,1.2,0.08,1.88-0.62c0.68-0.69,0.95-1.54,0.6-1.89
	c-0.35-0.35-1.2-0.08-1.88,0.62C117.48,93.07,117.22,93.92,117.57,94.27L117.57,94.27z M108.72,92.99c0.48-0.14,0.65-1.01,0.38-1.95
	c-0.27-0.94-0.87-1.59-1.35-1.45c-0.48,0.14-0.65,1.01-0.38,1.95C107.64,92.48,108.24,93.13,108.72,92.99L108.72,92.99z"/>
<path class="st78" d="M72.14,62.56c0.12-0.49-0.55-1.07-1.49-1.3c-0.94-0.23-1.81-0.03-1.92,0.46c-0.12,0.49,0.55,1.07,1.49,1.3
	C71.16,63.25,72.02,63.04,72.14,62.56L72.14,62.56z M98.78,72.63c0.12-0.49-0.55-1.07-1.49-1.3c-0.94-0.23-1.81-0.03-1.93,0.46
	c-0.12,0.49,0.55,1.07,1.49,1.3C97.8,73.32,98.67,73.11,98.78,72.63L98.78,72.63z M109.44,88.82c0.35,0.35,1.2,0.08,1.88-0.62
	c0.68-0.69,0.95-1.54,0.6-1.9c-0.35-0.35-1.2-0.08-1.88,0.62C109.35,87.62,109.08,88.47,109.44,88.82L109.44,88.82z M88.93,94.82
	c0.35,0.35,1.19,0.08,1.88-0.62c0.68-0.69,0.95-1.54,0.6-1.9c-0.35-0.35-1.2-0.08-1.88,0.62C88.84,93.62,88.57,94.47,88.93,94.82
	L88.93,94.82z M83.54,104.52c0.15,0.48-0.47,1.11-1.39,1.41c-0.92,0.3-1.8,0.16-1.95-0.31c-0.15-0.48,0.47-1.11,1.39-1.41
	C82.51,103.9,83.38,104.04,83.54,104.52L83.54,104.52z M66.77,107.06c0.33-0.38,1.19-0.16,1.92,0.48c0.73,0.64,1.06,1.47,0.74,1.85
	c-0.33,0.38-1.19,0.16-1.92-0.48C66.78,108.26,66.45,107.44,66.77,107.06L66.77,107.06z M75.12,90.59c0.49,0.1,0.72,0.96,0.53,1.92
	c-0.2,0.96-0.75,1.65-1.24,1.55c-0.49-0.1-0.72-0.96-0.53-1.92C74.08,91.18,74.64,90.49,75.12,90.59L75.12,90.59z M103.27,60.63
	c0.12-0.49-0.55-1.07-1.49-1.3c-0.94-0.23-1.81-0.03-1.92,0.46c-0.12,0.49,0.55,1.07,1.49,1.3
	C102.29,61.32,103.15,61.11,103.27,60.63L103.27,60.63z M79.33,79.68c0.35,0.35,1.2,0.08,1.88-0.62c0.68-0.69,0.95-1.54,0.6-1.89
	c-0.35-0.35-1.2-0.08-1.88,0.62C79.25,78.48,78.98,79.33,79.33,79.68L79.33,79.68z M70.48,78.4c0.48-0.14,0.65-1.01,0.38-1.95
	c-0.27-0.94-0.87-1.59-1.35-1.45c-0.48,0.14-0.65,1.01-0.38,1.95C69.4,77.88,70.01,78.53,70.48,78.4L70.48,78.4z"/>
<path class="st78" d="M86.98,89.33c0.12-0.49-0.55-1.07-1.49-1.3c-0.94-0.23-1.81-0.03-1.92,0.46c-0.12,0.49,0.55,1.07,1.49,1.3
	C86,90.02,86.86,89.82,86.98,89.33L86.98,89.33z M113.62,99.41c0.12-0.49-0.55-1.07-1.49-1.3c-0.94-0.23-1.81-0.03-1.92,0.46
	c-0.12,0.49,0.55,1.07,1.49,1.3C112.64,100.1,113.51,99.89,113.62,99.41L113.62,99.41z M124.28,115.6c0.35,0.35,1.19,0.08,1.88-0.62
	c0.68-0.69,0.95-1.54,0.6-1.9c-0.35-0.35-1.19-0.08-1.88,0.62C124.19,114.4,123.92,115.25,124.28,115.6L124.28,115.6z M103.77,121.6
	c0.35,0.35,1.19,0.08,1.88-0.62c0.68-0.69,0.95-1.54,0.6-1.89c-0.35-0.35-1.19-0.08-1.88,0.62
	C103.68,120.4,103.41,121.24,103.77,121.6L103.77,121.6z M98.38,131.3c0.15,0.48-0.47,1.11-1.39,1.41c-0.92,0.3-1.8,0.16-1.95-0.31
	c-0.15-0.48,0.47-1.11,1.39-1.41C97.35,130.68,98.22,130.82,98.38,131.3L98.38,131.3z M81.61,133.84c0.33-0.38,1.19-0.16,1.92,0.48
	c0.73,0.64,1.06,1.47,0.74,1.85c-0.33,0.38-1.19,0.16-1.92-0.48C81.62,135.04,81.29,134.21,81.61,133.84L81.61,133.84z
	 M89.96,117.37c0.49,0.1,0.72,0.96,0.53,1.92c-0.2,0.96-0.75,1.65-1.24,1.55c-0.49-0.1-0.72-0.96-0.52-1.92
	C88.92,117.96,89.48,117.26,89.96,117.37L89.96,117.37z M118.11,87.41c0.12-0.49-0.55-1.07-1.49-1.3c-0.94-0.23-1.81-0.03-1.92,0.46
	c-0.12,0.49,0.55,1.07,1.49,1.3C117.13,88.1,117.99,87.89,118.11,87.41L118.11,87.41z M94.17,106.46c0.35,0.35,1.2,0.08,1.88-0.62
	c0.68-0.69,0.95-1.54,0.6-1.89c-0.35-0.35-1.2-0.08-1.88,0.62C94.09,105.25,93.82,106.1,94.17,106.46L94.17,106.46z M85.32,105.18
	c0.48-0.14,0.65-1.01,0.38-1.95c-0.27-0.94-0.87-1.59-1.35-1.45c-0.48,0.14-0.65,1.01-0.38,1.95
	C84.24,104.66,84.85,105.31,85.32,105.18L85.32,105.18z"/>
<polygon class="st31" points="103.72,73.07 110.4,66.63 122.56,66.04 114.73,73.47 103.72,73.07 "/>
<path class="st56" d="M122.88,91.46l5.11-17.26l4.55,6.05l-5.28,17.3C127.26,97.55,122.9,91.52,122.88,91.46L122.88,91.46z"/>
<path class="st56" d="M75.81,110.29l5.11-17.26l4.55,6.05l-5.28,17.3C80.19,116.39,75.84,110.36,75.81,110.29L75.81,110.29z"/>
<polygon class="st31" points="90.97,120.02 97.65,113.58 109.82,112.99 101.98,120.42 90.97,120.02 "/>
<path class="st56" d="M142.87,79.53l14.24,6.6l-5.78,3.21l-14.26-6.75C137.07,82.59,142.81,79.54,142.87,79.53L142.87,79.53z"/>
<path class="st56" d="M88.79,83.8l14.24,6.6l-5.78,3.21L83,86.86C83,86.86,88.74,83.81,88.79,83.8L88.79,83.8z"/>
<path class="st74" d="M156.7,35.79c0,0,5.44,1.89,6.04,2.92c0.6,1.03,0.18,2.81,1.75,3.88c1.56,1.07,0.14,1.61,2.36,3.21
	c2.22,1.61,2.21,1.37,3.22,2.7c1.01,1.33,1.51,1.96,1.04,2.06c-0.48,0.1-4.41,0-5.06-0.29c-0.65-0.3-4.58-2.41-4.61-3.45
	c-0.04-1.05-1.67-1.79-1.94-2.59s-2.57-2.24-3.04-2.06c-0.47,0.18,1.48-3.44,2.66-1.79c1.18,1.65,2.47,3.94,2.47,3.94
	s1.08-3.42-0.33-4.66c-1.41-1.24-6.02-0.42-6.87-1.76C153.52,36.55,156.7,35.79,156.7,35.79L156.7,35.79z"/>
<path class="st74" d="M63.07,76.42c0,0-0.24,3.35-2.7,4.93c-2.47,1.58-4.37,3.26-5.32,3.58c-0.95,0.32-2.41-0.15-3.47,0.53
	c-1.06,0.68-1.68,1.23-1.7,1.71c-0.02,0.48,0.45,0.29,2.35-0.32c1.9-0.61,5.44-0.3,6.24-1.25c0.81-0.96,2.91-3.49,4.86-6.14
	C65.29,76.82,63.07,76.42,63.07,76.42L63.07,76.42z"/>
<path class="st75" d="M112.27,25.96c0,0-1.83,0.39-3.85,1.96c-2.03,1.57-2.8,2.2-3.16,3.3c-0.36,1.1-1.82,2.77-1.67,2.52
	c0.15-0.25,0.82-1.72,1.03-2.54c0.21-0.81-0.1-1.69,0.83-2.49c0.93-0.8,1.83-1.36,2.77-1.92c0.94-0.56,1.4-1.06,1.4-1.06
	s-1-0.04-1.28-0.03c-0.28,0.01-2.83-0.62-2.83-0.62s-1.45,0.82-2.08,1.21c-0.63,0.39-0.78,0.59-1.78,0.67c-1,0.08-1.71,0.31-2,1.2
	c-0.29,0.9-0.42,1.67-1.17,2.06c-0.75,0.39-1.81,0.79-1.81,0.79s1.41-0.78,1.77-2.08c0.16-0.6,0.23-1.09,0.31-1.47
	c-0.28,0.18-0.57,0.38-0.86,0.61c-2.02,1.57-2.8,2.2-3.16,3.3c-0.36,1.1-1.82,2.77-1.67,2.52c0.15-0.25,0.82-1.72,1.03-2.54
	c0.21-0.81-0.1-1.69,0.83-2.49c0.93-0.8,1.83-1.36,2.77-1.92c0.94-0.56,1.4-1.06,1.4-1.06s-1-0.04-1.28-0.03
	c-0.28,0.01-2.83-0.62-2.83-0.62s-1.45,0.82-2.08,1.21c-0.63,0.39-0.78,0.59-1.78,0.67c-1,0.08-1.71,0.31-2,1.2
	c-0.29,0.9-0.42,1.67-1.17,2.06c-0.75,0.39-1.81,0.79-1.81,0.79s1.41-0.78,1.77-2.08c0.35-1.3,0.24-2.06,0.83-2.41
	c0.59-0.34,0.98-0.64,1.78-0.71c0.8-0.07,1.37,0.11,1.79-0.47c0.42-0.58,0.17-0.85,0.48-0.98c0.32-0.13,1.31-0.37,3.36-0.04
	c1.45,0.23,3.63,0.95,4.79,1.36l0.1-0.01c0.8-0.07,1.37,0.11,1.79-0.47c0.42-0.58,0.17-0.85,0.48-0.98
	c0.32-0.13,1.31-0.37,3.36-0.04C108.74,24.64,112.27,25.96,112.27,25.96L112.27,25.96z"/>
<path class="st64" d="M92.63,155.67c0,0-15.05-2.94-16.68-2.63c-1.63,0.3-1.57,0.98-3.2,3.26c-1.64,2.28-1.93,3.09-1.22,3.83
	c0.71,0.74,5.62,3.14,5.62,3.14s3.25-2.71,7.19-3.92C88.27,158.13,92.85,156.19,92.63,155.67L92.63,155.67z"/>
<path class="st77" d="M183.34,87.15c0,0,0.74,0.54,1.17,5.76c0.43,5.22-0.75,5.83-0.9,10.43c-0.15,4.6-0.37,7.26-0.91,9.94
	c-0.54,2.68-0.79,4.7-1.55,3.52c-0.76-1.18-5.61-2.21-3.84-4.21c1.77-2,0.27,1.44,2.33-0.49c2.06-1.93,1.6-5.86,2.39-10.32
	c0.8-4.46,1.79-7.88,0.79-11.07C181.84,87.53,182.38,85.01,183.34,87.15L183.34,87.15z"/>
<path class="st78" d="M120.04,104.34c0.12-0.49-0.55-1.07-1.49-1.3c-0.94-0.23-1.81-0.03-1.93,0.46c-0.12,0.49,0.55,1.07,1.49,1.3
	C119.06,105.03,119.92,104.83,120.04,104.34L120.04,104.34z M146.68,114.42c0.12-0.49-0.55-1.07-1.49-1.3
	c-0.94-0.23-1.81-0.03-1.92,0.46c-0.12,0.49,0.55,1.07,1.49,1.3C145.7,115.11,146.56,114.9,146.68,114.42L146.68,114.42z
	 M157.33,130.61c0.35,0.35,1.19,0.08,1.88-0.62c0.68-0.69,0.95-1.54,0.6-1.9c-0.35-0.35-1.2-0.08-1.88,0.62
	C157.25,129.41,156.98,130.26,157.33,130.61L157.33,130.61z M136.82,136.61c0.35,0.35,1.2,0.08,1.88-0.62
	c0.68-0.69,0.95-1.54,0.6-1.9c-0.35-0.35-1.2-0.08-1.88,0.62C136.73,135.41,136.46,136.26,136.82,136.61L136.82,136.61z
	 M131.43,146.31c0.15,0.48-0.47,1.11-1.39,1.41c-0.92,0.3-1.8,0.16-1.95-0.31c-0.15-0.48,0.47-1.11,1.39-1.41
	C130.4,145.69,131.28,145.83,131.43,146.31L131.43,146.31z M114.67,148.85c0.33-0.38,1.19-0.16,1.92,0.48
	c0.73,0.64,1.06,1.47,0.74,1.85c-0.33,0.38-1.19,0.16-1.92-0.48C114.67,150.05,114.34,149.22,114.67,148.85L114.67,148.85z
	 M123.02,132.38c0.49,0.1,0.72,0.96,0.53,1.92c-0.2,0.96-0.75,1.65-1.24,1.55c-0.49-0.1-0.72-0.96-0.53-1.92
	C121.97,132.97,122.53,132.28,123.02,132.38L123.02,132.38z M151.16,102.42c0.12-0.49-0.55-1.07-1.49-1.3
	c-0.94-0.23-1.81-0.03-1.93,0.46c-0.12,0.49,0.55,1.07,1.49,1.3C150.18,103.11,151.04,102.9,151.16,102.42L151.16,102.42z
	 M127.23,121.47c0.35,0.35,1.2,0.08,1.88-0.62c0.68-0.69,0.95-1.54,0.6-1.89c-0.35-0.35-1.2-0.08-1.88,0.62
	C127.14,120.27,126.87,121.11,127.23,121.47L127.23,121.47z M118.38,120.19c0.48-0.14,0.65-1.01,0.38-1.95
	c-0.27-0.94-0.87-1.59-1.35-1.45c-0.48,0.14-0.65,1.01-0.38,1.95C117.29,119.67,117.9,120.32,118.38,120.19L118.38,120.19z"/>
<path class="st70" d="M40.57,123.46c0,0,1.77,2.35,5.07,2.79c3.3,0.44,6.09-4.42,7.64-5.76c1.55-1.35,4.32,2.09-0.02,10.23
	c-4.35,8.14-4.33,7.86-7.13,6.39C43.31,135.63,35.91,120.59,40.57,123.46L40.57,123.46z"/>
<path class="st73" d="M76.89,24.62c0,0-5.4,6.61-12.28,9.24c-6.87,2.63-8.79,3.79-7.82,4.12c0.97,0.33,2.24,8.74,3.24,9.67
	c1,0.93,0.84-5.43,0.12-7.5c-0.72-2.07,2.35-1.46,8.76-5.72C75.33,30.16,80.88,22.06,76.89,24.62L76.89,24.62z"/>
<path class="st73" d="M145.68,126.92c0,0-0.39,6.76,1.74,8.06c2.13,1.3,2.48-3.63,4.67-0.55c2.19,3.08,2.5,4,4.04,3.74
	c1.54-0.25,3.52,4.1,0.3,4.58c-3.23,0.48-3.98-7.55-6.16-6.34c-2.19,1.2-2.41,6.25-4.39,2.48c-1.99-3.77,1.2-5.27-1.76-8.57
	C141.15,127.01,144.29,121.65,145.68,126.92L145.68,126.92z"/>
<path class="st56" d="M116,91.41c3.68,1.09,6.46,7.91,6.19,15.24c-0.27,7.33-3.47,12.4-7.16,11.31c-3.69-1.09-6.46-7.91-6.19-15.24
	C109.11,95.39,112.31,90.32,116,91.41L116,91.41z M115.85,96.16c2.16,0.64,3.76,4.31,3.57,9.68c-0.2,5.37-1.93,8.3-4.09,7.66
	c-2.16-0.64-3.92-4.59-3.72-9.96C111.8,98.17,113.7,95.52,115.85,96.16L115.85,96.16z"/>
</svg>
