<?xml version="1.0" encoding="UTF-8"?>
<svg id="Layer_2" data-name="Layer 2" xmlns="http://www.w3.org/2000/svg" xmlns:xlink="http://www.w3.org/1999/xlink" viewBox="0 0 236.98 235.05">
  <defs>
    <style>
      .cls-1 {
        fill: url(#linear-gradient);
      }

      .cls-1, .cls-2, .cls-3, .cls-4, .cls-5, .cls-6, .cls-7, .cls-8, .cls-9, .cls-10, .cls-11, .cls-12, .cls-13, .cls-14, .cls-15, .cls-16, .cls-17, .cls-18, .cls-19, .cls-20, .cls-21, .cls-22, .cls-23, .cls-24, .cls-25, .cls-26, .cls-27, .cls-28, .cls-29, .cls-30, .cls-31 {
        stroke-width: 0px;
      }

      .cls-2 {
        fill: url(#linear-gradient-4);
      }

      .cls-3 {
        fill: url(#linear-gradient-2);
      }

      .cls-4 {
        fill: url(#linear-gradient-3);
      }

      .cls-5 {
        fill: #f9c876;
      }

      .cls-6 {
        fill: #475416;
      }

      .cls-7 {
        fill: #5b5b5b;
      }

      .cls-8 {
        fill: #542b1b;
      }

      .cls-9 {
        fill: #959595;
      }

      .cls-10 {
        fill: #a52700;
      }

      .cls-11 {
        fill: #2f130a;
      }

      .cls-12 {
        fill: #254909;
      }

      .cls-13 {
        fill: #cf9b31;
      }

      .cls-14 {
        fill: #cbd49d;
      }

      .cls-15 {
        fill: #e16300;
      }

      .cls-16 {
        fill: #b5b7b9;
      }

      .cls-17 {
        fill: #bc4e00;
      }

      .cls-18 {
        fill: #b47f13;
      }

      .cls-19 {
        fill: #986f00;
      }

      .cls-20 {
        fill: #a03c00;
      }

      .cls-21 {
        fill: #881e00;
      }

      .cls-22 {
        fill: #953000;
      }

      .cls-23 {
        fill: #f08025;
      }

      .cls-24 {
        fill: #fff;
      }

      .cls-25 {
        fill: #eec571;
      }

      .cls-26 {
        fill: #fff5ec;
      }

      .cls-27 {
        fill: #f0b678;
      }

      .cls-28 {
        fill: #ffa700;
      }

      .cls-29 {
        fill: #ed972d;
      }

      .cls-30 {
        fill: #f4e39f;
      }

      .cls-31 {
        fill: #6a3e29;
      }
    </style>
    <linearGradient id="linear-gradient" x1="1246.37" y1="-140.6" x2="1330.27" y2="-140.6" gradientTransform="translate(-897.18 907.27) rotate(-35.12)" gradientUnits="userSpaceOnUse">
      <stop offset="0" stop-color="#67a842"/>
      <stop offset="1" stop-color="#40732a"/>
    </linearGradient>
    <linearGradient id="linear-gradient-2" x1="2057.33" y1="-34.71" x2="2142.66" y2="-34.71" gradientTransform="translate(-1019.29 1824.48) rotate(-57.23)" xlink:href="#linear-gradient"/>
    <linearGradient id="linear-gradient-3" x1="198.23" y1="3605.8" x2="282.89" y2="3605.8" gradientTransform="translate(3524.21 1114.06) rotate(110.87)" xlink:href="#linear-gradient"/>
    <linearGradient id="linear-gradient-4" x1="2293.4" y1="3722.53" x2="2373.72" y2="3722.53" gradientTransform="translate(3128.36 3208.2) rotate(168.05)" xlink:href="#linear-gradient"/>
  </defs>
  <g>
    <path class="cls-9" d="m7.83,117.14C7.83,56.52,57.37,7.38,118.49,7.38s110.65,49.14,110.65,109.76-49.54,109.75-110.65,109.75S7.83,177.75,7.83,117.14Z"/>
    <path class="cls-16" d="m118.93,7.07c-34.92,0-66.06,16.05-86.34,41.12,16.19-9.83,35.23-15.51,55.61-15.51,58.91,0,106.66,47.37,106.66,105.79,0,33-15.23,62.47-39.1,81.87,43.01-15.05,73.83-55.71,73.83-103.52,0-60.62-49.54-109.75-110.65-109.75Z"/>
    <path class="cls-24" d="m118.49,235.05C53.15,235.05,0,182.32,0,117.52S53.15,0,118.49,0s118.49,52.72,118.49,117.52-53.16,117.52-118.49,117.52Zm0-224.75C58.88,10.29,10.38,58.4,10.38,117.52s48.5,107.23,108.11,107.23,108.11-48.1,108.11-107.23S178.1,10.29,118.49,10.29Z"/>
  </g>
  <path class="cls-7" d="m21.29,118.3c0-50.29,41.1-91.05,91.8-91.05s91.8,40.77,91.8,91.05-41.1,91.05-91.8,91.05S21.29,168.59,21.29,118.3Z"/>
  <path class="cls-18" d="m194.37,101.3c-4.31-11.77-4.96-26.23-11-37.21-4.04-7.34-12.8-14.14-19.27-19.23-3.63-2.86-8.55-2.62-13.09-2.17-9.68.95-19.09-1.64-28.83-.64-4.75.49-9.2,2.57-6.83,8.32,3.4,8.25,15.63,8.77,22.16,12.46,7.95,4.5,18.35,12.79,20.2,22.25,1.53,7.82-2.75,6.42-7.23,10.51-4.09,3.73-8.16,12.98-6.18,18.59,3.02,8.59,15.78,6.6,20.88,14.28,7.69,11.56,2.26,28.02.37,40.44-1.55,10.23,3,16.02,13.75,14.53,12.19-1.69,13.42-21.73,17.41-31.32,2.08-5,3.03-8.17,3.03-13.62,0-4.39.94-8,1.48-11.73,1.31-8.92-3.88-17.36-6.85-25.48Z"/>
  <g>
    <g>
      <path class="cls-14" d="m32.99,63.37s11.3,20.32,79.85-14.3l5.47-10.23-85.33,24.53Z"/>
      <path class="cls-1" d="m43.33,70.49l-10.33-7.12s56.88-33.69,85.33-24.53l-74.99,31.65Z"/>
    </g>
    <g>
      <path class="cls-14" d="m55.94,69.88s11.43,9.1,61.14-50.04l3.04-10.13-64.19,60.17Z"/>
      <path class="cls-3" d="m64.97,69.91l-9.03-.03S96.58,17.22,120.13,9.72l-55.16,60.19Z"/>
    </g>
    <g>
      <path class="cls-14" d="m95.31,18.74s-13.36-6.26-51.17,60.43l-.97,10.28L95.31,18.74Z"/>
      <path class="cls-4" d="m86.23,20.61l9.08-1.87s-30.01,58.64-52.15,70.71L86.23,20.61Z"/>
    </g>
    <g>
      <path class="cls-14" d="m115.63,50.14s-.77-17.21-73.27-7.04l-9,6.24,82.27.81Z"/>
      <path class="cls-2" d="m110.01,42.72l5.62,7.42s-62.29,12.05-82.27-.81l76.65-6.62Z"/>
    </g>
  </g>
  <g>
    <path class="cls-27" d="m163.62,149.98c-2.24,11.33-3.22,21.79-3.84,33.49-9.2,2.44-12.41-8.55-14.95-14.63-3.56-8.51-11.77-13.26-15.05-22.06-3.32-8.9,1.16-23.06,8.63-28.91,5.55-4.35,17.11-5.09,22.26.38,7.19,7.64,4.76,22.53,2.94,31.72Z"/>
    <path class="cls-17" d="m158.48,151.26c2.52-6.43,4.29-10-.22-15.35-3.16-3.75-11.58-7.77-15.8-3.64-1.96,1.92-2.37,11.95-3.16,14.91-1.32,4.92-2.06,10.48-4.77,14.9-3.72,6.05-9.32,10.09-15.92,12.79-12.4,5.07-22.67-3.8-35.46-3.93-3.81-.04-17.88-2.05-19.84,1.73-2.42,4.67,10.93,13.46,14.09,16.36,14.18,12.99,34.37,12.63,49.76,2.38,8.48-5.65,14.98-6.19,24.8-6.3,9.42-.11,23.29-3.3,10.27-12.44-4.06-2.85-8.64-2.56-9.47-8.02-.63-4.18,4.26-9.62,5.74-13.39Z"/>
    <path class="cls-27" d="m139.68,111.76c-4.44-11.09-19.31-16.07-30.54-14.11-10.85,1.9-16,10.76-18.2,20.76-2.76,12.58-2.98,25.68-7.04,37.99-2.51,7.59-7.1,14.27,1.43,17.21,7.64,2.64,11.66.03,18.48,5.55,17.16,13.88,25.97-7.24,30.27-22.42,3.36-11.88,10.55-32.61,5.6-44.98Z"/>
    <path class="cls-23" d="m102.7,108.76c2.33,5.91-6.35,18.41-5.07,26.27,7.63-7.07,3.12-31.6,17.71-28.85,1.06,4.34-1.87,7.56-3.4,11.18,3.69-1.89,7.17-13.64,11.93-9.17,4.7,4.42-2.17,13.9-1.86,18.39,4.34-.3,4.09-13.21,9.25-11.14,3.91,1.57.51,13.65-.02,16.39-1.91,9.96.47,22.82-4.25,31.71,6.3-1.46,6.5-15.75,7.97-21.2,2.06-7.57,6.79-16.95,6.31-24.89-.57-9.54-10.09-15.39-18.42-17.82-7.31-2.13-16.45-2.28-23.52.81-4.69,2.05-11.19,9.21-9.34,14.45,3.7-.63,9.85-13.38,12.71-6.12Z"/>
    <path class="cls-23" d="m98.4,157.98c-.13,3.08.55,9.79,5.59,9.29,3.69-.36,3.93-6.27,5.57-8.53.33,4.95-1.6,12.96,3.15,16.12,6.87,4.57,9.38-3.75,14.07-5.42.85,8.42-5.91,11.95-12.78,12.69-8.98.97-12.64-5.53-21.51-6.38-11.14-1.07-16.96,3.34-12.71-10.67,2.26-7.46.09-17.29,8.01-19.78,3.76-1.18,4.56,1.73,8.6-1.38,3.33-2.57,3.05-7.48,7.53-8.5,3.04,6.68-5.22,15.35-5.53,22.56Z"/>
    <path class="cls-15" d="m77.43,120.34c-3.23.26-9.14-8.47-9.23-11.52-.12-4.22,4.26-7.96,7.13-10.44,12.81-11.04,31.14-15.9,47.45-18.78,10.91-1.93,15.5,2.09,23.5,8.55,5.66,4.57,13.81,6.84,17.21,13.61,3.05,6.07.36,14.8-6.41,17.83-8.31,3.72-15.44-.03-20.15-6.29-3.62-4.82-5.66-8.73-11.6-10.62-7.04-2.24-18.16-1.51-25.31-.04-5.07,1.04-11.37,3.27-15.22,6.78-3.18,2.9-3.68,10.61-7.37,10.91Z"/>
    <path class="cls-17" d="m157.07,111.77c-8.31,3.72-15.44-.03-20.14-6.29-3.62-4.82-5.66-8.73-11.6-10.62-7.04-2.24-18.16-1.51-25.31-.04-5.07,1.05-11.37,3.27-15.22,6.78-3.18,2.9-3.68,10.61-7.37,10.91-2.32.19-6.02-4.26-7.96-7.91-.8,1.33-1.31,2.74-1.27,4.21.08,3.06,6,11.78,9.23,11.52,3.69-.3,4.19-8.01,7.37-10.91,3.85-3.51,10.15-5.73,15.22-6.78,7.14-1.47,18.27-2.2,25.31.04,5.94,1.89,7.97,5.8,11.6,10.62,4.7,6.26,11.84,10.01,20.14,6.29,6.19-2.77,8.95-10.28,7.07-16.19-1.05,3.56-3.48,6.77-7.07,8.37Z"/>
    <path class="cls-22" d="m73.32,131.47c3.54-8.52,11.32-15.9,12.71-25.01,1.1-7.17-3.05-19.26-12.16-12.66-8.34,6.04-11.91,18.3-17.94,26.31-8.37,11.11-18.08,21.03-14.16,35.73,2.17,8.14,6.12,29.59,18.48,25.78,8.73-2.7,8.81-14.69,8.43-22.22-.55-10.85.39-17.7,4.64-27.93Z"/>
    <path class="cls-23" d="m88.36,127.53c1.41-6.31,8.22-18.77,1.42-23.09-5.34-3.39-25.13-.45-30.98,1.48-4.93,1.62-4.79.09-5.74,5.81-.67,4.07.67,8.8.72,13.01.17,14.44-3.92,37.57,3.69,50.19,5.36.3,16.78,3.33,21.4,1.56,5.56-2.13,6.23-13.5,6.45-19.05.4-9.91.86-20.22,3.03-29.9Z"/>
    <path class="cls-15" d="m89.58,104.43c-.47-.3-1.06-.54-1.73-.75-1.09,3.82-2.68,7.64-3.28,10.33-2.17,9.68-2.63,20-3.03,29.9-.23,5.55-.89,16.92-6.45,19.05-4.62,1.77-16.04-1.26-21.4-1.56-.23-.37-.44-.76-.64-1.15.56,5.54,1.8,10.63,4.23,14.66,5.36.3,16.78,3.33,21.4,1.56,5.56-2.13,6.23-13.5,6.45-19.05.4-9.91.86-20.22,3.03-29.9,1.41-6.31,8.22-18.77,1.42-23.09Z"/>
    <path class="cls-27" d="m75.84,131.08c1.31-5.7,8.37-17.63,3.48-22.34-3.14-3.03-16.92-2.29-19.99.72-4.7,4.62-.76,13.37.02,18.65,1.35,9.14-3.03,37.15,12.96,33.3,3.71-8.78,1.36-20.89,3.54-30.33Z"/>
    <path class="cls-27" d="m146.99,95.21c3.43,1.74,10.91,3.57,9.37,8.73-1.43,4.8-9.6,4.77-12.97,3.04-9.72-4.97-9.74-17.27-22.21-18.68-9.6-1.09-20.32.55-28.55,4.18,2.32-8.06,18.91-7.45,25.27-8.15,13.43-1.46,17.79,5.16,29.08,10.89Z"/>
    <path class="cls-12" d="m171.43,136.53c.39.55.77,1.1,1.14,1.65,4.36,6.31,12.43,15.86,10.04,23.86-12.4-7.4-14.71-24.01-25.44-33.27-4.62-3.99-11.07-6.2-15.35-10.55-7.12-7.23,2.09-7.27,7.01-4.8,9.57,4.82,16.59,14.43,22.6,23.11Z"/>
    <path class="cls-22" d="m178.42,141.88c1.76,3.37,2.76,9.07.14,11.96-2.58,2.84-7.22,1.19-10.05,3.65-12.49,10.88,6.74,11.6,9.88,15.54,6.92,8.69-5.86,22.88-9.08,13.74,11.49,7.7-20.86,26.92-18.71,2.07.5-5.77,11.18-8.96,7.58-14.22-3.36-4.9-13.26-1.46-9.77-12.09,3.05-9.29,24.46-8.14,17.24-18.63-3.95-5.75-10.6-1.97-14.17-6.41-4.65-5.79,2.32-9.62,7.94-9.11,6.65.61,16.1,7.92,19.02,13.49Z"/>
    <path class="cls-17" d="m89.51,185.83c7.27,2.29,12.93,5.01,20.93,5.53,10.32.67,17.3-5.17,27.09-6.95,8.26-1.51,27.87-8.14,25.38,8.14-2.3,15.01-24.09,9.72-33.84,13.04-6.73,2.29-8.55,8.75-15.02,10.67-7.19,2.13-16.56-2.28-22.96-5.13-8.72-3.88-10.02-8.51-15.97-14.62-3.97-4.08-9.71-5.54-14.84-8.16-6.45-3.28-10.53-6.71-10.56-14.04-.03-9.28,10.78-22.58,18.91-10.14,2.66,4.08.31,8.95,3.92,13.34,4.1,4.98,11.11,6.48,16.97,8.32Z"/>
    <path class="cls-15" d="m137.59,183.69c-9.79,1.79-16.77,7.62-27.09,6.95-8-.52-13.66-3.25-20.93-5.53-5.86-1.84-12.87-3.34-16.97-8.32-3.61-4.39-1.26-9.27-3.92-13.34-5.17-7.91-11.42-5.4-15.28-.15-.02.33-.04.67-.04.99.03,7.33,4.11,10.76,10.56,14.04,5.14,2.62,10.87,4.09,14.84,8.16,5.95,6.11,7.25,10.73,15.97,14.61,6.41,2.85,15.77,7.26,22.96,5.13,6.47-1.92,8.28-8.38,15.02-10.67,7.84-2.67,23.44.21,30.46-6.34.04-12.93-17.81-6.97-25.59-5.55Z"/>
    <path class="cls-20" d="m176.89,129.66c1.77,3.37,2.76,9.07.14,11.97-2.58,2.84-7.22,1.18-10.05,3.65-12.49,10.88,6.74,11.6,9.88,15.54,6.92,8.69-5.87,22.89-9.08,13.74,11.49,7.7-20.85,26.92-18.71,2.07.5-5.77,11.17-8.95,7.58-14.21-3.35-4.9-13.26-1.46-9.77-12.09,3.05-9.29,24.45-8.14,17.24-18.63-3.95-5.75-10.6-1.97-14.17-6.42-4.64-5.79,2.32-9.62,7.94-9.11,6.66.61,16.1,7.92,19.01,13.49Z"/>
    <path class="cls-6" d="m115.3,159.19c-.55,8.9-4.44,12.98-9.5,16.89-7.37,5.69-15.72,5.99-23.64,4.58,2.19,2.96.8,6.78,3.65,8.23,1.9.96,8.49-1.77,10.83-1.97,6.02-.51,11.93-.94,17.24-5.85,6.96-6.41,6.98-15.43,5.57-26.24-.45-3.48.97-21.36-4.51-19.24-2.51.97.63,19.19.36,23.59Z"/>
    <path class="cls-19" d="m137.41,160.46c-.25.63-.49,1.25-.73,1.87-2.8,7.13-6.21,19.12-14.23,21.67-.81-14.33,11.73-25.58,13.4-39.59.72-6.03-1.07-12.57.14-18.52,2.02-9.91,7.23-2.38,7.94,3.04,1.37,10.55-2.69,21.73-6.53,31.54Z"/>
    <path class="cls-19" d="m118.41,107.98c1.12-7.44-10.11-4.99-14.23-3.45-7.58,2.83-11.59,8.01-15.24,14.93-3.49,6.62-9.36,12.43-11.27,19.83-1.36,5.27.9,11.2,5.88,7.84,3.15-2.12,5.9-12.54,7.95-16.05,3.17-5.42,6.57-10.94,11.19-15.3,1.24-1.17,15.9-8.97,15.72-7.8Z"/>
    <path class="cls-6" d="m89.66,138.69c-1.46,10.19-7.42,18.23-5.06,29.15,6.85,31.72,40.63,15.91,54.14,34.94-20.6.66-51.48-6-58.54-30.21-3.72-12.75-.06-27.59,1.17-40.36.55-5.79-2.14-13.37,4.34-14.16,2.38,6.04,4.87,14.18,3.94,20.64Z"/>
  </g>
  <g>
    <path class="cls-8" d="m120.6,102.34c-6.87-20.98-39.02-17.69-50.47-35.02-12.6-19.07,17.75-19.57,29.33-18.73,15.12,1.09,26.96,8.77,41.56,11.3,12.85,2.23,39.17,4.88,31.33,24.96-4.25,10.87-19.95,21.84-29.23,28.19-13.05,8.92-18,3.09-22.51-10.7Z"/>
    <path class="cls-11" d="m107.98,78.32c-5.27-2.36-41.28-24.1-17.38-21.42,7.49.84,29.46,18.61,36.13,23.31,5.23,3.68,11.73,7.68,16.33,11.53,3.22,2.7,7.85-.91,6.4,5.79-2.92,13.47-33.6-15.68-41.47-19.21Z"/>
    <path class="cls-11" d="m141.19,78.78c-7.7-.61-32-3.67-27.56-15.16,10.76.13,27.39,4.72,37.97,8.3,4.04,1.37,13.54,3.98,15.55,8.66,3.6,8.4-5.17,13.39-9.76,9.34-1.31-1.15,1.38-6.97-.55-9.09-3.7-4.08-10.85-1.68-15.65-2.05Z"/>
  </g>
  <g>
    <path class="cls-31" d="m92.84,67.07c9.53,19.93,40.99,12.57,54.59,28.3,14.96,17.31-15.07,21.67-26.66,22.31-15.14.84-27.88-5.26-42.68-5.91-13.03-.57-39.48.15-34.3-20.76,2.8-11.32,16.95-24.21,25.33-31.68,11.79-10.51,17.45-5.35,23.71,7.74Z"/>
    <path class="cls-8" d="m108.47,89.29c5.53,1.67,44.06,18.63,20.01,19.03-7.54.12-31.63-14.71-38.85-18.51-5.66-2.99-12.63-6.12-17.69-9.35-3.54-2.26-7.67,1.91-7.1-4.93,1.15-13.73,35.35,11.27,43.62,13.76Z"/>
    <path class="cls-8" d="m75.48,93.06c7.71-.38,32.2-.43,29.3,11.52-10.69,1.24-27.77-1.19-38.73-3.39-4.18-.84-13.94-2.22-16.55-6.61-4.66-7.87,3.39-13.93,8.47-10.5,1.45.98-.46,7.09,1.72,8.95,4.19,3.57,10.98.28,15.79.04Z"/>
  </g>
  <path class="cls-13" d="m138.74,55.17c-3.59-.14-6.93-1.92-9.32-4.54-3.94-4.33,2.67-5.34,5.96-4,2.3.93,3.3,3.33,3.23,5.65-.03.93-.26,1.86-.67,2.7-.08.17-.26.53-.43.66,1.59-1.24,2.02.39.58-1.49-4.46-5.86,10.17-7.93,13.15-7.39,8.49,1.56,3.19,9.25,1.68,14.28-1.86,6.15,5.78,6.49,9.83,4.99,5.63-2.08,4.33-9.4,4.29-14-.01-1.27.1-2.51.43-3.73.98-3.66,5.08-1.27,6.67.31,3.94,3.9,3.95,9.43,3.38,14.54-.46,4.13-1.54,8.21-1.33,12.4.29,5.85,2.88,10.61,5.19,15.87,2.3,5.25,3.97,10.76,4.07,16.53.03,1.9-.82,11.89-4.51,10.39-5.4-2.2-5.71-10.6-5.87-15.47-.16-4.89-.5-11.41,2.12-15.78.46-.77.52-.04-.4-.22.47.09.91.44,1.29.7,1.35.91,1.84,2.26,2.14,3.77.76,3.84-.64,8.29-1.58,11.98-2.03,7.99-3.65,14.85.42,22.59,3.18,6.07,7.21,11.6,8.02,18.61.42,3.63-2.05,4.5-4.25,1.81-2.03-2.49-2.9-6.02-3.7-9.05-1.46-5.53-1.76-11.34-3.31-16.84-2.56-9.07-11.06-15.54-12.19-25.07-.24-2.01.12-4.68,1.84-6.01,1.54-1.18,4.34.01,5.82.68,4.71,2.12,8.35,6.35,10.69,10.82,4.35,8.32,4.68,18.16,7.45,27,2.78,8.9,7.13,18.89,3.24,28.05-.88,2.06-4.43,7.9-6.79,4.48-1.46-2.11-2.25-4.71-3.47-6.96-2.37-4.37-7.13-2.83-8.66,1.36-2.5,6.8.22,14.17,6.19,18.34,5.37,3.74,11.87-.38,15.29-4.66,4.4-5.51,6.72-12.68,8.53-19.39,2.33-8.63,3.5-18.05,1.98-26.91-1.75-10.17-11.86-16.48-13.09-26.67-.44-3.64,1.8-7.2,3.04-10.49,1.77-4.7,1.67-9.38-.07-14.05-3.45-9.27-12.58-15.66-20.83-20.41-7.27-4.18-15.08-6.31-23.34-7.45-6.92-.96-13.9-1.65-20.89-1.62-5.24.02-11.49.23-15.7,3.72-3.4,2.82-1.83,7.7,1.23,9.94,4.55,3.34,10.65,4.49,16.11,5.45,5.07.9,10.18,1.33,15.28,2.01,8.75,1.17,18.09,1.74,25.97,6.05,4.25,2.33,8,6.63,9.18,11.32,1.25,5-3.8,8.39-7.48,10.54-5.41,3.18-10.27,6.09-14.57,10.8-2.52,2.75-7.01,8.62-2.84,11.9,5.6,4.4,13.29,1.13,18.98-1.13,5.23-2.08,8.82.26,11.04,5.22,1.29,2.87.53,4.82-2.3,5.97-4.81,1.95-10.53,2.03-14.26,6.08-4.12,4.48-3.18,9.3,2.08,11.91,6.23,3.09,12.85,3.03,15.28,10.69,1.25,3.96,1.21,8.29,1.94,12.36.27,1.49.69,2.83,1.66,4.01.27.33.67.6,1,.86.38.3-3.27,2.95-3.07,2.85-3.75,1.93-7.25,1.71-10.03,5.4-1.91,2.54-3.86,6.19-2.23,9.33,3.5,6.74,12.76-2.56,14.94-5.41,5.88-7.67,9.58-17.08,12.73-26.12,3.79-10.88,6.7-22.17,7.26-33.7.24-4.84.04-10.02-1.98-14.5-2.04-4.53-6.39-7.84-10.21-10.84-4.42-3.46-9.18-6.55-14.08-9.28-5.74-3.19-12.36-5.34-15.09-11.83-3.23-7.68,1.3-19.72-9.56-22.48-1.68-.43-5.4,2.04-2.71,2.72,7.63,1.94,6.08,12.15,6.99,18.12,1.33,8.73,9.35,11.67,16.16,15.49,7.3,4.11,14.54,8.73,20.48,14.67,5.79,5.79,5.82,13.82,5.22,21.5-1.36,17.48-7.49,36.19-16.37,51.25-1.08,1.84-8.25,12.6-9.68,8.08-.62-1.96.72-4.22,1.72-5.79,1.89-2.96,5.34-3.25,8.34-4.4,1.95-.74,5.81-3.48,5.85-5.84.01-.78-.56-1.17-1.13-1.63-1.61-1.3-1.71-3.84-1.99-5.72-1.1-7.26-1.07-15.24-8.74-18.76-3.63-1.67-13.56-2.87-12.83-8.37,1.39-10.51,25.88-4.92,18.42-19.42-3.82-7.42-10.81-7.02-17.6-4.32-3.83,1.52-7.66,3.24-11.71,1.28-2.87-1.39-1.13-4.75.08-6.64,3.36-5.23,8.85-8.98,14.26-11.83,6.22-3.29,12.76-8.4,10.03-16.14-5.4-15.31-27.21-16.05-40.62-17.54-5.99-.67-11.97-1.39-17.81-2.91-3.87-1-11.46-3.12-10.51-8.42.92-5.15,12.99-3.68,16.53-3.53,6.32.27,12.61,1.05,18.86,1.98,10.83,1.62,21.3,7.16,29.47,14.3,3.91,3.42,7.14,7.67,8.96,12.54,1.95,5.25.47,10.32-1.64,15.22-3.71,8.62.04,15.04,5.16,22.19,3.08,4.3,5.47,8.6,6.38,13.84.99,5.74.28,11.8-.62,17.51-1.14,7.31-3.33,14.66-6.72,21.25-1.55,3.03-3.67,6.42-6.84,7.98-4.15,2.03-8.02-5.13-9.14-7.96-.68-1.73-.98-3.6-.79-5.44.1-.93.48-1.87.76-2.76.84-2.63,1.17-.6-1.17-1.65,1.76.79,2.82,4.91,3.59,6.51.66,1.38,1.58,3.61,3.29,3.98,3.14.69,6.04.11,8.67-1.75,5.52-3.92,6.91-11.69,6.26-17.9-.54-5.2-2.3-10.28-3.89-15.23-1.57-4.9-2.71-9.76-3.73-14.79-1.77-8.75-4.31-17.49-11.39-23.49-4.7-3.98-12.11-6.96-17.62-2.72-6.42,4.94-1.56,14.54,1.72,19.74,2.62,4.16,5.6,8.08,7.24,12.76.85,2.42,1.13,5.07,1.55,7.59,1.03,6.12,1.89,12.97,5.09,18.43,2.52,4.3,7.73,6.13,11.99,2.7,4.54-3.66.91-11.35-.9-15.51-1.31-3.01-3.04-5.66-4.71-8.49-2.67-4.53-3.59-9.3-2.75-14.5,1.11-6.93,4.44-13.55,3.55-20.71-.56-4.49-5.72-7.7-9.84-5.32-3.89,2.24-4.12,8.3-4.38,12.19-.3,4.68-.28,9.69.59,14.32,1.04,5.49,5.54,11.54,11.74,9.73,7.32-2.14,7.51-12.06,6.87-18.05-1.2-11.22-9.73-20.13-8.88-31.65.64-8.65,3.85-17.27-2.53-24.63-3.87-4.46-12.94-4.88-15.27,1.51-1.21,3.31,1.6,15.1-3.09,15.73-4.3.57-2.29-4.18-1.44-6.19,1.02-2.44,2.53-5.24,2.24-7.96-.61-5.8-8.73-6.45-13.2-6.1-4.98.39-11.74,2.55-14.17,7.3-1.96,3.83,2,8.29,6,6.8,3.62-1.34,4.38-6.15,3.37-9.4-1.81-5.83-9.69-5.84-14.47-4.56-3.83,1.03-5.85,3.97-3.88,7.55,2.28,4.13,8.14,6.46,12.63,6.64,1.95.08,4.77-2.77,1.68-2.89h0Z"/>
  <path class="cls-25" d="m117.34,52.05c-5.52-3.95,3.21-8.68,6.56-9.85,7.39-2.57,15.6-1.37,20.88,4.61,4.12,4.66,4.54,10.1,6.71,15.58,1.95,4.92,7.47,5.69,12.21,5.64,3.34-.04,6.78.03,9.69-1.78,1.92-1.19,2.93-3.46,3.98-5.35.65-1.17.61-1.3,1.48-1.04,2,.61,4.08,2.36,5.47,3.82,3,3.15,3.56,8.02,3.11,12.12-.64,5.85-6.59,14.2-13.14,9.9-4.74-3.11-7.07-9.99-9.24-14.89-2.29-5.16-4.45-10.84-8.4-15.01-3.18-3.37-7.95-5.01-12.3-6.25-7.61-2.17-22.96-5.04-27.92,3.49-2.44,4.21.99,10.13,3.7,13.31,3.42,4.02,8.78,5.5,13.84,6.06,12.55,1.39,25.75-2.92,37.89,1.75,7.44,2.86,11.08,9.86,13.25,17.01.89,2.93,1.81,6.13,1.6,9.22-.12,1.88-.26,1.79-1.77,1.48-9.41-1.98-17.85-9.23-27.89-5.56-4.97,1.82-14.2,11.16-4.95,13.62,8.75,2.32,19.38-.02,28.11-1.38,3.98-.62,7.94-1.34,11.89-2.07.78-.14.37-.07.75-.13.09-.01.18-.03.27-.04-1.31.16,1.7,1.53,2.19,1.85,2.47,1.63,4.2,3.86,5,6.69.61,2.16.42,6.03-2.42,4.66-2.65-1.27-5.05-3.34-8.11-3.45-4.5-.16-8.94-2.86-13.02-4.49-7.99-3.18-15.06-1.54-19.72,5.86-.33.53-.08,1.12.39,1.44,12.23,8.33,31.48-2.55,39.96,11.77,3.39,5.73,3.52,13.48.66,19.44-1.46,3.03-4.06,4.09-7.26,3.05-2.85-.92-4.33-4.25-5.21-6.81-2.08-6.07-1.91-12.89-1.78-19.22.15-7.41.3-14.82.31-22.23.01-7.43-.44-14.92-2.89-22-2.6-7.53-7.78-13.94-13.81-19.08-12.7-10.83-31.22-20.52-48.09-14.05-2.93,1.13-.31,3.3,1.95,2.43,10.54-4.04,22.21.77,31.35,6.07,8.12,4.71,15.61,10.95,20.68,18.88,8.64,13.5,6.26,31.63,5.99,46.81-.16,9.21-2.28,26.52,7.83,31.65,4.68,2.37,11.09.93,14.12-3.31,3.56-4.97,4-11.99,2.79-17.8-1.68-8.04-8.22-13.35-16.11-14.57-9.02-1.39-18.86,1.98-26.94-3.53.13.48.26.96.39,1.44,3.11-4.94,6.56-5.54,11.83-3.72,3.98,1.38,7.66,3.42,11.75,4.49,1.6.42,3.43.27,4.93.95,1.33.6,2.57,1.41,3.84,2.11,2.24,1.24,4.9,2.24,7.42,1.21,2.83-1.15,3.59-3.84,4-6.62.57-3.99-2.6-7.64-5.42-9.96-3.71-3.05-5.76-3.15-9.93-2.38-9.27,1.71-18.67,3.31-28.11,3.61-2.32.07-7.46.59-9.06-1.61-1.58-2.18,5.45-6.86,6.82-7.28,4.61-1.4,10.4,1.44,14.57,3.13,3.74,1.51,7.88,3.7,12.05,3.33,12.24-1.1.93-23.56-2.9-27.92-8.52-9.68-23.08-8.52-34.72-7.88-6.01.33-12.31.82-18.13-1.03-5.16-1.64-9.85-7.09-10.02-12.6-.31-9.96,22.41-3.2,26.89-1.33,10.62,4.43,12.9,18.43,18.1,27.46,2.39,4.14,5.85,7.95,10.94,8.24,5.97.33,11.64-3.87,14.19-8.96,3.12-6.24,2.39-14.82-2.49-19.94-3.39-3.56-9.93-6.84-13.8-2.19-.84,1.01-1.4,2.24-2.03,3.38-1.39,2.52-2.96,2.44-5.76,2.6-3.76.21-8.49.2-10.25-3.72-1.36-3.04-1.68-6.49-2.94-9.59-1.72-4.24-4.7-8.01-8.52-10.57-7.41-4.96-17.94-3.71-25.56-.01-5.04,2.44-11.84,8.8-5.23,13.53,1.51,1.08,5.58-1.03,3.54-2.49h0Z"/>
  <path class="cls-25" d="m117.23,49.49c6.48,2.24,12.98,1.94,19.39-.4,5.82-2.13,10.7-6.02,16.22-8.71,13.94-6.79,24.65,10.13,25.18,21.96.11,2.45-.23,4.93-1.28,7.16-1.36,2.88-2.93,1.89-5.59.28-1.64-1-2.85-1.55-1.28-3.11.82-.81,1.96-1.85,3.17-1.86,2.57-.03,4.93,1.77,6.73,3.4,9.09,8.27,13.4,25.01,10.88,36.74-.37,1.71-1.01,3.35-1.85,4.88-.15.27.16.43.38.47,5.77.98,12.44,3.22,12.81,9.95.34,6.09-4.18,12.33-7.51,17.05-4.12,5.85-8.86,11.25-13.39,16.78-2.76,3.38-6.99,7.58-7.65,12.08-.08.52,4.36.16,4.56-1.21.52-3.54,3.85-7.01,5.98-9.69,3.62-4.56,7.45-8.96,11.06-13.54,4.97-6.3,14.57-17.4,10.7-26.16-1.96-4.44-7.61-6.03-11.95-6.87.19.04,1.68-6.09,1.78-6.84.43-3.33.32-6.65-.1-9.98-1.23-9.77-6.39-25.95-17.53-28.68-5.13-1.26-10.5,1.71-13.71,5.47-.17.2-.34.38-.09.59,5.05,4.2,13.82,6.37,17.31-1.02,3.6-7.63-.45-18.22-5.42-24.22-6.42-7.74-16.46-8.3-25.16-4.54-4.2,1.82-7.96,4.54-11.95,6.76-5.86,3.25-11.58,3.69-17.93,1.49-1.02-.35-5.08,1.28-3.75,1.74h0Z"/>
  <path class="cls-21" d="m143.21,89.12c-3.21-7.74-24.03-19.87-29.88-8.94-3.54,6.61,6.26,15.12,2.1,21.95-8.6,14.12-32.12-7.59-40.63,5.65-2.88,4.47-3.31,14.34,1,17.19,5.2,3.43,12.05-1.11,17.51,3.71,5.11,4.51,3.78,11.28,9.4,15.57,6.71,5.13,12.5,3.55,18.69-1.33,13.41-10.55,23.51-11.66,40.09-9.41,16.99,2.3,16.71-11.39,3.16-18.07-5.66-2.79-13.12-3.08-17.11-8.56-3.85-5.28-1.95-12.02-4.33-17.76Z"/>
  <path class="cls-10" d="m142.6,106.27c-2.15-7.11-2.95-21.39-10.71-25.12-13.96-6.71-2.52,8.76-1.28,12.41,2.31,6.81-1.22,17.77,4.91,23.02,5.15,4.41,9.41,3.16,15.74,3.71,5.88.51,11.62,5.42,17.17,4.56.51-7.09-10.26-5.33-14.86-6.86-7.15-2.37-9.04-5.31-10.99-11.72Z"/>
  <path class="cls-10" d="m123.58,117.77c1.91-1.91,4.35-8.9,2.94-11.39-2.82-5.01-3.65-.75-5.44.18-3.55,1.85-2.56,5.34-8.34,6.13-3.02.41-6.49-1.02-9.41-1.61-4.75-.96-27.38-6.59-22.85,2.99,1.88,3.97,7.91,3.48,10.96,4.84,5.58,2.46,5.97,5.62,9.71,9.18,2.07,1.97,9.22,8.21,10.04.78.48-4.41-6.87-5.61-9.54-7.77,5.25-5.51,15.77,2.83,21.93-3.31Z"/>
  <path class="cls-10" d="m137,125.86c2.31,8.24-9.87,8.02-14.81,10.58-2.28,1.18-10.62,9.76-12.56,3.92-2.69-8.12,26.58-17.32,27.37-14.5Z"/>
  <g>
    <path class="cls-30" d="m113.39,111.6c.39.41.19,1.3-.45,1.99-.64.69-1.47.92-1.85.51-.39-.4-.19-1.29.45-1.98.63-.69,1.47-.92,1.85-.51Z"/>
    <path class="cls-30" d="m121.3,117.99c-.32.47-1.17.39-1.91-.18-.73-.57-1.06-1.41-.75-1.88.32-.47,1.17-.39,1.91.18.73.57,1.07,1.41.75,1.88Z"/>
    <path class="cls-30" d="m111.15,122.08c-.32.47-1.17.39-1.91-.18-.73-.57-1.07-1.41-.75-1.88.32-.47,1.17-.39,1.91.18.73.57,1.07,1.41.75,1.88Z"/>
    <path class="cls-30" d="m145.3,119.1c-.32.47-1.17.39-1.91-.18-.73-.57-1.07-1.41-.75-1.88.32-.47,1.17-.39,1.9.18.73.57,1.07,1.41.75,1.88Z"/>
    <path class="cls-30" d="m140.23,110.07c-.32.47-1.17.39-1.91-.18-.73-.57-1.07-1.41-.75-1.88.32-.47,1.17-.39,1.91.18.73.57,1.07,1.41.75,1.88Z"/>
    <path class="cls-30" d="m139.84,128.85c-.32.47-1.17.39-1.91-.18-.73-.57-1.07-1.41-.75-1.88.32-.47,1.17-.39,1.91.18.73.57,1.07,1.41.75,1.88Z"/>
    <path class="cls-30" d="m134.76,118.52c-.32.47-1.17.39-1.91-.18-.73-.57-1.06-1.41-.75-1.88.32-.47,1.17-.39,1.91.18.73.57,1.07,1.41.75,1.88Z"/>
    <path class="cls-30" d="m130.26,120.3c-.32.47-1.17.39-1.91-.18-.73-.57-1.07-1.41-.75-1.88.32-.47,1.17-.39,1.9.18.74.57,1.07,1.41.75,1.88Z"/>
    <path class="cls-30" d="m117.7,123.42c-.32.47-1.17.39-1.91-.18-.73-.57-1.07-1.41-.75-1.88.32-.47,1.17-.39,1.91.18.73.57,1.07,1.41.75,1.88Z"/>
    <path class="cls-30" d="m125.86,116.66c-.32.47-1.17.39-1.91-.18-.73-.57-1.07-1.41-.75-1.88.32-.47,1.17-.39,1.91.18.73.57,1.07,1.41.75,1.88Z"/>
    <path class="cls-30" d="m125.86,112.43c-.32.47-1.17.39-1.91-.18-.73-.57-1.07-1.41-.75-1.88.32-.47,1.17-.39,1.91.18.73.57,1.07,1.41.75,1.88Z"/>
    <path class="cls-30" d="m129.65,108.1c-.32.47-1.17.39-1.91-.18-.73-.57-1.07-1.41-.75-1.88.32-.47,1.17-.39,1.91.18.73.57,1.07,1.41.75,1.88Z"/>
    <path class="cls-30" d="m144.47,103.85c-.37-.43-.13-1.3.54-1.96.67-.66,1.5-.85,1.87-.42.37.43.13,1.31-.54,1.96-.66.66-1.5.85-1.87.42Z"/>
    <path class="cls-30" d="m131.88,99.86c-.37-.42-.13-1.3.54-1.96.67-.66,1.5-.85,1.87-.42.37.43.13,1.3-.53,1.96-.67.66-1.5.84-1.88.42Z"/>
    <path class="cls-30" d="m133.84,112.59c-.37-.43-.13-1.3.54-1.96.67-.66,1.5-.85,1.87-.42.37.43.13,1.3-.54,1.96-.67.66-1.51.84-1.88.42Z"/>
    <path class="cls-30" d="m123.33,103.85c-.37-.43-.13-1.3.54-1.96.66-.66,1.5-.85,1.87-.42.37.43.13,1.31-.54,1.96-.66.66-1.51.85-1.88.42Z"/>
    <path class="cls-30" d="m100.97,105.27c-.37-.43-.13-1.3.54-1.96.67-.66,1.5-.84,1.87-.42.37.43.13,1.3-.54,1.96-.67.66-1.5.84-1.87.42Z"/>
    <path class="cls-30" d="m95.09,111.17c-.37-.43-.13-1.3.54-1.96.66-.66,1.5-.84,1.87-.42.37.43.13,1.31-.54,1.96-.67.66-1.5.85-1.87.42Z"/>
    <path class="cls-30" d="m133.96,123.72c-.33.46-1.18.35-1.9-.24-.72-.59-1.03-1.44-.7-1.9.33-.46,1.18-.35,1.9.23.72.59,1.03,1.44.7,1.9Z"/>
    <path class="cls-30" d="m124.26,129.99c-.33.46-1.18.35-1.9-.24-.72-.59-1.03-1.44-.7-1.9.33-.46,1.18-.35,1.9.24.72.59,1.03,1.44.7,1.9Z"/>
    <path class="cls-30" d="m103.55,138.25c-.02-.58.69-1.08,1.6-1.12.91-.04,1.66.39,1.68.97.03.58-.69,1.08-1.6,1.13-.91.04-1.66-.4-1.68-.98Z"/>
    <path class="cls-30" d="m109.63,127.2c-.02-.58.69-1.08,1.6-1.12.91-.04,1.66.39,1.68.97.03.58-.69,1.09-1.6,1.12-.91.04-1.66-.39-1.68-.97Z"/>
    <path class="cls-30" d="m139.78,120.92c-.02-.58.69-1.08,1.6-1.12.9-.04,1.66.39,1.68.97.02.58-.69,1.09-1.6,1.13-.9.04-1.66-.39-1.68-.98Z"/>
    <path class="cls-30" d="m118.33,110.05c-.02-.58.69-1.08,1.6-1.13.9-.04,1.66.39,1.68.98.02.58-.69,1.09-1.6,1.13-.9.04-1.66-.4-1.68-.98Z"/>
    <path class="cls-30" d="m104.38,94.53c-.02-.58.69-1.08,1.6-1.12.91-.04,1.66.4,1.68.97.02.58-.69,1.08-1.6,1.13-.91.04-1.66-.39-1.68-.98Z"/>
    <path class="cls-30" d="m101.14,121.19c.37.42.14,1.3-.52,1.97-.66.66-1.5.86-1.87.43-.37-.42-.14-1.3.52-1.97.66-.66,1.5-.85,1.87-.43Z"/>
    <path class="cls-30" d="m125.34,115.01c-.03-.58.69-1.08,1.6-1.12.91-.04,1.66.39,1.68.98.02.58-.69,1.08-1.6,1.12-.9.04-1.66-.39-1.68-.98Z"/>
    <path class="cls-30" d="m100.52,125.92c-.32.47-1.17.39-1.91-.18-.73-.57-1.07-1.41-.75-1.88.32-.47,1.17-.39,1.91.18.73.57,1.07,1.41.75,1.88Z"/>
    <path class="cls-30" d="m127.4,125.57c-.32.47-1.17.39-1.91-.18-.73-.57-1.06-1.41-.75-1.88.32-.47,1.17-.39,1.91.18.73.57,1.07,1.41.75,1.88Z"/>
    <path class="cls-30" d="m133.31,117.98c-.32.47-1.17.39-1.9-.18-.73-.57-1.07-1.41-.75-1.88.32-.47,1.17-.39,1.91.18.73.57,1.07,1.41.75,1.88Z"/>
    <path class="cls-30" d="m117.98,130.54c-.32.47-1.17.39-1.91-.18-.73-.57-1.07-1.41-.75-1.88.32-.47,1.17-.39,1.91.18.73.57,1.07,1.41.75,1.88Z"/>
    <path class="cls-30" d="m105.08,124.58c-.32.47-1.17.39-1.91-.18-.73-.57-1.07-1.41-.75-1.88.32-.47,1.17-.39,1.91.18.73.57,1.07,1.41.75,1.88Z"/>
    <path class="cls-30" d="m105.08,120.35c-.32.47-1.17.39-1.91-.18-.73-.57-1.07-1.41-.75-1.88.32-.47,1.17-.39,1.91.18.73.57,1.07,1.41.75,1.88Z"/>
    <path class="cls-30" d="m108.87,116.02c-.32.47-1.17.39-1.91-.18-.73-.57-1.07-1.41-.75-1.88.32-.47,1.17-.39,1.91.18.73.57,1.07,1.41.75,1.88Z"/>
    <path class="cls-30" d="m123.69,111.77c-.37-.43-.13-1.31.54-1.96.67-.66,1.5-.84,1.87-.42.37.43.13,1.3-.53,1.96-.67.66-1.51.84-1.87.42Z"/>
    <path class="cls-30" d="m126.01,121.42c-.32.46-1.24.44-2.05-.03-.81-.48-1.2-1.24-.88-1.69.32-.46,1.24-.45,2.05.03.81.48,1.2,1.24.88,1.7Z"/>
    <path class="cls-30" d="m122.23,124.89c-.53-.22-.62-1.06-.21-1.89.42-.83,1.18-1.32,1.71-1.11.53.22.62,1.06.21,1.89-.42.83-1.18,1.32-1.71,1.1Z"/>
    <path class="cls-30" d="m124.47,129.05c-.53-.22-.62-1.06-.2-1.89.42-.83,1.18-1.32,1.71-1.11.53.22.62,1.06.21,1.89-.42.83-1.18,1.32-1.71,1.11Z"/>
    <path class="cls-30" d="m128.64,128.19c-.53-.22-.62-1.06-.2-1.89.42-.83,1.18-1.32,1.71-1.1.53.21.62,1.06.21,1.89-.42.83-1.18,1.32-1.71,1.11Z"/>
    <path class="cls-30" d="m129.46,120.4c.57-.14,1.21.45,1.44,1.32.22.87-.05,1.69-.62,1.83-.57.14-1.21-.45-1.44-1.32-.22-.87.05-1.69.62-1.83Z"/>
    <path class="cls-30" d="m125.99,128.2c.57-.14,1.21.45,1.43,1.32.22.87-.05,1.69-.62,1.83-.57.14-1.21-.45-1.43-1.32-.22-.87.05-1.69.62-1.83Z"/>
    <path class="cls-30" d="m118.67,123.03c-.53-.22-.62-1.06-.2-1.89.41-.83,1.18-1.32,1.71-1.1.53.22.62,1.06.21,1.89-.42.83-1.18,1.32-1.71,1.11Z"/>
    <path class="cls-30" d="m127.1,133.58c-.5.27-1.31-.14-1.83-.93-.52-.78-.54-1.64-.04-1.91.5-.27,1.31.14,1.83.93.52.78.53,1.63.04,1.91Z"/>
    <path class="cls-30" d="m116.83,144.69c-.38-.43-.08-1.23.65-1.79.74-.56,1.65-.67,2.02-.25.38.42.09,1.22-.65,1.79-.74.56-1.65.67-2.03.25Z"/>
    <path class="cls-30" d="m112.43,139.88c-.38-.42-.08-1.22.65-1.79.74-.56,1.64-.67,2.02-.25.38.42.09,1.22-.65,1.79-.74.56-1.64.67-2.02.25Z"/>
    <path class="cls-30" d="m110.75,131.18c.57.12.88.93.7,1.81-.19.88-.8,1.5-1.37,1.37-.57-.12-.89-.93-.7-1.82.18-.88.8-1.5,1.37-1.37Z"/>
    <path class="cls-30" d="m105.4,138.38c-.38-.42-.08-1.22.65-1.79.74-.56,1.65-.67,2.02-.25.38.43.09,1.22-.65,1.79-.74.56-1.64.67-2.02.25Z"/>
    <path class="cls-30" d="m112.57,140.91c.34-.45,1.19-.33,1.9.27.71.6,1,1.46.66,1.92-.34.45-1.19.33-1.89-.27-.71-.6-1-1.46-.66-1.92Z"/>
    <path class="cls-30" d="m158.95,139.49c-.06.58-.84.97-1.74.89-.9-.09-1.59-.63-1.52-1.2.06-.58.84-.98,1.74-.89.9.09,1.59.62,1.53,1.2Z"/>
    <path class="cls-30" d="m134.97,140.79c.53-.2,1.28.33,1.68,1.18.39.85.29,1.7-.24,1.89-.53.2-1.28-.33-1.68-1.18-.4-.85-.29-1.7.24-1.89Z"/>
    <path class="cls-30" d="m146.74,131.25c.31.47-.09,1.22-.9,1.67-.81.45-1.73.43-2.04-.04-.31-.48.09-1.22.9-1.68.81-.45,1.72-.43,2.04.04Z"/>
    <path class="cls-30" d="m150.4,136.63c.31.47-.09,1.22-.91,1.68-.81.45-1.72.43-2.04-.04-.32-.48.09-1.22.9-1.67.81-.45,1.72-.43,2.04.04Z"/>
    <path class="cls-30" d="m150.81,145.48c-.55-.2-.74-1.05-.43-1.89.31-.85,1.01-1.37,1.56-1.16.55.2.74,1.05.43,1.9-.31.84-1,1.37-1.56,1.16Z"/>
    <path class="cls-30" d="m157.14,139.11c.31.47-.09,1.22-.91,1.67-.81.45-1.72.43-2.04-.04-.31-.47.09-1.22.9-1.68.81-.45,1.73-.43,2.04.04Z"/>
    <path class="cls-30" d="m126.69,88.75c.31.47-.09,1.22-.91,1.67-.81.45-1.72.43-2.04-.04-.31-.47.09-1.23.9-1.68.81-.45,1.72-.43,2.04.04Z"/>
    <path class="cls-30" d="m150.41,135.59c-.41.4-1.23.16-1.84-.54-.61-.7-.78-1.59-.37-1.99.41-.4,1.23-.16,1.84.54.61.7.78,1.59.37,1.99Z"/>
    <path class="cls-30" d="m128.85,125.95c.34-.44,1.26-.39,2.04.12.78.51,1.14,1.29.79,1.73-.35.44-1.26.39-2.05-.12-.78-.51-1.13-1.29-.79-1.74Z"/>
    <path class="cls-30" d="m111.1,107.79c-.37-.43-.13-1.3.54-1.96.67-.66,1.5-.85,1.87-.42.37.43.13,1.3-.53,1.96-.67.66-1.5.85-1.87.42Z"/>
    <path class="cls-30" d="m116.96,101.04c-.37-.42-.13-1.3.54-1.96.66-.66,1.5-.85,1.87-.42.37.43.13,1.3-.54,1.96-.67.66-1.5.84-1.88.42Z"/>
    <path class="cls-30" d="m134.79,99.86c-.37-.42-.13-1.3.54-1.96.66-.66,1.5-.85,1.87-.42.37.42.13,1.3-.53,1.96-.67.66-1.51.84-1.87.42Z"/>
    <path class="cls-30" d="m102.55,111.77c-.37-.43-.13-1.31.54-1.96.66-.66,1.5-.84,1.87-.42.37.43.13,1.3-.54,1.96-.66.66-1.51.84-1.87.42Z"/>
    <path class="cls-30" d="m135.97,111.42c-.36.44-1.2.3-1.89-.32-.69-.62-.96-1.49-.6-1.93.35-.44,1.2-.3,1.89.32.69.62.96,1.49.61,1.93Z"/>
    <path class="cls-30" d="m134.08,102.68c-.34-.45-.03-1.31.68-1.92.71-.6,1.57-.73,1.9-.28.34.45.03,1.31-.68,1.92-.71.61-1.57.73-1.9.28Z"/>
    <path class="cls-30" d="m97.55,117.98c-.02-.58.69-1.08,1.6-1.12.91-.04,1.66.39,1.68.97.03.58-.69,1.08-1.59,1.13-.9.04-1.66-.39-1.68-.98Z"/>
    <path class="cls-30" d="m151.02,112.34c-.32.47-1.17.39-1.91-.18-.73-.57-1.07-1.41-.75-1.88.32-.47,1.17-.39,1.91.18.73.57,1.07,1.41.75,1.88Z"/>
    <path class="cls-30" d="m148.31,107.52c-.37-.43-.13-1.3.54-1.96.67-.66,1.5-.85,1.87-.42.37.43.13,1.3-.53,1.96-.67.66-1.5.85-1.88.42Z"/>
    <path class="cls-30" d="m139.71,114.29c-.02-.58.69-1.08,1.6-1.13.9-.04,1.66.4,1.68.98.02.58-.69,1.08-1.6,1.13-.91.04-1.66-.39-1.68-.98Z"/>
    <path class="cls-30" d="m104.55,122.93c-.02-.58.69-1.08,1.6-1.12.91-.04,1.66.39,1.68.97.02.58-.69,1.08-1.6,1.13-.91.04-1.66-.39-1.68-.98Z"/>
    <path class="cls-30" d="m113.09,105.57c-.02-.58.69-1.08,1.6-1.13.91-.04,1.66.4,1.68.98.02.58-.69,1.08-1.6,1.13-.91.04-1.66-.4-1.68-.98Z"/>
  </g>
  <g>
    <path class="cls-26" d="m83.51,117.99c5.16,17.02-4.56,34.97-21.72,40.09-17.16,5.12-35.25-4.53-40.41-21.55-5.16-17.02-.49-51.63,16.67-56.75,17.16-5.12,40.3,21.19,45.46,38.21Z"/>
    <g>
      <path class="cls-28" d="m78.33,123.31c1.75,14.03-8.3,26.8-22.44,28.54-14.14,1.73-27.02-8.23-28.77-22.26-1.75-14.02,8.3-26.8,22.44-28.53,14.14-1.73,27.02,8.23,28.77,22.25Z"/>
      <path class="cls-29" d="m57.72,139.72c-14.14,1.73-27.02-8.23-28.77-22.25-.03-.25-.05-.5-.07-.75-1.64,3.94-2.31,8.34-1.75,12.87,1.75,14.02,14.63,23.99,28.77,22.25,13.89-1.7,23.82-14.06,22.51-27.78-3.43,8.25-11.12,14.49-20.69,15.66Z"/>
      <path class="cls-5" d="m72.07,119.67c6.92-5.46-18.81-14.26-24.59-13.28-3.8.65-12.76,4.27-8.87,9.37,1.6,2.1,29.55,5.9,31.85,4.85.66-.3,1.19-.62,1.61-.94Z"/>
    </g>
  </g>
</svg>