<?xml version="1.0" encoding="utf-8"?>
<!-- Generator: Adobe Illustrator 27.9.0, SVG Export Plug-In . SVG Version: 6.00 Build 0)  -->
<svg version="1.1" id="Layer_1" xmlns="http://www.w3.org/2000/svg" xmlns:xlink="http://www.w3.org/1999/xlink" x="0px" y="0px"
	 viewBox="0 0 95.21 95.75" style="enable-background:new 0 0 95.21 95.75;" xml:space="preserve">
<style type="text/css">
	.st0{fill-rule:evenodd;clip-rule:evenodd;fill:#F4F5F7;}
	.st1{fill-rule:evenodd;clip-rule:evenodd;fill:#E3E4E9;}
	.st2{fill-rule:evenodd;clip-rule:evenodd;fill:#FF6224;}
	.st3{fill-rule:evenodd;clip-rule:evenodd;fill:#ED4605;}
	.st4{fill-rule:evenodd;clip-rule:evenodd;fill:#A60603;}
	.st5{fill-rule:evenodd;clip-rule:evenodd;fill:#865334;}
	.st6{fill:#BD8F4F;}
	.st7{fill:#CEA265;}
	.st8{fill-rule:evenodd;clip-rule:evenodd;fill:#A66A44;}
	.st9{fill-rule:evenodd;clip-rule:evenodd;fill:#542E17;}
	.st10{fill-rule:evenodd;clip-rule:evenodd;fill:#663B20;}
	.st11{fill:#519A48;}
	.st12{fill-rule:evenodd;clip-rule:evenodd;fill:#F5DEB6;}
	.st13{fill:#FFF3DA;}
	.st14{fill:#FA692F;}
	.st15{fill:#EFD05C;}
	.st16{fill-rule:evenodd;clip-rule:evenodd;fill:#2E2D33;}
	.st17{fill-rule:evenodd;clip-rule:evenodd;fill:#4D4C52;}
	.st18{fill-rule:evenodd;clip-rule:evenodd;fill:#828287;}
	.st19{fill-rule:evenodd;clip-rule:evenodd;fill:#D23508;}
	.st20{fill-rule:evenodd;clip-rule:evenodd;fill:#BA2D06;}
	.st21{fill-rule:evenodd;clip-rule:evenodd;fill:#B52E1A;}
	.st22{fill-rule:evenodd;clip-rule:evenodd;fill:#E69B4C;}
	.st23{fill-rule:evenodd;clip-rule:evenodd;fill:#EB7538;}
	.st24{fill-rule:evenodd;clip-rule:evenodd;fill:#DB662C;}
	.st25{fill-rule:evenodd;clip-rule:evenodd;fill:#66666B;}
	.st26{fill-rule:evenodd;clip-rule:evenodd;fill:#DB5128;}
	.st27{fill-rule:evenodd;clip-rule:evenodd;fill:#F7B268;}
	.st28{fill-rule:evenodd;clip-rule:evenodd;fill:#CC3D26;}
	.st29{fill-rule:evenodd;clip-rule:evenodd;fill:#D9B685;}
	.st30{fill-rule:evenodd;clip-rule:evenodd;fill:#FFECD1;}
	.st31{fill-rule:evenodd;clip-rule:evenodd;fill:#358541;}
	.st32{fill-rule:evenodd;clip-rule:evenodd;fill:#26632F;}
	.st33{fill-rule:evenodd;clip-rule:evenodd;fill:#FFCCB5;}
	.st34{fill-rule:evenodd;clip-rule:evenodd;fill:#F2B922;}
	.st35{fill-rule:evenodd;clip-rule:evenodd;fill:#F3CD2E;}
	.st36{fill-rule:evenodd;clip-rule:evenodd;fill:#FAF19B;}
	.st37{fill-rule:evenodd;clip-rule:evenodd;fill:#F3FFD9;}
	.st38{fill-rule:evenodd;clip-rule:evenodd;fill:#D1E3AA;}
	.st39{fill-rule:evenodd;clip-rule:evenodd;fill:#85522E;}
	.st40{fill-rule:evenodd;clip-rule:evenodd;fill:#C77B45;}
	.st41{fill-rule:evenodd;clip-rule:evenodd;fill:#A36539;}
	.st42{fill-rule:evenodd;clip-rule:evenodd;}
	.st43{fill-rule:evenodd;clip-rule:evenodd;fill:#C7C7C9;}
	.st44{fill-rule:evenodd;clip-rule:evenodd;fill:#99441D;}
	.st45{fill-rule:evenodd;clip-rule:evenodd;fill:#6B2605;}
	.st46{fill-rule:evenodd;clip-rule:evenodd;fill:#AD5025;}
	.st47{fill-rule:evenodd;clip-rule:evenodd;fill:#C75925;}
	.st48{fill-rule:evenodd;clip-rule:evenodd;fill:#B5582D;}
	.st49{fill-rule:evenodd;clip-rule:evenodd;fill:#519A48;}
	.st50{fill-rule:evenodd;clip-rule:evenodd;fill:#FBD5B0;}
	.st51{fill:#E8BC90;}
	.st52{fill-rule:evenodd;clip-rule:evenodd;fill:#7A3312;}
	.st53{fill-rule:evenodd;clip-rule:evenodd;fill:#FA7D44;}
	.st54{fill-rule:evenodd;clip-rule:evenodd;fill:#FCE38F;}
	.st55{fill-rule:evenodd;clip-rule:evenodd;fill:#464AA6;}
	.st56{fill-rule:evenodd;clip-rule:evenodd;fill:#00C36C;}
	.st57{fill-rule:evenodd;clip-rule:evenodd;fill:#006B43;}
	.st58{fill-rule:evenodd;clip-rule:evenodd;fill:#C5C6C9;}
	.st59{fill-rule:evenodd;clip-rule:evenodd;fill:#FFC250;}
	.st60{fill-rule:evenodd;clip-rule:evenodd;fill:#FFD177;}
	.st61{fill:#FFE7B8;}
	.st62{fill-rule:evenodd;clip-rule:evenodd;fill:#3A3940;}
	.st63{fill-rule:evenodd;clip-rule:evenodd;fill:#F7C35B;}
	.st64{fill-rule:evenodd;clip-rule:evenodd;fill:#BF9A76;}
	.st65{fill-rule:evenodd;clip-rule:evenodd;fill:#452508;}
	.st66{fill-rule:evenodd;clip-rule:evenodd;fill:#BF8B24;}
	.st67{fill-rule:evenodd;clip-rule:evenodd;fill:#C44918;}
	.st68{fill-rule:evenodd;clip-rule:evenodd;fill:#E6AC37;}
	.st69{fill-rule:evenodd;clip-rule:evenodd;fill:#522C0B;}
	.st70{fill-rule:evenodd;clip-rule:evenodd;fill:#E6551C;}
	.st71{fill-rule:evenodd;clip-rule:evenodd;fill:#EDD4A1;}
	.st72{fill-rule:evenodd;clip-rule:evenodd;fill:#784212;}
	.st73{fill-rule:evenodd;clip-rule:evenodd;fill:#F77745;}
	.st74{fill-rule:evenodd;clip-rule:evenodd;fill:#66380F;}
	.st75{fill-rule:evenodd;clip-rule:evenodd;fill:#995B25;}
	.st76{fill-rule:evenodd;clip-rule:evenodd;fill:#FF4F0C;}
	.st77{fill-rule:evenodd;clip-rule:evenodd;fill:#FAD58C;}
	.st78{fill-rule:evenodd;clip-rule:evenodd;fill:#FFF3DA;}
	.st79{fill-rule:evenodd;clip-rule:evenodd;fill:#D3D4D6;}
	.st80{fill-rule:evenodd;clip-rule:evenodd;fill:#EEF5FB;}
	.st81{fill-rule:evenodd;clip-rule:evenodd;fill:#DAE3EB;}
	.st82{fill-rule:evenodd;clip-rule:evenodd;fill:#C8CED4;}
	.st83{fill-rule:evenodd;clip-rule:evenodd;fill:#CAD3DB;}
	.st84{fill-rule:evenodd;clip-rule:evenodd;fill:#FDD657;}
	.st85{fill-rule:evenodd;clip-rule:evenodd;fill:#F0C330;}
	.st86{fill-rule:evenodd;clip-rule:evenodd;fill:#315E38;}
	.st87{fill-rule:evenodd;clip-rule:evenodd;fill:#99AE4C;}
	.st88{fill-rule:evenodd;clip-rule:evenodd;fill:#D6E0E8;}
	.st89{fill-rule:evenodd;clip-rule:evenodd;fill:#FFD6C7;}
	.st90{fill-rule:evenodd;clip-rule:evenodd;fill:#BD7E18;}
	.st91{fill-rule:evenodd;clip-rule:evenodd;fill:#D5962F;}
	.st92{fill-rule:evenodd;clip-rule:evenodd;fill:#E6A947;}
	.st93{fill-rule:evenodd;clip-rule:evenodd;fill:#EDB356;}
	.st94{fill-rule:evenodd;clip-rule:evenodd;fill:#DBB97F;}
	.st95{fill-rule:evenodd;clip-rule:evenodd;fill:#EACB97;}
	.st96{fill-rule:evenodd;clip-rule:evenodd;fill:#E3BF81;}
	.st97{fill:#333333;}
	.st98{fill-rule:evenodd;clip-rule:evenodd;fill:#754528;}
	.st99{fill:#242323;}
	.st100{fill-rule:evenodd;clip-rule:evenodd;fill:#E3E4E6;}
	.st101{fill-rule:evenodd;clip-rule:evenodd;fill:#FC8A31;}
	.st102{fill-rule:evenodd;clip-rule:evenodd;fill:#E67017;}
	.st103{fill-rule:evenodd;clip-rule:evenodd;fill:#6BBA61;}
	.st104{fill-rule:evenodd;clip-rule:evenodd;fill:#FCAB6D;}
	.st105{fill-rule:evenodd;clip-rule:evenodd;fill:#FFBE8C;}
	.st106{fill:#006B43;}
	.st107{fill-rule:evenodd;clip-rule:evenodd;fill:#FA692F;}
	.st108{fill-rule:evenodd;clip-rule:evenodd;fill:#9E3E03;}
	.st109{fill-rule:evenodd;clip-rule:evenodd;fill:#C27100;}
	.st110{fill-rule:evenodd;clip-rule:evenodd;fill:#B34602;}
	.st111{fill-rule:evenodd;clip-rule:evenodd;fill:#D68007;}
	.st112{fill-rule:evenodd;clip-rule:evenodd;fill:#FDFEFF;}
	.st113{fill-rule:evenodd;clip-rule:evenodd;fill:#A66805;}
	.st114{fill-rule:evenodd;clip-rule:evenodd;fill:#CC4F00;}
	.st115{fill-rule:evenodd;clip-rule:evenodd;fill:#E68B09;}
	.st116{fill-rule:evenodd;clip-rule:evenodd;fill:#123618;}
	.st117{fill-rule:evenodd;clip-rule:evenodd;fill:#1C4622;}
	.st118{fill:#1C4622;}
	.st119{fill:#315E38;}
	.st120{fill-rule:evenodd;clip-rule:evenodd;fill:#D7D7DB;}
	.st121{fill-rule:evenodd;clip-rule:evenodd;fill:#FFFFFF;}
	.st122{fill-rule:evenodd;clip-rule:evenodd;fill:#C8CAC9;}
	.st123{fill-rule:evenodd;clip-rule:evenodd;fill:#B3B0A9;}
	.st124{fill-rule:evenodd;clip-rule:evenodd;fill:#E8DFE0;}
	.st125{fill-rule:evenodd;clip-rule:evenodd;fill:#AD8F8C;}
	.st126{fill-rule:evenodd;clip-rule:evenodd;fill:#BE9F9C;}
	.st127{fill-rule:evenodd;clip-rule:evenodd;fill:#5E4830;}
	.st128{fill:#96735A;}
	.st129{fill:#AD866B;}
	.st130{fill:#C5A189;}
	.st131{fill-rule:evenodd;clip-rule:evenodd;fill:#69523A;}
	.st132{fill-rule:evenodd;clip-rule:evenodd;fill:#DBDBDB;}
	.st133{fill-rule:evenodd;clip-rule:evenodd;fill:#F2F2F2;}
	.st134{fill-rule:evenodd;clip-rule:evenodd;fill:#6F952E;}
	.st135{fill-rule:evenodd;clip-rule:evenodd;fill:#D4E2A5;}
	.st136{fill-rule:evenodd;clip-rule:evenodd;fill:#C8D384;}
	.st137{fill-rule:evenodd;clip-rule:evenodd;fill:#F8FDFF;}
	.st138{fill-rule:evenodd;clip-rule:evenodd;fill:#F7D981;}
	.st139{fill-rule:evenodd;clip-rule:evenodd;fill:#FDE396;}
	.st140{fill-rule:evenodd;clip-rule:evenodd;fill:#E7A96E;}
	.st141{fill-rule:evenodd;clip-rule:evenodd;fill:#BA7E47;}
	.st142{fill:#FFFFFF;}
	.st143{fill-rule:evenodd;clip-rule:evenodd;fill:#C5A189;}
	.st144{fill-rule:evenodd;clip-rule:evenodd;fill:#951806;}
	.st145{fill-rule:evenodd;clip-rule:evenodd;fill:#801303;}
	.st146{fill-rule:evenodd;clip-rule:evenodd;fill:#D4510D;}
	.st147{fill-rule:evenodd;clip-rule:evenodd;fill:#E6C18A;}
	.st148{fill-rule:evenodd;clip-rule:evenodd;fill:#D59D5E;}
	.st149{fill-rule:evenodd;clip-rule:evenodd;fill:#D47507;}
	.st150{fill-rule:evenodd;clip-rule:evenodd;fill:#E38D2B;}
	.st151{fill-rule:evenodd;clip-rule:evenodd;fill:#BD6704;}
	.st152{fill-rule:evenodd;clip-rule:evenodd;fill:#E8891C;}
	.st153{fill-rule:evenodd;clip-rule:evenodd;fill:#D56400;}
	.st154{fill-rule:evenodd;clip-rule:evenodd;fill:#E6844E;}
	.st155{fill-rule:evenodd;clip-rule:evenodd;fill:#F1E2BB;}
	.st156{fill:#A33803;}
	.st157{fill-rule:evenodd;clip-rule:evenodd;fill:#A33803;}
	.st158{fill-rule:evenodd;clip-rule:evenodd;fill:#B54306;}
	.st159{fill-rule:evenodd;clip-rule:evenodd;fill:#EA6321;}
	.st160{fill-rule:evenodd;clip-rule:evenodd;fill:#821909;}
	.st161{fill-rule:evenodd;clip-rule:evenodd;fill:#C44B0E;}
	.st162{fill-rule:evenodd;clip-rule:evenodd;fill:#B3320E;}
	.st163{fill-rule:evenodd;clip-rule:evenodd;fill:#BA874D;}
	.st164{fill-rule:evenodd;clip-rule:evenodd;fill:#6F351B;}
	.st165{fill-rule:evenodd;clip-rule:evenodd;fill:#5C2C15;}
	.st166{fill-rule:evenodd;clip-rule:evenodd;fill:#FA8950;}
	.st167{fill-rule:evenodd;clip-rule:evenodd;fill:#5E401D;}
	.st168{fill:#D59D5E;}
	.st169{fill:#BA874D;}
	.st170{fill:#E4C292;}
	.st171{fill:#EA6321;}
	.st172{fill:#FA8950;}
	.st173{fill-rule:evenodd;clip-rule:evenodd;fill:#8C5B34;}
	.st174{fill:#CF9470;}
	.st175{fill-rule:evenodd;clip-rule:evenodd;fill:#AA7448;}
	.st176{fill:#EFB795;}
	.st177{fill-rule:evenodd;clip-rule:evenodd;fill:#C9D98B;}
	.st178{fill-rule:evenodd;clip-rule:evenodd;fill:#93B04A;}
	.st179{fill-rule:evenodd;clip-rule:evenodd;fill:#D1E18E;}
	.st180{fill-rule:evenodd;clip-rule:evenodd;fill:#ABCB5C;}
	.st181{fill-rule:evenodd;clip-rule:evenodd;fill:#F0DEAD;}
	.st182{fill-rule:evenodd;clip-rule:evenodd;fill:#DEBA59;}
	.st183{fill-rule:evenodd;clip-rule:evenodd;fill:#E6D3A1;}
	.st184{fill-rule:evenodd;clip-rule:evenodd;fill:#FFF3D3;}
	.st185{fill-rule:evenodd;clip-rule:evenodd;fill:#F7D474;}
	.st186{fill-rule:evenodd;clip-rule:evenodd;fill:#A86046;}
	.st187{fill-rule:evenodd;clip-rule:evenodd;fill:#CF0200;}
	.st188{fill-rule:evenodd;clip-rule:evenodd;fill:#FF2D29;}
	.st189{fill-rule:evenodd;clip-rule:evenodd;fill:#43983E;}
	.st190{fill-rule:evenodd;clip-rule:evenodd;fill:#136B29;}
	.st191{fill-rule:evenodd;clip-rule:evenodd;fill:#D1E694;}
	.st192{fill-rule:evenodd;clip-rule:evenodd;fill:#218239;}
	.st193{fill-rule:evenodd;clip-rule:evenodd;fill:#035C3B;}
	.st194{fill-rule:evenodd;clip-rule:evenodd;fill:#54A051;}
	.st195{fill-rule:evenodd;clip-rule:evenodd;fill:#FFCBA3;}
	.st196{fill-rule:evenodd;clip-rule:evenodd;fill:#EB9350;}
	.st197{fill:#EB9350;}
	.st198{fill-rule:evenodd;clip-rule:evenodd;fill:#BDBDBB;}
	.st199{fill-rule:evenodd;clip-rule:evenodd;fill:#A15E23;}
</style>
<path class="st100" d="M63.57,2.79c24.76,8.87,37.69,36.24,28.87,61.14c-8.82,24.9-36.04,37.9-60.8,29.03
	C6.88,84.1-6.05,56.72,2.77,31.82C11.59,6.92,38.81-6.08,63.57,2.79L63.57,2.79z"/>
<path class="st80" d="M62.99,4.43c23.86,8.54,36.32,34.92,27.82,58.92c-8.5,23.99-34.73,36.52-58.59,27.98
	C8.36,82.78-4.09,56.4,4.4,32.4C12.9,8.41,39.13-4.12,62.99,4.43L62.99,4.43z"/>
<path class="st81" d="M59.44,14.47c18.35,6.57,27.92,26.85,21.39,45.3c-6.53,18.45-26.7,28.08-45.05,21.51
	c-18.35-6.57-27.92-26.85-21.39-45.3C20.92,17.53,41.09,7.9,59.44,14.47L59.44,14.47z"/>
<path class="st83" d="M59.44,14.47c4.13,1.48,7.81,3.65,10.97,6.34c-2.32-1.53-4.85-2.81-7.58-3.79
	c-18.35-6.57-38.52,3.06-45.05,21.51c-5.06,14.3-0.45,29.7,10.42,38.96c-13.26-8.77-19.38-25.8-13.81-41.51
	C20.92,17.53,41.09,7.9,59.44,14.47L59.44,14.47z"/>
<path class="st3" d="M71.38,73.14c-13.9,12.37-35.15,11.06-47.45-2.92c-12.3-13.98-11-35.35,2.9-47.72
	c13.9-12.37,35.15-11.06,47.45,2.92S85.29,60.77,71.38,73.14L71.38,73.14z"/>
<path class="st101" d="M49.13,87.33c0,0-10.2,1.09-13.85-0.94c-3.64-2.03-0.05,0.81-4.68-8.59c-4.63-9.4-12.34-12.48-9.74-28.56
	c2.59-16.08,7.29-26.88,10.5-28.04c3.21-1.16,6.43-2.49,13.31-0.62s16.24-1.53,23.16,4.04c6.93,5.57,10.88,8.34,10.32,14.62
	c-0.55,6.27-4.57,23.11-8.07,29.45c-3.5,6.34-9.67,8.6-13.18,11.73C53.4,83.53,51.07,87.04,49.13,87.33L49.13,87.33z"/>
<path class="st102" d="M32.76,68.91c0,0-4.99-15.96-2.94-28.32c2.05-12.37,3.46-20.08,4.64-20.28c1.18-0.2,3.42,1.2,3.42,1.2
	s-5.78,13.22-5.19,23.88C33.27,56.05,34.69,71.11,32.76,68.91L32.76,68.91z"/>
<path class="st102" d="M49.84,74.12c0.95-0.84,5.2-1.39,11.39-12.51c6.19-11.12,4.43-16.77,5.67-20.17
	c1.24-3.4,0.07-11.06,1.37-11.51c1.3-0.45,4.45,1.41,4.45,1.41s-1.16,6.56-4.15,18.15c-3,11.58-5.9,14.86-9.51,18.87
	C55.44,72.36,50.36,75.27,49.84,74.12L49.84,74.12z"/>
<path class="st102" d="M44.03,71.3c0.43-1.82,0.29-11.22,4.01-20.31c3.72-9.09,6.15-11.76,6.76-15.88c0.61-4.11,2.49,2.02,2.15,4.84
	c-0.35,2.82-6.53,13.33-7.41,17.61C48.64,61.84,45.2,72.63,44.03,71.3L44.03,71.3z"/>
<path class="st102" d="M38.82,58.08c0,0-0.99-1.33,0.36-8.48c1.34-7.15,1.95-13.3,3.02-16.88c1.07-3.59,2.56,4.95,0,11.18
	C39.64,50.13,39.81,61.51,38.82,58.08L38.82,58.08z"/>
<path class="st102" d="M61.06,70.68c0.24-0.21,4.9-2.57,8.1-8.99c3.2-6.42,2.76-9.51,3.91-10.7c1.15-1.19,1.02,0.88-0.8,5.81
	C70.48,61.63,66.77,69.78,61.06,70.68L61.06,70.68z"/>
<path class="st102" d="M54.03,66.48c0,0-0.8-5.57,3.03-13.23c3.83-7.66,5.82-12.25,5.29-11.78c-0.53,0.47-0.9-0.92-1.96,1.75
	c-1.06,2.66-4.05,8.75-5.87,12.49C52.69,59.45,52.91,67.48,54.03,66.48L54.03,66.48z"/>
<path class="st102" d="M46.59,38.74c0.21-0.53,0.48-4.16-1.91-7.65c-2.39-3.48-1.12-4.45,1.01-4.13c2.14,0.31,5.08-6.14,6.56-1.67
	C53.73,29.75,47.95,40.28,46.59,38.74L46.59,38.74z"/>
<path class="st102" d="M61.43,36.86c0.62-0.06,3.65-7.94,2.2-7.24c-1.45,0.7-3.5,4.16-3.37,0.88c0.13-3.28-1.46-5.04-1.56-1.78
	C58.58,31.98,58.89,40.13,61.43,36.86L61.43,36.86z"/>
<path class="st49" d="M78.59,38.96c-1.73-7,3.51-8.47-1.88-18.07c-1.27-2.26-2.58-3.32-3.99-3.67c-1.41-0.36-0.75-1.71-2.22-2.53
	c-1.48-0.81-1.23-0.44-2.83-0.72c-1.6-0.28-1.86-2.68-6.77-3.75C56,9.14,57.93,6.23,54.57,7.52c-3.36,1.29-2.89,2.4-6.75,1.08
	c-3.86-1.33-2.43,1.65-6.52,1.04c-4.09-0.61-3.52-1.12-5.34,0.84c-1.82,1.96,0.7,2.91-3.14,4.5c-3.84,1.59-6.27-0.3-6.12,3.61
	c0.15,3.91,3.53,3.36,1.36,5.29c-2.17,1.93-1.53,5.03,0.06,4.46c1.59-0.57,3.39-3.52,6.67-4.4c3.28-0.88,2.59,1.6,5.86-0.45
	c3.26-2.05,5.32-2.02,6.23-0.61c0.9,1.41,0.01,2.71,2.84,0.54c2.82-2.17,2.94-2.79,7.16,0.26c4.22,3.05,3.66,1.09,7.68,3.54
	c4.02,2.45,0.77,5.1,5.26,5.01c4.49-0.08,6.26,1.74,5.8,3.51C75.12,37.52,77.17,40.22,78.59,38.96L78.59,38.96z"/>
<path class="st103" d="M78.52,24.8c-0.12-0.32-0.2-0.66-0.4-1.07c-1.33-0.9-2.59-1.75-4.63-2.91c-2.04-1.17-5.05-2.11-6.88-2.68
	c-1.83-0.57-6.02-2.61-7.05-2.29c-1.03,0.32-1.76-0.44-3.04-0.38c-1.28,0.06-1.33-0.5-4.09-0.4c-2.76,0.1-3.47,1.68-4.77,2.8
	c-1.3,1.12-2.16,1.24-2.16,1.24s0.3,0.24,1.23,0.05c0.93-0.19,2.88-1.82,4.32-2.76c1.44-0.94,4.32-0.19,4.59,0.03
	c0.28,0.22-0.98,0.3-2.29,0.49c-1.31,0.19-2.1,1.1-2.75,2.02c-0.65,0.92-2.38,2.77-2.38,2.77s1.16-0.69,3-2.65
	c1.83-1.95,5.15-1.6,7.99-1.92c2.84-0.32,4.23,1.69,8.14,2.52C71.26,20.5,76.29,23.53,78.52,24.8L78.52,24.8z M62.69,10.73
	c-0.52-0.19-1.11-0.36-1.79-0.51c-0.07-0.02-0.14-0.03-0.21-0.05c-4.03,0.73-5.34,0.06-7.79,0.22c-2.58,0.17-4.04,0.11-5.61,0.87
	c-1.57,0.76-3.85,2.45-5.11,3.32c-1.26,0.87-2.42,0.95-3.11,1.07c-0.69,0.12-1.09,1.02-2.32,2.55c-1.22,1.54-2.23,0.64-4.76,2.18
	c-2.53,1.54-2.32,2.07-2.32,2.07s3.68-2.64,5.42-2.77c1.75-0.13,2.84-2.06,2.84-2.06s-0.22,1.53-1.04,2.76
	c-0.82,1.24-3.53,1.7-4.84,2.52c-1.31,0.82-1.65,2.4-1.65,2.4s0.31-0.36,1.57-1.39c1.25-1.03,2.38-1.14,4.1-1.87
	c1.73-0.73,1.91-1.48,2.97-3.4c1.06-1.92,2.79-2.74,2.77-2.47c-0.02,0.27-0.33,1.4-1.43,3.65c-1.1,2.25-1.96,2.29-1.69,2.6
	c0.27,0.31,2.15-1.36,3.07-3.29c0.92-1.93,0.69-3.51,4.62-6.32c3.93-2.81,3.91-0.93,9.99-1.58C59.6,10.9,61.56,10.77,62.69,10.73
	L62.69,10.73z"/>
<path class="st104" d="M48.79,85.83c0,0-5.36,1.03-10.23-0.24c-4.87-1.28-4.31-2.03-5.48-5.87c-0.44-1.45,0.2-2.1,1.43-2.35
	c-2.27-2.91-7.12-10.05-7-18.02c0.16-10.4,3.52-32.03,4.36-32.61c0.84-0.58-1.68,12.5-2.29,17.76c-0.61,5.27-1.31,13.26-0.17,17.58
	c0.97,3.68,6.47,12.02,8.43,15.23c0.57,0.04,1.17,0.1,1.77,0.15c-1.16-3.33-3.93-11.86-4.04-17.59c-0.13-7.26,1.23-23,1.82-26.96
	c0.59-3.96,2.25-7.14,2.65-6.3c0.4,0.84-0.88,1.41-2.13,8.49c-1.25,7.07-1.6,22.82-1.08,25.72c0.45,2.51,4.46,13.63,5.2,16.85
	c0.41,0.03,0.81,0.04,1.21,0.05l0.02,0c-0.17-3.27-0.48-11.01-0.09-16.23c0.51-6.77,4.01-17.12,6.63-24.84
	c2.62-7.72,2.07-12.95,2.85-13.64c0.78-0.69-0.11,2.61-0.26,7.04c-0.14,4.43-3.85,13.24-4.1,14.44c-0.25,1.2-3.54,13.56-3.93,16.33
	c-0.34,2.4,0.09,13.2,0.3,16.87c0.47-0.03,0.94-0.07,1.39-0.12c0.43-2.39,1.46-6.42,4.24-13.23c4.67-11.46,8.8-21.35,10.4-24.74
	c1.6-3.39,3.88-10.85,3.82-11.36c-0.06-0.5,1.28,0.28-1.86,7.64c-3.14,7.36-6.87,17.11-7.15,17.62c-0.28,0.5-4.85,12.26-6.47,16.55
	c-1.01,2.67-1.59,5.45-1.95,7.4c1.02-0.14,1.98-0.29,2.85-0.37c3.05-2.54,9.32-8.21,14.54-15.8c7.2-10.47,8.42-27.45,8.42-27.45
	s0.49,0.12,0.3,3.13c-0.19,3.01-0.68,9.22-3.9,17.4c-3.21,8.18-9.83,15.25-12.16,17.75c-1.21,1.3-3.36,3.43-5.28,4.95
	c0.92,0.12,1.68,0.48,2.22,1.27c0.03,0.04,0.05,0.08,0.08,0.12c2.19-2.06,5.5-5.36,9.62-10.04c7.7-8.73,11.85-31.51,12.69-30.56
	c0.84,0.95-3.84,15.81-5.95,20.74c-2.11,4.93-3.21,7.4-9.68,14.69c-2.72,3.07-4.88,5.15-6.45,6.45C54,82.31,49.56,85.56,48.79,85.83
	L48.79,85.83z"/>
<path class="st103" d="M78.8,32.13c0,0-1.57-1.36-3.96-2.54c-2.39-1.18-5.82-4.09-7.25-4.11c-1.44-0.01-3.29,0.98-3.29,0.98
	s1.08-1.47,2.69-1.67c1.61-0.2,2.53,0.68,2.53,0.68s-1.18-1.73-2.94-2.21c-1.75-0.48-3.41,0.16-3.41,0.16s1.39-1.78,3.93-0.77
	c2.54,1.01,3.3,3.27,3.6,3.56c0.3,0.29,3.46,1.94,4.35,2.4C75.92,29.08,78.89,30.8,78.8,32.13L78.8,32.13z"/>
<path class="st105" d="M36.96,84.25c0.65,0.06,6.65,0.97,9.21,0.81c2.57-0.16,3.58-0.25,5.39-2.42c1.81-2.17,0.87-4.39,0.87-4.39
	s-0.08,2.84-1.79,4.35c-1.71,1.52-3.89,2.44-8.12,1.44C38.31,83.05,37.07,83.56,36.96,84.25L36.96,84.25z"/>
<path class="st105" d="M63.32,55.86c-0.36,0.32-0.95,0.23-1.32-0.19c-0.37-0.42-0.38-1.02-0.03-1.34c0.36-0.32,0.95-0.23,1.32,0.19
	C63.67,54.95,63.68,55.54,63.32,55.86L63.32,55.86z"/>
<path class="st105" d="M65.24,39.46c-0.36,0.32-0.95,0.23-1.32-0.19c-0.37-0.42-0.38-1.02-0.03-1.34c0.36-0.32,0.95-0.23,1.32,0.19
	C65.59,38.54,65.6,39.14,65.24,39.46L65.24,39.46z"/>
<path class="st105" d="M36.33,62.46c-0.36,0.32-0.95,0.23-1.32-0.19c-0.37-0.42-0.38-1.02-0.03-1.34c0.36-0.32,0.95-0.23,1.32,0.19
	C36.68,61.55,36.69,62.14,36.33,62.46L36.33,62.46z"/>
<path class="st105" d="M38.25,46.06c-0.36,0.32-0.95,0.23-1.32-0.19c-0.37-0.42-0.38-1.02-0.03-1.34c0.36-0.32,0.95-0.23,1.32,0.19
	C38.6,45.14,38.61,45.74,38.25,46.06L38.25,46.06z"/>
<path class="st105" d="M53.96,48.16c-0.36,0.32-0.95,0.23-1.32-0.19c-0.37-0.42-0.38-1.02-0.03-1.34c0.36-0.32,0.95-0.23,1.32,0.19
	C54.3,47.25,54.31,47.85,53.96,48.16L53.96,48.16z"/>
<path class="st105" d="M55.88,31.76c-0.36,0.32-0.95,0.23-1.32-0.19c-0.37-0.42-0.38-1.02-0.03-1.34c0.36-0.32,0.95-0.23,1.32,0.19
	C56.22,30.85,56.24,31.44,55.88,31.76L55.88,31.76z"/>
<path class="st105" d="M29.03,51.55c-0.36,0.32-0.95,0.23-1.32-0.19c-0.37-0.42-0.38-1.02-0.03-1.34c0.36-0.32,0.95-0.23,1.32,0.19
	C29.37,50.63,29.39,51.23,29.03,51.55L29.03,51.55z"/>
<path class="st105" d="M30.95,35.14c-0.36,0.32-0.95,0.23-1.32-0.19c-0.37-0.42-0.38-1.02-0.03-1.34c0.36-0.32,0.95-0.23,1.32,0.19
	C31.3,34.23,31.31,34.83,30.95,35.14L30.95,35.14z"/>
<path class="st105" d="M45.78,78.82c-0.36,0.32-0.95,0.23-1.32-0.19c-0.37-0.42-0.38-1.02-0.03-1.34c0.36-0.32,0.95-0.23,1.32,0.19
	C46.12,77.9,46.14,78.5,45.78,78.82L45.78,78.82z"/>
<path class="st105" d="M47.7,62.41c-0.36,0.32-0.95,0.23-1.32-0.19c-0.37-0.42-0.38-1.02-0.03-1.34c0.36-0.32,0.95-0.23,1.32,0.19
	C48.05,61.5,48.06,62.1,47.7,62.41L47.7,62.41z"/>
<path class="st3" d="M51.04,42.37c0,0-2.06,1.23-2.05-0.14c0.01-1.37,0.11-2.06,1.08-0.96C51.04,42.37,51.04,42.37,51.04,42.37
	L51.04,42.37z M57.05,42.79c0,0-1.24,1.52-1.28,0.58c-0.04-0.94,1.16-1.43,1.28-1.14C57.17,42.53,57.33,42.54,57.05,42.79
	L57.05,42.79z M57.13,36.95c0,0-1.88,0.85-1.16-0.58C56.68,34.95,58.11,36.43,57.13,36.95L57.13,36.95z"/>
<path class="st3" d="M33.97,34.64c0,0-2.06,1.23-2.05-0.14c0.01-1.37,0.11-2.06,1.08-0.96C33.97,34.64,33.97,34.64,33.97,34.64
	L33.97,34.64z M39.99,35.06c0,0-1.24,1.52-1.28,0.58c-0.04-0.94,1.16-1.43,1.28-1.14C40.11,34.79,40.26,34.81,39.99,35.06
	L39.99,35.06z M40.06,29.22c0,0-1.88,0.85-1.16-0.58C39.61,27.21,41.05,28.7,40.06,29.22L40.06,29.22z"/>
<path class="st3" d="M38.73,59.01c0,0-2.06,1.23-2.05-0.14c0.01-1.37,0.11-2.06,1.08-0.96C38.73,59.01,38.73,59.01,38.73,59.01
	L38.73,59.01z M44.75,59.43c0,0-1.24,1.52-1.28,0.58c-0.04-0.94,1.16-1.43,1.28-1.14C44.87,59.16,45.03,59.18,44.75,59.43
	L44.75,59.43z M44.83,53.58c0,0-1.88,0.85-1.16-0.58C44.38,51.58,45.81,53.06,44.83,53.58L44.83,53.58z"/>
<path class="st3" d="M54.02,60.16c0,0-2.06,1.23-2.05-0.14c0.01-1.37,0.11-2.06,1.08-0.96C54.02,60.16,54.02,60.16,54.02,60.16
	L54.02,60.16z M60.04,60.58c0,0-1.24,1.52-1.28,0.58c-0.04-0.94,1.16-1.43,1.28-1.14C60.16,60.32,60.31,60.33,60.04,60.58
	L60.04,60.58z M60.11,54.74c0,0-1.88,0.85-1.16-0.58C59.66,52.74,61.1,54.22,60.11,54.74L60.11,54.74z"/>
<path class="st3" d="M44.67,73.49c0,0-2.06,1.23-2.05-0.14c0.01-1.37,0.11-2.06,1.08-0.96C44.67,73.49,44.67,73.49,44.67,73.49
	L44.67,73.49z M50.69,73.91c0,0-1.24,1.52-1.28,0.58c-0.04-0.94,1.16-1.43,1.28-1.14C50.81,73.64,50.97,73.66,50.69,73.91
	L50.69,73.91z M50.77,68.07c0,0-1.88,0.85-1.16-0.58C50.32,66.06,51.75,67.55,50.77,68.07L50.77,68.07z"/>
<path class="st3" d="M67.18,44.77c0,0-2.06,1.23-2.05-0.14c0.01-1.37,0.11-2.06,1.08-0.96C67.18,44.77,67.18,44.77,67.18,44.77
	L67.18,44.77z M73.2,45.19c0,0-1.24,1.52-1.28,0.58c-0.04-0.94,1.16-1.43,1.28-1.14C73.32,44.92,73.48,44.94,73.2,45.19L73.2,45.19z
	 M73.28,39.35c0,0-1.88,0.85-1.16-0.58C72.83,37.34,74.26,38.83,73.28,39.35L73.28,39.35z"/>
<path class="st106" d="M40.42,38.55c-0.01,0.01-2.82,2.08-3.33,4.03l-1.38-0.37c0.64-2.43,3.86-4.81,3.87-4.81L40.42,38.55
	L40.42,38.55z"/>
<path class="st106" d="M49.21,39.6c0,0-1.32-1.71-2.49-1.72l0-1.44c1.87,0.01,3.62,2.27,3.62,2.28L49.21,39.6L49.21,39.6z"/>
<path class="st106" d="M31.45,38.63c-0.01,0-3.37,1.64-5.28-0.6l1.08-0.94c1.2,1.4,3.59,0.24,3.59,0.23L31.45,38.63L31.45,38.63z"/>
<path class="st106" d="M59.14,53.59c0,0.01,0.85,3.41,2.45,4.63l-0.87,1.15c-1.99-1.52-2.96-5.41-2.97-5.42L59.14,53.59L59.14,53.59
	z"/>
<path class="st106" d="M63.43,45.8c-0.01,0-2.08,0.58-2.52,1.67l-1.33-0.55c0.72-1.74,3.46-2.51,3.47-2.51L63.43,45.8L63.43,45.8z"
	/>
<path class="st106" d="M55.81,61.97c0,0.01,0.23,3.76-2.55,4.69L52.8,65.3c1.74-0.58,1.58-3.25,1.57-3.26L55.81,61.97L55.81,61.97z"
	/>
<path class="st106" d="M46.68,56.28c0,0.01,0.85,3.41,2.45,4.63l-0.87,1.15c-1.99-1.52-2.96-5.41-2.97-5.42L46.68,56.28L46.68,56.28
	z"/>
<path class="st106" d="M41.32,50.19c-0.01,0-2.08,0.58-2.52,1.67l-1.33-0.55c0.72-1.74,3.46-2.51,3.47-2.51L41.32,50.19L41.32,50.19
	z"/>
<path class="st106" d="M40.85,61.65c0,0.01,0.23,3.76-2.55,4.69l-0.46-1.36c1.74-0.58,1.57-3.25,1.57-3.26L40.85,61.65L40.85,61.65z
	"/>
<path class="st106" d="M29.79,58.97c0,0.01,0.23,3.76-2.55,4.69l-0.46-1.36c1.74-0.58,1.58-3.25,1.57-3.26L29.79,58.97L29.79,58.97z
	"/>
<path class="st106" d="M58.62,30.46c-0.01,0.01-2.51,2.8-5.12,1.45l0.65-1.28c1.63,0.84,3.41-1.14,3.42-1.15L58.62,30.46
	L58.62,30.46z"/>
<path class="st106" d="M75.49,40.52c-0.01,0-2.08,0.58-2.52,1.67l-1.33-0.55c0.71-1.74,3.46-2.51,3.47-2.51L75.49,40.52L75.49,40.52
	z"/>
<path class="st107" d="M19.4,39.43c0,0-0.81,2.23-0.97,1.23c-0.16-1-0.19-1.56,0.39-1.4C19.4,39.43,19.4,39.43,19.4,39.43
	L19.4,39.43z M22.23,35.81c0,0-0.4,1.91-0.53,1.25c-0.13-0.65,0.37-1.79,0.46-1.65C22.26,35.54,22.33,35.45,22.23,35.81L22.23,35.81
	z M21.59,31.55c0,0-0.77,1.83-0.61,0.34C21.15,30.4,21.98,30.54,21.59,31.55L21.59,31.55z"/>
<path class="st107" d="M17.47,50.27c0,0-0.81,2.23-0.97,1.23c-0.16-1-0.19-1.56,0.39-1.4C17.47,50.27,17.47,50.27,17.47,50.27
	L17.47,50.27z M20.31,46.64c0,0-0.4,1.91-0.52,1.25c-0.13-0.65,0.37-1.79,0.46-1.66C20.33,46.38,20.41,46.28,20.31,46.64
	L20.31,46.64z M19.67,42.38c0,0-0.77,1.83-0.61,0.34C19.23,41.23,20.06,41.37,19.67,42.38L19.67,42.38z"/>
<path class="st107" d="M77.37,52.08c0,0-0.81,2.23-0.97,1.23c-0.16-1-0.19-1.56,0.39-1.4C77.37,52.08,77.37,52.08,77.37,52.08
	L77.37,52.08z M80.21,48.46c0,0-0.4,1.91-0.53,1.25c-0.13-0.65,0.37-1.79,0.46-1.65C80.23,48.19,80.31,48.1,80.21,48.46L80.21,48.46
	z M79.56,44.2c0,0-0.77,1.83-0.61,0.34C79.12,43.05,79.96,43.19,79.56,44.2L79.56,44.2z"/>
<path class="st107" d="M75.34,64.65c0,0-0.81,2.23-0.97,1.23c-0.16-1-0.19-1.56,0.39-1.4C75.34,64.65,75.34,64.65,75.34,64.65
	L75.34,64.65z M78.18,61.03c0,0-0.4,1.91-0.53,1.25c-0.13-0.65,0.37-1.79,0.46-1.65C78.2,60.76,78.28,60.67,78.18,61.03L78.18,61.03
	z M77.53,56.77c0,0-0.77,1.83-0.61,0.34C77.09,55.62,77.93,55.75,77.53,56.77L77.53,56.77z"/>
<path class="st3" d="M25.01,52.45c0,0-2.06,1.23-2.05-0.14c0.01-1.37,0.11-2.06,1.08-0.96C25.01,52.45,25.01,52.45,25.01,52.45
	L25.01,52.45z M31.03,52.86c0,0-1.24,1.52-1.28,0.58c-0.04-0.94,1.16-1.43,1.28-1.14C31.15,52.6,31.3,52.62,31.03,52.86L31.03,52.86
	z M31.1,47.02c0,0-1.88,0.85-1.16-0.58C30.66,45.02,32.09,46.5,31.1,47.02L31.1,47.02z"/>
<path class="st3" d="M64.26,58.68c0,0-2.06,1.23-2.05-0.14c0.01-1.37,0.11-2.06,1.08-0.96C64.26,58.68,64.26,58.68,64.26,58.68
	L64.26,58.68z M70.28,59.1c0,0-1.24,1.52-1.28,0.58c-0.04-0.94,1.16-1.43,1.28-1.14C70.4,58.83,70.56,58.85,70.28,59.1L70.28,59.1z
	 M70.36,53.26c0,0-1.88,0.85-1.16-0.58C69.91,51.25,71.34,52.74,70.36,53.26L70.36,53.26z"/>
</svg>
