<?xml version="1.0" encoding="utf-8"?>
<!-- Generator: Adobe Illustrator 27.9.0, SVG Export Plug-In . SVG Version: 6.00 Build 0)  -->
<svg version="1.1" id="Layer_1" xmlns="http://www.w3.org/2000/svg" xmlns:xlink="http://www.w3.org/1999/xlink" x="0px" y="0px"
	 viewBox="0 0 95.21 95.75" style="enable-background:new 0 0 95.21 95.75;" xml:space="preserve">
<style type="text/css">
	.st0{fill-rule:evenodd;clip-rule:evenodd;fill:#F4F5F7;}
	.st1{fill-rule:evenodd;clip-rule:evenodd;fill:#E3E4E9;}
	.st2{fill-rule:evenodd;clip-rule:evenodd;fill:#FF6224;}
	.st3{fill-rule:evenodd;clip-rule:evenodd;fill:#ED4605;}
	.st4{fill-rule:evenodd;clip-rule:evenodd;fill:#A60603;}
	.st5{fill-rule:evenodd;clip-rule:evenodd;fill:#865334;}
	.st6{fill:#BD8F4F;}
	.st7{fill:#CEA265;}
	.st8{fill-rule:evenodd;clip-rule:evenodd;fill:#A66A44;}
	.st9{fill-rule:evenodd;clip-rule:evenodd;fill:#542E17;}
	.st10{fill-rule:evenodd;clip-rule:evenodd;fill:#663B20;}
	.st11{fill:#519A48;}
	.st12{fill-rule:evenodd;clip-rule:evenodd;fill:#F5DEB6;}
	.st13{fill:#FFF3DA;}
	.st14{fill:#FA692F;}
	.st15{fill:#EFD05C;}
	.st16{fill-rule:evenodd;clip-rule:evenodd;fill:#2E2D33;}
	.st17{fill-rule:evenodd;clip-rule:evenodd;fill:#4D4C52;}
	.st18{fill-rule:evenodd;clip-rule:evenodd;fill:#828287;}
	.st19{fill-rule:evenodd;clip-rule:evenodd;fill:#D23508;}
	.st20{fill-rule:evenodd;clip-rule:evenodd;fill:#BA2D06;}
	.st21{fill-rule:evenodd;clip-rule:evenodd;fill:#B52E1A;}
	.st22{fill-rule:evenodd;clip-rule:evenodd;fill:#E69B4C;}
	.st23{fill-rule:evenodd;clip-rule:evenodd;fill:#EB7538;}
	.st24{fill-rule:evenodd;clip-rule:evenodd;fill:#DB662C;}
	.st25{fill-rule:evenodd;clip-rule:evenodd;fill:#66666B;}
	.st26{fill-rule:evenodd;clip-rule:evenodd;fill:#DB5128;}
	.st27{fill-rule:evenodd;clip-rule:evenodd;fill:#F7B268;}
	.st28{fill-rule:evenodd;clip-rule:evenodd;fill:#CC3D26;}
	.st29{fill-rule:evenodd;clip-rule:evenodd;fill:#D9B685;}
	.st30{fill-rule:evenodd;clip-rule:evenodd;fill:#FFECD1;}
	.st31{fill-rule:evenodd;clip-rule:evenodd;fill:#358541;}
	.st32{fill-rule:evenodd;clip-rule:evenodd;fill:#26632F;}
	.st33{fill-rule:evenodd;clip-rule:evenodd;fill:#FFCCB5;}
	.st34{fill-rule:evenodd;clip-rule:evenodd;fill:#F2B922;}
	.st35{fill-rule:evenodd;clip-rule:evenodd;fill:#F3CD2E;}
	.st36{fill-rule:evenodd;clip-rule:evenodd;fill:#FAF19B;}
	.st37{fill-rule:evenodd;clip-rule:evenodd;fill:#F3FFD9;}
	.st38{fill-rule:evenodd;clip-rule:evenodd;fill:#D1E3AA;}
	.st39{fill-rule:evenodd;clip-rule:evenodd;fill:#85522E;}
	.st40{fill-rule:evenodd;clip-rule:evenodd;fill:#C77B45;}
	.st41{fill-rule:evenodd;clip-rule:evenodd;fill:#A36539;}
	.st42{fill-rule:evenodd;clip-rule:evenodd;}
	.st43{fill-rule:evenodd;clip-rule:evenodd;fill:#C7C7C9;}
	.st44{fill-rule:evenodd;clip-rule:evenodd;fill:#99441D;}
	.st45{fill-rule:evenodd;clip-rule:evenodd;fill:#6B2605;}
	.st46{fill-rule:evenodd;clip-rule:evenodd;fill:#AD5025;}
	.st47{fill-rule:evenodd;clip-rule:evenodd;fill:#C75925;}
	.st48{fill-rule:evenodd;clip-rule:evenodd;fill:#B5582D;}
	.st49{fill-rule:evenodd;clip-rule:evenodd;fill:#519A48;}
	.st50{fill-rule:evenodd;clip-rule:evenodd;fill:#FBD5B0;}
	.st51{fill:#E8BC90;}
	.st52{fill-rule:evenodd;clip-rule:evenodd;fill:#7A3312;}
	.st53{fill-rule:evenodd;clip-rule:evenodd;fill:#FA7D44;}
	.st54{fill-rule:evenodd;clip-rule:evenodd;fill:#FCE38F;}
	.st55{fill-rule:evenodd;clip-rule:evenodd;fill:#464AA6;}
	.st56{fill-rule:evenodd;clip-rule:evenodd;fill:#00C36C;}
	.st57{fill-rule:evenodd;clip-rule:evenodd;fill:#006B43;}
	.st58{fill-rule:evenodd;clip-rule:evenodd;fill:#C5C6C9;}
	.st59{fill-rule:evenodd;clip-rule:evenodd;fill:#FFC250;}
	.st60{fill-rule:evenodd;clip-rule:evenodd;fill:#FFD177;}
	.st61{fill:#FFE7B8;}
	.st62{fill-rule:evenodd;clip-rule:evenodd;fill:#3A3940;}
	.st63{fill-rule:evenodd;clip-rule:evenodd;fill:#F7C35B;}
	.st64{fill-rule:evenodd;clip-rule:evenodd;fill:#BF9A76;}
	.st65{fill-rule:evenodd;clip-rule:evenodd;fill:#452508;}
	.st66{fill-rule:evenodd;clip-rule:evenodd;fill:#BF8B24;}
	.st67{fill-rule:evenodd;clip-rule:evenodd;fill:#C44918;}
	.st68{fill-rule:evenodd;clip-rule:evenodd;fill:#E6AC37;}
	.st69{fill-rule:evenodd;clip-rule:evenodd;fill:#522C0B;}
	.st70{fill-rule:evenodd;clip-rule:evenodd;fill:#E6551C;}
	.st71{fill-rule:evenodd;clip-rule:evenodd;fill:#EDD4A1;}
	.st72{fill-rule:evenodd;clip-rule:evenodd;fill:#784212;}
	.st73{fill-rule:evenodd;clip-rule:evenodd;fill:#F77745;}
	.st74{fill-rule:evenodd;clip-rule:evenodd;fill:#66380F;}
	.st75{fill-rule:evenodd;clip-rule:evenodd;fill:#995B25;}
	.st76{fill-rule:evenodd;clip-rule:evenodd;fill:#FF4F0C;}
	.st77{fill-rule:evenodd;clip-rule:evenodd;fill:#FAD58C;}
	.st78{fill-rule:evenodd;clip-rule:evenodd;fill:#FFF3DA;}
	.st79{fill-rule:evenodd;clip-rule:evenodd;fill:#D3D4D6;}
	.st80{fill-rule:evenodd;clip-rule:evenodd;fill:#EEF5FB;}
	.st81{fill-rule:evenodd;clip-rule:evenodd;fill:#DAE3EB;}
	.st82{fill-rule:evenodd;clip-rule:evenodd;fill:#C8CED4;}
	.st83{fill-rule:evenodd;clip-rule:evenodd;fill:#CAD3DB;}
	.st84{fill-rule:evenodd;clip-rule:evenodd;fill:#FDD657;}
	.st85{fill-rule:evenodd;clip-rule:evenodd;fill:#F0C330;}
	.st86{fill-rule:evenodd;clip-rule:evenodd;fill:#315E38;}
	.st87{fill-rule:evenodd;clip-rule:evenodd;fill:#99AE4C;}
	.st88{fill-rule:evenodd;clip-rule:evenodd;fill:#D6E0E8;}
	.st89{fill-rule:evenodd;clip-rule:evenodd;fill:#FFD6C7;}
	.st90{fill-rule:evenodd;clip-rule:evenodd;fill:#BD7E18;}
	.st91{fill-rule:evenodd;clip-rule:evenodd;fill:#D5962F;}
	.st92{fill-rule:evenodd;clip-rule:evenodd;fill:#E6A947;}
	.st93{fill-rule:evenodd;clip-rule:evenodd;fill:#EDB356;}
	.st94{fill-rule:evenodd;clip-rule:evenodd;fill:#DBB97F;}
	.st95{fill-rule:evenodd;clip-rule:evenodd;fill:#EACB97;}
	.st96{fill-rule:evenodd;clip-rule:evenodd;fill:#E3BF81;}
	.st97{fill:#333333;}
	.st98{fill-rule:evenodd;clip-rule:evenodd;fill:#754528;}
	.st99{fill:#242323;}
	.st100{fill-rule:evenodd;clip-rule:evenodd;fill:#E3E4E6;}
	.st101{fill-rule:evenodd;clip-rule:evenodd;fill:#FC8A31;}
	.st102{fill-rule:evenodd;clip-rule:evenodd;fill:#E67017;}
	.st103{fill-rule:evenodd;clip-rule:evenodd;fill:#6BBA61;}
	.st104{fill-rule:evenodd;clip-rule:evenodd;fill:#FCAB6D;}
	.st105{fill-rule:evenodd;clip-rule:evenodd;fill:#FFBE8C;}
	.st106{fill:#006B43;}
	.st107{fill-rule:evenodd;clip-rule:evenodd;fill:#FA692F;}
	.st108{fill-rule:evenodd;clip-rule:evenodd;fill:#9E3E03;}
	.st109{fill-rule:evenodd;clip-rule:evenodd;fill:#C27100;}
	.st110{fill-rule:evenodd;clip-rule:evenodd;fill:#B34602;}
	.st111{fill-rule:evenodd;clip-rule:evenodd;fill:#D68007;}
	.st112{fill-rule:evenodd;clip-rule:evenodd;fill:#FDFEFF;}
	.st113{fill-rule:evenodd;clip-rule:evenodd;fill:#A66805;}
	.st114{fill-rule:evenodd;clip-rule:evenodd;fill:#CC4F00;}
	.st115{fill-rule:evenodd;clip-rule:evenodd;fill:#E68B09;}
	.st116{fill-rule:evenodd;clip-rule:evenodd;fill:#123618;}
	.st117{fill-rule:evenodd;clip-rule:evenodd;fill:#1C4622;}
	.st118{fill:#1C4622;}
	.st119{fill:#315E38;}
	.st120{fill-rule:evenodd;clip-rule:evenodd;fill:#D7D7DB;}
	.st121{fill-rule:evenodd;clip-rule:evenodd;fill:#FFFFFF;}
	.st122{fill-rule:evenodd;clip-rule:evenodd;fill:#C8CAC9;}
	.st123{fill-rule:evenodd;clip-rule:evenodd;fill:#B3B0A9;}
	.st124{fill-rule:evenodd;clip-rule:evenodd;fill:#E8DFE0;}
	.st125{fill-rule:evenodd;clip-rule:evenodd;fill:#AD8F8C;}
	.st126{fill-rule:evenodd;clip-rule:evenodd;fill:#BE9F9C;}
	.st127{fill-rule:evenodd;clip-rule:evenodd;fill:#5E4830;}
	.st128{fill:#96735A;}
	.st129{fill:#AD866B;}
	.st130{fill:#C5A189;}
	.st131{fill-rule:evenodd;clip-rule:evenodd;fill:#69523A;}
	.st132{fill-rule:evenodd;clip-rule:evenodd;fill:#DBDBDB;}
	.st133{fill-rule:evenodd;clip-rule:evenodd;fill:#F2F2F2;}
	.st134{fill-rule:evenodd;clip-rule:evenodd;fill:#6F952E;}
	.st135{fill-rule:evenodd;clip-rule:evenodd;fill:#D4E2A5;}
	.st136{fill-rule:evenodd;clip-rule:evenodd;fill:#C8D384;}
	.st137{fill-rule:evenodd;clip-rule:evenodd;fill:#F8FDFF;}
	.st138{fill-rule:evenodd;clip-rule:evenodd;fill:#F7D981;}
	.st139{fill-rule:evenodd;clip-rule:evenodd;fill:#FDE396;}
	.st140{fill-rule:evenodd;clip-rule:evenodd;fill:#E7A96E;}
	.st141{fill-rule:evenodd;clip-rule:evenodd;fill:#BA7E47;}
	.st142{fill:#FFFFFF;}
	.st143{fill-rule:evenodd;clip-rule:evenodd;fill:#C5A189;}
	.st144{fill-rule:evenodd;clip-rule:evenodd;fill:#951806;}
	.st145{fill-rule:evenodd;clip-rule:evenodd;fill:#801303;}
	.st146{fill-rule:evenodd;clip-rule:evenodd;fill:#D4510D;}
	.st147{fill-rule:evenodd;clip-rule:evenodd;fill:#E6C18A;}
	.st148{fill-rule:evenodd;clip-rule:evenodd;fill:#D59D5E;}
	.st149{fill-rule:evenodd;clip-rule:evenodd;fill:#D47507;}
	.st150{fill-rule:evenodd;clip-rule:evenodd;fill:#E38D2B;}
	.st151{fill-rule:evenodd;clip-rule:evenodd;fill:#BD6704;}
	.st152{fill-rule:evenodd;clip-rule:evenodd;fill:#E8891C;}
	.st153{fill-rule:evenodd;clip-rule:evenodd;fill:#D56400;}
	.st154{fill-rule:evenodd;clip-rule:evenodd;fill:#E6844E;}
	.st155{fill-rule:evenodd;clip-rule:evenodd;fill:#F1E2BB;}
	.st156{fill:#A33803;}
	.st157{fill-rule:evenodd;clip-rule:evenodd;fill:#A33803;}
	.st158{fill-rule:evenodd;clip-rule:evenodd;fill:#B54306;}
	.st159{fill-rule:evenodd;clip-rule:evenodd;fill:#EA6321;}
	.st160{fill-rule:evenodd;clip-rule:evenodd;fill:#821909;}
	.st161{fill-rule:evenodd;clip-rule:evenodd;fill:#C44B0E;}
	.st162{fill-rule:evenodd;clip-rule:evenodd;fill:#B3320E;}
	.st163{fill-rule:evenodd;clip-rule:evenodd;fill:#BA874D;}
	.st164{fill-rule:evenodd;clip-rule:evenodd;fill:#6F351B;}
	.st165{fill-rule:evenodd;clip-rule:evenodd;fill:#5C2C15;}
	.st166{fill-rule:evenodd;clip-rule:evenodd;fill:#FA8950;}
	.st167{fill-rule:evenodd;clip-rule:evenodd;fill:#5E401D;}
	.st168{fill:#D59D5E;}
	.st169{fill:#BA874D;}
	.st170{fill:#E4C292;}
	.st171{fill:#EA6321;}
	.st172{fill:#FA8950;}
	.st173{fill-rule:evenodd;clip-rule:evenodd;fill:#8C5B34;}
	.st174{fill:#CF9470;}
	.st175{fill-rule:evenodd;clip-rule:evenodd;fill:#AA7448;}
	.st176{fill:#EFB795;}
	.st177{fill-rule:evenodd;clip-rule:evenodd;fill:#C9D98B;}
	.st178{fill-rule:evenodd;clip-rule:evenodd;fill:#93B04A;}
	.st179{fill-rule:evenodd;clip-rule:evenodd;fill:#D1E18E;}
	.st180{fill-rule:evenodd;clip-rule:evenodd;fill:#ABCB5C;}
	.st181{fill-rule:evenodd;clip-rule:evenodd;fill:#F0DEAD;}
	.st182{fill-rule:evenodd;clip-rule:evenodd;fill:#DEBA59;}
	.st183{fill-rule:evenodd;clip-rule:evenodd;fill:#E6D3A1;}
	.st184{fill-rule:evenodd;clip-rule:evenodd;fill:#FFF3D3;}
	.st185{fill-rule:evenodd;clip-rule:evenodd;fill:#F7D474;}
	.st186{fill-rule:evenodd;clip-rule:evenodd;fill:#A86046;}
	.st187{fill-rule:evenodd;clip-rule:evenodd;fill:#CF0200;}
	.st188{fill-rule:evenodd;clip-rule:evenodd;fill:#FF2D29;}
	.st189{fill-rule:evenodd;clip-rule:evenodd;fill:#43983E;}
	.st190{fill-rule:evenodd;clip-rule:evenodd;fill:#136B29;}
	.st191{fill-rule:evenodd;clip-rule:evenodd;fill:#D1E694;}
	.st192{fill-rule:evenodd;clip-rule:evenodd;fill:#218239;}
	.st193{fill-rule:evenodd;clip-rule:evenodd;fill:#035C3B;}
	.st194{fill-rule:evenodd;clip-rule:evenodd;fill:#54A051;}
	.st195{fill-rule:evenodd;clip-rule:evenodd;fill:#FFCBA3;}
	.st196{fill-rule:evenodd;clip-rule:evenodd;fill:#EB9350;}
	.st197{fill:#EB9350;}
	.st198{fill-rule:evenodd;clip-rule:evenodd;fill:#BDBDBB;}
	.st199{fill-rule:evenodd;clip-rule:evenodd;fill:#A15E23;}
</style>
<path class="st100" d="M63.57,2.79c24.76,8.87,37.69,36.24,28.87,61.14c-8.82,24.9-36.04,37.9-60.8,29.03
	C6.88,84.1-6.05,56.72,2.77,31.82S38.81-6.08,63.57,2.79L63.57,2.79z"/>
<path class="st80" d="M62.99,4.43c23.86,8.54,36.32,34.92,27.82,58.92c-8.5,23.99-34.73,36.52-58.59,27.98
	C8.36,82.78-4.09,56.4,4.4,32.4C12.9,8.41,39.13-4.12,62.99,4.43L62.99,4.43z"/>
<path class="st81" d="M59.44,14.47c18.35,6.57,27.92,26.85,21.39,45.3c-6.53,18.45-26.7,28.08-45.05,21.51
	c-18.35-6.57-27.92-26.85-21.39-45.3C20.92,17.53,41.09,7.9,59.44,14.47L59.44,14.47z"/>
<path class="st83" d="M59.44,14.47c4.13,1.48,7.81,3.65,10.97,6.34c-2.32-1.53-4.85-2.81-7.58-3.79
	c-18.35-6.57-38.51,3.06-45.05,21.51c-5.06,14.3-0.45,29.7,10.42,38.96c-13.26-8.77-19.38-25.8-13.81-41.51
	C20.92,17.53,41.09,7.9,59.44,14.47L59.44,14.47z"/>
<path class="st116" d="M74.43,37.91c0,0,1.98,4,0,8.59c-1.98,4.59-2.75,4.96-1.34,9.23c1.41,4.27,6.53,9.81,1.69,11.26
	c-4.84,1.44-7.84-1.16-7.84-1.16s-2.9,5.2-5.87,5.67c-2.97,0.47-1.5,2.41-3.01,4.04c-1.52,1.64-5.74-0.82-6.32-0.67
	c-0.58,0.15-2.98,4.11-3.63,2.64c-0.65-1.47-1.75-4.16-2.6-4.05c-0.86,0.11-4.81,2.34-6.48,0.62c-1.67-1.72-1.11-1.81-4.39-2.81
	c-3.28-1-1.5-0.89-4.25-4.52c-2.75-3.63-5.54-3.69-7.34-6.22c-1.8-2.53-0.73-5.21,0.32-6.18c1.05-0.98-0.19-5.07-0.48-5.41
	c-0.29-0.34,1.28-3.78-0.55-5.97c-1.83-2.19-4.63-2.22-4.54-3.3c0.09-1.09,4.05-2.17,4.72-2.75c0.67-0.58-1.87-1.26-1.75-2.25
	c0.12-0.99,4.32-2.37,5.86-3.08c1.54-0.71,0.63-2.36,2.47-2.94c1.84-0.58,3.99-1.01,4.45-1.41c0.46-0.39-1.31-4.15,2-5.73
	c3.31-1.58,1.39-5.57,4.08-4.42c2.7,1.14,3.04,4.15,3.49,3.19c0.46-0.96,0.35-3.64,1.14-3.71c0.79-0.07,1.78-0.07,1.23,2.15
	c-0.55,2.22-0.74,3.74,0.22,2.85c0.96-0.89,4.95-2.41,6.15-0.68c1.2,1.73-0.51,2.19,3.1,0.78c0.35-0.14,5.71,3.53,7.2,5.03
	c2.8,2.83,2.35-1.34,6.34,2.27C72.49,32.56,74.43,37.91,74.43,37.91L74.43,37.91z"/>
<path class="st117" d="M52.07,38.21c0,0,1.28-0.31-1.77,4.01c-3.05,4.32-3.66,5.04-4.4,8.13c-0.75,3.1-1.25,3.2-3.71,2.55
	c-2.46-0.65-5.01,2.74-4.15,0.16c0.85-2.58,5.42-4.41,8.03-8.31c2.61-3.89,2.47-5.65,3.87-6.15C51.34,38.13,52.07,38.21,52.07,38.21
	L52.07,38.21z"/>
<path class="st117" d="M39.5,58.5c0,0-4.91,1.49-3.77,4.53c1.14,3.04,4.18,3.91,1.94,5.58c-2.23,1.67-2.04-2.5-4.63-3.13
	c-2.59-0.63-6.26-0.62-4.57-3.29C30.16,59.54,35.64,52.06,39.5,58.5L39.5,58.5z M42.61,33.19c-0.83,0.35-6.21,3.31-4.73,7.08
	c1.48,3.77,5.06,3.4,2.92,5.64c-2.14,2.24-5.43,3.76-2.94,3.18c2.49-0.58,7.26-2.96,6.2-5.43c-1.06-2.47-4.8-5.09-1.23-6.27
	C46.38,36.21,44.85,33.64,42.61,33.19L42.61,33.19z M29.09,38.83c0,0-1.59,4.32,2.3,7.06c3.89,2.74,6,2.56,3.98,4.31
	c-2.02,1.75-4.47,5.7-5.79,3.28c-1.31-2.41-1.45-3.34-3.14-6.25c-1.69-2.9-1.71-4.67-1.26-6.45c0.45-1.78-1.73-1.74-1.3-3.11
	C24.31,36.29,29.88,35.76,29.09,38.83L29.09,38.83z M49.5,44.96c0.19,0.66,4.61,2.36,0.87,5.31c-3.74,2.96-5.41,1.24-6.22,2.19
	c-0.8,0.95-0.97,2.42-2.06,5.5c-1.09,3.08-0.73,3.12,3.12,0.29c3.85-2.83,4.31,0.08,7.59-4.58c3.28-4.66,2.55-8.03,0.65-8.95
	C51.55,43.81,49.79,43,49.5,44.96L49.5,44.96z M60.91,33.92c0,0,2.85,1.55,0.83,7.24c-2.02,5.69-3.22,6.79-3.71,7.67
	c-0.49,0.88,0.58-2.97-1.37-3.08c-1.95-0.11-3.67-2.2-1.48-3.77c2.19-1.57,6.4-2.36,5.05-4.84C58.89,34.67,59.49,32.29,60.91,33.92
	L60.91,33.92z M69.8,37.4c0,0-1.35,3.36-3.98,6.88c-2.63,3.52-3.69,4.85-4.76,5.23c-1.07,0.38-2.04-3.32,0.73-5.86
	s3.65-1.22,4.47-4.35C67.07,36.18,70.22,35.37,69.8,37.4L69.8,37.4z M68.62,50.63c0,0-6.38,2.48-4.1,5.48
	c2.28,2.99,2.02,2.55,4.15,5.31c2.12,2.76,4.17,3.26,4.52,1.62c0.35-1.64-5.21-4.02-4.99-6.73C68.41,53.59,70.51,50.6,68.62,50.63
	L68.62,50.63z M48.68,61.91c-0.1,0.29-1.4,4.03,0.41,5.36c1.81,1.33,5.57,2.02,4.49,4.11c-1.09,2.08-2.77,3.45-4.45,1.26
	c-1.68-2.19-1.06-4.29-4.46-3.51c-3.41,0.78-6.36,1.84-5.65-0.4c0.71-2.25,1.35-2.75,4.15-3.78c2.79-1.03,2.3-2.53,3.25-3.52
	C47.37,60.42,49.47,59.93,48.68,61.91L48.68,61.91z"/>
<path class="st31" d="M49.3,57.04c0,0-1.33,4.59-6.34,6.5c-5.01,1.91-7.31,3.45-7.78,2.63c-0.47-0.82-0.87-1.84,1.28-2.78
	c2.15-0.94,5.8-1.16,8.36-2.95c2.57-1.79,3.71-5.68,4.23-5.02C49.58,56.08,49.3,57.04,49.3,57.04L49.3,57.04z M53.2,59.32
	c0,0,0.64,4.47,0.77,7.07c0.13,2.61-1.66,3.03-1.77,2.84c-0.11-0.19-1.71-0.38-1.6-3.43c0.11-3.05-0.36-4.51-0.31-4.82
	C50.35,60.68,53.2,59.32,53.2,59.32L53.2,59.32z M38.83,29.1c0,0-5.24,6.29-2.65,8.47c2.59,2.18,1.2-1.57,1.61-2.72
	c0.41-1.15,1.51-3.76,2.28-4.13C40.84,30.35,38.83,29.1,38.83,29.1L38.83,29.1z M67.91,42.34c0,0,1.49,1.59-0.42,5.15
	c-1.9,3.56-4.97,3.28-7.18,5.73c-2.21,2.44-3.18,2.21-3.17,1.69c0.01-0.53-0.44-2.39,1.55-3.56c1.99-1.17,6.42-3.59,7.13-5.27
	c0.71-1.69-1.02-2.9-0.35-3.48C66.15,42.01,67.91,42.34,67.91,42.34L67.91,42.34z M60,28.33c0,0-2.78-1.41-4.38-1.51
	c-1.6-0.1-2.94,1.36-3.38,2.44c-0.44,1.08,0.05,3.32,0.65,2.47c0.59-0.85,1.86-3.28,2.69-2.98c0.83,0.3,4.06,2.57,4.36,1.74
	C60.23,29.65,60,28.33,60,28.33L60,28.33z M64.66,30.35c0.83,0.47,4.5,4.49,3.64,6.07c-0.85,1.58-4.58,3.36-5.33,2.15
	c-0.74-1.21-0.28-2.34,0.66-2.53c0.95-0.19,2.19-0.39,1.95-1.36c-0.24-0.97-2.96-1.88-2.45-2.82
	C63.64,30.93,64.66,30.35,64.66,30.35L64.66,30.35z M44.57,27.13c0,0-6.64-5.02-7.54-3.66c-0.9,1.36-0.77,1.83,2.03,3.01
	c2.78,1.23,5.68,2.97,5.68,2.97L44.57,27.13L44.57,27.13z M48.38,23.28c0,0,1.23,6.62-1,10.41c-2.22,3.8-0.15,3.72,0.36,3.6
	c0.51-0.11,2.71-3.86,3.55-8.03c0.83-4.17,0.38-6.04-0.55-6.38C49.81,22.56,48.38,23.28,48.38,23.28L48.38,23.28z M26.05,41.24
	c0,0-0.14,8.48,2.19,11.67c2.32,3.19,3.24,2.57,1.59,3.1c-1.65,0.53-2.2,1.09-3.16-0.84c-0.95-1.93-2.67-4.84-1.99-8.6
	C25.37,42.82,26.05,41.24,26.05,41.24L26.05,41.24z M32.52,29.08c0,0-2.07,3.2-0.78,6.49c1.29,3.29,3.04,7.45,2.13,8.71
	c-0.92,1.26-1.75-0.33-2.07-1.74c-0.32-1.41-3.16-6.61-2.69-9.26c0.47-2.66,1.28-3.95,1.28-3.95L32.52,29.08L32.52,29.08z
	 M71.34,46.87c0,0,1.5,1.54-0.04,5.4c-1.54,3.86-1.3,5.01-5.63,7.81c-4.33,2.8-6.2,2.96-6.77,3.4c-0.57,0.44-0.6-2.45,0.51-2.76
	c1.1-0.31,6.86-3.66,8.19-5.78c1.33-2.11,2.53-4.51,2.26-5.9C69.6,47.65,71.34,46.87,71.34,46.87L71.34,46.87z M56.56,57.87
	c0,0,1.5,11.31,0.65,13.71c-0.85,2.4-1.75,1.79-1.82-1.48c-0.07-3.26,0.69-6.4-0.14-8.7C54.42,59.11,54.34,57.02,56.56,57.87
	L56.56,57.87z M43.67,54.44c0,0-7.6-0.19-11.98,1.77c-4.38,1.96-4.88,3.37-4.67,4.1c0.21,0.72,0.2,0.6,3.14-0.76
	c2.94-1.36,8.6-3.63,10.4-3.1C42.36,56.97,43.55,55.93,43.67,54.44L43.67,54.44z M43.01,40.43c0,0-6.92,8.29-8.78,10.57
	c-1.86,2.28-3.99,3.99-3.84,2.57c0.15-1.42,0.38-3.39,3.4-6.79c3.02-3.39,4.98-8.46,6.74-8.12C42.29,38.99,43.01,40.43,43.01,40.43
	L43.01,40.43z M56.35,47.21c0,0,0.66-0.53-0.95,3.66c-1.6,4.19-4,8.16-4.9,8.72c-0.9,0.56-1.16-2.18,0.84-5.35
	c2-3.17,3.23-5.32,3.7-6.8C55.51,45.96,56.35,47.21,56.35,47.21L56.35,47.21z"/>
<path class="st117" d="M61.38,74.65c0,0-4.85,2.66-11.09,0.47c-6.24-2.18-7.12-0.71-11.49-1.71c-4.37-1-7.18-4.11-7.38-4.14
	l-1.23,1.87c0,0,5.43,5.49,11.24,4.95c5.8-0.54,7.13,0.8,10.74,1.74c3.61,0.93,9.89-1.5,9.89-1.5L61.38,74.65L61.38,74.65z"/>
<path class="st118" d="M23.99,40.35c-0.07,0.03-0.15,0.06-0.26,0.1c-0.5,0.17-1.75,0.6-2.06,4.45c-0.18,2.26,0.32,3.43,0.75,4.41
	c0.51,1.18,0.93,2.15,0.38,4.03l-1.47-0.44c0.39-1.34,0.07-2.08-0.32-2.98c-0.5-1.15-1.08-2.5-0.87-5.15
	c0.39-4.87,2.34-5.53,3.1-5.79l0.09-0.03L23.99,40.35L23.99,40.35z"/>
<path class="st118" d="M53.62,22.62c0.13-0.03,0.28-0.09,0.46-0.15c1.56-0.55,4.53-1.58,9.98,1.62c5.53,3.26,7.48,2.97,7.48,2.97
	l0.22,1.84c-0.01,0-2.57,0.36-8.63-3.21c-4.72-2.78-7.16-1.93-8.44-1.48c-0.22,0.08-0.42,0.15-0.6,0.19L53.62,22.62L53.62,22.62z"/>
<path class="st118" d="M73.66,39.37c0.01,0.01,3.46,2.06,3.61,6.52c0.08,2.24-0.8,4.4-1.78,6.8c-0.85,2.1-1.78,4.39-2.13,6.98
	l-1.83-0.25c0.38-2.81,1.36-5.22,2.25-7.42c0.89-2.2,1.7-4.19,1.64-6.04c-0.12-3.45-2.73-5.01-2.74-5.01L73.66,39.37L73.66,39.37z"
	/>
<path class="st118" d="M29.77,48.81c-0.38,0.37-3.88,4.76-4.94,10.26c-0.55,2.84-0.42,5.96,1.2,8.93l-1.62,0.89
	c-1.86-3.4-2.01-6.96-1.39-10.18c1.15-5.96,5.05-10.82,5.48-11.24L29.77,48.81L29.77,48.81z"/>
<path class="st31" d="M62.97,55.56c-0.01,0.04-3.9,13.98,7.28,14.99l-0.17,1.84c-13.39-1.21-8.9-17.29-8.89-17.33L62.97,55.56
	L62.97,55.56z"/>
<path class="st78" d="M42.42,49.92c-0.03,0.43-0.72,0.73-1.55,0.68c-0.83-0.05-1.48-0.44-1.45-0.87c0.03-0.43,0.72-0.73,1.55-0.68
	C41.8,49.11,42.45,49.5,42.42,49.92L42.42,49.92z M54.1,55.96c-0.03,0.43-0.72,0.73-1.55,0.68c-0.83-0.05-1.48-0.44-1.45-0.87
	c0.03-0.43,0.72-0.73,1.55-0.68C53.48,55.15,54.12,55.53,54.1,55.96L54.1,55.96z M52.59,45.75c0.38-0.2,0.99,0.25,1.37,0.99
	c0.38,0.74,0.38,1.5,0,1.69c-0.38,0.2-0.99-0.25-1.37-0.99C52.22,46.7,52.22,45.95,52.59,45.75L52.59,45.75z M58.61,49.23
	c0.38-0.2,0.99,0.25,1.37,0.99c0.38,0.74,0.38,1.5,0,1.69c-0.38,0.2-0.99-0.25-1.37-0.99C58.24,50.18,58.24,49.42,58.61,49.23
	L58.61,49.23z M56.7,39.96c0.25-0.35-0.1-1.02-0.77-1.51c-0.67-0.48-1.42-0.6-1.67-0.25c-0.25,0.35,0.1,1.02,0.77,1.51
	C55.71,40.19,56.45,40.3,56.7,39.96L56.7,39.96z M42.34,44.4c0.17,0.39,0.92,0.44,1.68,0.11c0.76-0.33,1.24-0.92,1.07-1.31
	c-0.17-0.39-0.92-0.44-1.68-0.11C42.65,43.42,42.17,44.01,42.34,44.4L42.34,44.4z M46.32,49.11c0.42,0.04,0.83-0.59,0.92-1.42
	c0.08-0.83-0.19-1.54-0.61-1.58c-0.42-0.04-0.83,0.59-0.91,1.42C45.62,48.36,45.9,49.07,46.32,49.11L46.32,49.11z M48.42,54.29
	c-0.03,0.43-0.72,0.73-1.55,0.68c-0.83-0.05-1.48-0.44-1.45-0.87c0.03-0.43,0.72-0.73,1.55-0.68C47.8,53.48,48.44,53.87,48.42,54.29
	L48.42,54.29z M46.96,59.06c0.38-0.2,0.99,0.25,1.37,0.99c0.38,0.74,0.38,1.5,0,1.69c-0.38,0.2-0.99-0.25-1.37-0.99
	C46.59,60.02,46.59,59.26,46.96,59.06L46.96,59.06z M39.45,57.83c0.35,0.24,0.27,0.99-0.18,1.68c-0.46,0.7-1.11,1.07-1.47,0.83
	c-0.35-0.23-0.27-0.99,0.19-1.68C38.43,57.97,39.09,57.59,39.45,57.83L39.45,57.83z"/>
<path class="st78" d="M52.92,52.43c0.38-0.3,1.17,0.06,1.76,0.8c0.59,0.75,0.76,1.6,0.38,1.91c-0.38,0.3-1.17-0.06-1.76-0.8
	C52.71,53.59,52.54,52.74,52.92,52.43L52.92,52.43z M47.04,40.16c0.38-0.3,1.17,0.06,1.76,0.8c0.59,0.75,0.76,1.6,0.38,1.91
	s-1.17-0.06-1.76-0.8C46.83,41.32,46.66,40.47,47.04,40.16L47.04,40.16z M34.72,46.61c-0.46-0.17-0.55-1.04-0.22-1.93
	c0.34-0.89,0.98-1.48,1.43-1.31c0.46,0.17,0.55,1.04,0.22,1.93C35.82,46.2,35.18,46.79,34.72,46.61L34.72,46.61z M37.87,41.47
	c-0.46-0.17-0.55-1.04-0.22-1.93c0.34-0.89,0.98-1.48,1.43-1.31c0.46,0.17,0.55,1.04,0.22,1.93C38.96,41.06,38.32,41.64,37.87,41.47
	L37.87,41.47z M31.48,50.23c-0.48,0.06-0.79,0.87-0.68,1.82c0.11,0.95,0.59,1.67,1.07,1.62c0.48-0.06,0.79-0.87,0.68-1.82
	C32.45,50.9,31.97,50.18,31.48,50.23L31.48,50.23z M46.29,59.12c0.2-0.45-0.34-1.13-1.2-1.52c-0.87-0.4-1.73-0.35-1.93,0.09
	c-0.2,0.45,0.34,1.13,1.2,1.52C45.22,59.61,46.09,59.57,46.29,59.12L46.29,59.12z M47.22,52.09c-0.29-0.39-1.14-0.26-1.91,0.31
	c-0.77,0.57-1.15,1.34-0.86,1.74c0.29,0.39,1.14,0.26,1.91-0.31C47.12,53.26,47.51,52.48,47.22,52.09L47.22,52.09z M50,46.31
	c0.38-0.3,1.17,0.06,1.76,0.8c0.59,0.75,0.76,1.6,0.38,1.91c-0.38,0.3-1.17-0.06-1.76-0.8C49.78,47.47,49.62,46.61,50,46.31
	L50,46.31z M55.15,43.89c-0.46-0.17-0.55-1.04-0.22-1.93c0.34-0.89,0.98-1.48,1.43-1.31c0.46,0.17,0.55,1.04,0.22,1.93
	C56.25,43.48,55.61,44.06,55.15,43.89L55.15,43.89z M60.91,47.29c-0.07-0.48,0.63-0.99,1.57-1.14c0.94-0.14,1.76,0.13,1.83,0.62
	c0.07,0.48-0.63,0.99-1.57,1.14C61.81,48.05,60.99,47.78,60.91,47.29L60.91,47.29z"/>
<path class="st119" d="M51.51,70.82l-0.09-0.09c-0.24-0.26-0.96-1.05-2.64-2.13c-1.03-0.66-1.52-1.3-1.75-1.82
	c-0.24-0.54-0.21-0.95-0.19-1.1l0.54,0.07c-0.01,0.11-0.04,0.4,0.14,0.81c0.2,0.44,0.63,0.99,1.55,1.58
	c1.74,1.12,2.5,1.95,2.75,2.22l0.06,0.06L51.51,70.82L51.51,70.82z M40.29,68.67c0.02-0.05,0.06-0.11,0.12-0.15
	c0.15-0.11,0.99-0.56,2.15-0.84c1.17-0.28,2.68-0.4,4.2,0.15c1.15,0.41,2.31,1.2,3.31,2.59l-0.44,0.32
	c-0.93-1.29-1.99-2.02-3.05-2.4c-1.4-0.5-2.81-0.39-3.89-0.13c-1.08,0.26-1.84,0.66-1.96,0.75c-0.01,0.01-0.01,0-0.01,0l-0.13-0.18
	L40.29,68.67L40.29,68.67z M40.72,68.96l-0.13-0.18L40.72,68.96L40.72,68.96z M40.72,68.96c0.01-0.02,0.05-0.09,0.07-0.11l-0.2-0.07
	L40.72,68.96L40.72,68.96z"/>
<path class="st119" d="M37.3,57.95c-0.01,0.01-4.95,2.31-5.1,5.18l-0.54-0.03c0.17-3.2,5.4-5.63,5.41-5.64L37.3,57.95L37.3,57.95z"
	/>
<path class="st119" d="M27.6,43.08c0,0.01-0.17,3.2,1.88,6.19l-0.44,0.31c-2.15-3.14-1.98-6.52-1.98-6.53L27.6,43.08L27.6,43.08z
	 M28.62,44.34c0,0.01,0.87,2.46,3.29,2.8l-0.07,0.54c-2.75-0.38-3.72-3.14-3.72-3.15L28.62,44.34L28.62,44.34z"/>
<path class="st119" d="M60.99,34.98c0.01,0.01,2.31,2.33,0.06,6.27c-2.12,3.71-2.2,4.54-2.2,4.55l-0.53-0.08
	c0,0,0.09-0.93,2.27-4.74c2.05-3.58,0.02-5.62,0.02-5.63L60.99,34.98L60.99,34.98z M56.33,44.24c0-0.01,0.87-2.33,3.3-4.07
	l0.31,0.44c-2.3,1.64-3.11,3.82-3.11,3.83L56.33,44.24L56.33,44.24z"/>
<path class="st119" d="M68.98,37.52c-0.01,0.02-4.35,7.28-6.9,7.73l-0.09-0.53c2.31-0.41,6.52-7.45,6.53-7.47L68.98,37.52
	L68.98,37.52z"/>
<path class="st31" d="M59.83,27.39c-0.04-0.02-12.32-7.58-16.33,2.96l-1.72-0.67c4.8-12.63,18.96-3.91,19.01-3.88L59.83,27.39
	L59.83,27.39z"/>
</svg>
