<?xml version="1.0" encoding="utf-8"?>
<!-- Generator: Adobe Illustrator 27.9.0, SVG Export Plug-In . SVG Version: 6.00 Build 0)  -->
<svg version="1.1" id="Layer_1" xmlns="http://www.w3.org/2000/svg" xmlns:xlink="http://www.w3.org/1999/xlink" x="0px" y="0px"
	 viewBox="0 0 206.67 207.83" style="enable-background:new 0 0 206.67 207.83;" xml:space="preserve">
<style type="text/css">
	.st0{fill-rule:evenodd;clip-rule:evenodd;fill:#F4F5F7;}
	.st1{fill-rule:evenodd;clip-rule:evenodd;fill:#E3E4E9;}
	.st2{fill-rule:evenodd;clip-rule:evenodd;fill:#FF6224;}
	.st3{fill-rule:evenodd;clip-rule:evenodd;fill:#ED4605;}
	.st4{fill-rule:evenodd;clip-rule:evenodd;fill:#A60603;}
	.st5{fill-rule:evenodd;clip-rule:evenodd;fill:#865334;}
	.st6{fill:#BD8F4F;}
	.st7{fill:#CEA265;}
	.st8{fill-rule:evenodd;clip-rule:evenodd;fill:#A66A44;}
	.st9{fill-rule:evenodd;clip-rule:evenodd;fill:#542E17;}
	.st10{fill-rule:evenodd;clip-rule:evenodd;fill:#663B20;}
	.st11{fill:#519A48;}
	.st12{fill-rule:evenodd;clip-rule:evenodd;fill:#F5DEB6;}
	.st13{fill:#FFF3DA;}
	.st14{fill:#FA692F;}
	.st15{fill:#EFD05C;}
	.st16{fill-rule:evenodd;clip-rule:evenodd;fill:#2E2D33;}
	.st17{fill-rule:evenodd;clip-rule:evenodd;fill:#4D4C52;}
	.st18{fill-rule:evenodd;clip-rule:evenodd;fill:#828287;}
	.st19{fill-rule:evenodd;clip-rule:evenodd;fill:#D23508;}
	.st20{fill-rule:evenodd;clip-rule:evenodd;fill:#BA2D06;}
	.st21{fill-rule:evenodd;clip-rule:evenodd;fill:#B52E1A;}
	.st22{fill-rule:evenodd;clip-rule:evenodd;fill:#E69B4C;}
	.st23{fill-rule:evenodd;clip-rule:evenodd;fill:#EB7538;}
	.st24{fill-rule:evenodd;clip-rule:evenodd;fill:#DB662C;}
	.st25{fill-rule:evenodd;clip-rule:evenodd;fill:#66666B;}
	.st26{fill-rule:evenodd;clip-rule:evenodd;fill:#DB5128;}
	.st27{fill-rule:evenodd;clip-rule:evenodd;fill:#F7B268;}
	.st28{fill-rule:evenodd;clip-rule:evenodd;fill:#CC3D26;}
	.st29{fill-rule:evenodd;clip-rule:evenodd;fill:#D9B685;}
	.st30{fill-rule:evenodd;clip-rule:evenodd;fill:#FFECD1;}
	.st31{fill-rule:evenodd;clip-rule:evenodd;fill:#358541;}
	.st32{fill-rule:evenodd;clip-rule:evenodd;fill:#26632F;}
	.st33{fill-rule:evenodd;clip-rule:evenodd;fill:#FFCCB5;}
	.st34{fill-rule:evenodd;clip-rule:evenodd;fill:#F2B922;}
	.st35{fill-rule:evenodd;clip-rule:evenodd;fill:#F3CD2E;}
	.st36{fill-rule:evenodd;clip-rule:evenodd;fill:#FAF19B;}
	.st37{fill-rule:evenodd;clip-rule:evenodd;fill:#F3FFD9;}
	.st38{fill-rule:evenodd;clip-rule:evenodd;fill:#D1E3AA;}
	.st39{fill-rule:evenodd;clip-rule:evenodd;fill:#85522E;}
	.st40{fill-rule:evenodd;clip-rule:evenodd;fill:#C77B45;}
	.st41{fill-rule:evenodd;clip-rule:evenodd;fill:#A36539;}
	.st42{fill-rule:evenodd;clip-rule:evenodd;}
	.st43{fill-rule:evenodd;clip-rule:evenodd;fill:#C7C7C9;}
	.st44{fill-rule:evenodd;clip-rule:evenodd;fill:#99441D;}
	.st45{fill-rule:evenodd;clip-rule:evenodd;fill:#6B2605;}
	.st46{fill-rule:evenodd;clip-rule:evenodd;fill:#AD5025;}
	.st47{fill-rule:evenodd;clip-rule:evenodd;fill:#C75925;}
	.st48{fill-rule:evenodd;clip-rule:evenodd;fill:#B5582D;}
	.st49{fill-rule:evenodd;clip-rule:evenodd;fill:#519A48;}
	.st50{fill-rule:evenodd;clip-rule:evenodd;fill:#FBD5B0;}
	.st51{fill:#E8BC90;}
	.st52{fill-rule:evenodd;clip-rule:evenodd;fill:#7A3312;}
	.st53{fill-rule:evenodd;clip-rule:evenodd;fill:#FA7D44;}
	.st54{fill-rule:evenodd;clip-rule:evenodd;fill:#FCE38F;}
	.st55{fill-rule:evenodd;clip-rule:evenodd;fill:#464AA6;}
	.st56{fill-rule:evenodd;clip-rule:evenodd;fill:#00C36C;}
	.st57{fill-rule:evenodd;clip-rule:evenodd;fill:#006B43;}
	.st58{fill-rule:evenodd;clip-rule:evenodd;fill:#C5C6C9;}
	.st59{fill-rule:evenodd;clip-rule:evenodd;fill:#FFC250;}
	.st60{fill-rule:evenodd;clip-rule:evenodd;fill:#FFD177;}
	.st61{fill:#FFE7B8;}
	.st62{fill-rule:evenodd;clip-rule:evenodd;fill:#3A3940;}
	.st63{fill-rule:evenodd;clip-rule:evenodd;fill:#F7C35B;}
	.st64{fill-rule:evenodd;clip-rule:evenodd;fill:#BF9A76;}
	.st65{fill-rule:evenodd;clip-rule:evenodd;fill:#452508;}
	.st66{fill-rule:evenodd;clip-rule:evenodd;fill:#BF8B24;}
	.st67{fill-rule:evenodd;clip-rule:evenodd;fill:#C44918;}
	.st68{fill-rule:evenodd;clip-rule:evenodd;fill:#E6AC37;}
	.st69{fill-rule:evenodd;clip-rule:evenodd;fill:#522C0B;}
	.st70{fill-rule:evenodd;clip-rule:evenodd;fill:#E6551C;}
	.st71{fill-rule:evenodd;clip-rule:evenodd;fill:#EDD4A1;}
	.st72{fill-rule:evenodd;clip-rule:evenodd;fill:#784212;}
	.st73{fill-rule:evenodd;clip-rule:evenodd;fill:#F77745;}
	.st74{fill-rule:evenodd;clip-rule:evenodd;fill:#66380F;}
	.st75{fill-rule:evenodd;clip-rule:evenodd;fill:#995B25;}
	.st76{fill-rule:evenodd;clip-rule:evenodd;fill:#FF4F0C;}
	.st77{fill-rule:evenodd;clip-rule:evenodd;fill:#FAD58C;}
	.st78{fill-rule:evenodd;clip-rule:evenodd;fill:#FFF3DA;}
	.st79{fill-rule:evenodd;clip-rule:evenodd;fill:#D3D4D6;}
	.st80{fill-rule:evenodd;clip-rule:evenodd;fill:#EEF5FB;}
	.st81{fill-rule:evenodd;clip-rule:evenodd;fill:#DAE3EB;}
	.st82{fill-rule:evenodd;clip-rule:evenodd;fill:#C8CED4;}
	.st83{fill-rule:evenodd;clip-rule:evenodd;fill:#CAD3DB;}
	.st84{fill-rule:evenodd;clip-rule:evenodd;fill:#FDD657;}
	.st85{fill-rule:evenodd;clip-rule:evenodd;fill:#F0C330;}
	.st86{fill-rule:evenodd;clip-rule:evenodd;fill:#315E38;}
	.st87{fill-rule:evenodd;clip-rule:evenodd;fill:#99AE4C;}
	.st88{fill-rule:evenodd;clip-rule:evenodd;fill:#D6E0E8;}
	.st89{fill-rule:evenodd;clip-rule:evenodd;fill:#FFD6C7;}
	.st90{fill-rule:evenodd;clip-rule:evenodd;fill:#BD7E18;}
	.st91{fill-rule:evenodd;clip-rule:evenodd;fill:#D5962F;}
	.st92{fill-rule:evenodd;clip-rule:evenodd;fill:#E6A947;}
	.st93{fill-rule:evenodd;clip-rule:evenodd;fill:#EDB356;}
	.st94{fill-rule:evenodd;clip-rule:evenodd;fill:#DBB97F;}
	.st95{fill-rule:evenodd;clip-rule:evenodd;fill:#EACB97;}
	.st96{fill-rule:evenodd;clip-rule:evenodd;fill:#E3BF81;}
	.st97{fill:#333333;}
	.st98{fill-rule:evenodd;clip-rule:evenodd;fill:#754528;}
	.st99{fill:#242323;}
	.st100{fill-rule:evenodd;clip-rule:evenodd;fill:#E3E4E6;}
	.st101{fill-rule:evenodd;clip-rule:evenodd;fill:#FC8A31;}
	.st102{fill-rule:evenodd;clip-rule:evenodd;fill:#E67017;}
	.st103{fill-rule:evenodd;clip-rule:evenodd;fill:#6BBA61;}
	.st104{fill-rule:evenodd;clip-rule:evenodd;fill:#FCAB6D;}
	.st105{fill-rule:evenodd;clip-rule:evenodd;fill:#FFBE8C;}
	.st106{fill:#006B43;}
	.st107{fill-rule:evenodd;clip-rule:evenodd;fill:#FA692F;}
	.st108{fill-rule:evenodd;clip-rule:evenodd;fill:#9E3E03;}
	.st109{fill-rule:evenodd;clip-rule:evenodd;fill:#C27100;}
	.st110{fill-rule:evenodd;clip-rule:evenodd;fill:#B34602;}
	.st111{fill-rule:evenodd;clip-rule:evenodd;fill:#D68007;}
	.st112{fill-rule:evenodd;clip-rule:evenodd;fill:#FDFEFF;}
	.st113{fill-rule:evenodd;clip-rule:evenodd;fill:#A66805;}
	.st114{fill-rule:evenodd;clip-rule:evenodd;fill:#CC4F00;}
	.st115{fill-rule:evenodd;clip-rule:evenodd;fill:#E68B09;}
	.st116{fill-rule:evenodd;clip-rule:evenodd;fill:#123618;}
	.st117{fill-rule:evenodd;clip-rule:evenodd;fill:#1C4622;}
	.st118{fill:#1C4622;}
	.st119{fill:#315E38;}
	.st120{fill-rule:evenodd;clip-rule:evenodd;fill:#D7D7DB;}
	.st121{fill-rule:evenodd;clip-rule:evenodd;fill:#FFFFFF;}
	.st122{fill-rule:evenodd;clip-rule:evenodd;fill:#C8CAC9;}
	.st123{fill-rule:evenodd;clip-rule:evenodd;fill:#B3B0A9;}
	.st124{fill-rule:evenodd;clip-rule:evenodd;fill:#E8DFE0;}
	.st125{fill-rule:evenodd;clip-rule:evenodd;fill:#AD8F8C;}
	.st126{fill-rule:evenodd;clip-rule:evenodd;fill:#BE9F9C;}
	.st127{fill-rule:evenodd;clip-rule:evenodd;fill:#5E4830;}
	.st128{fill:#96735A;}
	.st129{fill:#AD866B;}
	.st130{fill:#C5A189;}
	.st131{fill-rule:evenodd;clip-rule:evenodd;fill:#69523A;}
	.st132{fill-rule:evenodd;clip-rule:evenodd;fill:#DBDBDB;}
	.st133{fill-rule:evenodd;clip-rule:evenodd;fill:#F2F2F2;}
	.st134{fill-rule:evenodd;clip-rule:evenodd;fill:#6F952E;}
	.st135{fill-rule:evenodd;clip-rule:evenodd;fill:#D4E2A5;}
	.st136{fill-rule:evenodd;clip-rule:evenodd;fill:#C8D384;}
	.st137{fill-rule:evenodd;clip-rule:evenodd;fill:#F8FDFF;}
	.st138{fill-rule:evenodd;clip-rule:evenodd;fill:#F7D981;}
	.st139{fill-rule:evenodd;clip-rule:evenodd;fill:#FDE396;}
	.st140{fill-rule:evenodd;clip-rule:evenodd;fill:#E7A96E;}
	.st141{fill-rule:evenodd;clip-rule:evenodd;fill:#BA7E47;}
	.st142{fill:#FFFFFF;}
	.st143{fill-rule:evenodd;clip-rule:evenodd;fill:#C5A189;}
	.st144{fill-rule:evenodd;clip-rule:evenodd;fill:#951806;}
	.st145{fill-rule:evenodd;clip-rule:evenodd;fill:#801303;}
	.st146{fill-rule:evenodd;clip-rule:evenodd;fill:#D4510D;}
	.st147{fill-rule:evenodd;clip-rule:evenodd;fill:#E6C18A;}
	.st148{fill-rule:evenodd;clip-rule:evenodd;fill:#D59D5E;}
	.st149{fill-rule:evenodd;clip-rule:evenodd;fill:#D47507;}
	.st150{fill-rule:evenodd;clip-rule:evenodd;fill:#E38D2B;}
	.st151{fill-rule:evenodd;clip-rule:evenodd;fill:#BD6704;}
	.st152{fill-rule:evenodd;clip-rule:evenodd;fill:#E8891C;}
	.st153{fill-rule:evenodd;clip-rule:evenodd;fill:#D56400;}
	.st154{fill-rule:evenodd;clip-rule:evenodd;fill:#E6844E;}
	.st155{fill-rule:evenodd;clip-rule:evenodd;fill:#F1E2BB;}
	.st156{fill:#A33803;}
	.st157{fill-rule:evenodd;clip-rule:evenodd;fill:#A33803;}
	.st158{fill-rule:evenodd;clip-rule:evenodd;fill:#B54306;}
	.st159{fill-rule:evenodd;clip-rule:evenodd;fill:#EA6321;}
	.st160{fill-rule:evenodd;clip-rule:evenodd;fill:#821909;}
	.st161{fill-rule:evenodd;clip-rule:evenodd;fill:#C44B0E;}
	.st162{fill-rule:evenodd;clip-rule:evenodd;fill:#B3320E;}
	.st163{fill-rule:evenodd;clip-rule:evenodd;fill:#BA874D;}
	.st164{fill-rule:evenodd;clip-rule:evenodd;fill:#6F351B;}
	.st165{fill-rule:evenodd;clip-rule:evenodd;fill:#5C2C15;}
	.st166{fill-rule:evenodd;clip-rule:evenodd;fill:#FA8950;}
	.st167{fill-rule:evenodd;clip-rule:evenodd;fill:#5E401D;}
	.st168{fill:#D59D5E;}
	.st169{fill:#BA874D;}
	.st170{fill:#E4C292;}
	.st171{fill:#EA6321;}
	.st172{fill:#FA8950;}
	.st173{fill-rule:evenodd;clip-rule:evenodd;fill:#8C5B34;}
	.st174{fill:#CF9470;}
	.st175{fill-rule:evenodd;clip-rule:evenodd;fill:#AA7448;}
	.st176{fill:#EFB795;}
	.st177{fill-rule:evenodd;clip-rule:evenodd;fill:#C9D98B;}
	.st178{fill-rule:evenodd;clip-rule:evenodd;fill:#93B04A;}
	.st179{fill-rule:evenodd;clip-rule:evenodd;fill:#D1E18E;}
	.st180{fill-rule:evenodd;clip-rule:evenodd;fill:#ABCB5C;}
	.st181{fill-rule:evenodd;clip-rule:evenodd;fill:#F0DEAD;}
	.st182{fill-rule:evenodd;clip-rule:evenodd;fill:#DEBA59;}
	.st183{fill-rule:evenodd;clip-rule:evenodd;fill:#E6D3A1;}
	.st184{fill-rule:evenodd;clip-rule:evenodd;fill:#FFF3D3;}
	.st185{fill-rule:evenodd;clip-rule:evenodd;fill:#F7D474;}
	.st186{fill-rule:evenodd;clip-rule:evenodd;fill:#A86046;}
	.st187{fill-rule:evenodd;clip-rule:evenodd;fill:#CF0200;}
	.st188{fill-rule:evenodd;clip-rule:evenodd;fill:#FF2D29;}
	.st189{fill-rule:evenodd;clip-rule:evenodd;fill:#43983E;}
	.st190{fill-rule:evenodd;clip-rule:evenodd;fill:#136B29;}
	.st191{fill-rule:evenodd;clip-rule:evenodd;fill:#D1E694;}
	.st192{fill-rule:evenodd;clip-rule:evenodd;fill:#218239;}
	.st193{fill-rule:evenodd;clip-rule:evenodd;fill:#035C3B;}
	.st194{fill-rule:evenodd;clip-rule:evenodd;fill:#54A051;}
	.st195{fill-rule:evenodd;clip-rule:evenodd;fill:#FFCBA3;}
	.st196{fill-rule:evenodd;clip-rule:evenodd;fill:#EB9350;}
	.st197{fill:#EB9350;}
	.st198{fill-rule:evenodd;clip-rule:evenodd;fill:#BDBDBB;}
	.st199{fill-rule:evenodd;clip-rule:evenodd;fill:#A15E23;}
</style>
<path class="st124" d="M103.33,0c57.07,0,103.33,46.53,103.33,103.92S160.4,207.83,103.33,207.83C46.26,207.83,0,161.31,0,103.92
	S46.26,0,103.33,0L103.33,0z"/>
<path class="st125" d="M103.33,6.76c53.36,0,96.61,43.5,96.61,97.16s-43.26,97.16-96.61,97.16s-96.61-43.5-96.61-97.16
	S49.98,6.76,103.33,6.76L103.33,6.76z"/>
<path class="st126" d="M35.9,173.24c-14.44-16.98-23.17-39.02-23.17-63.12c0-53.66,43.26-97.16,96.61-97.16
	c23.55,0,45.12,8.48,61.88,22.55c14.44,16.98,23.17,39.02,23.17,63.12c0,53.66-43.26,97.16-96.61,97.16
	C74.23,195.79,52.66,187.31,35.9,173.24L35.9,173.24z"/>
<path class="st127" d="M103.33,19.58c46.31,0,83.86,37.76,83.86,84.33s-37.55,84.33-83.86,84.33s-83.86-37.76-83.86-84.33
	S57.02,19.58,103.33,19.58L103.33,19.58z"/>
<path class="st128" d="M69.87,51.45c0.12-0.06,40.73-20.01,73.02-1.89c3.29,1.85,6.25,4.07,8.87,6.59
	c9.83,9.45,14.88,23.09,15.74,37.46c0.85,14.28-2.43,29.31-9.28,41.65c-2.54,4.57-5.57,8.78-9.05,12.44h-0.01
	c-9.73,10.23-21.65,13.53-32.62,13.53c-7.54,0-14.64-1.58-20.25-3.53c-5.68-1.97-9.91-4.4-11.56-5.98l0,0
	c-0.79-0.76-1.21-1.55-1.21-2.3c0-0.76,0.14-1.53,0.44-2.24c0.5-1.15,1.39-2.08,2.79-2.54c1.17-0.39,2.7-0.41,4.63,0.12
	c2.38,0.65,5.51,2.2,9.55,5.06c0.61,0.43,1.26,0.82,1.94,1.16c5.49,2.76,13.88,3.44,21.98,1.95c8.04-1.48,15.7-5.09,19.79-10.93
	c0.5-0.72,0.95-1.46,1.32-2.21l0.45-0.91c7.37-14.82,13.12-26.37,13.28-45.09c0.04-4.53-0.99-9.34-2.84-14.03
	c-1.93-4.89-4.76-9.64-8.22-13.83c-3.55-4.3-7.74-7.98-12.27-10.57c-4.15-2.37-8.58-3.82-13.06-3.98
	c-10.37-0.39-21.54,0.15-30.6,1.6c-7.81,1.25-13.95,3.13-16.43,5.63c-2.69,2.7-4.86,5.59-5.62,7.53l-0.1,0.28
	c0.33-0.07,0.76-0.2,1.32-0.4c2.04-0.76,4.13-2.12,6.52-3.67c5.49-3.57,12.48-8.12,24.62-9.68c9.97-1.28,21.41-1.34,30.82,2.22
	c7.43,2.81,13.58,7.83,16.81,16.2c3.53,9.16,5.39,15.63,6.19,21.53c0.8,5.94,0.52,11.21-0.22,17.97c-0.71,6.4-3.25,13.11-6.69,19.27
	c-3.95,7.08-9.1,13.49-14.02,17.94l-2.35-2.62c4.65-4.21,9.54-10.3,13.31-17.04c3.23-5.79,5.62-12.04,6.27-17.94
	c0.72-6.5,0.99-11.54,0.24-17.11c-0.76-5.61-2.56-11.84-5.99-20.73c-2.81-7.3-8.23-11.7-14.78-14.17
	c-8.79-3.32-19.64-3.24-29.15-2.02c-11.34,1.46-17.96,5.76-23.15,9.14c-2.58,1.68-4.84,3.15-7.22,4.03
	c-1.7,0.63-2.99,0.78-3.93,0.55c-1.28-0.31-1.97-1.12-2.17-2.31c-0.13-0.79,0.02-1.71,0.42-2.71c0.93-2.38,3.41-5.73,6.41-8.75
	c3.03-3.05,9.87-5.25,18.37-6.61c9.29-1.49,20.7-2.03,31.28-1.64c5.08,0.19,10.05,1.81,14.67,4.44c4.92,2.81,9.45,6.77,13.25,11.38
	c3.67,4.45,6.69,9.54,8.77,14.79c2.01,5.1,3.13,10.36,3.09,15.36c-0.16,19.53-6.07,31.4-13.65,46.63l-0.45,0.91
	c-0.47,0.95-1,1.83-1.58,2.66c-0.37,0.53-0.76,1.04-1.18,1.53l0.29-0.3l0,0c3.28-3.45,6.14-7.42,8.53-11.73
	c6.53-11.76,9.66-26.1,8.84-39.73c-0.81-13.54-5.52-26.34-14.65-35.13c-2.4-2.31-5.11-4.35-8.15-6.05
	c-30.7-17.23-69.69,1.93-69.81,1.98L69.87,51.45L69.87,51.45z M116.54,157.7c7.12,0,14.66-1.49,21.61-5.62
	c-3.84,2.08-8.21,3.52-12.67,4.34c-8.8,1.62-18.02,0.82-24.17-2.27c-0.87-0.44-1.68-0.92-2.4-1.43c-3.69-2.61-6.45-3.99-8.46-4.55
	c-1.2-0.33-2.04-0.35-2.61-0.16c-0.34,0.11-0.56,0.33-0.67,0.59c-0.08,0.19-0.13,0.43-0.14,0.68l0.06-0.06
	c0.01-0.04,0.03-0.07,0.05-0.05v0.01c1.36,1.31,5.09,3.39,10.29,5.2C102.71,156.22,109.41,157.7,116.54,157.7L116.54,157.7z
	 M87.04,149.3l0.05-0.06l0-0.01L87.04,149.3L87.04,149.3L87.04,149.3z M87.09,149.24l-0.05,0.06l0,0.14
	C87.03,149.6,87.05,149.36,87.09,149.24L87.09,149.24z"/>
<path class="st129" d="M103.55,167.35c-0.13-0.02-44.89-6.33-61.57-39.52c-1.7-3.38-2.92-6.89-3.69-10.45
	c-2.89-13.36,0.52-27.51,7.8-39.9c7.23-12.31,18.32-22.92,30.86-29.3c4.65-2.36,9.5-4.15,14.42-5.22l0.01,0
	c13.76-3.01,25.48,0.96,34.57,7.14c6.25,4.24,11.26,9.54,14.82,14.31c3.61,4.83,5.77,9.22,6.26,11.47l0,0
	c0.23,1.08,0.14,1.96-0.28,2.58c-0.43,0.63-0.97,1.19-1.61,1.6c-1.05,0.67-2.31,0.94-3.72,0.54c-1.19-0.34-2.47-1.17-3.77-2.7
	c-1.61-1.88-3.35-4.92-5.11-9.57c-0.26-0.7-0.59-1.39-0.96-2.06c-3.01-5.37-9.59-10.66-17.13-13.98c-7.49-3.3-15.85-4.61-22.49-2.07
	c-0.82,0.31-1.59,0.67-2.32,1.09l-0.88,0.5C74.39,59.94,63.2,66.28,52.66,81.7c-2.55,3.74-4.38,8.3-5.45,13.23
	c-1.12,5.14-1.42,10.67-0.89,16.09c0.55,5.56,1.97,10.97,4.29,15.66c2.12,4.29,4.99,7.99,8.61,10.65
	c8.38,6.15,17.93,11.99,26.25,15.89c7.17,3.36,13.31,5.25,16.75,4.58c3.73-0.73,7.14-1.9,8.85-3.08l0.24-0.17
	c-0.31-0.13-0.74-0.26-1.32-0.41c-2.11-0.52-4.6-0.57-7.45-0.63c-6.54-0.13-14.86-0.29-25.79-5.83
	c-8.98-4.55-18.49-10.93-24.31-19.18c-4.59-6.5-6.9-14.13-4.92-22.89c2.17-9.58,4.23-15.99,6.85-21.33
	c2.64-5.37,5.8-9.59,10.18-14.77c4.15-4.91,9.99-9.04,16.27-12.21c7.21-3.64,15.05-6.06,21.6-6.98l0.49,3.5
	c-6.2,0.87-13.64,3.17-20.51,6.64c-5.9,2.98-11.35,6.82-15.17,11.34c-4.21,4.98-7.24,9.01-9.71,14.05
	c-2.49,5.08-4.47,11.26-6.57,20.55c-1.73,7.63,0.31,14.33,4.36,20.06c5.44,7.7,14.48,13.74,23.03,18.08
	c10.21,5.18,18.09,5.33,24.28,5.45c3.08,0.06,5.76,0.11,8.23,0.72c1.76,0.43,2.91,1.04,3.57,1.76c0.89,0.97,1.02,2.04,0.51,3.14
	c-0.33,0.73-0.97,1.4-1.85,2.01c-2.1,1.45-6.02,2.83-10.18,3.64c-4.21,0.82-11.1-1.2-18.9-4.86c-8.52-3.99-18.29-9.96-26.84-16.24
	c-4.1-3.01-7.33-7.15-9.69-11.93c-2.52-5.1-4.06-10.93-4.65-16.89c-0.57-5.76-0.24-11.67,0.96-17.19
	c1.17-5.36,3.17-10.35,5.98-14.47c11-16.09,22.5-22.61,37.26-30.97l0.88-0.5c0.92-0.52,1.85-0.96,2.79-1.32
	c0.6-0.23,1.21-0.43,1.83-0.61l-0.41,0.09l0,0c-4.64,1.01-9.21,2.69-13.59,4.92C66.58,57.4,56.01,67.52,49.1,79.28
	c-6.86,11.68-10.08,24.93-7.4,37.36c0.7,3.26,1.82,6.48,3.39,9.6c15.86,31.55,58.84,37.61,58.96,37.63L103.55,167.35L103.55,167.35z
	 M123.97,53.03c-5.9-4-12.98-7.01-21.04-7.5c4.34,0.44,8.76,1.7,12.91,3.53c8.19,3.61,15.4,9.46,18.77,15.48
	c0.48,0.86,0.88,1.7,1.19,2.53c1.61,4.24,3.12,6.94,4.48,8.53c0.81,0.94,1.5,1.43,2.07,1.6c0.35,0.1,0.65,0.04,0.89-0.11
	c0.18-0.11,0.34-0.28,0.5-0.49l-0.08,0.02c-0.04,0.03-0.07,0.04-0.07,0.02l0-0.01c-0.4-1.85-2.33-5.68-5.64-10.1
	C134.61,62.04,129.89,57.04,123.97,53.03L123.97,53.03z M143.75,76.59l-0.08,0.02l-0.01,0.01L143.75,76.59L143.75,76.59
	L143.75,76.59z M143.68,76.61l0.08-0.02l0.08-0.11C143.93,76.34,143.78,76.53,143.68,76.61L143.68,76.61z"/>
<path class="st128" d="M107.84,53.08c0.13,0.01,44.32,4.26,45.66,39.78c0.64,16.84-2.16,30.35-7.44,40.14
	c-5.72,10.6-14.32,16.88-24.64,18.38c-10.05,1.46-21.07,0.31-31.2-3.29c-9.56-3.4-18.35-8.99-24.77-16.65
	c-6.55-7.8-10.75-13.68-12.9-20c-2.17-6.38-2.21-13.06-0.39-22.39c1.75-8.96,8.48-16.58,17.16-22.11c9.7-6.17,21.92-9.77,32.27-9.67
	c10.5,0.1,22.6,2.99,31.86,8.26c0.42,0.24,0.83,0.48,1.23,0.73c-12.16-8.23-27.12-9.68-27.19-9.68L107.84,53.08L107.84,53.08z
	 M149.99,92.99c-0.13-3.35-0.68-6.39-1.57-9.16c0.04,0.25,0.08,0.51,0.12,0.76c1.01,7.48,1.53,15.98,0.94,24.11
	C150.02,103.87,150.21,98.63,149.99,92.99L149.99,92.99z M126.73,146.4c5.07-1.92,9.52-5.35,13.14-10.2
	C136.33,140.22,131.82,143.83,126.73,146.4L126.73,146.4z M91.38,144.77c0.93,0.33,1.88,0.64,2.82,0.93
	c-7.67-4-15.82-9.72-22.47-15.79c-7.07-6.45-12.5-13.38-13.98-19.25c-1.62-6.42-1.27-15.03,0.98-22.8
	c1.69-5.83,4.46-11.23,8.28-14.97c-5.84,4.63-10.15,10.38-11.41,16.84c-1.7,8.7-1.69,14.84,0.26,20.58
	c1.97,5.81,5.98,11.37,12.25,18.85C74.13,136.33,82.37,141.57,91.38,144.77L91.38,144.77z M99.33,60.84
	c-6.9,0.3-14.51,2.23-21.46,5.45c4.87-2.07,10.59-3.79,16.37-4.77C95.94,61.23,97.64,61,99.33,60.84L99.33,60.84z M127.98,66.69
	c-2.79-1.29-5.76-2.38-8.81-3.25c1.58,0.61,3.08,1.15,4.52,1.67C125.18,65.65,126.61,66.16,127.98,66.69L127.98,66.69z
	 M145.06,85.06c-0.44-3.21-1.84-6.15-3.96-8.78c1.4,2.39,2.43,5.37,3.03,9.2c0.34,2.17,0.76,4.42,1.17,6.64
	c0.28,1.48,0.55,2.94,0.8,4.38C145.93,92.55,145.56,88.68,145.06,85.06L145.06,85.06z M138.65,132.16c2.27-2.9,3.93-6.51,5.11-10.54
	c-1.32,2.42-3.08,4.86-5.39,7.32c-6.71,7.14-15.18,12.37-23.18,14.8c-5.45,1.66-10.72,2.03-15.17,0.86
	c6.65,2.82,13.39,2.76,19.54,0.89C127.27,143.16,134.07,138.01,138.65,132.16L138.65,132.16z M74.09,127.31
	c5.9,5.38,13,10.47,19.82,14.25c-1.35-1.03-3.05-2.27-4.89-3.61c-10.82-7.88-26.57-19.35-26.74-30.63
	c-0.09-6.33,0.29-14.32,2.73-21.26c2.54-7.22,7.26-13.28,15.84-15.29c9.18-2.15,22.17-3.74,33.12-2.55
	c8.44,0.92,15.74,3.51,19.43,8.77c3.84,5.47,7.21,11.57,8.87,18.02l-0.42-2.26c-0.4-2.16-0.81-4.36-1.19-6.75
	c-1.82-11.69-8.72-14.18-18.16-17.59c-2.05-0.74-4.22-1.52-6.4-2.4c-5.74-2.32-13.56-2.35-21.3-1.02c-9.17,1.57-18.12,5-23.36,8.74
	c-4.39,3.13-7.54,8.81-9.36,15.11c-2.08,7.19-2.42,15.1-0.94,20.95C62.46,114.95,67.49,121.28,74.09,127.31L74.09,127.31z
	 M135.83,126.52c7.68-8.16,8.51-16.24,7.5-24.81c0.27,5.25-0.79,10.63-3.79,16.02l-0.5,0.9c-2.56,4.59-4.7,8.44-6.98,11.51
	C133.37,129,134.63,127.79,135.83,126.52L135.83,126.52z M114.17,140.36c1.65-0.5,3.32-1.13,4.99-1.88
	c-2.02,0.31-4.29,0.39-6.89,0.22c-6.84-0.44-15.62-4.17-23.41-8.79c-9.27-5.49-17.28-12.37-19.1-16.57
	c-1.87-4.31-2.7-13.14-1.53-20.78c0.94-6.14,3.19-11.66,7.25-13.88c4.95-2.71,15.92-6.1,26.99-6.14h0.01
	c7.73-0.03,15.57,1.56,21.58,6.09c5.29,3.99,9.58,7.26,12.48,10.67c-1.63-3.59-3.72-7.04-5.99-10.27c-3.02-4.31-9.42-6.48-16.93-7.3
	c-10.52-1.15-23.07,0.4-31.96,2.48c-7.16,1.68-11.14,6.85-13.32,13.02c-2.27,6.46-2.63,14.03-2.54,20.04
	c0.14,9.49,15.06,20.35,25.3,27.81c1.94,1.42,3.72,2.71,5.34,3.96C100.63,142.3,107.16,142.49,114.17,140.36L114.17,140.36z
	 M136.48,116c2.1-3.78,3.13-7.56,3.33-11.28c-0.66,2.16-1.72,4.51-3.21,7.13c-0.89,1.56-1.66,2.94-2.39,4.25
	c-7.42,13.29-11.46,20.54-24.09,15.87c-2.45-0.91-4.89-1.66-7.32-2.4c-10.79-3.32-21.46-6.6-25.43-19.35
	c-2.35-7.56-3.8-13.6-3.44-18.36c0.4-5.21,2.83-8.83,8.31-11.06c5.75-2.33,18.05-3.27,28.64-1c7.98,1.72,15.1,5.27,18.09,11.44
	c3.34,6.91,5.24,13.32,4.55,18.53l-0.08,0.52l0.11-0.2c3.96-6.95,4.43-11.54,2.38-15.5c-2.18-4.19-7.21-8.04-13.99-13.15
	c-5.32-4.01-12.41-5.42-19.48-5.39c-10.45,0.04-20.73,3.19-25.33,5.71c-2.95,1.62-4.66,6.15-5.45,11.32
	c-1.07,7.05-0.38,15.04,1.27,18.84c1.55,3.58,8.96,9.79,17.66,14.94c7.39,4.38,15.61,7.91,21.86,8.31
	c12.87,0.83,16.49-5.69,23.49-18.26L136.48,116L136.48,116z M111.33,128.65c8.79,3.25,12.54-1.46,17.86-10.79
	c-1.83,1.52-4.28,2.69-7.42,3.47c-7.18,1.78-14.69,1.87-21.17,0.19c-6.21-1.61-11.51-4.84-14.77-9.76l0,0
	c-1.99-3.01-3.53-6.17-4.44-9.21c-0.91-3.01-1.22-5.91-0.79-8.43c0.47-2.72,1.77-5,4.07-6.54c0.82-0.55,1.76-1,2.85-1.33
	c5.15-1.57,15.05-2.88,23.19-1.61c6.01,0.94,11.16,3.29,13.17,7.94c1.66,3.86,2.32,8.11,2.01,11.79c-0.21,2.5-0.88,4.77-1.98,6.54
	c-1.21,1.93-2.92,3.26-5.12,3.66h-0.01c-1.36,0.24-2.89,0.11-4.58-0.47c-2.25-0.78-5.88-1.33-9.7-1.89
	c-6.65-0.99-13.84-2.06-16.86-5c-2.44-2.37-2.5-5.45,1.52-9.63c5.14-5.34,12.26-8.62,18.4-9.77c-7-0.6-14.76,0.51-19.02,1.82
	c-0.73,0.22-1.38,0.53-1.93,0.9c-1.42,0.95-2.24,2.42-2.54,4.19c-0.34,1.97-0.07,4.32,0.68,6.81c0.82,2.7,2.2,5.54,4.01,8.27h0.01
	c2.76,4.16,7.32,6.91,12.71,8.31c5.93,1.54,12.83,1.45,19.47-0.2c5.86-1.45,8.58-4.51,9.12-8.6c0.59-4.45-1.17-10.2-4.24-16.54
	c-2.43-5.03-8.63-8.01-15.65-9.52c-9.95-2.14-21.36-1.32-26.61,0.82c-4.04,1.64-5.82,4.28-6.11,8.05
	c-0.32,4.22,1.06,9.88,3.29,17.04c3.41,10.98,13.19,13.99,23.09,17.03C106.38,126.98,108.95,127.77,111.33,128.65L111.33,128.65z
	 M122.38,104.1c0.21-2.48-0.09-5.27-0.93-7.96c-0.53,1.95-1.5,3.64-2.75,5.06c-1.94,2.2-4.57,3.72-7.33,4.56
	c-2.74,0.83-5.64,0.98-8.12,0.43c-1.73-0.38-3.29-1.11-4.49-2.18c-2.76-2.46-1.72-5.78,0.74-8.56c0.74-0.84,1.63-1.63,2.56-2.32
	c-3.73,1.53-7.43,3.85-10.4,6.93c-2.24,2.33-2.5,3.76-1.59,4.65c2.19,2.14,8.8,3.12,14.92,4.03c3.96,0.59,7.73,1.15,10.34,2.06
	c1.08,0.38,2.02,0.47,2.83,0.32c1.16-0.21,2.09-0.96,2.78-2.06C121.72,107.78,122.21,106.05,122.38,104.1L122.38,104.1z
	 M115.29,91.2c-1.38-0.33-3.1-0.41-5.01-0.21c0.99,0.52,1.6,1.54,1.65,3.18c0.24,7.96-5.63,7.7-5.64,7.7l0.1-3.52
	c0.01,0,2.17,0.11,2.05-4.08c0-0.13-0.09-0.18-0.22-0.18c-0.74,0.02-1.77,0.43-2.86,1.07c-1.17,0.68-2.33,1.62-3.23,2.63
	c-1.2,1.36-1.89,2.81-1.03,3.58c0.74,0.66,1.74,1.11,2.9,1.37c1.92,0.42,4.19,0.3,6.37-0.37c2.17-0.66,4.22-1.84,5.71-3.52
	c1-1.13,1.74-2.5,2.09-4.09c0.18-0.81,0.11-1.45-0.16-1.93C117.58,92.07,116.62,91.52,115.29,91.2L115.29,91.2z"/>
<path class="st130" d="M108.66,163.72c0.04-0.01,7.08-1.35,15.66-5.85c-5.43,1.26-11.8,1.32-18.68,0.07
	c-9.54-1.73-20.11-5.95-30.57-12.94c-11.02-7.36-19.36-17.43-23.99-28.41c-4.58-10.84-5.56-22.56-1.98-33.46
	c3.65-11.11,10.2-17.83,19.65-22.06c9.22-4.12,21.13-5.78,35.81-6.83c12.21-0.88,23.21,2.58,32.18,7.64
	c13.04,7.37,21.87,18.27,23.88,24.2c1.9,5.62,2.54,15.13,0.17,26.3c-1.81,8.54-5.38,18.1-11.49,27.68
	c-14.15,22.2-39.89,27.1-39.96,27.11L108.66,163.72L108.66,163.72z M149.53,132.72c3.95-7.33,6.42-14.51,7.81-21.06
	c2.23-10.5,1.68-19.31-0.06-24.43c-1.81-5.35-10.01-15.33-22.27-22.25c-8.44-4.77-18.78-8.02-30.22-7.2
	C90.47,58.8,78.9,60.4,70.16,64.3c-8.51,3.8-14.42,9.88-17.73,19.94c-3.3,10.06-2.38,20.91,1.87,30.98
	c4.37,10.36,12.26,19.88,22.7,26.85c10.05,6.71,20.16,10.77,29.25,12.41c9.57,1.73,17.96,0.79,23.86-2.54
	c5.38-3.03,9.51-7.47,12.55-12.68c3.5-5.98,5.57-12.97,6.46-20.02c0.35-2.77,0.9-5.71,1.48-8.76c2.25-11.94,4.82-25.64-4.63-30.45
	c-7.7-3.92-25.57-10.1-42.67-12.97c-11.68-1.96-22.92-2.37-30.07,0.58c-1.82,0.75-3.51,1.76-5.06,2.99
	c-5.73,4.53-9.52,11.9-11.29,19.62c-1.78,7.75-1.52,15.79,0.87,21.64c0.62,1.51,1.38,2.87,2.29,4.03c3.44,4.4,7.05,8.88,11.14,13.06
	c-1.3-1.54-2.49-3.15-3.55-4.8c-5.08-7.9-7.46-16.75-7.79-23.84l-0.05-1.02c-0.62-12.87-1.36-28.16,23.14-29.37
	c1.38-0.07,2.82-0.06,4.3,0c11.95,0.55,26.93,5.41,38.98,11.56c12.38,6.32,21.79,14.19,22.1,20.54c0.01,0.22,0.01,0.44,0,0.67
	c-0.32,7.06-1.82,17.23-5.29,26.25c-2.59,6.72-6.28,12.83-11.43,16.67c-5.98,4.47-9.55,6.93-14.33,7.55
	c-4.66,0.6-10.12-0.68-19.86-3.71c-9.76-3.04-17.4-7.82-23.82-13.41c-6.38-5.55-11.5-11.84-16.29-17.97
	c-1.1-1.41-2.02-3.05-2.77-4.88c-2.66-6.51-2.98-15.34-1.04-23.77c1.94-8.45,6.15-16.56,12.54-21.61c1.79-1.41,3.75-2.59,5.9-3.47
	c7.84-3.23,19.74-2.85,31.98-0.8c17.45,2.93,35.75,9.26,43.67,13.3c11.81,6.02,8.98,21.1,6.5,34.25c-0.57,3.04-1.12,5.98-1.45,8.56
	C152.03,124.12,151.03,128.53,149.53,132.72L149.53,132.72z M81.96,138.17c4.72,3.24,10.11,5.98,16.43,7.95
	c9.25,2.88,14.36,4.11,18.39,3.59c3.92-0.5,7.17-2.77,12.68-6.88c4.55-3.4,7.88-8.96,10.25-15.11c3.32-8.62,4.75-18.35,5.06-25.13
	c0-0.11,0-0.23,0-0.35c-0.24-4.98-8.84-11.77-20.18-17.56c-11.67-5.96-26.11-10.65-37.55-11.18c-1.37-0.06-2.71-0.07-3.98,0
	c-20.99,1.03-20.35,14.42-19.8,25.68l0.05,1.02c0.31,6.55,2.51,14.75,7.23,22.08c3.74,5.82,9.08,11.08,16.31,14.52
	c8.33,3.96,14.55,6.28,19.91,6.75c5.17,0.45,9.61-0.85,14.53-4.1c4.51-2.98,8.39-7.48,11.33-12.14c3.59-5.7,5.75-11.57,5.94-15.15
	c0.19-3.64-0.72-8.33-4.44-12.8c-2.87-3.44-7.41-6.76-14.39-9.4l-1.06-0.4c-16.41-6.22-35.6-13.48-43.67-8.07
	c-0.6,0.4-1.18,0.86-1.71,1.36c-3.11,2.9-5.37,7.47-5.9,12.79c-0.54,5.39,0.71,11.53,4.66,17.48c0.99,1.49,2.13,2.95,3.45,4.38
	c6.76,7.35,12.74,13,18.45,16.55c5.49,3.41,10.73,4.84,16.23,3.9c4.79-0.81,8.86-3.43,12.05-6.69c4.17-4.26,6.8-9.58,7.58-13.46
	c0.69-3.48,1.13-7.2,0.32-10.51c-0.78-3.17-2.76-6.07-6.9-8.19c-1.49-0.76-3.51-1.93-5.81-3.27c-10.7-6.2-27.9-16.16-35.37-8.97
	c-1.58,1.52-2.96,2.76-4.2,3.86c-6.27,5.61-8.48,7.58-0.6,17.88c1.45,1.89,2.5,3.28,3.49,4.6c7.75,10.29,11.9,15.8,20.7,17.26
	c4.04,0.67,9.72-1.55,14.46-5.09c2.18-1.63,4.14-3.52,5.64-5.53c1.44-1.93,2.43-3.95,2.76-5.92c0.32-1.94-0.04-3.85-1.31-5.58
	c-0.41-0.55-0.88-1.12-1.41-1.7c-4.46-4.83-12.57-9.82-20.22-13.13c-7.32-3.16-14.01-4.83-16.14-3.24l-0.08,0.07
	c-1,0.94-2.08,1.74-3.12,2.51c-3.63,2.71-6.69,4.99-0.18,13.33v0.01l0.75,0.96c8.56,10.98,16.18,20.77,24.17,16.6
	c4.41-2.3,8.58-4.94,11.2-7.53c1.11-1.1,1.92-2.16,2.31-3.13c0.29-0.74,0.32-1.43,0.01-2.04c-0.14-0.25-0.32-0.51-0.56-0.75
	c-2.32-2.38-10.82-8.71-18.76-12.67c-3.09-1.54-6.06-2.71-8.46-3.1c-1.92-0.31-3.38-0.13-4.01,0.8c-0.2,0.3-0.35,0.69-0.44,1.21
	c-0.06,0.33-0.11,0.67-0.15,1.01c-0.61,5,0.75,9.64,3.07,13.17l0.25,0.37c-0.22-0.64-0.39-1.33-0.53-2.05
	c-0.37-1.9-0.46-4.01-0.55-5.9c-0.05-1.05-0.09-2.03-0.19-2.85c-0.08-0.67,0.03-1.25,0.31-1.76l0,0c0.68-1.22,2.01-1.6,3.76-1.35
	c1.17,0.17,2.62,0.63,4.21,1.28c5.52,2.25,13.21,7.02,15.89,9.83c0.85,0.89,1.31,1.86,1.45,2.86c0.21,1.54-0.35,3.02-1.45,4.35
	c-0.94,1.13-2.3,2.16-3.9,3c-3.09,1.63-7.16,2.59-10.75,2.15h-0.01c-0.19-0.02-0.39-0.05-0.58-0.09c-4.02-0.71-8.04-3.64-10.84-7.89
	c-2.75-4.17-4.35-9.65-3.64-15.53c0.05-0.39,0.11-0.79,0.18-1.19v-0.01c0.18-1.01,0.52-1.87,1-2.59c1.53-2.25,4.19-2.83,7.46-2.29
	c2.79,0.45,6.09,1.74,9.46,3.42c8.28,4.14,17.23,10.82,19.71,13.36c0.5,0.51,0.89,1.05,1.18,1.6v0.01c0.82,1.6,0.81,3.27,0.13,4.96
	c-0.58,1.47-1.66,2.93-3.11,4.35c-2.9,2.86-7.37,5.71-12.05,8.15c-10.55,5.51-19.03-5.37-28.53-17.57l-0.75-0.96l0,0
	c-8.73-11.19-4.35-14.47,0.85-18.35c0.95-0.71,1.93-1.44,2.81-2.27c0.12-0.11,0.24-0.22,0.39-0.32c3.22-2.4,11.25-0.79,19.62,2.82
	c8.04,3.47,16.61,8.77,21.41,13.97c0.61,0.66,1.16,1.33,1.66,2c1.9,2.57,2.43,5.4,1.96,8.25c-0.42,2.55-1.65,5.1-3.42,7.47
	c-1.7,2.29-3.91,4.43-6.35,6.25c-5.43,4.05-12.13,6.57-17.11,5.74c-10.19-1.69-14.64-7.59-22.94-18.61
	c-1.17-1.56-2.43-3.22-3.46-4.57c-9.89-12.9-7.04-15.45,1.04-22.67c1.27-1.13,2.68-2.39,4.1-3.77c9.36-9.02,27.97,1.76,39.54,8.46
	c2.15,1.24,4.04,2.34,5.66,3.17c5.2,2.66,7.7,6.39,8.71,10.5c0.97,3.96,0.5,8.16-0.28,12.04c-0.88,4.43-3.85,10.46-8.52,15.24
	c-3.66,3.74-8.37,6.75-13.97,7.7c-6.4,1.09-12.42-0.52-18.65-4.38c-6.01-3.73-12.21-9.58-19.18-17.15c-1.46-1.59-2.72-3.2-3.79-4.81
	c-4.44-6.7-5.85-13.65-5.24-19.78c0.62-6.2,3.31-11.58,7.01-15.03c0.69-0.64,1.41-1.21,2.14-1.71c9.57-6.42,29.67,1.19,46.86,7.7
	l1.06,0.4c7.61,2.88,12.62,6.57,15.84,10.44c4.41,5.29,5.48,10.88,5.25,15.24c-0.22,4.12-2.57,10.65-6.47,16.85
	c-3.18,5.05-7.41,9.95-12.37,13.22c-5.62,3.71-10.74,5.19-16.75,4.66c-5.82-0.51-12.4-2.94-21.1-7.08
	C84.18,139.42,83.04,138.81,81.96,138.17L81.96,138.17z M95.41,115.33c1.31,0.89,2.69,1.48,4.05,1.72c0.13,0.02,0.27,0.04,0.4,0.06
	c2.89,0.35,6.19-0.43,8.71-1.76c1.19-0.63,2.19-1.37,2.83-2.15c0.48-0.58,0.74-1.13,0.67-1.61c-0.04-0.28-0.2-0.58-0.51-0.9
	c-1.61-1.69-5.34-4.21-9.17-6.32c0.75,0.67,1.36,1.5,1.76,2.39c0.49,1.08,0.67,2.26,0.44,3.43c-0.23,1.18-0.88,2.3-2.06,3.23l0,0
	c-1.02,0.81-2.46,1.46-4.39,1.84C97.11,115.46,96.2,115.48,95.41,115.33L95.41,115.33z M101.85,104.07
	c-1.71-0.92-3.42-1.75-4.96-2.38c-1.35-0.55-2.53-0.93-3.39-1.06l-0.02-0.01c0.05,0.7,0.09,1.49,0.13,2.32
	c0.08,1.74,0.17,3.68,0.5,5.37c0.42,2.17,1.3,3.87,3.38,3.46c1.35-0.26,2.28-0.67,2.89-1.15h0.01c0.45-0.36,0.69-0.75,0.77-1.15
	c0.08-0.41,0-0.86-0.19-1.29c-0.24-0.54-0.65-1.03-1.16-1.42L101.85,104.07L101.85,104.07z"/>
<path class="st129" d="M56.25,91.17c-0.01,0.04-1.1,7.16,0.25,16.8c0.63-5.57,2.71-11.62,6.18-17.73
	c4.81-8.46,12.3-17.07,22.34-24.65c10.58-7.99,22.8-12.52,34.64-13.25c11.69-0.72,23,2.27,32.02,9.31
	c9.19,7.17,13.31,15.63,14.1,25.99c0.78,10.11-1.65,21.96-5.56,36.22c-3.26,11.87-10.17,21.14-17.92,27.95
	c-11.26,9.9-24.43,14.62-30.66,14.54c-5.91-0.07-15.03-2.65-24.71-8.63c-7.4-4.57-15.16-11.15-22.1-20.15
	c-16.07-20.83-12.07-46.86-12.06-46.94L56.25,91.17L56.25,91.17z M71.64,140.27c5.55,6.19,11.45,10.94,17.13,14.45
	c9.1,5.62,17.53,8.04,22.92,8.11c5.62,0.07,17.72-4.37,28.3-13.67c7.29-6.41,13.79-15.12,16.85-26.23
	c3.82-13.93,6.2-25.42,5.46-35.02c-0.72-9.34-4.44-16.97-12.77-23.47c-8.32-6.49-18.8-9.25-29.65-8.58
	c-11.17,0.68-22.73,4.98-32.75,12.55c-9.65,7.29-16.83,15.51-21.41,23.58c-4.82,8.49-6.74,16.75-5.6,23.46
	c1.04,6.11,3.82,11.51,7.69,16.14c4.44,5.31,10.29,9.61,16.6,12.81c2.48,1.26,5.05,2.76,7.72,4.33
	c10.44,6.12,22.41,13.14,30.09,5.79c6.25-5.99,18.01-20.86,26.41-36.11c5.74-10.42,9.88-20.93,9.51-28.69
	c-0.1-1.98-0.48-3.91-1.11-5.79c-2.33-6.94-7.97-13-14.62-17.26c-6.67-4.28-14.3-6.72-20.57-6.41c-1.62,0.08-3.15,0.35-4.54,0.82
	c-5.28,1.79-10.68,3.71-15.96,6.19c1.88-0.72,3.79-1.3,5.69-1.76c9.1-2.18,18.19-1.47,24.95,0.58l0.97,0.29
	c12.26,3.71,26.85,8.13,19.79,31.75c-0.4,1.33-0.88,2.69-1.44,4.07c-4.51,11.14-14.07,23.72-23.86,33.08
	c-10.06,9.62-20.59,15.91-26.64,14.08c-0.21-0.06-0.42-0.14-0.62-0.22c-6.51-2.67-15.54-7.48-22.83-13.79
	c-5.43-4.7-9.93-10.25-11.81-16.41c-2.19-7.16-3.31-11.37-2.28-16.1c1-4.62,4.02-9.37,10.12-17.59
	c6.11-8.24,13.15-13.88,20.52-18.09c7.33-4.19,14.94-6.94,22.29-9.43c1.69-0.57,3.54-0.9,5.49-0.99c6.99-0.34,15.37,2.31,22.62,6.95
	c7.27,4.66,13.47,11.36,16.06,19.11c0.73,2.17,1.17,4.42,1.28,6.75c0.41,8.51-3.92,19.66-9.94,30.58
	c-8.57,15.56-20.63,30.79-27.06,36.95c-9.59,9.19-22.78,1.45-34.27-5.28c-2.66-1.56-5.23-3.06-7.53-4.23
	C78.87,145.52,75.07,143.09,71.64,140.27L71.64,140.27z M89.12,74.4c-4.61,3.39-8.99,7.58-12.95,12.92
	c-5.79,7.81-8.65,12.24-9.51,16.23c-0.84,3.88,0.2,7.72,2.21,14.32c1.66,5.45,5.76,10.46,10.74,14.77
	c6.97,6.03,15.61,10.64,21.86,13.2c0.1,0.04,0.21,0.08,0.33,0.12c4.75,1.43,13.99-4.44,23.2-13.25
	c9.48-9.07,18.71-21.19,23.03-31.85c0.52-1.28,0.97-2.54,1.33-3.77c6.05-20.24-6.72-24.1-17.45-27.35l-0.98-0.3
	c-6.24-1.9-14.66-2.55-23.11-0.53c-6.7,1.6-13.42,4.9-19.06,10.6c-6.5,6.57-10.75,11.69-12.98,16.61
	c-2.15,4.74-2.41,9.39-1.02,15.14c1.28,5.27,4.2,10.45,7.59,14.79c4.15,5.31,8.92,9.31,12.22,10.69c3.35,1.4,8.05,2.11,13.48,0.07
	c4.19-1.57,8.81-4.76,13.62-10.49l0.73-0.87c11.31-13.48,24.54-29.24,22.16-38.69c-0.18-0.71-0.41-1.4-0.7-2.08
	c-1.67-3.91-5.2-7.59-10.01-9.87c-4.87-2.31-11.04-3.18-17.94-1.42c-1.72,0.44-3.48,1.03-5.26,1.8
	c-9.14,3.95-16.44,7.73-21.67,11.96c-5.03,4.07-8.12,8.56-9.08,14.08c-0.84,4.81,0.26,9.54,2.25,13.66
	c2.6,5.38,6.7,9.65,10.08,11.68c3.03,1.82,6.37,3.48,9.75,3.81c3.23,0.32,6.61-0.59,9.98-3.8c1.21-1.15,2.99-2.68,5.01-4.42
	c9.39-8.07,24.47-21.04,20.23-30.52c-0.9-2-1.59-3.73-2.22-5.27c-3.16-7.82-4.27-10.57-16.56-6.54c-2.26,0.74-3.91,1.27-5.47,1.77
	c-12.24,3.91-18.78,6-23.09,13.85c-1.98,3.6-1.79,9.73-0.06,15.41c0.8,2.61,1.91,5.1,3.3,7.19c1.33,2.01,2.89,3.63,4.63,4.59
	c1.71,0.95,3.62,1.25,5.67,0.62c0.65-0.2,1.34-0.46,2.06-0.77c6.02-2.61,13.4-8.63,19.06-14.78c5.41-5.88,9.21-11.67,8.43-14.22
	l-0.04-0.1c-0.54-1.26-0.94-2.55-1.32-3.79c-1.32-4.34-2.44-8-12.44-4.62l-0.01,0L118,85.34c-13.15,4.44-24.87,8.4-23.63,17.36
	c0.68,4.95,1.76,9.78,3.31,13.13c0.66,1.42,1.38,2.54,2.16,3.24c0.6,0.53,1.23,0.78,1.91,0.69c0.28-0.04,0.58-0.13,0.89-0.28
	c3.01-1.41,11.78-7.35,18.15-13.55c2.48-2.41,4.56-4.83,5.73-6.98c0.93-1.72,1.25-3.16,0.59-4.07c-0.21-0.29-0.53-0.56-0.98-0.82
	c-0.29-0.17-0.59-0.33-0.89-0.48c-4.48-2.24-9.28-2.51-13.37-1.49l-0.43,0.11c0.68,0.01,1.38,0.07,2.1,0.18
	c1.9,0.28,3.92,0.9,5.71,1.45c1,0.31,1.93,0.59,2.74,0.77c0.65,0.15,1.16,0.45,1.55,0.89l0,0c0.92,1.05,0.83,2.44,0,4.02
	c-0.55,1.05-1.47,2.27-2.61,3.56c-3.95,4.48-10.99,10.18-14.52,11.78c-1.12,0.51-2.18,0.62-3.17,0.42
	c-1.51-0.31-2.72-1.34-3.59-2.83c-0.74-1.27-1.26-2.91-1.51-4.7c-0.49-3.47-0.03-7.65,1.58-10.9l0-0.01
	c0.09-0.17,0.18-0.35,0.28-0.52c2.01-3.58,6.1-6.41,11.02-7.64c4.83-1.21,10.49-0.9,15.77,1.74c0.35,0.18,0.71,0.37,1.06,0.57
	l0.01,0c0.89,0.51,1.58,1.12,2.09,1.81c1.6,2.2,1.25,4.91-0.34,7.83c-1.36,2.49-3.66,5.19-6.36,7.82
	c-6.64,6.46-15.9,12.72-19.11,14.21c-0.65,0.3-1.28,0.5-1.89,0.58l-0.01,0c-1.77,0.25-3.33-0.33-4.7-1.53
	c-1.18-1.04-2.19-2.56-3.04-4.4c-1.71-3.71-2.88-8.89-3.61-14.15c-1.64-11.84,11.39-16.24,26-21.17l1.15-0.39l0,0
	c13.41-4.54,15.01,0.71,16.91,6.94c0.35,1.14,0.71,2.31,1.18,3.43c0.06,0.14,0.12,0.3,0.17,0.47c1.17,3.85-3.02,10.93-9.2,17.65
	c-5.94,6.46-13.77,12.81-20.25,15.62c-0.82,0.36-1.63,0.66-2.43,0.91c-3.04,0.94-5.87,0.5-8.38-0.9c-2.25-1.25-4.23-3.27-5.86-5.73
	c-1.58-2.38-2.84-5.19-3.73-8.11c-1.98-6.5-2.1-13.69,0.34-18.14c4.99-9.1,12-11.34,25.11-15.52c1.85-0.59,3.83-1.22,5.44-1.75
	c15.4-5.06,16.83-1.51,20.9,8.56c0.64,1.58,1.35,3.34,2.16,5.15c5.32,11.89-10.99,25.92-21.14,34.65c-1.88,1.62-3.54,3.04-4.86,4.31
	c-4.23,4.04-8.57,5.16-12.75,4.75c-4.04-0.4-7.81-2.26-11.2-4.29c-3.85-2.31-8.51-7.14-11.43-13.17
	c-2.28-4.72-3.53-10.19-2.55-15.82C77.58,94.17,81.1,89,86.8,84.39c5.5-4.45,13.06-8.37,22.49-12.44c1.98-0.85,3.91-1.51,5.78-1.99
	c7.76-1.97,14.75-0.98,20.29,1.65c5.6,2.66,9.74,7,11.74,11.67c0.37,0.87,0.67,1.74,0.88,2.6c2.82,11.22-11.03,27.72-22.87,41.84
	l-0.73,0.87c-5.24,6.25-10.38,9.77-15.08,11.53c-6.43,2.41-12.03,1.55-16.04-0.12c-3.79-1.58-9.12-6-13.63-11.77
	c-3.67-4.7-6.85-10.35-8.25-16.14c-1.6-6.57-1.27-11.91,1.23-17.44c2.42-5.35,6.9-10.77,13.69-17.64
	C87.21,76.09,88.16,75.22,89.12,74.4L89.12,74.4z M106.03,94.79c-1.27,0.94-2.29,2.05-2.97,3.26c-0.07,0.12-0.13,0.24-0.19,0.36
	c-1.3,2.62-1.66,6.01-1.26,8.84c0.19,1.34,0.55,2.53,1.07,3.4c0.38,0.65,0.82,1.08,1.28,1.17c0.27,0.06,0.61,0,1.02-0.18
	c2.13-0.96,5.73-3.65,8.99-6.58c-0.88,0.48-1.86,0.79-2.82,0.87c-1.17,0.1-2.34-0.12-3.36-0.73c-1.03-0.61-1.86-1.61-2.34-3.03l0,0
	c-0.42-1.24-0.54-2.82-0.26-4.77C105.34,96.35,105.63,95.49,106.03,94.79L106.03,94.79z M114.43,104.65
	c1.43-1.31,2.78-2.66,3.88-3.91c0.97-1.1,1.72-2.08,2.12-2.86l0.01-0.02c-0.67-0.18-1.42-0.41-2.22-0.66
	c-1.65-0.51-3.51-1.07-5.2-1.33c-2.18-0.33-4.06-0.06-4.37,2.05c-0.2,1.36-0.14,2.39,0.11,3.12l0,0.01
	c0.18,0.55,0.47,0.91,0.82,1.11c0.36,0.21,0.8,0.29,1.27,0.25c0.58-0.05,1.19-0.27,1.72-0.62L114.43,104.65L114.43,104.65z"/>
<path class="st130" d="M62.47,136.72c0.02,0.03,4.61,5.57,12.68,10.93c-3.73-4.16-6.87-9.73-9.13-16.39
	c-3.13-9.23-4.59-20.57-3.6-33.16c1.04-13.26,5.75-25.48,13.05-34.89c7.2-9.28,16.92-15.84,28.13-17.98
	c11.43-2.18,20.46,0.31,28.71,6.57c8.06,6.11,15.28,15.77,23.33,28.16c6.69,10.31,9.03,21.66,8.98,32
	c-0.07,15.04-5.27,28.1-9.45,32.74c-3.96,4.41-11.92,9.58-22.78,12.92c-8.31,2.55-18.35,4.05-29.65,3.34
	c-26.17-1.66-42.92-21.91-42.97-21.97L62.47,136.72L62.47,136.72z M109.26,157.61c8.29-0.09,15.73-1.4,22.1-3.36
	c10.21-3.14,17.6-7.9,21.21-11.92c3.77-4.19,8.47-16.25,8.53-30.38c0.05-9.74-2.14-20.4-8.41-30.06
	c-7.85-12.1-14.85-21.49-22.5-27.29c-7.44-5.64-15.59-7.88-25.94-5.9c-10.35,1.98-19.34,8.06-26.02,16.68
	c-6.88,8.88-11.33,20.43-12.32,32.99c-0.95,12.1,0.43,22.96,3.41,31.74c3.14,9.25,8.03,16.17,13.79,19.74
	c5.25,3.26,11.11,4.73,17.12,4.88c6.9,0.17,13.98-1.4,20.54-4.04c2.58-1.04,5.4-1.98,8.33-2.96c11.47-3.82,24.63-8.21,24.22-18.86
	c-0.33-8.68-3.64-27.38-9.44-43.81c-3.97-11.22-9.07-21.3-15.1-26.16c-1.54-1.24-3.24-2.23-5.06-3c-6.72-2.84-14.97-2.6-22.54-0.4
	c-7.6,2.2-14.47,6.33-18.39,11.27c-1.01,1.28-1.83,2.61-2.4,3.97c-2.16,5.16-4.3,10.51-5.95,16.13c0.71-1.9,1.54-3.72,2.45-5.45
	c4.4-8.3,10.94-14.69,16.94-18.42l0.86-0.54c10.88-6.79,23.82-14.86,36.77,6.09c0.73,1.18,1.42,2.44,2.08,3.78
	c5.32,10.77,8.37,26.3,8.87,39.88c0.52,13.95-1.76,26.05-7.13,29.4c-0.19,0.12-0.38,0.23-0.58,0.32c-6.3,3.14-15.86,6.76-25.39,8.09
	c-7.1,0.99-14.21,0.7-20.05-1.96c-6.79-3.09-10.67-5.03-13.52-8.93c-2.78-3.81-4.32-9.23-6.42-19.27
	c-2.1-10.06-1.65-19.1,0.09-27.45c1.73-8.3,4.71-15.85,7.72-23.04c0.69-1.65,1.67-3.26,2.9-4.8c4.37-5.5,11.89-10.07,20.15-12.46
	c8.29-2.4,17.38-2.64,24.88,0.54c2.1,0.89,4.07,2.04,5.88,3.5c6.61,5.32,12.06,15.97,16.22,27.73c5.93,16.76,9.3,35.93,9.64,44.85
	c0.5,13.31-13.99,18.14-26.62,22.34c-2.92,0.97-5.74,1.91-8.14,2.88C117.95,155.63,113.63,156.89,109.26,157.61L109.26,157.61z
	 M71.72,100.84c-0.52,5.72-0.29,11.79,1.07,18.31c1.99,9.53,3.4,14.62,5.81,17.91c2.34,3.2,5.89,4.96,12.14,7.81
	c5.16,2.35,11.61,2.58,18.12,1.68c9.1-1.26,18.26-4.73,24.3-7.75c0.1-0.05,0.2-0.11,0.3-0.17c4.21-2.63,5.94-13.49,5.47-26.26
	c-0.49-13.15-3.41-28.13-8.51-38.44c-0.61-1.24-1.26-2.41-1.93-3.5c-11.09-17.95-22.41-10.89-31.94-4.94l-0.87,0.54
	c-5.55,3.45-11.6,9.36-15.68,17.07c-3.24,6.12-5.23,13.36-4.71,21.39c0.6,9.24,1.61,15.84,3.8,20.78c2.11,4.76,5.4,8.03,10.62,10.79
	c4.78,2.52,10.57,3.75,16.05,4.06c6.7,0.39,12.85-0.56,16.06-2.14c3.26-1.6,6.9-4.67,8.97-10.12c1.6-4.19,2.28-9.79,1.19-17.21
	l-0.17-1.13c-2.56-17.45-5.56-37.85-14.19-42.31c-0.64-0.33-1.32-0.62-2.02-0.85c-4.03-1.33-9.1-1.1-13.98,1.02
	c-4.95,2.14-9.68,6.22-12.93,12.58c-0.81,1.59-1.53,3.31-2.14,5.16c-3.1,9.51-5.12,17.51-5.43,24.25
	c-0.3,6.48,1.01,11.79,4.49,16.17c3.03,3.81,7.28,6.12,11.67,7.34c5.73,1.59,11.63,1.33,15.38,0.13c3.36-1.08,6.81-2.5,9.29-4.82
	c2.38-2.22,3.94-5.37,3.77-10.04c-0.06-1.68-0.02-4.02,0.02-6.7c0.19-12.42,0.51-32.38-9.37-35.45c-2.09-0.65-3.83-1.26-5.4-1.82
	c-7.92-2.79-10.71-3.78-15.83,8.15c-0.94,2.19-1.64,3.79-2.3,5.3c-5.18,11.81-7.95,18.13-4.95,26.58
	c1.38,3.88,6.07,7.79,11.45,10.24c2.47,1.13,5.07,1.93,7.54,2.27c2.38,0.33,4.62,0.22,6.48-0.45c1.84-0.66,3.33-1.9,4.22-3.86
	c0.28-0.62,0.54-1.32,0.79-2.07c2.04-6.27,2.44-15.82,1.59-24.15c-0.81-7.98-2.61-14.66-5.02-15.76l-0.1-0.04
	c-1.3-0.43-2.52-0.98-3.7-1.52c-4.11-1.87-7.58-3.46-11.68,6.32l-0.01,0l-0.47,1.13c-5.39,12.85-10.2,24.31-2.7,29.31
	c4.14,2.76,8.46,5.14,11.98,6.19c1.5,0.45,2.81,0.64,3.84,0.51c0.79-0.1,1.4-0.41,1.78-0.99c0.16-0.24,0.29-0.53,0.38-0.86
	c0.94-3.2,2.31-13.74,1.91-22.65c-0.16-3.47-0.58-6.64-1.41-8.94c-0.66-1.84-1.53-3.03-2.64-3.14c-0.35-0.03-0.77,0.03-1.26,0.2
	c-0.32,0.11-0.64,0.23-0.95,0.36c-4.64,1.89-8.01,5.34-9.95,9.09l-0.2,0.4c0.45-0.5,0.97-0.99,1.53-1.47
	c1.47-1.25,3.26-2.36,4.86-3.35c0.89-0.55,1.72-1.06,2.39-1.55c0.54-0.39,1.1-0.58,1.69-0.58v0c1.39,0,2.37,0.98,3,2.66
	c0.42,1.11,0.72,2.61,0.93,4.32c0.72,5.94,0.31,15.02-0.83,18.74c-0.36,1.18-0.98,2.06-1.78,2.67c-1.23,0.94-2.8,1.16-4.49,0.84
	c-1.44-0.28-3-0.98-4.51-1.97c-2.91-1.92-5.72-5.04-7.08-8.41l0-0.01c-0.07-0.18-0.14-0.37-0.21-0.55
	c-1.34-3.88-0.74-8.84,1.6-13.36c2.29-4.44,6.27-8.51,11.73-10.74c0.36-0.15,0.74-0.29,1.12-0.42l0.01,0
	c0.97-0.34,1.88-0.45,2.74-0.37c2.7,0.25,4.49,2.31,5.61,5.44c0.96,2.67,1.45,6.2,1.62,9.97c0.42,9.29-1.04,20.41-2.05,23.81
	c-0.2,0.69-0.48,1.29-0.82,1.81l-0.01,0c-0.99,1.5-2.45,2.29-4.25,2.53c-1.56,0.2-3.35-0.04-5.29-0.62
	c-3.9-1.16-8.54-3.71-12.94-6.64c-9.91-6.6-4.57-19.33,1.42-33.61l0.47-1.12l0,0c5.49-13.11,10.46-10.85,16.36-8.16
	c1.08,0.49,2.19,1,3.34,1.37c0.15,0.05,0.31,0.11,0.47,0.18c3.65,1.67,6.15,9.51,7.07,18.62c0.88,8.75,0.44,18.86-1.75,25.6
	c-0.28,0.85-0.59,1.67-0.93,2.43c-1.32,2.91-3.51,4.75-6.22,5.72c-2.42,0.87-5.23,1.02-8.15,0.62c-2.82-0.39-5.75-1.29-8.51-2.55
	c-6.16-2.81-11.6-7.47-13.3-12.26c-3.48-9.78-0.51-16.55,5.04-29.2c0.78-1.79,1.62-3.7,2.29-5.26
	c6.42-14.96,10.01-13.69,20.21-10.09c1.6,0.56,3.38,1.19,5.27,1.78c12.39,3.85,12.05,25.44,11.84,38.87
	c-0.04,2.49-0.07,4.68-0.01,6.52c0.21,5.86-1.82,9.88-4.9,12.76c-2.97,2.78-6.85,4.4-10.61,5.6c-4.28,1.38-10.96,1.69-17.38-0.1
	c-5.03-1.4-9.93-4.08-13.48-8.54c-4.06-5.1-5.58-11.17-5.24-18.52c0.33-7.09,2.4-15.39,5.6-25.19c0.67-2.06,1.46-3.94,2.34-5.67
	c3.66-7.16,9.03-11.77,14.66-14.21c5.69-2.47,11.67-2.71,16.47-1.13c0.89,0.29,1.74,0.65,2.52,1.05
	c10.23,5.3,13.37,26.66,16.06,44.93l0.17,1.13c1.19,8.09,0.41,14.29-1.38,19c-2.46,6.44-6.8,10.1-10.7,12.01
	c-3.68,1.81-10.51,2.91-17.79,2.49c-5.94-0.34-12.24-1.68-17.5-4.46c-5.95-3.14-9.73-6.92-12.19-12.47
	c-2.38-5.37-3.47-12.33-4.09-21.99C71.71,103.4,71.68,102.11,71.72,100.84L71.72,100.84z M98.1,101.58
	c-0.14,1.58,0.02,3.08,0.47,4.4c0.04,0.13,0.09,0.26,0.14,0.38c1.1,2.71,3.38,5.23,5.76,6.8c1.13,0.74,2.25,1.26,3.24,1.45
	c0.74,0.14,1.34,0.1,1.72-0.19c0.22-0.17,0.41-0.46,0.54-0.88c0.69-2.24,1.07-6.74,1.04-11.13c-0.22,0.98-0.64,1.92-1.22,2.71
	c-0.7,0.95-1.64,1.69-2.77,2.05c-1.14,0.37-2.43,0.34-3.81-0.24l0,0c-1.2-0.51-2.46-1.45-3.73-2.97
	C98.81,103.14,98.36,102.35,98.1,101.58L98.1,101.58z M111.01,101.78c-0.03-1.95-0.14-3.86-0.34-5.51
	c-0.18-1.46-0.42-2.67-0.72-3.49l-0.01-0.02c-0.58,0.39-1.25,0.8-1.96,1.24c-1.47,0.91-3.12,1.94-4.43,3.04
	c-1.68,1.43-2.73,3.02-1.37,4.65c0.88,1.06,1.69,1.68,2.4,1.99l0,0.01c0.53,0.22,0.99,0.24,1.37,0.12c0.39-0.13,0.74-0.41,1.02-0.79
	c0.35-0.47,0.58-1.07,0.67-1.71L111.01,101.78L111.01,101.78z"/>
<path class="st131" d="M169.9,124.51c0,0,10.02,3.9,5.98,13c-4.04,9.1-10.67,19.99-15.03,19.34c-4.36-0.65-8.24-0.81-4.69-6.18
	C159.72,145.32,166.67,124.51,169.9,124.51L169.9,124.51z M177.38,83.18c0.57,1.22,3.64,7.15,0.73,8.62
	c-2.91,1.46-6.71,0.81-6.79-2.44C171.24,86.11,173.33,77.71,177.38,83.18L177.38,83.18z M149.05,48.11c0,0,6.95-5.36,12.28,0.65
	c5.33,6.01,9.7,19.02,13.01,19.87c3.31,0.85,0.28,8.78-1.41,9.31C171.24,78.47,155.64,58.47,149.05,48.11L149.05,48.11z
	 M58.37,43.07c0,0-4.93-0.73-10.02,6.01c-5.09,6.75-7.52,7.56-8.65,10.65c-1.13,3.09-4.04,6.1,0.08,5.45
	c4.12-0.65,4.77,1.63,12.53-6.99C60.07,49.58,60.56,50.96,58.37,43.07L58.37,43.07z M23.95,94.36c1.94-1.06,5.01,1.3,5.5,3.17
	c0.48,1.87-3.48,6.1-5.58,5.28C21.76,102,21.52,95.01,23.95,94.36L23.95,94.36z M25.16,107.04c0.24-0.49,4.61-6.91,7.27-2.36
	c2.67,4.55,2.59,7.64,1.37,11.62c-1.21,3.98-6.79,10.48-8.57,7.07C23.46,119.96,23.3,106.55,25.16,107.04L25.16,107.04z
	 M59.67,166.45c0.97-1.3,12.93-3.25,17.94,0c5.01,3.25,9.7,3.74,7.43,7.48c-2.26,3.74-8.73,8.78-14.55,5.36
	C64.68,175.88,57.57,169.37,59.67,166.45L59.67,166.45z M92.32,173.6c0,0,3.39,3.41,1.78,5.36c-1.62,1.95-5.98,4.55-7.44,3.09
	C85.21,180.59,88.6,171,92.32,173.6L92.32,173.6z M102.34,174.09c12.12-0.33,18.27,1.3,15.84,5.04c-2.42,3.74-14.55,5.04-16.65,4.39
	C99.43,182.87,102.34,174.09,102.34,174.09L102.34,174.09z"/>
<path class="st132" d="M69.65,145.78c0,0,2.05-10.27,13.97-12.87c11.93-2.61,46.13-7.41,51.27-2.5c5.14,4.91,6.35,9.87,3.22,12.36
	C134.99,145.25,70.66,148.77,69.65,145.78L69.65,145.78z"/>
<path class="st112" d="M69.65,145.78l0.02-0.09c1.82-2.61,5.41-7.29,8.72-8.9c4.69-2.28,47.33-6.73,52.15-5.57
	c4.45,1.07,7.7,4.28,8.89,9.87c-0.28,0.64-0.72,1.2-1.32,1.68C134.99,145.25,70.66,148.77,69.65,145.78L69.65,145.78z"/>
<path class="st112" d="M73.59,140.73l0.02-0.03l0.05-0.05l0.07-0.08l0.07-0.08l0.07-0.08l0.03-0.03l0.04-0.04l0.07-0.08l0.04-0.04
	l0.04-0.04l0.07-0.08l0.07-0.08l0.07-0.07l0.04-0.04l0.03-0.03l0.07-0.07l0.05-0.05l0.03-0.03l0.07-0.07l0.01-0.01l0.07-0.06
	l0.07-0.07l0.06-0.05l0.02-0.02l0.07-0.07l0.06-0.06l0.01-0.01l0.07-0.07l0.06-0.06l0.01-0.01l0.07-0.07l0.07-0.06l0.01-0.01
	l0.08-0.07l0.07-0.07l0,0l0.08-0.07l0.08-0.07l0,0l0.15-0.13l0.01-0.01l0.07-0.06l0.08-0.06l0.01-0.01l0.07-0.06l0.08-0.06
	l0.01-0.01l0.06-0.05l0.08-0.06l0.02-0.01l0.06-0.05l0.23-0.18l0.03-0.02l0.05-0.04l0.08-0.06l0.03-0.02l0.05-0.03l0.08-0.06
	l0.04-0.03l0.01-0.01l0.14-0.1l0.01-0.01l0.04-0.03l0.11-0.08l0.01-0.01l0.03-0.02l0.08-0.05l0.05-0.03l0.03-0.02l0.08-0.05
	l0.05-0.03c0.08-0.05,0.17-0.11,0.25-0.16l0.06-0.04l0.02-0.01l0.13-0.08l0.01,0l0.01-0.01l0.14-0.08l0.01,0l0.15-0.08l0,0
	l0.15-0.08c4.69-2.28,47.33-6.73,52.15-5.57l0.2,0.05l0.01,0l0.16,0.04l0.04,0.01l0.04,0.01l0.15,0.04l0.01,0l0.14,0.04l0.01,0
	l0.1,0.03l0.09,0.03l0.09,0.03l0.01,0l0.15,0.05l0.02,0.01l0.05,0.02l0.11,0.04l0.07,0.03l0.1,0.04l0.06,0.02l0.02,0.01l0.14,0.06
	l0.03,0.01l0.05,0.02l0.1,0.04l0.08,0.03l0.02,0.01l0.13,0.06l0.01,0l0.14,0.06l0.04,0.02l0.04,0.02l0.09,0.04l0.09,0.05l0.01,0.01
	l0.13,0.07l0,0l0.13,0.07l0.02,0.01l0.06,0.03l0.11,0.06l0.03,0.02l0.04,0.02l0.13,0.08l0.11,0.07l0.03,0.02l0.09,0.05l0.08,0.05
	l0.07,0.05l0,0l0.13,0.08l0.02,0.01l0.11,0.07l0.01,0.01l0.1,0.07l0.06,0.04l0.08,0.06h0l0.12,0.09l0.1,0.08l0.04,0.03l0.08,0.06
	l0.04,0.03c0.1,0.08,0.2,0.16,0.29,0.25l0.06,0.05l0.08,0.07l0.03,0.02l0.09,0.08l0.11,0.1c0.18,0.17,0.36,0.36,0.53,0.54l0.01,0.01
	c0.1,0.11,0.19,0.22,0.29,0.33l0.02,0.03l0.08,0.1l0.02,0.02c0.49,0.6,0.93,1.27,1.31,2l0.01,0.02l0.07,0.14
	C131.61,139.29,86.31,141.92,73.59,140.73L73.59,140.73z"/>
<path class="st133" d="M73.59,140.73c1.51-1.65,3.19-3.16,4.8-3.94c4.69-2.28,47.33-6.73,52.15-5.57c3.28,0.79,5.91,2.74,7.54,5.95
	C131.61,139.29,86.31,141.92,73.59,140.73L73.59,140.73z"/>
<path class="st132" d="M70.28,137.87c0,0,2.05-10.27,13.97-12.87c11.93-2.61,46.13-7.41,51.27-2.5c5.14,4.91,6.35,9.87,3.22,12.36
	C135.62,137.34,71.29,140.86,70.28,137.87L70.28,137.87z"/>
<path class="st112" d="M70.28,137.87l0.02-0.09c1.82-2.61,5.41-7.29,8.72-8.9c4.69-2.28,47.33-6.73,52.15-5.57
	c4.45,1.07,7.7,4.28,8.89,9.87c-0.28,0.64-0.72,1.2-1.32,1.68C135.62,137.34,71.29,140.86,70.28,137.87L70.28,137.87z"/>
<path class="st133" d="M76.2,130.85c0.93-0.83,1.89-1.53,2.82-1.98c4.69-2.28,47.33-6.73,52.15-5.57c2.48,0.6,4.58,1.86,6.17,3.82
	C130.99,129.09,91.94,131.46,76.2,130.85L76.2,130.85z"/>
<path class="st132" d="M69.65,127.8c0,0,2.05-10.27,13.97-12.87c11.93-2.61,46.13-7.41,51.27-2.5c5.14,4.91,6.35,9.87,3.22,12.36
	C134.99,127.28,70.66,130.79,69.65,127.8L69.65,127.8z"/>
<path class="st112" d="M69.65,127.8l0.02-0.09c1.82-2.61,5.41-7.29,8.72-8.9c4.69-2.28,47.33-6.73,52.15-5.57
	c4.45,1.07,7.7,4.28,8.89,9.87c-0.28,0.64-0.72,1.2-1.32,1.68C134.99,127.28,70.66,130.79,69.65,127.8L69.65,127.8z"/>
<path class="st112" d="M73.59,122.75l0.02-0.03l0.05-0.05l0.07-0.08l0.07-0.08l0.07-0.08l0.03-0.03l0.04-0.04l0.07-0.08l0.04-0.04
	l0.04-0.04l0.07-0.08l0.07-0.08l0.07-0.07l0.04-0.04l0.03-0.03l0.07-0.07l0.05-0.05l0.03-0.03l0.07-0.07l0.01-0.01l0.07-0.06
	l0.07-0.07l0.06-0.06l0.02-0.02l0.07-0.07l0.06-0.06l0.01-0.01l0.07-0.07l0.06-0.06l0.01-0.01l0.07-0.07l0.07-0.06l0.01-0.01
	l0.08-0.07l0.07-0.07l0,0l0.08-0.07l0.08-0.07l0,0l0.15-0.13l0.01-0.01l0.07-0.06l0.08-0.06l0.01-0.01l0.07-0.06l0.08-0.06
	l0.01-0.01l0.06-0.05l0.08-0.06l0.02-0.01l0.06-0.05l0.23-0.18l0.03-0.02l0.05-0.04l0.08-0.06l0.03-0.02l0.05-0.03l0.08-0.06
	l0.04-0.03l0.01-0.01l0.14-0.1l0.01-0.01l0.04-0.03l0.11-0.08l0.01-0.01l0.03-0.02l0.08-0.05l0.05-0.03l0.03-0.02l0.08-0.05
	l0.05-0.03c0.08-0.05,0.17-0.11,0.25-0.16l0.06-0.04l0.02-0.01l0.13-0.08l0.01,0l0.01-0.01l0.14-0.08l0.01,0l0.15-0.08l0,0
	l0.15-0.08c4.69-2.28,47.33-6.73,52.15-5.57l0.2,0.05l0.01,0l0.16,0.04l0.04,0.01l0.04,0.01l0.15,0.04l0.01,0l0.14,0.04l0.01,0
	l0.1,0.03l0.09,0.03l0.09,0.03l0.01,0l0.15,0.05l0.02,0.01l0.05,0.02l0.11,0.04l0.07,0.03l0.1,0.04l0.06,0.02l0.02,0.01l0.14,0.06
	l0.03,0.01l0.05,0.02l0.1,0.04l0.08,0.03l0.02,0.01l0.13,0.06l0.01,0l0.14,0.06l0.04,0.02l0.04,0.02l0.09,0.04l0.09,0.05l0.01,0
	l0.13,0.07l0,0l0.13,0.07l0.02,0.01l0.06,0.03l0.11,0.06l0.03,0.02l0.04,0.02l0.13,0.08l0.11,0.07l0.03,0.02l0.09,0.05l0.08,0.05
	l0.07,0.05l0,0l0.13,0.08l0.02,0.01l0.11,0.07l0.01,0.01l0.1,0.07l0.06,0.04l0.08,0.06h0l0.12,0.09l0.1,0.08l0.04,0.03l0.08,0.06
	l0.04,0.03c0.1,0.08,0.2,0.16,0.29,0.25l0.06,0.05l0.08,0.07l0.03,0.02l0.09,0.08l0.11,0.1c0.18,0.17,0.36,0.36,0.53,0.54l0.01,0.01
	c0.1,0.11,0.19,0.22,0.29,0.33l0.02,0.03l0.08,0.1l0.02,0.02c0.49,0.6,0.93,1.27,1.31,2l0.01,0.02l0.07,0.14
	C131.61,121.32,86.31,123.94,73.59,122.75L73.59,122.75z"/>
<path class="st133" d="M73.59,122.75c1.51-1.65,3.19-3.16,4.8-3.94c4.69-2.28,47.33-6.73,52.15-5.57c3.28,0.79,5.91,2.74,7.54,5.95
	C131.61,121.32,86.31,123.94,73.59,122.75L73.59,122.75z"/>
<path class="st132" d="M70.28,119.89c0,0,2.05-10.27,13.97-12.87c11.93-2.61,46.13-7.41,51.27-2.5c5.14,4.91,6.35,9.87,3.22,12.36
	C135.62,119.36,71.29,122.88,70.28,119.89L70.28,119.89z"/>
<path class="st112" d="M70.28,119.89l0.02-0.09c1.82-2.61,5.41-7.29,8.72-8.9c4.69-2.28,47.33-6.73,52.15-5.57
	c4.45,1.07,7.7,4.28,8.89,9.87c-0.28,0.64-0.72,1.2-1.32,1.68C135.62,119.36,71.29,122.88,70.28,119.89L70.28,119.89z"/>
<path class="st134" d="M146.61,94.53c1.38,7.45-16.05,16.98-38.94,21.27c-22.89,4.29-42.56,1.73-43.94-5.72
	c-1.38-7.45,16.05-16.98,38.94-21.27C125.55,84.52,145.22,87.08,146.61,94.53L146.61,94.53z"/>
<path class="st135" d="M141.69,95.46c1.22,6.57-14.14,14.96-34.31,18.75c-20.17,3.78-37.51,1.53-38.73-5.04
	c-1.22-6.57,14.14-14.96,34.31-18.75C123.13,86.63,140.47,88.89,141.69,95.46L141.69,95.46z"/>
<path class="st136" d="M122.04,94.65c0.29,1.54-0.07,2.9-0.79,3.04c-0.72,0.14-1.54-1.01-1.83-2.55c-0.29-1.54,0.07-2.9,0.79-3.04
	C120.94,91.96,121.75,93.1,122.04,94.65L122.04,94.65z"/>
<path class="st136" d="M123.42,102.08c0.29,1.54-0.07,2.9-0.79,3.04c-0.72,0.14-1.54-1.01-1.83-2.55c-0.29-1.54,0.07-2.9,0.79-3.04
	C122.31,99.39,123.13,100.53,123.42,102.08L123.42,102.08z"/>
<path class="st136" d="M118.25,95.36c0.29,1.54-0.07,2.9-0.79,3.04c-0.72,0.14-1.54-1.01-1.83-2.55c-0.29-1.54,0.07-2.9,0.79-3.04
	C117.15,92.68,117.96,93.82,118.25,95.36L118.25,95.36z"/>
<path class="st136" d="M119.63,102.79c0.29,1.54-0.07,2.9-0.79,3.04c-0.72,0.14-1.54-1.01-1.83-2.55c-0.29-1.54,0.07-2.9,0.79-3.04
	C118.52,100.1,119.34,101.24,119.63,102.79L119.63,102.79z"/>
<path class="st136" d="M115.97,104.22c0.29,1.54-0.07,2.9-0.79,3.04c-0.72,0.14-1.54-1.01-1.83-2.55c-0.29-1.54,0.07-2.9,0.79-3.04
	C114.87,101.54,115.69,102.68,115.97,104.22L115.97,104.22z"/>
<path class="st136" d="M114.16,95.93c0.29,1.54-0.07,2.9-0.79,3.04c-0.72,0.14-1.54-1.01-1.83-2.55c-0.29-1.54,0.07-2.9,0.79-3.04
	C113.06,93.24,113.88,94.38,114.16,95.93L114.16,95.93z"/>
<path class="st136" d="M110.01,96.89c0.33,1.79,0.02,3.35-0.71,3.48c-0.72,0.14-1.58-1.2-1.91-2.99c-0.33-1.79-0.02-3.35,0.71-3.48
	C108.83,93.76,109.68,95.1,110.01,96.89L110.01,96.89z"/>
<path class="st136" d="M111.78,104.96c0.32,1.73,0,3.25-0.72,3.38c-0.72,0.14-1.57-1.16-1.89-2.89c-0.32-1.73,0-3.25,0.72-3.38
	C110.61,101.93,111.46,103.23,111.78,104.96L111.78,104.96z"/>
<path class="st136" d="M106.49,97.6c0.33,1.79,0.02,3.35-0.71,3.48c-0.72,0.14-1.58-1.2-1.91-2.99c-0.33-1.79-0.02-3.35,0.71-3.48
	C105.31,94.47,106.16,95.81,106.49,97.6L106.49,97.6z"/>
<path class="st136" d="M108.26,105.67c0.32,1.73,0,3.25-0.72,3.38c-0.72,0.14-1.57-1.16-1.89-2.89c-0.32-1.73,0-3.25,0.72-3.38
	C107.09,102.64,107.94,103.94,108.26,105.67L108.26,105.67z"/>
<path class="st136" d="M102.68,98.18c0.33,1.79,0.02,3.35-0.71,3.48s-1.58-1.2-1.91-2.99c-0.33-1.79-0.02-3.35,0.71-3.48
	C101.49,95.06,102.34,96.39,102.68,98.18L102.68,98.18z"/>
<path class="st136" d="M104.44,106.25c0.32,1.73,0,3.25-0.72,3.38s-1.57-1.16-1.89-2.89c-0.32-1.73,0-3.25,0.72-3.38
	C103.28,103.22,104.12,104.52,104.44,106.25L104.44,106.25z"/>
<path class="st136" d="M98.89,99.3c0.33,1.79,0.02,3.35-0.71,3.48c-0.72,0.14-1.58-1.2-1.91-2.99c-0.33-1.79-0.02-3.35,0.71-3.48
	C97.71,96.17,98.56,97.51,98.89,99.3L98.89,99.3z"/>
<path class="st136" d="M100.66,107.37c0.32,1.73,0,3.25-0.72,3.38c-0.72,0.14-1.57-1.16-1.89-2.89c-0.32-1.73,0-3.25,0.72-3.38
	C99.49,104.34,100.34,105.64,100.66,107.37L100.66,107.37z"/>
<path class="st136" d="M96.53,107.33c0.29,1.54-0.07,2.9-0.79,3.04c-0.72,0.14-1.54-1.01-1.83-2.55c-0.29-1.54,0.07-2.9,0.79-3.04
	C95.42,104.64,96.24,105.79,96.53,107.33L96.53,107.33z"/>
<path class="st136" d="M94.92,100.15c0.29,1.54-0.07,2.9-0.79,3.04c-0.72,0.14-1.54-1.01-1.83-2.55c-0.29-1.54,0.07-2.9,0.79-3.04
	C93.82,97.46,94.64,98.6,94.92,100.15L94.92,100.15z"/>
<path class="st136" d="M92.55,108.14c0.29,1.54-0.07,2.9-0.79,3.04c-0.72,0.14-1.54-1.01-1.83-2.55c-0.29-1.54,0.07-2.9,0.79-3.04
	C91.45,105.46,92.27,106.6,92.55,108.14L92.55,108.14z"/>
<path class="st136" d="M91.1,101.75c0.29,1.54-0.07,2.9-0.79,3.04c-0.72,0.14-1.54-1.01-1.83-2.55c-0.29-1.54,0.07-2.9,0.79-3.04
	C89.99,99.07,90.81,100.21,91.1,101.75L91.1,101.75z"/>
<path class="st136" d="M87.21,104.11c0.29,1.54-0.07,2.9-0.79,3.04c-0.72,0.14-1.54-1.01-1.83-2.55c-0.29-1.54,0.07-2.9,0.79-3.04
	C86.1,101.43,86.92,102.57,87.21,104.11L87.21,104.11z"/>
<path class="st136" d="M89.3,109.57c0.29,1.54-0.07,2.9-0.79,3.04c-0.72,0.14-1.54-1.01-1.83-2.55c-0.29-1.54,0.07-2.9,0.79-3.04
	C88.2,106.89,89.01,108.03,89.3,109.57L89.3,109.57z"/>
<path class="st136" d="M84.84,107.41c0.29,1.54-0.07,2.9-0.79,3.04s-1.54-1.01-1.83-2.55c-0.29-1.54,0.07-2.9,0.79-3.04
	C83.74,104.73,84.56,105.87,84.84,107.41L84.84,107.41z"/>
<path class="st136" d="M126.49,100.75c0.29,1.54-0.07,2.9-0.79,3.04c-0.72,0.14-1.54-1.01-1.83-2.55c-0.29-1.54,0.07-2.9,0.79-3.04
	C125.39,98.07,126.2,99.21,126.49,100.75L126.49,100.75z"/>
<path class="st136" d="M125.62,94.28c0.29,1.54-0.07,2.9-0.79,3.04c-0.72,0.14-1.54-1.01-1.83-2.55c-0.29-1.54,0.07-2.9,0.79-3.04
	C124.51,91.6,125.33,92.74,125.62,94.28L125.62,94.28z"/>
<path class="st136" d="M130.06,96.68c0.29,1.54-0.07,2.9-0.79,3.04c-0.72,0.14-1.54-1.01-1.83-2.55c-0.29-1.54,0.07-2.9,0.79-3.04
	C128.96,94,129.78,95.14,130.06,96.68L130.06,96.68z"/>
<path class="st134" d="M146.61,78.3c1.38,7.45-16.05,16.98-38.94,21.27c-22.89,4.29-42.56,1.73-43.94-5.72
	c-1.38-7.45,16.05-16.98,38.94-21.27C125.55,68.29,145.22,70.85,146.61,78.3L146.61,78.3z"/>
<path class="st135" d="M141.69,79.22c1.22,6.57-14.14,14.96-34.31,18.75c-20.17,3.79-37.51,1.53-38.73-5.04
	c-1.22-6.57,14.14-14.96,34.31-18.75C123.13,70.4,140.47,72.65,141.69,79.22L141.69,79.22z"/>
<path class="st136" d="M122.04,78.42c0.29,1.54-0.07,2.9-0.79,3.04c-0.72,0.14-1.54-1.01-1.83-2.55c-0.29-1.54,0.07-2.9,0.79-3.04
	C120.94,75.73,121.75,76.87,122.04,78.42L122.04,78.42z"/>
<path class="st136" d="M123.42,85.84c0.29,1.54-0.07,2.9-0.79,3.04c-0.72,0.14-1.54-1.01-1.83-2.55c-0.29-1.54,0.07-2.9,0.79-3.04
	C122.31,83.16,123.13,84.3,123.42,85.84L123.42,85.84z"/>
<path class="st136" d="M118.25,79.13c0.29,1.54-0.07,2.9-0.79,3.04c-0.72,0.14-1.54-1.01-1.83-2.55c-0.29-1.54,0.07-2.9,0.79-3.04
	C117.15,76.44,117.96,77.58,118.25,79.13L118.25,79.13z"/>
<path class="st136" d="M119.63,86.55c0.29,1.54-0.07,2.9-0.79,3.04c-0.72,0.14-1.54-1.01-1.83-2.55c-0.29-1.54,0.07-2.9,0.79-3.04
	C118.52,83.87,119.34,85.01,119.63,86.55L119.63,86.55z"/>
<path class="st136" d="M115.97,87.99c0.29,1.54-0.07,2.9-0.79,3.04c-0.72,0.14-1.54-1.01-1.83-2.55c-0.29-1.54,0.07-2.9,0.79-3.04
	C114.87,85.31,115.69,86.45,115.97,87.99L115.97,87.99z"/>
<path class="st136" d="M114.16,79.69c0.29,1.54-0.07,2.9-0.79,3.04c-0.72,0.14-1.54-1.01-1.83-2.55c-0.29-1.54,0.07-2.9,0.79-3.04
	C113.06,77.01,113.88,78.15,114.16,79.69L114.16,79.69z"/>
<path class="st136" d="M110.01,80.66c0.33,1.79,0.02,3.35-0.71,3.48c-0.72,0.14-1.58-1.2-1.91-2.99c-0.33-1.79-0.02-3.35,0.71-3.48
	S109.68,78.87,110.01,80.66L110.01,80.66z"/>
<path class="st136" d="M111.78,88.73c0.32,1.73,0,3.25-0.72,3.38c-0.72,0.14-1.57-1.16-1.89-2.89c-0.32-1.73,0-3.25,0.72-3.38
	C110.61,85.7,111.46,86.99,111.78,88.73L111.78,88.73z"/>
<path class="st136" d="M106.49,81.37c0.33,1.79,0.02,3.35-0.71,3.48c-0.72,0.14-1.58-1.2-1.91-2.99c-0.33-1.79-0.02-3.35,0.71-3.48
	C105.31,78.24,106.16,79.58,106.49,81.37L106.49,81.37z"/>
<path class="st136" d="M108.26,89.44c0.32,1.73,0,3.25-0.72,3.38c-0.72,0.14-1.57-1.16-1.89-2.89c-0.32-1.73,0-3.25,0.72-3.38
	C107.09,86.41,107.94,87.71,108.26,89.44L108.26,89.44z"/>
<path class="st136" d="M102.68,81.95c0.33,1.79,0.02,3.35-0.71,3.48c-0.72,0.14-1.58-1.2-1.91-2.99c-0.33-1.79-0.02-3.35,0.71-3.48
	C101.49,78.82,102.34,80.16,102.68,81.95L102.68,81.95z"/>
<path class="st136" d="M104.44,90.02c0.32,1.73,0,3.25-0.72,3.38c-0.72,0.14-1.57-1.16-1.89-2.89c-0.32-1.73,0-3.25,0.72-3.38
	C103.28,86.99,104.12,88.29,104.44,90.02L104.44,90.02z"/>
<path class="st136" d="M98.89,83.07c0.33,1.79,0.02,3.35-0.71,3.48c-0.72,0.14-1.58-1.2-1.91-2.99c-0.33-1.79-0.02-3.35,0.71-3.48
	C97.71,79.94,98.56,81.28,98.89,83.07L98.89,83.07z"/>
<path class="st136" d="M100.66,91.14c0.32,1.73,0,3.25-0.72,3.38c-0.72,0.14-1.57-1.16-1.89-2.89c-0.32-1.73,0-3.25,0.72-3.38
	C99.49,88.11,100.34,89.4,100.66,91.14L100.66,91.14z"/>
<path class="st136" d="M96.53,91.1c0.29,1.54-0.07,2.9-0.79,3.04c-0.72,0.14-1.54-1.01-1.83-2.55c-0.29-1.54,0.07-2.9,0.79-3.04
	S96.24,89.55,96.53,91.1L96.53,91.1z"/>
<path class="st136" d="M94.92,83.91c0.29,1.54-0.07,2.9-0.79,3.04c-0.72,0.14-1.54-1.01-1.83-2.55c-0.29-1.54,0.07-2.9,0.79-3.04
	C93.82,81.23,94.64,82.37,94.92,83.91L94.92,83.91z"/>
<path class="st136" d="M92.55,91.91c0.29,1.54-0.07,2.9-0.79,3.04c-0.72,0.14-1.54-1.01-1.83-2.55c-0.29-1.54,0.07-2.9,0.79-3.04
	C91.45,89.23,92.27,90.37,92.55,91.91L92.55,91.91z"/>
<path class="st136" d="M91.1,85.52c0.29,1.54-0.07,2.9-0.79,3.04c-0.72,0.14-1.54-1.01-1.83-2.55c-0.29-1.54,0.07-2.9,0.79-3.04
	C89.99,82.83,90.81,83.97,91.1,85.52L91.1,85.52z"/>
<path class="st136" d="M87.21,87.88c0.29,1.54-0.07,2.9-0.79,3.04c-0.72,0.14-1.54-1.01-1.83-2.55c-0.29-1.54,0.07-2.9,0.79-3.04
	C86.1,85.2,86.92,86.34,87.21,87.88L87.21,87.88z"/>
<path class="st136" d="M89.3,93.34c0.29,1.54-0.07,2.9-0.79,3.04c-0.72,0.14-1.54-1.01-1.83-2.55c-0.29-1.54,0.07-2.9,0.79-3.04
	C88.2,90.65,89.01,91.79,89.3,93.34L89.3,93.34z"/>
<path class="st136" d="M84.84,91.18c0.29,1.54-0.07,2.9-0.79,3.04c-0.72,0.14-1.54-1.01-1.83-2.55c-0.29-1.54,0.07-2.9,0.79-3.04
	C83.74,88.5,84.56,89.64,84.84,91.18L84.84,91.18z"/>
<path class="st136" d="M126.49,84.52c0.29,1.54-0.07,2.9-0.79,3.04c-0.72,0.14-1.54-1.01-1.83-2.55c-0.29-1.54,0.07-2.9,0.79-3.04
	C125.39,81.84,126.2,82.98,126.49,84.52L126.49,84.52z"/>
<path class="st136" d="M125.62,78.05c0.29,1.54-0.07,2.9-0.79,3.04c-0.72,0.14-1.54-1.01-1.83-2.55c-0.29-1.54,0.07-2.9,0.79-3.04
	C124.51,75.37,125.33,76.51,125.62,78.05L125.62,78.05z"/>
<path class="st136" d="M130.06,80.45c0.29,1.54-0.07,2.9-0.79,3.04c-0.72,0.14-1.54-1.01-1.83-2.55c-0.29-1.54,0.07-2.9,0.79-3.04
	C128.96,77.77,129.78,78.91,130.06,80.45L130.06,80.45z"/>
<path class="st134" d="M146.61,64.04c1.38,7.45-16.05,16.98-38.94,21.27c-22.89,4.29-42.56,1.73-43.94-5.72
	c-1.38-7.45,16.05-16.98,38.94-21.27C125.55,54.03,145.22,56.59,146.61,64.04L146.61,64.04z"/>
<path class="st135" d="M141.69,64.96c1.22,6.57-14.14,14.96-34.31,18.75c-20.17,3.78-37.51,1.53-38.73-5.04
	c-1.22-6.57,14.14-14.96,34.31-18.75C123.13,56.14,140.47,58.4,141.69,64.96L141.69,64.96z"/>
<path class="st136" d="M122.04,64.16c0.29,1.54-0.07,2.9-0.79,3.04c-0.72,0.14-1.54-1.01-1.83-2.55c-0.29-1.54,0.07-2.9,0.79-3.04
	C120.94,61.47,121.75,62.61,122.04,64.16L122.04,64.16z"/>
<path class="st136" d="M123.42,71.58c0.29,1.54-0.07,2.9-0.79,3.04c-0.72,0.14-1.54-1.01-1.83-2.55c-0.29-1.54,0.07-2.9,0.79-3.04
	C122.31,68.9,123.13,70.04,123.42,71.58L123.42,71.58z"/>
<path class="st136" d="M118.25,64.87c0.29,1.54-0.07,2.9-0.79,3.04c-0.72,0.14-1.54-1.01-1.83-2.55c-0.29-1.54,0.07-2.9,0.79-3.04
	C117.15,62.18,117.96,63.32,118.25,64.87L118.25,64.87z"/>
<path class="st136" d="M119.63,72.3c0.29,1.54-0.07,2.9-0.79,3.04c-0.72,0.14-1.54-1.01-1.83-2.55c-0.29-1.54,0.07-2.9,0.79-3.04
	C118.52,69.61,119.34,70.75,119.63,72.3L119.63,72.3z"/>
<path class="st136" d="M115.97,73.73c0.29,1.54-0.07,2.9-0.79,3.04c-0.72,0.14-1.54-1.01-1.83-2.55c-0.29-1.54,0.07-2.9,0.79-3.04
	C114.87,71.05,115.69,72.19,115.97,73.73L115.97,73.73z"/>
<path class="st136" d="M114.16,65.43c0.29,1.54-0.07,2.9-0.79,3.04c-0.72,0.14-1.54-1.01-1.83-2.55c-0.29-1.54,0.07-2.9,0.79-3.04
	C113.06,62.75,113.88,63.89,114.16,65.43L114.16,65.43z"/>
<path class="st136" d="M110.01,66.4c0.33,1.79,0.02,3.35-0.71,3.48c-0.72,0.14-1.58-1.2-1.91-2.99c-0.33-1.79-0.02-3.35,0.71-3.48
	C108.83,63.27,109.68,64.61,110.01,66.4L110.01,66.4z"/>
<path class="st136" d="M111.78,74.47c0.32,1.73,0,3.25-0.72,3.38c-0.72,0.14-1.57-1.16-1.89-2.89c-0.32-1.73,0-3.25,0.72-3.38
	C110.61,71.44,111.46,72.73,111.78,74.47L111.78,74.47z"/>
<path class="st136" d="M106.49,67.11c0.33,1.79,0.02,3.35-0.71,3.48c-0.72,0.14-1.58-1.2-1.91-2.99c-0.33-1.79-0.02-3.35,0.71-3.48
	C105.31,63.98,106.16,65.32,106.49,67.11L106.49,67.11z"/>
<path class="st136" d="M108.26,75.18c0.32,1.73,0,3.25-0.72,3.38c-0.72,0.14-1.57-1.16-1.89-2.89c-0.32-1.73,0-3.25,0.72-3.38
	C107.09,72.15,107.94,73.45,108.26,75.18L108.26,75.18z"/>
<path class="st136" d="M102.68,67.69c0.33,1.79,0.02,3.35-0.71,3.48s-1.58-1.2-1.91-2.99c-0.33-1.79-0.02-3.35,0.71-3.48
	C101.49,64.56,102.34,65.9,102.68,67.69L102.68,67.69z"/>
<path class="st136" d="M104.44,75.76c0.32,1.73,0,3.25-0.72,3.38c-0.72,0.14-1.57-1.16-1.89-2.89c-0.32-1.73,0-3.25,0.72-3.38
	C103.28,72.73,104.12,74.03,104.44,75.76L104.44,75.76z"/>
<path class="st136" d="M98.89,68.81c0.33,1.79,0.02,3.35-0.71,3.48c-0.72,0.14-1.58-1.2-1.91-2.99c-0.33-1.79-0.02-3.35,0.71-3.48
	C97.71,65.68,98.56,67.02,98.89,68.81L98.89,68.81z"/>
<path class="st136" d="M100.66,76.88c0.32,1.73,0,3.25-0.72,3.38c-0.72,0.14-1.57-1.16-1.89-2.89c-0.32-1.73,0-3.25,0.72-3.38
	C99.49,73.85,100.34,75.14,100.66,76.88L100.66,76.88z"/>
<path class="st136" d="M96.53,76.84c0.29,1.54-0.07,2.9-0.79,3.04c-0.72,0.14-1.54-1.01-1.83-2.55c-0.29-1.54,0.07-2.9,0.79-3.04
	C95.42,74.15,96.24,75.29,96.53,76.84L96.53,76.84z"/>
<path class="st136" d="M94.92,69.66c0.29,1.54-0.07,2.9-0.79,3.04c-0.72,0.14-1.54-1.01-1.83-2.55c-0.29-1.54,0.07-2.9,0.79-3.04
	C93.82,66.97,94.64,68.11,94.92,69.66L94.92,69.66z"/>
<path class="st136" d="M92.55,77.65c0.29,1.54-0.07,2.9-0.79,3.04c-0.72,0.14-1.54-1.01-1.83-2.55c-0.29-1.54,0.07-2.9,0.79-3.04
	C91.45,74.97,92.27,76.11,92.55,77.65L92.55,77.65z"/>
<path class="st136" d="M91.1,71.26c0.29,1.54-0.07,2.9-0.79,3.04c-0.72,0.14-1.54-1.01-1.83-2.55c-0.29-1.54,0.07-2.9,0.79-3.04
	C89.99,68.57,90.81,69.72,91.1,71.26L91.1,71.26z"/>
<path class="st136" d="M87.21,73.62c0.29,1.54-0.07,2.9-0.79,3.04c-0.72,0.14-1.54-1.01-1.83-2.55c-0.29-1.54,0.07-2.9,0.79-3.04
	C86.1,70.94,86.92,72.08,87.21,73.62L87.21,73.62z"/>
<path class="st136" d="M89.3,79.08c0.29,1.54-0.07,2.9-0.79,3.04c-0.72,0.14-1.54-1.01-1.83-2.55c-0.29-1.54,0.07-2.9,0.79-3.04
	C88.2,76.39,89.01,77.54,89.3,79.08L89.3,79.08z"/>
<path class="st136" d="M84.84,76.92c0.29,1.54-0.07,2.9-0.79,3.04s-1.54-1.01-1.83-2.55c-0.29-1.54,0.07-2.9,0.79-3.04
	C83.74,74.24,84.56,75.38,84.84,76.92L84.84,76.92z"/>
<path class="st136" d="M126.49,70.26c0.29,1.54-0.07,2.9-0.79,3.04c-0.72,0.14-1.54-1.01-1.83-2.55c-0.29-1.54,0.07-2.9,0.79-3.04
	C125.39,67.58,126.2,68.72,126.49,70.26L126.49,70.26z"/>
<path class="st136" d="M125.62,63.79c0.29,1.54-0.07,2.9-0.79,3.04c-0.72,0.14-1.54-1.01-1.83-2.55c-0.29-1.54,0.07-2.9,0.79-3.04
	C124.51,61.11,125.33,62.25,125.62,63.79L125.62,63.79z"/>
<path class="st136" d="M130.06,66.19c0.29,1.54-0.07,2.9-0.79,3.04c-0.72,0.14-1.54-1.01-1.83-2.55c-0.29-1.54,0.07-2.9,0.79-3.04
	C128.96,63.51,129.78,64.65,130.06,66.19L130.06,66.19z"/>
<path class="st137" d="M104.59,53.21c11.1,0,20.1,12.47,20.1,27.86c0,15.39-9,27.86-20.1,27.86c-11.1,0-20.1-12.47-20.1-27.86
	C84.49,65.68,93.49,53.21,104.59,53.21L104.59,53.21z"/>
<path class="st138" d="M104.59,68.17c7.34,0,13.3,5.99,13.3,13.37c0,7.39-5.95,13.37-13.3,13.37c-7.34,0-13.3-5.99-13.3-13.37
	C91.3,74.16,97.25,68.17,104.59,68.17L104.59,68.17z"/>
<path class="st139" d="M104.59,68.17c0.58,0,1.15,0.04,1.71,0.11c5.08,1.88,8.69,6.79,8.69,12.55c0,7.39-5.95,13.37-13.3,13.37
	c-0.58,0-1.15-0.04-1.71-0.11c-5.08-1.88-8.69-6.79-8.69-12.55C91.3,74.16,97.25,68.17,104.59,68.17L104.59,68.17z"/>
<path class="st140" d="M92.45,99.26c0.12,0.41-0.44,0.94-1.24,1.17c-0.8,0.23-1.55,0.08-1.67-0.33c-0.12-0.41,0.44-0.94,1.24-1.17
	C91.58,98.7,92.33,98.84,92.45,99.26L92.45,99.26z M115.01,89.75c0.12,0.41-0.44,0.94-1.24,1.17c-0.8,0.23-1.55,0.08-1.67-0.33
	c-0.12-0.41,0.44-0.94,1.24-1.17C114.15,89.19,114.89,89.34,115.01,89.75L115.01,89.75z M123.65,75.5c0.29-0.31,1.02-0.1,1.63,0.47
	c0.61,0.57,0.87,1.29,0.57,1.61c-0.29,0.31-1.02,0.1-1.63-0.47C123.61,76.54,123.35,75.82,123.65,75.5L123.65,75.5z M105.84,71.01
	c0.29-0.31,1.02-0.1,1.63,0.47c0.61,0.57,0.87,1.29,0.57,1.61c-0.29,0.31-1.02,0.1-1.63-0.47C105.8,72.04,105.55,71.32,105.84,71.01
	L105.84,71.01z M100.9,62.85c0.12-0.41-0.44-0.94-1.24-1.17c-0.8-0.23-1.55-0.08-1.67,0.33c-0.12,0.41,0.44,0.94,1.24,1.17
	C100.04,63.42,100.79,63.27,100.9,62.85L100.9,62.85z M86.43,61.21c0.29,0.31,1.02,0.1,1.63-0.47c0.61-0.57,0.87-1.29,0.57-1.61
	c-0.29-0.31-1.02-0.1-1.63,0.47C86.39,60.18,86.13,60.9,86.43,61.21L86.43,61.21z M94.12,75.09c0.42-0.1,0.59-0.85,0.39-1.66
	c-0.2-0.82-0.7-1.39-1.11-1.29c-0.42,0.1-0.59,0.85-0.39,1.66C93.2,74.61,93.7,75.19,94.12,75.09L94.12,75.09z M119.24,99.91
	c0.12,0.41-0.44,0.94-1.24,1.17c-0.8,0.23-1.55,0.08-1.67-0.33c-0.12-0.41,0.44-0.94,1.24-1.17
	C118.38,99.35,119.12,99.5,119.24,99.91L119.24,99.91z M98.08,84.32c0.29-0.31,1.02-0.1,1.63,0.47c0.61,0.57,0.87,1.29,0.57,1.61
	c-0.29,0.31-1.02,0.1-1.63-0.47C98.04,85.36,97.79,84.64,98.08,84.32L98.08,84.32z M90.52,85.7c0.42,0.1,0.59,0.85,0.39,1.66
	c-0.2,0.82-0.7,1.39-1.11,1.29c-0.42-0.1-0.59-0.85-0.39-1.66C89.61,86.18,90.11,85.6,90.52,85.7L90.52,85.7z"/>
<path class="st140" d="M80.53,119.39c0.12,0.41-0.44,0.94-1.24,1.17c-0.8,0.23-1.55,0.08-1.67-0.33c-0.12-0.41,0.44-0.94,1.24-1.17
	C79.67,118.83,80.41,118.98,80.53,119.39L80.53,119.39z M103.09,109.89c0.12,0.41-0.44,0.94-1.24,1.17
	c-0.8,0.23-1.55,0.08-1.67-0.33c-0.12-0.41,0.44-0.94,1.24-1.17C102.23,109.33,102.97,109.48,103.09,109.89L103.09,109.89z
	 M111.73,95.64c0.29-0.31,1.02-0.1,1.63,0.47c0.61,0.57,0.87,1.29,0.57,1.61c-0.29,0.31-1.02,0.1-1.63-0.47
	C111.69,96.68,111.43,95.96,111.73,95.64L111.73,95.64z M93.92,91.15c0.29-0.31,1.02-0.1,1.63,0.47c0.61,0.57,0.87,1.29,0.57,1.61
	c-0.29,0.31-1.02,0.1-1.63-0.47C93.88,92.18,93.63,91.46,93.92,91.15L93.92,91.15z M88.99,82.99c0.12-0.41-0.44-0.94-1.24-1.17
	c-0.8-0.23-1.55-0.08-1.67,0.33c-0.12,0.41,0.44,0.94,1.24,1.17C88.12,83.55,88.87,83.41,88.99,82.99L88.99,82.99z M74.51,81.35
	c0.29,0.31,1.02,0.1,1.63-0.47c0.61-0.57,0.87-1.29,0.57-1.61c-0.29-0.31-1.02-0.1-1.63,0.47C74.47,80.31,74.21,81.03,74.51,81.35
	L74.51,81.35z M82.2,95.22c0.42-0.1,0.59-0.85,0.39-1.66c-0.2-0.82-0.7-1.39-1.11-1.29c-0.42,0.1-0.59,0.85-0.39,1.66
	C81.29,94.75,81.79,95.33,82.2,95.22L82.2,95.22z M107.32,120.05c0.12,0.41-0.44,0.94-1.24,1.17c-0.8,0.23-1.55,0.08-1.67-0.33
	c-0.12-0.41,0.44-0.94,1.24-1.17C106.46,119.49,107.21,119.64,107.32,120.05L107.32,120.05z M86.16,104.46
	c0.29-0.31,1.02-0.1,1.63,0.47c0.61,0.57,0.87,1.29,0.57,1.61c-0.29,0.31-1.02,0.1-1.63-0.47
	C86.13,105.49,85.87,104.77,86.16,104.46L86.16,104.46z M78.6,105.84c0.42,0.1,0.59,0.85,0.39,1.66c-0.2,0.82-0.7,1.39-1.11,1.29
	c-0.42-0.1-0.59-0.85-0.39-1.66C77.69,106.32,78.19,105.74,78.6,105.84L78.6,105.84z"/>
<path class="st140" d="M97.6,65.1c-0.38,0.2-1-0.25-1.38-1c-0.38-0.75-0.38-1.51,0-1.71c0.38-0.2,1,0.25,1.38,1
	C97.98,64.14,97.98,64.91,97.6,65.1L97.6,65.1z M111.26,85.51c-0.38,0.2-1-0.25-1.38-1c-0.38-0.75-0.38-1.51,0-1.71
	c0.38-0.2,1,0.25,1.38,1C111.63,84.55,111.64,85.31,111.26,85.51L111.26,85.51z M126.83,91.26c0.36,0.23,0.3,0.99-0.14,1.7
	c-0.44,0.71-1.09,1.11-1.46,0.88c-0.36-0.23-0.3-0.99,0.14-1.7C125.82,91.42,126.47,91.03,126.83,91.26L126.83,91.26z M127.75,72.82
	c0.36,0.23,0.3,0.99-0.14,1.7c-0.44,0.71-1.09,1.11-1.46,0.88c-0.36-0.23-0.3-0.99,0.14-1.7C126.74,72.98,127.39,72.59,127.75,72.82
	L127.75,72.82z M134.75,66.36c0.43,0.04,0.83-0.61,0.9-1.45c0.07-0.84-0.22-1.55-0.65-1.58c-0.43-0.04-0.83,0.61-0.9,1.45
	C134.03,65.62,134.32,66.33,134.75,66.36L134.75,66.36z M133.54,51.76c-0.25,0.35,0.1,1.03,0.78,1.52c0.68,0.49,1.43,0.6,1.68,0.25
	c0.25-0.35-0.1-1.03-0.78-1.52C134.54,51.53,133.79,51.41,133.54,51.76L133.54,51.76z M121.5,62.05c0.18,0.39,0.94,0.42,1.7,0.06
	c0.76-0.36,1.22-0.96,1.04-1.35c-0.18-0.39-0.94-0.42-1.7-0.06C121.78,61.06,121.32,61.66,121.5,62.05L121.5,62.05z M102.17,91.66
	c-0.38,0.2-1-0.25-1.38-1c-0.38-0.75-0.38-1.51,0-1.71c0.38-0.2,1,0.25,1.38,1C102.55,90.7,102.55,91.46,102.17,91.66L102.17,91.66z
	 M113.26,67.75c0.36,0.23,0.3,0.99-0.14,1.7c-0.44,0.71-1.09,1.11-1.46,0.88c-0.36-0.23-0.3-0.99,0.14-1.7
	C112.24,67.92,112.9,67.53,113.26,67.75L113.26,67.75z M110.44,60.57c-0.02,0.43-0.71,0.75-1.55,0.71c-0.83-0.04-1.5-0.42-1.48-0.85
	c0.02-0.43,0.71-0.75,1.55-0.71C109.8,59.76,110.46,60.14,110.44,60.57L110.44,60.57z"/>
<path class="st141" d="M108.24,116.47c0.12,0.41-0.44,0.94-1.24,1.17c-0.8,0.23-1.55,0.08-1.67-0.33c-0.12-0.41,0.44-0.94,1.24-1.17
	C107.37,115.91,108.12,116.05,108.24,116.47L108.24,116.47z M130.8,106.96c0.12,0.41-0.44,0.94-1.24,1.17
	c-0.8,0.23-1.55,0.08-1.67-0.33c-0.12-0.41,0.44-0.94,1.24-1.17C129.94,106.4,130.68,106.55,130.8,106.96L130.8,106.96z
	 M139.43,92.71c0.29-0.31,1.02-0.1,1.63,0.47c0.61,0.57,0.87,1.29,0.57,1.61c-0.29,0.31-1.02,0.1-1.63-0.47
	C139.4,93.75,139.14,93.03,139.43,92.71L139.43,92.71z M121.63,88.22c0.29-0.31,1.02-0.1,1.63,0.47c0.61,0.57,0.87,1.29,0.57,1.61
	c-0.29,0.31-1.02,0.1-1.63-0.47C121.59,89.26,121.34,88.53,121.63,88.22L121.63,88.22z M116.69,80.06c0.12-0.41-0.44-0.94-1.24-1.17
	c-0.8-0.23-1.55-0.08-1.67,0.33c-0.12,0.41,0.44,0.94,1.24,1.17C115.83,80.63,116.58,80.48,116.69,80.06L116.69,80.06z
	 M102.21,78.42c0.29,0.31,1.02,0.1,1.63-0.47c0.61-0.57,0.87-1.29,0.57-1.61c-0.29-0.31-1.02-0.1-1.63,0.47
	C102.18,77.39,101.92,78.11,102.21,78.42L102.21,78.42z M109.91,92.3c0.42-0.1,0.59-0.85,0.39-1.66c-0.2-0.82-0.7-1.39-1.11-1.29
	c-0.42,0.1-0.59,0.85-0.39,1.66C108.99,91.82,109.49,92.4,109.91,92.3L109.91,92.3z M135.03,117.12c0.12,0.41-0.44,0.94-1.24,1.17
	c-0.8,0.23-1.55,0.08-1.67-0.33c-0.12-0.41,0.44-0.94,1.24-1.17C134.17,116.56,134.91,116.71,135.03,117.12L135.03,117.12z
	 M113.87,101.53c0.29-0.31,1.02-0.1,1.63,0.47c0.61,0.57,0.87,1.29,0.57,1.61c-0.29,0.31-1.02,0.1-1.63-0.47
	C113.83,102.57,113.58,101.85,113.87,101.53L113.87,101.53z M106.31,102.92c0.42,0.1,0.59,0.85,0.39,1.66
	c-0.2,0.82-0.7,1.39-1.11,1.29c-0.42-0.1-0.59-0.85-0.39-1.66C105.4,103.39,105.9,102.81,106.31,102.92L106.31,102.92z"/>
<path class="st142" d="M69.51,10.04C25.31,25.17,9.34,70.96,9.29,71.09C11.41,50.3,41.07,12.35,69.51,10.04L69.51,10.04z"/>
<path class="st143" d="M173.82,101c0,0-1.17,1.87-0.08,6.83c1.09,4.96,0.97,6.58,0.85,8.21c-0.12,1.63-0.77,2.68-1.25,3.33
	c-0.48,0.65-2.06-3.09-1.37-4.63c0.69-1.54,0.81-2.44,0.53-4.31c-0.28-1.87-0.4-2.03-0.36-3.66c0.04-1.63-0.53-2.11,0.04-4.15
	c0.57-2.03,0.85-1.22,0.65-3.82c-0.2-2.6-0.69-3.41-0.24-3.74c0.44-0.33,2.18,0.57,2.06,1.14c-0.12,0.57-1.01,0.81-0.89,2.11
	C173.86,99.62,174.31,100.52,173.82,101L173.82,101z"/>
<path class="st143" d="M135.22,164.22c0,0,0.3,1.53-3.4,2.02c-3.7,0.49-3.88-0.49-5.38,0.72c-1.5,1.21-2.52,1.67-2.73,1.72
	c-0.21,0.05-4.94-0.46-4.94-0.46s-0.51,2.09-0.83,2.32c-0.32,0.23-2.68,0.09-1.62,0.74c1.06,0.65,1.69,1.51,2.4,0.63
	c0.72-0.88-1.43-1.53,0.88-1.77c2.31-0.23,1.16,0.21,4.07-0.05c2.91-0.26,2.96,0.33,3.77-0.74c0.81-1.07,2.77-1.53,3.14-0.81
	c0.37,0.72-3.6,2.7-0.3,3.04c3.3,0.35,4.92-0.91,3.42-2.23c-1.5-1.32-1.13-1.81,0.21-2.25c1.34-0.44,1.06-0.16,2.33-1.14
	C137.51,164.99,136.96,163.13,135.22,164.22L135.22,164.22z"/>
<path class="st143" d="M27.95,129.61c0,0-1.45,4.31,2.99,9.1c4.45,4.8,3.72,6.83,5.41,8.86c1.7,2.03,0.08,2.52,3.31,4.47
	c3.23,1.95,3.64,4.06,5.82,6.01c2.18,1.95,2.18,5.04,4.04,6.18c1.86,1.14,3.23,1.46,3.15,2.03c-0.08,0.57,1.37,3.82-3.72-1.06
	c-5.09-4.88-2.99-6.01-5.17-7.48c-2.18-1.46-3.23-2.52-4.77-4.14c-1.54-1.63-2.59-1.87-3.15-3.98c-0.57-2.11-2.34-3.82-2.91-4.96
	c-0.57-1.14,0.48-2.03-1.78-3.9c-2.26-1.87-3.96-2.28-4.04-4.31C27.07,134.41,25.37,126.85,27.95,129.61L27.95,129.61z"/>
<path class="st143" d="M62.79,35.01c0,0,5.01-3.74,8.16-5.85s0.57-2.19,4.28-2.93c3.72-0.73,5.01,0.41,7.44-0.98
	c2.42-1.38,1.54-2.19,5.74-2.76c4.2-0.57,2.02-0.89,6.63-0.98c4.61-0.08,4.28,0,8.24,0.08c3.96,0.08,0.57-0.16,4.93,0.16
	c4.36,0.33,1.29-0.24,4.77,0.41c3.48,0.65,4.12,0.57,4.12,1.22c0,0.65,0.16,1.38-2.02,1.3c-2.18-0.08,0.89-1.71-6.06-0.65
	c-6.95,1.06-4.61,2.44-8.08,1.63c-3.48-0.81-3.48-1.79-3.48-1.79s-3.07-0.65-4.04-0.65c-0.97,0-0.81-0.16-3.56,0.57
	c-2.75,0.73-2.91,0.24-4.12,1.22c-1.21,0.98-0.81,1.95-3.56,2.44c-2.75,0.49-5.33-0.33-6.47-0.08c-1.13,0.24-1.54,0.24-2.34,1.22
	c-0.81,0.98,0.16,0.89-1.21,3.09c-1.37,2.19-3.48,1.71-3.15,0.73c0.32-0.98-1.13,0.81-5.09,2.93
	C59.96,37.45,53.83,35.83,62.79,35.01L62.79,35.01z"/>
</svg>
