<?xml version="1.0" encoding="UTF-8"?>
<svg id="Layer_2" data-name="Layer 2" xmlns="http://www.w3.org/2000/svg" viewBox="0 0 311.79 271.02">
  <defs>
    <style>
      .cls-1 {
        fill: #f2dd7c;
      }

      .cls-1, .cls-2, .cls-3, .cls-4, .cls-5, .cls-6, .cls-7, .cls-8, .cls-9, .cls-10, .cls-11, .cls-12, .cls-13, .cls-14, .cls-15, .cls-16, .cls-17, .cls-18, .cls-19, .cls-20, .cls-21, .cls-22, .cls-23, .cls-24, .cls-25, .cls-26, .cls-27, .cls-28, .cls-29, .cls-30, .cls-31 {
        stroke-width: 0px;
      }

      .cls-2 {
        fill: #f9c876;
      }

      .cls-3 {
        fill: #4e9000;
      }

      .cls-4 {
        fill: #7c4c21;
      }

      .cls-5 {
        fill: #492003;
      }

      .cls-6 {
        fill: #653b16;
      }

      .cls-7 {
        fill: #3a6a00;
      }

      .cls-8 {
        fill: #2f292b;
      }

      .cls-9 {
        fill: #1a3400;
      }

      .cls-10 {
        fill: #3f3c3e;
      }

      .cls-11 {
        fill: #151414;
      }

      .cls-12 {
        fill: #d2b94f;
      }

      .cls-13 {
        fill: #c8e685;
      }

      .cls-14 {
        fill: #af9400;
      }

      .cls-15 {
        fill: #d46600;
      }

      .cls-16 {
        fill: #dfc300;
      }

      .cls-17 {
        fill: #ab9881;
      }

      .cls-18 {
        fill: #a7733e;
      }

      .cls-19 {
        fill: #bc4400;
      }

      .cls-20 {
        fill: #bad674;
      }

      .cls-21 {
        fill: #8d4200;
      }

      .cls-22 {
        fill: #678412;
      }

      .cls-23 {
        fill: #fffbf0;
      }

      .cls-24 {
        fill: #fff3e3;
      }

      .cls-25 {
        fill: #ffe73a;
      }

      .cls-26 {
        fill: #e3d6c3;
      }

      .cls-27 {
        fill: #e7dcc9;
      }

      .cls-28 {
        fill: #f18900;
      }

      .cls-29 {
        fill: #ffa700;
      }

      .cls-30 {
        fill: #ed972d;
      }

      .cls-31 {
        fill: #682e00;
      }
    </style>
  </defs>
  <path class="cls-8" d="m281.86,179.91l23.48-7.96c3.55-2.07,6.45-7.1,6.45-11.18v-45.85c0-4.08-2.9-9.11-6.45-11.18l-23.48-7.96v84.12Z"/>
  <path class="cls-8" d="m29.93,177.57l-23.48-7.96c-3.55-2.07-6.45-7.1-6.45-11.18v-45.86c0-4.08,2.9-9.11,6.45-11.18l23.48-7.96v84.12Z"/>
  <ellipse class="cls-10" cx="153.61" cy="135.51" rx="136.62" ry="135.51"/>
  <ellipse class="cls-11" cx="153.61" cy="135.51" rx="118.29" ry="117.33"/>
  <path class="cls-23" d="m203.76,57.94c-13.82-15.04-30.2-25.97-50.71-15.88-11.48,5.64-11.38,15.18-15.98,25.9-3.78,8.79-6.8,18.46-16.49,21.2-13.4,3.79-19.44-9.75-31.97-10.4-11.19-.58-25.61,8.39-27.58,19.76-1.97,11.37,8.5,17.79,10.1,28.64,2.88,19.55-34.94,36.19-13.62,55.11,18.88,16.74,50.31,5.66,66.16,29.23,2.55,3.78,1.46,10.57,3.54,13.41,12.4,16.91,39.83,3.56,48.54-8.96,5.06-7.26,8.54-18.88,15.71-24.2,6.33-4.7,23.5-8.63,31.1-10.36,15.19-3.45,24.4-7.5,29.51-24.4,2.42-7.99,1.42-15.3,1.96-23.64.57-8.79,3.45-16.53,3.37-25.34-.16-16.75-18.68-26.39-31.41-35.61-7.36-5.33-15.65-7.32-22.21-14.47Z"/>
  <g>
    <path class="cls-27" d="m151.14,89.15c9.69-2.74,12.71-12.41,16.49-21.2,4.57-10.63,4.51-20.09,15.71-25.76-9.31-4.8-19.68-5.9-31.4-.14-11.48,5.64-11.38,15.18-15.98,25.9-2.09,4.87-3.96,10-6.85,14.08,6.9,3.96,12.67,9.76,22.03,7.12Z"/>
    <path class="cls-27" d="m157.76,224.9c-2.08-2.84-.99-9.63-3.54-13.41-15.85-23.57-47.28-12.49-66.16-29.23-21.32-18.91,16.5-35.56,13.62-55.11-1.6-10.85-12.07-17.27-10.1-28.64.95-5.5,4.83-10.44,9.84-14.01-4.17-2.7-8.42-5.47-13.93-5.75-11.19-.58-25.61,8.39-27.58,19.76-1.97,11.37,8.5,17.79,10.1,28.64,2.88,19.55-34.94,36.19-13.62,55.11,18.87,16.74,50.31,5.66,66.16,29.23,2.55,3.78,1.46,10.57,3.54,13.41,8.14,11.1,22.77,9.16,34.32,2.96-.94-.86-1.83-1.85-2.65-2.96Z"/>
  </g>
  <path class="cls-27" d="m177.98,93.27c5.37,4.74,8.11,10.22,10.09,16.75,1.26,4.16.54,13.9,4.19,16.96,13.82,11.63,6.91-24.16,8.98-28.96,3.64-8.47,13.53-9.54,21.69-9.29,3.31.1,21.11,5.28,13.43-5.58-3.05-4.3-19.02-2.03-23.85-2.94-10.45-1.97-19.39-9.07-28.3-14.22-10.94-6.32-24.79-11.67-37.37-13.19-5.73-.7-15.55.98-18.1,7.2-3.51,8.55,4.14,9.82,9.7,13.73,11.67,8.21,29.15,10.35,39.54,19.53Z"/>
  <g>
    <path class="cls-29" d="m184.38,141.61c-3.39,19.71-22.25,32.95-42.12,29.58-19.87-3.36-33.22-22.07-29.83-41.77,3.39-19.71,22.25-32.95,42.12-29.59,19.87,3.37,33.22,22.07,29.83,41.77Z"/>
    <path class="cls-30" d="m149.73,155.51c-19.87-3.37-33.22-22.07-29.83-41.77.06-.35.14-.7.21-1.05-3.84,4.68-6.56,10.36-7.66,16.73-3.39,19.7,9.96,38.41,29.83,41.77,19.51,3.3,38.04-9.42,41.91-28.54-8.04,9.79-21.02,15.13-34.46,12.85Z"/>
    <path class="cls-2" d="m177.4,134.14c11.61-4.6-19.62-26.92-27.86-27.93-5.41-.66-19.03.64-15.87,9.11,1.3,3.48,37.61,19.93,41.16,19.44,1.02-.14,1.87-.35,2.57-.63Z"/>
  </g>
  <path class="cls-27" d="m141.55,183.43c11.05-10.17,10.94-15.02,25.27-5.53,15.68,10.39,20,6.51,25.52-9.74,4.14-12.18,11.84-20.04,26.72-17.66-.12,6.87-11.51,8.73-15.78,14.3-4.69,6.11-4.24,13.29-7.86,20-7.91,14.7-19.09,15.1-32.03,7.54-15.65-9.14-17.87,2.06-32.79,4.73-10.54,1.88-24.26-.21-34.06-4.49-2.43-1.06-11.2-7.63-7.99-11.01,3.4-3.58,11.68,5.25,15.02,6.61,9.86,4.03,29.78,2.79,37.94-4.72.01,0,.02-.02.03-.03Z"/>
  <path class="cls-7" d="m132.66,55.76c-1.84-3.88-13.7-38.99-21.16-25.67-3.16,5.64,5.64,18.05,8.07,22.93,3.13,6.3,5.56,29.31,12.71,31.98,6.37,2.37,9.83-6.18,8.82-10.8-1.35-6.24-5.7-12.64-8.44-18.44Z"/>
  <path class="cls-3" d="m126.36,22.96c10.33,1.46,12.1,60.76,6.88,63.8-2.25-3.04-1.52-5.98-2.16-9.81-1.66-10.03-3.73-19.54-6.74-29.33-1.63-5.31-13.14-26.78,2.02-24.66Z"/>
  <path class="cls-9" d="m136.03,82.45c-5.96-6.22-1.97-13.72-1.49-20.71.4-5.88-1.81-12.46-2.58-18.28-.57-4.29-4.69-27.19,5.01-25.32,10.4,2.01,7.59,35.7,8.42,44.95.42,4.61,2.03,31.23-9.35,19.35Z"/>
  <path class="cls-7" d="m163.67,21.71c2.32,2.24.86,10.47.86,13.57,0,8.1-1.56,15.43-1.96,23.1,10.99,1.92,10.92-28.4,23.23-26.46,4.09,12.69-7.07,29.2-10.24,41.6-1,3.94-.53,16.96-6.89,15.74-6.4-1.23.17-15.68-7.46-14.95-1.34,4.48-2.7,11.16-8.27,11.41-4.09-8.27-2.07-18.52-.79-27.24,1.14-7.77,1.76-15.95,1.16-23.78-.34-4.45,1.8-21.24,10.36-13Z"/>
  <path class="cls-3" d="m159.74,40.66c.83-5.36,3.2-17.15-2.51-20.9-6.63-4.36-10.56,4.31-12.05,9.62-3.46,12.34.74,25.51.74,38,0,3.3-1.73,13.96.64,16.3,5.09,5.03,8.86-2.54,9.55-6.06,2.34-12,1.77-24.86,3.63-36.95Z"/>
  <path class="cls-3" d="m172.3,56.95c-1.07,3.91-2.12,14.53-7.88,14.85-6.43.35-6.29-9.04-5.88-13.33.99-10.24,5.94-19.84,9.43-29.38,3.61-9.86,14.61-10.05,12.25,2.05-1.64,8.44-5.62,17.4-7.93,25.81Z"/>
  <path class="cls-9" d="m169.35,20.18c5.06,4.06,2.37,12.43.88,17.67-2.76,9.69-8.63,24.29-5.05,34.13,6.27-4.17,8.48-25.15,10.41-32.79,1.95-7.76,5.01-24.37,16.48-13.5,9.14,8.65-3.43,24.92-7.73,33.53-3.31,6.62-5.41,22.3-11.6,25.75-8.24-14.54,21.86-41.59,9.87-53.19-7.8,14.76-12.19,32.65-16.67,48.5-1.54,5.44-3.82,11.74-7.08,4.03-2.84-6.72,1.25-17.07,2.24-23.91,1-6.95,7.88-27.7,2.25-33.65-6.33-6.68-5,7.15-8.44,8.42-4.01,1.47-4.09-2.39-4.99-4.68-4.53-11.5,11.5-16.67,19.43-10.31Z"/>
  <path class="cls-7" d="m163.84,35.77c-.3-6.67,1.07-16.91-6.95-19.64-5.8-1.98-14.61,2.25-18.03,6.79-7.62,10.1-2.81,26.63-.52,37.72,1.17,5.69,1.87,17.8,5.53,22.44,5.23,6.63,3.5-7.38,3.27-12.11-.4-8.42-8.87-38.12-1.23-42.47,11.95-6.79,11.05,29.56,13.11,36.15.96,3.07.6,7.22,5.39,6.03.59-11.4-.06-23.4-.59-34.91Z"/>
  <path class="cls-7" d="m187.15,61.61c-.81,6.94-10.73,28.21-18.26,28.44-1.47-6.02,5.49-10.82,7.91-15.8,4.66-9.6,6.95-20.22,12.02-29.63,7.55-14.01,15-3.43,11.37,8.05-3.1,9.81-6.48,26.14-14.3,33.5-6.24,5.87-4.59-2.33-3.3-7.37,1.46-5.67,3.88-11.43,4.55-17.19Z"/>
  <g>
    <g>
      <path class="cls-19" d="m216.54,59.79c-7.34-.18-12.28,6.51-15.05,12.47-2.89,6.21-4.69,14.17-1.9,20.7.76,1.79,3.27.98,3.78-.49,2.64-7.55,12.99-25.72,23.15-19.28.16-1.25.33-2.5.49-3.75-13.4,4.01-28.28,15.44-29.48,30.22-.44,5.53,1.52,11.62,5.94,15.18,4.6,3.7,11.35,3.54,16.47,1,10.22-5.06,8.91-21.23,21.07-23.78,4.21-.88,9.69.12,8.89,5.42-.59,3.93-3.61,7.83-7.48,9-2.38.72-6.23-.32-7.13-2.87-.84-2.37,6.05-3.11,7.18-3.13,4.38-.09,8.93,2.42,9.4,7.12.49,4.88-5.48,7.77-9.51,8.25-4.7.56-9.36-1.46-11.2-5.85-1.75-4.16-2.85-8.02-6.04-11.39-6.83-7.22-17.82-10-27.33-11.4-1.23-.18-2.07.3-2.54,1.43-2.61,6.31-2.18,13-2.14,19.69,1.18-.48,2.35-.97,3.53-1.45-11.17-11.47-8.06-30,5.78-37.79,1.12-.63,1.4-2.33.42-3.22-2.45-2.22-4.03-5.23-2.38-8.41,1.95-3.75,6.48-2.38,9.1-.31,2.5,1.98,3.76,4.85,5.25,7.6,1.63,3.02,3.53,5.42,6.23,7.56,5.3,4.19,14.21,8.17,13.98,16.02-.1,3.32-1.67,6.22-.83,9.58.63,2.5,3.1,4.3,5.36,5.22,4.75,1.93,11.85,1.82,12.01,8.45.09,3.72-4.92,5.13-7.76,5.81-7.67,1.84-17.81,1.82-25.33-.78-2.52-.87-3.6,3.09-1.1,3.96,8.31,2.87,19.06,2.65,27.53.78,3.83-.85,8.11-2.61,9.97-6.28,1.93-3.8.3-9.54-3.21-11.91-2.44-1.65-5.36-2.25-8.17-3.01-1.51-.41-3.05-.89-4.28-1.9-1.97-1.62-1.05-4.35-.6-6.42,1.68-7.82-2.17-13.25-8.29-17.81-2.98-2.23-6.18-4.2-8.89-6.77-2.79-2.65-4.08-6.82-6.15-9.99-3.21-4.92-10.01-8.14-15.46-4.93-6.4,3.77-4.58,12.25.08,16.46.14-1.07.28-2.15.42-3.22-16.18,9.11-19.6,30.9-6.62,44.24,1.26,1.29,3.54.32,3.53-1.45-.04-6.33-.48-12.61,1.99-18.6-.85.48-1.7.96-2.54,1.43,8.18,1.2,16.76,3.31,23.4,8.44,3.2,2.48,4.93,5.56,6.27,9.29,1.06,2.96,2.18,5.81,4.65,7.91,9.62,8.19,30.46-.57,23.54-14.08-2.66-5.2-9.21-6.95-14.64-6.15-3.74.55-9.66,2.92-8.69,7.71.91,4.5,6.59,6.97,10.8,6.43,4.3-.55,7.72-3.56,9.93-7.12,4.16-6.71,2-14.72-6.39-15.82-11.97-1.56-16.92,8.59-21.56,17.36-2.59,4.89-5.82,8.13-11.64,8.44-6.15.33-9.61-4.71-10.57-10.12-2.53-14.37,14.33-26.48,26.32-30.07,1.75-.52,2.01-2.79.49-3.75-13.14-8.32-25.69,11.6-29.23,21.73,1.26-.16,2.52-.33,3.78-.49-2.16-5.05-.18-11.81,1.9-16.56,2-4.56,5.79-10.57,11.48-10.43,2.67.07,2.66-4.04,0-4.1h0Z"/>
      <path class="cls-19" d="m207.65,115.7c3.47,9.24,10.87,14.83,21.02,13.58,9.31-1.15,18.09-6.74,24.47-13.35,1.84-1.91-1.08-4.81-2.92-2.9-10.05,10.41-31.54,20.32-38.59,1.59-.92-2.46-4.92-1.39-3.99,1.09h0Z"/>
      <path class="cls-19" d="m249.9,113.44c-3.53,7.14-8.31,13.75-15.36,17.81-7.82,4.51-16.83,3.19-24.54-.77-2.36-1.22-4.46,2.32-2.09,3.54,8.25,4.24,17.72,5.88,26.43,1.91,8.82-4.03,14.94-11.95,19.13-20.41,1.17-2.37-2.4-4.44-3.57-2.07h0Z"/>
      <path class="cls-19" d="m211.36,105.31c4.34,1.93,9.4,2.87,13.51-.12,3.49-2.54,4.9-6.79,5.25-10.91.74-8.58-5.09-18.25-14.82-15.27-.9.28-1.5,1.04-1.52,1.98-.16,7.23,6.33,10.02,12.46,7.18,7.74-3.59,6.21-12.26,1.41-17.51-1.83-2.01-4.52.88-2.92,2.9,1.59,2.02,3.78,3.08,5.93,4.42,2.27,1.41,4.34-2.14,2.09-3.54-1.86-1.16-3.71-2.02-5.1-3.78-.97.97-1.95,1.93-2.92,2.9,3.14,3.44,4.5,8.1-.14,10.85-3.4,2.01-6.76.62-6.66-3.41-.51.66-1.01,1.32-1.52,1.98,12.65-3.88,13.8,26.24-2.95,18.81-2.41-1.07-4.52,2.46-2.09,3.54h0Z"/>
    </g>
    <g>
      <path class="cls-15" d="m228.61,71.69c-13.5-5.85-30.64,1.74-35.53,15.57-3.16,8.95,4.68,14.41,12.74,15.03,8.01.61,18.01-3.15,20.12-11.59,1.1-4.38-.3-8.96-4.71-10.77-4.45-1.83-9.64-.65-13.82,1.34-7.46,3.57-11.45,13.23-5.61,20.02,5.13,5.95,16.39,4.78,21.01-1.09,1.62-2.06-1.29-4.98-2.92-2.9-3.08,3.92-8.97,4.81-13.33,2.53-5.49-2.88-3.63-10.06.26-13.35,3.33-2.83,9.63-4.67,13.66-2.35,4.01,2.31.7,8.36-1.72,10.47-4.9,4.27-17.24,5.96-21.39-.25-2.95-4.41,1.72-10.55,4.67-13.51,6.23-6.26,16.14-9.22,24.48-5.61,2.42,1.05,4.52-2.48,2.09-3.54h0Z"/>
      <path class="cls-15" d="m213.64,119.87c10.8-4.5,21.58-16.38,15.02-28.31-1.28-2.32-4.85-.25-3.57,2.07,5.1,9.28-4.29,18.84-12.55,22.28-2.42,1.01-1.36,4.98,1.1,3.95h0Z"/>
      <path class="cls-15" d="m236.6,91.78c5.47,13-8.06,22.95-19.23,26.19-2.55.74-1.47,4.7,1.1,3.96,13.18-3.81,28.51-16.07,22.12-31.23-1.01-2.4-5.02-1.35-3.99,1.09h0Z"/>
      <path class="cls-15" d="m220.06,70.59c1.06,2.81,3.84,4.44,6.26,6.01,4.3,2.8,8.16,5.39,11.34,9.5,5.89,7.62,5.5,16.43,2.38,25.09-.9,2.5,3.1,3.56,3.99,1.09,3.03-8.44,3.63-17-.73-25.08-1.99-3.69-5.11-7.4-8.49-9.9-1.81-1.34-3.71-2.53-5.6-3.73-1.5-.95-4.5-2.31-5.17-4.08-.92-2.46-4.92-1.39-3.99,1.09h0Z"/>
      <path class="cls-15" d="m223.43,63.89c.37,19.64,22.55,27.53,39.14,21.8,2.5-.86,1.43-4.83-1.1-3.95-13.91,4.81-33.59-.82-33.91-17.85-.05-2.64-4.18-2.65-4.14,0h0Z"/>
      <path class="cls-15" d="m245.08,88.85c2.8,6.18,5.21,13.03,4.56,19.9-.74,7.88-8.21,10.67-15.18,11.19-2.64.2-2.66,4.3,0,4.1,8.51-.64,16.72-3.92,18.92-12.85,2.01-8.14-1.42-17.1-4.73-24.42-1.09-2.41-4.65-.32-3.57,2.07h0Z"/>
      <path class="cls-15" d="m242.32,114.12c-6.72,12.07-24.29,6.3-31.78-1.81-7.55-8.17-3.54-20.4,6.4-24.12,7.47-2.79,18.7-1.33,21.02,7.53,1.9,7.29-3.15,14.22-9.38,17.47-7.75,4.04-15.3-.69-18.27-7.99-3.21-7.91-2.8-16.33,1.05-23.81,1.67-3.24,3.73-6.38,6.4-8.9,2.8-2.64,3.73-1.04,4.36,2.19.85-.84,1.7-1.68,2.54-2.52-3.1-.54-3.96-3.72-4.96-6.29-1.07-2.77-2.25-5.46-4.47-7.53-1.94-1.81-4.87,1.08-2.92,2.9,4.59,4.29,3.84,13.59,11.25,14.88,1.6.28,2.86-.91,2.54-2.52-.74-3.79-3.12-8.01-7.67-6.36-4.38,1.59-7.43,6.52-9.66,10.29-5.96,10.08-6.48,22.53-.5,32.85,7.78,13.43,27.15,8.88,32.61-4.21,3.85-9.23.05-18.93-9.5-22.26-6.59-2.3-14.51-1.02-20.32,2.66-6.84,4.32-9.35,11.86-8.24,19.58,1.32,9.15,11.22,15.46,19.38,17.86,8.83,2.59,18.98.66,23.69-7.79,1.29-2.32-2.28-4.39-3.57-2.07h0Z"/>
    </g>
    <g>
      <path class="cls-28" d="m184.7,89.11c12-1.85,14.69-16.1,19.06-25.21,2.6-5.43,6.54-10.76,13.1-11.1,6.09-.32,10.1,5.08,11.44,10.37,1.45,5.75-.7,11.67-5.96,14.61-5,2.8-11.67,2.05-17.18,2.92-6,.94-10.69,4.26-13.17,9.8-1.97,4.4-3.78,11.1-.26,15.25,6.25,7.36,19.4.53,24.76-4.53,4.49-4.24,5.95-11.24,11.55-14.38,4.15-2.33,7.76,1.38,9.6,4.73,2.96,5.4-1.95,9.68-7.29,9.93-4.06.19-5.47-1.61-6.55-5.09-.99-3.19-2.4-6.02-4.4-8.71-3.8-5.14-9.7-10.04-16.26-10.91-6.9-.91-12.41,3.42-15.24,9.4-1.76,3.72-1.66,7.7,1.14,10.85,4.68,5.27,14.22,5.63,20.7,5.66,7.39.04,17.09-.73,22.77-5.9,1.97-1.79-.96-4.69-2.92-2.9-3.58,3.26-9.74,4.08-14.47,4.48-5.02.43-10.19.33-15.14-.65-3.4-.67-8.27-1.99-9.14-5.86-.45-2,.89-4.27,1.88-5.89,2.34-3.82,6.21-5.88,10.68-5.01,6.85,1.33,13.34,8.18,15.75,14.47.9,2.36,1.28,4.98,2.89,7.01,2.04,2.57,5.2,3.08,8.32,3.16,3.42.09,6.62-1.53,9.19-3.63,2.98-2.44,3.66-5.75,2.89-9.33-1.42-6.62-7.81-11.9-14.64-10.1-6.06,1.6-9.08,8.64-12.19,13.35-2.84,4.3-7.96,7.06-12.86,8.32-4.29,1.1-8.82.4-8.82-4.78,0-6.93,4.27-12.94,11.01-14.51,5.66-1.32,11.6-.62,17.16-2.56,5.21-1.82,8.98-6.1,10.3-11.38,2.57-10.3-4.75-22.84-16.22-22.23-9.4.49-14.44,9.24-17.67,16.89-3.07,7.27-5.68,18.11-14.88,19.53-2.63.41-1.51,4.36,1.1,3.96h0Z"/>
      <path class="cls-28" d="m188.37,83.8c11.69-13.92,32.36-24.69,48.08-10.25,1.95,1.79,4.88-1.1,2.92-2.9-17.39-15.98-40.64-5.57-53.92,10.25-1.69,2.02,1.22,4.94,2.92,2.9h0Z"/>
      <path class="cls-28" d="m209.65,112.42c11.41,1.01,23.3-3.64,31.47-11.48,9.03-8.65,10.12-20.9,3.4-31.26-1.44-2.22-5.02-.16-3.57,2.07,6.06,9.34,4.65,19.2-3.33,26.85-7.19,6.89-18.05,10.6-27.97,9.72-2.66-.24-2.63,3.87,0,4.1h0Z"/>
      <path class="cls-28" d="m223.77,92.32c4.81,2.74,9.24,6.72,9.09,12.62-.12,4.73-3.61,8.82-7.09,11.67-8.16,6.68-21.17,7.87-27.42-1.81-1.43-2.22-5.01-.16-3.57,2.07,7.91,12.24,23.49,10.8,33.92,2.64,4.65-3.64,8.16-9.09,8.32-15.07.19-7.09-5.42-12.39-11.15-15.66-2.32-1.32-4.4,2.22-2.09,3.54h0Z"/>
      <path class="cls-28" d="m227.9,88.78c-7.3,3.42-15.13,4.02-20.87,10.23-4.09,4.43-5.66,10.52-4.46,16.35,2.36,11.54,16.49,16.55,26.59,12.23,8.57-3.66,14.17-13.41,15.74-22.16,1.44-8-1.2-16.76-10.45-17.62-2.65-.25-2.63,3.86,0,4.1,6.87.63,7.32,8.22,6.25,13.53-1.46,7.27-5.95,14.5-12.6,18.11-8.15,4.42-19.27-.4-21.55-9.28-1.37-5.34,1.35-10.66,5.24-14.19,4.93-4.47,12.32-5.02,18.19-7.77,2.41-1.13.31-4.66-2.09-3.54h0Z"/>
      <path class="cls-28" d="m238.04,89.11c9.29,1.58,16.63,7.56,18.28,17,1.49,8.53-3.64,16.8-11.6,19.95-10.15,4.02-18.94-2.08-28.15-5.66-3.9-1.52-8.3-2.52-12.37-1.08-4.81,1.71-7.29,6.56-8.95,11.01-.93,2.49,3.07,3.55,3.99,1.09,2.03-5.44,5.3-9.63,11.59-8.47,5.16.95,9.93,3.77,14.72,5.78,4.51,1.89,9.34,3.48,14.29,2.76,4.96-.72,9.47-2.57,13.32-5.77,6.67-5.56,8.78-14.94,6.64-23.08-2.52-9.58-11.11-15.87-20.65-17.49-2.61-.44-3.72,3.51-1.1,3.96h0Z"/>
      <path class="cls-28" d="m228.39,75.58c-7.99,3.14-15.98,7.06-21.69,13.62-5.68,6.52-6.97,14.82-5.25,23.09.54,2.59,4.53,1.49,3.99-1.09-1.57-7.56-.02-14.58,5.28-20.31,4.97-5.38,12.05-8.7,18.78-11.35,2.45-.96,1.38-4.93-1.1-3.96h0Z"/>
    </g>
  </g>
  <g>
    <g>
      <path class="cls-19" d="m252.41,147.68c6.66-3.07,8.1-11.24,7.91-17.8-.19-6.83-2.13-14.76-7.56-19.38-1.49-1.26-3.37.56-3.17,2.1,1.02,7.93-.14,28.76-12.12,27.47.41,1.19.82,2.38,1.23,3.58,10.22-9.49,18.44-26.28,12.9-40.05-2.08-5.15-6.56-9.75-12.11-10.99-5.78-1.3-11.76,1.83-15.21,6.35-6.89,9.03,1.51,22.95-8.24,30.58-3.38,2.64-8.73,4.16-10.39-.95-1.23-3.78-.27-8.61,2.68-11.36,1.81-1.69,5.73-2.45,7.68-.56,1.81,1.75-4.03,5.45-5.03,5.97-3.89,2.02-9.09,1.76-11.61-2.24-2.63-4.16,1.44-9.37,4.83-11.58,3.96-2.57,9.04-2.81,12.66.32,3.43,2.96,6.14,5.93,10.51,7.55,9.35,3.46,20.45,1.12,29.59-1.82,1.18-.38,1.73-1.18,1.64-2.4-.48-6.81-3.86-12.61-6.89-18.58-.84.95-1.68,1.9-2.52,2.85,15.14,5.36,20.64,23.33,11.72,36.42-.72,1.06-.21,2.71,1.07,3.07,3.19.91,5.95,2.92,5.89,6.49-.07,4.22-4.74,4.99-8.02,4.28-3.13-.68-5.54-2.69-8.11-4.5-2.81-1.99-5.59-3.3-8.97-4.03-6.62-1.42-16.39-1.07-19.69-8.21-1.4-3.02-1.28-6.31-3.55-8.95-1.68-1.97-4.7-2.49-7.14-2.32-5.12.36-11.44,3.59-14.54-2.29-1.74-3.3,2.12-6.76,4.36-8.62,6.04-5.03,15.14-9.47,23.05-10.45,2.65-.33,1.85-4.36-.78-4.03-8.73,1.09-18.27,6.02-25.02,11.42-3.06,2.44-6.1,5.91-6.13,10.02-.03,4.26,4,8.69,8.2,9.26,2.93.4,5.81-.35,8.66-.9,1.54-.3,3.14-.54,4.68-.18,2.48.58,2.88,3.44,3.41,5.49,1.99,7.75,7.88,10.92,15.4,12.32,3.67.68,7.42,1.04,10.99,2.16,3.68,1.15,6.71,4.31,9.98,6.25,5.08,3,12.61,2.89,16.06-2.38,4.05-6.19-1.38-12.99-7.43-14.72.35,1.02.71,2.05,1.07,3.07,10.43-15.29,3.75-36.32-13.86-42.56-1.7-.6-3.32,1.27-2.51,2.85,2.86,5.66,6.07,11.09,6.53,17.54.55-.8,1.09-1.6,1.64-2.4-7.87,2.52-16.5,4.41-24.75,2.73-3.98-.81-6.91-2.81-9.78-5.56-2.28-2.19-4.56-4.25-7.71-5.04-12.29-3.11-27.04,13.92-14.79,22.98,4.71,3.49,11.36,2.17,15.87-.93,3.11-2.14,7.35-6.86,4.33-10.74-2.83-3.63-9.02-3.34-12.56-1.01-3.61,2.39-5.33,6.59-5.72,10.75-.73,7.85,4.79,14.07,12.8,11.36,11.43-3.87,11.32-15.15,11.56-25.05.13-5.52,1.58-9.85,6.65-12.69,5.36-3,10.72,0,14,4.42,8.7,11.76-.99,30.04-10.13,38.53-1.33,1.24-.55,3.38,1.23,3.58,15.5,1.67,17.83-21.7,16.47-32.34-1.06.7-2.11,1.4-3.17,2.1,4.2,3.58,5.45,10.5,5.71,15.67.25,4.97-.46,12.03-5.62,14.4-2.42,1.11-.58,4.79,1.83,3.68h0Z"/>
      <path class="cls-19" d="m235.36,93.66c-7.25-6.75-16.38-8.51-24.91-2.91-7.82,5.13-13.2,14.01-15.96,22.74-.8,2.52,3.12,3.84,3.92,1.31,4.35-13.75,19.17-32.09,33.87-18.4,1.93,1.79,5.03-.92,3.09-2.73h0Z"/>
      <path class="cls-19" d="m198.51,114.28c-.03-7.96,1.3-15.98,5.79-22.72,4.99-7.48,13.65-10.27,22.34-10.11,2.66.05,2.95-4.04.29-4.09-9.29-.17-18.51,2.53-24.54,9.93-6.11,7.49-8.05,17.28-8.01,26.71.01,2.63,4.14,2.93,4.13.28h0Z"/>
      <path class="cls-19" d="m236.69,104.61c-4.75.18-9.71,1.57-12.05,6.06-1.99,3.81-1.35,8.24.17,12.09,3.18,8.01,12.73,14.12,20.12,7.17.68-.64.88-1.59.48-2.44-3.09-6.55-10.16-6.19-14.38-.95-5.33,6.62-.09,13.72,6.57,16.32,2.54.99,3.66-2.77,1.32-3.89-2.33-1.11-4.76-1.1-7.29-1.35-2.66-.27-2.93,3.83-.29,4.09,2.19.22,4.23.18,6.26,1.15.44-1.3.88-2.59,1.32-3.89-4.36-1.7-7.65-5.28-4.72-9.79,2.14-3.3,5.78-3.53,7.5.12.16-.81.32-1.63.47-2.44-9.61,9.04-24.11-17.44-5.77-18.16,2.64-.1,2.95-4.2.29-4.09h0Z"/>
    </g>
    <g>
      <path class="cls-15" d="m236.27,142.33c14.72-.7,26.68-15.05,24.87-29.59-1.17-9.42-10.64-10.86-18.14-7.86-7.45,2.97-14.73,10.75-12.85,19.24.98,4.41,4.27,7.89,9.03,7.58,4.81-.32,8.93-3.66,11.78-7.29,5.09-6.48,4.34-16.89-3.93-20.4-7.26-3.08-16.83,2.93-18.34,10.22-.53,2.56,3.38,3.9,3.92,1.31,1.01-4.87,5.88-8.26,10.81-8.13,6.21.17,7.75,7.42,5.74,12.08-1.72,4-6.54,8.42-11.19,8.11-4.62-.31-4.36-7.19-3.14-10.14,2.48-5.98,12.78-12.93,19.28-9.19,4.61,2.65,3.18,10.21,1.86,14.16-2.78,8.36-10.34,15.37-19.43,15.8-2.63.12-2.94,4.22-.28,4.09h0Z"/>
      <path class="cls-15" d="m228.13,92.56c-7.67,8.78-12.01,24.17-.8,31.98,2.18,1.52,4.46-1.91,2.27-3.43-8.73-6.07-4.59-18.77,1.28-25.49,1.72-1.97-1.01-5.06-2.75-3.06h0Z"/>
      <path class="cls-15" d="m220.12,127.84c-10.72-9.24-3.05-24.12,5.52-31.93,1.96-1.79-.79-4.86-2.75-3.06-10.11,9.22-18.36,26.95-5.85,37.73,1.98,1.71,5.1-1,3.09-2.73h0Z"/>
      <path class="cls-15" d="m244.42,139.55c-2.2-2.05-5.43-2.29-8.3-2.63-5.11-.61-9.73-1.24-14.42-3.52-8.69-4.24-12.28-12.3-13.36-21.44-.31-2.63-4.37-1.83-4.06.78,1.06,8.9,4.36,16.83,11.87,22.16,3.43,2.43,7.89,4.39,12.03,5.14,2.21.4,4.45.63,6.69.87,1.77.19,5.07.09,6.46,1.38,1.92,1.79,5.03-.92,3.09-2.73h0Z"/>
      <path class="cls-15" d="m244.4,147.04c-9.12-17.44-32.52-14.75-44.83-2.31-1.86,1.88.88,4.95,2.75,3.06,10.32-10.43,30.47-14.05,38.37,1.07,1.23,2.35,4.93.53,3.7-1.82h0Z"/>
      <path class="cls-15" d="m213.83,134.2c-5.28-4.31-10.5-9.38-12.99-15.83-2.85-7.38,2.59-13.17,8.6-16.71,2.28-1.34.46-5.03-1.83-3.68-7.34,4.32-13.23,10.87-11.21,19.84,1.84,8.18,8.92,14.7,15.16,19.8,2.05,1.68,4.31-1.76,2.27-3.43h0Z"/>
      <path class="cls-15" d="m204.99,110.33c.62-13.77,18.95-16.33,29.29-12.36,10.42,4,12.3,16.73,5.05,24.43-5.45,5.79-16.17,9.42-22.2,2.51-4.97-5.69-3.54-14.13.59-19.79,5.14-7.03,14.02-6.12,19.95-.88,6.42,5.67,9.82,13.4,9.71,21.8-.05,3.64-.49,7.36-1.76,10.79-1.33,3.59-2.87,2.57-4.89-.05-.38,1.13-.77,2.25-1.15,3.38,3.02-.88,5.21,1.59,7.26,3.46,2.2,2.01,4.46,3.9,7.37,4.79,2.55.77,3.88-3.11,1.32-3.89-6.03-1.83-9.52-10.49-16.74-8.39-1.56.46-2.16,2.07-1.15,3.38,2.36,3.07,6.38,5.81,9.71,2.32,3.21-3.35,3.74-9.11,4.05-13.47.83-11.66-4.27-23.04-14.25-29.66-12.98-8.61-28.31,3.99-27.34,18.13.68,9.97,8.42,16.99,18.48,15.77,6.93-.84,13.45-5.47,17.02-11.32,4.2-6.88,3.08-14.74-1.37-21.17-5.27-7.62-16.97-8.92-25.35-7.47-9.07,1.56-17.31,7.76-17.74,17.41-.12,2.64,4.01,2.93,4.12.28h0Z"/>
    </g>
    <g>
      <path class="cls-28" d="m267.83,107.39c-9.92,6.94-5.97,20.9-5.8,30.98.1,6.01-1.05,12.52-6.77,15.71-5.32,2.97-11.33-.11-14.89-4.26-3.88-4.52-4.59-10.77-1.19-15.72,3.23-4.71,9.54-6.98,14.09-10.18,4.96-3.48,7.67-8.52,7.42-14.58-.2-4.81-1.57-11.61-6.59-13.78-8.89-3.85-17.62,8.06-20.16,14.96-2.13,5.78-.3,12.69-3.92,17.97-2.68,3.91-7.57,2.18-10.72-.02-5.07-3.54-2.59-9.53,2.09-12.1,3.55-1.95,5.63-.96,8.15,1.68,2.31,2.43,4.84,4.34,7.84,5.87,5.71,2.93,13.18,4.73,19.46,2.62,6.59-2.22,9.59-8.53,9.45-15.13-.09-4.11-1.95-7.63-5.87-9.23-6.55-2.66-15.26,1.22-21.08,4.04-6.64,3.22-14.99,8.18-17.76,15.31-.96,2.47,2.96,3.77,3.92,1.31,1.75-4.5,6.9-7.94,10.96-10.38,4.31-2.6,8.98-4.78,13.86-6.08,3.35-.89,8.3-1.86,10.81,1.23,1.3,1.6,1.11,4.22.95,6.1-.39,4.45-2.94,8-7.33,9.19-6.73,1.82-15.62-1.46-20.58-6.03-1.86-1.71-3.37-3.9-5.73-5.01-2.98-1.4-6.03-.47-8.87.83-3.11,1.43-5.25,4.29-6.62,7.3-1.58,3.5-.7,6.76,1.58,9.63,4.24,5.31,12.32,7.23,17.64,2.61,4.72-4.1,4.27-11.74,4.95-17.33.62-5.1,3.98-9.83,7.81-13.11,3.36-2.88,7.72-4.24,10.04.4,3.1,6.21,1.96,13.47-3.37,17.85-4.48,3.68-10.12,5.66-14.23,9.85-3.86,3.92-5.32,9.42-4.14,14.73,2.31,10.36,14.47,18.38,24.48,12.79,8.2-4.58,8.8-14.64,8.28-22.91-.5-7.86-3.01-18.73,4.6-24.06,2.17-1.52-.6-4.57-2.75-3.06h0Z"/>
      <path class="cls-28" d="m266.92,113.77c-4.25,17.62-17.96,36.37-38.5,30.35-2.55-.75-3.89,3.13-1.32,3.89,22.73,6.67,38.92-12.9,43.74-32.92.62-2.55-3.3-3.89-3.92-1.31h0Z"/>
      <path class="cls-28" d="m235.04,97.48c-10.68,4.11-19.25,13.52-23.07,24.14-4.22,11.73.29,23.19,10.94,29.5,2.28,1.35,4.57-2.06,2.27-3.43-9.61-5.7-12.76-15.16-9.03-25.52,3.36-9.34,11.44-17.44,20.72-21.02,2.49-.96.63-4.62-1.83-3.67h0Z"/>
      <path class="cls-28" d="m231.38,121.71c-5.53-.34-11.29-1.95-13.79-7.31-2-4.29-.71-9.49,1.14-13.58,4.32-9.58,15.45-16.37,25.38-10.45,2.28,1.36,4.57-2.06,2.27-3.43-12.57-7.49-25.89.66-31.57,12.56-2.54,5.31-3.25,11.74-.71,17.17,3.01,6.43,10.4,8.72,17,9.13,2.67.16,2.94-3.93.29-4.09h0Z"/>
      <path class="cls-28" d="m229.26,126.7c5.01-6.28,11.76-10.26,14.12-18.36,1.68-5.77.36-11.92-3.32-16.62-7.28-9.3-22.18-7.57-29.3.74-6.04,7.05-6.7,18.25-4.19,26.79,2.29,7.81,8.58,14.49,17.25,11.19,2.49-.95.63-4.62-1.83-3.68-6.44,2.45-10.24-4.14-11.66-9.37-1.94-7.16-1.16-15.62,3.19-21.77,5.33-7.55,17.44-8.12,23.47-1.17,3.62,4.18,3.56,10.15,1.65,15.02-2.42,6.17-8.79,9.92-12.82,14.97-1.66,2.07,1.81,4.32,3.45,2.26h0Z"/>
      <path class="cls-28" d="m220.02,130.87c-9.04,2.67-18.29.54-23.98-7.19-5.15-6.99-4.25-16.66,1.47-22.98,7.3-8.07,17.9-6.47,27.76-7.32,4.17-.36,8.56-1.39,11.57-4.48,3.55-3.65,3.6-9.09,3.09-13.81-.28-2.64-4.34-1.83-4.06.78.61,5.77-.44,10.96-6.59,12.69-5.05,1.42-10.58.99-15.77,1.3-4.88.29-9.93,1-14.04,3.82-4.12,2.83-7.34,6.47-9.35,11.03-3.49,7.92-1.19,17.25,4.37,23.6,6.54,7.47,17.06,9.33,26.33,6.59,2.54-.75,1.77-4.78-.78-4.03h0Z"/>
      <path class="cls-28" d="m234.72,138.74c5.75-6.33,11.16-13.36,13.35-21.75,2.18-8.35-.38-16.35-5.62-23-1.64-2.08-4.72.65-3.08,2.73,4.79,6.08,6.54,13.06,4.35,20.52-2.05,7-6.91,13.11-11.75,18.43-1.76,1.94.97,5.03,2.75,3.06h0Z"/>
    </g>
  </g>
  <g>
    <path class="cls-6" d="m229.99,181.57c4.69,4.59,14.31,15.47,21.8,14.35,13.05-1.95,1.93-14.51-3.57-17.82-6.86-4.14-11.94-10.92-18.22-15.85-4.53-3.56-9.67-6.05-15.13-7.41-2.83-.7-6.21-.44-8.99-1.32-2.89-.91-4.47-3.59-8.17-2.65-.93,6.35,7.99,12.34,12.44,15.47,7.18,5.06,13.53,9.07,19.84,15.23Z"/>
    <path class="cls-4" d="m232.07,143.35c-7.01-3.3-20.89-11.27-27.99-8.92-7.42,2.46-13.94,12.36-5.11,17.35,2.27,1.28,7.55,1.36,10.33,2.16,4.62,1.34,9.16,3.03,13.3,5.34,8.11,4.52,23.86,29.96,32.91,28.69,8.42-1.18,9.69-22.32,6.68-27.89-3.18-5.9-9.16-6.43-14.99-8.87-5.35-2.24-9.99-5.43-15.15-7.86Z"/>
    <path class="cls-18" d="m234.83,136.92c-7.01-3.3-20.89-11.27-27.99-8.92-7.42,2.46-13.94,12.36-5.11,17.35,2.27,1.28,7.55,1.36,10.33,2.17,4.62,1.34,9.16,3.03,13.3,5.34,8.11,4.52,23.86,29.96,32.91,28.69,8.42-1.18,9.69-22.32,6.68-27.89-3.18-5.9-9.16-6.43-14.99-8.87-5.35-2.24-9.99-5.43-15.15-7.86Z"/>
    <path class="cls-4" d="m254.28,169.75c6.71,2.65,14.04-2.97,7.12-8.13-3.94-2.94-10.44-1.8-14.77-4.2-7.59-4.21-13.71-10.56-20.76-15.53-4.48-3.16-27.19-18.59-29.67-4.8-1.31,7.29,8.31,3.95,12.44,4.75,6.94,1.34,14.17,6.17,19.97,9.81,8.42,5.29,16.16,14.34,25.67,18.1Z"/>
    <path class="cls-6" d="m212.9,173.99c-3.71-3.24-8.04-5.67-11.8-8.83-1.61-1.35-4.81-5.97-6.75-6.52-6.25-1.79-13.59,5.88-11.16,11.98,1.54,3.86,7.52,18.07,10.58,21.56,9.87,11.26,17.81,18.65,24.74,31.79,6.42,12.17,16.32-3.77,20.71-12.85,6.91-14.31-17.19-29.15-26.32-37.13Z"/>
    <path class="cls-18" d="m216.07,171.29c-5.38-3.65-13.49-11-19.41-12.98-6.05-2.03-10.31,2.69-6.37,9.08,2.92,4.73,10.4,7.23,14.94,10.04,11.76,7.28,20.2,16.77,30.48,25.8,4.29,3.78,7.82,8.34,13.08,3.62,5.44-4.89,3.92-10.05-.14-13.84-9.59-8.95-22.03-14.56-32.58-21.72Z"/>
    <path class="cls-4" d="m201.9,152.82c-2.2-4.48-4.01-14.93-9.95-6.75-2.28,3.14-1.85,10.8.84,13.59,4.98,5.14,13.4,6.77,18.6,12.26,5.5,5.81,9.73,12.99,13.78,19.83,2.81,4.75,6.11,15.2,11.68,17.14,7.31,2.54,7.79-5.85,6.26-10.97-1.35-4.52-7.02-9.13-10.32-12.44-10.33-10.32-24.27-19.17-30.89-32.66Z"/>
    <path class="cls-4" d="m192.29,181.37c-1.58-4.3-6.12-26.46-14.59-13.56-2.07,3.16-.43,6.94.93,9.98,3,6.7,8.99,11.71,13.44,17.4,5.14,6.56,11.01,13.04,15.2,20.32,1.82,3.16,6.05,14.26,10.84,14.74,15.39,1.57-13.19-29.05-15.01-31-5.02-5.38-8.29-11.03-10.82-17.89Z"/>
  </g>
  <g>
    <path class="cls-1" d="m84.46,106.35c2.9,2.15,2.55,7.47-.78,11.88-3.33,4.42-8.37,6.25-11.27,4.11-2.9-2.15-2.55-7.47.78-11.88,3.33-4.42,8.37-6.25,11.27-4.11Z"/>
    <path class="cls-12" d="m82.33,109.16c.84.63-.32,3.58-2.59,6.6-2.27,3.02-4.8,4.96-5.65,4.33-.84-.62.32-3.58,2.59-6.6,2.27-3.02,4.8-4.96,5.64-4.33Z"/>
  </g>
  <g>
    <g>
      <path class="cls-17" d="m125.18,73.81c-1.53-9.96-4.45-26.64-15.72-29.35-11.5-2.77-24.28,8.38-33.23,13.17-12.71,6.8-22.44,30.76-23.09,45.79-.58,13.36,5.89,14.59,20.12,13.03,6.3-.69,11.86-4.08,17.82-5.2,6.93-1.31,13.12.65,19.96-2.34,15.28-6.67,16.42-20.26,14.14-35.1Z"/>
      <path class="cls-26" d="m87.99,58.07c4.85-1,10.48-1.22,14.31,2.4,3.04,2.88,3.47,7.43,3.11,11.35-.95,10.42-9.23,19.98-19.35,22.57-2.79.71-1.6,4.98,1.19,4.27,12.54-3.21,21.54-14.81,22.69-27.43.47-5.15-1-10.61-4.84-14.24-4.86-4.6-12.16-4.45-18.29-3.19-2.82.58-1.62,4.85,1.19,4.27h0Z"/>
      <path class="cls-26" d="m100.64,58.22c-5.81-1.4-12.2-1.42-16.71,3.01-3.93,3.86-4.61,10-4.17,15.18,1.05,12.54,8.87,26.52,21.18,31.11,2.7,1.01,3.86-3.28,1.19-4.27-9.99-3.72-15.87-15.1-17.65-24.94-.77-4.27-.65-9.14,1.75-12.89,2.81-4.4,8.8-3.98,13.22-2.92,2.8.67,3.98-3.6,1.19-4.27h0Z"/>
      <path class="cls-26" d="m110.46,66.26c.81,6.42-1.19,11.04-7.63,13-5.61,1.71-11.81,1.37-17.61,1.42-6.06.06-11.58.74-16.67,4.3-4.5,3.15-8.16,8.36-7.76,14.02.46,6.6,6.84,10.13,12.6,11.65,5.13,1.35,10.35.11,14.47-3.13,4.11-3.23,7-7.68,10.01-11.87,2.48-3.45,5.71-8.21,10.35-8.78,2.92-.36,6.22.98,8.33,2.92,2.25,2.06,1.17,5.05-.45,7.12-4.07,5.19-12.54,8.4-18.65,5.08-2.53-1.37-4.78,2.45-2.25,3.82,9.17,4.97,25.63-.82,27.05-12.05.73-5.81-4.47-9.36-9.46-10.85-4.66-1.39-9.09.24-12.65,3.27-7.07,6.01-10.89,19.6-21.43,20.57-5.84.54-14.68-3.31-13.33-10.25,1.2-6.17,8.27-10.6,14.19-11.17,7.95-.76,15.98.31,23.82-1.63,8.59-2.12,12.62-8.9,11.54-17.45-.35-2.79-4.82-2.83-4.46,0h0Z"/>
      <path class="cls-26" d="m100.43,59.92c-8.4-3.62-20.67-3.76-28.66.94-9.04,5.32-7.16,22.63,4.39,23.04,5.37.19,10.69-3.76,15.02-6.41,2.25-1.38,4.53-2.84,7.07-3.63,3.32-1.03,7.2.77,9.91,2.53,6.14,3.97,9.95,13.41,2.41,17.99-3.39,2.06-16.47,2.62-12.31-4.11,1.51-2.44-2.35-4.66-3.86-2.23-3.12,5.06-.89,9.63,4.5,11.55,5.65,2.02,12.48.34,16.81-3.58,5.22-4.73,4.09-12.34.58-17.64-3.66-5.52-10.41-9.45-17.15-9.13-8,.37-24.49,18.97-28.4,4.53-3.5-12.91,16.57-12.65,24.3-10.95,1.06.23,2.14.52,3.14.95,2.61,1.12,4.89-2.69,2.25-3.82h0Z"/>
      <path class="cls-26" d="m103.11,47.9c9.74-8.73,14.42,10.14,15.65,16.77,1.02,5.5.5,10.07-3.25,14.54-1.7,2.02-3.94,3.87-6.42,4.87-2.56,1.02-2.95.04-2.43-2.46.58-2.79-3.72-3.97-4.31-1.18-.61,2.93-.64,5.97,2.08,7.82,2.56,1.74,6.34.07,8.65-1.24,6.82-3.86,11.36-11.49,10.59-19.27-1.07-10.88-8.94-36.23-23.73-22.97-2.14,1.92,1.03,5.04,3.16,3.13h0Z"/>
      <path class="cls-26" d="m93.94,49.95c10.6-1.77,18.11,6.41,20.6,15.86,2.63,10-.93,20.94-10.41,25.85-2.55,1.32-.29,5.14,2.25,3.82,11.66-6.04,15.46-19.44,12.28-31.54-3.1-11.79-13.36-20.37-25.91-18.27-2.83.47-1.63,4.74,1.19,4.27h0Z"/>
      <path class="cls-24" d="m98.65,60.27c-16.84-14.24-38.11,11.45-34.69,28.24,2.29,11.2,16.9,14.93,26.3,10.77,6.72-2.97,12.99-9.28,20.87-8.19,3.08.43,8.22,2.12,8.7,5.78.52,3.96-4.38,7.08-7.45,8.36-9.01,3.74-15.92-1.68-23.74-5.38-5.51-2.61-11.66-3.51-17.74-2.96-5.46.5-10.76,2.65-12.84,8.01-1.62,4.18-.04,10.13,2.93,13.38,6.21,6.81,18.32.83,24.73-2.4,10-5.03,19.02-11.69,28.59-17.44,1.74-1.04,3.63-2.33,5.66-2.72,2.82-.55,1.62-4.82-1.19-4.27-3.21.62-6.29,2.87-9,4.55-4.67,2.91-9.23,5.97-13.89,8.9-5,3.14-10.11,6.14-15.48,8.63-3.82,1.77-8.67,3.84-13,3.2-4.43-.66-5.58-5.4-5.38-9.24.33-6.47,10.21-6.52,14.74-6.23,7.44.47,13.2,4.62,19.77,7.62,7.35,3.36,15.53,2.58,22.11-2.15,4.37-3.14,7.06-8.22,4.62-13.37-2.6-5.47-11.25-7.49-16.69-6.62-6.67,1.08-11.87,5.53-17.8,8.37-5.38,2.57-12.79,1.78-17.35-2.18-6.93-6.03-2.38-17.04,1.97-23.11,4.88-6.81,14.46-12.85,22.07-6.41,2.18,1.84,5.35-1.28,3.16-3.13h0Z"/>
      <path class="cls-24" d="m104.51,51.5c-8.43-.48-18.75,1.73-22.27,10.27-1.79,4.33-.1,9.83,2.02,13.71,2.06,3.77,5.84,5.54,9.96,6.05,7.81.97,17.53-4.59,23.98,1.69,1.22,1.19,2.61,2.93,2.75,4.7.17,2.12-4.94,1.07-5.93.51-3.12-1.77-1.27-6.39,2.3-5.28,2.75.86,3.92-3.42,1.19-4.27-9.02-2.81-12.79,9.39-5.22,13.67,3.46,1.95,9.99,1.51,11.71-2.56,1.76-4.17-2.2-8.83-5.21-11.29-8.48-6.94-19.35,1.63-28.34-2.32-5.23-2.3-7.12-11.29-3.59-15.57,3.76-4.55,11.2-5.19,16.66-4.88,2.88.16,2.86-4.26,0-4.43h0Z"/>
    </g>
    <g>
      <path class="cls-1" d="m92.73,69.07c0,3.87-4.87,7.01-10.87,7.01s-10.87-3.14-10.87-7.01,4.87-7.01,10.87-7.01,10.87,3.14,10.87,7.01Z"/>
      <path class="cls-12" d="m88.9,69.07c0,1.13-3.32,2.04-7.42,2.04s-7.43-.91-7.43-2.04,3.32-2.04,7.43-2.04,7.42.91,7.42,2.04Z"/>
    </g>
    <g>
      <path class="cls-1" d="m99.85,82.75c3.13,2.32,2.75,8.06-.84,12.83-3.59,4.77-9.04,6.75-12.17,4.43-3.13-2.32-2.75-8.06.84-12.83,3.59-4.77,9.04-6.75,12.17-4.43Z"/>
      <path class="cls-12" d="m97.56,85.8c.91.67-.34,3.86-2.8,7.12-2.46,3.26-5.18,5.35-6.1,4.68-.91-.68.34-3.86,2.8-7.12,2.46-3.26,5.18-5.35,6.09-4.68Z"/>
    </g>
    <g>
      <path class="cls-1" d="m111.97,45.01c3.13,2.32,2.75,8.06-.84,12.83-3.59,4.77-9.04,6.75-12.17,4.43-3.13-2.32-2.75-8.06.84-12.83,3.59-4.77,9.04-6.75,12.17-4.43Z"/>
      <path class="cls-12" d="m109.68,48.05c.91.68-.34,3.86-2.8,7.12-2.46,3.26-5.18,5.35-6.1,4.67-.91-.67.34-3.86,2.8-7.12,2.46-3.26,5.18-5.35,6.09-4.68Z"/>
    </g>
    <g>
      <path class="cls-1" d="m66.28,87.89c3.13,2.32,2.75,8.06-.84,12.83-3.59,4.77-9.04,6.75-12.17,4.43-3.13-2.32-2.75-8.06.85-12.83,3.59-4.77,9.04-6.75,12.17-4.43Z"/>
      <path class="cls-12" d="m63.99,90.94c.91.68-.34,3.86-2.8,7.12-2.46,3.26-5.18,5.35-6.1,4.68-.91-.67.34-3.86,2.8-7.12,2.46-3.26,5.18-5.35,6.1-4.68Z"/>
    </g>
    <g>
      <path class="cls-1" d="m132.83,92.97c-1.79,3.44-7.57,4.01-12.9,1.28-5.33-2.73-8.2-7.74-6.41-11.18,1.79-3.44,7.57-4.02,12.9-1.28,5.33,2.73,8.2,7.74,6.41,11.18Z"/>
      <path class="cls-12" d="m129.42,91.23c-.52,1-3.9.3-7.54-1.57-3.64-1.87-6.17-4.19-5.65-5.2.52-1,3.9-.3,7.54,1.57,3.64,1.87,6.17,4.19,5.65,5.19Z"/>
    </g>
  </g>
  <g>
    <path class="cls-20" d="m90.47,128.18c-11.41-1.23-26.36,18.85-19.92,29.18,3.65,5.85,12.2,7.18,18.3,9.01,8.57,2.57,17.06-7.01,20-14.73,4.51-11.85-7.2-22.25-18.38-23.46Z"/>
    <g>
      <path class="cls-22" d="m88.85,166.37c.07.02.14.03.21.05-.73-.22-1.5-.43-2.29-.64.72.19,1.42.39,2.09.59Z"/>
      <path class="cls-22" d="m70.55,157.36c2.98,4.77,9.22,6.54,14.73,8.02-4.69-1.27-9.82-2.87-12.33-6.89-5.68-9.11,7.5-26.82,17.56-25.73,9.87,1.06,20.2,10.24,16.22,20.69-2.18,5.73-7.83,12.62-14.07,13.31,7.17-.63,13.69-8.54,16.19-15.11,4.51-11.85-7.2-22.25-18.38-23.46-11.41-1.23-26.36,18.85-19.92,29.18Z"/>
    </g>
    <path class="cls-13" d="m92.92,149.7c-.77,3.58.69,7.55-.69,10.95-3.96-1.02-6.6-8.81-7.79-12.44-1.59-4.82-1.32-9.44,5.05-8.82,5.73.56,4.34,6.11,3.43,10.31Z"/>
  </g>
  <g>
    <path class="cls-20" d="m65.33,151.15c-11.41-1.23-26.36,18.85-19.92,29.18,3.65,5.85,12.2,7.18,18.3,9.01,8.57,2.57,17.06-7.01,20-14.73,4.52-11.85-7.2-22.25-18.38-23.46Z"/>
    <g>
      <path class="cls-22" d="m63.71,189.34c.07.02.14.03.21.05-.73-.22-1.5-.43-2.29-.64.72.2,1.42.39,2.09.59Z"/>
      <path class="cls-22" d="m45.41,180.33c2.98,4.77,9.22,6.54,14.73,8.02-4.69-1.27-9.82-2.87-12.33-6.89-5.68-9.11,7.5-26.82,17.56-25.73,9.87,1.06,20.2,10.24,16.22,20.69-2.18,5.73-7.83,12.62-14.07,13.31,7.17-.63,13.69-8.54,16.19-15.11,4.52-11.85-7.2-22.25-18.38-23.46-11.41-1.23-26.36,18.85-19.92,29.18Z"/>
    </g>
    <path class="cls-13" d="m67.78,172.68c-.77,3.58.69,7.55-.69,10.95-3.96-1.01-6.6-8.81-7.79-12.44-1.59-4.82-1.32-9.44,5.05-8.82,5.73.56,4.34,6.11,3.44,10.31Z"/>
  </g>
  <g>
    <path class="cls-20" d="m84.02,144.47c8.94-1.05,16.81-19,10.06-25.77-3.82-3.84-10.6-3.36-15.58-3.7-7.01-.47-11.8,8.33-12.68,14.74-1.35,9.84,9.44,15.76,18.21,14.73Z"/>
    <g>
      <path class="cls-22" d="m78.5,115c-.06,0-.11,0-.17,0,.6.04,1.22.07,1.87.09-.58-.02-1.15-.05-1.7-.09Z"/>
      <path class="cls-22" d="m94.08,118.7c-3.12-3.13-8.21-3.39-12.68-3.56,3.81.16,8.02.48,10.65,3.12,5.95,5.97-.99,21.81-8.87,22.73-7.73.91-17.25-4.31-16.06-12.99.65-4.76,3.75-11.01,8.4-12.62-5.37,1.73-8.96,8.91-9.71,14.37-1.35,9.85,9.44,15.76,18.21,14.73,8.94-1.05,16.81-19,10.06-25.77Z"/>
    </g>
    <path class="cls-13" d="m78.33,128.45c-.04-2.87-1.87-5.65-1.41-8.49,3.21.09,6.6,5.59,8.16,8.15,2.07,3.41,2.68,6.99-2.3,7.62-4.48.57-4.4-3.92-4.45-7.28Z"/>
  </g>
  <g>
    <path class="cls-20" d="m86.48,202.7c8.94-1.05,16.81-19,10.06-25.77-3.83-3.84-10.6-3.36-15.58-3.7-7.01-.47-11.8,8.33-12.68,14.74-1.35,9.84,9.44,15.76,18.21,14.73Z"/>
    <g>
      <path class="cls-22" d="m80.96,173.23c-.06,0-.11,0-.17,0,.6.04,1.22.07,1.87.09-.58-.02-1.15-.05-1.7-.09Z"/>
      <path class="cls-22" d="m96.54,176.93c-3.12-3.13-8.21-3.39-12.68-3.56,3.81.16,8.02.48,10.65,3.12,5.95,5.97-.99,21.81-8.87,22.73-7.73.91-17.25-4.31-16.06-12.99.65-4.76,3.75-11.01,8.4-12.62-5.37,1.73-8.95,8.91-9.71,14.37-1.35,9.84,9.44,15.76,18.21,14.73,8.94-1.05,16.81-19,10.06-25.77Z"/>
    </g>
    <path class="cls-13" d="m80.79,186.67c-.04-2.87-1.87-5.65-1.41-8.49,3.2.09,6.6,5.59,8.16,8.15,2.07,3.41,2.68,6.99-2.3,7.62-4.48.57-4.4-3.92-4.45-7.28Z"/>
  </g>
  <g>
    <path class="cls-20" d="m96.21,185.12c8.94-1.05,16.81-19,10.06-25.77-3.82-3.84-10.6-3.36-15.58-3.7-7.01-.47-11.8,8.33-12.68,14.74-1.35,9.84,9.44,15.76,18.2,14.73Z"/>
    <g>
      <path class="cls-22" d="m90.68,155.65c-.06,0-.11,0-.17,0,.6.04,1.22.07,1.87.09-.58-.02-1.15-.05-1.7-.09Z"/>
      <path class="cls-22" d="m106.27,159.34c-3.12-3.13-8.21-3.39-12.68-3.56,3.81.16,8.02.48,10.65,3.12,5.95,5.97-.99,21.8-8.87,22.73-7.73.91-17.25-4.31-16.06-12.99.65-4.76,3.75-11.01,8.4-12.62-5.37,1.73-8.96,8.91-9.71,14.37-1.35,9.84,9.44,15.76,18.21,14.73,8.94-1.05,16.81-19,10.06-25.77Z"/>
    </g>
    <path class="cls-13" d="m90.52,169.09c-.04-2.87-1.87-5.65-1.41-8.49,3.2.09,6.6,5.59,8.16,8.15,2.07,3.41,2.68,6.99-2.3,7.62-4.48.57-4.4-3.91-4.45-7.28Z"/>
  </g>
  <g>
    <path class="cls-20" d="m80.35,179.24c11.4-1.34,21.43-24.22,12.83-32.86-4.88-4.89-13.52-4.29-19.87-4.71-8.94-.6-15.05,10.62-16.17,18.79-1.72,12.55,12.04,20.09,23.21,18.78Z"/>
    <g>
      <path class="cls-22" d="m73.3,141.67c-.07,0-.14,0-.21,0,.76.05,1.56.09,2.38.12-.74-.03-1.47-.06-2.17-.11Z"/>
      <path class="cls-22" d="m93.17,146.38c-3.98-3.99-10.46-4.32-16.17-4.54,4.86.2,10.22.62,13.57,3.98,7.59,7.62-1.26,27.8-11.31,28.98-9.86,1.16-21.99-5.49-20.47-16.56.83-6.07,4.79-14.04,10.71-16.09-6.85,2.2-11.42,11.36-12.37,18.32-1.73,12.55,12.04,20.09,23.21,18.78,11.4-1.34,21.43-24.22,12.83-32.86Z"/>
    </g>
    <path class="cls-13" d="m73.1,158.81c-.06-3.66-2.38-7.2-1.79-10.82,4.09.11,8.42,7.13,10.4,10.39,2.64,4.35,3.42,8.91-2.93,9.72-5.71.73-5.61-4.99-5.67-9.29Z"/>
  </g>
  <path class="cls-14" d="m188.29,195.2c-2.65-1.93-4.81-4.52-7.77-5.99-2.18-1.09-3.83-1.48-5.8-3.11-3.95-3.25-6.92-6.58-12.58-5.18-5.59,1.39-11.66,7.63-9.72,13.51-3.8,3.33-8.71,4.89-9.87,10.68-.79,3.95-.89,9.15,1.61,12.41-2.62,1.29-5.78.66-8.58,2.37-3.1,1.89-4.68,5.12-4.15,8.78.75,5.23,4.85,6.27,8.98,7.95,3.73,1.53,5.67,4.84,8.96,6.77,9.38,5.49,23.29,1.39,32.82-1.12,5.36-1.41,9.44-4.08,13.78-7.44,3.21-2.48,5.48-2.04,8.88-3.48,3.75-1.59,5.24-4.83,2.76-8.14-3.09-4.1-5.97-6.61-8.28-11.37-2.98-6.14-5.4-12.55-11.04-16.65Z"/>
  <g>
    <path class="cls-20" d="m80.33,144.02c2.23-11.59-17.43-28.58-28.73-22.84-6.4,3.25-8.5,11.9-10.91,18-3.39,8.57,5.87,18.06,13.67,21.72,11.97,5.62,23.78-5.52,25.97-16.88Z"/>
    <g>
      <path class="cls-22" d="m40.69,139.18c-.03.07-.05.14-.07.21.29-.73.57-1.5.86-2.29-.26.72-.52,1.42-.79,2.09Z"/>
      <path class="cls-22" d="m51.6,121.18c-5.22,2.65-7.58,8.9-9.58,14.42,1.72-4.7,3.81-9.83,8.21-12.06,9.96-5.06,27.3,9.92,25.34,20.15-1.93,10.02-12.35,19.84-22.9,14.89-5.79-2.71-12.49-9.08-12.69-15.53.06,7.4,7.75,14.74,14.38,17.85,11.96,5.62,23.78-5.52,25.97-16.88,2.23-11.59-17.43-28.58-28.73-22.84Z"/>
    </g>
    <path class="cls-13" d="m57.71,144.74c-3.67-1.09-7.92.08-11.35-1.62,1.39-3.97,9.73-6.02,13.61-6.95,5.16-1.23,9.94-.56,8.76,5.91-1.06,5.83-6.73,3.94-11.02,2.66Z"/>
  </g>
  <path class="cls-31" d="m141.83,232.2c8.55-22.02,7.56-58.02-24.78-55.39-10.83.88-13.41,9.31-18.92,18.46-8.37,13.91-22.36,32.45-2.04,42.27,15.62,7.55,37.54,15.78,45.73-5.33Z"/>
  <g>
    <g>
      <path class="cls-16" d="m167.1,191.86c-11.36-4.18-17.86,9.83-17.6,18.95.15,5.04,2.56,9.47,7.33,11.51,4.28,1.83,7.79-.33,10.33-3.74,2.63-3.53,3.76-8.18,6.88-11.35,1.32-1.34,3.53-.98,4.52.59,1.33,2.1.17,5.48-.55,7.57-1.65,4.81-5.58,10.26-11.49,8.7-4.11-1.08-2.77-7,.61-8,2.27-.67,5.33.13,5.67,2.76.36,2.8-1.57,5.31-3.93,6.56-2.25,1.19-6,.78-8.16-.44-1.85-1.05-1.91-3.46-1.81-5.3.28-5.09,2.81-10.17,4.64-14.85,1.46-3.71,3.57-8.22,1.23-12.01-2.82-4.57-9.6-1.56-13.07.33-5.22,2.85-9.68,6.87-11.42,12.65-1.73,5.72.09,12.56,4.6,16.53,4.85,4.27,11.06,2.65,15.51-1.23.24-.24.49-.48.73-.72,1.9-1.86-1.02-4.76-2.92-2.9-2.49,2.43-5.69,4.36-9.16,2.73-3.07-1.44-4.71-5.08-5.13-8.24-.97-7.22,4.16-11.97,9.88-15.27,1.71-.99,5.06-2.9,7.13-1.96,1.73.78.38,4.16,0,5.34-1.6,4.89-3.86,9.52-5.24,14.48-1.08,3.91-1.88,9.14,1.12,12.45,3.38,3.74,9.81,3.85,14.15,1.97,4.46-1.93,7-7.66,5.57-12.2-1.49-4.72-7.82-6.05-11.95-4.08-3.76,1.8-5.31,5.93-4.44,9.85.98,4.42,5.65,6.44,9.83,5.74,5.62-.95,8.77-4.47,11.08-9.42,1.89-4.03,3.6-10.02.51-13.91-2.77-3.5-7.78-3.29-10.74-.28-3.12,3.18-4.5,7.78-6.93,11.44-.95,1.43-2.22,2.86-4.06,2.85-2.45,0-4.7-2.46-5.5-4.54-1.92-5.01-.13-11.29,2.79-15.54,2.12-3.07,5.36-4.34,8.89-3.04,2.51.92,3.58-3.04,1.1-3.95h0Z"/>
      <path class="cls-16" d="m188.69,217.62c4.19-4.95,17.04.33,13.09,7.05-3.04,5.17-13.9,4.49-18.56,2.49-1.29-.55-2.54-.12-3.04,1.23-1.14,3.07-2.12,6.89-5.02,8.8-2.21,1.46-.14,5.01,2.09,3.54,3.95-2.6,5.35-7.04,6.92-11.25-1.01.41-2.03.82-3.04,1.23,7.71,3.31,22.7,3.21,25.37-6.73,2.73-10.15-14.58-16.52-20.74-9.25-1.71,2.01,1.2,4.93,2.92,2.9h0Z"/>
      <path class="cls-16" d="m176.5,223.37c-4.13,10.84-14.33,12.31-24.65,13.53-2.61.31-2.64,4.41,0,4.1,5.69-.67,11.66-1.15,16.95-3.53,5.81-2.61,9.46-7.18,11.69-13.02.95-2.48-3.05-3.54-3.99-1.09h0Z"/>
      <path class="cls-16" d="m139.32,239.82c10.18,7.04,21.21,8.34,32.78,3.79,4.18-1.64,8.33-3.35,12.37-5.3,3.28-1.58,7.8-3.59,9.6-6.97,1.24-2.34-2.33-4.41-3.57-2.07-1.42,2.67-5.55,4.23-8.11,5.5-3.53,1.75-7.19,3.23-10.86,4.68-4.51,1.78-9.1,3-13.99,2.95-5.95-.05-11.36-2.82-16.13-6.12-2.19-1.52-4.26,2.04-2.09,3.54h0Z"/>
      <path class="cls-16" d="m149.46,247.77c13.56,2.66,27.88,2.06,40.05-4.99,6.08-3.52,10.95-8.75,14.66-14.64.49-.77,2.1-6.88,2.88-6.55,2.91,1.26,2.68,6.21.26,7.84,1.01.41,2.03.82,3.04,1.23-1.07-4.4-.86-8.97-2.24-13.32-.95-3-3.01-5.46-5.21-7.66-4.19-4.21-10.19-8.16-16.4-7.12-4.73.8-8.63,8.58-1.88,9.21,6.45.61,10.79-5.85,8.13-11.64-2.46-5.34-7.45-7.97-13.09-8.57-3.74-.4-10.4.63-8.5,5.92,2.04,5.67,10.29,5.32,13.3.7,2.36-3.63,1.28-9.28-2.25-11.8-5.07-3.62-12.59-1.76-17.8.55-3.77,1.67-9.37,6.59-3.96,10.04,1.35.86,3.09-.27,3.11-1.77.09-6.66-6.45-7.98-10.86-3.92-2.46,2.26-3.28,5.81-3.05,9,.16,2.14.68,4.25,1.41,6.27.51,1.39,1.41,2.83,1.56,4.32.15,1.62-2.08,3-3.16,3.84-2.85,2.21-5.89,2.05-9.31,2.11-4.26.07-8.74,1.73-11.17,5.35-4.75,7.11,5.61,14.38,11.29,16.02,2.56.74,3.65-3.21,1.1-3.95-5.01-1.45-13.76-8.21-5.96-12.26,3.37-1.74,7.57-.88,11.22-1.44,3.29-.5,6.74-3.12,8.69-5.7,3.25-4.29-.51-8.83-1.35-13.31-.55-2.9-.17-5.67,2.07-7.74,1.84-1.7,3.42-.92,3.39,1.4,1.04-.59,2.07-1.18,3.11-1.77-.45-.28-.32.05-.04-.3.72-.89,1.74-1.48,2.72-2.02,2.8-1.56,6.12-2.42,9.32-2.57,2.47-.12,5.63.36,6.63,2.96.7,1.81.57,4.08-1.07,5.29-1.14.84-2.72,1.14-4.02.52-1.31-.63-1.41-1.24-.56-1.5,3.18-1,7.29.11,9.99,1.84,2.59,1.65,4.89,5.16,3.43,8.18-.72,1.49-2.24,1.87-3.74,1.9-.83-.11-.75-.16.26-.14.49-.61,1.42-.88,2.14-1.07,4.77-1.3,10.53,4.09,13.43,7.15,4.78,5.04,3.8,11.81,5.32,18.08.3,1.23,1.95,1.96,3.04,1.23,4.87-3.3,5.22-10.97.46-14.48-2.07-1.52-4.91-1.57-6.48.63-.86,1.2-1.3,2.63-1.74,4.02-.66,2.1-1.53,3.75-2.8,5.57-10.84,15.52-30.78,18.52-48.28,15.09-2.6-.51-3.72,3.44-1.1,3.95h0Z"/>
    </g>
    <g>
      <path class="cls-25" d="m179.04,182.82c-8.56-7.25-23.67-5.22-27.92,5.82-2.01,5.22.11,12,3.71,16.04,3.28,3.68,8.61,4.41,13.28,4.33,8.28-.13,23.81-5.48,25.07,7.2.87,8.76-12.97,15.36-19.63,9.88-4.82-3.97-1.94-10.07,1.6-13.71,2.21-2.28,5.23-4.07,8.47-4.17,3.49-.11,7.25,5.26,2.6,6.44-2.58.65-1.48,4.61,1.1,3.95,6.19-1.57,6.55-8.85,2.03-12.58-5.13-4.23-12.26-.83-16.51,2.87-4.42,3.86-7.23,9.6-5.33,15.35,1.39,4.19,5.12,6.9,9.41,7.6,8.54,1.39,19.31-4.35,20.33-13.45.52-4.67-1.6-9.72-5.39-12.54-3.68-2.74-9.19-2.27-13.47-1.87-8.69.81-20.03,3.46-23.24-7.24-3.67-12.23,12.5-18.19,20.97-11.03,2.02,1.71,4.95-1.18,2.92-2.9h0Z"/>
      <path class="cls-25" d="m175.74,188.14c-15.9-.76-31.44,14.64-31.17,30.4.25,14.43,18.43,14.66,28.5,11.46,2.53-.8,1.45-4.76-1.1-3.95-7.63,2.43-22.48,3.72-23.27-7.5-.96-13.6,13.89-26.92,27.03-26.29,2.67.13,2.65-3.97,0-4.1h0Z"/>
      <path class="cls-25" d="m188.06,208.96c3.07,2.74,5.73,6.32,5.02,10.64-.54,3.24-2.92,5.72-5.75,7.2-3.01,1.58-6.55,1.28-9.39-.44-4.12-2.5-4.91-6.94-4.8-11.32.08-3.17.48-6.67-1.33-9.48-1.87-2.9-6.18-3.28-9.26-2.63-8.54,1.81-13.51,11.5-13.23,19.61.09,2.64,4.23,2.65,4.13,0-.18-4.98,1.87-9.89,5.49-13.34,2.86-2.73,9.64-4.21,10.1,1.08.34,3.89-.46,7.7.55,11.55.96,3.65,4.09,6.95,7.37,8.69,6.02,3.2,13.82.68,17.71-4.61,4.98-6.77,2.12-14.68-3.69-19.86-1.98-1.76-4.91,1.13-2.92,2.9h0Z"/>
      <path class="cls-25" d="m178.37,189.23c6.7,3.48,14.61,10.92,12.27,19.18-1.32,4.65-7.79,12.81-13.48,9.98-3.11-1.55-4.08-6.44-4.26-9.53-.15-2.55.74-4.99,2.94-6.4,4.9-3.16,11.81.3,15.45,3.77,1.92,1.83,4.85-1.06,2.92-2.9-5.33-5.09-14.71-8.73-21.35-3.8-6.92,5.14-4.46,17.38,1.68,22.07,7.34,5.6,16.71-4.14,19.38-10.22,4.65-10.59-4.42-21-13.46-25.69-2.36-1.23-4.45,2.31-2.09,3.54h0Z"/>
      <path class="cls-25" d="m171.09,194.17c-.48-.77-.17-.32-.27-.21.29-.32.85-.49,1.24-.63,1.67-.6,3.49-.77,5.24-.91,3.33-.27,6.82-.26,10.13.27,4.22.68,6.99,5.6,8.47,9.15,1.89,4.53,2.71,9.86,1.73,14.7-1.32,6.59-14.33,12.62-10.82,20.26,3.42,7.43,14.99,5.26,16.65-2.31.56-2.58-3.42-3.67-3.99-1.09-.48,2.21-1.99,3.33-4.14,3.86-1.85.46-5.22-.6-4.84-3.01.65-4.18,5.8-8,8.23-11.25,5.78-7.73,3.59-18.84-1.02-26.68-1.8-3.06-4.85-6.51-8.45-7.42-3.18-.8-6.72-.75-9.98-.67-3.92.1-16.01,1.23-11.77,8.03,1.4,2.24,4.98.19,3.57-2.07h0Z"/>
      <path class="cls-25" d="m161.83,208.02c-5.59,2.54-10.45,6.74-11.01,13.13-.48,5.52,3.85,10.21,8.57,12.38,5.72,2.62,14.01,2.54,19.58-.46,2.72-1.46,4.13-4.33,4.64-7.22.47-2.71-1.33-3.39-2.04-5.37-.85.84-1.7,1.68-2.54,2.52-.73-.46-.78-.43-.16.09,1.92,1.83,4.85-1.06,2.92-2.9-.46-.44-1-1.04-1.67-1.15-1.42-.23-3.12.9-2.54,2.52.39,1.11,1.21,2.04,1.87,3.01,1.17,1.71-1.83,4.55-3.19,5.28-4.04,2.17-10.45,1.67-14.6.2-3.58-1.27-6.56-4.46-6.72-8.31-.21-5.07,4.93-8.35,8.97-10.18,2.42-1.1.32-4.63-2.09-3.54h0Z"/>
      <path class="cls-25" d="m200,215.41c10.86,2.41,2.76,19.19-6.51,14.83-.88-.41-1.69-.96-2.38-1.64-.43-.43,0-.11-.44.2.69-.48,1.75.05,2.28.54,1.63,1.5.98,4.52.55,6.34-.64,2.7-2.08,5.01-4.48,6.47-4.21,2.54-10.05,1.33-14.47.12-5.27-1.45-10.28-3.87-14.91-6.73-4.79-2.96-8.48-7.23-13.67-9.65-5.88-2.74-11.42-1.37-15.2,3.83-.5.68-.34,1.95.32,2.49,9.19,7.36,11.01-10.45,3.75-10.37-3.9.04-8.06,5.05-6.6,8.84,1.6,4.17,7.61,5.47,11.46,6.39,1.61.39,3.86.43,5.28,1.3,1.67,1.02,2.84,1.96,4.81,2.39,2.33.51,4.75.45,7.12.28,2.15-.16,4.27-.43,6.43-.47,2.21-.04,4.27.83,6.33,1.51,3.21,1.06,6.92,1.23,10.27,1.46,6.6.45,13.51.03,19.59-2.75,2.57-1.17,4.67-3.1,6.24-5.41.98-1.44,3.4-4.55,2.18-6.38-4.67-7.04-12.98-9.49-20.62-12.23-5.64-2.02-10.45-4.9-15.38-8.28-5.79-3.98-11.75-8.57-15.78-14.37-1.39-2-2.77-4.58-2.29-7.09.59-3.1,4.14-4.76,6.79-5.77,2.46-.94,1.39-4.91-1.1-3.96-4.28,1.64-8.82,4.2-9.75,9.06-.82,4.27,1.6,8.44,4.15,11.67,6.35,8.04,15.48,14.25,24.32,19.33,4.73,2.71,10.19,4.08,15.24,6.1,2.99,1.2,6.2,2.59,8.63,4.76.56.51,1.01,1.19,1.46,1.78,1.03,1.35,1.08-.83.42.01-1.13,1.45-1.6,3.2-2.84,4.6-4.53,5.1-13.39,5.13-19.63,4.91-3.26-.11-6.62-.4-9.81-1.12-1.91-.43-3.7-1.26-5.62-1.67-2.34-.51-4.81-.22-7.16,0-3.35.32-7.47,1.01-10.46-.86-1.49-.93-2.46-1.63-4.17-1.99-3.34-.7-6.79-1.33-9.89-2.8-.83-.39-2.61-1.21-2.37-2.37.16-.75,2.14-2.99,2.59-2.74.65.36.59,2.12.58,2.71-.04,1.5-.25,1.42-1.24.63.11.83.22,1.66.32,2.49,5.5-7.56,14.42.14,19.27,4.52,3.75,3.39,8.94,5.78,13.57,7.69,9.22,3.81,23.6,7.11,29.14-3.98,2.04-4.08,3.03-10.4-.72-13.84-2.13-1.95-6.55-2.49-8.28.3-2.39,3.85,2.95,6.91,5.84,8.05,4.68,1.85,9.79-.45,12.82-4.07,5.51-6.58,4.44-16.93-4.86-19-2.6-.58-3.7,3.38-1.1,3.95h0Z"/>
    </g>
  </g>
  <path class="cls-21" d="m99.22,211.67c4.61-7.85,23.98-40.34,3.21-38.23-11.42,1.16-18.42,15.91-28.85,18.74-6.01,1.63-15.42-.88-16.51,6.16-.78,5.04,6.95,11.35,10.56,14.07,12.01,9.04,23.09,13.71,31.58-.74Z"/>
  <path class="cls-5" d="m131.35,203.17c-.94-3.54,5.82-9.23,2.75-12.22-1.25-1.22-3.98.78-5.57.56-2.65-.36-4.3-3.26-7.23-2.82-4.13.62-4.24,6.41-4.32,9.45-.22,8.23-4.34,13.88-10.21,19.62-2.29,2.24-10.69,5.93-10.05,10.04,1.35,8.63,13.8-4.8,15.56-6.97,2.26-2.79,9-16.2,14.25-13.94,3.01,1.29,1.85,11.33,6.98,6.21,3.52-3.51-1.24-6.42-2.17-9.92Z"/>
  <path class="cls-31" d="m94.59,201.8c3.49-4.59,8.82-7.61,11.91-12.54,2.23-3.56,2.43-15.31-4.98-10.71-1.98,1.23-.96,2.3-1.56,4.19-1.78,5.61-3.81,9.78-7.69,14.43-3.45,4.14-6.45,7.17-12.06,6.94-3.23-.13-11.93-4.44-14.7-2.78-4.87,2.93,4.11,7.37,6.9,8.35,2.9,1.02,10.25,3.81,13.31,3.1,4.28-.99,6.46-7.82,8.85-10.97Z"/>
</svg>