<svg width="24" height="24" viewBox="0 0 24 24" fill="none" xmlns="http://www.w3.org/2000/svg">
<path d="M0.503525 0.484591C0.662733 0.330982 0.851865 0.20911 1.06009 0.125956C1.26831 0.0428015 1.49154 0 1.71698 0C1.94241 0 2.16564 0.0428015 2.37386 0.125956C2.58209 0.20911 2.77122 0.330982 2.93043 0.484591L12.0005 9.21685L21.0705 0.484591C21.2298 0.33123 21.419 0.209578 21.6272 0.12658C21.8354 0.0435822 22.0586 0.000863605 22.2839 0.000863605C22.5093 0.000863605 22.7324 0.0435822 22.9406 0.12658C23.1488 0.209578 23.338 0.33123 23.4974 0.484591C23.6567 0.637951 23.7831 0.820016 23.8694 1.02039C23.9556 1.22077 24 1.43553 24 1.65241C24 1.86929 23.9556 2.08406 23.8694 2.28443C23.7831 2.48481 23.6567 2.66687 23.4974 2.82023L14.4239 11.5492L23.4974 20.2781C23.6567 20.4315 23.7831 20.6136 23.8694 20.8139C23.9556 21.0143 24 21.2291 24 21.446C24 21.6628 23.9556 21.8776 23.8694 22.078C23.7831 22.2784 23.6567 22.4604 23.4974 22.6138C23.338 22.7671 23.1488 22.8888 22.9406 22.9718C22.7324 23.0548 22.5093 23.0975 22.2839 23.0975C22.0586 23.0975 21.8354 23.0548 21.6272 22.9718C21.419 22.8888 21.2298 22.7671 21.0705 22.6138L12.0005 13.8815L2.93043 22.6138C2.77107 22.7671 2.58189 22.8888 2.37369 22.9718C2.16549 23.0548 1.94233 23.0975 1.71698 23.0975C1.49162 23.0975 1.26846 23.0548 1.06026 22.9718C0.852056 22.8888 0.662878 22.7671 0.503525 22.6138C0.344173 22.4604 0.217767 22.2784 0.131526 22.078C0.0452851 21.8776 0.000897348 21.6628 0.000897348 21.446C0.000897348 21.2291 0.0452851 21.0143 0.131526 20.8139C0.217767 20.6136 0.344173 20.4315 0.503525 20.2781L9.57698 11.5492L0.503525 2.82023C0.343915 2.66701 0.21728 2.48499 0.130877 2.2846C0.0444739 2.0842 0 1.86937 0 1.65241C0 1.43545 0.0444739 1.22062 0.130877 1.02023C0.21728 0.819832 0.343915 0.637812 0.503525 0.484591Z" fill="#333333"/>
</svg>
