<svg width="79" height="56" viewBox="0 0 79 56" fill="none" xmlns="http://www.w3.org/2000/svg">
<path d="M38.4494 41.6994C37.5906 42.3774 36.1329 43.1571 34.63 43.53L34.5509 43.417C35.6696 42.7277 36.9126 41.4056 37.3759 40.6033L39.037 41.496C38.9692 41.6429 38.7997 41.722 38.4494 41.6994ZM40.9467 40.9649C45.4215 41.0553 45.252 43.7447 43.7943 43.3718C43.1502 42.5808 41.8281 41.5977 40.8676 41.0666L40.9467 40.9649ZM40.9241 38.7727C40.9015 38.9309 40.8111 39.0439 40.506 39.0891V43.5413C40.506 43.643 39.8958 43.8916 39.3421 43.8916H39.0935V38.6145L40.9241 38.7727ZM43.7039 38.9874C43.7039 38.9874 44.5288 39.6428 45.0147 40.0948C44.9921 40.2191 44.8678 40.2756 44.7096 40.2756H34.8786L34.7882 39.9592H42.9807L43.7039 38.9874ZM44.7774 33.4391C44.7661 33.6086 44.6531 33.699 44.3932 33.7442V37.88C44.3932 38.7275 44.2011 39.1682 42.7773 39.2812C42.7434 38.9309 42.6869 38.6597 42.5287 38.4902C42.3705 38.332 42.1445 38.1964 41.6247 38.1173V37.9591C41.6247 37.9591 42.6982 38.0269 42.9129 38.0269C43.0711 38.0269 43.1276 37.9817 43.1276 37.8461V33.2922L44.7774 33.4391ZM38.0652 36.4336C41.1162 36.6709 40.2687 38.8518 39.1048 38.1625C38.9353 37.5749 38.4042 36.9082 37.9748 36.5127L38.0652 36.4336ZM40.0314 34.3996C39.9071 34.5013 39.6585 34.49 39.3534 34.3657C38.2121 34.5465 36.4154 34.7047 34.9125 34.7386L34.8786 34.5804C36.2346 34.264 37.9974 33.6764 38.9127 33.2696L40.0314 34.3996ZM37.9522 35.8799C37.3533 37.2133 36.1781 38.2416 34.6187 38.9535L34.517 38.7953C35.4888 38.0043 36.1894 36.8517 36.551 35.6991H37.9522V35.8799ZM38.2121 39.1004C38.2121 39.1795 37.8166 39.4394 37.1951 39.4394H36.9691V34.3205L38.2121 34.0154V39.1004ZM39.2969 34.9307C39.2969 34.9307 39.9749 35.4392 40.4043 35.8121C40.3704 35.9364 40.2461 35.9929 40.0992 35.9929H34.743L34.6526 35.6652H38.7093L39.2969 34.9307ZM42.3931 34.0832C42.3818 34.2188 42.2914 34.3205 42.0202 34.3657V37.2698C42.0202 37.3602 41.4891 37.5523 41.0371 37.5523H40.8224V33.9363L42.3931 34.0832Z" fill="#333333"/>
<path d="M14.3498 20.9297H11.659V47.24H14.3498V20.9297Z" fill="#073763"/>
<path d="M26.5198 21.2109H17.902V47.2889H26.5198V21.2109Z" fill="#1F191A"/>
<path d="M64.5792 47.2383H67.27V20.928H64.5792V47.2383Z" fill="#073763"/>
<path d="M52.4991 47.2891H61.1169V21.2111H52.4991V47.2891Z" fill="#1F191A"/>
<path d="M78.9869 15.3049L78.6585 10.4922L76.7976 11.9579C73.9993 14.1621 69.9817 13.8673 67.535 11.2785L66.7918 10.4922H12.2081L11.465 11.2785C9.01828 13.8673 5.00064 14.1621 2.20237 11.9579L0.341452 10.4922L0.0130834 15.3049C-0.204814 18.4982 2.32686 21.2085 5.52765 21.2085H73.4723C76.6731 21.2085 79.2048 18.4982 78.9869 15.3049Z" fill="#CB4847"/>
<path d="M76.596 20.1016C75.9154 20.6585 75.049 20.906 73.9351 20.906H5.08738C3.9735 20.906 3.10717 20.6585 2.42646 20.1016C2.42646 20.1016 1.92934 22.7339 5.64432 22.7339H73.3782C77.0932 22.7339 76.596 20.1016 76.596 20.1016Z" fill="#1F191A"/>
<path d="M63.9874 5.72266H15.0356L12.2076 10.4938H66.8154L63.9874 5.72266Z" fill="#1F191A"/>
<path d="M67.4417 0C66.2727 0.956498 64.7848 1.38159 62.8718 1.38159H16.154C14.2411 1.38159 12.7532 0.956498 11.5841 0C11.5841 0 10.7304 4.52088 17.1106 4.52088H61.9154C68.2955 4.52088 67.4417 0 67.4417 0Z" fill="#CB4847"/>
<path d="M39.5011 30.8132C34.6276 30.8132 30.6628 26.8484 30.6628 21.975C30.6628 17.1016 34.6276 13.1367 39.5011 13.1367C44.3744 13.1367 48.3394 17.1016 48.3394 21.975C48.3394 26.8484 44.3744 30.8132 39.5011 30.8132Z" fill="white"/>
<path d="M39.4999 13.5844C44.1335 13.5844 47.8897 17.3407 47.8897 21.9742C47.8897 26.6078 44.1335 30.364 39.4999 30.364C34.8664 30.364 31.1101 26.6078 31.1101 21.9742C31.1101 17.3407 34.8664 13.5844 39.4999 13.5844ZM39.4999 12.6875C34.3792 12.6875 30.2132 16.8535 30.2132 21.9742C30.2132 27.0949 34.3792 31.2609 39.4999 31.2609C44.6206 31.2609 48.7866 27.0949 48.7866 21.9742C48.7866 16.8535 44.6206 12.6875 39.4999 12.6875Z" fill="#1F191A"/>
<path d="M46.8671 22.8081C47.3281 18.7375 44.4024 15.0637 40.3317 14.6025C36.2612 14.1413 32.5874 17.0674 32.1264 21.138C31.7805 24.1908 33.9749 26.946 37.028 27.292C43.8717 27.292 46.8671 22.8081 46.8671 22.8081Z" fill="#CB4847"/>
<path d="M32.1277 21.1403C31.8969 23.1755 33.3599 25.0123 35.3952 25.2428C37.4304 25.4735 39.2673 24.0105 39.4981 21.9752C39.7287 19.9398 41.5653 18.4769 43.6009 18.7075C45.636 18.9381 47.0991 20.775 46.8684 22.8104C46.4071 26.8808 42.7334 29.8068 38.6629 29.3456C34.5923 28.8846 31.6664 25.2108 32.1277 21.1403Z" fill="#073763"/>
<path d="M40.148 22.8257C40.0646 23.0099 39.5653 23.1429 39.7033 22.648V22.556L39.4763 22.0379L39.2095 22.4063C39.2331 22.4378 39.251 22.4735 39.2599 22.5131C39.2776 22.5843 39.3557 22.7991 39.0316 22.8667C38.8963 22.8949 38.5869 22.5904 38.9427 22.4063C39.0083 22.385 39.0473 22.3852 39.1206 22.4063L39.3874 22.0379H38.7648C38.6759 22.2221 38.3201 22.4063 38.2312 22.0379C38.2312 21.8537 38.4091 21.5038 38.7648 21.9458H39.3874L39.1206 21.5775C38.8538 21.5775 38.6759 21.3012 38.8538 21.1171C39.0715 20.9709 39.3874 21.025 39.2599 21.5207L39.4763 21.8537L39.7432 21.4854C39.5653 21.3012 39.6542 20.9329 40.01 21.025C40.2768 21.1171 40.1879 21.5775 39.8671 21.5207L39.5653 21.9458L40.148 21.8537C40.2339 21.7205 40.3657 21.5775 40.5436 21.7617C40.6159 21.8976 40.5741 22.3312 40.1705 22.0086L39.5653 22.0379L39.8321 22.4983C39.8321 22.4983 40.2584 22.5035 40.148 22.8257Z" fill="#EEB985"/>
<path fill-rule="evenodd" clip-rule="evenodd" d="M36.9462 17.5834C37.8356 18.0438 38.4582 19.5172 38.4582 19.8855C38.1617 19.2409 37.2842 17.9149 36.1457 17.7676C35.4935 17.7676 34.278 18.1912 34.6338 19.8855C33.8333 20.5301 33.2107 21.7272 34.6338 22.8322C35.0784 22.4639 36.2168 21.8193 37.213 22.1876C36.3115 22.2891 35.3452 22.648 34.7424 23.5689C34.3525 24.4192 34.5407 24.5881 35.0321 25.0291C35.126 25.1134 35.231 25.2076 35.3452 25.3185C35.2267 26.5463 35.7366 28.5967 38.725 26.976C38.4581 26.0859 38.1202 24.2503 38.9028 24.0293C38.5767 25.0115 38.5115 27.1418 40.8595 27.8048C41.0374 27.8048 41.4999 27.639 41.9268 26.976C42.668 27.1602 44.0614 26.8287 43.7056 24.0293C43.0534 24.06 41.6066 23.9004 41.0374 23.0164C41.3221 23.3441 42.4114 23.6033 42.9051 23.5689C43.5676 23.5113 44.85 23.0843 45.2176 22.3718C45.3362 22.1262 45.5378 21.4141 45.3955 20.5301C45.3065 20.3766 44.933 20.0329 44.1503 19.8855C44.18 19.3023 43.9013 18.1912 42.5494 18.4122C42.2826 19.0568 41.571 20.3828 40.8595 20.5301C41.5414 19.7934 42.6561 18.007 41.66 16.7547C41.2746 16.2942 40.2547 15.6497 39.2586 16.7547C38.8436 16.2022 37.8001 15.5944 36.9462 17.5834ZM39.7033 22.648C39.5653 23.1429 40.0646 23.0099 40.148 22.8257C40.2584 22.5035 39.8321 22.4983 39.8321 22.4983L39.5653 22.0379L40.1705 22.0086C40.5741 22.3312 40.6159 21.8976 40.5436 21.7617C40.3657 21.5775 40.2339 21.7205 40.148 21.8537L39.5653 21.9458L39.8671 21.5207C40.1879 21.5775 40.2768 21.1171 40.01 21.025C39.6542 20.9329 39.5653 21.3012 39.7432 21.4854L39.4763 21.8537L39.2599 21.5207C39.3874 21.025 39.0715 20.9709 38.8538 21.1171C38.6759 21.3012 38.8538 21.5775 39.1206 21.5775L39.3874 21.9458H38.7648C38.4091 21.5038 38.2312 21.8537 38.2312 22.0379C38.3201 22.4063 38.6759 22.2221 38.7648 22.0379H39.3874L39.1206 22.4063C39.0473 22.3852 39.0083 22.385 38.9427 22.4063C38.5869 22.5904 38.8963 22.8949 39.0316 22.8667C39.3557 22.7991 39.2776 22.5843 39.2599 22.5131C39.251 22.4735 39.2331 22.4378 39.2095 22.4063L39.4763 22.0379L39.7033 22.556V22.648Z" fill="#F6F1ED"/>
<path d="M77.0358 46.9297C79.3584 47.1173 78.8929 48.8056 78.8929 49.9781C78.8929 51.1506 77.0358 51.1153 77.0358 51.1153L1.79413 49.7436V47.1642L77.0358 46.9297Z" fill="#7A625B" stroke="#7A625B" stroke-width="0.0185368"/>
<path d="M3.68853 55.6016C1.36595 55.4006 1.83138 53.5916 1.83138 52.3354C1.83138 51.0792 3.68853 51.117 3.68853 51.117L78.9302 52.5866V55.3503L3.68853 55.6016Z" fill="#7A625B"/>
</svg>
