<svg width="36" height="36" viewBox="0 0 36 36" fill="none" xmlns="http://www.w3.org/2000/svg">
<rect x="0.5" y="0.5" width="35" height="35" stroke="#C4C4C4"/>
<path d="M22.1831 8.73322L20.2904 10.6259L25.3741 15.7096L27.2668 13.8169C28.2444 12.8392 28.2444 11.2555 27.2668 10.2779L25.726 8.73322C24.7484 7.75559 23.1647 7.75559 22.187 8.73322H22.1831ZM19.4067 11.5097L10.2913 20.629C9.88459 21.0357 9.58739 21.5401 9.42315 22.0915L8.03883 26.7958C7.94107 27.1282 8.03101 27.4841 8.27346 27.7265C8.51592 27.969 8.87177 28.0589 9.20025 27.9651L13.9046 26.5808C14.456 26.4165 14.9604 26.1193 15.3671 25.7126L24.4903 16.5933L19.4067 11.5097Z" fill="#333333"/>
</svg>
