<?xml version="1.0" encoding="UTF-8"?>
<svg xmlns="http://www.w3.org/2000/svg" viewBox="0 0 258.29 128.69">
  <defs>
    <style>
      .cls-1 {
        fill: #bcb3a6;
        mix-blend-mode: multiply;
      }

      .cls-1, .cls-2, .cls-3, .cls-4, .cls-5, .cls-6, .cls-7, .cls-8, .cls-9, .cls-10 {
        stroke-width: 0px;
      }

      .cls-2 {
        fill: #ededed;
        opacity: .94;
      }

      .cls-11 {
        isolation: isolate;
      }

      .cls-3 {
        fill: #f7f9f8;
      }

      .cls-4 {
        fill: #d1d1d1;
      }

      .cls-5 {
        fill: #ddd;
      }

      .cls-6 {
        fill: #cc510d;
      }

      .cls-7 {
        fill: #dd4e73;
      }

      .cls-8, .cls-10 {
        fill: #fff;
      }

      .cls-9 {
        fill: #e8e3da;
      }

      .cls-10 {
        opacity: .68;
      }
    </style>
  </defs>
  <g class="cls-11">
    <g id="Layer_1" data-name="Layer 1">
      <g>
        <g>
          <ellipse class="cls-6" cx="137.07" cy="75.43" rx="121.22" ry="53.25"/>
          <g>
            <path class="cls-9" d="m240.58,55.09v.45c0,39.26-53.86,71.09-120.29,71.09S0,94.8,0,55.54v-.45c0-.16,0-.31,0-.47,0-.2,0-.41.02-.62,0-.07,0-.14,0-.21C1.69,26.66,54.89,4.89,120.29,4.89s118.6,21.77,120.25,48.9c0,.07,0,.14,0,.21,0,.2,0,.41.02.62,0,.16,0,.31,0,.47Z"/>
            <path class="cls-8" d="m240.58,55.09v.18c-.24,27.64-54,50.02-120.29,50.02S.24,82.91,0,55.27v-.18c0-.16,0-.31,0-.47,0-.2,0-.41.02-.62,0-.07,0-.14,0-.21C1.69,26.66,54.89,4.89,120.29,4.89s118.6,21.77,120.25,48.9c0,.07,0,.14,0,.21,0,.2.02.41.02.62,0,.16,0,.31,0,.47Z"/>
            <path class="cls-5" d="m225.97,54.14c0,19.54-30.01,36.16-71.9,42.31-11.21,1.65-23.27,2.54-35.83,2.54-59.5,0-107.73-20.08-107.73-44.85S58.74,9.29,118.24,9.29c13.97,0,27.32,1.11,39.58,3.13,39.92,6.56,68.15,22.77,68.15,41.73Z"/>
            <path class="cls-4" d="m225.97,54.14c0,19.54-30.01,36.16-71.9,42.31,7.4-4.45,15.89-7.8,23.19-12.34,6.66-4.13,21.15-17.99,23.35-19.74s2.65-4.54,2.56-6.92c-.39-10.31-6.24-19.88-15.9-27.03-9.06-6.71-19.92-11.74-29.46-18,39.92,6.56,68.15,22.77,68.15,41.73Z"/>
            <ellipse class="cls-2" cx="118.24" cy="64.49" rx="84.86" ry="36.4"/>
            <path class="cls-5" d="m76.91,94.22c-13.94-2.76-26.55-8.98-35.3-17.41-2.33-2.24-4.42-4.68-5.5-7.38-2.39-5.99.52-12.57,5.53-17.62-3.38,8.72-.02,17.83,6.64,25.47,6.66,7.64,17.49,13.02,28.64,16.93Z"/>
            <path class="cls-3" d="m197.01,60.74c-14.58-14.94-46.52-24.51-70.54-27.91,39.77,0,63.55,11.83,70.54,27.91Z"/>
          </g>
        </g>
        <path class="cls-1" d="m200.01,76.32c-.18-1.59-1.83-2.99-3.55-4.26-2.09-1.54-4.77-3.1-8.09-3.48.53-1.58.61-3.32-1.36-4.45-1.25-.72-3.1-1.04-4.66-1.53.13-.58.12-1.15-.14-1.72-.43-.92-1.39-1.64-2.64-2.26.05-.26.11-.52.16-.77.24-1.27-.17-2.84-2.28-3.35-1.84-.45-3.92.17-5.92.21-.97.02-1.9-.1-2.77-.32-.59-.39-1.09-.82-1.42-1.3-1.51-2.19.62-4.59.72-6.93.16-3.66-4.9-6.94-11.01-8.3s-13.01-1.14-19.45-.39c-9.58,1.11-18.72,3.33-26.72,6.45-2.73-.01-5.63-.48-7.67.46-2.16.99-1.79,2.9-3.18,4.25-.57.56-1.42.99-2.39,1.33-.18-.3-.36-.59-.56-.88-1.9-2.75-5.43-5.42-10.75-5.79-4.27-.29-8.83,1.04-11.78,3.01-2.96,1.96-4.47,4.45-5.16,6.9-.71,2.59-.57,5.24-2.04,7.77-1.52,2.62-4.81,4.98-8.97,6.54-.33-.02-.65-.03-.98-.06.16.08.31.16.47.24-1.14.4-2.34.75-3.58,1.02-6.03,1.32-12.9.95-17.84-.97.42.4.84.79,1.26,1.19,4.1,3.91,7.84,7.93,12.41,11.67.58.46,1.2.96,2.18,1.15.57-.16,1.15-.33,1.73-.52,5.19-1.59,10.13-3.74,12.91-6.64.45-.47.84-.96,1.2-1.45.64.35,1.29.7,1.93,1.04-.45.68-.8,1.38-1.03,2.08-.75,2.39-.13,4.81,1.67,6.88.92,1.08,2.15,2.05,3.66,2.87,2.1,1.14,4.85,2.06,7.78,2.62t.04,0c2.1.4,4.31.62,6.49.6,5.24-.06,10.6-1.41,14.43-3.62,2.77-1.62,4.7-3.62,7.31-5.31.04.05.06.11.11.16,1.93,2.23,13.52,2.54,13.43-.21-.03-.79-.08-1.58-.15-2.38,2.84,2.14,3.71,5.16,1.8,7.83-2.12,2.96-7.77,5.21-13.22,5.05-2.26-.08-4.39-.52-6.67-.44-2.27.07-4.88.96-5.04,2.23.13.11.26.22.39.33,1.91,1.62,3.91,2.95,3.57,4.99.01.02,0,.04,0,.06-.58.18-1.18.38-1.74.57,5.68.57,12.44.95,16.91-1.41,1.51-.8,2.53-1.81,3.91-2.68,1.27-.79,2.79-1.44,4.36-2.05,2.63.06,5.53.07,8.06.07,2.88.48,5.77.94,8.71,1.3.74.09,1.54.18,2.25.03.17-.23.34-.46.5-.7.11-.15.2-.31.3-.47,9.36.21,19.02.02,27.1-2.09-.3.64-.49,1.28-.48,1.93.58-.04,1.14.06,1.7.2,1,.28,1.98.72,3.04.83,1.7.18,3.44-.15,4.85-.72.17-.06.34-.13.5-.2,1.5-.68,1.83-.39,2.23-1.43.45-1.15.88-2.33,1.24-3.52,1.02.22,1.95.54,2.73,1.07.03,0,.04.02.05.03-.16.24-.32.49-.46.73,3.68-1.15,7.8-2.67,8.15-5.01.12-.79-.22-1.56-.24-2.35-.03-1.94,1.92-3.78,1.68-5.71Zm-46.99-28.79c2.17,1.02,3.47,2.52,4.08,4.06.58,1.47.68,3.11,2.47,4.24.36.23.77.41,1.19.57.63.75,1.56,1.41,2.66,2-2.69-.11-5.62.67-8.43.55-3.01-.12-5.56-1.27-7.52-2.54-1.96-1.26-3.56-2.71-5.81-3.8-.5-.87-.85-1.77-1.02-2.68-.09-.46-.09-.88-.15-1.25,1.22-.93,2.66-1.73,4.58-2.11,2.68-.53,5.79-.06,7.95.96Zm20.6,15.02c.88.87.38,1.84-.13,2.84-.67-.28-1.29-.59-1.81-.95-1.61-1.14-2.22-2.74-3.37-4.02.89.31,1.8.6,2.68.88,1.01.33,2.06.68,2.64,1.25Zm-5.62,23.07s-.03,0-.04.01c-.13.08-.26.16-.39.24-.68.44-1.29.91-1.81,1.41-1,.32-2.12.51-3.26.44-2.55-.14-4.46-1.52-4.8-2.93-.33-1.42.58-2.83,1.74-4.11.78-.86,1.67-1.69,2.43-2.56,2.81.88,5.75,1.69,7.87,3.03.48.3.89.64,1.24,1-.32.91-.74,1.79-1.39,2.6-.55.28-1.08.56-1.58.86Zm-43.78-39.02c1.09-.4,2.21-.79,3.34-1.17,2.46.38,5.01.82,6.93,1.71-.58.42-1.13.85-1.65,1.28-.82.67-1.61,1.35-2.4,2.04-.98,0-1.96.05-2.94.12-1.83-1.19-4.21-2.07-6.83-2.62,1.17-.47,2.35-.92,3.55-1.36Zm13.84,4.2c.1.2.21.4.32.6-.25-.07-.5-.13-.76-.19.15-.14.29-.27.44-.41Zm-6.68,14.78s-.02,0-.03.01c-.31-.18-.63-.36-.98-.52-1.19-.56-2.55-.98-4.01-1.29,1.08-1.78,2.42-3.52,3.92-5.22,1.03.52,1.97,1.1,2.81,1.72,2.02,1.49,3.7,3.3,6.8,4.03,4.14.97,9.85-.26,12.86,1.6,1.29.79,1.5,1.79,1.39,2.86-.35-.05-.71-.09-1.06-.15-3.76-.58-6.97-1.91-10.5-2.83-3.54-.91-7.91-1.37-11.21-.21Zm40.83,4.86c.28.06.52.14.76.22-3.62-.59-7.51-.81-11.26-.74-.18-1.82.06-3.8-.55-5.57,2.6.79,4.71,2.09,5.25,3.69.17.49.21,1.02.74,1.42,1.06.83,3.35.62,5.06.99Zm-59.16-15.65c-2.86,1.54-5.31,3.33-7.55,5.2-.42-.43-.9-.84-1.39-1.25,1.09-1.28,2.28-2.52,3.68-3.7,1.73-.19,3.49-.27,5.26-.26Zm-9.54,20.24c.11-.08.21-.16.32-.24,2.54-.29,5.09-.55,7.66-.78-.21.38-.42.75-.61,1.14-1.87.54-3.69,1.15-5.44,1.82-.64-.65-1.29-1.29-1.93-1.94Zm-25.83-18.86c.78-.6,1.75-1.18,2.98-1.43.27-.06.54-.09.8-.11-1.19,1.07-1.98,2.32-2.33,3.59-3.38,2.29-5.28,5.3-6.66,8.22-.14.29-.27.58-.39.87-.36.03-.72.05-1.08.08,1.39-3.95,2.36-7.95,6.69-11.22Zm0,21.91c.4.19.81.39,1.22.58.42.19.84.39,1.26.58.5-.14,1-.27,1.51-.41,2.27.58,4.69,1.04,7.01,1.45.48-.42.8-.86,1.03-1.31,1.44.71,2.81,1.45,4.11,2.11.03.01.07.03.09.05.28.13.59.26.95.25.45-.01.76-.23,1.03-.44.07-.05.13-.1.2-.16.04.08.07.17.1.25-3.72,1.59-7.61,2.9-11.99,3-2.28.04-4.59-.31-6.06-1.21-1.93-1.2-1.84-3.14-.46-4.74Zm107.72-2.66c-.13-.11-.27-.2-.4-.31.24-.37.47-.74.69-1.12,2.59.59,4.8,1.7,5.85,3.15,1.46,2,.4,4.52-2.64,5.84.06-2.71-.82-5.32-3.5-7.56Zm-5.13-8.84c.83.84,1.28,1.75,1.46,2.69-.58-.51-1.23-1-2-1.42.1-.43.28-.86.51-1.29,0,0,.02.01.02.02Zm-35.76-24.21c.49,0,.99.02,1.48.05-3.46.33-6.46,1.55-9.02,3.07-.89-.69-1.89-1.32-3.02-1.88,3.38-.78,6.91-1.27,10.56-1.24Zm4.77,46.01c-.02-.67-.15-1.34-.47-1.99-1.21-2.45-4.14-4.54-6.63-6.7.69.12,1.42.19,2.12.22,1.74.08,3.47,0,5.18-.16-1.18,2.33-.46,4.95,2.01,6.96.72.58,1.59,1.11,2.56,1.57l-4.77.11Z"/>
        <g>
          <path class="cls-10" d="m132.85,18.42c3.68-4.79,8.72-9.84,15.26-9.71,6.06.12,10.82,4.81,13.29,9.72,1.1,2.19,1.92,4.51,3.45,6.49s3.97,3.62,6.67,3.53c2.01-.07,4.08-1.05,5.92-.34,2.11.81,2.51,3.31,2.28,5.34-.24,2.03-.75,4.26.52,5.97,1.52,2.03,4.86,2.3,6.77,4.05,2.21,2.02,1.84,5.27,1.15,8.01-2.11,8.36-5.84,16.4-10.99,23.65-.65-4.72,1.46-9.34,3.06-13.88s2.63-9.7.05-13.87c-1.45-2.35-3.91-4.11-5.47-6.41s-1.91-5.71.52-7.32c-4.84-2.37-12.09.26-15.75-3.42-1.79-1.8-1.89-4.42-2.47-6.76-.61-2.46-1.91-4.85-4.08-6.48-2.17-1.63-5.28-2.38-7.95-1.53-2.97.94-4.81,3.5-6.43,5.89-6.7,9.91-13.56,20.24-14.84,31.74-.6,5.33.04,10.71.16,16.07.1,4.38-11.49,3.9-13.43.33-2.28-4.21,2.01-12.62,3.45-16.7,4.33-12.2,10.74-23.8,18.86-34.37Z"/>
          <path class="cls-10" d="m142.61,88.56c13.37.72,28.16,1.06,38.5-6.49,3.27-2.38,5.95-5.62,6.59-9.32s-1.18-7.87-4.95-9.58c-5.34-2.43-12.65.46-17.43-2.74-5.65-3.78-2.53-11.76-4.46-17.79-1.6-4.98-7.35-8.65-13.19-8.4-2.26.1-4.5.71-6.74.44-6.7-.8-8.99-8.18-13.35-12.76-5.35-5.63-15.54-7.02-22.55-3.09-2.97,1.67-5.31,4.09-8.22,5.84-4.4,2.65-9.9,3.63-14.18,6.42-5.69,3.71-8.34,10.01-10.15,16.06-1.17,3.94-2.09,8.21-.38,12,2.57,5.71,9.98,8.19,16.59,10.05,3.1-4.31.34-9.87-.57-14.92-1.76-9.75,4.75-20.2,15.01-24.07,10.26-3.87,23.27-.78,29.98,7.11,2.02,2.38,3.7,5.27,6.8,6.43,4.14,1.55,9.85-.41,12.86,2.55,3.04,2.99.13,7.77.99,11.73.69,3.18,3.79,5.5,6.94,7.15,3.15,1.66,6.62,3,9.05,5.43s3.38,6.45.91,8.84c-1.91,1.84-5.04,2.07-7.86,2.17-8.75.32-17.5.65-26.26.97-2.25.08-19.08-.06-16.3,4.54,1.16,1.92,19.52,1.27,22.38,1.42Z"/>
          <path class="cls-10" d="m181.45,60.08c1.32-.76,1.38-2.5.78-3.79s-1.66-2.39-2.19-3.7c-1.85-4.62,3.55-9.56,2.17-14.31-1.75-6-12.38-6.63-14.88-12.41-1.51-3.48.62-7.32.72-11.05.16-5.83-4.9-11.06-11.01-13.24-6.11-2.18-13.01-1.82-19.45-.63-10.4,1.91-20.3,5.9-28.77,11.59-10.72,7.19-19.87,16.01-24.32,27.25-.64,1.62-1.2,3.36-.79,5.04,1.12,4.57,8.35,6,10.19,10.38,5.98-8.84,8.2-19.51,15.13-27.78,4.05-4.84,9.52-8.6,15.2-11.91,6.12-3.58,12.96-6.81,20.29-6.73,7.33.08,15.06,4.56,15.76,11.03.35,3.2-1,6.47-.19,9.6,1.18,4.55,6.35,7.21,10.91,9.54,1.01.52,2.06,1.09,2.64,1.99,1.44,2.26-.82,4.99-.74,7.59.09,2.86,2.93,4.93,5.19,6.97s5.23,2.24,3.37,4.57Z"/>
          <g>
            <path class="cls-10" d="m198.33,72.01c.01,1.26.35,2.49.24,3.75-.35,3.73-4.47,6.15-8.15,7.99.14-.38.3-.78.46-1.16-.01-.01-.03-.03-.05-.05-1.66-1.79-3.97-2.06-6.49-2.6-.17-.03-.34-.07-.51-.1-1.05-1.09-.39-2.86.8-3.84,1.2-.99,2.79-1.49,4.11-2.34,3.18-2.07,4.3-6.18,2.81-9.43s-5.26-5.47-9.2-5.75c-.71-.06-1.47-.03-2.05.33-.59.37-.85,1.02-1.06,1.65-.54,1.54-.96,3.12-1.03,4.73-.11,2.7.82,5.37.72,8.07-.13,3.34-1.91,6.6-4.77,8.77-1.2.9-2.62,1.62-4.15,2.14t-.03.01c-2.14.73-4.51,1.09-6.7,1.02-1.58-.05-3.14-.34-4.63-.84-2.87-.94-5.4-2.66-7.14-4.89-2.62-3.4-3.3-7.91-1.79-11.79.85-2.19,2.39-4.43,1.7-6.66-.78-2.5-3.93-3.7-6.72-4.47-2.14-.58-5-.91-6.13.8-.46.7-.47,1.56-.37,2.36.87,7.16,8.48,12.31,10.62,19.25,1.06,3.47.25,7.21-1.21,10.6-.16.38-.33.76-.5,1.12-.71.24-1.51.09-2.25-.05-5.92-1.18-11.63-2.92-17.44-4.43-.59-.15-1.18-.3-1.77-.45,4.48-.44,8.65-2.92,10.82-6.43,2.17-3.52,2.27-7.97.29-11.55-1.47-2.64-3.93-4.73-5.88-7.12-1.83-2.26-3.23-4.89-3.35-7.67-.13-2.78,1.21-5.71,3.85-7.2,3.3-1.85,7.68-1.12,11.21.34,3.54,1.47,6.74,3.59,10.5,4.52,1.67.42,3.43.59,5.01,1.22,4.75,1.9,6.39,7.54,4.72,11.91-.82,2.15-2.23,4.08-3.39,6.1-1.16,2.04-2.06,4.29-1.74,6.55.34,2.25,2.25,4.45,4.8,4.67,1.63.14,3.23-.51,4.47-1.47,3.96-3.1,4.05-8.41,5.11-12.99.92-3.92,2.79-7.66,5.42-10.91,2.31-2.83,5.68-5.45,9.62-5.31,3.9.14,6.99,2.93,9.35,5.69,1.72,2.03,3.37,4.26,3.55,6.79.24,3.09-1.71,6.02-1.68,9.11Z"/>
            <path class="cls-7" d="m198.33,72.01c.01,1.26.35,2.49.24,3.75-.35,3.73-4.47,6.15-8.15,7.99.14-.38.3-.78.46-1.16-.01-.01-.03-.03-.05-.05,3.15-2.33,5.97-5.33,6.3-8.92.11-1.26-.11-2.53.07-3.79.2-1.5.93-2.93,1.14-4.44.28-1.94-.32-3.91-1.2-5.73-1.8-3.75-5.35-7.3-9.95-7.57-3.76-.23-7.34,1.85-9.49,4.6-2.16,2.74-3.13,6.06-3.92,9.32-.78,3.27-1.41,6.62-3.01,9.64-1.16,2.2-2.93,4.27-5.43,5.28-2.5,1-5.81.65-7.51-1.26-1.81-2.07-1.25-5.04-.41-7.56.71-2.15,1.54-4.26,2.5-6.34.83-1.79,1.76-3.6,2.08-5.53.3-1.92-.11-4.06-1.64-5.45-.97-.86-2.26-1.36-3.52-1.84-4.77-1.81-9.54-3.61-14.32-5.4-2.31-.87-4.69-1.76-7.2-1.81-2.51-.05-5.22.97-6.28,2.98-1.31,2.47.22,5.35,1.72,7.74,2.22,3.56,4.46,7.12,6.68,10.68.96,1.54,1.93,3.12,2.16,4.86.29,2.4-.91,4.74-2.33,6.79-2.31,3.31-5.71,6.42-9.83,7.41-.59-.15-1.18-.3-1.77-.45,4.48-.44,8.65-2.92,10.82-6.43,2.17-3.52,2.27-7.97.29-11.55-1.47-2.64-3.93-4.73-5.88-7.12-1.83-2.26-3.23-4.89-3.35-7.67-.13-2.78,1.21-5.71,3.85-7.2,3.3-1.85,7.68-1.12,11.21.34,3.54,1.47,6.74,3.59,10.5,4.52,1.67.42,3.43.59,5.01,1.22,4.75,1.9,6.39,7.54,4.72,11.91-.82,2.15-2.23,4.08-3.39,6.1-1.16,2.04-2.06,4.29-1.74,6.55.34,2.25,2.25,4.45,4.8,4.67,1.63.14,3.23-.51,4.47-1.47,3.96-3.1,4.05-8.41,5.11-12.99.92-3.92,2.79-7.66,5.42-10.91,2.31-2.83,5.68-5.45,9.62-5.31,3.9.14,6.99,2.93,9.35,5.69,1.72,2.03,3.37,4.26,3.55,6.79.24,3.09-1.71,6.02-1.68,9.11Z"/>
            <path class="cls-7" d="m158.64,84.35c-2.87-.94-5.4-2.66-7.14-4.89-2.62-3.4-3.3-7.91-1.79-11.79.85-2.19,2.39-4.43,1.7-6.66-.78-2.5-3.93-3.7-6.72-4.47-2.14-.58-5-.91-6.13.8-.46.7-.47,1.56-.37,2.36.87,7.16,8.48,12.31,10.62,19.25,1.06,3.47.25,7.21-1.21,10.6-.17-.59-.17-1.25-.11-1.89.21-2.15.46-4.25.26-6.43-.24-2.5-.88-5-2.13-7.26-2-3.65-5.38-6.55-7.62-10.07-.75-1.19-1.38-2.47-1.52-3.83-.16-1.35.21-2.8,1.24-3.81,1.17-1.15,3.05-1.58,4.78-1.44,1.75.15,3.38.83,4.89,1.6,1.47.76,2.93,1.65,3.8,2.96,1.47,2.18.99,4.95.13,7.37-.6,1.71-1.38,3.41-1.42,5.21-.04,1.42.39,2.82,1,4.13,1.55,3.37,4.3,6.28,7.73,8.26Z"/>
            <path class="cls-7" d="m193.49,67.56c-.04.99-.41,1.94-.91,2.84-.95,1.71-2.38,3.21-4.11,4.34-1.29.84-2.81,1.53-3.55,2.78-.45.73-.54,1.56-.59,2.41-.17-.03-.34-.07-.51-.1-1.05-1.09-.39-2.86.8-3.84,1.2-.99,2.79-1.49,4.11-2.34,3.18-2.07,4.3-6.18,2.81-9.43s-5.26-5.47-9.2-5.75c-.71-.06-1.47-.03-2.05.33-.59.37-.85,1.02-1.06,1.65-.54,1.54-.96,3.12-1.03,4.73-.11,2.7.82,5.37.72,8.07-.13,3.34-1.91,6.6-4.77,8.77-1.2.9-2.62,1.62-4.15,2.14,4.5-3.34,8.04-4.65,8.3-9.87.11-2.01-1.05-7.86-.94-9.88.12-2.01.55-4.12,1.97-5.7s6.1-1.12,7.89.1c2.3,1.56,4.47,3.39,5.55,5.77.43.95.76,1.96.72,2.98Z"/>
          </g>
          <g>
            <path class="cls-10" d="m123.73,91.7c-1.38,1.38-2.4,2.99-3.91,4.27-4.47,3.78-11.23,3.16-16.91,2.26.57-.3,1.16-.61,1.74-.9,0-.02.01-.06,0-.09.34-3.26-1.66-5.38-3.57-7.96-.13-.17-.26-.35-.39-.52.17-2.02,2.78-3.43,5.04-3.55,2.28-.13,4.41.58,6.67.7,5.45.26,11.1-3.33,13.22-8.05,2.12-4.71.83-10.11-2.77-13.54-.64-.62-1.42-1.2-2.39-1.27-1-.06-1.98.44-2.88.96-2.23,1.25-4.4,2.64-6.24,4.34-3.09,2.86-5.13,6.49-8.2,9.36-3.82,3.53-9.19,5.68-14.43,5.78-2.18.03-4.38-.31-6.49-.95t-.04,0c-2.94-.89-5.68-2.37-7.78-4.18-1.51-1.3-2.74-2.85-3.66-4.57-1.8-3.29-2.42-7.16-1.67-10.97,1.16-5.77,5.47-11.22,11.25-14.24,3.27-1.71,7.26-2.93,9.04-5.91,2-3.34.19-7.14-1.72-10.18-1.48-2.33-3.95-4.94-6.96-3.97-1.23.4-2.19,1.32-2.98,2.28-7.06,8.48-5.2,20.1-10.74,29.35-2.78,4.62-7.72,8.05-12.91,10.58-.58.29-1.16.56-1.73.82-.97-.29-1.6-1.09-2.18-1.83-4.57-5.96-8.31-12.38-12.41-18.61-.42-.63-.84-1.26-1.26-1.9,4.94,3.06,11.81,3.65,17.84,1.55,6.04-2.11,11.06-6.87,13.06-12.35,1.46-4.04,1.33-8.25,2.04-12.39.68-3.9,2.2-7.88,5.16-11,2.95-3.13,7.51-5.26,11.78-4.79,5.32.59,8.85,4.85,10.75,9.23,1.89,4.39,2.72,9.24,5.42,13.22,1.19,1.78,2.75,3.36,3.62,5.29,2.61,5.82-1.99,13.25-8.49,16.7-3.19,1.7-6.72,2.67-10.11,3.96-3.4,1.3-6.78,3.03-8.95,5.75-2.15,2.72-2.69,6.62-.4,8.88,1.46,1.44,3.77,2,6.06,1.94,7.35-.24,13.31-5.95,19.42-10.09,5.25-3.55,11.23-6.14,17.43-7.6,5.42-1.25,11.66-1.44,15.41,1.82,3.72,3.24,3.69,8.72,2.98,13.59-.53,3.57-1.37,7.3-3.98,10.2-3.18,3.55-8.35,5.2-11.73,8.58Z"/>
            <path class="cls-7" d="m123.73,91.7c-1.38,1.38-2.4,2.99-3.91,4.27-4.47,3.78-11.23,3.16-16.91,2.26.57-.3,1.16-.61,1.74-.9,0-.02.01-.06,0-.09,5.7-.04,11.81-1.09,16.11-4.73,1.49-1.29,2.69-2.83,4.25-4.07,1.86-1.48,4.17-2.46,6.04-3.93,2.42-1.9,4.01-4.51,5.15-7.18,2.36-5.51,2.76-12.18-1.5-16.11-3.47-3.23-9.32-3.78-14.5-2.49-5.16,1.28-9.8,4.12-14.18,7.05-4.39,2.95-8.71,6.09-13.64,8.12-3.58,1.48-7.63,2.34-11.22,1.45-3.58-.88-6.48-3.88-6.05-7.3.49-3.69,4.33-6.48,7.95-8.55,3.09-1.78,6.24-3.42,9.48-4.92,2.8-1.3,5.72-2.53,8.17-4.38,2.42-1.85,4.39-4.51,4.39-7.23-.01-1.71-.74-3.27-1.46-4.79-2.74-5.74-5.48-11.47-8.23-17.2-1.33-2.78-2.71-5.62-5.15-7.66-2.44-2.04-6.24-3.07-9.53-1.72-4.03,1.65-5.69,6-6.85,9.79-1.74,5.64-3.44,11.27-5.18,16.9-.75,2.43-1.53,4.93-3.23,6.99-2.36,2.84-6.14,4.44-9.81,5.55-5.95,1.77-12.75,2.48-17.94.29-.42-.63-.84-1.26-1.26-1.9,4.94,3.06,11.81,3.65,17.84,1.55,6.04-2.11,11.06-6.87,13.06-12.35,1.46-4.04,1.33-8.25,2.04-12.39.68-3.9,2.2-7.88,5.16-11,2.95-3.13,7.51-5.26,11.78-4.79,5.32.59,8.85,4.85,10.75,9.23,1.89,4.39,2.72,9.24,5.42,13.22,1.19,1.78,2.75,3.36,3.62,5.29,2.61,5.82-1.99,13.25-8.49,16.7-3.19,1.7-6.72,2.67-10.11,3.96-3.4,1.3-6.78,3.03-8.95,5.75-2.15,2.72-2.69,6.62-.4,8.88,1.46,1.44,3.77,2,6.06,1.94,7.35-.24,13.31-5.95,19.42-10.09,5.25-3.55,11.23-6.14,17.43-7.6,5.42-1.25,11.66-1.44,15.41,1.82,3.72,3.24,3.69,8.72,2.98,13.59-.53,3.57-1.37,7.3-3.98,10.2-3.18,3.55-8.35,5.2-11.73,8.58Z"/>
            <path class="cls-7" d="m70.72,73.77c-1.8-3.29-2.42-7.16-1.67-10.97,1.16-5.77,5.47-11.22,11.25-14.24,3.27-1.71,7.26-2.93,9.04-5.91,2-3.34.19-7.14-1.72-10.18-1.48-2.33-3.95-4.94-6.96-3.97-1.23.4-2.19,1.32-2.98,2.28-7.06,8.48-5.2,20.1-10.74,29.35-2.78,4.62-7.72,8.05-12.91,10.58.49-.78,1.21-1.49,1.98-2.14,2.59-2.18,5.15-4.26,7.37-6.79,2.53-2.91,4.65-6.14,5.91-9.58,2.05-5.55,1.9-11.37,3.57-16.99.57-1.89,1.36-3.78,2.72-5.38,1.34-1.6,3.3-2.88,5.43-3.17,2.43-.33,4.78.69,6.34,2.21,1.57,1.55,2.44,3.57,3.09,5.6.62,1.99,1.08,4.12.5,6.22-.95,3.53-4.49,6.17-8.02,8.13-2.49,1.39-5.14,2.62-7.16,4.55-1.61,1.52-2.72,3.38-3.58,5.29-2.18,4.89-2.67,10.23-1.46,15.1Z"/>
            <path class="cls-7" d="m123.85,83.03c-1.13,1.05-2.55,1.8-4.04,2.38-2.83,1.12-5.91,1.62-8.88,1.48-2.2-.11-4.48-.56-6.6.22-1.25.45-2.26,1.27-3.25,2.16-.13-.17-.26-.35-.39-.52.17-2.02,2.78-3.43,5.04-3.55,2.28-.13,4.41.58,6.67.7,5.45.26,11.1-3.33,13.22-8.05,2.12-4.71.83-10.11-2.77-13.54-.64-.62-1.42-1.2-2.39-1.27-1-.06-1.98.44-2.88.96-2.23,1.25-4.4,2.64-6.24,4.34-3.09,2.86-5.13,6.49-8.2,9.36-3.82,3.53-9.19,5.68-14.43,5.78-2.18.03-4.38-.31-6.49-.95,8.15-.09,13.12,1.29,19.15-4.18,2.33-2.11,7.65-9.39,9.98-11.5,2.34-2.1,5.11-4.05,8.25-4.64s7.29,3.6,7.71,6.35c.56,3.52.69,7.22-.87,10.66-.63,1.38-1.41,2.73-2.58,3.82Z"/>
          </g>
          <g>
            <path class="cls-10" d="m184.3,60.31c-.16,4.51-2.33,8.84-5.39,12.45-.04,2.54-2.29,2.97-4.75,4.3-3.26,1.77-6.15,4.09-8.47,6.8-.85.99-1.62,2.03-2.3,3.11.28-3.24,1.76-6.38,4.17-8.83.13-.13.26-.26.39-.38.01-.01.03-.02.04-.02,1.31-1.26,2.85-2.35,4.27-3.52.01-.01.04-.03.05-.05.87-.71,1.7-1.46,2.39-2.27.01-.01.03-.02.04-.05.43-.52.83-1.08,1.14-1.68,1.68-3.16,1.04-6.84.37-10.27-.49-2.53-1.35-5.46-4.06-6.37-1.71-.58-4-.26-5.06-1.57-.53-.64-.57-1.48-.74-2.26-.67-3.17-3.79-5.61-7.24-6.66-3.44-1.06-7.2-.95-10.83-.66-1.06.08-2.18.19-3.18-.17-1.85-.69-2.55-2.62-3.54-4.18-1.38-2.2-4.01-3.96-6.57-5.03-1.18-.5-2.59-.21-3.83.2-7.06,2.36-11.86,8.08-16.25,13.51-6.36,7.86-12.72,15.72-19.09,23.58-.26.33-.58.68-1.03.7-.35.02-.67-.19-.95-.4-.03-.03-.07-.06-.09-.08-3.37-2.74-7.18-6.3-11.52-7.65-.79-.26-1.6-.43-2.43-.51,3.63-.78,6.81-2.75,9.5-5.03,5.8-4.89,9.66-11.24,13.86-17.27,4.19-6.04,9.02-12.04,15.93-15.61,6.91-3.55,16.43-4.03,22.45.64,2.27,1.75,3.88,4.06,5.85,6.09,1.96,2.03,4.51,3.85,7.52,4.05,3.5.23,7.18-1.77,10.36-.45,3.76,1.55,3.77,6.31,6.34,9.2,1.74,1.94,4.51,2.89,6.72,4.39,4.05,2.76,6.07,7.44,5.9,11.96Z"/>
            <path class="cls-7" d="m184.3,60.31c-.16,4.51-2.33,8.84-5.39,12.45-.04,2.54-2.29,2.97-4.75,4.3-3.26,1.77-6.15,4.09-8.47,6.8.85-1.92,2.55-3.67,4.35-5.04,2.94-2.25,6.45-4.16,8.22-7.23.72-1.26,1.12-2.68,2.01-3.85.72-.97,1.76-1.74,2.41-2.75.95-1.46.97-3.25.71-4.91-.75-4.9-3.76-9.51-8.19-12.54-1.75-1.2-3.75-2.19-5.05-3.76-1.42-1.71-1.91-3.98-3.6-5.49-3.34-2.98-9.07-1.4-13.61-2.63-5.84-1.58-8.64-7.45-13.66-10.53-6.09-3.72-14.7-2.63-20.86.97-6.17,3.61-10.38,9.27-14.13,14.91-3.75,5.65-7.28,11.53-12.62,16.06-2.76,2.35-5.95,4.27-9.37,5.8-.79-.26-1.6-.43-2.43-.51,3.63-.78,6.81-2.75,9.5-5.03,5.8-4.89,9.66-11.24,13.86-17.27,4.19-6.04,9.02-12.04,15.93-15.61,6.91-3.55,16.43-4.03,22.45.64,2.27,1.75,3.88,4.06,5.85,6.09,1.96,2.03,4.51,3.85,7.52,4.05,3.5.23,7.18-1.77,10.36-.45,3.76,1.55,3.77,6.31,6.34,9.2,1.74,1.94,4.51,2.89,6.72,4.39,4.05,2.76,6.07,7.44,5.9,11.96Z"/>
            <path class="cls-7" d="m176.64,69.24c-.47.95-1.13,1.81-1.88,2.61.43-.52.83-1.08,1.14-1.68,1.68-3.16,1.04-6.84.37-10.27-.49-2.53-1.35-5.46-4.06-6.37-1.71-.58-4-.26-5.06-1.57-.53-.64-.57-1.48-.74-2.26-.67-3.17-3.79-5.61-7.24-6.66-3.44-1.06-7.2-.95-10.83-.66-1.06.08-2.18.19-3.18-.17-1.85-.69-2.55-2.62-3.54-4.18-1.38-2.2-4.01-3.96-6.57-5.03-1.18-.5-2.59-.21-3.83.2-7.06,2.36-11.86,8.08-16.25,13.51-6.36,7.86-12.72,15.72-19.09,23.58-.26.33-.58.68-1.03.7-.35.02-.67-.19-.95-.4,1.74-1.94,3.88-3.72,5-4.95,4.06-4.53,7.7-9.33,11.46-14.05,4.25-5.31,8.65-10.55,13.92-15.09,1.96-1.69,4.1-3.31,6.66-4.13,2.56-.83,5.67-.72,7.77.82,2.75,2,3.23,5.87,6.26,7.52,2.04,1.12,4.61.89,7.01.75,4.36-.24,9.33.19,12.05,3.21,2.2,2.45,2.58,6.23,5.65,7.72,1.29.63,2.85.72,4.06,1.44,1.66,1,2.23,2.89,2.68,4.61.95,3.58,1.87,7.45.2,10.81Z"/>
          </g>
          <g>
            <path class="cls-10" d="m130.48,8.62c3.61,1.65,6.4,4.52,8.28,7.71,2.05.9,1.63,2.48,1.87,4.5.32,2.69,1.22,5.33,2.63,7.74.51.88,1.1,1.73,1.74,2.53-2.54-1.29-4.59-3.31-5.76-5.69-.06-.13-.12-.26-.18-.38,0-.01,0-.02,0-.03-.57-1.27-.94-2.63-1.4-3.93,0-.01-.01-.04-.02-.05-.28-.8-.6-1.58-1.03-2.31,0-.01,0-.02-.02-.04-.28-.46-.6-.9-.97-1.31-1.99-2.16-5.21-3.01-8.23-3.75-2.22-.56-4.91-1.01-6.58.41-1.06.89-1.58,2.46-3.01,2.69-.7.12-1.4-.15-2.09-.3-2.81-.66-5.87.49-7.9,2.34-2.04,1.84-3.25,4.27-4.25,6.69-.3.71-.6,1.46-1.23,1.97-1.19.95-3.01.73-4.61.83-2.26.13-4.6,1.2-6.35,2.47-.81.58-1.06,1.58-1.15,2.51-.49,5.32,2.51,10.34,5.43,15.01,4.22,6.76,8.43,13.52,12.65,20.27.18.28.35.6.22.89-.1.23-.38.36-.65.47-.04,0-.07.02-.1.03-3.38,1.21-7.59,2.43-10.17,4.73-.48.42-.9.88-1.25,1.38.61-2.58.1-5.29-.84-7.79-1.99-5.38-5.84-10.02-9.31-14.77-3.48-4.75-6.71-9.89-7.24-15.52-.52-5.63,2.35-11.88,8.21-14.12,2.2-.85,4.64-1.08,6.96-1.65,2.32-.56,4.68-1.56,5.87-3.41,1.39-2.15,1.02-5.19,3.18-6.77,2.55-1.87,6.43-.25,9.66-.89,2.18-.44,3.9-1.89,5.87-2.79,3.63-1.64,8.14-1.33,11.76.33Z"/>
            <path class="cls-7" d="m130.48,8.62c3.61,1.65,6.4,4.52,8.28,7.71,2.05.9,1.63,2.48,1.87,4.5.32,2.69,1.22,5.33,2.63,7.74-1.27-1.2-2.11-2.89-2.61-4.51-.82-2.65-1.17-5.55-3.07-7.73-.78-.89-1.8-1.63-2.45-2.61-.54-.79-.81-1.72-1.41-2.48-.86-1.1-2.31-1.73-3.76-2.14-4.25-1.2-9.03-.86-13.01.93-1.58.71-3.07,1.64-4.79,1.94-1.88.32-3.89-.15-5.7.42-3.57,1.11-4.25,5.31-6.8,7.79-3.29,3.19-9.02,2.96-13.25,5.12-5.11,2.61-7.18,8.49-6.36,13.66.83,5.18,3.99,9.81,7.29,14.13,3.31,4.33,6.89,8.6,8.75,13.56.97,2.57,1.44,5.27,1.51,7.97-.48.42-.9.88-1.25,1.38.61-2.58.1-5.29-.84-7.79-1.99-5.38-5.84-10.02-9.31-14.77-3.48-4.75-6.71-9.89-7.24-15.52-.52-5.63,2.35-11.88,8.21-14.12,2.2-.85,4.64-1.08,6.96-1.65,2.32-.56,4.68-1.56,5.87-3.41,1.39-2.15,1.02-5.19,3.18-6.77,2.55-1.87,6.43-.25,9.66-.89,2.18-.44,3.9-1.89,5.87-2.79,3.63-1.64,8.14-1.33,11.76.33Z"/>
            <path class="cls-7" d="m135.12,16.57c.62.63,1.08,1.34,1.48,2.09-.28-.46-.6-.9-.97-1.31-1.99-2.16-5.21-3.01-8.23-3.75-2.22-.56-4.91-1.01-6.58.41-1.06.89-1.58,2.46-3.01,2.69-.7.12-1.4-.15-2.09-.3-2.81-.66-5.87.49-7.9,2.34-2.04,1.84-3.25,4.27-4.25,6.69-.3.71-.6,1.46-1.23,1.97-1.19.95-3.01.73-4.61.83-2.26.13-4.6,1.2-6.35,2.47-.81.58-1.06,1.58-1.15,2.51-.49,5.32,2.51,10.34,5.43,15.01,4.22,6.76,8.43,13.52,12.65,20.27.18.28.35.6.22.89-.1.23-.38.36-.65.47-.99-1.77-1.69-3.75-2.32-4.89-2.29-4.15-4.95-8.12-7.5-12.13-2.87-4.53-5.62-9.14-7.51-14.06-.7-1.83-1.29-3.75-1.08-5.67.21-1.92,1.35-3.87,3.33-4.68,2.57-1.07,5.88-.05,8.27-1.42,1.61-.92,2.3-2.64,3.01-4.22,1.3-2.87,3.35-5.9,6.75-6.6,2.74-.56,5.95.49,8.22-.96.95-.61,1.57-1.57,2.57-2.1,1.38-.71,3.12-.44,4.67-.13,3.23.62,6.71,1.36,8.86,3.58Z"/>
          </g>
          <g>
            <path class="cls-10" d="m186.85,86.45c-.41,1.67-.74,1.2-2.23,2.28-.16.12-.33.23-.5.33-1.41.9-3.15,1.42-4.85,1.14-1.05-.19-2.04-.89-3.04-1.33-.55-.22-1.12-.37-1.7-.31-.07-6.06,6.38-11.66,4.35-17.45-1.25-3.58-5.53-5.78-9.74-6.16-4.19-.38-8.37.7-12.42,1.78-4.05,1.08-8.2,2.2-12.41,1.9-1.96-.15-4.09-.73-5.06-2.24-.63-.98-.66-2.17-1.03-3.25-.87-2.62-3.69-4.43-6.68-5.1-2.97-.69-6.11-.43-9.18-.12-14.63,1.5-29.1,3.67-42.21,9.63-.42-.3-.84-.62-1.26-.92-6.32-4.69-12.29-10.3-18.36-15.33-1.04-.89-2.09-1.74-3.14-2.56,20.56,2.27,40.63-8.01,61.32-7.08,4.14.19,8.48.92,11.65,3.31,2,1.5,3.37,3.58,5.34,5.12,3.26,2.59,7.85,3.48,12.24,3.52,4.38.03,8.73-.69,13.11-.9,9.16-.43,19.28,1.98,24.36,8.75,5.35,7.15,3.5,16.6,1.45,24.98Z"/>
            <path class="cls-7" d="m186.85,86.45c-.41,1.67-.74,1.2-2.23,2.28-.16.12-.33.23-.5.33,0-.03.01-.06.01-.09.93-4.64,2.67-9.14,3.3-13.81.63-4.68,0-9.76-3.29-13.45-5.18-5.81-12.37-8.13-20.73-8.12-4.77,0-11.3.67-16.07.67-5.07.01-11.75.7-14.21-3.24-.54-.86-.84-1.83-1.39-2.68-2.39-3.67-11.02-5.68-15.78-5.44-19.59,1.01-36.2,4.98-55.43,8.42-1.04-.89-2.09-1.74-3.14-2.56,20.56,2.27,40.63-8.01,61.32-7.08,4.14.19,8.48.92,11.65,3.31,2,1.5,3.37,3.58,5.34,5.12,3.26,2.59,7.85,3.48,12.24,3.52,4.38.03,8.73-.69,13.11-.9,9.16-.43,19.28,1.98,24.36,8.75,5.35,7.15,3.5,16.6,1.45,24.98Z"/>
            <path class="cls-7" d="m179.91,74.13c-.51,3.28-.8,6.28-2.11,9.39-.72,1.71-1.35,3.53-1.56,5.35-.55-.22-1.12-.37-1.7-.31-.07-6.06,6.38-11.66,4.35-17.45-1.25-3.58-5.53-5.78-9.74-6.16-4.19-.38-8.37.7-12.42,1.78-4.05,1.08-8.2,2.2-12.41,1.9-1.96-.15-4.09-.73-5.06-2.24-.63-.98-.66-2.17-1.03-3.25-.87-2.62-3.69-4.43-6.68-5.1-2.97-.69-6.11-.43-9.18-.12-14.63,1.5-29.1,3.67-42.21,9.63-.42-.3-.84-.62-1.26-.92,15.27-5.37,30.92-10.34,47.28-11.04,5.07-.21,11.36.71,13.01,4.96.43,1.13.47,2.38,1.06,3.44,1.68,2.99,6.44,2.93,10.16,2.43,5.55-.73,11.09-1.47,16.64-2.21,3.64-.48,6.6.06,9.63,1.92,3.06,1.89,3.72,4.71,3.21,8Z"/>
          </g>
        </g>
      </g>
    </g>
  </g>
</svg>