<?xml version="1.0" encoding="UTF-8"?>
<svg xmlns="http://www.w3.org/2000/svg" viewBox="0 0 258.29 123.79">
  <defs>
    <style>
      .cls-1 {
        fill: #fff3de;
        opacity: .63;
      }

      .cls-1, .cls-2, .cls-3, .cls-4, .cls-5, .cls-6, .cls-7, .cls-8, .cls-9, .cls-10, .cls-11, .cls-12, .cls-13, .cls-14, .cls-15, .cls-16, .cls-17, .cls-18, .cls-19, .cls-20, .cls-21, .cls-22 {
        stroke-width: 0px;
      }

      .cls-2 {
        fill: #bcb3a6;
      }

      .cls-2, .cls-4 {
        mix-blend-mode: multiply;
      }

      .cls-3 {
        opacity: .37;
      }

      .cls-3, .cls-7, .cls-21 {
        fill: #fffbf5;
      }

      .cls-4 {
        fill: #b7642c;
        opacity: .51;
      }

      .cls-5 {
        fill: #f4ce78;
        opacity: .27;
      }

      .cls-6 {
        fill: #ededed;
        opacity: .94;
      }

      .cls-7 {
        opacity: .56;
      }

      .cls-23 {
        isolation: isolate;
      }

      .cls-8 {
        fill: #f7f9f8;
      }

      .cls-9 {
        fill: #f9e2b9;
      }

      .cls-10 {
        fill: #f7d38b;
      }

      .cls-11 {
        fill: #d1d1d1;
      }

      .cls-12 {
        fill: #ddd;
      }

      .cls-13 {
        fill: #cc510d;
      }

      .cls-14 {
        fill: #d6a351;
      }

      .cls-15 {
        fill: #d8a759;
      }

      .cls-16 {
        fill: #d8aa61;
      }

      .cls-17 {
        fill: #91aa35;
      }

      .cls-18 {
        fill: #fff;
      }

      .cls-19 {
        fill: #e8e3da;
      }

      .cls-20 {
        fill: #ffecbd;
      }

      .cls-22 {
        fill: #e5c07f;
      }
    </style>
  </defs>
  <g class="cls-23">
    <g id="Layer_1" data-name="Layer 1">
      <g>
        <g>
          <ellipse class="cls-13" cx="137.07" cy="70.54" rx="121.22" ry="53.25"/>
          <g>
            <path class="cls-19" d="m240.58,50.2v.45c0,39.26-53.86,71.09-120.29,71.09S0,89.91,0,50.65v-.45c0-.16,0-.31,0-.47,0-.2,0-.41.02-.62,0-.07,0-.14,0-.21C1.69,21.77,54.89,0,120.29,0s118.6,21.77,120.25,48.9c0,.07,0,.14,0,.21,0,.2,0,.41.02.62,0,.16,0,.31,0,.47Z"/>
            <path class="cls-18" d="m240.58,50.2v.18c-.24,27.64-54,50.02-120.29,50.02S.24,78.02,0,50.38v-.18c0-.16,0-.31,0-.47,0-.2,0-.41.02-.62,0-.07,0-.14,0-.21C1.69,21.77,54.89,0,120.29,0s118.6,21.77,120.25,48.9c0,.07,0,.14,0,.21,0,.2.02.41.02.62,0,.16,0,.31,0,.47Z"/>
            <path class="cls-12" d="m225.97,49.25c0,19.54-30.01,36.16-71.9,42.31-11.21,1.65-23.27,2.54-35.83,2.54-59.5,0-107.73-20.08-107.73-44.85S58.74,4.4,118.24,4.4c13.97,0,27.32,1.11,39.58,3.13,39.92,6.56,68.15,22.77,68.15,41.73Z"/>
            <path class="cls-11" d="m225.97,49.25c0,19.54-30.01,36.16-71.9,42.31,7.4-4.45,15.89-7.8,23.19-12.34,6.66-4.13,21.15-17.99,23.35-19.74s2.65-4.54,2.56-6.92c-.39-10.31-6.24-19.88-15.9-27.03-9.06-6.71-19.92-11.74-29.46-18,39.92,6.56,68.15,22.77,68.15,41.73Z"/>
            <ellipse class="cls-6" cx="118.24" cy="59.6" rx="84.86" ry="36.4"/>
            <path class="cls-12" d="m76.91,89.33c-13.94-2.76-26.55-8.98-35.3-17.41-2.33-2.24-4.42-4.68-5.5-7.38-2.39-5.99.52-12.57,5.53-17.62-3.38,8.72-.02,17.83,6.64,25.47,6.66,7.64,17.49,13.02,28.64,16.93Z"/>
            <path class="cls-8" d="m197.01,55.85c-14.58-14.94-46.52-24.51-70.54-27.91,39.77,0,63.55,11.83,70.54,27.91Z"/>
          </g>
        </g>
        <path class="cls-2" d="m79.3,89.79c5.53,1.28,11.29.82,16.95.34,24.53-2.09,49.04-4.41,73.53-6.95,9.17-.95,19.21-2.37,25.36-9.23,6.37-7.11,6.34-18.42,1.78-26.8-4.56-8.38-12.82-14.19-21.51-18.13-30.82-13.97-67.08-7.2-98.74,4.75-7.42,2.8-14.99,6.04-20.34,11.9-14.81,16.21,5.71,40.13,22.97,44.14Z"/>
        <g>
          <path class="cls-14" d="m123.91,12.91c-2.71,1.11-5.38,2.45-7.1,4.48-.89,1.05-1.5,2.25-2.1,3.45-1.47,2.94-3.1,5.56-2.06,8.78v.02c.65,1.93,3.26,4.02,4.3,5.84.95,1.65,2.06,3.52.93,4.73-.12.14-.27.26-.44.37-2.03,1.31-1.4,4.01-.6,6.16,1.47,3.96,1.9,6.47,3.36,10.43.51,1.38,1.05,5.42,2.05,6.65,1.07,1.33,3.64,1.15,5.17,2.15,2.52,1.65,5.14,3.34,8.18,4.03.58.13,1.18.23,1.77.34.89.16,1.77.36,2.56.76,1.05.53,1.85,1.39,2.95,1.85.19.08.42.26.7.49,1.21,1.01,3.5,3.12,9.07,3.32,1.74.06,3.25.06,4.62.02,5.08-.13,8.16-.64,13.5.7.85.21,1.75.47,2.73.78,1.34.43,2.77.9,4.13.67,2.23-.38,3.55-1.66,4.63-3.27,1.08-1.61,3.05-3.87,5.09-2.84,3.13-1.4,3.8-4.07,3.95-7.08.06-1.25,1.31-2.9,1.65-4.1.28-1.01.97-1.88,1.51-2.81,1.54-2.66,1.9-5.82.99-8.82-.44-1.43-1.15-2.82-1.6-4.24-.62-1.97-.75-4-1.42-5.95-1-2.93-3.18-5.54-5.3-8.1-1.83-2.19-3.67-4.39-5.5-6.58-3.73-4.47-7.69-9.11-13.41-11.78-3.58-1.68-7.61-2.45-11.57-3.19-2.44-.46-4.89-.93-7.36-1.19-1.41-.15-2.81-.24-4.22-.27-7.47-.14-14.69,1.54-21.16,4.19Zm31.42,46.84c2.81.44,5.54,8.73,4.2,9.91-1.34,1.18-3.8,1.39-5.59.47-1.48-.76-2.39-2.09-3.13-3.38-.57-.98-1.11-2.02-1.15-3.08-.1-2.39,2.77-4.37,5.66-3.91Zm15.17-8.21c3.62-1.42,5.82,1.94,8.05,4.24,2.06,2.11,4.61,1.26,3.95,3.75-.32,1.22-2.15,6.04-3.66,6.22-.65.08-1.32-.05-1.97-.21-3.88-.96-7.42-3.05-9.83-5.79-2-2.28-.12-6.8,3.46-8.22Zm-31.6.27c1.66-.24,3.7.37,4.42,1.69.42.76.01,2.09.01,2.09-1.23,1.73-2.05,3.71-3.81,5.09-1.75,1.38-4.9,1.88-6.76.37-1.27-1.03-1.5-2.66-.98-3.96s1.68-2.32,2.89-3.25c1.21-.92,2.56-1.8,4.22-2.04Zm-7.81-6.7c.9-.05,1.88.03,2.64.5.75.47,1.12,1.42.56,1.97-1.84,1.53-3.74,2.87-6.43,3.1-1,.08-2.19.01-2.87-.65-.99-.96-.2-2.37.86-3.15,1.41-1.04,3.27-1.67,5.24-1.78Zm25.1-3.73c1.06,1.01-1.03,3.37-2.16,4.19l.57-.16c-1.81,1.13-5.11-.07-5.5-2.01-.07-.36-.06-.74.1-1.06.15-.29,1.76-2.07,2.06-2.25,1.19-.76,3.86.28,4.92,1.29Zm21.08-5.84c2.52-.04,2.95.51,4.02,2.46,1.01,1.86-1.13,4.8-3.35,5.43,0,0-2.72,0-4.31.35-1.95.41-4.2,1.31-5.83.18-.66-.45-1-1.15-1.16-1.83-.38-1.69,4.34-4.43,5.73-5.6,1.39-1.17,2.84-.96,4.9-1Zm-22.3-4.64c-.98-1.62-.1-3.49,1.19-4.81.54-.55,1.18-1.1,1.28-1.82.07-.5-.13-1.03,0-1.51.21-.73,3.87-1.86,4.74-2.1,2.76-.74,4.73-.42,6.63,1.57,1.03,1.08.27,3.28-.19,4.51s-2.08,3.04-2.08,3.04c-1.6,1.26-3.29,2.58-5.48,3.05-2.19.48-5.03-.18-6.08-1.94Zm-20.78-4.87c2.92.02,3.48,1.56,5.59,3.35,4.08,3.45-.24,8.38-5.83,8.69-2.68.15-5.72.13-7.77-1.44-1.18-.91-1.82-2.19-2.21-3.44-.67-2.15,2.81-6.19,4.96-7.34.98-.53,4.04.16,5.26.18Zm8.74-5.26c-.53-1.3-.67-2.9.5-3.76,1.2-.89,3.73-.12,5.4-.06,1.96.08,2.62,3.19,3.08,4.53.65,1.91-.48,3.48-.41,5.42.12,3.2-6.53,3-7.41.2-.25-.79.11-1.59.14-2.39.06-1.34-.77-2.64-1.31-3.95Zm-5.85-1.9c1.15.32.47,1.46,1.04,2.35.57.9-1.68,2.55-2.67,3.03l-.09.06c-1.5-.28-3.12-.63-4.13-1.61-1.01-.99.96-4.17,2.33-4.6,1.81-.57,3.09.66,3.52.78Zm-.19-6.02c.77.8.43,1.8.34,2.77l-2.44,1.6c-1.34-.22-2.56-1.07-3.06-2.13-.12-.25-.2-.52-.15-.78.19-.96,4.55-2.26,5.31-1.46Z"/>
          <path class="cls-15" d="m143.67,66.94c-1.63.57-3.17,1.29-4.57,2.15-.61.38-1.21.78-1.72,1.26.89.16,1.77.36,2.56.76,1.05.53,1.85,1.39,2.95,1.85.19.08.42.26.7.49.29-.39.56-.79.83-1.11.81-.93,1.65-1.86,2.01-3,.16-.5.22-1.05,0-1.56s-.75-.97-1.39-1.07c-.47-.06-.94.08-1.36.22Z"/>
          <path class="cls-15" d="m117.39,27.92c-1.51.55-3.01,1.1-4.51,1.65-.07.02-.15.06-.22.08.65,1.93,3.25,4.02,4.3,5.84.95,1.65,2.06,3.52.93,4.73,1.58-.78,3.03-1.75,3.73-2.23,1.11-.78,1.88-2.06,1.32-3.25-.24-.52-.69-.95-1.1-1.39-1.18-1.29-2.04-2.77-2.5-4.3-.16-.52-.39-1.15-1.02-1.27-.33-.06-.65.05-.94.16Z"/>
          <path class="cls-10" d="m133.4,8.21c1.61.96,3.18,1.98,4.73,2.99.88.57,1.76,1.15,2.64,1.73,1.52.99,3.05,1.98,4.56,2.97.11-.5.36-.95.82-1.29.77-.57,1.92-.63,2.98-.35.59.16,1.14.42,1.6.76,1.29.95,1.94,2.34,2.4,3.68.48,1.43.81,2.89.98,4.34,1.19,1.55,2.08,3.23,3.29,4.78-.43-1.44.37-2.99,1.48-4.13.54-.56,1.18-1.1,1.28-1.82.07-.49-.14-1.03,0-1.5.21-.73,1.11-1.12,1.98-1.35,2.76-.74,6.35-.44,8.25,1.55,1.03,1.09,1.41,2.55.95,3.79-.26.69-.87,1.55-1.37,2.18-.4.5-.71.85-.71.85-1.6,1.27-3.29,2.58-5.48,3.05-1.5.33-3.31.12-4.64-.61.53.59,1.07,1.18,1.54,1.79,1.18,1.51,2.01,3.18,2.48,4.88.35,1.28.48,2.59.39,3.86-.08,1.03-.3,2.04-.13,3.09.21,1.24-.18,3.15.29,4.37,1.14,2.93,1.69,5.68-.45,7.82-1.95-.41-2.77,1.61-3.12,3.35,1.88,2.58,3.13,7.4,2.14,8.28-.62.54-1.48.88-2.4,1-1.07.13-2.23-.04-3.2-.53-1.46-.75-2.36-2.06-3.1-3.33-.03,0-.06,0-.09,0-.23-.02-.46-.03-.68-.03-.73-.03-1.4-.03-2.03-.03-5.22.07-7.69,1.34-12.06,2.76-.35.11-.7.22-1.07.33.23.06.46.12.7.18,1.46.33,3.01.44,4.33,1.1,1.05.54,1.85,1.39,2.95,1.85,1.03.43,2.21.47,3.33.51,1.03.04,2.07.09,3.1.16,2.94.2,5.87.53,8.78.99,5.23.81,10.4,2.04,15.41,3.65,1.34.43,2.77.9,4.13.68.17-.03.33-.07.48-.11,1.9-.57,2.79-2.39,3.79-3.88,1.07-1.61,3.4-3.15,5.44-2.12.87-.38,1.65-.9,2.35-1.49,1.83-1.58,2.99-3.77,3.1-5.94,0-.12,0-.24.01-.37,0-1.13-.17-2.29.14-3.37.23-.83.74-1.57,1.21-2.32.1-.16.2-.33.3-.49,1.55-2.66,1.9-5.82.99-8.82-.44-1.43-1.15-2.82-1.61-4.24-.62-1.97-.74-3.99-1.42-5.96-.72-2.11-2.06-4.06-3.54-5.93-.58-.73-1.17-1.45-1.77-2.16-.05-.06-.11-.13-.16-.2-1.78-2.13-3.56-4.26-5.34-6.39-3.73-4.47-7.69-9.12-13.42-11.78-3.58-1.68-7.61-2.45-11.57-3.19-1.03-.2-2.06-.39-3.09-.58-.85-.14-1.7-.28-2.55-.4-.58-.08-1.15-.16-1.71-.22-1.41-.15-2.82-.24-4.22-.26-3.76-.07-7.45.32-11.02,1.06-1.15.24-2.28.51-3.39.82Zm36.05,40.56c.05-.02.09-.04.14-.06.22-.09.45-.15.69-.21.51-.1,1.06-.13,1.63-.1,3.59.24,8.14,3.04,9.95,4.91,2.06,2.11,3.11,4.91,2.46,7.41-.15.57-.44,1.15-.85,1.62-.47.53-1.1.92-1.91,1.01-.17.02-.34.03-.52.02-.47-.01-.97-.11-1.44-.23-3.88-.96-7.43-3.04-9.83-5.79-.14-.15-.27-.32-.4-.49-1.79-2.4-3.09-6.72.08-8.1Zm7.11-15.43c2.52-.05,5.38.96,6.45,2.91.89,1.62.14,3.59-1.55,4.48-.24.14-.51.24-.79.32,0,0-2.72,0-4.31.35-1.63.34-3.48,1.03-4.98.58-.3-.08-.58-.22-.85-.4-.66-.45-1.01-1.15-1.16-1.83-.37-1.69.34-3.42,1.72-4.58,1.39-1.17,3.41-1.79,5.47-1.82Z"/>
          <path class="cls-1" d="m166.5,32.92c-.37.19-.82.33-1.27.24-.71-.15-1.12-.8-1.78-1.07-.61-.24-1.46-.19-1.77-.68-.25-.4.12-.87.6-1.02s1.04-.11,1.57-.14c1.75-.12,3.02-1.11,4.23-1.99.68-.49,1.78-1.78,2.3-.65.41.89-.84,2.01-1.3,2.62-.73.98-1.36,2.06-2.58,2.69Z"/>
          <path class="cls-17" d="m181.92,66.21c-.4.03-.74-.03-1.04-.09-.28-.06-.59-.13-.57-.26.02-.14.4-.27.74-.38.27-.08.54-.17.8-.25.08-.03.17-.05.26-.06.15,0,.23.03.3.07.41.25,1.56.82-.49.97Z"/>
          <path class="cls-17" d="m168.77,37.6s.09.08.14.09c.06,0,.1-.06.13-.12.07-.15.14-.32.14-.52s-.06-.45-.2-.6c-.04-.04-.08-.08-.13-.11-.17-.13-.35-.27-.52-.39-.1-.08-.23-.15-.31-.09-.05.04-.07.12-.07.2-.02.22-.03.66.12.89.07.11.2.2.29.27.14.13.27.25.41.38Z"/>
          <path class="cls-1" d="m121.19,25.46c-.06,1.52.65,3.1.23,4.56-.07.23-.17.47-.39.62-.48.32-1.3.02-1.64-.45s-.33-1.03-.3-1.55.06-1.08-.24-1.56c-.18-.28-.45-.51-.64-.79-.36-.52-.37-1.15-.18-1.7s.56-1.03.93-1.5c.82-1.06,1.76-2.16,3.23-2.55.62-.16,1.52-.08,1.52.58,0,.31-1.01.98-1.24,1.25-.75.9-1.23,1.95-1.28,3.08Z"/>
          <path class="cls-21" d="m120.52,24.86c-.16.31-.47.67-.87.56-.31-.09-.42-.41-.43-.68-.04-1.08.71-2.02,1.52-2.82.21-.21.46-.42.79-.44,1.22-.06-.78,2.94-1,3.38Z"/>
        </g>
        <g>
          <path class="cls-22" d="m80.19,28.43c-1.62,2.48-3.06,5.17-3.24,8.15-.09,1.53.16,3.09.41,4.64.62,3.8.91,7.34,3.88,10.21l.02.02c1.8,1.71,5.39,2.64,7.47,4.05,1.88,1.27,4.04,2.7,3.85,4.51-.01.2-.06.4-.14.61-.9,2.36,1.37,4.88,3.45,6.76,3.81,3.44,5.8,5.87,9.62,9.31,1.33,1.2,4.4,5.18,6.05,5.98,1.78.87,3.89-.56,5.84-.25,3.23.51,6.58,1.01,9.65.26.58-.14,1.16-.33,1.75-.5.87-.26,1.76-.48,2.7-.44,1.25.05,2.49.56,3.73.51.22,0,.53.07.92.18,1.7.47,5.03,1.57,9.96-.92,1.54-.78,2.84-1.52,4-2.21,4.29-2.6,6.62-4.63,12.09-5.82.87-.19,1.81-.36,2.86-.5,1.44-.2,2.97-.4,3.99-1.3,1.68-1.48,1.99-3.47,1.88-5.68-.11-2.21.13-5.54,2.56-5.45,1.8-2.99.65-6.12-1.15-9.35-.75-1.34-.74-3.68-1.21-5.11-.4-1.19-.38-2.45-.51-3.68-.38-3.54-2.11-7.03-4.83-9.73-1.3-1.29-2.8-2.4-4.11-3.67-1.8-1.77-3.22-3.83-5.06-5.56-2.75-2.59-6.31-4.27-9.79-5.92-2.99-1.41-5.99-2.83-8.98-4.24-6.1-2.88-12.5-5.83-19.15-5.86-4.17-.02-8.14,1.12-12.03,2.26-2.4.7-4.81,1.4-7.11,2.32-1.31.52-2.58,1.11-3.81,1.77-6.53,3.48-11.67,8.74-15.54,14.66Zm57.25,33.91c2.71-.9,10.4,6.48,10.01,8.36-.39,1.89-2.38,3.3-4.52,3.2-1.77-.08-3.4-1.04-4.87-2.03-1.13-.75-2.25-1.59-2.97-2.68-1.62-2.46-.43-5.93,2.36-6.85Zm7.79-15.97c2.21-3.25,6.26-.79,9.67.54,3.13,1.22,4.78-.91,5.82,2.02.51,1.43,2.04,7.38.85,8.31-.51.39-1.17.59-1.84.73-3.96.88-8.36.41-12.2-1.3-3.2-1.42-4.49-7.08-2.31-10.3Zm-27.07,15.62c1.28-1.06,3.43-1.4,4.9-.37.85.59,1.35,2.19,1.35,2.19.06,2.41.62,4.89,0,7.19-.62,2.29-3.01,4.35-5.59,3.67-1.75-.46-3.01-2.06-3.39-3.68s-.05-3.26.4-4.81c.45-1.55,1.05-3.13,2.33-4.19Zm-11.05-3.24c.74-.49,1.64-.88,2.6-.76.95.13,1.88.95,1.75,1.8-.6,2.5-1.37,4.83-3.54,6.37-.81.57-1.88,1.08-2.89.71-1.47-.53-1.7-2.39-1.28-3.72.55-1.78,1.75-3.34,3.37-4.41Zm19.24-16.09c1.57.55,1.28,4.04.84,5.45l.39-.44c-.83,2.07-4.46,2.4-6.04.56-.3-.34-.53-.74-.6-1.16-.06-.37.19-3.03.33-3.37.53-1.38,3.51-1.58,5.07-1.03Zm14.41-16.35c2.15-1.27,2.88-.9,5.05.63,2.07,1.46,2.12,5.58.61,7.32,0,0-2.34,1.33-3.49,2.46-1.41,1.38-2.78,3.41-4.91,3.02-.86-.16-1.61-.72-2.18-1.36-1.41-1.59.89-6.76,1.34-8.65.45-1.9,1.83-2.38,3.58-3.42Zm-22.22,5.95c-1.89-1.23-2.34-3.62-2.07-5.62.11-.85.31-1.73-.07-2.53-.26-.55-.78-1.01-.97-1.58-.29-.86,2.14-3.83,2.73-4.5,1.9-2.12,3.8-2.73,6.73-1.57,1.59.64,2.34,3.31,2.74,4.83.4,1.52.16,4.2.16,4.2-.57,2.1-1.18,4.3-2.76,5.86-1.58,1.56-4.45,2.25-6.49.92Zm-21.05,4.97c2.53-1.39,4-.06,6.97.8,5.74,1.64,5.19,8.92.57,11.95-2.21,1.45-4.85,2.92-7.63,2.26-1.6-.38-2.97-1.41-4.12-2.54-1.96-1.93-1.56-7.86-.45-10.1.51-1.03,3.59-1.79,4.65-2.37Zm4.14-9.76c-1.29-1.11-2.44-2.71-1.99-4.19.46-1.51,3.14-1.94,4.62-2.68,1.74-.87,4.31,2.07,5.57,3.26,1.78,1.69,1.83,3.89,3.14,5.89,2.17,3.3-3.7,6.31-6.26,3.8-.73-.71-.93-1.72-1.41-2.58-.81-1.44-2.37-2.39-3.67-3.51Zm-6.27.84c1.2-.22,1.35,1.3,2.41,1.96,1.07.66.19,3.49-.36,4.47l-.04.1c-1.47.43-3.09.86-4.6.31-1.51-.55-1.85-4.84-.95-5.96,1.2-1.47,3.1-.8,3.54-.89Zm-4.04-6.23c1.18.47,1.53,1.68,2.07,2.74l-1.08,2.86c-1.3.42-2.89.12-4-.75-.27-.21-.51-.45-.63-.75-.45-1.1,2.46-4.58,3.64-4.11Z"/>
          <path class="cls-15" d="m132.02,75.54c-1.04,1.39-1.91,2.89-2.56,4.48-.29.69-.54,1.41-.68,2.15.87-.26,1.76-.48,2.7-.44,1.25.05,2.49.56,3.73.51.22,0,.53.07.92.18,0-.56-.03-1.1,0-1.56.11-1.37.23-2.75-.2-4.13-.18-.61-.49-1.21-1-1.64s-1.28-.66-1.89-.44c-.45.16-.76.53-1.03.9Z"/>
          <path class="cls-15" d="m84.23,47.34c-.95,1.31-1.89,2.61-2.82,3.92-.05.06-.09.13-.14.19,1.8,1.71,5.39,2.64,7.47,4.05,1.88,1.27,4.04,2.7,3.85,4.51.86-1.58,1.49-3.3,1.78-4.15.45-1.36.29-3.08-.96-4.06-.54-.43-1.2-.66-1.85-.93-1.84-.78-3.54-1.92-4.92-3.3-.47-.47-1.08-1.02-1.7-.84-.32.09-.53.36-.71.62Z"/>
          <path class="cls-20" d="m85.34,18.89c2.01.22,4.02.53,6,.84,1.13.17,2.26.35,3.39.53,1.95.3,3.9.6,5.84.91-.23-.58-.3-1.17-.12-1.75.3-.97,1.25-1.6,2.34-1.81.61-.12,1.26-.11,1.87.02,1.73.37,3.18,1.51,4.45,2.7,1.34,1.26,2.56,2.63,3.64,4.09,2.02,1.05,3.88,2.38,5.91,3.42-1.3-1.3-1.61-3.32-1.38-5.05.11-.85.31-1.73-.08-2.53-.26-.55-.78-1.01-.96-1.58-.29-.86.23-1.72.83-2.38,1.91-2.12,5.19-3.54,8.11-2.38,1.59.64,2.86,2,3.26,3.52.22.85.25,2.05.22,2.96-.02.72-.07,1.24-.07,1.24-.57,2.11-1.18,4.3-2.76,5.86-1.09,1.07-2.78,1.73-4.39,1.6.83.36,1.68.72,2.48,1.13,1.99,1.02,3.78,2.36,5.28,3.92,1.13,1.18,2.08,2.48,2.82,3.86.59,1.12,1.06,2.29,1.88,3.3.98,1.21,1.87,3.39,3.06,4.44,2.87,2.52,5.11,5.14,4.64,8.43-1.95.51-1.35,3.03-.53,5.02,3.28,1.8,7.47,6.25,7.18,7.66-.18.87-.7,1.64-1.42,2.21-.84.66-1.95,1.04-3.1.99-1.74-.08-3.36-1.02-4.82-2-.03.01-.05.02-.08.04-.21.1-.41.19-.61.3-.65.32-1.23.64-1.77.96-4.46,2.6-5.77,5.14-8.62,8.75-.23.28-.46.57-.71.87.24-.04.48-.1.72-.15,1.47-.36,2.88-1.01,4.44-.94,1.25.05,2.5.56,3.73.51,1.17-.05,2.2-.58,3.2-1.08.92-.46,1.84-.91,2.78-1.33,2.66-1.22,5.4-2.29,8.21-3.22,5.03-1.68,10.28-2.9,15.64-3.64,1.44-.2,2.97-.4,4-1.29.13-.11.24-.23.34-.35,1.27-1.52.87-3.87.77-5.91-.11-2.21.91-4.96,3.33-4.87.5-.82.85-1.74,1.06-2.71.56-2.54.15-5.41-1.16-7.74-.07-.13-.15-.26-.23-.4-.73-1.19-1.62-2.32-2.05-3.6-.34-.99-.38-2.01-.46-3.02-.01-.22-.03-.44-.06-.66-.38-3.54-2.11-7.04-4.83-9.73-1.3-1.28-2.8-2.4-4.12-3.67-1.8-1.76-3.21-3.83-5.06-5.56-1.98-1.86-4.39-3.26-6.87-4.51-.97-.49-1.94-.95-2.91-1.41-.09-.04-.18-.09-.26-.13-2.91-1.37-5.81-2.74-8.72-4.11-6.09-2.88-12.5-5.83-19.15-5.86-4.17-.02-8.14,1.12-12.03,2.26-1.01.29-2.03.59-3.04.9-.82.26-1.65.53-2.46.82-.55.19-1.09.39-1.62.6-1.31.53-2.58,1.12-3.81,1.77-3.28,1.75-6.22,3.95-8.81,6.46-.83.81-1.63,1.64-2.39,2.51Zm57.2,25.07s.05-.09.08-.13c.14-.2.29-.38.46-.55.37-.36.83-.65,1.34-.89,3.25-1.49,8.97-.76,11.74.33,3.13,1.22,5.85,3.64,6.89,6.58.24.68.37,1.42.31,2.11-.07.78-.36,1.5-.99,1.99-.13.1-.28.19-.44.28-.42.22-.91.35-1.39.46-3.96.88-8.37.41-12.2-1.31-.22-.09-.43-.2-.66-.32-3.08-1.65-6.99-5.55-5.15-8.54Zm-3.81-19.64c2.15-1.27,5.26-1.61,7.43-.08,1.81,1.27,2.43,3.7,1.55,5.45-.12.26-.28.5-.47.72,0,0-2.34,1.33-3.49,2.46-1.18,1.15-2.33,2.77-3.92,3.02-.31.06-.64.06-.99,0-.86-.16-1.61-.72-2.18-1.36-1.41-1.59-1.91-3.75-1.47-5.65.45-1.91,1.79-3.53,3.54-4.57Z"/>
          <path class="cls-1" d="m129.79,28.77c-.2.38-.5.75-.94.87-.7.19-1.48-.3-2.22-.25-.68.04-1.38.51-1.96.14-.48-.3-.45-.97-.14-1.36s.83-.61,1.26-.91c1.43-.97,1.89-2.63,2.37-4.14.27-.84.39-2.73,1.56-1.8.93.73.57,2.51.56,3.38,0,1.38.16,2.83-.49,4.08Z"/>
          <path class="cls-17" d="m164.52,56.22c-.33.23-.66.32-.96.41-.28.08-.59.15-.66,0-.07-.15.17-.48.4-.75.18-.22.35-.44.53-.66.05-.07.11-.14.19-.19.12-.08.22-.08.3-.07.51.06,1.87.1.2,1.26Z"/>
          <path class="cls-17" d="m134.76,32.57c.06.02.13.04.17.03.06-.02.05-.11.03-.19-.04-.2-.09-.4-.21-.61s-.34-.44-.56-.53c-.06-.03-.12-.04-.18-.06-.24-.06-.47-.11-.7-.16-.14-.03-.29-.05-.32.05-.02.06.02.16.07.25.12.24.4.71.68.88.13.08.3.11.43.15.2.07.4.13.6.2Z"/>
          <path class="cls-1" d="m85.93,42.92c.92,1.63,2.56,2.94,3.14,4.68.09.28.16.57.06.84-.21.57-1.11.66-1.7.33s-.95-.92-1.26-1.48-.64-1.16-1.22-1.52c-.33-.21-.72-.32-1.06-.51-.65-.37-1.06-1.03-1.25-1.7s-.18-1.35-.17-2.03c.03-1.51.12-3.12,1.15-4.24.43-.47,1.25-.82,1.69-.13.21.33-.25,1.52-.27,1.91-.07,1.3.2,2.65.88,3.85Z"/>
          <path class="cls-21" d="m84.96,42.62c.06.4.03.93-.39,1.01-.33.06-.63-.23-.81-.5-.73-1.11-.69-2.46-.51-3.69.05-.32.12-.67.4-.85,1.01-.66,1.22,3.46,1.31,4.04Z"/>
        </g>
        <g>
          <path class="cls-4" d="m73.69,35.15c-.08,1.53.16,3.09.41,4.64.48,2.93,1.05,6.04,2.65,8.63h0c.47.77,1.03,1.48,1.71,2.13,1.79,1.73,4.17,2.8,6.25,4.21,2.08,1.41,5.27,2.32,4.46,4.43-.9,2.36,1.37,4.88,3.45,6.76.14.13.29.26.43.39l11,9.92c1.33,1.2,2.7,2.43,4.34,3.23,1.78.87,3.77,1.19,5.72,1.5,2.98.46,6.06.93,8.93.4.25-.3.48-.59.71-.87,2.85-3.61,4.16-6.14,8.62-8.75.7-.41,1.49-.83,2.38-1.26.03-.01.05-.02.08-.04-.02,0-.04-.03-.05-.03-1.13-.76-2.26-1.59-2.97-2.68-1.62-2.46-.43-5.93,2.36-6.85.69-.23,1.7.08,2.83.7-.82-1.99-1.41-4.51.53-5.02.47-3.29-1.77-5.9-4.64-8.43-1.19-1.05-2.08-3.23-3.06-4.44-.82-1.01-1.29-2.18-1.88-3.3-1.71-3.2-4.61-6-8.1-7.78-.81-.42-1.65-.77-2.48-1.13-.74-.05-1.46-.27-2.1-.69-.26-.17-.49-.36-.7-.58-2.03-1.04-3.89-2.37-5.91-3.42.36.48.71.97,1.04,1.47,1.25,1.91-.18,3.72-2.11,4.43-1.41.51-3.07.44-4.16-.63-.72-.71-.92-1.72-1.41-2.58-.81-1.43-2.37-2.39-3.67-3.51-.79-.67-1.52-1.54-1.87-2.44-3.07-.48-6.16-.96-9.23-1.44-1.98-.31-3.99-.62-6-.84-1.6,1.79-3.04,3.71-4.34,5.69-1.62,2.48-3.06,5.18-3.23,8.15Zm41.21,25.41c1.28-1.06,3.42-1.4,4.9-.36.86.59,1.35,2.18,1.35,2.18.06,2.4.62,4.89,0,7.19-.62,2.29-3,4.35-5.59,3.68-1.75-.47-3.01-2.06-3.39-3.68-.39-1.62-.05-3.26.4-4.81.45-1.55,1.04-3.13,2.33-4.19Zm6.89-17.58c1.57.55,2.54,2.29,2.53,3.26-.03,2.25-4.46,2.4-6.04.56-.3-.34-.54-.74-.6-1.16-.06-.38,0-.75.13-1.09.53-1.38,2.4-2.11,3.97-1.56Zm-17.95,14.34c.75-.49,1.65-.88,2.6-.76.94.13,1.88.95,1.75,1.8-.6,2.5-1.37,4.83-3.54,6.37-.81.58-1.87,1.08-2.89.71-1.47-.53-1.7-2.39-1.29-3.72.55-1.78,1.75-3.34,3.37-4.4Zm-13.65-18.38c2.53-1.39,5.72-2.04,8.69-1.18,5.74,1.64,7.51,7.74,2.89,10.77-2.21,1.46-4.85,2.92-7.62,2.26-1.61-.38-2.98-1.41-4.12-2.54-1.96-1.93-3.51-4.73-2.4-6.97.51-1.03,1.5-1.77,2.56-2.35Zm-2.02-8.69c.33-.27.78-.39,1.21-.47,1.2-.22,2.56-.14,3.62.53,1.07.66,1.69,2.01,1.14,3l-.04.1c-1.48.43-3.1.86-4.6.32-1.51-.55-2.49-2.55-1.34-3.47Zm-1.38-7c1.18.47,1.84,1.64,2.39,2.7l-.13.29c-1.3.42-2.9.12-4-.74-.27-.21-.51-.45-.63-.75-.45-1.1,1.2-1.97,2.38-1.49Z"/>
          <path class="cls-16" d="m40.05,50.43c-.58,2.9-.91,5.94.03,8.87.48,1.51,1.28,2.94,2.08,4.36,1.97,3.49,3.53,6.82,7.32,8.69h.03c2.28,1.12,12.46,10.44,15.06,11.62,4.76,2.16,11.69,3.23,16.45,5.39,1.66.76,11.1,2.2,13,1.9,3.15-.5,6.4-1.04,8.95-2.71.48-.32.94-.68,1.42-1.02.7-.52,1.43-1,2.31-1.25,1.16-.33,2.49-.22,3.61-.65.2-.08.51-.09.91-.11,1.73-.06,5.19-.02,8.8-3.94,1.12-1.23,2.05-2.34,2.85-3.37,2.98-3.83,4.37-6.51,8.95-9.33.72-.45,1.53-.9,2.44-1.36,1.25-.63,2.58-1.3,3.19-2.48,1-1.95.55-3.96-.36-6.07-.91-2.11-1.91-5.4.34-6.06.55-3.44-1.65-6.12-4.49-8.69-1.18-1.07-2.03-3.33-2.99-4.57-.81-1.03-1.25-2.25-1.82-3.4-1.65-3.31-4.52-6.16-8-7.94-1.67-.85-3.45-1.46-5.12-2.29-2.3-1.16-4.36-2.72-6.68-3.83-3.47-1.66-7.36-2.2-11.15-2.73-3.26-.45-6.53-.9-9.8-1.35-6.65-.92-13.61-1.81-19.72.2-3.83,1.26-7.05,3.58-10.2,5.87-1.95,1.41-3.9,2.83-5.67,4.42-1.01.91-1.96,1.87-2.84,2.88-4.71,5.36-7.49,12.03-8.87,18.95Zm64.98,15.28c2.16-1.7,11.92,3.08,12.25,5.03.33,1.95-.97,3.92-2.97,4.48-1.65.46-3.5.04-5.22-.48-1.31-.38-2.65-.84-3.71-1.68-2.39-1.88-2.57-5.61-.35-7.35Zm1.27-17.84c.83-3.82,5.46-2.68,9.07-2.44,3.32.22,4.05-2.35,6.09.17.99,1.23,4.59,6.52,3.83,7.78-.32.54-.86.93-1.41,1.27-3.31,2.06-7.52,2.95-11.67,2.47-3.45-.4-6.72-5.47-5.9-9.26Zm-19.09,23.4c.79-1.42,2.63-2.41,4.36-1.86,1,.31,2.04,1.7,2.04,1.7.93,2.31,2.36,4.54,2.64,6.95.27,2.41-1.16,5.13-3.78,5.27-1.78.09-3.52-1.07-4.46-2.52s-1.24-3.14-1.4-4.77c-.16-1.63-.19-3.35.6-4.76Zm-11.33.25c.5-.7,1.18-1.35,2.1-1.53.92-.17,2.08.34,2.27,1.2.37,2.61.52,5.09-.91,7.25-.53.8-1.32,1.61-2.39,1.57-1.55-.06-2.44-1.79-2.55-3.21-.15-1.89.37-3.77,1.47-5.29Zm11.73-21.46c1.64.05,2.66,3.51,2.77,5.01l.2-.55c0,2.25-3.2,3.69-5.33,2.39-.4-.24-.76-.56-.98-.94-.19-.34-.94-2.99-.94-3.36-.02-1.5,2.64-2.6,4.27-2.55Zm7.21-20.24c1.5-1.89,2.31-1.75,4.87-.93,2.43.77,4,4.75,3.25,6.9,0,0-1.65,2-2.3,3.45-.79,1.77-1.29,4.15-3.39,4.43-.85.11-1.74-.21-2.5-.65-1.88-1.11-1.67-6.81-1.95-8.78-.29-1.98.8-2.86,2.03-4.41Zm-18.2,12.56c-2.18-.61-3.48-2.78-3.97-4.8-.21-.85-.35-1.77-1-2.43-.44-.46-1.08-.74-1.47-1.24-.58-.75.55-4.37.86-5.19.97-2.63,2.48-3.81,5.59-3.58,1.69.13,3.36,2.48,4.29,3.83s1.69,4.01,1.69,4.01c.25,2.21.5,4.52-.38,6.52-.88,2-3.26,3.54-5.62,2.87Zm-17.49,11.25c1.81-2.12,3.65-1.28,6.69-1.36,5.87-.17,8.04,7.04,4.92,11.38-1.5,2.08-3.37,4.31-6.16,4.52-1.61.13-3.25-.46-4.71-1.2-2.51-1.27-4.32-7.12-4.13-9.64.09-1.15,2.64-2.83,3.39-3.71Zm.21-10.71c-1.59-.68-3.24-1.88-3.37-3.44-.13-1.6,2.17-2.83,3.26-4.01,1.28-1.38,4.72.69,6.31,1.45,2.26,1.09,3.1,3.2,5.05,4.73,3.2,2.53-1.08,7.24-4.35,5.6-.93-.47-1.48-1.38-2.24-2.06-1.27-1.14-3.05-1.59-4.65-2.27Zm-5.44,2.74c1.02-.58,1.71.85,2.93,1.16,1.23.31,1.46,3.32,1.32,4.43v.11c-1.19.87-2.52,1.78-4.1,1.71-1.59-.07-3.48-4.12-3.06-5.48.56-1.79,2.54-1.73,2.92-1.94Zm-6-4.79c1.26.09,2.02,1.16,2.91,2.02l.06,3.1c-1.04.8-2.61,1.01-3.95.5-.32-.12-.63-.28-.85-.53-.82-.92.58-5.19,1.83-5.09Z"/>
          <path class="cls-15" d="m104.91,80.13c-.44,1.66-.69,3.38-.7,5.11,0,.76.02,1.53.17,2.29.7-.52,1.43-1,2.31-1.25,1.16-.33,2.49-.22,3.61-.65.2-.08.51-.09.91-.11-.21-.54-.43-1.06-.57-1.52-.41-1.35-.8-2.73-1.7-3.93-.39-.53-.89-1.02-1.52-1.28s-1.41-.25-1.89.15c-.35.3-.5.75-.62,1.18Z"/>
          <path class="cls-15" d="m50.71,67.49c-.39,1.55-.77,3.1-1.15,4.66-.02.07-.04.15-.06.23,2.28,1.1,13.68,1.16,13.62.25-.08-1.45-.86-3.07-2.37-3.63-.65-.25-1.35-.27-2.03-.33-1.98-.19-3.95-.77-5.73-1.69-.6-.31-1.36-.65-1.87-.3-.26.19-.35.51-.42.82Z"/>
          <path class="cls-9" d="m42.55,36.46c-1.45,3.19-2.48,6.56-3.16,9.99-.58,2.9-.91,5.94.03,8.87.48,1.51,1.28,2.94,2.08,4.36,1.52,2.69,3.18,5.53,5.6,7.54h0c.72.6,1.49,1.12,2.35,1.54,2.27,1.12,16.05,9.38,18.65,10.55.18.08.36.16.54.24l13.74,6.23c1.66.76,3.36,1.52,5.17,1.8,1.95.3,3.9,0,5.8-.31,3.15-.5,6.4-1.04,8.95-2.71,1.22-.8,2.27-1.85,3.73-2.27,1.16-.33,2.49-.22,3.61-.65,1.05-.4,1.8-1.24,2.53-2.03,5.99-6.48,13.26-11.94,21.43-16.09,1.25-.63,2.58-1.3,3.19-2.48.08-.15.14-.29.18-.44.61-1.85-2.46-11.03-.2-11.68.55-3.44-1.08-7.51-3.93-10.08-1.18-1.07-2.59-1.94-3.56-3.18-.81-1.03-1.25-2.25-1.82-3.4-1.65-3.31-4.52-6.16-8-7.94-1.67-.85-3.45-1.46-5.12-2.29-2.3-1.16-4.36-2.72-6.68-3.83-2.51-1.2-5.22-1.81-7.97-2.26-1.06-.17-2.13-.33-3.19-.47-.1-.01-.2-.03-.29-.04-3.17-.44-6.34-.87-9.51-1.31-6.65-.92-13.61-1.81-19.72.2-3.83,1.26-7.05,3.58-10.2,5.87-.82.59-1.65,1.19-2.45,1.8-.66.51-1.32,1.01-1.96,1.55-.43.35-.85.71-1.26,1.08-1.01.91-1.96,1.87-2.84,2.88-2.37,2.7-4.25,5.72-5.7,8.95Zm82.08,12.95c-.09.14-.19.27-.3.4-.3.34-.7.62-1.11.87-3.31,2.06-7.52,2.95-11.67,2.47-3.41-.39-9.22-3.09-8.59-6.79,0-.06,0-.1.02-.15.83-3.82,8.4-5.48,12.01-5.23,3.32.22,6.7,1.73,8.74,4.26.99,1.23,1.65,2.92.89,4.17Zm-20.26,12.33c2.16-1.7,11.92,3.08,12.25,5.03.33,1.95-.97,3.92-2.97,4.48-1.65.46-3.5.04-5.22-.48-1.31-.38-2.65-.84-3.71-1.68-2.39-1.88-2.57-5.61-.35-7.35Zm-17.82,5.56c.79-1.42,2.63-2.41,4.36-1.86,1,.31,2.04,1.7,2.04,1.7.93,2.31,2.36,4.54,2.64,6.95.27,2.41-1.16,5.13-3.78,5.27-1.78.09-3.52-1.07-4.46-2.52s-1.24-3.14-1.4-4.77c-.16-1.63-.19-3.35.6-4.76Zm-11.33.25c.5-.7,1.18-1.35,2.1-1.53.92-.17,2.08.34,2.27,1.2.37,2.61.52,5.09-.91,7.25-.53.8-1.32,1.61-2.39,1.57-1.55-.06-2.44-1.79-2.55-3.21-.15-1.89.37-3.77,1.47-5.29Zm11.19-19.37c1.64.05,3.17,1.44,3.52,2.37.8,2.19-3.2,3.69-5.33,2.39-.4-.24-.76-.56-.98-.94-.19-.34-.28-.72-.28-1.1-.02-1.5,1.43-2.78,3.07-2.73Zm5.83-19.65c1.5-1.89,4.23-3.16,6.79-2.35,2.43.77,4,3.5,3.26,5.64,0,0-1.65,2-2.3,3.45-.79,1.77-1.29,4.15-3.39,4.43-.85.11-1.74-.21-2.5-.65-1.88-1.11-3.13-3.05-3.42-5.02-.29-1.98.34-3.96,1.57-5.5Zm-16.27,9.89c-2.18-.61-3.48-2.78-3.97-4.8-.21-.85-.35-1.77-1-2.43-.44-.46-1.08-.74-1.47-1.24-.58-.75-.41-1.74-.11-2.56.97-2.63,3.46-5.01,6.57-4.78,1.69.13,3.35,1.06,4.28,2.4.93,1.35,1.69,4.01,1.69,4.01.25,2.21.5,4.52-.38,6.52-.88,2-3.26,3.54-5.62,2.87Zm-20.03,15.54c1.81-2.12,4.5-3.72,7.54-3.8,5.87-.17,9.73,5.19,6.61,9.54-1.5,2.08-3.37,4.31-6.16,4.52-1.61.13-3.25-.46-4.71-1.2-2.51-1.27-4.96-3.49-4.77-6.01.09-1.15.73-2.18,1.49-3.05Zm-5.05-7.79c.21-.36.57-.61.94-.83,1.02-.58,2.3-.92,3.51-.6,1.23.31,2.29,1.43,2.15,2.55v.11c-1.19.87-2.52,1.78-4.1,1.71-1.59-.07-3.22-1.71-2.51-2.94Zm5.92-13.13c.51-.3,1.11-.49,1.72-.55,1.72-.17,3.48.49,5.07,1.25,2.26,1.09,4.39,2.42,6.34,3.95,1.85,1.46,1.2,3.66-.31,4.93-1.1.92-2.66,1.36-4.04.67-.93-.47-1.48-1.38-2.24-2.06-1.27-1.14-3.05-1.59-4.65-2.27-1.59-.68-3.24-1.88-3.37-3.44-.08-1.03.56-1.93,1.49-2.47Zm-9.76,6.78c1.26.09,2.29,1.02,3.18,1.88v.32c-1.05.8-2.62,1.01-3.96.5-.32-.12-.63-.28-.85-.53-.82-.92.38-2.27,1.63-2.17Z"/>
          <path class="cls-7" d="m69.13,79.82l13.74,6.23c1.66.76,3.36,1.52,5.17,1.8,1.95.3,3.9,0,5.8-.31,3.15-.5,6.4-1.04,8.95-2.71,1.22-.8,2.27-1.85,3.73-2.27,1.16-.33,2.49-.22,3.61-.65,1.05-.4,1.8-1.24,2.53-2.03,5.99-6.48,13.26-11.94,21.43-16.09,1.25-.63,2.58-1.3,3.19-2.48.08-.15.14-.29.18-.44-.32-.25-.71-.42-1.14-.43-.94-.04-1.79.51-2.73.41-.67-.07-1.28-.45-1.94-.59-1.49-.32-2.82.64-3.72,1.68-.89,1.04-1.65,2.27-2.96,2.84-.77.33-1.68.41-2.36.86-1.07.69-1.29,2.03-1.84,3.13-1.62,3.27-6.14,4.39-8.43,7.27-.7.87-1.21,1.93-2.24,2.47-1.21.64-2.8.4-4.14.79-2.76.79-4.06,4.06-6.98,4.35-1.28.13-2.63-.38-3.88-.13-.77.15-1.42.58-2.16.8-1.03.31-2.18.21-3.3.11-3.26-.3-6.57-.6-9.67-1.69-2.2-.77-4.26-1.92-6.5-2.57-1.41-.41-2.94-.59-4.32-.35Z"/>
          <path class="cls-1" d="m85.68,35.56c-.04.43-.18.88-.55,1.13-.58.4-1.47.16-2.13.44-.6.25-1.08.91-1.74.74-.55-.14-.77-.8-.63-1.28s.53-.85.82-1.26c.96-1.38.77-3.12.65-4.73-.07-.9-.65-2.76.77-2.22,1.12.42,1.44,2.26,1.76,3.1.51,1.34,1.18,2.69,1.05,4.1Z"/>
          <path class="cls-3" d="m119.26,26.89c2.13.65,3.99,2.19,4.93,4.07.81,1.62,1.04,3.57,2.54,4.74.66.51,1.5.81,2.09,1.39.42.41.68.93,1.01,1.4.83,1.19,2.08,2.11,3.04,3.22s1.61,2.65.96,3.84c-.28.51-.76.89-1.14,1.34-1.02,1.2-1.24,2.95-.56,4.44-2-.15-2.88-2.65-3.27-4.46s-.36-3.77-1.5-5.34c-.83-1.14-2.19-1.92-3.01-3.07-.37-.52-.62-1.1-1.07-1.57-.78-.79-1.97-1.06-3.03-1.48-2.07-.81-3.89-2.43-4.44-4.4s1.42-3.5,3.45-4.12Z"/>
          <path class="cls-1" d="m50.64,62.69c1.45,1.29,3.43,2.06,4.6,3.56.19.24.35.51.36.79.01.61-.78.97-1.44.84s-1.21-.6-1.7-1.05-1.02-.93-1.67-1.1c-.38-.1-.78-.09-1.16-.17-.73-.16-1.35-.67-1.77-1.26s-.66-1.25-.9-1.91c-.53-1.47-1.04-3.06-.5-4.45.22-.58.85-1.18,1.5-.64.31.25.33,1.54.46,1.93.42,1.28,1.15,2.5,2.23,3.46Z"/>
          <path class="cls-21" d="m49.65,62.69c.2.37.37.89,0,1.09-.28.15-.66-.03-.93-.24-1.08-.85-1.53-2.17-1.82-3.41-.07-.32-.14-.68.05-.94.68-.95,2.39,2.97,2.69,3.5Z"/>
          <path class="cls-5" d="m54.31,22c.2.54.61.98,1.21,1.02.55.04,1.02-.3,1.44-.61,2.24-1.65,4.8-2.93,7.42-4.05,7.45-3.19,16.63-5.09,24.3-1.25,4.38,2.19,7,.78,7.52-1.67-3.17-.44-6.34-.87-9.51-1.31-6.65-.92-13.61-1.81-19.72.2-3.83,1.26-7.05,3.58-10.2,5.87-.82.59-1.65,1.19-2.45,1.8Z"/>
        </g>
      </g>
    </g>
  </g>
</svg>