<?xml version="1.0" encoding="UTF-8"?>
<svg id="Layer_1" data-name="Layer 1" xmlns="http://www.w3.org/2000/svg" viewBox="0 0 258.29 123.79">
  <defs>
    <style>
      .cls-1 {
        opacity: .24;
      }

      .cls-1, .cls-2, .cls-3, .cls-4, .cls-5, .cls-6, .cls-7, .cls-8, .cls-9, .cls-10, .cls-11, .cls-12, .cls-13, .cls-14, .cls-15 {
        stroke-width: 0px;
      }

      .cls-1, .cls-14 {
        fill: #f2451d;
      }

      .cls-2 {
        fill: #ededed;
        opacity: .94;
      }

      .cls-3 {
        fill: #ff8440;
        opacity: .56;
      }

      .cls-4 {
        opacity: .51;
      }

      .cls-4, .cls-8 {
        fill: #e02d10;
      }

      .cls-5 {
        fill: #f7f9f8;
      }

      .cls-6 {
        fill: #d1d1d1;
      }

      .cls-7 {
        fill: #ddd;
      }

      .cls-9 {
        fill: #cc510d;
      }

      .cls-10 {
        fill: #64821c;
      }

      .cls-11 {
        fill: #fff;
      }

      .cls-12 {
        fill: #ef6a20;
      }

      .cls-13 {
        fill: #e8e3da;
      }

      .cls-15 {
        fill: #ffa37b;
      }
    </style>
  </defs>
  <g>
    <ellipse class="cls-9" cx="137.07" cy="70.54" rx="121.22" ry="53.25"/>
    <g>
      <path class="cls-13" d="m240.58,50.2v.45c0,39.26-53.86,71.09-120.29,71.09S0,89.91,0,50.65v-.45c0-.16,0-.31,0-.47,0-.2,0-.41.02-.62,0-.07,0-.14,0-.21C1.69,21.77,54.89,0,120.29,0s118.6,21.77,120.25,48.9c0,.07,0,.14,0,.21,0,.2,0,.41.02.62,0,.16,0,.31,0,.47Z"/>
      <path class="cls-11" d="m240.58,50.2v.18c-.24,27.64-54,50.02-120.29,50.02S.24,78.02,0,50.38v-.18c0-.16,0-.31,0-.47,0-.2,0-.41.02-.62,0-.07,0-.14,0-.21C1.69,21.77,54.89,0,120.29,0s118.6,21.77,120.25,48.9c0,.07,0,.14,0,.21,0,.2.02.41.02.62,0,.16,0,.31,0,.47Z"/>
      <path class="cls-7" d="m225.97,49.25c0,19.54-30.01,36.16-71.9,42.31-11.21,1.65-23.27,2.54-35.83,2.54-59.5,0-107.73-20.08-107.73-44.85S58.74,4.4,118.24,4.4c13.97,0,27.32,1.11,39.58,3.13,39.92,6.56,68.15,22.77,68.15,41.73Z"/>
      <path class="cls-6" d="m225.97,49.25c0,19.54-30.01,36.16-71.9,42.31,7.4-4.45,15.89-7.8,23.19-12.34,6.66-4.13,21.15-17.99,23.35-19.74s2.65-4.54,2.56-6.92c-.39-10.31-6.24-19.88-15.9-27.03-9.06-6.71-19.92-11.74-29.46-18,39.92,6.56,68.15,22.77,68.15,41.73Z"/>
      <ellipse class="cls-2" cx="118.24" cy="59.6" rx="84.86" ry="36.4"/>
      <path class="cls-7" d="m76.91,89.33c-13.94-2.76-26.55-8.98-35.3-17.41-2.33-2.24-4.42-4.68-5.5-7.38-2.39-5.99.52-12.57,5.53-17.62-3.38,8.72-.02,17.83,6.64,25.47,6.66,7.64,17.49,13.02,28.64,16.93Z"/>
      <path class="cls-5" d="m197.01,55.85c-14.58-14.94-46.52-24.51-70.54-27.91,39.77,0,63.55,11.83,70.54,27.91Z"/>
    </g>
  </g>
  <g>
    <path class="cls-3" d="m53.7,38.14c-3.27,3.12-6.05,7.41-4.53,11.43,1.22,3.21,5.05,6.01,3.96,9.26-.63,1.87-2.73,3.05-3.78,4.76-1.63,2.65-.35,6.13,2.17,8.17s5.99,2.93,9.37,3.46c9.25,1.45,18.82.74,28.05,2.25,8.47,1.39,16.49,4.62,25.05,5.49,9.04.91,18.18-.88,26.73-3.59,3.03-.96,6.07-2.04,9.28-2.33,5.67-.5,11.18,1.52,16.79,2.4s12.39.19,15.39-4.05c.59-.84,1-1.77,1.66-2.56,1.57-1.89,4.26-2.71,6.64-3.76,3.9-1.72,7.44-4.5,8.7-8.17,1.37-3.98-.15-8.35-2.71-11.85-5.3-7.23-14.69-11.51-24.25-13.43-9.56-1.91-19.48-1.76-29.28-1.97-16.36-.35-32.66-1.75-48.93-3.29-7.4-.7-15.59-1.8-23.01-1.49-6.6.27-13.05,5.17-17.32,9.25Z"/>
    <path class="cls-3" d="m56.37,46.34c.49,1.63,1.28,3.21,1.33,4.9.08,2.6-1.58,4.91-2.86,7.21s-2.19,5.22-.71,7.41c.87,1.28,2.38,2.01,3.86,2.58,14.87,5.73,32.19,1.18,47.42,5.93,3.74,1.17,7.45,2.91,11.38,2.73,5.07-.23,9.55-3.63,14.62-3.8,3.74-.12,7.39,1.54,11.12,1.25,3.36-.26,6.39-2.08,9.72-2.59,2.73-.42,5.52.05,8.26.41,5.13.66,10.33.91,15.51.74.63-.02,1.31-.06,1.81-.42.67-.48.85-1.35,1.09-2.12,1.24-3.93,5.14-6.4,8.26-9.21,4.48-4.04,7.75-10.62,4.74-15.76-2.19-3.74-6.88-5.33-11.25-6.25-7.12-1.49-14.42-1.97-21.68-2.56-13.53-1.1-27.03-2.61-40.46-4.53-11.29-1.61-22.63-3.49-34.08-3.43-5.54.03-10.84.9-16.31,1.59-2.83.35-6.08.12-8.39,1.97-3.85,3.08-4.69,9.62-3.38,13.95Z"/>
    <path class="cls-10" d="m65.03,17.38c2.68-4.75,6.3-9.19,11.11-11.05,4.91-1.9,10.3-.86,15.49-.52,4.54.3,9.11.06,13.6-.73,3.03-.53,6.33-1.27,9.04.32.19.11.4.25.48.48.1.25.02.53-.06.78-.97,2.87-3.44,4.87-6.08,5.88s-5.47,1.2-8.26,1.5c-7.27.77-14.45,2.33-21.58,4.08-1.94.48-3.92.98-5.91.78-1.98-.2-4.01-1.21-5-3.1"/>
    <path class="cls-14" d="m102.05,6c8.34-2.41,17.08-4.33,25.56-2.56,3.81.79,7.54,2.33,11.41,2.24,4.52-.1,8.82-2.41,13.34-2.51,6.59-.15,12.57,4.35,19.13,5.11,3.62.42,7.59-.24,10.62,1.95,3.3,2.38,4.17,7.17,4.61,11.47.1.98.18,2.02-.23,2.9-.54,1.18-1.79,1.71-2.94,2.12-8.62,3.08-17.65,4.52-26.65,5.78-10.51,1.47-21.11,2.72-31.68,2.01s-21.2-3.48-30.24-9.52c-11.16-7.46-1.36-16.55,7.07-18.99Z"/>
    <path class="cls-12" d="m147.97,15.24c-3.36-2.56-7.39-3.79-11.35-4.97-4.93-1.48-10.03-2.96-15.08-2.13-3.62.6-7.02,2.36-10.64,2.95-9.41,1.53-18.63-5.04-28.1-4.14-8.71.83-15.96,7.88-20.81,15.84,10.29.36,21.26,1,31.46-.52,12.83-1.91,25.73-6.12,38.5-3.75,2.97.55,5.93,1.46,8.94,1.38s5.54-1.81,7.07-4.65Z"/>
    <path class="cls-10" d="m138.23,12.96c4.77-1.34,9.92-1.7,14.62-.09,3.58,1.23,6.83,3.55,10.55,4.19,2.11.36,4.27.15,6.4-.06,5.45-.54,10.91-1.08,16.36-1.63.32,1.94.53,3.91.61,5.88.06,1.23.05,2.52-.46,3.63-.75,1.63-2.44,2.52-4.05,3.17-3.49,1.4-7.18,2.2-10.89,2.72-11.49,1.64-23.29.79-34.46-2.49-3.21-.94-12.18-3.28-11.34-8.12.74-4.25,9.38-6.28,12.65-7.2Z"/>
    <path class="cls-14" d="m187.68,50.14c-.08,1.08-.3,2.11-.62,3.12-.96,3.02-2.8,5.75-4.6,8.34-.54-.13-1.01,1.94-1.3,1.44-12.48,4.69-25.38,9.45-38.53,8.52-7.26-.52-14.33-2.75-21.56-3.72-10.84-1.44-21.81,0-32.74.26-10.92.26-22.12-.69-31.6-6.62-.13-1.83-.27-3.66-.4-5.51-.56-8.95-.64-18,1.97-26.45,3.15-10.17,11.28-19.32,21.1-19.54,4.66-.1,9.13,1.74,13.62,3.1,8.55,2.56,17.53,3.4,26.34,2.44,5.66-.62,11.28-1.98,16.96-1.69,8.05.41,15.62,4.07,23.45,6.18,7.82,2.11,16.84,2.41,23.15-3.05,2.24.38,3.31,3.24,3.88,5.65,1.43,6.1-.45,12.55.09,18.82.25,2.91,1.03,5.8.79,8.7Z"/>
    <path class="cls-3" d="m57.05,34.62c.09.2.2.4.33.6.07.11.15.23.24.33.16.2.33.37.52.52.76.63,1.73.98,2.69,1.17,1.32.26,2.69.3,3.95.77.98.37,1.87.98,2.87,1.24,1.22.31,2.49.08,3.73-.03,3.03-.25,6.07.29,9.11.6,8.77.9,17.54-.13,26.33-1.28.24-.03.47-.06.7-.09.27-.03.53-.07.79-.11,4.94-.64,9.88-1.28,14.83-1.61,2.86-.19,5.72-.27,8.59-.17.58.01,1.17.04,1.76.07.39.02.84.02,1.09-.32.07-.09.1-.21.13-.32.01-.03.02-.07.02-.11.01-.08.02-.17.03-.25.05-.5.09-1.02.08-1.53,0-.54-.06-1.06-.23-1.57-.32-.98-1.14-1.84-2.1-1.83-1.05,0-1.88,1.02-2.92,1.24-.82.18-1.65-.16-2.47-.37-3.68-.96-7.53.65-11.3.33-2.11-.18-4.17-.96-6.28-.8-1.59.13-3.11.78-4.69.96-3.23.37-6.37-1.26-9.61-1.4-.83-.04-1.65.02-2.48.09h0c-.95.09-1.9.19-2.86.19-.6,0-1.18-.04-1.77-.11-1.74-.21-3.45-.65-5.18-.99-5.98-1.18-12.11-1.06-18.18-.95-1.46.03-4.93.62-6.81,2.1l-.92,3.61Z"/>
    <path class="cls-15" d="m186.82,36.87c-.09.82.08,2.52,0,3.34-.85.21-10.82.46-14.16.64-3.68.2-7.37.39-11.05.25-2.5-.09-5-.34-7.5-.24-2.68.11-5.34.62-8.02.49-4.22-.19-8.36-1.94-12.57-1.56-3.67.33-7.17,2.27-10.84,2.08-3.7-.19-6.99-2.48-10.48-3.8-4.21-1.59-8.75-1.75-13.21-1.82-10.78-.16-21.56.17-32.34.49-3.27.1-6.55.2-9.81.57,2.38-3.02,7.06-1.84,10.69-1.57,9.07.68,18.19-3.5,27.13-1.66,1.57.32,3.16.83,4.74.59,1.39-.21,2.69-.99,4.09-1,.98,0,1.93.36,2.86.72,6.89,2.61,14.14,4.34,21.43,4.13,2.27-.07,4.53-.32,6.79-.49,6.06-.45,12.14-.3,18.21-.15,3.34.08,6.68.17,10.02.25,5.55.14,11.1.28,16.64.41,1.43.04,6.02-2.16,7.38-1.68Z"/>
    <path class="cls-15" d="m160.25,33.56c2.11-.61,4.43-.49,6.35-1.63,1.59-.95,2.68-2.64,4-4,3.05-3.14,7.36-4.55,10.3-7.81.84-.93,1.78-2.1,2.96-1.9-.95,2.46-2.98,4.21-5.11,5.52s-4.43,2.29-6.44,3.8c-3.95,2.97-6.81,7.97-11.46,9.26-1.37.38-2.9.44-3.97,1.45-.57.53-.95,1.29-1.58,1.73-2.75,1.9-.56-2.51.2-3.36,1.3-1.45,2.95-2.53,4.75-3.04Z"/>
    <path class="cls-15" d="m102,62.33c-.9.14-1.72-.54-2.42-1.18-2.8-2.58-5.65-5.22-7.52-8.66-1.75-3.23-2.53-6.98-4-10.38-1.47-3.4-4-6.65-7.4-7.18,3.88-.12,7.41,2.94,8.47,7.03.29,1.13.4,2.34.91,3.38.47.95,1.23,1.68,1.78,2.57,1.2,1.97,1.27,4.64,2.68,6.43.69.87,1.62,1.44,2.46,2.13,2.01,1.66,3.65,3.57,5.04,5.87Z"/>
    <path class="cls-15" d="m107.42,28.8c2.61-.94,5.47-.53,8.14-1.2,3.01-.75,5.59-2.8,8.2-4.59,5.72-3.91,12.04-6.76,18.61-8.42-5.43,4.25-12.37,5.51-18.11,9.23-1.98,1.28-3.82,2.86-5.94,3.83-2.75,1.26-5.81,1.42-8.71,2.19-1.93.51-7.33,5.91-9,5.18,1-1.79,4.99-5.58,6.8-6.23Z"/>
    <path class="cls-3" d="m136.17,52.75c-10.37,2.72-20.82-4.65-31.48-4.33-5.69.17-11.25,2.53-16.94,2.18-5.57-.35-10.69-3.26-16-5.15s-11.57-2.62-16.09.97c.73,1.54-.14,3.14.15,4.85s1.12,3.56,2.66,3.97c1.24.33,2.49-.39,3.75-.67,3.7-.85,7.16,2.04,10.82,3.05,5.69,1.56,11.76-1.51,17.51-.19,3.73.86,7.14,3.55,10.95,3.38,3.14-.14,6.2-2.22,9.25-1.43,1.7.44,3.2,1.75,4.95,1.83,2.18.1,4.14-1.75,6.32-1.66,1.25.06,2.39.74,3.61,1.05,4.69,1.19,7.41-3.83,10.52-7.85Z"/>
    <path class="cls-15" d="m183.45,56.81c-1.38.5-2.97.27-4.19-.62-.44-.32-.84-.73-1.34-.94-1.39-.59-2.89.55-4.39.59-1.66.05-3.08-1.25-4.68-1.69-1.74-.47-3.6.07-5.34-.41-1.85-.51-3.28-2.11-5.03-2.93-3.51-1.63-7.86.03-11.19-2-3.59-2.19-4.56-7.83-8.26-9.79,3.35,6.92,8.97,12.47,16.04,13.72,4.1.72,8.4.25,12.33,1.72,3.91,1.46,7.79,4.83,11.71,3.38.97-.36,1.84-.99,2.81-1.33s.85-.54,1.53.29Z"/>
    <path class="cls-8" d="m187.06,53.26c-.96,3.02-2.8,5.75-4.6,8.34-.54-.13-1.01,1.94-1.3,1.44-12.48,4.69-25.38,9.45-38.53,8.52-7.26-.52-14.33-2.75-21.56-3.72-10.84-1.44-21.81,0-32.74.26-10.92.26-22.12-.69-31.6-6.62-.13-1.83-.27-3.66-.4-5.51,2.02,1.3,4.38,1.99,6.71,1.91,2.1-.06,4.18-.71,6.29-.53,4.09.32,7.43,3.62,11.32,5.04,6.63,2.43,13.86-.81,20.84-.27,4.1.31,8.09,1.95,12.2,1.74,3.26-.16,6.47-1.48,9.71-1.09,3.99.47,7.52,3.49,11.55,3.52,3.77.02,7.29-2.61,11.04-2.25,1.88.17,3.67,1.09,5.55,1.17,4.75.19,8.59-4.85,13.33-4.96,1.61-.03,3.2.51,4.8.51,5.85,0,10.33-6.98,16.17-6.64.29-.46.73-.74,1.23-.85Z"/>
    <path class="cls-4" d="m180.72,24.62c-.86.98-2.3,1.05-3.49.65s-2.24-1.18-3.39-1.71c-4.06-1.85-8.68-.3-13.08-.44-6.17-.21-11.98-3.81-18.15-3.69-4.92.09-9.58,2.55-14.48,2.89-6.72.46-13.08-3.04-19.72-4.26-6.57-1.2-13.48-.08-19.45,3.16,3.63,1.25,7.91-.46,11.62-1.4,3.45-.87,7.1-.82,10.53.14,3.76,1.06,7.36,3.22,11.25,3.12,2.21-.06,4.44-.85,6.59-.3,1.98.5,3.59,2.07,5.5,2.82,4.74,1.87,10.01-1.58,14.96-.54,2.17.46,4.22,1.78,6.43,1.64,2.1-.13,4.05-1.56,6.14-1.38,1.74.15,3.31,1.39,5.05,1.34,1.37-.04,2.64-.89,4.01-.87,1.67.02,3.35,1.33,4.91.66.77-.33,1.38-1.13,2.21-1.21.56-.06,1.1.24,1.67.31s.91-.3.91-.92Z"/>
    <path class="cls-4" d="m145.24,51.56c-2.56.39-5.12.78-7.68,1.17-2.35.36-4.75.72-7.09.3-2.65-.47-5.1-1.91-7.77-2.24-3.83-.47-7.6,1.42-11.46,1.39-4.06-.03-7.86-2.17-11.89-2.77-4.3-.64-8.66.49-13,.35-4.17-.14-8.24-1.44-12.38-2.05s-8.63-.41-12.1,2.13c1.26-2.1,4.1-1.21,6.35-.68,2.25.53,4.27,1.85,6.45,2.63,6.21,2.23,13,0,19.49.83,2.81.36,5.58,1.31,8.41,1.26,2.92-.05,5.75-1.15,8.66-1.48,3.66-.42,7.32.39,10.96.99,4.07.68,8.17,1.1,12.27,1.52,2.37.24,4.74.49,7.12.73,1.23.13,2.52.24,3.63-.34s.61-2.56.03-3.74Z"/>
    <path class="cls-1" d="m146.67,9.75c4.74-.19,9.51.38,14.11,1.69,3.17.9,6.28,2.16,9.53,2.54,2.52.3,5.06.06,7.57-.34,1.49-.24,3.02-.54,4.49-.19,3.43.82,5.47,5.65,3.81,9.03-.09.18-.19.36-.35.46-.21.13-.47.09-.71.05-4.19-.81-8.14-2.95-12.39-3.17-4.84-.25-9.5,2.01-14.34,2.43-4.04.35-8.07-.58-12.04-1.51-2.75-.65-13.38-1.13-12.86-5.54.56-4.77,9.99-5.32,13.18-5.45Z"/>
    <path class="cls-11" d="m73.42,12.44c3.35-1.48,7.23-1.47,10.57.03-1.62-.73-5.45.83-7.04,1.38-2.42.84-4.73,2.03-6.85,3.54-1.33.94-4.64,2.72-2.31-.4,1.49-1.99,3.44-3.59,5.62-4.55Z"/>
    <path class="cls-11" d="m94.88,16.33c.19-.11.39-.29.37-.53-.2-1.89-4.66-3.23-5.68-1.44-1.54,2.71,4.04,2.7,5.31,1.97Z"/>
  </g>
</svg>