<?xml version="1.0" encoding="UTF-8"?>
<svg xmlns="http://www.w3.org/2000/svg" viewBox="0 0 258.29 123.79">
  <defs>
    <style>
      .cls-1 {
        fill: #ff9810;
      }

      .cls-1, .cls-2 {
        mix-blend-mode: multiply;
      }

      .cls-1, .cls-2, .cls-3, .cls-4, .cls-5, .cls-6, .cls-7, .cls-8, .cls-9, .cls-10, .cls-11, .cls-12, .cls-13 {
        stroke-width: 0px;
      }

      .cls-2 {
        fill: #bcb3a6;
      }

      .cls-3 {
        fill: #ededed;
        opacity: .94;
      }

      .cls-14 {
        isolation: isolate;
      }

      .cls-4 {
        fill: #f7f9f8;
      }

      .cls-5 {
        fill: #d1d1d1;
      }

      .cls-6 {
        fill: #ddd;
      }

      .cls-7 {
        fill: #cc510d;
      }

      .cls-8 {
        fill: #fff;
      }

      .cls-9 {
        fill: #e8e3da;
      }

      .cls-10 {
        fill: #ffe269;
      }

      .cls-11 {
        fill: #ffe783;
      }

      .cls-12 {
        fill: #ffbc00;
      }

      .cls-13 {
        fill: #ffce00;
      }
    </style>
  </defs>
  <g class="cls-14">
    <g id="Layer_1" data-name="Layer 1">
      <g>
        <ellipse class="cls-7" cx="137.07" cy="70.54" rx="121.22" ry="53.25"/>
        <g>
          <path class="cls-9" d="m240.58,50.2v.45c0,39.26-53.86,71.09-120.29,71.09S0,89.91,0,50.65v-.45c0-.16,0-.31,0-.47,0-.2,0-.41.02-.62,0-.07,0-.14,0-.21C1.69,21.77,54.89,0,120.29,0s118.6,21.77,120.25,48.9c0,.07,0,.14,0,.21,0,.2,0,.41.02.62,0,.16,0,.31,0,.47Z"/>
          <path class="cls-8" d="m240.58,50.2v.18c-.24,27.64-54,50.02-120.29,50.02S.24,78.02,0,50.38v-.18c0-.16,0-.31,0-.47,0-.2,0-.41.02-.62,0-.07,0-.14,0-.21C1.69,21.77,54.89,0,120.29,0s118.6,21.77,120.25,48.9c0,.07,0,.14,0,.21,0,.2.02.41.02.62,0,.16,0,.31,0,.47Z"/>
          <path class="cls-6" d="m225.97,49.25c0,19.54-30.01,36.16-71.9,42.31-11.21,1.65-23.27,2.54-35.83,2.54-59.5,0-107.73-20.08-107.73-44.85S58.74,4.4,118.24,4.4c13.97,0,27.32,1.11,39.58,3.13,39.92,6.56,68.15,22.77,68.15,41.73Z"/>
          <path class="cls-5" d="m225.97,49.25c0,19.54-30.01,36.16-71.9,42.31,7.4-4.45,15.89-7.8,23.19-12.34,6.66-4.13,21.15-17.99,23.35-19.74s2.65-4.54,2.56-6.92c-.39-10.31-6.24-19.88-15.9-27.03-9.06-6.71-19.92-11.74-29.46-18,39.92,6.56,68.15,22.77,68.15,41.73Z"/>
          <ellipse class="cls-3" cx="118.24" cy="59.6" rx="84.86" ry="36.4"/>
          <path class="cls-6" d="m76.91,89.33c-13.94-2.76-26.55-8.98-35.3-17.41-2.33-2.24-4.42-4.68-5.5-7.38-2.39-5.99.52-12.57,5.53-17.62-3.38,8.72-.02,17.83,6.64,25.47,6.66,7.64,17.49,13.02,28.64,16.93Z"/>
          <path class="cls-4" d="m197.01,55.85c-14.58-14.94-46.52-24.51-70.54-27.91,39.77,0,63.55,11.83,70.54,27.91Z"/>
          <g>
            <path class="cls-2" d="m39.1,65.41c2.19,5.56,6.37,9.94,11.06,13.15,7.41,5.09,16.3,7.53,25.03,6.89,4.35-.32,8.64-1.38,13-1.65,3.35-.21,6.71.05,10.06.17,9.3.33,18.6-.45,27.87-1.23,15.46-1.3,30.91-2.59,46.37-3.89,5.73-.48,11.52-.97,16.99-2.92,5.46-1.95,10.65-5.51,13.62-10.9,2.1-3.81,2.98-8.34,3-12.79.03-6.36-1.87-13.08-6.41-17.04-6.39-5.58-15.53-4.15-23.67-3.32-14.79,1.51-29.72.04-44.54,1.15-12.41.93-24.64,3.65-36.88,6.05-13.82,2.71-27.75,5.02-41.79,5.41-4.07.12-10.18.34-13.04,4.15-3.24,4.32-2.52,12.07-.66,16.79Z"/>
            <g>
              <path class="cls-12" d="m203.92,50.01c-.27,29.24-45.69,33.68-68.28,20.37-13.53-7.97-12.56-19.42-10.87-24.56,3.76-11.44,26.24-6.9,38.06-7.52,14.66-.45,29.49,2.4,41.1,11.72Z"/>
              <path class="cls-11" d="m124.77,45.81c-1.3,6.69,1.32,13.25,6.97,17.92,7.39,6.11,17.43,9.22,27.33,10.27,17.69,1.88,41.07-3.94,44.52-21.59,1.85-9.46-3.03-18.98-12-24.45-9.01-5.49-21.04-5.46-31.53-4.76-10.14.68-20.69,3.25-27.94,9.8-3.72,3.36-6.4,7.98-7.34,12.8Z"/>
              <path class="cls-13" d="m144.02,68.4l.36.12c-.1-.05-.2-.09-.3-.14,1.06-.71,1.48-2.03,2.65-2.6.2.12.14.39.06.58-.35.82-.71,1.64-1.06,2.46.21,0,.43-.03.62-.11-.26.28-.13.76.23.94s.86.07,1.11-.21c.02.29.52.39.78.22s.36-.49.43-.77.18-.6.45-.76c.02.67.04,1.35.07,2.02,0,.12,0,.24.07.34.14.23.51.28.8.22s1.34-.56,1.64-.58c-.14.09-.27.19-.41.28.35-.64.74-1.27,1.17-1.87-.03.85-.16,1.7-.4,2.52.08-.17.36-.23.54-.14s.27.31.23.49c.13-.21.42-.34.68-.27s.43.36.3.56l.85-1.21c.1.42.07.85-.08,1.25.63.2,1.28.33,1.95.38.37-.83.73-1.66,1.1-2.48,0,.61,0,1.23.01,1.84,0,.1,0,.2.06.29.12.19.43.2.63.33.16.11.24.3.41.41.32.21.76,0,1.12-.15s.95-.12.99.23c.34-.2.8-.13,1.22-.12s.93-.12,1-.48c.27.36,1.54.41,1.6-.02.18-1.43.35-2.85.53-4.28.02-.2.16-.47.38-.4.39,1.34,0,2.74.11,4.12.03.38.18.83.6.91.44.08.78-.34.9-.72.15-.45.18-.93.1-1.4-.07-.39-.12-.92.31-1.03.2,1.02.23,2.06.07,3.08.77-.44,1.73-.6,2.64-.45.07-1.94-.11-3.89-.56-5.8.2,0,.29.21.33.38.32,1.52.85,3.12,1.13,4.64.3-.16.62.17.77.46.23-.38.97-.35,1.17.04.11-.22.21-.44.32-.65.17.08.31.21.39.37.15-.36.86-.07,1.18-.33.08-.07.12-.16.17-.25.14-.26.49-.51.75-.34.09.06.14.15.2.22.37.47,1.72.35,2.09-.12.09-2.23.17-4.49-.4-6.67-.22-.83-.54-1.68-.37-2.52.01-.06.03-.13.08-.17.14-.11.35.03.45.17.49.69.5,1.55.51,2.36.02,1.83.09,3.68.54,5.47.14.57.48,1.24,1.14,1.26.63.02,1.16-.69,1.38-1.21-.34-1.78-.67-3.55-1.01-5.33-.03-.17,0-.41.2-.39.83,1.87.71,4,1.67,5.83.1.18.28.39.5.34.17-.05.23-.23.25-.38.09-.6.07-1.22-.07-1.82.58.2.9.73,1.14,1.24.06.14.13.28.26.38s.35.11.45,0c.09-.1.05-.25,0-.37-.17-.48-.33-.96-.5-1.44-.03-.07-.05-.15-.01-.22.1-.19.43-.04.54.14.14.22.19.47.3.71s.29.47.57.54.88-.32.76-.55c-.72-1.3-1.24-2.68-1.55-4.09.84.23,1.3,1.01,1.67,1.71s.86,1.48,1.71,1.67c.23-.83-1.05-1.54-.9-2.39.58.51,1.16,1.03,1.74,1.54.14.13.41.25.52.11.05-.06.04-.15.02-.22-.09-.29-.35-.51-.52-.77s-.19-.65.1-.81c.4.35.77.72,1.11,1.1.08-.06.13-.16.12-.26.27.23.67.34,1.04.29.13-.31.58-.6.79-.86.3-.37.61-.75.91-1.12.21-.26.43-.57.32-.87.3-.22.6-.44.9-.67-.55-.3-1.02-.73-1.33-1.23.48.12.97.25,1.45.37.09.02.19.05.27.02.21-.07.16-.37,0-.5s-.41-.18-.59-.31-.22-.43,0-.5c.24.53,1.03.82,1.62.57s.84-.96.51-1.46c-.18-.27-.48-.46-.77-.64-.99-.61-1.98-1.22-2.97-1.83,1.87-.42,3.42,2.08,5.29,1.67.1-.02.22-.07.25-.16.02-.07,0-.14-.05-.2-.5-.82-1.87-1.08-2.17-1.96,1.15.25,2.24.74,3.14,1.41-.18-.17-.05-.46.16-.6s.47-.23.64-.4c.51-.54-.24-1.78.55-1.91.41-.07.48-.61.22-.9s-.69-.41-1.07-.57-.77-.44-.78-.81c.71.05,1.41.12,2.12.2-.19-.17-.29-.42-.25-.66.17,0,.34-.01.51-.02-.28-.11-.53-.27-.73-.48.14-.34.65-.41.95-.67.36-.32.29-.87-.03-1.23s-.81-.55-1.28-.71c-1.24-.41-2.54-.68-3.85-.8,1.59-.22,3.19-.44,4.78-.66-.3-.51-.92-.86-1.57-.89.15-.19.3-.39.45-.58-.74.1-1.48.2-2.22.3.97-.48,1.93-.95,2.9-1.43-.61-.2-.16-1.12-.62-1.53-.12-.1-.29-.17-.33-.31-.06-.18.14-.34.23-.5.17-.32.02-.93-.38-.95-.17-.17-.41-.29-.67-.31.04-.2.15-.39.31-.53-.19.11-.47.1-.65-.03.17-.29.76-.3.82-.63.04-.19-.17-.37-.39-.41s-.44.03-.65.1c-1.07.36-2.09.81-3.05,1.36-.24-.19.05-.52.32-.67.99-.56,1.98-1.12,2.98-1.68-.1-.18-.36-.22-.56-.32s-.31-.4-.1-.47c-.4,0-.81-.02-1.21-.04.23-.36.67-.62,1.14-.67-.31-.26-.54-.58-.68-.94-.92.29-1.84.58-2.75.86.63-.59,1.4-1.06,2.25-1.38-.23.09-.52-.13-.46-.34.03-.09.1-.17.11-.26.02-.17-.18-.31-.37-.32s-.37.07-.54.16c-.55.26-1.09.53-1.64.79.43-.46.75-1.1,1.19-1.57-.31-.07-.54-.35-.53-.63-.11.08-.22.16-.33.23-.2-.14-.35-.32-.42-.53-2.03,1.93-4.38,3.6-6.94,4.95.21-.69.74-1.27,1.28-1.8,1.24-1.24,2.58-2.4,4-3.47.2-.15.42-.34.38-.57-.06-.34-.65-.51-.59-.84-.26.18-.7-.16-.54-.41-.2.1-.39.19-.59.29.17-.26-.16-.65-.5-.58-.15.03-.27.13-.38.22-1.02.87-1.98,1.8-2.87,2.77-.41.45-.89.96-1.56.98,1.08-1.69,2.44-3.24,4.03-4.59-.3-.3-.46-.7-.44-1.1-.56.1-1.28.14-1.75-.15-.17.07-.41-.06-.41-.23-.13.08-.25.16-.38.24-.06-.18-.13-.37-.19-.55-1.04.86-1.92,1.86-2.61,2.96.23-.85.66-1.66,1.26-2.36.33-.38.67-.99.2-1.25-.23-.13-.54-.05-.81-.05s-.62-.16-.56-.39c-.25.1-.51.2-.76.3.25-.12.15-.5-.12-.59s-.57.06-.72.27-.2.46-.25.71c-.25,1.19-.78,2.33-1.55,3.33,0-.83.46-1.6.78-2.38s.47-1.73-.1-2.4c-.37.23-1-.03-1.02-.44-.33.1-.63.26-.87.48-.18-.23-.32-.48-.41-.74-.59.16-.83.76-.91,1.3s-.12,1.13-.56,1.51c.08-.67.16-1.34.24-2.01.04-.3.06-.65-.19-.87-.37-.34-1-.12-1.46.12-.11-.46-.91-.63-1.25-.27-.12-.16-.24-.33-.35-.49-.1.19-.26.35-.46.45-.02-.15-.04-.31-.15-.42s-.35-.26-.43-.13c-.25-.1-.55.03-.69.24s-.16.45-.17.69c-.1,1.67-.2,3.33-.3,5-.39-.53-.37-1.2-.34-1.82.05-.97.1-1.95.15-2.92.01-.22.02-.46-.11-.66-.09-.13-.22-.23-.37-.31-.39-.21-.85-.31-1.31-.28-.11,0-.23.02-.34,0-.1-.02-.18-.07-.27-.1-.3-.08-.58.12-.86.24s-.91.18-.97-.09c-.47.11-.94.21-1.41.32l-1.31-.2c-.13.23-.27.46-.4.7-.27-.31-.54-.61-.81-.92-.41.18-.38.7-.28,1.1.56,2.43,1.13,4.86,1.69,7.29-1.87-2.27-1.09-5.57-2.8-7.92-.23.43-.97.56-1.38.24-.25.25-.49.49-.74.74-.28.02-.35-.32-.4-.56s-.43-.48-.54-.26c-.03.05-.02.11-.01.16l.48,4.54-1.2-4.78-.55.58-.4-.3c-.18.15-.36.3-.53.45.15-.25-.38-.47-.61-.27s-.2.53-.16.81c.14.85.28,1.71.42,2.56-.3-.66-.6-1.33-.89-1.99-.15-.33-.3-.66-.56-.93-.31-.32-.77-.53-1.25-.57-.21.26-.71.29-.96.06l-.27.66c-.18-.03-.35-.13-.45-.27.03.28-.03.56-.16.82-.13-.16-.27-.43-.4-.59-.3.22-.81.2-1.09-.05-.08.35-.65.52-.96.27-.19.22-.38.44-.57.65.04-.4-.79-.39-.94-.02s.12.78.34,1.13c.5.82.78,1.74.81,2.67-.75-1.15-1.39-2.35-1.89-3.6l-.63.85c-.19-.26-.47-.47-.79-.6.11.58.22,1.17.33,1.75-.32-.53-.65-1.07-.97-1.6-.3.19-.6.38-.9.56-.74.26-1.48.52-2.23.77-.11.04-.22.08-.3.15-.26.24-.05.63.16.91.96,1.31,1.59,2.8,1.83,4.33-.85-1.59-1.84-3.13-2.96-4.59-.29.44-1.07.56-1.52.23-.24.31-.49.63-.73.94-.06-.26-.57-.21-.68.04s.03.52.16.76c.49.87.99,1.73,1.48,2.6-.77-.74-1.55-1.48-2.32-2.22-.12-.12-.26-.24-.44-.26-.18-.02-.34.06-.49.15-.66.41-1.19.99-1.49,1.65l-.7.04c.22.34.43.69.65,1.03-.43-.08-.87-.15-1.3-.23.2.1-.02.37-.24.42s-.52.11-.53.31c0,.13.13.23.25.31.45.29.91.59,1.36.88-.68-.24-1.5-.49-2.19-.74-.88.54-1.86,1.26-1.73,2.2.13,1,1.42,1.51,2.52,1.78s2.4.62,2.75,1.58c-1.83-1.03-3.89-1.76-6.02-2.13-.17-.03-.36-.05-.51.03-.11.07-.16.18-.2.29-.21.53-.43,1.05-.64,1.58-.11.28-.2.63.05.82.12.09.29.11.41.19s.17.28.03.34c-.22-.37-.92-.25-1.15.11s-.13.81-.02,1.22c.06.23.13.48.31.65.24.23.63.29.97.35,1.4.25,2.74.83,3.82,1.65-1.5-.5-3-1.01-4.49-1.51-.31-.11-.72-.2-.95.01-.15.13-.16.34-.17.53l-.1,3.98c.39-.01.49.03.82.22-.33.18-.67.37-1,.55l.8.04-.64.5c1.14-.24,2.35-.19,3.47.14-.93.13-1.85.32-2.74.59-.44.13-.96.4-.89.8.07.37.61.51,1.03.45s.82-.24,1.24-.21c-.4.21-.81.42-1.21.64.15.07.33.1.49.08l-.52.48.44.19-.25.66c.15.09.34.14.52.15-.26.27-.37.63-.31.98,1.11-.33,2.21-.66,3.32-.99.36-.11.94-.08.92.25-1.16.08-2.28.47-3.17,1.12-.26.19-.52.47-.4.75.16.37.77.32,1.2.2,1.9-.54,3.8-1.07,5.69-1.61.1.37-.38.64-.78.77-1.35.47-2.71.94-4.06,1.41-.38.13-.8.31-.89.66-.05.18,0,.36.08.54.44,1,1.65,1.7,2.87,1.66-.15.31-.3.61-.45.92l.65-.24c-.03.5.29,1.01.79,1.25.32-.28,1.03.05,1.1.44.04.21-.07.43.03.63.14.29.71.26.81-.04-.06.51-.06,1.14.45,1.39.59.29,1.26-.19,1.72-.61,1.24-1.14,2.59-2.19,4.04-3.12-.62,1.65-2.73,2.49-3.7,4-.21.33-.24.89.18.94.16.02.31-.05.45-.13.5-.26,1.01-.53,1.51-.79-.18.46-.34.92-.48,1.39.22-.09.44-.18.66-.26-.23.3-.29.69-.17,1.04.27-.16.61-.23.94-.21-.23.14-.04.5.23.55s.55-.08.78-.21c-.02.29.01.59.09.88.16-.08.32-.15.48-.23.13.07.38.18.53.23Z"/>
              <ellipse class="cls-10" cx="165.64" cy="48.25" rx="2.07" ry="1.22" transform="translate(-4.28 18.38) rotate(-6.27)"/>
            </g>
            <path class="cls-1" d="m170.38,39.09c4.63,5.67,6.63,13.12,5.12,20.28-1.27,6.03-8.16,12.28-11.3,13.92-5.7,2.98-10.4,4.32-16.52,2.36s-11.32-7.02-12.82-13.27c-.9-3.74-.49-7.7.52-11.42,2.17-7.94,7.24-15.03,13.72-20.08,6.24-4.86,17.3,3.35,21.27,8.21Z"/>
            <g>
              <path class="cls-12" d="m174.43,51.6c-.27,29.24-45.69,33.68-68.28,20.37-13.53-7.97-12.56-19.42-10.87-24.56,3.76-11.44,26.24-6.9,38.06-7.52,14.66-.45,29.49,2.4,41.1,11.72Z"/>
              <path class="cls-11" d="m95.28,47.41c-1.3,6.69,1.32,13.25,6.97,17.92,7.39,6.11,17.43,9.22,27.33,10.27,17.69,1.88,41.07-3.94,44.52-21.59,1.85-9.46-3.03-18.98-12-24.45-9.01-5.49-21.04-5.46-31.53-4.76-10.14.68-20.69,3.25-27.94,9.8-3.72,3.36-6.4,7.98-7.34,12.8Z"/>
              <path class="cls-13" d="m114.53,70l.36.12c-.1-.05-.2-.09-.3-.14,1.06-.71,1.48-2.03,2.65-2.6.2.12.14.39.06.58-.35.82-.71,1.64-1.06,2.46.21,0,.43-.03.62-.11-.26.28-.13.76.23.94s.86.07,1.11-.21c.02.29.52.39.78.22s.36-.49.43-.77.18-.6.45-.76c.02.67.04,1.35.07,2.02,0,.12,0,.24.07.34.14.23.51.28.8.22s1.34-.56,1.64-.58c-.14.09-.27.19-.41.28.35-.64.74-1.27,1.17-1.87-.03.85-.16,1.7-.4,2.52.08-.17.36-.23.54-.14s.27.31.23.49c.13-.21.42-.34.68-.27s.43.36.3.56l.85-1.21c.1.42.07.85-.08,1.25.63.2,1.28.33,1.95.38.37-.83.73-1.66,1.1-2.48,0,.61,0,1.23.01,1.84,0,.1,0,.2.06.29.12.19.43.2.63.33.16.11.24.3.41.41.32.21.76,0,1.12-.15s.95-.12.99.23c.34-.2.8-.13,1.22-.12s.93-.12,1-.48c.27.36,1.54.41,1.6-.02.18-1.43.35-2.85.53-4.28.02-.2.16-.47.38-.4.39,1.34,0,2.74.11,4.12.03.38.18.83.6.91.44.08.78-.34.9-.72.15-.45.18-.93.1-1.4-.07-.39-.12-.92.31-1.03.2,1.02.23,2.06.07,3.08.77-.44,1.73-.6,2.64-.45.07-1.94-.11-3.89-.56-5.8.2,0,.29.21.33.38.32,1.52.85,3.12,1.13,4.64.3-.16.62.17.77.46.23-.38.97-.35,1.17.04.11-.22.21-.44.32-.65.17.08.31.21.39.37.15-.36.86-.07,1.18-.33.08-.07.12-.16.17-.25.14-.26.49-.51.75-.34.09.06.14.15.2.22.37.47,1.72.35,2.09-.12.09-2.23.17-4.49-.4-6.67-.22-.83-.54-1.68-.37-2.52.01-.06.03-.13.08-.17.14-.11.35.03.45.17.49.69.5,1.55.51,2.36.02,1.83.09,3.68.54,5.47.14.57.48,1.24,1.14,1.26.63.02,1.16-.69,1.38-1.21-.34-1.78-.67-3.55-1.01-5.33-.03-.17,0-.41.2-.39.83,1.87.71,4,1.67,5.83.1.18.28.39.5.34.17-.05.23-.23.25-.38.09-.6.07-1.22-.07-1.82.58.2.9.73,1.14,1.24.06.14.13.28.26.38s.35.11.45,0c.09-.1.05-.25,0-.37-.17-.48-.33-.96-.5-1.44-.03-.07-.05-.15-.01-.22.1-.19.43-.04.54.14.14.22.19.47.3.71s.29.47.57.54.88-.32.76-.55c-.72-1.3-1.24-2.68-1.55-4.09.84.23,1.3,1.01,1.67,1.71s.86,1.48,1.71,1.67c.23-.83-1.05-1.54-.9-2.39.58.51,1.16,1.03,1.74,1.54.14.13.41.25.52.11.05-.06.04-.15.02-.22-.09-.29-.35-.51-.52-.77s-.19-.65.1-.81c.4.35.77.72,1.11,1.1.08-.06.13-.16.12-.26.27.23.67.34,1.04.29.13-.31.58-.6.79-.86.3-.37.61-.75.91-1.12.21-.26.43-.57.32-.87.3-.22.6-.44.9-.67-.55-.3-1.02-.73-1.33-1.23.48.12.97.25,1.45.37.09.02.19.05.27.02.21-.07.16-.37,0-.5s-.41-.18-.59-.31-.22-.43,0-.5c.24.53,1.03.82,1.62.57s.84-.96.51-1.46c-.18-.27-.48-.46-.77-.64-.99-.61-1.98-1.22-2.97-1.83,1.87-.42,3.42,2.08,5.29,1.67.1-.02.22-.07.25-.16.02-.07,0-.14-.05-.2-.5-.82-1.87-1.08-2.17-1.96,1.15.25,2.24.74,3.14,1.41-.18-.17-.05-.46.16-.6s.47-.23.64-.4c.51-.54-.24-1.78.55-1.91.41-.07.48-.61.22-.9s-.69-.41-1.07-.57-.77-.44-.78-.81c.71.05,1.41.12,2.12.2-.19-.17-.29-.42-.25-.66.17,0,.34-.01.51-.02-.28-.11-.53-.27-.73-.48.14-.34.65-.41.95-.67.36-.32.29-.87-.03-1.23s-.81-.55-1.28-.71c-1.24-.41-2.54-.68-3.85-.8,1.59-.22,3.19-.44,4.78-.66-.3-.51-.92-.86-1.57-.89.15-.19.3-.39.45-.58-.74.1-1.48.2-2.22.3.97-.48,1.93-.95,2.9-1.43-.61-.2-.16-1.12-.62-1.53-.12-.1-.29-.17-.33-.31-.06-.18.14-.34.23-.5.17-.32.02-.93-.38-.95-.17-.17-.41-.29-.67-.31.04-.2.15-.39.31-.53-.19.11-.47.1-.65-.03.17-.29.76-.3.82-.63.04-.19-.17-.37-.39-.41s-.44.03-.65.1c-1.07.36-2.09.81-3.05,1.36-.24-.19.05-.52.32-.67.99-.56,1.98-1.12,2.98-1.68-.1-.18-.36-.22-.56-.32s-.31-.4-.1-.47c-.4,0-.81-.02-1.21-.04.23-.36.67-.62,1.14-.67-.31-.26-.54-.58-.68-.94-.92.29-1.84.58-2.75.86.63-.59,1.4-1.06,2.25-1.38-.23.09-.52-.13-.46-.34.03-.09.1-.17.11-.26.02-.17-.18-.31-.37-.32s-.37.07-.54.16c-.55.26-1.09.53-1.64.79.43-.46.75-1.1,1.19-1.57-.31-.07-.54-.35-.53-.63-.11.08-.22.16-.33.23-.2-.14-.35-.32-.42-.53-2.03,1.93-4.38,3.6-6.94,4.95.21-.69.74-1.27,1.28-1.8,1.24-1.24,2.58-2.4,4-3.47.2-.15.42-.34.38-.57-.06-.34-.65-.51-.59-.84-.26.18-.7-.16-.54-.41-.2.1-.39.19-.59.29.17-.26-.16-.65-.5-.58-.15.03-.27.13-.38.22-1.02.87-1.98,1.8-2.87,2.77-.41.45-.89.96-1.56.98,1.08-1.69,2.44-3.24,4.03-4.59-.3-.3-.46-.7-.44-1.1-.56.1-1.28.14-1.75-.15-.17.07-.41-.06-.41-.23-.13.08-.25.16-.38.24-.06-.18-.13-.37-.19-.55-1.04.86-1.92,1.86-2.61,2.96.23-.85.66-1.66,1.26-2.36.33-.38.67-.99.2-1.25-.23-.13-.54-.05-.81-.05s-.62-.16-.56-.39c-.25.1-.51.2-.76.3.25-.12.15-.5-.12-.59s-.57.06-.72.27-.2.46-.25.71c-.25,1.19-.78,2.33-1.55,3.33,0-.83.46-1.6.78-2.38s.47-1.73-.1-2.4c-.37.23-1-.03-1.02-.44-.33.1-.63.26-.87.48-.18-.23-.32-.48-.41-.74-.59.16-.83.76-.91,1.3s-.12,1.13-.56,1.51c.08-.67.16-1.34.24-2.01.04-.3.06-.65-.19-.87-.37-.34-1-.12-1.46.12-.11-.46-.91-.63-1.25-.27-.12-.16-.24-.33-.35-.49-.1.19-.26.35-.46.45-.02-.15-.04-.31-.15-.42s-.35-.26-.43-.13c-.25-.1-.55.03-.69.24s-.16.45-.17.69c-.1,1.67-.2,3.33-.3,5-.39-.53-.37-1.2-.34-1.82.05-.97.1-1.95.15-2.92.01-.22.02-.46-.11-.66-.09-.13-.22-.23-.37-.31-.39-.21-.85-.31-1.31-.28-.11,0-.23.02-.34,0-.1-.02-.18-.07-.27-.1-.3-.08-.58.12-.86.24s-.91.18-.97-.09c-.47.11-.94.21-1.41.32l-1.31-.2c-.13.23-.27.46-.4.7-.27-.31-.54-.61-.81-.92-.41.18-.38.7-.28,1.1l1.69,7.29c-1.87-2.27-1.09-5.57-2.8-7.92-.23.43-.97.56-1.38.24-.25.25-.49.49-.74.74-.28.02-.35-.32-.4-.56s-.43-.48-.54-.26c-.03.05-.02.11-.01.16.16,1.51.32,3.03.48,4.54-.4-1.59-.8-3.19-1.2-4.78l-.55.58-.4-.3c-.18.15-.36.3-.53.45.15-.25-.38-.47-.61-.27s-.2.53-.16.81c.14.85.28,1.71.42,2.56-.3-.66-.6-1.33-.89-1.99-.15-.33-.3-.66-.56-.93-.31-.32-.77-.53-1.25-.57-.21.26-.71.29-.96.06l-.27.66c-.18-.03-.35-.13-.45-.27.03.28-.03.56-.16.82-.13-.16-.27-.43-.4-.59-.3.22-.81.2-1.09-.05-.08.35-.65.52-.96.27-.19.22-.38.44-.57.65.04-.4-.79-.39-.94-.02s.12.78.34,1.13c.5.82.78,1.74.81,2.67-.75-1.15-1.39-2.35-1.89-3.6l-.63.85c-.19-.26-.47-.47-.79-.6.11.58.22,1.17.33,1.75-.32-.53-.65-1.07-.97-1.6-.3.19-.6.38-.9.56-.74.26-1.48.52-2.23.77-.11.04-.22.08-.3.15-.26.24-.05.63.16.91.96,1.31,1.59,2.8,1.83,4.33-.85-1.59-1.84-3.13-2.96-4.59-.29.44-1.07.56-1.52.23-.24.31-.49.63-.73.94-.06-.26-.57-.21-.68.04s.03.52.16.76c.49.87.99,1.73,1.48,2.6-.77-.74-1.55-1.48-2.32-2.22-.12-.12-.26-.24-.44-.26-.18-.02-.34.06-.49.15-.66.41-1.19.99-1.49,1.65l-.7.04c.22.34.43.69.65,1.03-.43-.08-.87-.15-1.3-.23.2.1-.02.37-.24.42s-.52.11-.53.31c0,.13.13.23.25.31.45.29.91.59,1.36.88-.68-.24-1.5-.49-2.19-.74-.88.54-1.86,1.26-1.73,2.2.13,1,1.42,1.51,2.52,1.78s2.4.62,2.75,1.58c-1.83-1.03-3.89-1.76-6.02-2.13-.17-.03-.36-.05-.51.03-.11.07-.16.18-.2.29-.21.53-.43,1.05-.64,1.58-.11.28-.2.63.05.82.12.09.29.11.41.19s.17.28.03.34c-.22-.37-.92-.25-1.15.11s-.13.81-.02,1.22c.06.23.13.48.31.65.24.23.63.29.97.35,1.4.25,2.74.83,3.82,1.65-1.5-.5-3-1.01-4.49-1.51-.31-.11-.72-.2-.95.01-.15.13-.16.34-.17.53l-.1,3.98c.39-.01.49.03.82.22-.33.18-.67.37-1,.55l.8.04-.64.5c1.14-.24,2.35-.19,3.47.14-.93.13-1.85.32-2.74.59-.44.13-.96.4-.89.8.07.37.61.51,1.03.45s.82-.24,1.24-.21c-.4.21-.81.42-1.21.64.15.07.33.1.49.08l-.52.48.44.19-.25.66c.15.09.34.14.52.15-.26.27-.37.63-.31.98,1.11-.33,2.21-.66,3.32-.99.36-.11.94-.08.92.25-1.16.08-2.28.47-3.17,1.12-.26.19-.52.47-.4.75.16.37.77.32,1.2.2,1.9-.54,3.8-1.07,5.69-1.61.1.37-.38.64-.78.77-1.35.47-2.71.94-4.06,1.41-.38.13-.8.31-.89.66-.05.18,0,.36.08.54.44,1,1.65,1.7,2.87,1.66-.15.31-.3.61-.45.92l.65-.24c-.03.5.29,1.01.79,1.25.32-.28,1.03.05,1.1.44.04.21-.07.43.03.63.14.29.71.26.81-.04-.06.51-.06,1.14.45,1.39.59.29,1.26-.19,1.72-.61,1.24-1.14,2.59-2.19,4.04-3.12-.62,1.65-2.73,2.49-3.7,4-.21.33-.24.89.18.94.16.02.31-.05.45-.13.5-.26,1.01-.53,1.51-.79-.18.46-.34.92-.48,1.39.22-.09.44-.18.66-.26-.23.3-.29.69-.17,1.04.27-.16.61-.23.94-.21-.23.14-.04.5.23.55s.55-.08.78-.21c-.02.29.01.59.09.88.16-.08.32-.15.48-.23.13.07.38.18.53.23Z"/>
              <ellipse class="cls-10" cx="136.14" cy="49.85" rx="2.07" ry="1.22" transform="translate(-4.63 15.17) rotate(-6.27)"/>
            </g>
            <path class="cls-1" d="m140.17,40.59c4.63,5.67,6.63,13.12,5.12,20.28-1.27,6.03-6,12.67-9.14,14.3-5.7,2.98-12.56,3.94-18.68,1.97-6.12-1.96-11.32-7.02-12.82-13.27-.9-3.74-.49-7.7.52-11.42,2.17-7.94,7.24-15.03,13.72-20.08,6.24-4.86,17.3,3.35,21.27,8.21Z"/>
            <g>
              <path class="cls-12" d="m144.94,53.2c-.27,29.24-45.69,33.68-68.28,20.37-13.53-7.97-12.56-19.42-10.87-24.56,3.76-11.44,26.24-6.9,38.06-7.52,14.66-.45,29.49,2.4,41.1,11.72Z"/>
              <path class="cls-11" d="m65.78,49c-1.3,6.69,1.32,13.25,6.97,17.92,7.39,6.11,17.43,9.22,27.33,10.27,17.69,1.88,41.07-3.94,44.52-21.59,1.85-9.46-3.03-18.98-12-24.45-9.01-5.49-21.04-5.46-31.53-4.76-10.14.68-20.69,3.25-27.94,9.8-3.72,3.36-6.4,7.98-7.34,12.8Z"/>
              <path class="cls-13" d="m85.04,71.59l.36.12c-.1-.05-.2-.09-.3-.14,1.06-.71,1.48-2.03,2.65-2.6.2.12.14.39.06.58-.35.82-.71,1.64-1.06,2.46.21,0,.43-.03.62-.11-.26.28-.13.76.23.94s.86.07,1.11-.21c.02.29.52.39.78.22s.36-.49.43-.77.18-.6.45-.76c.02.67.04,1.35.07,2.02,0,.12,0,.24.07.34.14.23.51.28.8.22s1.34-.56,1.64-.58c-.14.09-.27.19-.41.28.35-.64.74-1.27,1.17-1.87-.03.85-.16,1.7-.4,2.52.08-.17.36-.23.54-.14s.27.31.23.49c.13-.21.42-.34.68-.27s.43.36.3.56l.85-1.21c.1.42.07.85-.08,1.25.63.2,1.28.33,1.95.38.37-.83.73-1.66,1.1-2.48,0,.61,0,1.23.01,1.84,0,.1,0,.2.06.29.12.19.43.2.63.33.16.11.24.3.41.41.32.21.76,0,1.12-.15s.95-.12.99.23c.34-.2.8-.13,1.22-.12s.93-.12,1-.48c.27.36,1.54.41,1.6-.02.18-1.43.35-2.85.53-4.28.02-.2.16-.47.38-.4.39,1.34,0,2.74.11,4.12.03.38.18.83.6.91.44.08.78-.34.9-.72.15-.45.18-.93.1-1.4-.07-.39-.12-.92.31-1.03.2,1.02.23,2.06.07,3.08.77-.44,1.73-.6,2.64-.45.07-1.94-.11-3.89-.56-5.8.2,0,.29.21.33.38.32,1.52.85,3.12,1.13,4.64.3-.16.62.17.77.46.23-.38.97-.35,1.17.04.11-.22.21-.44.32-.65.17.08.31.21.39.37.15-.36.86-.07,1.18-.33.08-.07.12-.16.17-.25.14-.26.49-.51.75-.34.09.06.14.15.2.22.37.47,1.72.35,2.09-.12.09-2.23.17-4.49-.4-6.67-.22-.83-.54-1.68-.37-2.52.01-.06.03-.13.08-.17.14-.11.35.03.45.17.49.69.5,1.55.51,2.36.02,1.83.09,3.68.54,5.47.14.57.48,1.24,1.14,1.26.63.02,1.16-.69,1.38-1.21-.34-1.78-.67-3.55-1.01-5.33-.03-.17,0-.41.2-.39.83,1.87.71,4,1.67,5.83.1.18.28.39.5.34.17-.05.23-.23.25-.38.09-.6.07-1.22-.07-1.82.58.2.9.73,1.14,1.24.06.14.13.28.26.38s.35.11.45,0c.09-.1.05-.25,0-.37-.17-.48-.33-.96-.5-1.44-.03-.07-.05-.15-.01-.22.1-.19.43-.04.54.14.14.22.19.47.3.71s.29.47.57.54.88-.32.76-.55c-.72-1.3-1.24-2.68-1.55-4.09.84.23,1.3,1.01,1.67,1.71s.86,1.48,1.71,1.67c.23-.83-1.05-1.54-.9-2.39.58.51,1.16,1.03,1.74,1.54.14.13.41.25.52.11.05-.06.04-.15.02-.22-.09-.29-.35-.51-.52-.77s-.19-.65.1-.81c.4.35.77.72,1.11,1.1.08-.06.13-.16.12-.26.27.23.67.34,1.04.29.13-.31.58-.6.79-.86.3-.37.61-.75.91-1.12.21-.26.43-.57.32-.87.3-.22.6-.44.9-.67-.55-.3-1.02-.73-1.33-1.23.48.12.97.25,1.45.37.09.02.19.05.27.02.21-.07.16-.37,0-.5s-.41-.18-.59-.31-.22-.43,0-.5c.24.53,1.03.82,1.62.57s.84-.96.51-1.46c-.18-.27-.48-.46-.77-.64-.99-.61-1.98-1.22-2.97-1.83,1.87-.42,3.42,2.08,5.29,1.67.1-.02.22-.07.25-.16.02-.07,0-.14-.05-.2-.5-.82-1.87-1.08-2.17-1.96,1.15.25,2.24.74,3.14,1.41-.18-.17-.05-.46.16-.6s.47-.23.64-.4c.51-.54-.24-1.78.55-1.91.41-.07.48-.61.22-.9s-.69-.41-1.07-.57-.77-.44-.78-.81c.71.05,1.41.12,2.12.2-.19-.17-.29-.42-.25-.66.17,0,.34-.01.51-.02-.28-.11-.53-.27-.73-.48.14-.34.65-.41.95-.67.36-.32.29-.87-.03-1.23s-.81-.55-1.28-.71c-1.24-.41-2.54-.68-3.85-.8,1.59-.22,3.19-.44,4.78-.66-.3-.51-.92-.86-1.57-.89.15-.19.3-.39.45-.58-.74.1-1.48.2-2.22.3.97-.48,1.93-.95,2.9-1.43-.61-.2-.16-1.12-.62-1.53-.12-.1-.29-.17-.33-.31-.06-.18.14-.34.23-.5.17-.32.02-.93-.38-.95-.17-.17-.41-.29-.67-.31.04-.2.15-.39.31-.53-.19.11-.47.1-.65-.03.17-.29.76-.3.82-.63.04-.19-.17-.37-.39-.41s-.44.03-.65.1c-1.07.36-2.09.81-3.05,1.36-.24-.19.05-.52.32-.67.99-.56,1.98-1.12,2.98-1.68-.1-.18-.36-.22-.56-.32s-.31-.4-.1-.47c-.4,0-.81-.02-1.21-.04.23-.36.67-.62,1.14-.67-.31-.26-.54-.58-.68-.94-.92.29-1.84.58-2.75.86.63-.59,1.4-1.06,2.25-1.38-.23.09-.52-.13-.46-.34.03-.09.1-.17.11-.26.02-.17-.18-.31-.37-.32s-.37.07-.54.16c-.55.26-1.09.53-1.64.79.43-.46.75-1.1,1.19-1.57-.31-.07-.54-.35-.53-.63-.11.08-.22.16-.33.23-.2-.14-.35-.32-.42-.53-2.03,1.93-4.38,3.6-6.94,4.95.21-.69.74-1.27,1.28-1.8,1.24-1.24,2.58-2.4,4-3.47.2-.15.42-.34.38-.57-.06-.34-.65-.51-.59-.84-.26.18-.7-.16-.54-.41-.2.1-.39.19-.59.29.17-.26-.16-.65-.5-.58-.15.03-.27.13-.38.22-1.02.87-1.98,1.8-2.87,2.77-.41.45-.89.96-1.56.98,1.08-1.69,2.44-3.24,4.03-4.59-.3-.3-.46-.7-.44-1.1-.56.1-1.28.14-1.75-.15-.17.07-.41-.06-.41-.23-.13.08-.25.16-.38.24-.06-.18-.13-.37-.19-.55-1.04.86-1.92,1.86-2.61,2.96.23-.85.66-1.66,1.26-2.36.33-.38.67-.99.2-1.25-.23-.13-.54-.05-.81-.05s-.62-.16-.56-.39c-.25.1-.51.2-.76.3.25-.12.15-.5-.12-.59s-.57.06-.72.27-.2.46-.25.71c-.25,1.19-.78,2.33-1.55,3.33,0-.83.46-1.6.78-2.38s.47-1.73-.1-2.4c-.37.23-1-.03-1.02-.44-.33.1-.63.26-.87.48-.18-.23-.32-.48-.41-.74-.59.16-.83.76-.91,1.3s-.12,1.13-.56,1.51c.08-.67.16-1.34.24-2.01.04-.3.06-.65-.19-.87-.37-.34-1-.12-1.46.12-.11-.46-.91-.63-1.25-.27-.12-.16-.24-.33-.35-.49-.1.19-.26.35-.46.45-.02-.15-.04-.31-.15-.42s-.35-.26-.43-.13c-.25-.1-.55.03-.69.24s-.16.45-.17.69c-.1,1.67-.2,3.33-.3,5-.39-.53-.37-1.2-.34-1.82.05-.97.1-1.95.15-2.92.01-.22.02-.46-.11-.66-.09-.13-.22-.23-.37-.31-.39-.21-.85-.31-1.31-.28-.11,0-.23.02-.34,0-.1-.02-.18-.07-.27-.1-.3-.08-.58.12-.86.24s-.91.18-.97-.09c-.47.11-.94.21-1.41.32l-1.31-.2c-.13.23-.27.46-.4.7-.27-.31-.54-.61-.81-.92-.41.18-.38.7-.28,1.1.56,2.43,1.13,4.86,1.69,7.29-1.87-2.27-1.09-5.57-2.8-7.92-.23.43-.97.56-1.38.24-.25.25-.49.49-.74.74-.28.02-.35-.32-.4-.56s-.43-.48-.54-.26c-.03.05-.02.11-.01.16.16,1.51.32,3.03.48,4.54l-1.2-4.78-.55.58-.4-.3c-.18.15-.36.3-.53.45.15-.25-.38-.47-.61-.27s-.2.53-.16.81c.14.85.28,1.71.42,2.56-.3-.66-.6-1.33-.89-1.99-.15-.33-.3-.66-.56-.93-.31-.32-.77-.53-1.25-.57-.21.26-.71.29-.96.06l-.27.66c-.18-.03-.35-.13-.45-.27.03.28-.03.56-.16.82-.13-.16-.27-.43-.4-.59-.3.22-.81.2-1.09-.05-.08.35-.65.52-.96.27-.19.22-.38.44-.57.65.04-.4-.79-.39-.94-.02s.12.78.34,1.13c.5.82.78,1.74.81,2.67-.75-1.15-1.39-2.35-1.89-3.6l-.63.85c-.19-.26-.47-.47-.79-.6.11.58.22,1.17.33,1.75-.32-.53-.65-1.07-.97-1.6-.3.19-.6.38-.9.56-.74.26-1.48.52-2.23.77-.11.04-.22.08-.3.15-.26.24-.05.63.16.91.96,1.31,1.59,2.8,1.83,4.33-.85-1.59-1.84-3.13-2.96-4.59-.29.44-1.07.56-1.52.23-.24.31-.49.63-.73.94-.06-.26-.57-.21-.68.04s.03.52.16.76c.49.87.99,1.73,1.48,2.6-.77-.74-1.55-1.48-2.32-2.22-.12-.12-.26-.24-.44-.26-.18-.02-.34.06-.49.15-.66.41-1.19.99-1.49,1.65l-.7.04c.22.34.43.69.65,1.03-.43-.08-.87-.15-1.3-.23.2.1-.02.37-.24.42s-.52.11-.53.31c0,.13.13.23.25.31.45.29.91.59,1.36.88-.68-.24-1.5-.49-2.19-.74-.88.54-1.86,1.26-1.73,2.2.13,1,1.42,1.51,2.52,1.78s2.4.62,2.75,1.58c-1.83-1.03-3.89-1.76-6.02-2.13-.17-.03-.36-.05-.51.03-.11.07-.16.18-.2.29-.21.53-.43,1.05-.64,1.58-.11.28-.2.63.05.82.12.09.29.11.41.19s.17.28.03.34c-.22-.37-.92-.25-1.15.11s-.13.81-.02,1.22c.06.23.13.48.31.65.24.23.63.29.97.35,1.4.25,2.74.83,3.82,1.65-1.5-.5-3-1.01-4.49-1.51-.31-.11-.72-.2-.95.01-.15.13-.16.34-.17.53l-.1,3.98c.39-.01.49.03.82.22-.33.18-.67.37-1,.55l.8.04-.64.5c1.14-.24,2.35-.19,3.47.14-.93.13-1.85.32-2.74.59-.44.13-.96.4-.89.8.07.37.61.51,1.03.45s.82-.24,1.24-.21c-.4.21-.81.42-1.21.64.15.07.33.1.49.08l-.52.48.44.19-.25.66c.15.09.34.14.52.15-.26.27-.37.63-.31.98,1.11-.33,2.21-.66,3.32-.99.36-.11.94-.08.92.25-1.16.08-2.28.47-3.17,1.12-.26.19-.52.47-.4.75.16.37.77.32,1.2.2,1.9-.54,3.8-1.07,5.69-1.61.1.37-.38.64-.78.77-1.35.47-2.71.94-4.06,1.41-.38.13-.8.31-.89.66-.05.18,0,.36.08.54.44,1,1.65,1.7,2.87,1.66-.15.31-.3.61-.45.92l.65-.24c-.03.5.29,1.01.79,1.25.32-.28,1.03.05,1.1.44.04.21-.07.43.03.63.14.29.71.26.81-.04-.06.51-.06,1.14.45,1.39.59.29,1.26-.19,1.72-.61,1.24-1.14,2.59-2.19,4.04-3.12-.62,1.65-2.73,2.49-3.7,4-.21.33-.24.89.18.94.16.02.31-.05.45-.13.5-.26,1.01-.53,1.51-.79-.18.46-.34.92-.48,1.39.22-.09.44-.18.66-.26-.23.3-.29.69-.17,1.04.27-.16.61-.23.94-.21-.23.14-.04.5.23.55s.55-.08.78-.21c-.02.29.01.59.09.88.16-.08.32-.15.48-.23.13.07.38.18.53.23Z"/>
              <ellipse class="cls-10" cx="106.65" cy="51.44" rx="2.07" ry="1.22" transform="translate(-4.98 11.96) rotate(-6.27)"/>
            </g>
            <path class="cls-1" d="m112.26,39.7c4.63,5.67,6.63,13.12,5.12,20.28-1.27,6.03-6,12.67-9.14,14.3-5.7,2.98-12.56,3.94-18.68,1.97-6.12-1.96-11.32-7.02-12.82-13.27-.9-3.74-.49-7.7.52-11.42,2.17-7.94,7.24-15.03,13.72-20.08,6.24-4.86,17.3,3.35,21.27,8.21Z"/>
            <g>
              <path class="cls-12" d="m115.44,54.79c-.27,29.24-45.69,33.68-68.28,20.37-13.53-7.97-12.56-19.42-10.87-24.56,3.76-11.44,26.24-6.9,38.06-7.52,14.66-.45,29.49,2.4,41.1,11.72Z"/>
              <path class="cls-11" d="m36.29,50.6c-1.3,6.69,1.32,13.25,6.97,17.92,7.39,6.11,17.43,9.22,27.33,10.27,17.69,1.88,41.07-3.94,44.52-21.59,1.85-9.46-3.03-18.98-12-24.45-9.01-5.49-21.04-5.46-31.53-4.76-10.14.68-20.69,3.25-27.94,9.8-3.72,3.36-6.4,7.98-7.34,12.8Z"/>
              <path class="cls-13" d="m55.54,73.19l.36.12c-.1-.05-.2-.09-.3-.14,1.06-.71,1.48-2.03,2.65-2.6.2.12.14.39.06.58-.35.82-.71,1.64-1.06,2.46.21,0,.43-.03.62-.11-.26.28-.13.76.23.94s.86.07,1.11-.21c.02.29.52.39.78.22s.36-.49.43-.77.18-.6.45-.76c.02.67.04,1.35.07,2.02,0,.12,0,.24.07.34.14.23.51.28.8.22s1.34-.56,1.64-.58c-.14.09-.27.19-.41.28.35-.64.74-1.27,1.17-1.87-.03.85-.16,1.7-.4,2.52.08-.17.36-.23.54-.14s.27.31.23.49c.13-.21.42-.34.68-.27s.43.36.3.56l.85-1.21c.1.42.07.85-.08,1.25.63.2,1.28.33,1.95.38.37-.83.73-1.66,1.1-2.48,0,.61,0,1.23.01,1.84,0,.1,0,.2.06.29.12.19.43.2.63.33.16.11.24.3.41.41.32.21.76,0,1.12-.15s.95-.12.99.23c.34-.2.8-.13,1.22-.12s.93-.12,1-.48c.27.36,1.54.41,1.6-.02.18-1.43.35-2.85.53-4.28.02-.2.16-.47.38-.4.39,1.34,0,2.74.11,4.12.03.38.18.83.6.91.44.08.78-.34.9-.72.15-.45.18-.93.1-1.4-.07-.39-.12-.92.31-1.03.2,1.02.23,2.06.07,3.08.77-.44,1.73-.6,2.64-.45.07-1.94-.11-3.89-.56-5.8.2,0,.29.21.33.38.32,1.52.85,3.12,1.13,4.64.3-.16.62.17.77.46.23-.38.97-.35,1.17.04.11-.22.21-.44.32-.65.17.08.31.21.39.37.15-.36.86-.07,1.18-.33.08-.07.12-.16.17-.25.14-.26.49-.51.75-.34.09.06.14.15.2.22.37.47,1.72.35,2.09-.12.09-2.23.17-4.49-.4-6.67-.22-.83-.54-1.68-.37-2.52.01-.06.03-.13.08-.17.14-.11.35.03.45.17.49.69.5,1.55.51,2.36.02,1.83.09,3.68.54,5.47.14.57.48,1.24,1.14,1.26.63.02,1.16-.69,1.38-1.21-.34-1.78-.67-3.55-1.01-5.33-.03-.17,0-.41.2-.39.83,1.87.71,4,1.67,5.83.1.18.28.39.5.34.17-.05.23-.23.25-.38.09-.6.07-1.22-.07-1.82.58.2.9.73,1.14,1.24.06.14.13.28.26.38s.35.11.45,0c.09-.1.05-.25,0-.37-.17-.48-.33-.96-.5-1.44-.03-.07-.05-.15-.01-.22.1-.19.43-.04.54.14.14.22.19.47.3.71s.29.47.57.54.88-.32.76-.55c-.72-1.3-1.24-2.68-1.55-4.09.84.23,1.3,1.01,1.67,1.71s.86,1.48,1.71,1.67c.23-.83-1.05-1.54-.9-2.39.58.51,1.16,1.03,1.74,1.54.14.13.41.25.52.11.05-.06.04-.15.02-.22-.09-.29-.35-.51-.52-.77s-.19-.65.1-.81c.4.35.77.72,1.11,1.1.08-.06.13-.16.12-.26.27.23.67.34,1.04.29.13-.31.58-.6.79-.86.3-.37.61-.75.91-1.12.21-.26.43-.57.32-.87.3-.22.6-.44.9-.67-.55-.3-1.02-.73-1.33-1.23.48.12.97.25,1.45.37.09.02.19.05.27.02.21-.07.16-.37,0-.5s-.41-.18-.59-.31-.22-.43,0-.5c.24.53,1.03.82,1.62.57s.84-.96.51-1.46c-.18-.27-.48-.46-.77-.64-.99-.61-1.98-1.22-2.97-1.83,1.87-.42,3.42,2.08,5.29,1.67.1-.02.22-.07.25-.16.02-.07,0-.14-.05-.2-.5-.82-1.87-1.08-2.17-1.96,1.15.25,2.24.74,3.14,1.41-.18-.17-.05-.46.16-.6s.47-.23.64-.4c.51-.54-.24-1.78.55-1.91.41-.07.48-.61.22-.9s-.69-.41-1.07-.57-.77-.44-.78-.81c.71.05,1.41.12,2.12.2-.19-.17-.29-.42-.25-.66.17,0,.34-.01.51-.02-.28-.11-.53-.27-.73-.48.14-.34.65-.41.95-.67.36-.32.29-.87-.03-1.23s-.81-.55-1.28-.71c-1.24-.41-2.54-.68-3.85-.8,1.59-.22,3.19-.44,4.78-.66-.3-.51-.92-.86-1.57-.89.15-.19.3-.39.45-.58-.74.1-1.48.2-2.22.3.97-.48,1.93-.95,2.9-1.43-.61-.2-.16-1.12-.62-1.53-.12-.1-.29-.17-.33-.31-.06-.18.14-.34.23-.5.17-.32.02-.93-.38-.95-.17-.17-.41-.29-.67-.31.04-.2.15-.39.31-.53-.19.11-.47.1-.65-.03.17-.29.76-.3.82-.63.04-.19-.17-.37-.39-.41s-.44.03-.65.1c-1.07.36-2.09.81-3.05,1.36-.24-.19.05-.52.32-.67.99-.56,1.98-1.12,2.98-1.68-.1-.18-.36-.22-.56-.32s-.31-.4-.1-.47c-.4,0-.81-.02-1.21-.04.23-.36.67-.62,1.14-.67-.31-.26-.54-.58-.68-.94-.92.29-1.84.58-2.75.86.63-.59,1.4-1.06,2.25-1.38-.23.09-.52-.13-.46-.34.03-.09.1-.17.11-.26.02-.17-.18-.31-.37-.32s-.37.07-.54.16c-.55.26-1.09.53-1.64.79.43-.46.75-1.1,1.19-1.57-.31-.07-.54-.35-.53-.63-.11.08-.22.16-.33.23-.2-.14-.35-.32-.42-.53-2.03,1.93-4.38,3.6-6.94,4.95.21-.69.74-1.27,1.28-1.8,1.24-1.24,2.58-2.4,4-3.47.2-.15.42-.34.38-.57-.06-.34-.65-.51-.59-.84-.26.18-.7-.16-.54-.41-.2.1-.39.19-.59.29.17-.26-.16-.65-.5-.58-.15.03-.27.13-.38.22-1.02.87-1.98,1.8-2.87,2.77-.41.45-.89.96-1.56.98,1.08-1.69,2.44-3.24,4.03-4.59-.3-.3-.46-.7-.44-1.1-.56.1-1.28.14-1.75-.15-.17.07-.41-.06-.41-.23-.13.08-.25.16-.38.24-.06-.18-.13-.37-.19-.55-1.04.86-1.92,1.86-2.61,2.96.23-.85.66-1.66,1.26-2.36.33-.38.67-.99.2-1.25-.23-.13-.54-.05-.81-.05s-.62-.16-.56-.39c-.25.1-.51.2-.76.3.25-.12.15-.5-.12-.59s-.57.06-.72.27-.2.46-.25.71c-.25,1.19-.78,2.33-1.55,3.33,0-.83.46-1.6.78-2.38s.47-1.73-.1-2.4c-.37.23-1-.03-1.02-.44-.33.1-.63.26-.87.48-.18-.23-.32-.48-.41-.74-.59.16-.83.76-.91,1.3s-.12,1.13-.56,1.51c.08-.67.16-1.34.24-2.01.04-.3.06-.65-.19-.87-.37-.34-1-.12-1.46.12-.11-.46-.91-.63-1.25-.27-.12-.16-.24-.33-.35-.49-.1.19-.26.35-.46.45-.02-.15-.04-.31-.15-.42s-.35-.26-.43-.13c-.25-.1-.55.03-.69.24s-.16.45-.17.69c-.1,1.67-.2,3.33-.3,5-.39-.53-.37-1.2-.34-1.82.05-.97.1-1.95.15-2.92.01-.22.02-.46-.11-.66-.09-.13-.22-.23-.37-.31-.39-.21-.85-.31-1.31-.28-.11,0-.23.02-.34,0-.1-.02-.18-.07-.27-.1-.3-.08-.58.12-.86.24s-.91.18-.97-.09c-.47.11-.94.21-1.41.32l-1.31-.2c-.13.23-.27.46-.4.7-.27-.31-.54-.61-.81-.92-.41.18-.38.7-.28,1.1.56,2.43,1.13,4.86,1.69,7.29-1.87-2.27-1.09-5.57-2.8-7.92-.23.43-.97.56-1.38.24-.25.25-.49.49-.74.74-.28.02-.35-.32-.4-.56s-.43-.48-.54-.26c-.03.05-.02.11-.01.16.16,1.51.32,3.03.48,4.54-.4-1.59-.8-3.19-1.2-4.78l-.55.58-.4-.3c-.18.15-.36.3-.53.45.15-.25-.38-.47-.61-.27s-.2.53-.16.81c.14.85.28,1.71.42,2.56-.3-.66-.6-1.33-.89-1.99-.15-.33-.3-.66-.56-.93-.31-.32-.77-.53-1.25-.57-.21.26-.71.29-.96.06l-.27.66c-.18-.03-.35-.13-.45-.27.03.28-.03.56-.16.82-.13-.16-.27-.43-.4-.59-.3.22-.81.2-1.09-.05-.08.35-.65.52-.96.27-.19.22-.38.44-.57.65.04-.4-.79-.39-.94-.02s.12.78.34,1.13c.5.82.78,1.74.81,2.67-.75-1.15-1.39-2.35-1.89-3.6l-.63.85c-.19-.26-.47-.47-.79-.6.11.58.22,1.17.33,1.75-.32-.53-.65-1.07-.97-1.6-.3.19-.6.38-.9.56-.74.26-1.48.52-2.23.77-.11.04-.22.08-.3.15-.26.24-.05.63.16.91.96,1.31,1.59,2.8,1.83,4.33-.85-1.59-1.84-3.13-2.96-4.59-.29.44-1.07.56-1.52.23-.24.31-.49.63-.73.94-.06-.26-.57-.21-.68.04s.03.52.16.76c.49.87.99,1.73,1.48,2.6-.77-.74-1.55-1.48-2.32-2.22-.12-.12-.26-.24-.44-.26-.18-.02-.34.06-.49.15-.66.41-1.19.99-1.49,1.65l-.7.04c.22.34.43.69.65,1.03-.43-.08-.87-.15-1.3-.23.2.1-.02.37-.24.42s-.52.11-.53.31c0,.13.13.23.25.31.45.29.91.59,1.36.88-.68-.24-1.5-.49-2.19-.74-.88.54-1.86,1.26-1.73,2.2.13,1,1.42,1.51,2.52,1.78s2.4.62,2.75,1.58c-1.83-1.03-3.89-1.76-6.02-2.13-.17-.03-.36-.05-.51.03-.11.07-.16.18-.2.29-.21.53-.43,1.05-.64,1.58-.11.28-.2.63.05.82.12.09.29.11.41.19s.17.28.03.34c-.22-.37-.92-.25-1.15.11s-.13.81-.02,1.22c.06.23.13.48.31.65.24.23.63.29.97.35,1.4.25,2.74.83,3.82,1.65-1.5-.5-3-1.01-4.49-1.51-.31-.11-.72-.2-.95.01-.15.13-.16.34-.17.53l-.1,3.98c.39-.01.49.03.82.22-.33.18-.67.37-1,.55l.8.04-.64.5c1.14-.24,2.35-.19,3.47.14-.93.13-1.85.32-2.74.59-.44.13-.96.4-.89.8.07.37.61.51,1.03.45s.82-.24,1.24-.21c-.4.21-.81.42-1.21.64.15.07.33.1.49.08l-.52.48.44.19-.25.66c.15.09.34.14.52.15-.26.27-.37.63-.31.98,1.11-.33,2.21-.66,3.32-.99.36-.11.94-.08.92.25-1.16.08-2.28.47-3.17,1.12-.26.19-.52.47-.4.75.16.37.77.32,1.2.2,1.9-.54,3.8-1.07,5.69-1.61.1.37-.38.64-.78.77-1.35.47-2.71.94-4.06,1.41-.38.13-.8.31-.89.66-.05.18,0,.36.08.54.44,1,1.65,1.7,2.87,1.66-.15.31-.3.61-.45.92l.65-.24c-.03.5.29,1.01.79,1.25.32-.28,1.03.05,1.1.44.04.21-.07.43.03.63.14.29.71.26.81-.04-.06.51-.06,1.14.45,1.39.59.29,1.26-.19,1.72-.61,1.24-1.14,2.59-2.19,4.04-3.12-.62,1.65-2.73,2.49-3.7,4-.21.33-.24.89.18.94.16.02.31-.05.45-.13.5-.26,1.01-.53,1.51-.79-.18.46-.34.92-.48,1.39.22-.09.44-.18.66-.26-.23.3-.29.69-.17,1.04.27-.16.61-.23.94-.21-.23.14-.04.5.23.55s.55-.08.78-.21c-.02.29.01.59.09.88.16-.08.32-.15.48-.23.13.07.38.18.53.23Z"/>
              <ellipse class="cls-10" cx="77.15" cy="53.03" rx="2.07" ry="1.22" transform="translate(-5.33 8.74) rotate(-6.27)"/>
            </g>
          </g>
        </g>
      </g>
    </g>
  </g>
</svg>