<?xml version="1.0" encoding="UTF-8"?>
<svg xmlns="http://www.w3.org/2000/svg" viewBox="0 0 258.29 123.79">
  <defs>
    <style>
      .cls-1 {
        fill: #bcb3a6;
        mix-blend-mode: multiply;
      }

      .cls-1, .cls-2, .cls-3, .cls-4, .cls-5, .cls-6, .cls-7, .cls-8, .cls-9, .cls-10, .cls-11, .cls-12, .cls-13, .cls-14, .cls-15, .cls-16, .cls-17, .cls-18, .cls-19, .cls-20 {
        stroke-width: 0px;
      }

      .cls-2 {
        opacity: .43;
      }

      .cls-2, .cls-18 {
        fill: #fff;
      }

      .cls-3 {
        fill: #ededed;
        opacity: .94;
      }

      .cls-21 {
        isolation: isolate;
      }

      .cls-4 {
        fill: #f7f9f8;
      }

      .cls-5 {
        fill: #f46831;
      }

      .cls-6 {
        fill: #5aa04d;
      }

      .cls-7 {
        fill: #44823a;
      }

      .cls-8 {
        fill: #c91414;
      }

      .cls-9 {
        fill: #d1d1d1;
      }

      .cls-10 {
        fill: #ddd;
      }

      .cls-11 {
        fill: #cc510d;
      }

      .cls-12 {
        fill: #c6dd68;
      }

      .cls-13 {
        fill: #c6e09d;
      }

      .cls-14 {
        fill: #e22723;
      }

      .cls-15 {
        fill: #e1f2c9;
      }

      .cls-16 {
        fill: #cee2af;
      }

      .cls-17 {
        fill: #ff906e;
      }

      .cls-19 {
        fill: #e8e3da;
      }

      .cls-20 {
        fill: #ffd6ae;
      }
    </style>
  </defs>
  <g class="cls-21">
    <g id="Layer_1" data-name="Layer 1">
      <g>
        <g>
          <ellipse class="cls-11" cx="137.07" cy="70.54" rx="121.22" ry="53.25"/>
          <g>
            <path class="cls-19" d="m240.58,50.2v.45c0,39.26-53.86,71.09-120.29,71.09S0,89.91,0,50.65v-.45c0-.16,0-.31,0-.47,0-.2,0-.41.02-.62,0-.07,0-.14,0-.21C1.69,21.77,54.89,0,120.29,0s118.6,21.77,120.25,48.9c0,.07,0,.14,0,.21,0,.2,0,.41.02.62,0,.16,0,.31,0,.47Z"/>
            <path class="cls-18" d="m240.58,50.2v.18c-.24,27.64-54,50.02-120.29,50.02S.24,78.02,0,50.38v-.18c0-.16,0-.31,0-.47,0-.2,0-.41.02-.62,0-.07,0-.14,0-.21C1.69,21.77,54.89,0,120.29,0s118.6,21.77,120.25,48.9c0,.07,0,.14,0,.21,0,.2.02.41.02.62,0,.16,0,.31,0,.47Z"/>
            <path class="cls-10" d="m225.97,49.25c0,19.54-30.01,36.16-71.9,42.31-11.21,1.65-23.27,2.54-35.83,2.54-59.5,0-107.73-20.08-107.73-44.85S58.74,4.4,118.24,4.4c13.97,0,27.32,1.11,39.58,3.13,39.92,6.56,68.15,22.77,68.15,41.73Z"/>
            <path class="cls-9" d="m225.97,49.25c0,19.54-30.01,36.16-71.9,42.31,7.4-4.45,15.89-7.8,23.19-12.34,6.66-4.13,21.15-17.99,23.35-19.74s2.65-4.54,2.56-6.92c-.39-10.31-6.24-19.88-15.9-27.03-9.06-6.71-19.92-11.74-29.46-18,39.92,6.56,68.15,22.77,68.15,41.73Z"/>
            <ellipse class="cls-3" cx="118.24" cy="59.6" rx="84.86" ry="36.4"/>
            <path class="cls-10" d="m76.91,89.33c-13.94-2.76-26.55-8.98-35.3-17.41-2.33-2.24-4.42-4.68-5.5-7.38-2.39-5.99.52-12.57,5.53-17.62-3.38,8.72-.02,17.83,6.64,25.47,6.66,7.64,17.49,13.02,28.64,16.93Z"/>
            <path class="cls-4" d="m197.01,55.85c-14.58-14.94-46.52-24.51-70.54-27.91,39.77,0,63.55,11.83,70.54,27.91Z"/>
          </g>
        </g>
        <g>
          <path class="cls-1" d="m69.57,48.63c-5.25,5.76-9.72,12.25-13.22,19.21,1.93,1.17,4.1,1.93,6.34,2.22-.73,1.65.98,3.45,2.73,3.86s3.62.01,5.39.38c2.18.46,4.05,2.15,4.73,4.27-1.8.87-3.81,2.01-4.18,3.97-.56,3,2.99,5.01,5.97,5.68,4.69,1.05,9.53,1.28,14.34,1.44,30.39,1.05,61.3-.14,90.32-9.24.91-.28,1.87-.62,2.44-1.38.54-.71.62-1.67,1.01-2.47,1.13-2.3,4.37-2.68,5.97-4.68,1.48-1.86,1.1-4.7-.3-6.62s-3.58-3.1-5.74-4.08c-.86-.39-1.81-.82-2.2-1.68-.27-.59-.22-1.27-.32-1.91-.28-1.77-1.66-3.11-2.65-4.6-3.22-4.83-2.88-12.16-7.83-15.2-3.19-1.96-7.42-1.24-10.78-2.9-1.86-.93-3.32-2.52-5.15-3.51-2.66-1.42-5.83-1.42-8.84-1.37-15.67.22-31.35.45-47,1.42-7.7.48-15.4,1.14-23.06,2.07-6.55.8-15.65.73-21.55,3.93-4.11,2.23-.6,3.36,2.22,4.91,1.02.56,11.07,6.61,11.37,6.28Z"/>
          <g>
            <path class="cls-13" d="m54.75,66.62c10.77-2.56,22.16-.55,33.21.03,10.1.52,20.22.63,30.33.53,10.7-.1,21.48-.45,31.9-2.9,4.48-1.06,8.9-2.5,13.49-2.94,2.92-.28,5.91-.15,8.71-1,3.95-1.2,7.23-4.41,8.51-8.33.22-.68.39-1.42.16-2.1-.18-.55-.59-.99-1.03-1.35-1.67-1.39-3.86-1.97-6-2.37-11-2.04-22.29-.24-33.4,1.06-12.28,1.44-24.62,2.26-36.89,3.75-6.14.75-12.26,1.65-18.33,2.89-5.94,1.21-11.66,3.36-17.56,4.58-5.54,1.15-9.73,3.57-13.11,8.14Z"/>
            <path class="cls-16" d="m181.56,49.45c-.71,2.38-3.48,4.35-5.9,4.95-4.22,1.06-8.45,2.12-12.7,3.13-2.18.53-4.37,1.04-6.56,1.53-.51.11-1.02.23-1.52.34-12.02,2.65-24.16,4.71-36.44,5.12-2.93.1-5.86.06-8.79-.06-.97-.04-1.94-.09-2.9-.15-3.47-.2-6.95-.49-10.41-.77-1.85-.16-3.7-.31-5.55-.44-2.27-.17-4.52-.32-6.77-.41-.98-.04-1.95-.08-2.92-.1-2.98-.06-5.94-.02-8.88.18-.35.02-.7.05-1.06.08-5.57.48-11.05,1.59-16.42,3.76,3.61-6.03,8.56-12.77,14.86-15.89,3.22-1.59,6.59-2.69,10.05-3.43.47-.1.93-.2,1.41-.29,2.18-.41,4.39-.7,6.63-.89,1.23-.11,2.46-.18,3.69-.24,3.66-.17,7.35-.14,11.02-.07,1.29.02,2.57.05,3.85.08.9.01,1.8.03,2.69.04,4.71.07,9.41.03,14.12-.09.5-.01.99-.03,1.49-.04,11.59-.35,23.16-1.2,34.72-2.24.01,0,.02,0,.04,0,1.29-.12,2.57-.23,3.86-.36,5.65-.53,11.3-1.1,16.94-1.66.31,2.47,2.14,5.54,1.43,7.92Z"/>
            <path class="cls-12" d="m164.94,54.71c-.51,1.05-1.19,1.98-1.97,2.83-2.18.53-4.37,1.04-6.56,1.53-.51.11-1.02.23-1.52.34-.04-.24-.06-.49-.06-.73-.02-1.67.39-3.35,1.19-4.83.86-1.58,2.19-2.95,2.75-4.69.58-1.8-.32-3.62.42-5.39.03-.07.06-.14.09-.21.01,0,.02,0,.04,0,1.29-.12,2.57-.23,3.86-.36,1.02,1.05,1.88,2.57,2.24,3.6.89,2.56.71,5.48-.49,7.91Z"/>
            <path class="cls-12" d="m124.57,45.8c-.48.99-1.29,1.89-2.15,2.58-3.18,2.52-7.48,3.93-9.47,7.47-1.51,2.69-1.38,6.21-3.29,8.61-.97-.04-1.94-.09-2.9-.15-11.66-.67-23.27-2.33-34.53-1.53-.35.02-.7.05-1.06.08.78-1.31,1.88-2.51,2.82-3.73,2.67-3.43,4.52-7.65,5.68-11.84.47-.1.93-.2,1.41-.29,9.01-1.7,18.62-1.21,27.89-1.08,4.71.07,9.41.03,14.12-.09.5-.01.99-.03,1.49-.04Z"/>
            <path class="cls-7" d="m123.08,45.84c-.56,2.28-9.26,6.31-10.65,8.23-3.52,4.84-.59,7.1-5.67,10.23-3.52-.2-7.03-.49-10.54-.78-.63-.05-1.26-.11-1.89-.16-3.56-.29-7.11-.56-10.63-.7-.65-.03-1.3-.05-1.96-.06-3.2-.09-6.37-.06-9.51.17.23-1.05,3.8-4.92,4.24-5.91,1.98-4.43,1.44-5.97,4.61-9.86,3.81-.72,7.73-1.05,11.68-1.17.52-.02,1.04-.03,1.56-.04,3.32-.07,6.65,0,9.96.05.62.01,1.25.03,1.86.04.94.02,1.88.03,2.82.05,4.71.07,9.41.03,14.12-.09Z"/>
            <path class="cls-7" d="m181.56,49.45c-.71,2.38-3.48,4.35-5.9,4.95-1.62.4-3.23.81-4.85,1.22-.62.15-1.24.31-1.86.46-4.17,1.03-8.35,2.04-12.55,2.98-.86-4.7,1.15-5.56,3.33-9.81.27-.54-.73-5.19-.42-5.7,3.15-.29,6.29-.58,9.44-.89.34-.03.67-.06,1-.1,3.45-.34,6.91-.69,10.36-1.03.31,2.47,2.14,5.54,1.43,7.92Z"/>
            <path class="cls-6" d="m106.14,45.88c-.59,2.26-2.15,5.14-2.74,6.35-1.96,4.01-4.55,7.68-7.18,11.29-.63-.05-1.26-.11-1.89-.16.34-2.3,1.84-4.27,3.21-6.18,2.5-3.47,4.35-7.74,6.75-11.35.62.01,1.25.03,1.86.04Z"/>
            <path class="cls-6" d="m171.1,54.11c-.09.5-.18,1.01-.28,1.51-.62.15-1.24.31-1.86.46.21-.54.45-1.08.66-1.61.92-2.31,1.34-4.85.99-7.32-.25-1.78-1.01-3.14-1.84-4.49.34-.03.67-.06,1-.1.92,1.14,1.51,2.6,1.75,3.99.44,2.5,0,5.05-.42,7.55Z"/>
            <path class="cls-6" d="m94.31,45.79c-.35,1.08-1.43,2.65-1.56,3.13-.53,1.83-.55,3.77-1.23,5.57-1.35,3.59-4.84,5.67-7.83,8.18-.65-.03-1.3-.05-1.96-.06.53-1.02,1.42-1.93,2.27-2.71,1.54-1.41,3.14-2.79,4.33-4.5.76-1.09,2.78-7.05,4.42-9.55.52-.02,1.04-.03,1.56-.04Z"/>
            <path class="cls-2" d="m174.73,43.25c.5.03,1.02.07,1.43.35s.63.9.33,1.29c-.21.28-.59.36-.94.42-4.84.85-9.69,1.69-14.53,2.54-5.37.94-10.77,1.88-16.21,1.86-.88,0-4.45.25-4.96-.62-.88-1.49,1.58-1.6,2.3-1.7,3.66-.5,7.29-.87,10.93-1.55,7.14-1.34,14.34-2.98,21.65-2.61Z"/>
            <path class="cls-2" d="m115.07,59.34c.3.09.62.21.78.48.2.33.08.79-.19,1.07s-.65.43-1.01.57c-2.28.83-4.67,1.36-7.08,1.56-2.64.22-6.23-1.89-2.41-3.45,2.81-1.15,7.06-1.11,9.92-.24Z"/>
          </g>
          <g>
            <path class="cls-7" d="m53.87,36.74c8.45-4.56,17.91-6.65,27.5-7.84,3.23-.4,6.49-.7,9.72-.95,5.19-.41,10.39-.72,15.59-.94,4.14-.18,8.28-.29,12.42-.35,2.08-.03,4.16-.04,6.24-.02,4.82.05,9.64.27,14.43.89.4.05.8.11,1.2.17,4.85.7,9.64,1.83,14.52,2.39.84.09,7.65.43,7.65.43,0,0-5.74,2.29-6.45,2.52-3.98,1.31-8.04,2.35-12.15,3.17-7.98,1.6-16.09,2.39-24.21,2.75-14.34.64-28.69-.03-43.04.28-6.64.14-13.33.49-19.9-.56-1.39-.22-2.97-.66-3.54-1.95Z"/>
            <path class="cls-15" d="m81.37,28.91c3.23-.4,6.49-.7,9.72-.95,5.19-.41,10.39-.72,15.59-.94-1.08,2.49-2.2,4.96-3.38,7.4-3.64,2.16-6.89,2.21-11.09,1.69-2.57-.31-5.22-.83-7.34-2.33-1.66-1.17-2.92-2.92-3.5-4.88Z"/>
            <path class="cls-16" d="m53.23,36.79c20.59-4.84,41.84-6.86,62.97-5.99,15.19.63,31.62,3.68,46.34-.13.19-.05.39-.1.58-.15-12.75,12.06-31.62,12.76-49.17,12.93-17.55.16-34.36.28-51.8-1.65-2.98-.33-6.52-2.22-8.56-4.54-.13-.15-.26-.31-.38-.46Z"/>
            <path class="cls-12" d="m53.23,36.79c20.59-4.84,41.84-6.86,62.97-5.99,15.19.63,31.62,3.68,46.34-.13-1.04,1.73-6.16,2.19-7.79,2.46-6.31,1.04-12.75.81-19.11.53-23.89-1.05-48.09-2.51-71.5,2.37-3.47.72-7.07,1.58-10.54,1.22-.13-.15-.26-.31-.38-.46Z"/>
            <path class="cls-2" d="m121.03,42.11c-1.48-.05-3.1-.16-4.21-1.15-.22-.19-.41-.43-.45-.72-.12-.82.97-1.21,1.8-1.29,1.71-.15,3.42-.26,5.13-.37,3.72-.24,7.45-.48,11.17-.72,1.28-.08,5.04-.61,4.61,1.41-.32,1.54-3.83,2.01-4.96,2.25-4.29.91-8.74.75-13.1.59Z"/>
            <path class="cls-2" d="m108.75,42.38c-1.51.2-3.22.34-4.38-.65-.27-.23-.51-.54-.56-.89-.15-.9.86-1.56,1.74-1.78,2.54-.63,5.2.16,7.7.94,4.53,1.42-3.51,2.25-4.5,2.38Z"/>
          </g>
          <g>
            <path class="cls-13" d="m85.4,79.23c9.23-2.19,18.98-.47,28.45.02,8.65.45,17.32.54,25.98.46,9.17-.09,18.4-.39,27.33-2.49,3.84-.9,7.63-2.14,11.56-2.52,2.5-.24,5.06-.13,7.46-.86,3.38-1.03,6.19-3.78,7.29-7.14.19-.58.33-1.22.14-1.8-.15-.47-.5-.84-.88-1.16-1.43-1.19-3.31-1.69-5.14-2.03-9.42-1.75-19.09-.2-28.61.91-10.52,1.23-21.09,1.94-31.61,3.22-5.26.64-10.51,1.42-15.7,2.48-5.09,1.04-9.99,2.88-15.05,3.93-4.74.98-8.34,3.06-11.23,6.98Z"/>
            <path class="cls-16" d="m194.04,64.53c-.61,2.04-2.98,3.73-5.05,4.24-3.62.91-7.24,1.82-10.88,2.68-1.87.45-3.74.89-5.62,1.31-.43.1-.87.2-1.3.29-10.3,2.27-20.7,4.03-31.22,4.38-2.51.08-5.02.05-7.53-.05-.83-.03-1.66-.08-2.49-.13-2.98-.17-5.95-.42-8.91-.66-1.59-.13-3.17-.26-4.75-.38-1.94-.15-3.88-.27-5.8-.35-.84-.04-1.67-.07-2.5-.08-2.55-.05-5.09-.02-7.61.16-.3.02-.6.05-.9.07-4.77.41-9.47,1.36-14.07,3.22,3.1-5.17,7.33-10.94,12.73-13.61,2.76-1.36,5.65-2.3,8.61-2.94.4-.09.8-.17,1.2-.25,1.87-.35,3.76-.6,5.68-.76,1.05-.09,2.1-.16,3.16-.2,3.13-.14,6.29-.12,9.44-.06,1.1.02,2.2.04,3.3.07.77.01,1.54.03,2.31.04,4.03.06,8.06.03,12.09-.08.43-.01.85-.03,1.28-.04,9.93-.3,19.85-1.03,29.75-1.92.01,0,.02,0,.03,0,1.1-.1,2.2-.2,3.31-.3,4.84-.45,9.68-.94,14.52-1.43.26,2.11,1.83,4.75,1.23,6.78Z"/>
            <path class="cls-12" d="m179.8,69.03c-.44.9-1.02,1.7-1.69,2.42-1.87.45-3.74.89-5.62,1.31-.43.1-.87.2-1.3.29-.03-.21-.05-.42-.05-.63-.02-1.43.34-2.87,1.02-4.13.73-1.35,1.88-2.53,2.35-4.02.5-1.54-.27-3.1.36-4.62.03-.06.05-.12.08-.18.01,0,.02,0,.03,0,1.1-.1,2.2-.2,3.31-.3.87.9,1.61,2.2,1.92,3.08.76,2.2.61,4.69-.42,6.78Z"/>
            <path class="cls-12" d="m145.21,61.4c-.41.85-1.1,1.62-1.85,2.21-2.73,2.16-6.41,3.37-8.11,6.4-1.3,2.31-1.18,5.32-2.82,7.37-.83-.03-1.66-.08-2.49-.13-9.99-.57-19.93-2-29.58-1.31-.3.02-.6.05-.9.07.67-1.13,1.61-2.15,2.42-3.19,2.29-2.94,3.87-6.55,4.86-10.14.4-.09.8-.17,1.2-.25,7.72-1.46,15.95-1.04,23.89-.92,4.03.06,8.06.03,12.09-.08.43-.01.85-.03,1.28-.04Z"/>
            <path class="cls-7" d="m143.93,61.43c-.48,1.95-7.93,5.41-9.13,7.05-3.01,4.14-.5,6.08-4.86,8.77-3.02-.17-6.03-.42-9.03-.67-.54-.05-1.08-.09-1.62-.13-3.05-.25-6.09-.48-9.11-.6-.56-.03-1.12-.04-1.68-.05-2.74-.08-5.46-.05-8.15.14.2-.9,3.26-4.22,3.63-5.06,1.7-3.79,1.23-5.11,3.95-8.45,3.27-.62,6.62-.9,10.01-1,.45-.02.89-.03,1.33-.04,2.84-.06,5.7,0,8.53.05.53.01,1.07.03,1.6.03.81.02,1.61.03,2.42.04,4.03.06,8.06.03,12.09-.08Z"/>
            <path class="cls-7" d="m194.04,64.53c-.61,2.04-2.98,3.73-5.05,4.24-1.38.35-2.77.7-4.15,1.04-.53.13-1.06.26-1.59.4-3.58.88-7.16,1.75-10.75,2.55-.73-4.03.99-4.76,2.85-8.41.23-.46-.63-4.45-.36-4.88,2.7-.25,5.39-.5,8.09-.76.29-.03.58-.05.86-.08,2.96-.29,5.92-.59,8.88-.88.26,2.11,1.83,4.75,1.23,6.78Z"/>
            <path class="cls-6" d="m129.42,61.47c-.5,1.94-1.84,4.4-2.35,5.44-1.68,3.44-3.9,6.58-6.15,9.67-.54-.05-1.08-.09-1.62-.13.29-1.97,1.58-3.66,2.75-5.29,2.14-2.98,3.73-6.63,5.78-9.72.53.01,1.07.03,1.6.03Z"/>
            <path class="cls-6" d="m185.07,68.52c-.07.43-.15.86-.24,1.29-.53.13-1.06.26-1.59.4.18-.47.38-.93.57-1.38.79-1.98,1.15-4.15.85-6.27-.22-1.53-.87-2.69-1.58-3.85.29-.03.58-.05.86-.08.79.98,1.29,2.23,1.5,3.42.38,2.14,0,4.33-.36,6.47Z"/>
            <path class="cls-6" d="m119.29,61.39c-.3.92-1.22,2.27-1.34,2.68-.45,1.57-.48,3.23-1.05,4.77-1.15,3.08-4.15,4.86-6.71,7.01-.56-.03-1.12-.04-1.68-.05.45-.87,1.21-1.65,1.95-2.33,1.32-1.21,2.69-2.39,3.71-3.86.65-.94,2.38-6.04,3.78-8.18.45-.02.89-.03,1.33-.04Z"/>
            <path class="cls-2" d="m188.18,59.21c.43.02.87.06,1.22.3s.54.77.28,1.11c-.18.24-.51.31-.81.36-4.15.73-8.3,1.45-12.45,2.18-4.6.8-9.22,1.61-13.89,1.59-.76,0-3.81.21-4.25-.53-.75-1.28,1.35-1.37,1.97-1.45,3.14-.43,6.25-.75,9.37-1.33,6.12-1.15,12.28-2.56,18.55-2.23Z"/>
            <path class="cls-2" d="m137.07,73c.26.08.53.18.67.41.17.29.06.68-.17.92s-.55.37-.87.49c-1.95.71-4,1.16-6.07,1.34-2.26.19-5.34-1.62-2.07-2.95,2.41-.98,6.04-.95,8.5-.2Z"/>
          </g>
          <g>
            <path class="cls-13" d="m61.56,73.33c9.23-2.19,18.98-.47,28.45.02,8.65.45,17.32.54,25.98.46,9.17-.09,18.4-.39,27.33-2.49,3.84-.9,7.63-2.14,11.56-2.52,2.5-.24,5.06-.13,7.46-.86,3.38-1.03,6.19-3.78,7.29-7.14.19-.58.33-1.22.14-1.8-.15-.47-.5-.84-.88-1.16-1.43-1.19-3.31-1.69-5.14-2.03-9.42-1.75-19.09-.2-28.61.91-10.52,1.23-21.09,1.94-31.61,3.22-5.26.64-10.51,1.42-15.7,2.48-5.09,1.04-9.99,2.88-15.05,3.93-4.74.98-8.34,3.06-11.23,6.98Z"/>
            <path class="cls-15" d="m170.2,58.62c-.61,2.04-2.98,3.73-5.05,4.24-3.62.91-7.24,1.82-10.88,2.68-1.87.45-3.74.89-5.62,1.31-.43.1-.87.2-1.3.29-10.3,2.27-20.7,4.03-31.22,4.38-2.51.08-5.02.05-7.53-.05-.83-.03-1.66-.08-2.49-.13-2.98-.17-5.95-.42-8.91-.66-1.59-.13-3.17-.26-4.75-.38-1.94-.15-3.88-.27-5.8-.35-.84-.04-1.67-.07-2.5-.08-2.55-.05-5.09-.02-7.61.16-.3.02-.6.05-.9.07-4.77.41-9.47,1.36-14.07,3.22,3.1-5.17,7.33-10.94,12.73-13.61,2.76-1.36,5.65-2.3,8.61-2.94.4-.09.8-.17,1.2-.25,1.87-.35,3.76-.6,5.68-.76,1.05-.09,2.1-.16,3.16-.2,3.13-.14,6.29-.12,9.44-.06,1.1.02,2.2.04,3.3.07.77.01,1.54.03,2.31.04,4.03.06,8.06.03,12.09-.08.43-.01.85-.03,1.28-.04,9.93-.3,19.85-1.03,29.75-1.92.01,0,.02,0,.03,0,1.1-.1,2.2-.2,3.31-.3,4.84-.45,9.68-.94,14.52-1.43.26,2.11,1.83,4.75,1.23,6.78Z"/>
            <path class="cls-12" d="m155.96,63.12c-.44.9-1.02,1.7-1.69,2.42-1.87.45-3.74.89-5.62,1.31-.43.1-.87.2-1.3.29-.03-.21-.05-.42-.05-.63-.02-1.43.34-2.87,1.02-4.13.73-1.35,1.88-2.53,2.35-4.02.5-1.54-.27-3.1.36-4.62.03-.06.05-.12.08-.18.01,0,.02,0,.03,0,1.1-.1,2.2-.2,3.31-.3.87.9,1.61,2.2,1.92,3.08.76,2.2.61,4.69-.42,6.78Z"/>
            <path class="cls-12" d="m121.37,55.49c-.41.85-1.1,1.62-1.85,2.21-2.73,2.16-6.41,3.37-8.11,6.4-1.3,2.31-1.18,5.32-2.82,7.37-.83-.03-1.66-.08-2.49-.13-9.99-.57-19.93-2-29.58-1.31-.3.02-.6.05-.9.07.67-1.13,1.61-2.15,2.42-3.19,2.29-2.94,3.87-6.55,4.86-10.14.4-.09.8-.17,1.2-.25,7.72-1.46,15.95-1.04,23.89-.92,4.03.06,8.06.03,12.09-.08.43-.01.85-.03,1.28-.04Z"/>
            <path class="cls-7" d="m120.09,55.53c-.48,1.95-7.93,5.41-9.13,7.05-3.01,4.14-.5,6.08-4.86,8.77-3.02-.17-6.03-.42-9.03-.67-.54-.05-1.08-.09-1.62-.13-3.05-.25-6.09-.48-9.11-.6-.56-.03-1.12-.04-1.68-.05-2.74-.08-5.46-.05-8.15.14.2-.9,3.26-4.22,3.63-5.06,1.7-3.79,1.23-5.11,3.95-8.45,3.27-.62,6.62-.9,10.01-1,.45-.02.89-.03,1.33-.04,2.84-.06,5.7,0,8.53.05.53.01,1.07.03,1.6.03.81.02,1.61.03,2.42.04,4.03.06,8.06.03,12.09-.08Z"/>
            <path class="cls-7" d="m170.2,58.62c-.61,2.04-2.98,3.73-5.05,4.24-1.38.35-2.77.7-4.15,1.04-.53.13-1.06.26-1.59.4-3.58.88-7.16,1.75-10.75,2.55-.73-4.03.99-4.76,2.85-8.41.23-.46-.63-4.45-.36-4.88,2.7-.25,5.39-.5,8.09-.76.29-.03.58-.05.86-.08,2.96-.29,5.92-.59,8.88-.88.26,2.11,1.83,4.75,1.23,6.78Z"/>
            <path class="cls-6" d="m105.58,55.57c-.5,1.94-1.84,4.4-2.35,5.44-1.68,3.44-3.9,6.58-6.15,9.67-.54-.05-1.08-.09-1.62-.13.29-1.97,1.58-3.66,2.75-5.29,2.14-2.98,3.73-6.63,5.78-9.72.53.01,1.07.03,1.6.03Z"/>
            <path class="cls-6" d="m161.23,62.61c-.07.43-.15.86-.24,1.29-.53.13-1.06.26-1.59.4.18-.47.38-.93.57-1.38.79-1.98,1.15-4.15.85-6.27-.22-1.53-.87-2.69-1.58-3.85.29-.03.58-.05.86-.08.79.98,1.29,2.23,1.5,3.42.38,2.14,0,4.33-.36,6.47Z"/>
            <path class="cls-6" d="m95.45,55.49c-.3.92-1.22,2.27-1.34,2.68-.45,1.57-.48,3.23-1.05,4.77-1.15,3.08-4.15,4.86-6.71,7.01-.56-.03-1.12-.04-1.68-.05.45-.87,1.21-1.65,1.95-2.33,1.32-1.21,2.69-2.39,3.71-3.86.65-.94,2.38-6.04,3.78-8.18.45-.02.89-.03,1.33-.04Z"/>
            <path class="cls-2" d="m164.34,53.31c.43.02.87.06,1.22.3s.54.77.28,1.11c-.18.24-.51.31-.81.36-4.15.73-8.3,1.45-12.45,2.18-4.6.8-9.22,1.61-13.89,1.59-.76,0-3.81.21-4.25-.53-.75-1.28,1.35-1.37,1.97-1.45,3.14-.43,6.25-.75,9.37-1.33,6.12-1.15,12.28-2.56,18.55-2.23Z"/>
            <path class="cls-2" d="m113.23,67.09c.26.08.53.18.67.41.17.29.06.68-.17.92s-.55.37-.87.49c-1.95.71-4,1.16-6.07,1.34-2.26.19-5.34-1.62-2.07-2.95,2.41-.98,6.04-.95,8.5-.2Z"/>
          </g>
          <g>
            <path class="cls-7" d="m175.46,39.89c-8.45,4.56-17.91,6.65-27.5,7.84-3.23.4-6.49.7-9.72.95-5.19.41-10.39.72-15.59.94-4.14.18-8.28.29-12.42.35-2.08.03-4.16.04-6.24.02-4.82-.05-9.64-.27-14.43-.89-.4-.05-.8-.11-1.2-.17-4.85-.7-9.64-1.83-14.52-2.39-.84-.09-7.65-.43-7.65-.43,0,0,5.74-2.29,6.45-2.52,3.98-1.31,8.04-2.35,12.15-3.17,7.98-1.6,16.09-2.39,24.21-2.75,14.34-.64,28.69.03,43.04-.28,6.64-.14,13.33-.49,19.9.56,1.39.22,2.97.66,3.54,1.95Z"/>
            <path class="cls-15" d="m147.96,47.72c-3.23.4-6.49.7-9.72.95-5.19.41-10.39.72-15.59.94,1.08-2.49,2.2-4.96,3.38-7.4,3.64-2.16,6.89-2.21,11.09-1.69,2.57.31,5.22.83,7.34,2.33,1.66,1.17,2.92,2.92,3.5,4.88Z"/>
            <path class="cls-15" d="m176.1,39.84c-20.59,4.84-41.84,6.86-62.97,5.99-15.19-.63-31.62-3.68-46.34.13-.19.05-.39.1-.58.15,12.75-12.06,31.62-12.76,49.17-12.93,17.55-.16,34.36-.28,51.8,1.65,2.98.33,6.52,2.22,8.56,4.54.13.15.26.31.38.46Z"/>
            <path class="cls-12" d="m176.1,39.84c-20.59,4.84-41.84,6.86-62.97,5.99-15.19-.63-31.62-3.68-46.34.13,1.04-1.73,6.16-2.19,7.79-2.46,6.31-1.04,12.75-.81,19.11-.53,23.89,1.05,48.09,2.51,71.5-2.37,3.47-.72,7.07-1.58,10.54-1.22.13.15.26.31.38.46Z"/>
            <path class="cls-2" d="m108.3,34.52c1.48.05,3.1.16,4.21,1.15.22.19.41.43.45.72.12.82-.97,1.21-1.8,1.29-1.71.15-3.42.26-5.13.37-3.72.24-7.45.48-11.17.72-1.28.08-5.04.61-4.61-1.41.32-1.54,3.83-2.01,4.96-2.25,4.29-.91,8.74-.75,13.1-.59Z"/>
            <path class="cls-2" d="m120.58,34.25c1.51-.2,3.22-.34,4.38.65.27.23.51.54.56.89.15.9-.86,1.56-1.74,1.78-2.54.63-5.2-.16-7.7-.94-4.53-1.42,3.51-2.25,4.5-2.38Z"/>
          </g>
          <g>
            <path class="cls-7" d="m178.88,77.72c-8.45,4.56-17.91,6.65-27.5,7.84-3.23.4-6.49.7-9.72.95-5.19.41-10.39.72-15.59.94-4.14.18-8.28.29-12.42.35-2.08.03-4.16.04-6.24.02-4.82-.05-9.64-.27-14.43-.89-.4-.05-.8-.11-1.2-.17-4.85-.7-9.64-1.83-14.52-2.39-.84-.09-7.65-.43-7.65-.43,0,0,5.74-2.29,6.45-2.52,3.98-1.31,8.04-2.35,12.15-3.17,7.98-1.6,16.09-2.39,24.21-2.75,14.34-.64,28.69.03,43.04-.28,6.64-.14,13.33-.49,19.9.56,1.39.22,2.97.66,3.54,1.95Z"/>
            <path class="cls-15" d="m151.38,85.55c-3.23.4-6.49.7-9.72.95-5.19.41-10.39.72-15.59.94,1.08-2.49,2.2-4.96,3.38-7.4,3.64-2.16,6.89-2.21,11.09-1.69,2.57.31,5.22.83,7.34,2.33,1.66,1.17,2.92,2.92,3.5,4.88Z"/>
            <path class="cls-15" d="m179.52,77.67c-20.59,4.84-41.84,6.86-62.97,5.99-15.19-.63-31.62-3.68-46.34.13-.19.05-.39.1-.58.15,12.75-12.06,31.62-12.76,49.17-12.93,17.55-.16,34.36-.28,51.8,1.65,2.98.33,6.52,2.22,8.56,4.54.13.15.26.31.38.46Z"/>
            <path class="cls-12" d="m179.52,77.67c-20.59,4.84-41.84,6.86-62.97,5.99-15.19-.63-31.62-3.68-46.34.13,1.04-1.73,6.16-2.19,7.79-2.46,6.31-1.04,12.75-.81,19.11-.53,23.89,1.05,48.09,2.51,71.5-2.37,3.47-.72,7.07-1.58,10.54-1.22.13.15.26.31.38.46Z"/>
            <path class="cls-2" d="m111.72,72.35c1.48.05,3.1.16,4.21,1.15.22.19.41.43.45.72.12.82-.97,1.21-1.8,1.29-1.71.15-3.42.26-5.13.37-3.72.24-7.45.48-11.17.72-1.28.08-5.04.61-4.61-1.41.32-1.54,3.83-2.01,4.96-2.25,4.29-.91,8.74-.75,13.1-.59Z"/>
            <path class="cls-2" d="m124,72.08c1.51-.2,3.22-.34,4.38.65.27.23.51.54.56.89.15.9-.86,1.56-1.74,1.78-2.54.63-5.2-.16-7.7-.94-4.53-1.42,3.51-2.25,4.5-2.38Z"/>
          </g>
          <g>
            <path class="cls-14" d="m109.25,32.1c-.54,0-1.11.03-1.6.31-.41.24-.71.72-.71,1.18,0,.09,0,.18.04.27.61,2.21,1.23,4.43,2.33,6.41.72,1.3,1.66,2.5,2.89,3.32,1.23.82,2.77,1.25,4.28.97,1.75-.32,2.82-2.73,2.9-4.5.04-.71-.07-1.41-.27-2.07-.31-.99-.85-1.89-1.53-2.65-2.03-2.25-5.2-3.22-8.32-3.23Zm7.26,5.56c.62,1.19.94,4.47-1.24,4.44-.58,0-1.09-.32-1.56-.63-.45-.3-.9-.61-1.29-.99-1.25-1.25-1.68-3.11-1.76-4.88,0-.15-.01-.31.05-.45.15-.34.58-.44.95-.44.84-.01,1.65.24,2.39.61,1.03.52,1.94,1.32,2.46,2.34Z"/>
            <path class="cls-8" d="m117.57,35.33c.68.76,1.22,1.67,1.53,2.65-.22-.21-.43-.44-.66-.64-2.61-2.46-6.39-3.22-10-3.72-.49-.07-1.02-.12-1.51-.03,0-.46.31-.94.71-1.18.49-.28,1.06-.31,1.6-.31,3.12.01,6.29.98,8.32,3.23Z"/>
            <path class="cls-5" d="m114.15,34.49c-.94-.48-1.99-.8-3.06-.79-.48,0-1.03.13-1.22.57-.07.18-.07.39-.06.58.11,2.28.66,4.66,2.27,6.26.49.49,1.07.89,1.65,1.27.6.4,1.27.8,2.01.81,2.81.03,2.38-4.18,1.59-5.7-.68-1.31-1.85-2.33-3.17-3Zm2.36,3.17c.62,1.19.95,4.47-1.24,4.44-.58-.01-1.09-.32-1.56-.63-.45-.3-.9-.61-1.29-.99-1.25-1.25-1.68-3.11-1.76-4.88,0-.15-.01-.31.05-.44.15-.34.58-.44.94-.44.84-.01,1.65.24,2.39.61,1.03.52,1.94,1.32,2.47,2.34Z"/>
            <path class="cls-20" d="m113.71,36.08c.26.02.53.01.76-.13s.37-.46.23-.67c-.08-.13-.23-.19-.39-.19s-.3.06-.44.13c-.18.1-.63.37-.68.59-.08.34.23.25.52.27Z"/>
            <path class="cls-20" d="m114.79,36.97c.26.02.53.01.76-.13s.37-.46.23-.67c-.08-.13-.23-.19-.39-.19s-.3.06-.44.13c-.18.1-.63.37-.68.59-.08.34.23.25.52.27Z"/>
            <path class="cls-20" d="m112.59,39.23c-.19.19-.37.41-.42.67s.1.55.36.58c.15.01.31-.07.41-.19s.16-.27.2-.42c.05-.2.15-.7.01-.87-.21-.26-.36.04-.57.25Z"/>
            <path class="cls-20" d="m113.92,41.22c-.12.21-.22.45-.19.68s.24.44.47.39c.14-.03.25-.14.31-.28s.07-.28.06-.42c0-.18-.06-.64-.22-.75-.25-.17-.31.13-.44.36Z"/>
            <path class="cls-20" d="m116.11,39.77c.26.02.53.01.76-.13s.37-.46.23-.67c-.08-.13-.23-.19-.39-.19s-.3.06-.44.13c-.18.1-.63.37-.68.59-.08.34.23.25.52.27Z"/>
            <path class="cls-17" d="m112.12,36.56c.39.37.79.74,1.03,1.22.24.47.35,1.05.79,1.34.15.1.33.16.47.28.15.13.24.32.32.51.56,1.2,1.52,1.8,2.43,2.75.1-.64-.43-.75-.8-1.25s-.81-.95-1.07-1.53c-.24-.55-.3-1.21-.66-1.68-.23-.31-.58-.51-.89-.74-1.29-.94-2.17-2.33-3.28-3.48-.68-.71-.87.11-.4.66.6.7,1.39,1.3,2.06,1.93Z"/>
          </g>
          <g>
            <path class="cls-14" d="m134.15,49.56c-.25.48-.5,1-.48,1.56.01.47.3.96.7,1.19.08.05.16.08.25.1,2.23.52,4.49,1.02,6.75,1,1.48-.02,2.98-.27,4.29-.97,1.31-.69,2.42-1.84,2.89-3.3.55-1.69-1.06-3.78-2.58-4.69-.61-.37-1.27-.61-1.95-.75-1.01-.2-2.07-.15-3.06.09-2.95.72-5.31,3.05-6.8,5.78Zm8.35-3.74c1.34.02,4.38,1.3,3.32,3.2-.28.5-.8.81-1.3,1.07-.48.26-.96.5-1.49.66-1.69.51-3.53,0-5.13-.77-.14-.07-.28-.13-.37-.25-.23-.29-.11-.72.06-1.04.39-.74,1-1.34,1.68-1.81.95-.66,2.08-1.08,3.23-1.05Z"/>
            <path class="cls-8" d="m140.95,43.78c.99-.24,2.05-.29,3.06-.09-.29.09-.59.17-.88.27-3.4,1.12-5.87,4.09-8.03,7.03-.29.4-.59.84-.74,1.31-.4-.22-.68-.72-.7-1.19-.02-.56.23-1.08.48-1.56,1.49-2.74,3.85-5.07,6.8-5.78Z"/>
            <path class="cls-5" d="m138.59,46.38c-.87.6-1.65,1.37-2.15,2.32-.22.42-.37.97-.08,1.34.12.15.3.25.48.33,2.06.99,4.41,1.64,6.59.99.66-.2,1.29-.52,1.9-.84.64-.34,1.31-.74,1.67-1.38,1.36-2.45-2.54-4.08-4.26-4.11-1.48-.02-2.93.51-4.15,1.36Zm3.91-.57c1.34.02,4.38,1.29,3.32,3.2-.28.5-.8.81-1.3,1.07-.48.26-.97.5-1.49.66-1.7.51-3.53,0-5.13-.77-.14-.07-.28-.14-.37-.25-.23-.29-.11-.72.06-1.04.39-.74,1-1.34,1.68-1.81.95-.66,2.08-1.08,3.23-1.06Z"/>
            <path class="cls-20" d="m139.78,47.52c.14-.22.26-.46.24-.73s-.23-.54-.48-.53c-.15,0-.28.11-.35.25s-.09.3-.09.45c0,.2.02.73.19.88.26.23.33-.09.49-.33Z"/>
            <path class="cls-20" d="m141.08,47c.14-.22.26-.46.24-.73s-.23-.54-.48-.53c-.15,0-.28.11-.35.25s-.09.3-.09.45c0,.2.02.73.19.88.26.23.33-.09.49-.33Z"/>
            <path class="cls-20" d="m142.01,50.01c.08.26.18.52.39.68s.54.17.68-.04c.08-.13.08-.3.03-.45s-.16-.27-.28-.38c-.15-.14-.55-.46-.76-.43-.33.06-.14.33-.05.62Z"/>
            <path class="cls-20" d="m144.4,49.78c.13.2.29.41.51.49s.5,0,.57-.23c.04-.14,0-.29-.09-.41s-.21-.19-.34-.26c-.16-.08-.59-.25-.77-.16-.27.14-.03.33.11.56Z"/>
            <path class="cls-20" d="m144.17,47.17c.14-.22.26-.46.24-.73s-.23-.54-.48-.53c-.15,0-.28.11-.35.25s-.09.3-.09.45c0,.2.02.73.19.88.26.23.33-.09.49-.33Z"/>
            <path class="cls-17" d="m139.45,49.15c.51-.17,1.02-.34,1.56-.33.52,0,1.09.19,1.55-.06.16-.08.3-.22.47-.28.19-.07.4-.05.6-.04,1.32.08,2.31-.48,3.57-.82-.52-.39-.87.02-1.48.11s-1.22.26-1.85.21c-.6-.05-1.2-.31-1.8-.22-.38.06-.73.26-1.07.43-1.44.69-3.08.8-4.62,1.23-.94.26-.32.82.39.67.9-.19,1.8-.6,2.68-.89Z"/>
          </g>
          <g>
            <path class="cls-14" d="m123.86,72.47c.07.54.17,1.1.51,1.55.28.38.8.61,1.25.57.09,0,.18-.03.26-.07,2.12-.87,4.25-1.76,6.08-3.09,1.2-.87,2.28-1.95,2.94-3.27.67-1.32.91-2.9.45-4.37-.53-1.7-3.05-2.47-4.81-2.33-.71.05-1.39.24-2.03.52-.94.42-1.78,1.07-2.45,1.84-1.99,2.29-2.57,5.56-2.2,8.65Zm4.64-7.88c1.11-.76,4.32-1.48,4.56.69.06.57-.18,1.12-.44,1.63-.24.49-.5.97-.83,1.4-1.09,1.39-2.88,2.04-4.63,2.34-.15.02-.31.05-.45,0-.35-.11-.5-.52-.55-.88-.11-.83.04-1.67.32-2.45.4-1.09,1.08-2.08,2.02-2.73Z"/>
            <path class="cls-8" d="m126.07,63.82c.67-.77,1.5-1.42,2.45-1.84-.18.25-.38.48-.56.73-2.13,2.89-2.43,6.73-2.49,10.38,0,.5,0,1.03.16,1.5-.45.05-.97-.19-1.25-.57-.34-.45-.43-1.01-.51-1.55-.36-3.1.21-6.36,2.2-8.65Z"/>
            <path class="cls-5" d="m125.64,67.31c-.36.99-.55,2.08-.41,3.14.06.47.26,1.01.71,1.14.19.05.39.03.59,0,2.25-.38,4.55-1.21,5.94-3.01.42-.55.75-1.17,1.07-1.79.32-.65.64-1.36.56-2.09-.31-2.79-4.44-1.86-5.85-.89-1.22.83-2.09,2.11-2.6,3.51Zm2.86-2.73c1.11-.76,4.32-1.48,4.56.69.06.57-.18,1.12-.44,1.63-.24.49-.5.97-.83,1.4-1.09,1.4-2.88,2.04-4.63,2.34-.15.03-.3.05-.45,0-.36-.11-.51-.52-.55-.88-.11-.83.04-1.67.32-2.45.4-1.09,1.08-2.08,2.02-2.73Z"/>
            <path class="cls-20" d="m127.27,67.55c-.01-.26-.05-.53-.22-.73s-.5-.31-.7-.15c-.12.09-.16.25-.14.41s.1.29.19.42c.12.17.44.58.67.6.35.04.22-.26.21-.55Z"/>
            <path class="cls-20" d="m128.03,66.38c-.01-.26-.05-.53-.22-.73s-.5-.31-.7-.15c-.12.09-.16.25-.14.41s.1.29.19.42c.12.17.44.58.67.6.35.04.22-.26.21-.55Z"/>
            <path class="cls-20" d="m130.54,68.29c.21.17.45.32.71.33s.54-.17.53-.42c0-.15-.11-.3-.24-.38s-.29-.13-.45-.15c-.2-.03-.72-.06-.87.09-.23.24.08.35.31.53Z"/>
            <path class="cls-20" d="m132.36,66.72c.23.09.47.16.7.11s.41-.29.33-.52c-.05-.13-.17-.23-.31-.28s-.28-.04-.42-.01c-.18.03-.63.14-.72.31-.13.27.16.29.42.39Z"/>
            <path class="cls-20" d="m130.65,64.73c-.01-.26-.05-.53-.22-.73s-.5-.31-.7-.15c-.12.09-.16.25-.14.41s.1.29.19.42c.12.17.44.58.67.6.35.04.22-.26.21-.55Z"/>
            <path class="cls-17" d="m127.95,69.07c.32-.43.64-.87,1.08-1.17.43-.3,1-.48,1.23-.94.08-.16.12-.35.22-.5.11-.17.29-.27.46-.38,1.12-.7,1.6-1.73,2.44-2.74-.65-.02-.69.52-1.15.95s-.85.92-1.39,1.24c-.52.31-1.16.44-1.59.86-.28.27-.44.63-.63.97-.78,1.4-2.05,2.44-3.06,3.68-.62.76.22.85.7.32.62-.68,1.12-1.53,1.67-2.28Z"/>
          </g>
        </g>
      </g>
    </g>
  </g>
</svg>