<?xml version="1.0" encoding="UTF-8"?>
<svg xmlns="http://www.w3.org/2000/svg" viewBox="0 0 258.29 123.79">
  <defs>
    <style>
      .cls-1 {
        fill: #d34f16;
        opacity: .64;
      }

      .cls-1, .cls-2, .cls-3, .cls-4, .cls-5, .cls-6, .cls-7, .cls-8, .cls-9, .cls-10, .cls-11, .cls-12, .cls-13, .cls-14, .cls-15, .cls-16, .cls-17, .cls-18, .cls-19, .cls-20, .cls-21, .cls-22, .cls-23, .cls-24, .cls-25, .cls-26, .cls-27, .cls-28, .cls-29, .cls-30, .cls-31, .cls-32 {
        stroke-width: 0px;
      }

      .cls-2 {
        mix-blend-mode: overlay;
        opacity: .74;
      }

      .cls-2, .cls-23 {
        fill: #b7210d;
      }

      .cls-3 {
        fill: none;
      }

      .cls-4 {
        opacity: .49;
      }

      .cls-4, .cls-8, .cls-9, .cls-22, .cls-32 {
        fill: #aace45;
      }

      .cls-5 {
        fill: #ededed;
        opacity: .94;
      }

      .cls-6 {
        fill: #fff19c;
      }

      .cls-6, .cls-7, .cls-8 {
        opacity: .55;
      }

      .cls-7 {
        fill: #ffee8a;
      }

      .cls-9 {
        opacity: .56;
      }

      .cls-33 {
        isolation: isolate;
      }

      .cls-10 {
        fill: #f3f9a5;
      }

      .cls-11 {
        fill: #f7f9f8;
      }

      .cls-12 {
        fill: #f2f492;
      }

      .cls-13 {
        fill: #609e3c;
      }

      .cls-14 {
        fill: #55912f;
      }

      .cls-15 {
        fill: #6faa48;
      }

      .cls-16 {
        fill: #d1d1d1;
      }

      .cls-17 {
        fill: #c8e26a;
      }

      .cls-18 {
        fill: #ddd;
      }

      .cls-19 {
        fill: #cc510d;
      }

      .cls-20 {
        fill: #dd2319;
      }

      .cls-21 {
        fill: #d7f487;
      }

      .cls-24 {
        fill: #ff8e55;
      }

      .cls-25 {
        fill: #fffcde;
      }

      .cls-26 {
        fill: #fffceb;
      }

      .cls-27 {
        fill: #fff;
      }

      .cls-28 {
        fill: #e8e3da;
      }

      .cls-29 {
        fill: #fff6b6;
      }

      .cls-30 {
        fill: #eff286;
      }

      .cls-31 {
        fill: #fcf7d0;
      }

      .cls-32 {
        opacity: .29;
      }
    </style>
  </defs>
  <g class="cls-33">
    <g id="Layer_1" data-name="Layer 1">
      <g>
        <g>
          <ellipse class="cls-19" cx="137.07" cy="70.54" rx="121.22" ry="53.25"/>
          <g>
            <path class="cls-28" d="m240.58,50.2v.45c0,39.26-53.86,71.09-120.29,71.09S0,89.91,0,50.65v-.45c0-.16,0-.31,0-.47,0-.2,0-.41.02-.62,0-.07,0-.14,0-.21C1.69,21.77,54.89,0,120.29,0s118.6,21.77,120.25,48.9c0,.07,0,.14,0,.21,0,.2,0,.41.02.62,0,.16,0,.31,0,.47Z"/>
            <path class="cls-27" d="m240.58,50.2v.18c-.24,27.64-54,50.02-120.29,50.02S.24,78.02,0,50.38v-.18c0-.16,0-.31,0-.47,0-.2,0-.41.02-.62,0-.07,0-.14,0-.21C1.69,21.77,54.89,0,120.29,0s118.6,21.77,120.25,48.9c0,.07,0,.14,0,.21,0,.2.02.41.02.62,0,.16,0,.31,0,.47Z"/>
            <path class="cls-18" d="m225.97,49.25c0,19.54-30.01,36.16-71.9,42.31-11.21,1.65-23.27,2.54-35.83,2.54-59.5,0-107.73-20.08-107.73-44.85S58.74,4.4,118.24,4.4c13.97,0,27.32,1.11,39.58,3.13,39.92,6.56,68.15,22.77,68.15,41.73Z"/>
            <path class="cls-16" d="m225.97,49.25c0,19.54-30.01,36.16-71.9,42.31,7.4-4.45,15.89-7.8,23.19-12.34,6.66-4.13,21.15-17.99,23.35-19.74s2.65-4.54,2.56-6.92c-.39-10.31-6.24-19.88-15.9-27.03-9.06-6.71-19.92-11.74-29.46-18,39.92,6.56,68.15,22.77,68.15,41.73Z"/>
            <ellipse class="cls-5" cx="118.24" cy="59.6" rx="84.86" ry="36.4"/>
            <path class="cls-18" d="m76.91,89.33c-13.94-2.76-26.55-8.98-35.3-17.41-2.33-2.24-4.42-4.68-5.5-7.38-2.39-5.99.52-12.57,5.53-17.62-3.38,8.72-.02,17.83,6.64,25.47,6.66,7.64,17.49,13.02,28.64,16.93Z"/>
            <path class="cls-11" d="m197.01,55.85c-14.58-14.94-46.52-24.51-70.54-27.91,39.77,0,63.55,11.83,70.54,27.91Z"/>
          </g>
        </g>
        <path class="cls-20" d="m42.27,48.51c-.86.96-1.69,2.18-1.44,3.45.35,1.71,2.43,2.5,3.18,4.08,1.13,2.4-1.27,5.45,0,7.79.97,1.8,3.59,2.1,4.7,3.82.8,1.24.61,2.95,1.5,4.13,1.05,1.4,3.09,1.46,4.73,2.07,3.79,1.41,5.44,5.81,8.45,8.51,4.65,4.18,11.65,3.72,17.86,4.44,9.96,1.15,19.44,5.92,29.46,5.59,10.13-.34,19.43-5.86,29.5-7.04,6.9-.81,13.94.44,20.81-.59,8.07-1.2,15.31-5.44,22.78-8.73,3.91-1.73,8.04-3.28,11.1-6.27s4.72-7.93,2.56-11.62c-1.27-2.18-3.67-3.62-4.59-5.96-.69-1.74-.45-3.72-1-5.52-1-3.3-4.38-5.27-7.64-6.39s-6.8-1.78-9.54-3.87c-1.53-1.16-2.73-2.72-4.31-3.82-1.49-1.04-3.25-1.61-5.01-2.07-10.64-2.77-21.97-1.69-32.66-4.28-5.39-1.3-10.71-3.54-16.24-3.19-7.5.48-13.88,5.63-21.16,7.52-5.04,1.31-10.36,1.02-15.46,2.03-4.26.85-8.28,2.59-12.27,4.32-4.75,2.06-8.86,3.11-13.72,4.38s-7.73,4.34-11.57,7.23Z"/>
        <path class="cls-1" d="m113.77,25.88c-8.17,4.05-17.1,6.58-26.19,7.41-8.69.79-18.01.19-25.46,4.73-3.72,2.27-6.78,5.74-10.94,7.08-1.48.48-3.1.69-4.32,1.66-1.6,1.27-2.05,3.59-1.64,5.59s1.53,3.77,2.63,5.49c-3.81,5.17,2.42,2.18,3.84,4.35s1.94,4.81,3.18,7.09c1.88,3.45,5.28,5.78,8.54,7.97,6.82,4.58,16.39,7.32,24.31,9.49,9.79,2.69,20.17-.65,30.32-.22,7.3.31,14.48,2.58,21.77,2.13,5.33-.33,10.45-2.09,15.69-3.17,6.79-1.39,13.8-1.61,20.53-3.3s13.44-5.17,16.81-11.23c3.54-6.36,2.46-14.97-2.54-20.26-2.11-2.23-4.8-3.89-6.71-6.29-1.63-2.06-2.67-4.64-4.73-6.27-1.84-1.45-4.24-1.94-6.54-2.38-16.3-3.14-32.6-6.29-48.9-9.43-3.3-.64-6.66-1.92-9.66-.43Z"/>
        <g>
          <g>
            <path class="cls-30" d="m120.76,25.14c-1.76-1.03-11.6-4.21-13.39-3.29-1.05.54-1.8,1.45-2.49,2.36-5.85,7.62-9.49,17.37-8.07,26.83.61,4.11,1.84,8.04,4.14,11.48,2.91.78,5.88-1.01,8.21-2.93,3.15-2.52,6-5.42,8.96-8.2,3.58-3.35,7.27-6.51,11.69-8.61.16-2.17-1.41-5.43-2.6-7.26-.79-1.22-1.41-2.34-1.94-3.35-1.98-3.7-2.48-5.85-4.51-7.03Z"/>
            <path class="cls-17" d="m103.69,61.8c1.12-.99,1.54-2.71.99-4.1-.31-.79-.87-1.44-1.29-2.18s-.69-1.65-.34-2.42c.9-2.01,4.49-.93,5.72-2.75.63-.93.31-2.18-.02-3.26-.22-.71-.44-1.41-.66-2.12-.11-.34-.21-.72-.03-1.03.1-.17.26-.28.43-.38,1.66-.95,4.11-.49,5.26-2.02.79-1.06.52-2.53.4-3.85-.17-1.79.13-3.82,1.52-4.96,1.88-1.54,5.14-.96,6.49-2.98.68-1.02.54-2.51-.32-3.39-.97-.99-2.51-1.08-3.89-1.12-2.19-.05-4.45-.09-6.51.67-2.14.79-3.88,2.39-5.44,4.06-3.96,4.25-7.17,9.33-8.59,14.96-.93,3.68-1.05,7.6-.19,11.31.66,2.84,2.52,9.07,6.49,5.56Z"/>
            <path class="cls-14" d="m109.24,15.9c-2.58,0-4.95,1.57-6.88,3.41-.26.24-.51.48-.74.74-.35.36-.67.72-.98,1.11-1.52,1.9-2.65,4.11-3.7,6.34-.22.5-.48,1.01-.68,1.52-.32.68-.66,1.38-.94,2.08-1.19,2.8-2.23,5.62-3.03,8.56-.24.84-.42,1.69-.58,2.55-.15.74-.25,1.49-.32,2.25-.16,1.54-.18,3.1.08,4.64.81,4.97,4.94,9.38,8.09,13.3,2.31.27,4.49-2.27,3.83-4.51-.4-1.39-1.66-2.69-1.93-4-.11-.48-.08-.96.15-1.43.1-.18.19-.34.31-.45,1.4-1.53,4.88-.5,6.09-2.43,1.21-1.99-1.61-4.62-1.47-6.74,0-.36.11-.71.35-1.05.27-.38.62-.63,1.03-.78,1.65-.61,4.15.06,5.26-1.39,1.18-1.56-.43-3.8.01-5.69.07-.29.2-.57.34-.82.67-1.08,2.01-1.71,3.31-2.08.11-.03.18-.05.28-.08,1.48-.41,3.08-.72,4.14-1.81,1.14-1.17,1.05-3.59-.53-4.01-4.92-1.27-7.5-6.11-11.52-9.24Z"/>
            <path class="cls-25" d="m125.27,32.17c-2.54.97-4.51,3.36-4.83,6.08-.12.79-.08,1.62-.43,2.34-.35.66-.94,1.13-1.46,1.64-1.36,1.31-2.33,3.07-2.4,4.93-.05,1.61.69,3.3,1.97,4.23,3.58-3.35,7.27-6.51,11.69-8.61.16-2.17-1.41-5.43-2.6-7.26-.79-1.22-1.41-2.34-1.94-3.35Z"/>
            <path class="cls-29" d="m120.45,46.26c-.43.09-.95.13-1.22-.21-.19-.24-.17-.61-.02-.88s.41-.46.67-.63c.7-.44,4.85-1.97,5.37-.91.66,1.36-4.02,2.45-4.81,2.62Z"/>
            <path class="cls-29" d="m124.06,37.99c-.23-.51-.37-1.19.06-1.55.41-.33,1.03-.1,1.46.2.8.56,3.35,3.43,2.29,4.53-1.29,1.33-3.45-2.38-3.81-3.19Z"/>
            <path class="cls-32" d="m96.25,29.01c-.32.68-.66,1.38-.94,2.08,1.75,2.89,5.62,7.06,6.07,7.58,1.41,1.54,2.9,3.12,4.79,4.01.11.06.24.1.36.15,0-.36.11-.71.35-1.05.27-.38.62-.63,1.03-.78-.21-.36-.5-.64-.81-.93-2.13-2.12-4.25-4.24-6.39-6.34-.61-.61-2.87-3.43-4.48-4.73Z"/>
            <path class="cls-32" d="m91.71,42.2c-.15.74-.25,1.49-.32,2.25,1.07,1.79,3.29,3.85,4.12,4.73,1.73,1.87,3.7,3.54,5.95,4.7-.11-.48-.08-.96.15-1.43.1-.18.19-.34.31-.45-1.9-1.84-3.78-3.65-5.67-5.46-1.14-1.09-2.25-2.16-3.36-3.24-.31-.29-.76-.81-1.18-1.11Z"/>
          </g>
          <g>
            <path class="cls-15" d="m174.33,55.73c-.31.54-.83.96-1.32,1.32-2.69,1.99-5.68,3.46-8.84,4.62-.8.28-1.6.57-2.43.8-3.15.98-6.38,1.76-9.58,2.43-1.58.34-3.2.65-4.83.9-1.21.21-2.43.36-3.64.46-3.44.26-6.87.05-10.08-1.16-.49-.18-1.01-.41-1.34-.83-.36-.49-.41-1.14-.44-1.73-.28-4.91-.36-9.82-.26-14.75.1-4.19.96-7.8,5.19-9.07,5.24-1.58,10.36-3.49,15.78-4.39,5.43-.9,11.08-.93,16.38.62.57.15,1.16.36,1.52.8.31.34.44.8.57,1.21,1.55,5.22,2.71,10.54,3.49,15.89.15.96.26,2.01-.18,2.87Z"/>
            <path class="cls-4" d="m164.18,61.67c-.8.28-1.6.57-2.43.8-1.34-2.12-2.25-4.55-2.71-7.05-.46-2.38-.59-4.88-1.63-7.05-1.06-2.2-3.44-4.03-5.79-3.46-1.63.39-2.82,1.83-3.38,3.41-.57,1.55-.62,3.26-.65,4.93-.08,4.11-.15,8.22-.23,12.35,0,.08,0,.13-.03.21-1.21.21-2.43.36-3.64.46-1.01-1.27-1.6-2.92-2.07-4.5-1.58-5.3-5.27-15.11-2.66-20.56,2.48-5.14,12.14-7.34,17.13-6.23,1.47.34,2.92.96,3.93,2.09.98,1.08,1.45,2.51,1.83,3.9,1.91,6.72,2.71,13.74,2.33,20.69Z"/>
            <path class="cls-31" d="m170.9,35.71c.03.28-.03.57-.15.8-.41,1.01-1.73,1.6-2.92,1.7-1.47.13-3.07-.1-4.29.72-1.01.7-1.47,1.94-2.45,2.66-2.04,1.55-4.88,0-7.41-.34-1.81-.26-3.69.18-5.22,1.16-.77.49-1.47,1.14-2.35,1.47-1.96.77-4.11-.31-6.2-.67-1.39-.23-2.84-.13-4.21.26-.85.26-2.14,1.37-3.02.88-.77-.44-.9-1.32-.72-2.3.28-1.73,1.47-3.82,1.81-4.65.96-2.38,1.91-4.78,2.82-7.21,1.52-3.85,2.97-7.7,4.37-11.6.15-.41.31-.88.7-1.11.44-.31,1.01-.21,1.52-.13,6.51,1.27,12.71,4.06,18.06,7.98,3.33,2.48,6.33,5.4,8.86,8.68.39.52.78,1.06.83,1.68Z"/>
            <path class="cls-6" d="m161.21,25.35c-1.42,1.34-3.98,1.19-5.79,2.2-1.7.96-2.76,2.94-4.65,3.51-2.53.72-5.61-1.5-7.75.05-.46.36-.8.83-1.29,1.11-1.29.72-2.87-.21-3.98-1.19-.36-.31-.75-.57-1.19-.83,1.52-3.85,2.97-7.7,4.37-11.6.15-.41.31-.88.7-1.11.44-.31,1.01-.21,1.52-.13,6.51,1.27,12.71,4.06,18.06,7.98Z"/>
            <path class="cls-26" d="m141.37,22.99c-.37,1.46-.43,3-.18,4.49.08.46.19.94.47,1.32s.77.64,1.22.53c.43-.1.73-.48.93-.87.97-1.92.05-4.21-.86-6.16-.16-.34-.36-.72-.72-.83s-.83.31-.6.62c-.04-.09-.09-.18-.13-.27"/>
            <path class="cls-26" d="m145.87,21.82c.29,1.56,1.01,3.04,2.08,4.22.33.37.71.72,1.19.84s1.06-.05,1.26-.51c.13-.29.07-.63,0-.94-.53-2.05-2.18-3.77-4.21-4.39"/>
            <path class="cls-8" d="m170.74,36.51c-.41,1.01-1.73,1.6-2.92,1.7-1.47.13-3.07-.1-4.29.72-1.01.7-1.47,1.94-2.45,2.66-2.04,1.55-4.88,0-7.41-.34-1.81-.26-3.69.18-5.22,1.16-.77.49-1.47,1.14-2.35,1.47-1.96.77-4.11-.31-6.2-.67-1.39-.23-2.84-.13-4.21.26-.85.26-2.14,1.37-3.02.88-.77-.44-.9-1.32-.72-2.3.52.46,1.21.72,1.91.77,1.19.05,2.35-.44,3.49-.88,1.11-.46,2.3-.88,3.49-.7,1.32.18,2.43,1.06,3.72,1.24,2.38.31,4.42-1.71,6.77-2.14,2.89-.54,5.94,1.37,8.73.46,2.38-.77,3.88-3.44,6.3-3.98.98-.23,2.01-.08,3-.1.46,0,.96-.08,1.39-.23Z"/>
          </g>
          <g>
            <path class="cls-10" d="m139.76,63.02c.03,2.22-2.22,13.26-4.05,14.47-1.07.7-2.34.93-3.58,1.1-10.36,1.46-21.57-.31-29.79-6.73-3.58-2.79-6.65-6.05-8.67-10.08.82-3.18,4.11-5.04,7.18-6.22,4.08-1.63,8.36-2.79,12.59-4.11,5.1-1.61,10.08-3.41,14.45-6.48,2.14,1.01,4.39,4.25,5.49,6.36.73,1.41,1.46,2.59,2.14,3.63,2.45,3.86,4.22,5.49,4.25,8.05Z"/>
            <path class="cls-21" d="m95.82,59.56c1.54-.53,3.39,0,4.43,1.26.58.71.9,1.6,1.38,2.4s1.2,1.54,2.11,1.62c2.39.22,3.29-3.76,5.68-3.95,1.22-.1,2.24.87,3.08,1.77.55.59,1.1,1.18,1.66,1.77.26.28.57.58.96.58.21,0,.41-.09.59-.2,1.79-1.07,2.67-3.64,4.74-3.91,1.43-.18,2.68.86,3.87,1.68,1.61,1.12,3.69,1.93,5.52,1.22,2.47-.96,3.67-4.36,6.31-4.56,1.33-.1,2.67.83,3.04,2.12.42,1.45-.32,2.96-1.03,4.29-1.13,2.11-2.3,4.27-4.12,5.82-1.9,1.61-4.35,2.4-6.77,2.99-6.16,1.48-12.69,1.8-18.8.13-3.99-1.09-7.77-3.08-10.83-5.88-2.34-2.14-7.26-7.26-1.8-9.14Z"/>
            <path class="cls-13" d="m142.35,78.91c-1.38,2.45-4.14,3.86-6.93,4.7-.37.11-.73.23-1.1.31-.54.14-1.04.25-1.58.34-2.62.42-5.32.31-8,.11-.59-.06-1.21-.08-1.8-.17-.82-.06-1.66-.11-2.48-.23-3.29-.37-6.53-.9-9.74-1.72-.93-.23-1.83-.51-2.73-.82-.79-.25-1.55-.56-2.31-.9-1.55-.68-3.04-1.49-4.36-2.56-4.28-3.44-6.25-9.71-8.28-14.81.99-2.34,4.56-3.04,6.34-1.21,1.1,1.13,1.66,3.01,2.76,3.97.39.37.87.59,1.44.62.23,0,.42,0,.59-.06,2.2-.51,3.1-4.36,5.58-4.48,2.53-.08,3.52,4,5.6,5.01.34.2.73.28,1.18.23.51-.06.93-.25,1.3-.56,1.46-1.24,2.17-3.97,4.14-4.25,2.11-.28,3.38,2.45,5.41,3.04.31.08.65.11.96.11,1.38-.06,2.7-.99,3.75-2.03.08-.08.14-.14.23-.23,1.18-1.18,2.34-2.53,3.94-2.96,1.72-.45,3.97.93,3.52,2.65-1.44,5.35,1.77,10.39,2.59,15.88Z"/>
            <path class="cls-25" d="m135.51,54.97c-2.28,1.89-5.6,2.48-8.36,1.32-.82-.31-1.58-.79-2.45-.84-.82-.03-1.58.28-2.34.51-1.97.59-4.17.56-5.97-.37-1.55-.82-2.76-2.42-2.96-4.14,5.1-1.61,10.08-3.41,14.45-6.48,2.14,1.01,4.39,4.25,5.49,6.36.73,1.41,1.46,2.59,2.14,3.63Z"/>
            <path class="cls-29" d="m119.55,51.99c-.31.36-.63.83-.45,1.27.13.31.48.49.82.49s.66-.14.96-.3c.79-.44,4.47-3.55,3.74-4.61-.93-1.36-4.48,2.5-5.06,3.16Z"/>
            <path class="cls-29" d="m129.34,53c.36.49.93.99,1.5.77.54-.21.65-.92.6-1.49-.1-1.06-1.46-5.02-3.08-4.6-1.95.5.41,4.55.98,5.32Z"/>
            <path class="cls-9" d="m135.42,83.62c-.37.11-.73.23-1.1.31-.54.14-1.04.25-1.58.34-.79-1.3-1.15-2.84-1.49-4.34-.45-2.06-2.79-9.63-2.93-14.33,1.38-.06,2.7-.99,3.75-2.03.08-.08.14-.14.23-.23.06.08.08.14.14.23,1.21,2.11,1.66,4.53,2.03,6.96.45,2.84.76,5.72.96,8.59.08,1.49.17,3.01,0,4.51Z"/>
            <path class="cls-9" d="m122.95,84.21c-.82-.06-1.66-.11-2.48-.23-1.8-3.21-3.69-9.12-3.94-9.83-.7-2.17-1.41-4.42-1.24-6.7,0-.14.03-.28.06-.42.34.2.73.28,1.18.23.51-.06.93-.25,1.3-.56.23.39.34.82.45,1.27.87,3.15,1.75,6.31,2.59,9.46.25.9,1.72,4.56,2.08,6.79Z"/>
            <path class="cls-9" d="m108,81.45c-.79-.25-1.55-.56-2.31-.9-1.13-1.97-1.89-5.18-2.28-6.45-.84-2.65-1.38-5.41-1.27-8.17.39.37.87.59,1.44.62.23,0,.42,0,.59-.06.73,2.79,1.44,5.55,2.14,8.31.42,1.66.84,3.29,1.27,4.93.11.45.37,1.15.42,1.72Z"/>
          </g>
          <g>
            <g>
              <path class="cls-31" d="m53.8,54.51v-.08c.37-4.3.9-8.43,1.54-12.55.58-3.69,1.21-7.37,1.85-11.18,5.15-.35,9.65.52,14.49,2.32.13.04.25.1.38.13,5.58,1.96,13.33,2.63,15.79,7.93.31.72.46,1.48.43,2.26-.01.18-.03.39-.07.59-.19,1.26-.85,2.42-1.86,3.18-2.11,1.58-5.12,1.26-7.46,2.44-1.83.9-3.2,2.67-5.18,3.22-1.69.47-3.47-.04-5.24.06-2.6.15-4.91,1.64-7.36,2.57-2.45.91-5.62,1.09-7.32-.89Z"/>
              <path class="cls-12" d="m60.32,12.87c5.86-.14,10.84.58,15.6,2.07,5.14,1.59,10.02,4.02,15.44,7.11.12.09.22.15.35.21-1.18,6.99-2.18,13.93-3.33,20.89,0,.03-.03.05-.03.08-.02.23-.06.49-.1.72h-.03c-.08-.03-.15-.04-.23-.07-.18-.06-.38-.13-.58-.2-1.21-.4-2.65-1-3.53-1.66-3.29-2.44-7.04-4.37-10.96-5.98-5.15-2.14-10.61-3.72-15.72-5.34-.23-2.89,1.97-13.84,3.14-17.83Z"/>
            </g>
            <path class="cls-13" d="m53.8,54.51v-.08c.34.05.67.15.97.23,1.85.5,3.83.46,5.65-.08,2.36-.73,4.47-2.32,6.92-2.58,1.93-.2,3.93.44,5.74-.23,1.87-.72,3.04-2.65,4.86-3.45,1.02-.44,2.16-.52,3.26-.7,1.76-.31,3.44-.99,4.94-2,.68-.47,1.37-1.07,1.84-1.76.11-.15.2-.32.3-.52.03-.02.03-.08.06-.13-.02.23-.06.49-.1.72h-.03c-.19,1.25-.85,2.42-1.86,3.18-2.11,1.58-5.12,1.26-7.46,2.44-1.83.9-3.2,2.67-5.18,3.22-1.69.47-3.47-.04-5.24.06-2.6.15-4.91,1.64-7.36,2.57-2.45.91-5.62,1.09-7.32-.89Z"/>
            <path class="cls-3" d="m69.07,37.02c6.64,1.59,13.29,3.18,19.93,4.77"/>
            <path class="cls-22" d="m89.58,30.85c.58-2.94,1.18-5.87,1.78-8.81.12.09.22.15.35.21-1.18,6.99-2.18,13.93-3.33,20.89,0,.03-.03.05-.03.08-.02.23-.06.49-.1.72h-.03c-.08-.03-.15-.04-.23-.07-.18-.06.87-9.47,1.59-13.02Z"/>
            <path class="cls-7" d="m57.19,30.69c-.23-2.89,1.97-13.84,3.14-17.83,5.86-.14,10.84.58,15.6,2.07.1.11.19.27.28.41.3.44.5.97.46,1.48-.06.41-.21.79-.37,1.14-1.14,2.48-2.25,4.96-3.39,7.45-1.11,2.46-2.23,5.41-.85,7.73.55.92,1.43,2.12.85,2.89-.03.08-.09.15-.14.2-.22.19-.49.28-.78.38-2.53.93-4.44,3.33-7.09,3.86-1.66.32-3.33-.14-5.01-.23-2.12-.1-2.9,1.11-4.55,1.64.58-3.69,1.21-7.37,1.85-11.18Z"/>
            <path class="cls-26" d="m68.09,30.36c.53,0,1.19-.13,1.33-.64.08-.3-.07-.62-.26-.86-.53-.65-1.37-.96-2.18-1.17-1-.26-4.57-1.09-4.3,1.06.19,1.49,4.28,1.61,5.42,1.61Z"/>
            <path class="cls-26" d="m67.37,23.11c.34-.28.69-.69.54-1.1-.06-.18-.21-.31-.37-.42-.67-.44-1.53-.42-2.32-.3-1.22.18-2.4.57-3.5,1.13-1.6.82-1.77,2.71.27,2.61s3.84-.68,5.37-1.93Z"/>
            <path class="cls-26" d="m68.49,18.06c.62-.17,1.25-.47,1.59-1.02.17-.27.24-.64.06-.9-.09-.12-.21-.2-.34-.28-1.98-1.14-4.57-1.14-6.55,0-.1.06-.21.13-.27.23-.12.2-.03.46.09.66.92,1.47,3.91,1.72,5.42,1.31Z"/>
            <path class="cls-26" d="m66.36,36.55c.13-.12.24-.26.26-.43.04-.28-.16-.54-.36-.73-.75-.71-4.44-2.52-4.51-.51-.07,1.9,3.4,2.8,4.61,1.67Z"/>
            <path class="cls-26" d="m58.74,34.46c-.2-.23-.54-.36-.82-.24-.25.1-.39.36-.49.61-.3.71-1.12,4.69.62,3.78,1.18-.62,1.51-3.21.7-4.15Z"/>
          </g>
          <g>
            <g>
              <path class="cls-31" d="m189.71,75.18l-.05-.06c-2.89-3.2-5.82-6.17-8.82-9.07-2.69-2.59-5.42-5.14-8.24-7.78-4.32,2.84-7.37,6.25-10.13,10.62-.08.1-.14.23-.22.33-3.26,4.94-9.02,10.16-7.77,15.87.19.76.53,1.46,1.02,2.06.12.14.26.29.41.43.91.88,2.14,1.42,3.41,1.4,2.64-.02,4.84-2.09,7.41-2.57,2-.39,4.16.19,6.08-.57,1.63-.65,2.73-2.13,4.2-3.12,2.16-1.46,4.9-1.67,7.42-2.41,2.5-.76,5.14-2.53,5.28-5.14Z"/>
              <path class="cls-12" d="m159.31,45.98c-4.76,3.43-8.28,7.02-11.17,11.08-3.13,4.38-5.54,9.26-7.99,15-.05.14-.09.25-.15.37,5.17,4.85,10.17,9.77,15.3,14.62.02.02.05.02.07.04.15.17.34.35.52.51l.02-.02c.04-.07.1-.12.14-.19.1-.16.22-.33.34-.51.73-1.05,1.51-2.39,1.81-3.46,1.14-3.94,2.96-7.74,5.11-11.39,2.81-4.82,6.19-9.38,9.29-13.77-1.57-2.44-9.94-9.83-13.28-12.29Z"/>
            </g>
            <path class="cls-13" d="m189.71,75.18l-.05-.06c-.23.24-.44.52-.63.77-1.18,1.52-2.77,2.68-4.55,3.36-2.32.84-4.96.86-7.07,2.14-1.66,1.01-2.86,2.73-4.71,3.29-1.92.56-4.03-.27-5.96.19-1.08.26-2.03.9-3.02,1.42-1.59.82-3.34,1.29-5.14,1.4-.83.04-1.74-.02-2.53-.29-.18-.05-.36-.13-.55-.24-.04,0-.07-.04-.12-.06.15.17.34.35.52.51l.02-.02c.91.88,2.14,1.42,3.41,1.4,2.64-.02,4.84-2.09,7.41-2.57,2-.39,4.16.19,6.08-.57,1.63-.65,2.73-2.13,4.2-3.12,2.16-1.46,4.9-1.67,7.42-2.41,2.5-.76,5.14-2.53,5.28-5.14Z"/>
            <path class="cls-3" d="m166.97,70.5c-4.33,5.29-8.65,10.57-12.98,15.86"/>
            <path class="cls-22" d="m146.9,78c-2.24-1.99-4.49-3.96-6.75-5.93-.05.14-.09.25-.15.37,5.17,4.85,10.17,9.77,15.3,14.62.02.02.05.02.07.04.15.17.34.35.52.51l.02-.02c.04-.07.1-.12.14-.19.1-.16-6.42-7.01-9.15-9.4Z"/>
            <path class="cls-7" d="m172.6,58.27c-1.57-2.44-9.94-9.83-13.28-12.29-4.76,3.43-8.28,7.02-11.17,11.08,0,.15.02.33.02.5.02.53.19,1.07.53,1.46.29.29.65.5.98.68,2.41,1.29,4.8,2.59,7.21,3.88,2.37,1.28,5.05,2.95,5.36,5.64.12,1.07.15,2.55,1.07,2.81.07.04.16.07.23.07.29.02.55-.07.85-.17,2.58-.79,5.55-.04,7.98-1.22,1.51-.75,2.57-2.13,3.84-3.22,1.62-1.36,2.98-.87,4.61-1.45-2.69-2.59-5.42-5.14-8.24-7.78Z"/>
            <path class="cls-26" d="m163.71,64.61c-.42.32-1.03.62-1.45.29-.24-.19-.32-.53-.31-.84.02-.84.51-1.59,1.03-2.25.64-.82,2.98-3.64,4.07-1.76.75,1.3-2.44,3.87-3.34,4.56Z"/>
            <path class="cls-26" d="m159.9,58.39c-.44-.01-.96-.13-1.1-.55-.06-.18-.02-.38.04-.56.27-.75.97-1.26,1.66-1.64,1.08-.59,2.25-1,3.46-1.22,1.77-.32,3.05,1.08,1.37,2.24s-3.47,1.78-5.44,1.72Z"/>
            <path class="cls-26" d="m155.96,55.06c-.6.24-1.28.38-1.89.15-.3-.12-.58-.36-.59-.68,0-.15.05-.29.11-.43.89-2.11,2.95-3.67,5.21-3.96.12-.02.24-.03.35.02.22.09.31.35.33.58.16,1.73-2.08,3.74-3.52,4.32Z"/>
            <path class="cls-26" d="m168.84,68.48c-.17-.02-.35-.07-.47-.18-.2-.2-.2-.52-.16-.8.17-1.02,2.01-4.7,3.29-3.14,1.21,1.48-1.01,4.29-2.66,4.12Z"/>
            <path class="cls-26" d="m173.64,62.21c.02-.3.21-.61.51-.69.26-.07.53.05.77.19.67.38,3.73,3.05,1.79,3.38-1.31.22-3.15-1.64-3.06-2.88Z"/>
          </g>
          <g>
            <g>
              <path class="cls-31" d="m96.83,39.56v.08c-.05,4.31-.28,8.47-.62,12.63-.31,3.72-.67,7.44-1.03,11.29-5.12.72-9.66.18-14.62-1.27-.13-.03-.26-.08-.39-.1-5.71-1.55-13.49-1.65-16.33-6.77-.36-.7-.57-1.45-.59-2.22,0-.18,0-.39.03-.59.1-1.27.67-2.48,1.63-3.31,1.99-1.73,5.01-1.63,7.26-2.97,1.76-1.03,3-2.89,4.93-3.59,1.65-.59,3.46-.21,5.22-.44,2.58-.34,4.78-1.99,7.16-3.1,2.38-1.09,5.53-1.5,7.36.36Z"/>
              <path class="cls-12" d="m93.34,81.57c-5.84.57-10.85.21-15.71-.93-5.24-1.21-10.28-3.28-15.91-5.97-.13-.08-.23-.13-.36-.18.67-7.05,1.16-14.05,1.81-21.08,0-.03.03-.05.03-.08,0-.23.03-.49.05-.72h.03c.08.03.15.03.23.05.18.05.39.1.59.15,1.24.31,2.71.8,3.64,1.4,3.46,2.2,7.34,3.85,11.37,5.17,5.3,1.76,10.85,2.94,16.07,4.19.44,2.87-.96,13.95-1.83,18.01Z"/>
            </g>
            <path class="cls-13" d="m96.83,39.56v.08c-.34-.03-.67-.1-.98-.15-1.89-.36-3.85-.18-5.63.49-2.3.9-4.29,2.63-6.72,3.07-1.91.34-3.95-.15-5.71.65-1.81.85-2.84,2.87-4.6,3.8-.98.52-2.12.67-3.2.93-1.73.44-3.36,1.24-4.78,2.35-.65.52-1.29,1.16-1.71,1.89-.1.15-.18.34-.26.54-.03.03-.03.08-.05.13,0-.23.03-.49.05-.72h.03c.1-1.27.67-2.48,1.63-3.31,1.99-1.73,5.01-1.63,7.26-2.97,1.76-1.03,3-2.89,4.93-3.59,1.65-.59,3.46-.21,5.22-.44,2.58-.34,4.78-1.99,7.16-3.1,2.38-1.09,5.53-1.5,7.36.36Z"/>
            <path class="cls-3" d="m82.86,58.11c-6.74-1.11-13.48-2.21-20.22-3.32"/>
            <path class="cls-22" d="m62.86,65.76c-.36,2.97-.75,5.94-1.14,8.91-.13-.08-.23-.13-.36-.18.67-7.05,1.16-14.05,1.81-21.08,0-.03.03-.05.03-.08,0-.23.03-.49.05-.72h.03c.08.03.15.03.23.05.18.05-.18,9.51-.65,13.1Z"/>
            <path class="cls-6" d="m95.17,63.56c.44,2.87-.96,13.95-1.83,18.01-5.84.57-10.85.21-15.71-.93-.1-.1-.21-.26-.31-.39-.34-.41-.57-.93-.57-1.45.03-.41.15-.8.28-1.16.96-2.56,1.89-5.12,2.84-7.67.93-2.53,1.83-5.55.28-7.78-.62-.88-1.58-2.01-1.06-2.82.03-.08.08-.15.13-.21.21-.21.46-.31.75-.44,2.45-1.11,4.19-3.64,6.79-4.37,1.63-.44,3.33-.1,5.01-.13,2.12-.05,2.82-1.32,4.42-1.96-.31,3.72-.67,7.44-1.03,11.29Z"/>
            <path class="cls-26" d="m84.32,64.69c-.53.04-1.18.22-1.28.74-.06.31.11.61.33.84.57.61,1.44.86,2.26,1.01,1.02.19,4.64.76,4.22-1.37-.29-1.47-4.39-1.29-5.52-1.21Z"/>
            <path class="cls-26" d="m85.57,71.87c-.32.3-.64.74-.46,1.14.08.17.23.3.4.39.7.39,1.55.3,2.33.13,1.2-.27,2.35-.74,3.41-1.38,1.54-.93,1.57-2.83-.46-2.59s-3.78.96-5.22,2.31Z"/>
            <path class="cls-26" d="m84.82,76.98c-.61.22-1.22.56-1.51,1.13-.15.28-.2.65,0,.9.09.11.23.19.36.25,2.06.99,4.64.81,6.53-.47.1-.07.2-.14.25-.25.11-.21,0-.46-.14-.65-1.02-1.4-4.03-1.43-5.5-.91Z"/>
            <path class="cls-26" d="m85.6,58.39c-.12.13-.22.28-.23.45-.02.28.19.53.41.71.8.65,4.62,2.19,4.54.18-.07-1.9-3.6-2.55-4.72-1.33Z"/>
            <path class="cls-26" d="m93.35,59.92c.22.21.56.32.84.18.24-.12.36-.39.45-.65.25-.73.78-4.75-.89-3.72-1.13.7-1.28,3.31-.39,4.19Z"/>
          </g>
        </g>
        <path class="cls-2" d="m189.66,75.12c-2.89-3.2-5.82-6.17-8.82-9.07-2.69-2.59-5.42-5.14-8.24-7.78-.12-.18-.28-.4-.47-.63.29-.2.6-.38.88-.6.49-.36,1.01-.77,1.32-1.32.44-.85.34-1.91.18-2.87-.77-5.35-1.94-10.67-3.49-15.89-.07-.21-.13-.43-.22-.64.07-.19.11-.4.09-.62-.05-.62-.44-1.16-.83-1.68-2.53-3.28-5.53-6.2-8.86-8.68-5.35-3.93-11.55-6.72-18.06-7.98-.52-.08-1.08-.18-1.52.13-.39.23-.54.7-.7,1.11-1.39,3.9-2.84,7.75-4.37,11.6-.9,2.43-1.86,4.83-2.82,7.21-.34.83-1.52,2.92-1.81,4.65-.12.63-.1,1.22.13,1.67-.32,1.24-.45,2.61-.49,4.06,0,.23,0,.45,0,.68-1.09-1.48-2.41-2.89-3.69-3.5-2.11,1.49-4.38,2.67-6.72,3.69,2.66-2.29,5.47-4.37,8.66-5.88.16-2.17-1.41-5.43-2.6-7.26-.79-1.22-1.41-2.34-1.94-3.35-1.62-3.03-2.26-5.01-3.56-6.28-.21-.35-.52-.63-.95-.74,0,0,0,0,0,0-.44-.26-1.39-.65-2.58-1.08-3.38-1.97-5.68-5.63-8.94-8.16-2.58,0-4.95,1.57-6.88,3.41-.26.24-.51.48-.74.74-.35.36-.67.72-.98,1.11-1.52,1.9-2.65,4.11-3.7,6.34-.22.5-.48,1.01-.68,1.52-.32.68-.66,1.38-.94,2.08-1.01,2.37-1.9,4.77-2.64,7.24-1.1.1-2.22.43-3.21.88-.17.08-.33.16-.5.25.91-5.73,1.76-11.45,2.74-17.2-.12-.06-.22-.12-.35-.21-5.42-3.09-10.3-5.51-15.44-7.11-4.76-1.49-9.73-2.21-15.6-2.07-1.17,3.98-3.37,14.93-3.14,17.83-.64,3.81-1.27,7.5-1.85,11.18-.64,4.12-1.17,8.26-1.53,12.55v.08c1.69,1.99,4.86,1.8,7.31.89.66-.25,1.31-.54,1.95-.84-.6,6.64-1.07,13.26-1.71,19.92.13.05.23.1.36.18,5.63,2.69,10.67,4.75,15.91,5.97,4.86,1.14,9.87,1.5,15.71.93.59-2.74,1.42-8.7,1.76-13.15,1.51,3.66,3.34,7.26,6.22,9.57,1.32,1.07,2.82,1.89,4.36,2.56.76.34,1.52.65,2.31.9.9.31,1.8.59,2.73.82,3.21.82,6.45,1.35,9.74,1.72.82.11,1.66.17,2.48.23.59.08,1.21.11,1.8.17,2.68.2,5.38.31,8-.11.54-.08,1.04-.2,1.58-.34.37-.08.73-.2,1.1-.31,2.79-.84,5.55-2.25,6.93-4.7-.28-1.91-.86-3.77-1.43-5.6,4.84,4.56,9.55,9.19,14.38,13.74.02.02.05.02.07.04.15.17.34.35.52.51l.02-.02c.91.88,2.14,1.42,3.41,1.4,2.64-.02,4.84-2.09,7.41-2.57,2-.39,4.16.19,6.08-.57,1.63-.65,2.73-2.13,4.2-3.12,2.16-1.46,4.9-1.67,7.42-2.41,2.5-.76,5.14-2.53,5.28-5.14l-.05-.06Zm-50.25-8.82c1.11.07,2.22.08,3.34.02-.8,1.66-1.59,3.39-2.37,5.21-.51-1.74-.92-3.48-.98-5.23Zm-43.68-8.66c.13.17.26.34.39.51-.17.14-.33.28-.48.43.03-.31.06-.63.09-.94Z"/>
        <path class="cls-23" d="m47.39,52.34c.43.54,1.1.88,1.4,1.5.4.82.03,1.78-.23,2.66s-.32,2.01.44,2.51c.95-.85,1.33-2.22,1.22-3.49s-.64-2.48-1.26-3.59c-1.17-2.11-.15-3.13,1.17-4.76-2.07.41-4.43,3.11-2.75,5.18Z"/>
        <g>
          <path class="cls-24" d="m71.69,76.25c0-.2-.04-.42.03-.6.06-.16.23-.28.35-.41.13.12.31.23.38.38.08.18.05.4.07.6-.27.01-.55.02-.82.04Z"/>
          <path class="cls-24" d="m79.91,75.89c.02-.06.03-.14.07-.18.16-.18.33-.36.5-.54.08.23.16.46.25.68-.27.01-.55.02-.82.04Z"/>
          <path class="cls-24" d="m76.5,60.9c.06-.12.12-.23.17-.35.1-.25.26-.51.53-.35.13.08.09.43.12.66-.27.01-.55.02-.82.04Z"/>
          <path class="cls-24" d="m102.32,37.1c1.45-.5,2.42-.66,3.42-.44.23.05.51.27.59.47.15.35-.1.66-.41.82-.29.15-.62.31-.94.32-.39.01-.82-.05-1.18-.2-.4-.17-.75-.48-1.5-.97Z"/>
          <path class="cls-24" d="m73.23,22.7c.7,0,1.3.56,1.33,1.25.02.53-.47.95-1.08.95-.65,0-1.2-.5-1.21-1.1-.01-.55.46-1.09.97-1.09Z"/>
          <path class="cls-24" d="m123.13,41.42c.31.8.06,1.31-.32,1.69-.32.32-.76.55-1.18.75-.13.06-.42-.04-.54-.16-.11-.12-.15-.39-.08-.54.39-.9.93-1.65,2.12-1.74Z"/>
          <path class="cls-24" d="m90.06,80.98c.42.48.64,1.1.71,1.77.04.36-.08.71-.46.78-.31.05-.72.05-.94-.12-.46-.34-.56-.89-.44-1.45.12-.56.35-1.02,1.13-.97Z"/>
          <path class="cls-24" d="m130.79,36.47c-.68.78-1.57.94-2.5.95-.11,0-.36-.44-.31-.6.2-.63.71-1,1.35-1.03.51-.02,1.04.08,1.46.68Z"/>
          <path class="cls-24" d="m107.18,54.99c.17-.07.34-.2.52-.21.86-.06,1.72-.09,2.85-.13-.28.37-.38.65-.54.7-.71.19-1.43.32-2.15.45-.28.05-.4-.12-.68-.8Z"/>
          <path class="cls-24" d="m135.28,27.76c1.23-.25,2.32-.59,3.45-.41.17.77-.43.62-.74.71-.88.26-1.79.56-2.71-.29Z"/>
          <path class="cls-24" d="m107.49,69.08c-.12.51-.5.62-.93.56-.47-.07-.94-.17-1.18-.67-.12-.25.23-.71.56-.68.63.04,1.2.21,1.55.8Z"/>
          <path class="cls-24" d="m112.9,61.76c-.6.96-1.07,1.2-1.7.77-.18-.13-.3-.45-.31-.69-.01-.14.21-.38.37-.42.59-.16,1.22-.33,1.64.35Z"/>
          <path class="cls-24" d="m62.86,46.98c-.15-.04-.41-.09-.66-.18-.31-.12-.37-.72-.07-.85.36-.15.76-.26,1.15-.25.34,0,.69.25.63.65-.03.2-.32.38-.53.53-.1.07-.26.06-.52.11Z"/>
          <path class="cls-24" d="m108.54,85.2c1.19-.29,2.39-.64,3.73,0-.16.13-.25.26-.34.27-1.14.06-2.29.11-3.43.16.01-.14.03-.28.04-.42Z"/>
          <path class="cls-24" d="m115.5,27.11c-.67.52-1.25.53-1.82.24-.15-.07-.34-.35-.3-.45.08-.23.28-.54.47-.58.63-.11,1.15.16,1.66.79Z"/>
          <path class="cls-24" d="m149.57,47.81c-.44.67-.96.71-1.49.58-.24-.06-.59-.27-.61-.43-.02-.27.2-.56.36-.96.64.3,1.17.54,1.74.81Z"/>
          <path class="cls-24" d="m168.91,47.95c.15.04.29.06.41.12.18.08.35.19.55.3-.23.59-.03,1.4-.98,1.67-.32-.7-.08-1.39.02-2.09Z"/>
          <path class="cls-24" d="m146.88,62.88c-.7.62-1.3.34-1.88.3-.23-.45-.22-.8.36-.88.55-.08,1.03.08,1.52.58Z"/>
          <path class="cls-24" d="m157.01,81.4c.21-.26.41-.51.68-.84.14.23.35.41.32.55-.13.68-.32,1.35-.61,2.52-.18-1.06-.28-1.63-.38-2.22Z"/>
          <path class="cls-24" d="m124.02,64.68c.7-.29,1.11-.5,1.53-.62.14-.04.42.09.48.22.06.12-.02.42-.14.51-.48.36-1,.58-1.88-.1Z"/>
          <path class="cls-24" d="m120.47,67.08q1.16-.92,2.35-.51c.09.34-.11.5-.4.51-.52.03-1.03,0-1.95,0Z"/>
          <path class="cls-24" d="m147.51,57.16c.23.18.53.31.58.51.04.18-.15.47-.31.63-.13.12-.37.17-.56.17-.18,0-.49-.08-.51-.18-.05-.22-.03-.53.09-.71.14-.19.43-.26.72-.41Z"/>
          <path class="cls-24" d="m135.38,64.68c.21.2.51.37.61.62.05.13-.22.42-.39.61-.08.09-.26.16-.36.13-.23-.07-.55-.15-.63-.32-.08-.17.04-.49.16-.68.09-.14.32-.2.6-.35Z"/>
          <path class="cls-24" d="m92.17,32.68c-.5,1.03-1.06,1.17-1.69,1.19-.33-.34-.26-.68.1-.83.41-.17.88-.21,1.59-.36Z"/>
          <path class="cls-24" d="m68.56,54.83c-.46.28-.75.53-1.08.63-.31.09-.61-.32-.54-.65.08-.41.42-.64.9-.52.21.05.38.28.72.54Z"/>
          <path class="cls-24" d="m148.1,32.5c.47-.94,1.16-.55,1.94-.67-.56.99-1.22.73-1.94.67Z"/>
          <path class="cls-24" d="m133.14,31.77q1.12-.84,1.94-.2c-.56.39-1.13.32-1.94.2Z"/>
          <path class="cls-24" d="m78.07,53.24c.16.14.33.24.41.38.05.09.02.33-.05.36-.27.15-.56.28-.86.33-.11.02-.29-.21-.38-.37-.03-.06.07-.26.16-.32.21-.14.45-.25.71-.38Z"/>
          <path class="cls-24" d="m143.69,31.14c.08-.12.14-.35.29-.42.37-.19.92.09.94.47.01.16-.12.42-.26.5-.35.2-.85-.07-.97-.55Z"/>
          <path class="cls-24" d="m138.57,59.97c-1,.75-1.64.56-2.48.42.73-.77,1.4-.6,2.48-.42Z"/>
          <path class="cls-24" d="m148.6,46.51l.05,1.24c-.44.22-.5-.31-.8-.33.09-.53.39-.75.8-.86l-.06-.05Z"/>
          <path class="cls-24" d="m92.48,78.49c.46-.26.66-.44.88-.47.3-.05.53.14.56.45.03.39-.29.42-.55.38-.22-.03-.43-.17-.9-.36Z"/>
          <path class="cls-24" d="m169.97,46.18c.84.17.94.27.77.9-.03.1-.16.23-.26.24-.1.01-.29-.08-.31-.17-.09-.32-.14-.66-.2-.97Z"/>
          <path class="cls-24" d="m168.34,66.23c.07.45-.43.9-.89.78-.1-.03-.21-.17-.24-.28-.1-.41.19-.61.5-.73.15-.06.36.03.54.07.04,0,.06.1.09.16Z"/>
          <path class="cls-24" d="m178.48,76.92q.15.65-1.11.77.37-.51,1.11-.77Z"/>
          <path class="cls-24" d="m146.08,42.25c.49-.07.98-.15,1.46-.22-.17-.19-.34-.38-.51-.57.04.24.07.47.13.84-.35.04-.66.07-.96.11-.04-.05-.08-.1-.12-.15Z"/>
          <path class="cls-24" d="m136.59,76.81l-.92.04c0-.11-.02-.29.02-.3.22-.09.45-.16.69-.19.03,0,.1.21.21.45Z"/>
          <path class="cls-24" d="m103.29,90.79c.24-.18.38-.36.54-.38.16-.03.35.1.52.15-.12.11-.23.28-.37.31-.17.04-.38-.04-.69-.08Z"/>
          <path class="cls-24" d="m165.46,61.7c.19-.15.37-.38.58-.42.72-.14,1.2.21,1.37.9.04.17-.14.54-.29.58-.69.21-1.2-.1-1.52-.72-.06-.11-.1-.23-.14-.35Z"/>
          <path class="cls-24" d="m57.04,79.38c-.23,0-.48.03-.7-.03-.15-.04-.38-.22-.37-.32.04-.38.31-.29.55-.18.2.09.39.18.58.28-.02.08-.04.17-.06.25Z"/>
          <path class="cls-24" d="m135.28,57.77c.44-.49.77-.32,1.06.02.06.07.08.26.03.33-.06.09-.25.19-.32.16-.26-.14-.5-.32-.76-.5Z"/>
          <path class="cls-24" d="m145.48,25.27c.09.19.19.38.28.57-.12.05-.23.13-.35.13-.28,0-.46-.28-.32-.5.05-.08.19-.1.39-.2Z"/>
          <path class="cls-24" d="m57.24,71.44c-.2.11-.41.21-.61.32-.03-.11-.11-.31-.09-.32.19-.1.39-.17.59-.24.04.08.07.16.11.24Z"/>
          <path class="cls-24" d="m64.05,68.02c.19.13.38.29.52.48.05.06,0,.26-.07.34-.05.06-.27.06-.3.01-.14-.2-.24-.43-.34-.65,0-.02.16-.2.19-.18Z"/>
          <path class="cls-24" d="m82.14,44.53c.06.1.12.19.18.29-.14.06-.28.13-.42.19-.02-.11-.09-.24-.05-.31.05-.09.2-.12.3-.17Z"/>
          <path class="cls-24" d="m133.92,68.25c.06-.16.11-.26.15-.37.15.06.31.1.43.19.03.02-.07.3-.09.3-.16-.02-.32-.08-.48-.12Z"/>
          <path class="cls-24" d="m173.2,56.78c.07.09.13.18.2.26-.12.08-.24.16-.36.24-.04-.11-.13-.24-.11-.34.01-.07.18-.11.27-.16Z"/>
          <path class="cls-24" d="m133.41,54.49c.1.16.19.31.26.46.01.03-.06.11-.1.16-.14-.12-.29-.24-.43-.36.07-.07.14-.14.27-.26Z"/>
          <path class="cls-24" d="m138.96,53.27c-.33-.12-.49-.13-.55-.21-.11-.14-.18-.33-.24-.51-.01-.03.11-.15.12-.14.16.08.33.15.45.28.08.08.1.24.22.58Z"/>
          <path class="cls-24" d="m146.9,47.33l.04.84c-.05,0-.1,0-.16,0l-.04-.84c.05,0,.1,0,.16,0Z"/>
          <path class="cls-24" d="m155.99,63.92c.18-.19.27-.34.41-.41.07-.04.32.08.32.12,0,.17-.07.35-.12.52-.16-.06-.33-.12-.6-.23Z"/>
          <path class="cls-24" d="m97.86,70.93c-.23.17-.35.31-.5.35-.07.02-.28-.14-.27-.19.04-.16.11-.37.23-.42.1-.04.28.12.54.25Z"/>
          <path class="cls-24" d="m160.37,53.9c.62,0,1,0,1.54,0-.54.5-.92.55-1.54,0Z"/>
          <path class="cls-24" d="m159.39,34.07c-.09-.13-.2-.22-.21-.32-.02-.28.26-.48.48-.34.08.05.15.25.11.3-.09.14-.25.24-.38.36Z"/>
          <path class="cls-24" d="m154.17,47.12c.05.22.09.4.13.58-.09-.13-.18-.26-.26-.4-.01-.02.05-.09.12-.18Z"/>
          <path class="cls-24" d="m135.77,71.17c.12,0,.23-.02.35-.03-.06.22-.12.43-.19.64,0,.02-.12,0-.18,0,.02-.22.04-.45.06-.67l-.05.06Z"/>
          <path class="cls-24" d="m114.31,36.54c.12.04.25.09.37.13-.05.12-.09.23-.14.35-.12-.05-.27-.07-.34-.16-.04-.05.07-.21.11-.32Z"/>
          <path class="cls-24" d="m142.29,64.74c.06.08.18.18.16.22-.03.09-.14.15-.23.2-.02.01-.15-.09-.14-.1.06-.11.13-.21.21-.33Z"/>
          <path class="cls-24" d="m166.34,33.62c.06.15.11.29.17.43-.11.02-.24.08-.32.03-.09-.05-.14-.19-.21-.28.1-.05.2-.1.36-.18Z"/>
          <path class="cls-24" d="m142.4,28.19c-.13.05-.24.09-.35.13-.03-.09-.07-.17-.09-.26,0-.01.13-.08.17-.06.1.04.18.12.27.19Z"/>
          <path class="cls-24" d="m153.49,64.04c.45-.06.9-.14,1.36-.15.09,0,.22.3.27.47.01.05-.17.23-.26.22-.45-.02-.91-.08-1.36-.13,0-.14,0-.28,0-.42Z"/>
          <path class="cls-24" d="m115.69,38.26s.08-.08.11-.12c.07.1.13.19.19.29,0,0-.09.07-.14.1-.05-.09-.11-.19-.16-.28Z"/>
          <path class="cls-24" d="m86.98,61.25c-.11.15-.21.28-.31.4-.08-.07-.21-.14-.21-.21,0-.1.07-.25.16-.3.07-.04.2.06.37.11Z"/>
          <path class="cls-24" d="m79.38,28.18c.12.13.19.21.26.29-.12.11-.24.22-.38.32-.02.02-.16-.08-.16-.09.08-.16.16-.31.27-.51Z"/>
          <path class="cls-24" d="m142.11,28.61c.05-.09.11-.18.16-.27.03.05.1.11.09.15-.03.1-.09.18-.15.27-.03-.05-.07-.1-.1-.15Z"/>
          <path class="cls-24" d="m145.46,56.92c.09.09.28.2.26.26-.06.23-.19.44-.29.66-.09-.23-.2-.45-.25-.68-.01-.06.18-.16.28-.25Z"/>
          <path class="cls-24" d="m85.3,55.62c-.1.06-.2.13-.31.18-.02,0-.09-.09-.14-.13.1-.06.2-.13.31-.17.03,0,.09.08.14.13Z"/>
          <path class="cls-24" d="m172.69,69.31c.05-.02.1-.04.15-.07.02.09.03.18.05.28-.06-.01-.14,0-.18-.04-.03-.03-.02-.11-.03-.17Z"/>
          <path class="cls-24" d="m138.25,49.55c.01.05.05.13.03.15-.04.04-.11.05-.17.07-.02-.08-.04-.16-.06-.24.06,0,.13.02.19.03Z"/>
          <polygon class="cls-24" points="139.29 70.66 139.29 70.54 139.42 70.6 139.29 70.66"/>
          <path class="cls-24" d="m90.92,86c.04.08.07.16.11.24-.11.01-.23.04-.34.03-.03,0-.06-.09-.09-.13.11-.05.22-.1.33-.15Z"/>
          <path class="cls-24" d="m145.6,71.59s.1-.03.14-.05c.02.06.03.13.05.19-.05,0-.11,0-.15-.03-.03-.01-.03-.07-.04-.11Z"/>
          <path class="cls-24" d="m139.85,74.82c.12-.04.23-.1.35-.12.04,0,.09.09.14.14-.12.04-.23.1-.35.13-.03,0-.09-.09-.13-.14Z"/>
          <path class="cls-24" d="m148.66,46.56c.06-.14.12-.29.18-.43.02.05.07.14.05.16-.09.08-.19.15-.29.22,0,0,.06.05.06.05Z"/>
          <path class="cls-24" d="m147.93,25.14c.02.05.05.1.06.15,0,.02-.08.04-.13.06-.02-.05-.05-.1-.05-.15,0-.02.07-.04.12-.06Z"/>
          <path class="cls-24" d="m153.65,70.89c-.11-.08-.21-.15-.32-.23.33-.14.24.13.27.28,0,0,.05-.05.05-.05Z"/>
          <path class="cls-24" d="m100.73,67.82c.07.08.18.15.19.24,0,.05-.12.14-.19.2-.01,0-.13-.08-.12-.1.03-.12.08-.23.12-.34Z"/>
          <path class="cls-24" d="m166.03.3c.02-.05.04-.1.06-.16.06.02.12.04.16.08.01.01-.03.13-.05.13-.05,0-.11-.03-.16-.05Z"/>
          <path class="cls-24" d="m144.46,36.89s.08.08.13.13c-.09.06-.19.12-.29.16-.01,0-.06-.09-.1-.14.09-.05.17-.1.26-.15Z"/>
          <path class="cls-24" d="m58.59,61.35c-.11.05-.22.12-.34.15-.04,0-.1-.08-.15-.12.12-.06.23-.12.35-.16.03,0,.1.09.14.14Z"/>
          <path class="cls-24" d="m170.36,45.6s.08.08.12.12c-.09.06-.18.12-.28.16-.01,0-.07-.08-.1-.13.09-.05.17-.1.26-.16Z"/>
          <path class="cls-24" d="m128.93,72.61c.06-.02.11-.04.17-.06.02.08.03.17.05.25-.06-.01-.14,0-.18-.04-.03-.02-.02-.1-.03-.16Z"/>
          <path class="cls-24" d="m107.63,71.15c.05-.06.09-.15.12-.15.11.02.21.07.31.11-.1.05-.19.12-.3.15-.03,0-.09-.07-.14-.11Z"/>
          <path class="cls-24" d="m54.84,72.33s0-.11.02-.13c.04-.03.11-.03.16-.04,0,.07-.02.14-.03.21-.05-.01-.1-.03-.16-.04Z"/>
          <path class="cls-24" d="m179.18,43.85c-.02.05-.03.11-.05.16-.06-.05-.12-.1-.17-.17,0,0,.07-.08.1-.12.04.04.07.08.11.12Z"/>
          <path class="cls-24" d="m94.4,63.74c.08.08.22.17.21.22-.02.1-.14.18-.21.27-.05-.05-.15-.1-.14-.14.03-.11.09-.22.15-.35Z"/>
          <path class="cls-24" d="m152.81,27.18c.11.03.22.07.32.1-.05.11-.07.24-.15.32-.03.03-.25-.04-.27-.1-.03-.09.05-.21.09-.31Z"/>
          <path class="cls-24" d="m153.41,39.77c.08.16.15.31.23.47-.19.03-.38.09-.57.08-.08,0-.15-.16-.22-.25.19-.1.38-.2.57-.3Z"/>
        </g>
      </g>
    </g>
  </g>
</svg>