<?xml version="1.0" encoding="UTF-8"?>
<svg xmlns="http://www.w3.org/2000/svg" viewBox="0 0 258.29 123.79">
  <defs>
    <style>
      .cls-1 {
        fill: #bcb3a6;
        mix-blend-mode: multiply;
      }

      .cls-1, .cls-2, .cls-3, .cls-4, .cls-5, .cls-6, .cls-7, .cls-8, .cls-9, .cls-10, .cls-11, .cls-12, .cls-13, .cls-14 {
        stroke-width: 0px;
      }

      .cls-2 {
        fill: #ededed;
        opacity: .94;
      }

      .cls-15 {
        isolation: isolate;
      }

      .cls-3 {
        fill: #f7f9f8;
      }

      .cls-4 {
        fill: #f3a0be;
      }

      .cls-5 {
        fill: #fb75aa;
      }

      .cls-6 {
        fill: #d1d1d1;
      }

      .cls-7 {
        fill: #ddd;
      }

      .cls-8 {
        fill: #cc510d;
      }

      .cls-9 {
        fill: #fff;
      }

      .cls-10 {
        fill: #ef6aa0;
      }

      .cls-11 {
        fill: #e8e3da;
      }

      .cls-12 {
        fill: #ffabd1;
      }

      .cls-13 {
        fill: #ffc0dd;
      }

      .cls-14 {
        fill: #f270a5;
      }
    </style>
  </defs>
  <g class="cls-15">
    <g id="Layer_1" data-name="Layer 1">
      <g>
        <g>
          <ellipse class="cls-8" cx="137.07" cy="70.54" rx="121.22" ry="53.25"/>
          <g>
            <path class="cls-11" d="m240.58,50.2v.45c0,39.26-53.86,71.09-120.29,71.09S0,89.91,0,50.65v-.45c0-.16,0-.31,0-.47,0-.2,0-.41.02-.62,0-.07,0-.14,0-.21C1.69,21.77,54.89,0,120.29,0s118.6,21.77,120.25,48.9c0,.07,0,.14,0,.21,0,.2,0,.41.02.62,0,.16,0,.31,0,.47Z"/>
            <path class="cls-9" d="m240.58,50.2v.18c-.24,27.64-54,50.02-120.29,50.02S.24,78.02,0,50.38v-.18c0-.16,0-.31,0-.47,0-.2,0-.41.02-.62,0-.07,0-.14,0-.21C1.69,21.77,54.89,0,120.29,0s118.6,21.77,120.25,48.9c0,.07,0,.14,0,.21,0,.2.02.41.02.62,0,.16,0,.31,0,.47Z"/>
            <path class="cls-7" d="m225.97,49.25c0,19.54-30.01,36.16-71.9,42.31-11.21,1.65-23.27,2.54-35.83,2.54-59.5,0-107.73-20.08-107.73-44.85S58.74,4.4,118.24,4.4c13.97,0,27.32,1.11,39.58,3.13,39.92,6.56,68.15,22.77,68.15,41.73Z"/>
            <path class="cls-6" d="m225.97,49.25c0,19.54-30.01,36.16-71.9,42.31,7.4-4.45,15.89-7.8,23.19-12.34,6.66-4.13,21.15-17.99,23.35-19.74s2.65-4.54,2.56-6.92c-.39-10.31-6.24-19.88-15.9-27.03-9.06-6.71-19.92-11.74-29.46-18,39.92,6.56,68.15,22.77,68.15,41.73Z"/>
            <ellipse class="cls-2" cx="118.24" cy="59.6" rx="84.86" ry="36.4"/>
            <path class="cls-7" d="m76.91,89.33c-13.94-2.76-26.55-8.98-35.3-17.41-2.33-2.24-4.42-4.68-5.5-7.38-2.39-5.99.52-12.57,5.53-17.62-3.38,8.72-.02,17.83,6.64,25.47,6.66,7.64,17.49,13.02,28.64,16.93Z"/>
            <path class="cls-3" d="m197.01,55.85c-14.58-14.94-46.52-24.51-70.54-27.91,39.77,0,63.55,11.83,70.54,27.91Z"/>
          </g>
        </g>
        <path class="cls-1" d="m55.24,36.79c-3.16,4.17-5.53,8.96-6.95,14.03-1.03,3.67-1.55,7.61-.59,11.31,1.39,5.36,5.66,9.44,10.2,12.47,7.35,4.91,15.92,7.89,24.68,8.58,2.06.16,4.16.21,6.13.86,1.99.67,3.73,1.92,5.5,3.07,9.7,6.28,21.24,9.55,32.72,9.28,7.61-.18,15.01-3.93,22.52-5.17,3.34-.55,5.64-3.52,9.02-3.55,12.71-.1,20.97-4.24,24.49-5.81,2.76-1.23,8.66-4.09,10.64-6.4,5.58-6.53,7.69-13.23,8.09-15.45.88-4.9-1.14-9.23-5.12-12.12-21.79-15.82-47.95-26.01-74.68-26.2-20.2-.14-39.98,5.31-59.47,10.72-2.72.76-5.45,2.09-7.17,4.38Z"/>
        <g>
          <g>
            <path class="cls-13" d="m126.42,49.96c-.27,34.57-45.69,39.82-68.28,24.08-13.53-9.43-12.56-22.96-10.87-29.04,3.76-13.53,26.24-8.16,38.06-8.89,14.66-.53,29.49,2.84,41.1,13.85Z"/>
            <path class="cls-12" d="m47.27,45.01c-1.3,7.91,1.32,15.67,6.97,21.19,7.39,7.23,17.43,10.9,27.33,12.14,17.69,2.22,41.07-4.66,44.52-25.52,1.85-11.19-3.03-22.44-12-28.9-9.01-6.49-21.04-6.46-31.53-5.62-10.14.81-20.69,3.85-27.94,11.59-3.72,3.97-6.4,9.43-7.34,15.13Z"/>
            <path class="cls-5" d="m66.52,71.72l.36.14c-.1-.06-.2-.11-.3-.17,1.06-.84,1.48-2.39,2.65-3.07.2.14.14.46.06.69-.35.97-.71,1.94-1.06,2.91.21,0,.43-.04.62-.13-.26.33-.13.89.23,1.11s.86.09,1.11-.25c.02.35.52.47.78.26s.36-.57.43-.91.18-.71.45-.9c.02.8.04,1.59.07,2.39,0,.14,0,.28.07.41.14.28.51.33.8.26s1.34-.66,1.64-.69c-.14.11-.27.22-.41.34.35-.76.74-1.5,1.17-2.21-.03,1-.16,2.01-.4,2.98.08-.21.36-.28.54-.16s.27.36.23.58c.13-.25.42-.4.68-.32s.43.42.3.67l.85-1.43c.1.49.07,1.01-.08,1.48.63.23,1.28.38,1.95.45.37-.98.73-1.96,1.1-2.94,0,.73,0,1.45.01,2.18,0,.12,0,.24.06.34.12.22.43.23.63.39.16.13.24.36.41.48.32.25.76,0,1.12-.17s.95-.14.99.27c.34-.24.8-.15,1.22-.14s.93-.14,1-.56c.27.43,1.54.48,1.6-.02.18-1.69.35-3.37.53-5.06.02-.24.16-.56.38-.47.39,1.58,0,3.24.11,4.87.03.44.18.99.6,1.07.44.09.78-.41.9-.85.15-.53.18-1.1.1-1.65-.07-.46-.12-1.09.31-1.22.2,1.2.23,2.44.07,3.65.77-.52,1.73-.71,2.64-.53.07-2.29-.11-4.6-.56-6.86.2,0,.29.25.33.45.32,1.79.85,3.69,1.13,5.49.3-.19.62.21.77.54.23-.44.97-.41,1.17.05.11-.26.21-.52.32-.77.17.1.31.25.39.43.15-.42.86-.08,1.18-.39.08-.08.12-.19.17-.29.14-.3.49-.6.75-.4.09.07.14.17.2.26.37.56,1.72.41,2.09-.14.09-2.63.17-5.31-.4-7.88-.22-.98-.54-1.99-.37-2.98.01-.07.03-.15.08-.2.14-.13.35.04.45.2.49.82.5,1.83.51,2.79.02,2.17.09,4.35.54,6.47.14.67.48,1.47,1.14,1.49.63.02,1.16-.82,1.38-1.43-.34-2.1-.67-4.2-1.01-6.3-.03-.2,0-.48.2-.47.83,2.22.71,4.73,1.67,6.89.1.22.28.47.5.4.17-.05.23-.27.25-.45.09-.71.07-1.45-.07-2.15.58.23.9.87,1.14,1.46.06.16.13.33.26.44s.35.13.45-.01c.09-.12.05-.29,0-.44-.17-.57-.33-1.13-.5-1.7-.03-.09-.05-.18-.01-.26.1-.22.43-.05.54.16.14.26.19.56.3.84s.29.55.57.64.88-.38.76-.65c-.72-1.53-1.24-3.17-1.55-4.84.84.27,1.3,1.19,1.67,2.02s.86,1.75,1.71,1.97c.23-.98-1.05-1.82-.9-2.82.58.61,1.16,1.22,1.74,1.83.14.15.41.3.52.12.05-.07.04-.17.02-.26-.09-.34-.35-.6-.52-.91s-.19-.77.1-.95c.4.41.77.85,1.11,1.31.08-.07.13-.19.12-.3.27.28.67.41,1.04.34.13-.36.58-.71.79-1.02.3-.44.61-.88.91-1.32.21-.31.43-.67.32-1.03.3-.26.6-.53.9-.79-.55-.35-1.02-.86-1.33-1.46.48.15.97.29,1.45.44.09.03.19.05.27.02.21-.08.16-.43,0-.59s-.41-.21-.59-.37-.22-.51,0-.59c.24.63,1.03.96,1.62.68s.84-1.13.51-1.72c-.18-.32-.48-.54-.77-.75-.99-.72-1.98-1.44-2.97-2.16,1.87-.5,3.42,2.46,5.29,1.98.1-.03.22-.08.25-.18.02-.08,0-.17-.05-.24-.5-.97-1.87-1.27-2.17-2.32,1.15.29,2.24.87,3.14,1.67-.18-.2-.05-.54.16-.71s.47-.27.64-.48c.51-.64-.24-2.11.55-2.26.41-.08.48-.72.22-1.07s-.69-.48-1.07-.67-.77-.52-.78-.95c.71.06,1.41.14,2.12.24-.19-.2-.29-.5-.25-.78.17,0,.34-.01.51-.02-.28-.13-.53-.32-.73-.56.14-.4.65-.49.95-.79.36-.37.29-1.03-.03-1.45s-.81-.65-1.28-.84c-1.24-.49-2.54-.81-3.85-.95,1.59-.26,3.19-.52,4.78-.79-.3-.6-.92-1.02-1.57-1.05.15-.23.3-.46.45-.69-.74.12-1.48.24-2.22.35.97-.56,1.93-1.12,2.9-1.69-.61-.23-.16-1.33-.62-1.81-.12-.12-.29-.2-.33-.36-.06-.21.14-.4.23-.59.17-.38.02-1.1-.38-1.13-.17-.2-.41-.34-.67-.36.04-.24.15-.46.31-.63-.19.13-.47.12-.65-.03.17-.35.76-.36.82-.74.04-.23-.17-.44-.39-.49s-.44.04-.65.12c-1.07.42-2.09.96-3.05,1.6-.24-.22.05-.61.32-.79.99-.66,1.98-1.32,2.98-1.99-.1-.21-.36-.26-.56-.37s-.31-.47-.1-.55c-.4-.01-.81-.03-1.21-.05.23-.43.67-.73,1.14-.79-.31-.31-.54-.69-.68-1.11-.92.34-1.84.68-2.75,1.02.63-.7,1.4-1.26,2.25-1.64-.23.1-.52-.16-.46-.41.03-.11.1-.2.11-.31.02-.2-.18-.36-.37-.37s-.37.09-.54.18c-.55.31-1.09.62-1.64.93.43-.55.75-1.3,1.19-1.85-.31-.09-.54-.42-.53-.75-.11.09-.22.18-.33.28-.2-.16-.35-.38-.42-.63-2.03,2.28-4.38,4.26-6.94,5.86.21-.82.74-1.5,1.28-2.13,1.24-1.46,2.58-2.84,4-4.11.2-.18.42-.41.38-.68-.06-.4-.65-.6-.59-1-.26.21-.7-.19-.54-.49-.2.11-.39.23-.59.34.17-.31-.16-.77-.5-.68-.15.04-.27.15-.38.26-1.02,1.03-1.98,2.12-2.87,3.28-.41.54-.89,1.14-1.56,1.16,1.08-2,2.44-3.83,4.03-5.42-.3-.36-.46-.83-.44-1.3-.56.12-1.28.16-1.75-.18-.17.08-.41-.07-.41-.27-.13.1-.25.19-.38.29-.06-.22-.13-.43-.19-.65-1.04,1.01-1.92,2.2-2.61,3.5.23-1.01.66-1.97,1.26-2.79.33-.45.67-1.17.2-1.47-.23-.15-.54-.06-.81-.06s-.62-.19-.56-.47c-.25.12-.51.24-.76.35.25-.14.15-.59-.12-.7s-.57.08-.72.32-.2.55-.25.84c-.25,1.41-.78,2.76-1.55,3.94,0-.99.46-1.89.78-2.82s.47-2.04-.1-2.83c-.37.28-1-.04-1.02-.52-.33.12-.63.31-.87.57-.18-.27-.32-.56-.41-.87-.59.19-.83.9-.91,1.54s-.12,1.33-.56,1.78c.08-.79.16-1.59.24-2.38.04-.36.06-.77-.19-1.03-.37-.4-1-.14-1.46.14-.11-.54-.91-.74-1.25-.32-.12-.19-.24-.38-.35-.58-.1.22-.26.41-.46.53-.02-.18-.04-.36-.15-.5s-.35-.31-.43-.16c-.25-.12-.55.04-.69.28s-.16.54-.17.82c-.1,1.97-.2,3.94-.3,5.91-.39-.62-.37-1.42-.34-2.16.05-1.15.1-2.3.15-3.45.01-.26.02-.54-.11-.77-.09-.15-.22-.27-.37-.37-.39-.25-.85-.37-1.31-.33-.11,0-.23.03-.34,0-.1-.03-.18-.09-.27-.11-.3-.09-.58.14-.86.28s-.91.21-.97-.1c-.47.13-.94.25-1.41.38l-1.31-.24c-.13.27-.27.55-.4.82-.27-.36-.54-.72-.81-1.08-.41.22-.38.83-.28,1.3.56,2.87,1.13,5.74,1.69,8.62-1.87-2.68-1.09-6.59-2.8-9.37-.23.51-.97.67-1.38.29-.25.29-.49.58-.74.88-.28.02-.35-.38-.4-.66s-.43-.57-.54-.31c-.03.06-.02.13-.01.19.16,1.79.32,3.58.48,5.37-.4-1.88-.8-3.77-1.2-5.65l-.55.68-.4-.35c-.18.18-.36.36-.53.54.15-.3-.38-.55-.61-.32s-.2.62-.16.96c.14,1.01.28,2.02.42,3.03-.3-.78-.6-1.57-.89-2.35-.15-.39-.3-.78-.56-1.1-.31-.38-.77-.63-1.25-.68-.21.31-.71.35-.96.07l-.27.78c-.18-.03-.35-.15-.45-.32.03.33-.03.67-.16.97-.13-.19-.27-.51-.4-.7-.3.26-.81.24-1.09-.06-.08.42-.65.61-.96.33-.19.26-.38.52-.57.77.04-.47-.79-.47-.94-.02s.12.92.34,1.34c.5.97.78,2.06.81,3.16-.75-1.36-1.39-2.78-1.89-4.26l-.63,1c-.19-.31-.47-.56-.79-.7.11.69.22,1.38.33,2.07-.32-.63-.65-1.26-.97-1.9-.3.22-.6.45-.9.67-.74.31-1.48.61-2.23.92-.11.04-.22.09-.3.18-.26.28-.05.74.16,1.07.96,1.54,1.59,3.31,1.83,5.12-.85-1.88-1.84-3.7-2.96-5.43-.29.52-1.07.66-1.52.27-.24.37-.49.74-.73,1.12-.06-.31-.57-.25-.68.04s.03.62.16.9c.49,1.02.99,2.05,1.48,3.07-.77-.87-1.55-1.75-2.32-2.62-.12-.14-.26-.28-.44-.31-.18-.03-.34.07-.49.18-.66.48-1.19,1.17-1.49,1.95l-.7.04c.22.41.43.81.65,1.22-.43-.09-.87-.18-1.3-.27.2.12-.02.44-.24.5s-.52.13-.53.37c0,.15.13.27.25.36.45.35.91.7,1.36,1.05-.68-.29-1.5-.58-2.19-.87-.88.63-1.86,1.49-1.73,2.6.13,1.18,1.42,1.78,2.52,2.1s2.4.74,2.75,1.87c-1.83-1.22-3.89-2.08-6.02-2.52-.17-.04-.36-.06-.51.04-.11.08-.16.22-.2.35-.21.62-.43,1.24-.64,1.86-.11.33-.2.75.05.97.12.1.29.13.41.23s.17.34.03.4c-.22-.44-.92-.29-1.15.14s-.13.96-.02,1.44c.06.27.13.56.31.77.24.27.63.34.97.41,1.4.3,2.74.98,3.82,1.96-1.5-.6-3-1.19-4.49-1.79-.31-.13-.72-.23-.95.02-.15.16-.16.41-.17.63-.03,1.57-.06,3.14-.1,4.71.39-.01.49.04.82.26-.33.22-.67.44-1,.65l.8.04-.64.59c1.14-.28,2.35-.22,3.47.16-.93.15-1.85.38-2.74.69-.44.15-.96.47-.89.95.07.44.61.61,1.03.54s.82-.29,1.24-.25c-.4.25-.81.5-1.21.75.15.09.33.12.49.09l-.52.56.44.22-.25.78c.15.11.34.17.52.18-.26.32-.37.75-.31,1.16,1.11-.39,2.21-.78,3.32-1.17.36-.13.94-.1.92.3-1.16.09-2.28.56-3.17,1.32-.26.22-.52.56-.4.89.16.44.77.38,1.2.24,1.9-.63,3.8-1.27,5.69-1.9.1.44-.38.75-.78.92-1.35.56-2.71,1.11-4.06,1.67-.38.15-.8.37-.89.78-.05.21,0,.43.08.63.44,1.18,1.65,2.01,2.87,1.96-.15.36-.3.72-.45,1.08l.65-.28c-.03.59.29,1.19.79,1.47.32-.33,1.03.06,1.1.52.04.25-.07.51.03.74.14.34.71.3.81-.05-.06.6-.06,1.35.45,1.65.59.34,1.26-.22,1.72-.72,1.24-1.35,2.59-2.59,4.04-3.69-.62,1.95-2.73,2.95-3.7,4.73-.21.39-.24,1.05.18,1.11.16.02.31-.06.45-.15.5-.31,1.01-.62,1.51-.93-.18.54-.34,1.09-.48,1.65.22-.1.44-.21.66-.31-.23.35-.29.82-.17,1.23.27-.19.61-.28.94-.25-.23.17-.04.59.23.66s.55-.09.78-.24c-.02.35.01.7.09,1.04.16-.09.32-.18.48-.27.13.09.38.22.53.28Z"/>
            <ellipse class="cls-4" cx="88.13" cy="47.89" rx="2.08" ry="1.44" transform="translate(-6.6 14.92) rotate(-9.33)"/>
          </g>
          <g>
            <path class="cls-13" d="m171.93,46.69c-.27,34.57-45.69,39.82-68.28,24.08-13.53-9.43-12.56-22.96-10.87-29.04,3.76-13.53,26.24-8.16,38.06-8.89,14.66-.53,29.49,2.84,41.1,13.85Z"/>
            <path class="cls-12" d="m92.78,41.73c-1.3,7.91,1.32,15.67,6.97,21.19,7.39,7.23,17.43,10.9,27.33,12.14,17.69,2.22,41.07-4.66,44.52-25.52,1.85-11.19-3.03-22.44-12-28.9-9.01-6.49-21.04-6.46-31.53-5.62-10.14.81-20.69,3.85-27.94,11.59-3.72,3.97-6.4,9.43-7.34,15.13Z"/>
            <path class="cls-10" d="m112.03,68.44l.36.14c-.1-.06-.2-.11-.3-.17,1.06-.84,1.48-2.39,2.65-3.07.2.14.14.46.06.69-.35.97-.71,1.94-1.06,2.91.21,0,.43-.04.62-.13-.26.33-.13.89.23,1.11s.86.09,1.11-.25c.02.35.52.47.78.26s.36-.57.43-.91.18-.71.45-.9c.02.8.04,1.59.07,2.39,0,.14,0,.28.07.41.14.28.51.33.8.26s1.34-.66,1.64-.69c-.14.11-.27.22-.41.34.35-.76.74-1.5,1.17-2.21-.03,1-.16,2.01-.4,2.98.08-.21.36-.28.54-.16s.27.36.23.58c.13-.25.42-.4.68-.32s.43.42.3.67l.85-1.43c.1.49.07,1.01-.08,1.48.63.23,1.28.38,1.95.45.37-.98.73-1.96,1.1-2.94,0,.73,0,1.45.01,2.18,0,.12,0,.24.06.34.12.22.43.23.63.39.16.13.24.36.41.48.32.25.76,0,1.12-.17s.95-.14.99.27c.34-.24.8-.15,1.22-.14s.93-.14,1-.56c.27.43,1.54.48,1.6-.02.18-1.69.35-3.37.53-5.06.02-.24.16-.56.38-.47.39,1.58,0,3.24.11,4.87.03.44.18.99.6,1.07.44.09.78-.41.9-.85.15-.53.18-1.1.1-1.65-.07-.46-.12-1.09.31-1.22.2,1.2.23,2.44.07,3.65.77-.52,1.73-.71,2.64-.53.07-2.29-.11-4.6-.56-6.86.2,0,.29.25.33.45.32,1.79.85,3.69,1.13,5.49.3-.19.62.21.77.54.23-.44.97-.41,1.17.05.11-.26.21-.52.32-.77.17.1.31.25.39.43.15-.42.86-.08,1.18-.39.08-.08.12-.19.17-.29.14-.3.49-.6.75-.4.09.07.14.17.2.26.37.56,1.72.41,2.09-.14.09-2.63.17-5.31-.4-7.88-.22-.98-.54-1.99-.37-2.98.01-.07.03-.15.08-.2.14-.13.35.04.45.2.49.82.5,1.83.51,2.79.02,2.17.09,4.35.54,6.47.14.67.48,1.47,1.14,1.49.63.02,1.16-.82,1.38-1.43-.34-2.1-.67-4.2-1.01-6.3-.03-.2,0-.48.2-.47.83,2.22.71,4.73,1.67,6.89.1.22.28.47.5.4.17-.05.23-.27.25-.45.09-.71.07-1.45-.07-2.15.58.23.9.87,1.14,1.46.06.16.13.33.26.44s.35.13.45-.01c.09-.12.05-.29,0-.44-.17-.57-.33-1.13-.5-1.7-.03-.09-.05-.18-.01-.26.1-.22.43-.05.54.16.14.26.19.56.3.84s.29.55.57.64.88-.38.76-.65c-.72-1.53-1.24-3.17-1.55-4.84.84.27,1.3,1.19,1.67,2.02s.86,1.75,1.71,1.97c.23-.98-1.05-1.82-.9-2.82.58.61,1.16,1.22,1.74,1.83.14.15.41.3.52.12.05-.07.04-.17.02-.26-.09-.34-.35-.6-.52-.91s-.19-.77.1-.95c.4.41.77.85,1.11,1.31.08-.07.13-.19.12-.3.27.28.67.41,1.04.34.13-.36.58-.71.79-1.02.3-.44.61-.88.91-1.32.21-.31.43-.67.32-1.03.3-.26.6-.53.9-.79-.55-.35-1.02-.86-1.33-1.46.48.15.97.29,1.45.44.09.03.19.05.27.02.21-.08.16-.43,0-.59s-.41-.21-.59-.37-.22-.51,0-.59c.24.63,1.03.96,1.62.68s.84-1.13.51-1.72c-.18-.32-.48-.54-.77-.75-.99-.72-1.98-1.44-2.97-2.16,1.87-.5,3.42,2.46,5.29,1.98.1-.03.22-.08.25-.18.02-.08,0-.17-.05-.24-.5-.97-1.87-1.27-2.17-2.32,1.15.29,2.24.87,3.14,1.67-.18-.2-.05-.54.16-.71s.47-.27.64-.48c.51-.64-.24-2.11.55-2.26.41-.08.48-.72.22-1.07s-.69-.48-1.07-.67-.77-.52-.78-.95c.71.06,1.41.14,2.12.24-.19-.2-.29-.5-.25-.78.17,0,.34-.01.51-.02-.28-.13-.53-.32-.73-.56.14-.4.65-.49.95-.79.36-.37.29-1.03-.03-1.45s-.81-.65-1.28-.84c-1.24-.49-2.54-.81-3.85-.95,1.59-.26,3.19-.52,4.78-.79-.3-.6-.92-1.02-1.57-1.05.15-.23.3-.46.45-.69-.74.12-1.48.24-2.22.35.97-.56,1.93-1.12,2.9-1.69-.61-.23-.16-1.33-.62-1.81-.12-.12-.29-.2-.33-.36-.06-.21.14-.4.23-.59.17-.38.02-1.1-.38-1.13-.17-.2-.41-.34-.67-.36.04-.24.15-.46.31-.63-.19.13-.47.12-.65-.03.17-.35.76-.36.82-.74.04-.23-.17-.44-.39-.49s-.44.04-.65.12c-1.07.42-2.09.96-3.05,1.6-.24-.22.05-.61.32-.79.99-.66,1.98-1.32,2.98-1.99-.1-.21-.36-.26-.56-.37s-.31-.47-.1-.55c-.4-.01-.81-.03-1.21-.05.23-.43.67-.73,1.14-.79-.31-.31-.54-.69-.68-1.11-.92.34-1.84.68-2.75,1.02.63-.7,1.4-1.26,2.25-1.64-.23.1-.52-.16-.46-.41.03-.11.1-.2.11-.31.02-.2-.18-.36-.37-.37s-.37.09-.54.18c-.55.31-1.09.62-1.64.93.43-.55.75-1.3,1.19-1.85-.31-.09-.54-.42-.53-.75-.11.09-.22.18-.33.28-.2-.16-.35-.38-.42-.63-2.03,2.28-4.38,4.26-6.94,5.86.21-.82.74-1.5,1.28-2.13,1.24-1.46,2.58-2.84,4-4.11.2-.18.42-.41.38-.68-.06-.4-.65-.6-.59-1-.26.21-.7-.19-.54-.49-.2.11-.39.23-.59.34.17-.31-.16-.77-.5-.68-.15.04-.27.15-.38.26-1.02,1.03-1.98,2.12-2.87,3.28-.41.54-.89,1.14-1.56,1.16,1.08-2,2.44-3.83,4.03-5.42-.3-.36-.46-.83-.44-1.3-.56.12-1.28.16-1.75-.18-.17.08-.41-.07-.41-.27-.13.1-.25.19-.38.29-.06-.22-.13-.43-.19-.65-1.04,1.01-1.92,2.2-2.61,3.5.23-1.01.66-1.97,1.26-2.79.33-.45.67-1.17.2-1.47-.23-.15-.54-.06-.81-.06s-.62-.19-.56-.47c-.25.12-.51.24-.76.35.25-.14.15-.59-.12-.7s-.57.08-.72.32-.2.55-.25.84c-.25,1.41-.78,2.76-1.55,3.94,0-.99.46-1.89.78-2.82s.47-2.04-.1-2.83c-.37.28-1-.04-1.02-.52-.33.12-.63.31-.87.57-.18-.27-.32-.56-.41-.87-.59.19-.83.9-.91,1.54s-.12,1.33-.56,1.78c.08-.79.16-1.59.24-2.38.04-.36.06-.77-.19-1.03-.37-.4-1-.14-1.46.14-.11-.54-.91-.74-1.25-.32-.12-.19-.24-.38-.35-.58-.1.22-.26.41-.46.53-.02-.18-.04-.36-.15-.5s-.35-.31-.43-.16c-.25-.12-.55.04-.69.28s-.16.54-.17.82c-.1,1.97-.2,3.94-.3,5.91-.39-.62-.37-1.42-.34-2.16.05-1.15.1-2.3.15-3.45.01-.26.02-.54-.11-.77-.09-.15-.22-.27-.37-.37-.39-.25-.85-.37-1.31-.33-.11,0-.23.03-.34,0-.1-.03-.18-.09-.27-.11-.3-.09-.58.14-.86.28s-.91.21-.97-.1c-.47.13-.94.25-1.41.38l-1.31-.24c-.13.27-.27.55-.4.82-.27-.36-.54-.72-.81-1.08-.41.22-.38.83-.28,1.3.56,2.87,1.13,5.74,1.69,8.62-1.87-2.68-1.09-6.59-2.8-9.37-.23.51-.97.67-1.38.29-.25.29-.49.58-.74.88-.28.02-.35-.38-.4-.66s-.43-.57-.54-.31c-.03.06-.02.13-.01.19.16,1.79.32,3.58.48,5.37-.4-1.88-.8-3.77-1.2-5.65l-.55.68-.4-.35c-.18.18-.36.36-.53.54.15-.3-.38-.55-.61-.32s-.2.62-.16.96c.14,1.01.28,2.02.42,3.03-.3-.78-.6-1.57-.89-2.35-.15-.39-.3-.78-.56-1.1-.31-.38-.77-.63-1.25-.68-.21.31-.71.35-.96.07l-.27.78c-.18-.03-.35-.15-.45-.32.03.33-.03.67-.16.97-.13-.19-.27-.51-.4-.7-.3.26-.81.24-1.09-.06-.08.42-.65.61-.96.33-.19.26-.38.52-.57.77.04-.47-.79-.47-.94-.02s.12.92.34,1.34c.5.97.78,2.06.81,3.16-.75-1.36-1.39-2.78-1.89-4.26l-.63,1c-.19-.31-.47-.56-.79-.7.11.69.22,1.38.33,2.07-.32-.63-.65-1.26-.97-1.9-.3.22-.6.45-.9.67-.74.31-1.48.61-2.23.92-.11.04-.22.09-.3.18-.26.28-.05.74.16,1.07.96,1.54,1.59,3.31,1.83,5.12-.85-1.88-1.84-3.7-2.96-5.43-.29.52-1.07.66-1.52.27-.24.37-.49.74-.73,1.12-.06-.31-.57-.25-.68.04s.03.62.16.9c.49,1.02.99,2.05,1.48,3.07-.77-.87-1.55-1.75-2.32-2.62-.12-.14-.26-.28-.44-.31-.18-.03-.34.07-.49.18-.66.48-1.19,1.17-1.49,1.95l-.7.04c.22.41.43.81.65,1.22-.43-.09-.87-.18-1.3-.27.2.12-.02.44-.24.5s-.52.13-.53.37c0,.15.13.27.25.36.45.35.91.7,1.36,1.05-.68-.29-1.5-.58-2.19-.87-.88.63-1.86,1.49-1.73,2.6.13,1.18,1.42,1.78,2.52,2.1s2.4.74,2.75,1.87c-1.83-1.22-3.89-2.08-6.02-2.52-.17-.04-.36-.06-.51.04-.11.08-.16.22-.2.35-.21.62-.43,1.24-.64,1.86-.11.33-.2.75.05.97.12.1.29.13.41.23s.17.34.03.4c-.22-.44-.92-.29-1.15.14s-.13.96-.02,1.44c.06.27.13.56.31.77.24.27.63.34.97.41,1.4.3,2.74.98,3.82,1.96-1.5-.6-3-1.19-4.49-1.79-.31-.13-.72-.23-.95.02-.15.16-.16.41-.17.63-.03,1.57-.06,3.14-.1,4.71.39-.01.49.04.82.26-.33.22-.67.44-1,.65l.8.04-.64.59c1.14-.28,2.35-.22,3.47.16-.93.15-1.85.38-2.74.69-.44.15-.96.47-.89.95.07.44.61.61,1.03.54s.82-.29,1.24-.25c-.4.25-.81.5-1.21.75.15.09.33.12.49.09l-.52.56.44.22-.25.78c.15.11.34.17.52.18-.26.32-.37.75-.31,1.16,1.11-.39,2.21-.78,3.32-1.17.36-.13.94-.1.92.3-1.16.09-2.28.56-3.17,1.32-.26.22-.52.56-.4.89.16.44.77.38,1.2.24,1.9-.63,3.8-1.27,5.69-1.9.1.44-.38.75-.78.92-1.35.56-2.71,1.11-4.06,1.67-.38.15-.8.37-.89.78-.05.21,0,.43.08.63.44,1.18,1.65,2.01,2.87,1.96-.15.36-.3.72-.45,1.08l.65-.28c-.03.59.29,1.19.79,1.47.32-.33,1.03.06,1.1.52.04.25-.07.51.03.74.14.34.71.3.81-.05-.06.6-.06,1.35.45,1.65.59.34,1.26-.22,1.72-.72,1.24-1.35,2.59-2.59,4.04-3.69-.62,1.95-2.73,2.95-3.7,4.73-.21.39-.24,1.05.18,1.11.16.02.31-.06.45-.15.5-.31,1.01-.62,1.51-.93-.18.54-.34,1.09-.48,1.65.22-.1.44-.21.66-.31-.23.35-.29.82-.17,1.23.27-.19.61-.28.94-.25-.23.17-.04.59.23.66s.55-.09.78-.24c-.02.35.01.7.09,1.04.16-.09.32-.18.48-.27.13.09.38.22.53.28Z"/>
            <ellipse class="cls-4" cx="133.64" cy="44.61" rx="2.08" ry="1.44" transform="translate(-5.46 22.26) rotate(-9.33)"/>
          </g>
          <g>
            <path class="cls-13" d="m199.79,52.15c-.25,34.57-42.96,39.82-64.21,24.08-12.73-9.43-11.81-22.96-10.22-29.04,3.54-13.53,24.68-8.16,35.78-8.89,13.79-.53,27.73,2.84,38.65,13.85Z"/>
            <path class="cls-12" d="m125.36,47.19c-1.23,7.91,1.25,15.67,6.56,21.19,6.95,7.23,16.39,10.9,25.7,12.14,16.63,2.22,38.62-4.66,41.86-25.52,1.74-11.19-2.85-22.44-11.29-28.9-8.48-6.49-19.79-6.46-29.65-5.62-9.53.81-19.45,3.85-26.27,11.59-3.49,3.97-6.02,9.43-6.9,15.13Z"/>
            <path class="cls-14" d="m143.47,73.9l.34.14c-.09-.06-.19-.11-.28-.17,1-.84,1.39-2.39,2.49-3.07.19.14.13.46.05.69-.33.97-.67,1.94-1,2.91.2,0,.4-.04.58-.13-.24.33-.12.89.22,1.11s.8.09,1.04-.25c.02.35.49.47.74.26s.33-.57.41-.91.17-.71.43-.9c.02.8.04,1.59.06,2.39,0,.14,0,.28.07.41.13.28.48.33.75.26s1.26-.66,1.54-.69c-.13.11-.26.22-.39.34.33-.76.69-1.5,1.1-2.21-.02,1-.15,2.01-.38,2.98.07-.21.34-.28.51-.16s.25.36.21.58c.12-.25.39-.4.64-.32s.4.42.28.67l.8-1.43c.09.49.06,1.01-.08,1.48.59.23,1.21.38,1.83.45.34-.98.69-1.96,1.03-2.94,0,.73,0,1.45.01,2.18,0,.12,0,.24.06.34.12.22.4.23.59.39.15.13.23.36.38.48.31.25.72,0,1.06-.17s.89-.14.93.27c.32-.24.75-.15,1.14-.14s.87-.14.94-.56c.26.43,1.45.48,1.5-.02.16-1.69.33-3.37.49-5.06.02-.24.15-.56.36-.47.37,1.58,0,3.24.11,4.87.03.44.17.99.57,1.07.42.09.73-.41.85-.85.14-.53.17-1.1.1-1.65-.06-.46-.11-1.09.29-1.22.19,1.2.21,2.44.06,3.65.72-.52,1.63-.71,2.48-.53.07-2.29-.11-4.6-.53-6.86.19,0,.27.25.31.45.3,1.79.8,3.69,1.07,5.49.28-.19.58.21.72.54.21-.44.91-.41,1.1.05.1-.26.2-.52.3-.77.16.1.29.25.37.43.15-.42.81-.08,1.11-.39.08-.08.11-.19.16-.29.13-.3.46-.6.71-.4.08.07.13.17.19.26.34.56,1.62.41,1.96-.14.08-2.63.16-5.31-.38-7.88-.21-.98-.5-1.99-.35-2.98.01-.07.03-.15.08-.2.13-.13.33.04.42.2.46.82.47,1.83.48,2.79.02,2.17.08,4.35.51,6.47.13.67.46,1.47,1.07,1.49.6.02,1.09-.82,1.3-1.43-.32-2.1-.63-4.2-.95-6.3-.03-.2,0-.48.19-.47.78,2.22.66,4.73,1.57,6.89.09.22.27.47.47.4.16-.05.21-.27.24-.45.09-.71.07-1.45-.07-2.15.54.23.85.87,1.07,1.46.06.16.12.33.24.44s.33.13.42-.01c.08-.12.05-.29,0-.44-.16-.57-.31-1.13-.47-1.7-.02-.09-.05-.18-.01-.26.09-.22.4-.05.51.16.13.26.18.56.28.84s.27.55.53.64.83-.38.71-.65c-.68-1.53-1.17-3.17-1.45-4.84.79.27,1.22,1.19,1.57,2.02s.81,1.75,1.61,1.97c.22-.98-.99-1.82-.85-2.82.55.61,1.09,1.22,1.64,1.83.14.15.38.3.49.12.05-.07.04-.17.01-.26-.09-.34-.33-.6-.48-.91s-.18-.77.1-.95c.37.41.72.85,1.04,1.31.08-.07.12-.19.12-.3.25.28.63.41.98.34.12-.36.54-.71.74-1.02.28-.44.57-.88.85-1.32.2-.31.4-.67.3-1.03.28-.26.56-.53.84-.79-.52-.35-.96-.86-1.25-1.46.45.15.91.29,1.36.44.08.03.18.05.26.02.2-.08.15-.43,0-.59s-.39-.21-.55-.37-.21-.51,0-.59c.22.63.97.96,1.52.68s.79-1.13.48-1.72c-.17-.32-.45-.54-.72-.75-.93-.72-1.86-1.44-2.8-2.16,1.76-.5,3.21,2.46,4.98,1.98.1-.03.21-.08.24-.18.02-.08,0-.17-.05-.24-.47-.97-1.75-1.27-2.04-2.32,1.08.29,2.11.87,2.96,1.67-.17-.2-.04-.54.15-.71s.44-.27.6-.48c.48-.64-.22-2.11.51-2.26.39-.08.45-.72.2-1.07s-.65-.48-1.01-.67-.73-.52-.73-.95c.66.06,1.33.14,1.99.24-.18-.2-.27-.5-.24-.78.16,0,.32-.01.48-.02-.26-.13-.5-.32-.69-.56.13-.4.62-.49.89-.79.34-.37.27-1.03-.03-1.45s-.76-.65-1.21-.84c-1.16-.49-2.39-.81-3.62-.95,1.5-.26,3-.52,4.5-.79-.28-.6-.87-1.02-1.48-1.05.14-.23.28-.46.42-.69-.7.12-1.39.24-2.09.35.91-.56,1.82-1.12,2.72-1.69-.57-.23-.15-1.33-.58-1.81-.11-.12-.27-.2-.31-.36-.06-.21.13-.4.21-.59.16-.38.02-1.1-.36-1.13-.16-.2-.39-.34-.63-.36.04-.24.14-.46.29-.63-.18.13-.44.12-.61-.03.16-.35.71-.36.77-.74.04-.23-.16-.44-.37-.49s-.42.04-.61.12c-1,.42-1.97.96-2.87,1.6-.23-.22.05-.61.3-.79.93-.66,1.87-1.32,2.8-1.99-.1-.21-.34-.26-.53-.37s-.29-.47-.09-.55c-.38-.01-.76-.03-1.14-.05.22-.43.63-.73,1.07-.79-.29-.31-.51-.69-.64-1.11-.86.34-1.73.68-2.59,1.02.59-.7,1.32-1.26,2.12-1.64-.21.1-.49-.16-.43-.41.02-.11.09-.2.11-.31.02-.2-.17-.36-.35-.37s-.35.09-.51.18c-.51.31-1.03.62-1.54.93.41-.55.71-1.3,1.12-1.85-.29-.09-.51-.42-.5-.75-.1.09-.21.18-.31.28-.18-.16-.32-.38-.39-.63-1.91,2.28-4.12,4.26-6.53,5.86.19-.82.69-1.5,1.2-2.13,1.16-1.46,2.42-2.84,3.76-4.11.19-.18.4-.41.36-.68-.06-.4-.61-.6-.56-1-.25.21-.66-.19-.51-.49-.19.11-.37.23-.56.34.16-.31-.15-.77-.47-.68-.14.04-.25.15-.35.26-.96,1.03-1.86,2.12-2.7,3.28-.39.54-.84,1.14-1.46,1.16,1.02-2,2.3-3.83,3.79-5.42-.28-.36-.43-.83-.41-1.3-.52.12-1.2.16-1.64-.18-.16.08-.38-.07-.39-.27-.12.1-.24.19-.36.29-.06-.22-.12-.43-.18-.65-.98,1.01-1.81,2.2-2.46,3.5.21-1.01.62-1.97,1.18-2.79.31-.45.63-1.17.19-1.47-.22-.15-.5-.06-.76-.06s-.59-.19-.52-.47c-.24.12-.48.24-.72.35.23-.14.14-.59-.11-.7s-.54.08-.68.32-.18.55-.23.84c-.23,1.41-.73,2.76-1.46,3.94,0-.99.44-1.89.74-2.82s.44-2.04-.1-2.83c-.35.28-.94-.04-.96-.52-.31.12-.59.31-.82.57-.17-.27-.3-.56-.38-.87-.55.19-.78.9-.86,1.54s-.12,1.33-.53,1.78c.07-.79.15-1.59.22-2.38.03-.36.05-.77-.18-1.03-.35-.4-.94-.14-1.37.14-.11-.54-.86-.74-1.17-.32-.11-.19-.22-.38-.33-.58-.09.22-.24.41-.43.53-.01-.18-.03-.36-.14-.5s-.33-.31-.41-.16c-.23-.12-.52.04-.65.28s-.15.54-.16.82c-.09,1.97-.19,3.94-.28,5.91-.37-.62-.35-1.42-.32-2.16.05-1.15.09-2.3.14-3.45.01-.26.02-.54-.1-.77-.08-.15-.21-.27-.35-.37-.37-.25-.8-.37-1.23-.33-.11,0-.21.03-.32,0-.09-.03-.17-.09-.26-.11-.28-.09-.55.14-.81.28s-.85.21-.91-.1c-.44.13-.88.25-1.33.38l-1.23-.24c-.13.27-.25.55-.38.82-.25-.36-.51-.72-.76-1.08-.39.22-.35.83-.27,1.3.53,2.87,1.06,5.74,1.59,8.62-1.75-2.68-1.02-6.59-2.64-9.37-.22.51-.91.67-1.3.29-.23.29-.46.58-.69.88-.26.02-.33-.38-.38-.66s-.4-.57-.51-.31c-.02.06-.02.13-.01.19.15,1.79.3,3.58.45,5.37-.38-1.88-.75-3.77-1.13-5.65l-.52.68-.37-.35c-.17.18-.33.36-.5.54.14-.3-.35-.55-.57-.32s-.19.62-.15.96c.13,1.01.26,2.02.39,3.03-.28-.78-.56-1.57-.84-2.35-.14-.39-.28-.78-.52-1.1-.29-.38-.72-.63-1.17-.68-.2.31-.67.35-.91.07l-.26.78c-.17-.03-.33-.15-.43-.32.03.33-.03.67-.15.97-.12-.19-.25-.51-.38-.7-.29.26-.76.24-1.02-.06-.07.42-.61.61-.9.33-.18.26-.36.52-.54.77.04-.47-.74-.47-.88-.02s.11.92.32,1.34c.47.97.74,2.06.76,3.16-.71-1.36-1.3-2.78-1.78-4.26l-.6,1c-.18-.31-.44-.56-.74-.7.1.69.2,1.38.31,2.07-.3-.63-.61-1.26-.91-1.9-.28.22-.57.45-.85.67-.7.31-1.4.61-2.09.92-.1.04-.2.09-.28.18-.24.28-.04.74.15,1.07.9,1.54,1.5,3.31,1.72,5.12-.8-1.88-1.73-3.7-2.78-5.43-.28.52-1,.66-1.43.27-.23.37-.46.74-.69,1.12-.06-.31-.53-.25-.64.04s.02.62.15.9c.47,1.02.93,2.05,1.4,3.07-.73-.87-1.45-1.75-2.18-2.62-.11-.14-.24-.28-.41-.31-.17-.03-.32.07-.46.18-.62.48-1.12,1.17-1.4,1.95l-.66.04c.2.41.41.81.61,1.22-.41-.09-.82-.18-1.23-.27.19.12-.02.44-.22.5s-.49.13-.49.37c0,.15.12.27.23.36.43.35.85.7,1.28,1.05-.64-.29-1.41-.58-2.06-.87-.82.63-1.75,1.49-1.63,2.6.13,1.18,1.33,1.78,2.37,2.1s2.25.74,2.59,1.87c-1.73-1.22-3.66-2.08-5.66-2.52-.16-.04-.34-.06-.48.04-.1.08-.15.22-.19.35-.2.62-.4,1.24-.61,1.86-.11.33-.19.75.05.97.11.1.27.13.39.23s.16.34.03.4c-.21-.44-.87-.29-1.08.14s-.12.96-.02,1.44c.06.27.12.56.29.77.23.27.59.34.92.41,1.32.3,2.57.98,3.59,1.96-1.41-.6-2.82-1.19-4.22-1.79-.3-.13-.67-.23-.89.02-.14.16-.15.41-.16.63-.03,1.57-.06,3.14-.09,4.71.37-.01.46.04.77.26-.31.22-.63.44-.94.65l.75.04-.6.59c1.07-.28,2.21-.22,3.26.16-.87.15-1.74.38-2.58.69-.41.15-.9.47-.83.95.07.44.57.61.96.54s.77-.29,1.17-.25c-.38.25-.76.5-1.14.75.14.09.31.12.46.09l-.49.56.41.22-.23.78c.14.11.32.17.49.18-.24.32-.35.75-.3,1.16,1.04-.39,2.08-.78,3.12-1.17.34-.13.89-.1.87.3-1.09.09-2.14.56-2.98,1.32-.24.22-.49.56-.38.89.15.44.73.38,1.13.24,1.78-.63,3.57-1.27,5.35-1.9.1.44-.36.75-.73.92-1.27.56-2.55,1.11-3.82,1.67-.35.15-.75.37-.84.78-.04.21,0,.43.08.63.42,1.18,1.55,2.01,2.69,1.96-.14.36-.28.72-.42,1.08l.61-.28c-.03.59.27,1.19.75,1.47.3-.33.97.06,1.04.52.03.25-.06.51.03.74.13.34.67.3.76-.05-.06.6-.05,1.35.43,1.65.55.34,1.18-.22,1.62-.72,1.16-1.35,2.44-2.59,3.8-3.69-.59,1.95-2.56,2.95-3.48,4.73-.2.39-.23,1.05.17,1.11.15.02.29-.06.42-.15.47-.31.95-.62,1.42-.93-.17.54-.32,1.09-.45,1.65.21-.1.41-.21.62-.31-.21.35-.27.82-.16,1.23.26-.19.57-.28.88-.25-.21.17-.04.59.22.66s.51-.09.74-.24c-.02.35.01.7.08,1.04.15-.09.3-.18.45-.27.12.09.36.22.49.28Z"/>
            <ellipse class="cls-4" cx="163.79" cy="50.08" rx="1.96" ry="1.44" transform="translate(-6.62 32.85) rotate(-11.23)"/>
          </g>
          <g>
            <path class="cls-13" d="m164.54,63.46c-.27,34.57-45.69,39.82-68.28,24.08-13.53-9.43-12.56-22.96-10.87-29.04,3.76-13.53,26.24-8.16,38.06-8.89,14.66-.53,29.49,2.84,41.1,13.85Z"/>
            <path class="cls-12" d="m85.39,58.51c-1.3,7.91,1.32,15.67,6.97,21.19,7.39,7.23,17.43,10.9,27.33,12.14,17.69,2.22,41.07-4.66,44.52-25.52,1.85-11.19-3.03-22.44-12-28.9-9.01-6.49-21.04-6.46-31.53-5.62-10.14.81-20.69,3.85-27.94,11.59-3.72,3.97-6.4,9.43-7.34,15.13Z"/>
            <path class="cls-5" d="m104.64,85.22l.36.14c-.1-.06-.2-.11-.3-.17,1.06-.84,1.48-2.39,2.65-3.07.2.14.14.46.06.69-.35.97-.71,1.94-1.06,2.91.21,0,.43-.04.62-.13-.26.33-.13.89.23,1.11s.86.09,1.11-.25c.02.35.52.47.78.26s.36-.57.43-.91.18-.71.45-.9c.02.8.04,1.59.07,2.39,0,.14,0,.28.07.41.14.28.51.33.8.26s1.34-.66,1.64-.69c-.14.11-.27.22-.41.34.35-.76.74-1.5,1.17-2.21-.03,1-.16,2.01-.4,2.98.08-.21.36-.28.54-.16s.27.36.23.58c.13-.25.42-.4.68-.32s.43.42.3.67l.85-1.43c.1.49.07,1.01-.08,1.48.63.23,1.28.38,1.95.45.37-.98.73-1.96,1.1-2.94,0,.73,0,1.45.01,2.18,0,.12,0,.24.06.34.12.22.43.23.63.39.16.13.24.36.41.48.32.25.76,0,1.12-.17s.95-.14.99.27c.34-.24.8-.15,1.22-.14s.93-.14,1-.56c.27.43,1.54.48,1.6-.02.18-1.69.35-3.37.53-5.06.02-.24.16-.56.38-.47.39,1.58,0,3.24.11,4.87.03.44.18.99.6,1.07.44.09.78-.41.9-.85.15-.53.18-1.1.1-1.65-.07-.46-.12-1.09.31-1.22.2,1.2.23,2.44.07,3.65.77-.52,1.73-.71,2.64-.53.07-2.29-.11-4.6-.56-6.86.2,0,.29.25.33.45.32,1.79.85,3.69,1.13,5.49.3-.19.62.21.77.54.23-.44.97-.41,1.17.05.11-.26.21-.52.32-.77.17.1.31.25.39.43.15-.42.86-.08,1.18-.39.08-.08.12-.19.17-.29.14-.3.49-.6.75-.4.09.07.14.17.2.26.37.56,1.72.41,2.09-.14.09-2.63.17-5.31-.4-7.88-.22-.98-.54-1.99-.37-2.98.01-.07.03-.15.08-.2.14-.13.35.04.45.2.49.82.5,1.83.51,2.79.02,2.17.09,4.35.54,6.47.14.67.48,1.47,1.14,1.49.63.02,1.16-.82,1.38-1.43-.34-2.1-.67-4.2-1.01-6.3-.03-.2,0-.48.2-.47.83,2.22.71,4.73,1.67,6.89.1.22.28.47.5.4.17-.05.23-.27.25-.45.09-.71.07-1.45-.07-2.15.58.23.9.87,1.14,1.46.06.16.13.33.26.44s.35.13.45-.01c.09-.12.05-.29,0-.44-.17-.57-.33-1.13-.5-1.7-.03-.09-.05-.18-.01-.26.1-.22.43-.05.54.16.14.26.19.56.3.84s.29.55.57.64.88-.38.76-.65c-.72-1.53-1.24-3.17-1.55-4.84.84.27,1.3,1.19,1.67,2.02s.86,1.75,1.71,1.97c.23-.98-1.05-1.82-.9-2.82.58.61,1.16,1.22,1.74,1.83.14.15.41.3.52.12.05-.07.04-.17.02-.26-.09-.34-.35-.6-.52-.91s-.19-.77.1-.95c.4.41.77.85,1.11,1.31.08-.07.13-.19.12-.3.27.28.67.41,1.04.34.13-.36.58-.71.79-1.02.3-.44.61-.88.91-1.32.21-.31.43-.67.32-1.03.3-.26.6-.53.9-.79-.55-.35-1.02-.86-1.33-1.46.48.15.97.29,1.45.44.09.03.19.05.27.02.21-.08.16-.43,0-.59s-.41-.21-.59-.37-.22-.51,0-.59c.24.63,1.03.96,1.62.68s.84-1.13.51-1.72c-.18-.32-.48-.54-.77-.75-.99-.72-1.98-1.44-2.97-2.16,1.87-.5,3.42,2.46,5.29,1.98.1-.03.22-.08.25-.18.02-.08,0-.17-.05-.24-.5-.97-1.87-1.27-2.17-2.32,1.15.29,2.24.87,3.14,1.67-.18-.2-.05-.54.16-.71s.47-.27.64-.48c.51-.64-.24-2.11.55-2.26.41-.08.48-.72.22-1.07s-.69-.48-1.07-.67-.77-.52-.78-.95c.71.06,1.41.14,2.12.24-.19-.2-.29-.5-.25-.78.17,0,.34-.01.51-.02-.28-.13-.53-.32-.73-.56.14-.4.65-.49.95-.79.36-.37.29-1.03-.03-1.45s-.81-.65-1.28-.84c-1.24-.49-2.54-.81-3.85-.95,1.59-.26,3.19-.52,4.78-.79-.3-.6-.92-1.02-1.57-1.05.15-.23.3-.46.45-.69-.74.12-1.48.24-2.22.35.97-.56,1.93-1.12,2.9-1.69-.61-.23-.16-1.33-.62-1.81-.12-.12-.29-.2-.33-.36-.06-.21.14-.4.23-.59.17-.38.02-1.1-.38-1.13-.17-.2-.41-.34-.67-.36.04-.24.15-.46.31-.63-.19.13-.47.12-.65-.03.17-.35.76-.36.82-.74.04-.23-.17-.44-.39-.49s-.44.04-.65.12c-1.07.42-2.09.96-3.05,1.6-.24-.22.05-.61.32-.79.99-.66,1.98-1.32,2.98-1.99-.1-.21-.36-.26-.56-.37s-.31-.47-.1-.55c-.4-.01-.81-.03-1.21-.05.23-.43.67-.73,1.14-.79-.31-.31-.54-.69-.68-1.11-.92.34-1.84.68-2.75,1.02.63-.7,1.4-1.26,2.25-1.64-.23.1-.52-.16-.46-.41.03-.11.1-.2.11-.31.02-.2-.18-.36-.37-.37s-.37.09-.54.18c-.55.31-1.09.62-1.64.93.43-.55.75-1.3,1.19-1.85-.31-.09-.54-.42-.53-.75-.11.09-.22.18-.33.28-.2-.16-.35-.38-.42-.63-2.03,2.28-4.38,4.26-6.94,5.86.21-.82.74-1.5,1.28-2.13,1.24-1.46,2.58-2.84,4-4.11.2-.18.42-.41.38-.68-.06-.4-.65-.6-.59-1-.26.21-.7-.19-.54-.49-.2.11-.39.23-.59.34.17-.31-.16-.77-.5-.68-.15.04-.27.15-.38.26-1.02,1.03-1.98,2.12-2.87,3.28-.41.54-.89,1.14-1.56,1.16,1.08-2,2.44-3.83,4.03-5.42-.3-.36-.46-.83-.44-1.3-.56.12-1.28.16-1.75-.18-.17.08-.41-.07-.41-.27-.13.1-.25.19-.38.29-.06-.22-.13-.43-.19-.65-1.04,1.01-1.92,2.2-2.61,3.5.23-1.01.66-1.97,1.26-2.79.33-.45.67-1.17.2-1.47-.23-.15-.54-.06-.81-.06s-.62-.19-.56-.47c-.25.12-.51.24-.76.35.25-.14.15-.59-.12-.7s-.57.08-.72.32-.2.55-.25.84c-.25,1.41-.78,2.76-1.55,3.94,0-.99.46-1.89.78-2.82s.47-2.04-.1-2.83c-.37.28-1-.04-1.02-.52-.33.12-.63.31-.87.57-.18-.27-.32-.56-.41-.87-.59.19-.83.9-.91,1.54s-.12,1.33-.56,1.78c.08-.79.16-1.59.24-2.38.04-.36.06-.77-.19-1.03-.37-.4-1-.14-1.46.14-.11-.54-.91-.74-1.25-.32-.12-.19-.24-.38-.35-.58-.1.22-.26.41-.46.53-.02-.18-.04-.36-.15-.5s-.35-.31-.43-.16c-.25-.12-.55.04-.69.28s-.16.54-.17.82c-.1,1.97-.2,3.94-.3,5.91-.39-.62-.37-1.42-.34-2.16.05-1.15.1-2.3.15-3.45.01-.26.02-.54-.11-.77-.09-.15-.22-.27-.37-.37-.39-.25-.85-.37-1.31-.33-.11,0-.23.03-.34,0-.1-.03-.18-.09-.27-.11-.3-.09-.58.14-.86.28s-.91.21-.97-.1c-.47.13-.94.25-1.41.38l-1.31-.24c-.13.27-.27.55-.4.82-.27-.36-.54-.72-.81-1.08-.41.22-.38.83-.28,1.3.56,2.87,1.13,5.74,1.69,8.62-1.87-2.68-1.09-6.59-2.8-9.37-.23.51-.97.67-1.38.29-.25.29-.49.58-.74.88-.28.02-.35-.38-.4-.66s-.43-.57-.54-.31c-.03.06-.02.13-.01.19.16,1.79.32,3.58.48,5.37-.4-1.88-.8-3.77-1.2-5.65l-.55.68-.4-.35c-.18.18-.36.36-.53.54.15-.3-.38-.55-.61-.32s-.2.62-.16.96c.14,1.01.28,2.02.42,3.03-.3-.78-.6-1.57-.89-2.35-.15-.39-.3-.78-.56-1.1-.31-.38-.77-.63-1.25-.68-.21.31-.71.35-.96.07l-.27.78c-.18-.03-.35-.15-.45-.32.03.33-.03.67-.16.97-.13-.19-.27-.51-.4-.7-.3.26-.81.24-1.09-.06-.08.42-.65.61-.96.33-.19.26-.38.52-.57.77.04-.47-.79-.47-.94-.02s.12.92.34,1.34c.5.97.78,2.06.81,3.16-.75-1.36-1.39-2.78-1.89-4.26l-.63,1c-.19-.31-.47-.56-.79-.7.11.69.22,1.38.33,2.07-.32-.63-.65-1.26-.97-1.9-.3.22-.6.45-.9.67-.74.31-1.48.61-2.23.92-.11.04-.22.09-.3.18-.26.28-.05.74.16,1.07.96,1.54,1.59,3.31,1.83,5.12-.85-1.88-1.84-3.7-2.96-5.43-.29.52-1.07.66-1.52.27-.24.37-.49.74-.73,1.12-.06-.31-.57-.25-.68.04s.03.62.16.9c.49,1.02.99,2.05,1.48,3.07-.77-.87-1.55-1.75-2.32-2.62-.12-.14-.26-.28-.44-.31-.18-.03-.34.07-.49.18-.66.48-1.19,1.17-1.49,1.95l-.7.04c.22.41.43.81.65,1.22-.43-.09-.87-.18-1.3-.27.2.12-.02.44-.24.5s-.52.13-.53.37c0,.15.13.27.25.36.45.35.91.7,1.36,1.05-.68-.29-1.5-.58-2.19-.87-.88.63-1.86,1.49-1.73,2.6.13,1.18,1.42,1.78,2.52,2.1s2.4.74,2.75,1.87c-1.83-1.22-3.89-2.08-6.02-2.52-.17-.04-.36-.06-.51.04-.11.08-.16.22-.2.35-.21.62-.43,1.24-.64,1.86-.11.33-.2.75.05.97.12.1.29.13.41.23s.17.34.03.4c-.22-.44-.92-.29-1.15.14s-.13.96-.02,1.44c.06.27.13.56.31.77.24.27.63.34.97.41,1.4.3,2.74.98,3.82,1.96-1.5-.6-3-1.19-4.49-1.79-.31-.13-.72-.23-.95.02-.15.16-.16.41-.17.63-.03,1.57-.06,3.14-.1,4.71.39-.01.49.04.82.26-.33.22-.67.44-1,.65l.8.04-.64.59c1.14-.28,2.35-.22,3.47.16-.93.15-1.85.38-2.74.69-.44.15-.96.47-.89.95.07.44.61.61,1.03.54s.82-.29,1.24-.25c-.4.25-.81.5-1.21.75.15.09.33.12.49.09l-.52.56.44.22-.25.78c.15.11.34.17.52.18-.26.32-.37.75-.31,1.16,1.11-.39,2.21-.78,3.32-1.17.36-.13.94-.1.92.3-1.16.09-2.28.56-3.17,1.32-.26.22-.52.56-.4.89.16.44.77.38,1.2.24,1.9-.63,3.8-1.27,5.69-1.9.1.44-.38.75-.78.92-1.35.56-2.71,1.11-4.06,1.67-.38.15-.8.37-.89.78-.05.21,0,.43.08.63.44,1.18,1.65,2.01,2.87,1.96-.15.36-.3.72-.45,1.08l.65-.28c-.03.59.29,1.19.79,1.47.32-.33,1.03.06,1.1.52.04.25-.07.51.03.74.14.34.71.3.81-.05-.06.6-.06,1.35.45,1.65.59.34,1.26-.22,1.72-.72,1.24-1.35,2.59-2.59,4.04-3.69-.62,1.95-2.73,2.95-3.7,4.73-.21.39-.24,1.05.18,1.11.16.02.31-.06.45-.15.5-.31,1.01-.62,1.51-.93-.18.54-.34,1.09-.48,1.65.22-.1.44-.21.66-.31-.23.35-.29.82-.17,1.23.27-.19.61-.28.94-.25-.23.17-.04.59.23.66s.55-.09.78-.24c-.02.35.01.7.09,1.04.16-.09.32-.18.48-.27.13.09.38.22.53.28Z"/>
            <ellipse class="cls-4" cx="126.25" cy="61.39" rx="2.08" ry="1.44" transform="translate(-8.28 21.28) rotate(-9.33)"/>
          </g>
        </g>
      </g>
    </g>
  </g>
</svg>