<?xml version="1.0" encoding="UTF-8"?>
<svg xmlns="http://www.w3.org/2000/svg" viewBox="0 0 258.29 123.79">
  <defs>
    <style>
      .cls-1 {
        fill: #bcb3a6;
        mix-blend-mode: multiply;
      }

      .cls-1, .cls-2, .cls-3, .cls-4, .cls-5, .cls-6, .cls-7, .cls-8, .cls-9, .cls-10, .cls-11, .cls-12, .cls-13, .cls-14, .cls-15, .cls-16 {
        stroke-width: 0px;
      }

      .cls-2 {
        fill: #ededed;
        opacity: .94;
      }

      .cls-17 {
        isolation: isolate;
      }

      .cls-3 {
        fill: #f7f9f8;
      }

      .cls-4 {
        fill: #d1d1d1;
      }

      .cls-5 {
        fill: #ddd;
      }

      .cls-6 {
        fill: #cc510d;
      }

      .cls-7 {
        fill: #fff;
      }

      .cls-8 {
        fill: #e8e3da;
      }

      .cls-9 {
        fill: #fff3de;
      }

      .cls-10 {
        fill: #fff9e9;
      }

      .cls-11 {
        fill: #fff9eb;
      }

      .cls-12 {
        fill: #fffefb;
      }

      .cls-13 {
        fill: #ffe878;
      }

      .cls-14 {
        fill: #fce7b9;
      }

      .cls-15 {
        fill: #ffcf48;
      }

      .cls-16 {
        fill: #f9dc9b;
        opacity: .67;
      }
    </style>
  </defs>
  <g class="cls-17">
    <g id="Layer_1" data-name="Layer 1">
      <g>
        <ellipse class="cls-6" cx="137.07" cy="70.54" rx="121.22" ry="53.25"/>
        <g>
          <path class="cls-8" d="m240.58,50.2v.45c0,39.26-53.86,71.09-120.29,71.09S0,89.91,0,50.65v-.45c0-.16,0-.31,0-.47,0-.2,0-.41.02-.62,0-.07,0-.14,0-.21C1.69,21.77,54.89,0,120.29,0s118.6,21.77,120.25,48.9c0,.07,0,.14,0,.21,0,.2,0,.41.02.62,0,.16,0,.31,0,.47Z"/>
          <path class="cls-7" d="m240.58,50.2v.18c-.24,27.64-54,50.02-120.29,50.02S.24,78.02,0,50.38v-.18c0-.16,0-.31,0-.47,0-.2,0-.41.02-.62,0-.07,0-.14,0-.21C1.69,21.77,54.89,0,120.29,0s118.6,21.77,120.25,48.9c0,.07,0,.14,0,.21,0,.2.02.41.02.62,0,.16,0,.31,0,.47Z"/>
          <path class="cls-5" d="m225.97,49.25c0,19.54-30.01,36.16-71.9,42.31-11.21,1.65-23.27,2.54-35.83,2.54-59.5,0-107.73-20.08-107.73-44.85S58.74,4.4,118.24,4.4c13.97,0,27.32,1.11,39.58,3.13,39.92,6.56,68.15,22.77,68.15,41.73Z"/>
          <path class="cls-4" d="m225.97,49.25c0,19.54-30.01,36.16-71.9,42.31,7.4-4.45,15.89-7.8,23.19-12.34,6.66-4.13,21.15-17.99,23.35-19.74s2.65-4.54,2.56-6.92c-.39-10.31-6.24-19.88-15.9-27.03-9.06-6.71-19.92-11.74-29.46-18,39.92,6.56,68.15,22.77,68.15,41.73Z"/>
          <ellipse class="cls-2" cx="118.24" cy="59.6" rx="84.86" ry="36.4"/>
          <path class="cls-5" d="m76.91,89.33c-13.94-2.76-26.55-8.98-35.3-17.41-2.33-2.24-4.42-4.68-5.5-7.38-2.39-5.99.52-12.57,5.53-17.62-3.38,8.72-.02,17.83,6.64,25.47,6.66,7.64,17.49,13.02,28.64,16.93Z"/>
          <path class="cls-3" d="m197.01,55.85c-14.58-14.94-46.52-24.51-70.54-27.91,39.77,0,63.55,11.83,70.54,27.91Z"/>
        </g>
      </g>
      <g>
        <path class="cls-1" d="m193.88,68.52c2.58-.24,5.17-.31,7.75-.17.2.01.39.03.59.04,2.4.16,4.79.48,7.14,1.03-1.03-.3-2.02-.57-2.98-.82-.27-.07-.55-.14-.82-.21-.93-.24-1.83-.46-2.7-.66-.09-.02-.18-.05-.27-.07-.03,0-.06-.01-.08-.02-.8-.18-1.57-.35-2.32-.49-.21-.04-.42-.08-.62-.12-.58-.11-1.16-.21-1.72-.3-.25-.04-.51-.08-.76-.12-.65-.1-1.29-.18-1.91-.25-.13-.01-.26-.03-.39-.05-.78-.08-1.54-.14-2.29-.18-.08,0-.16-.02-.24-.02-.2-.01-.41-.01-.61-.02-.19,0-.38-.01-.57-.02-2.41-.06-4.9.09-7.31.48-.31-.18-.63-.37-.94-.54-.18-.1-.37-.2-.55-.3-.51-.28-1.02-.56-1.52-.81-.22-.12-.45-.23-.68-.34-.5-.25-.99-.49-1.47-.71-2.06-1.54-4.53-2.65-7.15-2.87.63-.18,1.26-.35,1.89-.52,1.06.16,2.13.24,3.21.24,1.11,0,2.38-.16,3.03-1,.16-.2.25-.43.3-.67.5-.09,1.01-.18,1.51-.25,1.62-.25,3.24-.43,4.87-.55,1.78-.13,3.56-.19,5.33-.14,1.91.05,3.82.21,5.71.49,1.47.21,2.92.48,4.37.84-1.03-.32-2.01-.6-2.97-.88-.27-.08-.54-.15-.81-.23-.93-.26-1.83-.5-2.69-.72-.09-.02-.17-.05-.26-.07-.03,0-.05-.01-.08-.02-.79-.2-1.56-.37-2.31-.54-.2-.04-.41-.08-.61-.13-.59-.12-1.16-.24-1.72-.34-.25-.05-.5-.09-.75-.13-.65-.11-1.29-.21-1.91-.29-.13-.02-.26-.04-.39-.06-.78-.1-1.54-.17-2.29-.22-.08,0-.16-.02-.24-.02-.2-.01-.4-.02-.61-.03-.19-.01-.39-.02-.58-.03-1.12-.05-2.26-.05-3.41-.01-.12-.46-.37-.9-.69-1.27-.46-.52-1.07-.91-1.71-1.22,1.28-.64,2.57-1.25,3.88-1.81,2.33-1.01,4.73-1.88,7.17-2.57,0,0,0,0,0,0,.13-.04.27-.07.4-.1,1.22-.34,2.46-.63,3.71-.87.79-.16,1.57-.29,2.37-.4,2-.29,4.03-.47,6.07-.48-1.08-.05-2.11-.08-3.11-.11-.28,0-.56-.01-.85-.02-.97-.02-1.9-.03-2.8-.02-.09,0-.18,0-.27,0-.03,0-.06,0-.08,0-.82,0-1.61.03-2.38.06-.21,0-.42.02-.63.03-.6.03-1.18.06-1.75.1-.26.02-.51.04-.77.06-.66.06-1.3.12-1.92.2-.13.02-.26.03-.39.04-.78.1-1.53.22-2.27.35-.08.01-.16.02-.24.04-.2.04-.4.08-.6.12-.19.04-.37.07-.56.11-1.75.38-3.52.87-5.23,1.48-.74-.19-1.47-.36-2.17-.53-.09-.02-.18-.05-.27-.07-.02,0-.05,0-.07-.01,3.61-2.25,7.24-3.99,10.74-4.65.23-.04.44-.1.65-.15.29.1.63.19,1.04.26,3.09.53,6.31.4,9.33-.39,1.07-.28,2.24-.75,2.62-1.73.27-.7.02-1.45-.5-2.03.08-.22.13-.45.14-.68.02-.91-.59-1.77-1.39-2.29-.81-.52-1.79-.75-2.76-.87-2.15-.26-4.4-.02-6.31.93-.56.28-1.26.79-1.9,1.4-.09-.6-.39-1.18-.83-1.67.11-.31.18-.64.19-.97.03-1.3-.83-2.51-1.98-3.24s-2.54-1.06-3.92-1.23c-3.05-.37-6.25-.03-8.95,1.32-1.74.87-4.45,3.3-5.13,5.41-.08.02-.15.05-.22.07-.27-.06-.54-.13-.8-.18-.2-.04-.41-.08-.61-.13-.59-.12-1.16-.24-1.72-.34-.25-.05-.5-.09-.75-.13-.65-.11-1.29-.21-1.91-.29-.13-.02-.26-.04-.39-.06-.78-.1-1.54-.17-2.29-.22-.08,0-.16-.02-.24-.02-.2-.01-.4-.02-.61-.03-.19-.01-.39-.02-.58-.03-3.14-.13-6.42.07-9.49.72-.41-.1-.81-.2-1.21-.29-.09-.02-.18-.05-.27-.07-.03,0-.06-.01-.08-.02-.8-.18-1.57-.35-2.32-.49-.2-.04-.41-.08-.61-.11-.59-.11-1.16-.21-1.73-.3-.25-.04-.51-.08-.76-.12-.65-.1-1.29-.18-1.91-.25-.13-.01-.26-.03-.39-.05-.78-.08-1.54-.14-2.29-.18-.08,0-.16-.02-.24-.02-.2-.01-.41-.01-.61-.02-.19,0-.38-.01-.57-.02-3.28-.08-6.71.21-9.87,1-.37.08-.74.16-1.12.25-3.04.68-6.28,1.68-10.06,2.86-1.16.37-2.35.78-3.56,1.21-.4.05-.8.1-1.2.15-1.56.21-3.11.45-4.67.71,6.22-2.83,12.41-5.72,18.83-8.1,5.44-2,11.19-3.64,17.02-4.52.85-.13,1.69-.24,2.54-.34,2.55-.29,5.11-.42,7.65-.36s5.08.31,7.59.78c.83.16,1.67.34,2.49.55-1.03-.32-2.01-.6-2.97-.88-.27-.08-.54-.15-.81-.23-.92-.26-1.82-.5-2.69-.71-.09-.02-.18-.05-.27-.07-.03,0-.06-.01-.08-.02-.79-.2-1.56-.37-2.31-.54-.21-.04-.41-.08-.62-.13-.58-.12-1.16-.23-1.72-.34-.25-.05-.5-.09-.76-.13-.65-.11-1.29-.21-1.91-.29-.13-.02-.26-.04-.39-.06-.78-.1-1.54-.17-2.28-.22-.08,0-.16-.02-.24-.02-.2-.01-.41-.02-.61-.03-.19-.01-.38-.02-.57-.03-3.28-.14-6.71.09-9.9.82-.37.07-.74.14-1.12.23-3.06.62-6.31,1.56-10.12,2.68-9.49,2.84-20.86,8.05-30.32,10.92-9.44,2.87-22.04,8.35-31.68,8.04-.33-.42-.9-.87-1.78-1.36-3.69-2.04-7.88-3.28-12.16-3.6-1.52-.11-3.26-.02-4.23,1.06-.41.46-.6,1.02-.61,1.6-1.25-.4-2.49-.85-3.7-1.36-.77-.33-1.54-.68-2.29-1.06.93.53,1.81,1.01,2.68,1.48.24.13.49.26.73.39.84.45,1.66.87,2.45,1.26.08.04.16.08.24.12,0,0,0,0,0,0,.03.13.06.25.11.38-.21.25-.4.51-.52.81-.49,1.16-.15,2.52.63,3.54.77,1.02,1.92,1.74,3.1,2.32,2.62,1.28,5.63,1.97,8.56,1.58,1.67-.22,4.44-1.3,6.01-2.72,4.61.44,9.29.2,13.92-.51-.03.18-.04.37-.03.56-.28.17-.55.37-.77.62-.47.53-.71,1.19-.78,1.88-1.31.45-2.62.89-3.93,1.31-1.72-.58-3.53-.95-5.35-1.08-1.11-.08-2.38-.02-3.1.78-.51.57-.55,1.36-.28,2.07-.13.15-.24.32-.32.49-2.77.45-5.42.61-7.83.3-.23-.03-.45-.04-.67-.06-.23-.18-.53-.37-.9-.56-2.73-1.44-5.82-2.29-8.96-2.47-1.11-.06-2.38.03-3.08.83-.5.58-.53,1.37-.24,2.07-.15.18-.28.38-.37.6-.34.86-.07,1.85.51,2.58.58.74,1.43,1.25,2.31,1.66,1.94.9,4.15,1.36,6.29,1.04.96-.14,2.43-.7,3.55-1.44,2.99.44,6.02.57,9.06.46-.17.13-.32.27-.46.43-.82.94-.86,2.23-.4,3.38-.25.3-.46.63-.6.99-.56,1.4-.11,3.03.84,4.23.95,1.21,2.34,2.05,3.78,2.72.95.44,1.95.81,2.97,1.11-.03.35.03.71.17,1.05-.15.18-.28.38-.37.6-.34.86-.07,1.85.51,2.58.58.74,1.43,1.25,2.31,1.66,1.94.9,4.15,1.36,6.29,1.04.96-.14,2.43-.7,3.55-1.44,2.99.44,6.02.57,9.06.46-.17.13-.32.27-.46.43-.08.1-.14.21-.21.31-1.77.36-3.56.65-5.36.85-1.13.13-2.27.22-3.4.27-3.33.15-6.66-.02-9.97-.59,1.05.24,2.05.45,3.03.66.28.06.55.11.83.17.94.19,1.86.36,2.74.52.09.02.18.04.27.05.03,0,.06,0,.08.01.81.14,1.59.26,2.35.37.21.03.41.05.62.08.59.08,1.18.15,1.74.21.25.03.51.05.76.08.66.06,1.3.11,1.93.15.13,0,.26.02.39.03.79.04,1.55.05,2.3.05.08,0,.16,0,.24,0,.2,0,.41,0,.61-.01.19,0,.38,0,.57-.01.02.07.04.13.06.2-.25.3-.46.63-.6.99-.56,1.4-.11,3.02.84,4.23-.6.08-1.19.15-1.79.2.66-.02,1.29-.05,1.91-.07.95,1.14,2.28,1.95,3.66,2.59,2.34,1.09,4.93,1.78,7.54,1.86.03.02.06.05.09.08.76.58,1.72.88,2.68,1.07,2.12.43,4.39.36,6.37-.44.89-.36,2.16-1.24,3.06-2.22,1.28-.11,2.55-.28,3.81-.5,9.36.25,18.88-2.11,27.61-5.48,11.77-4.52,22.67-10.82,34.38-15.42.6-.24,1.21-.47,1.83-.69.42.15.84.29,1.26.41,1.39.41,3.03.68,4.19-.14.8-.56,1.1-1.49,1.02-2.42,2.42-.7,4.88-1.29,7.35-1.76.97.49,1.93,1,2.85,1.57-.85-.58-1.66-1.12-2.45-1.64.28-.05.57-.11.85-.16,1.6-.28,3.2-.49,4.81-.64Zm-89.85-20.43c4.28-.38,9.2-1.06,14.14-1.53-4.77,1.84-9.5,3.65-13.83,4.97-5.39,1.64-11.81,4.12-18.12,5.9-.23-.23-.47-.47-.71-.7,6.26-2.71,12.34-5.76,18.51-8.64Zm27.27-9.34c1.6-.28,3.2-.49,4.81-.64,2.79-.26,5.59-.31,8.37-.13-2.98.62-6.14,1.53-9.83,2.61-.79.24-1.6.49-2.41.76-2.67-.51-5.4-.84-8.15-1,2.38-.65,4.78-1.2,7.21-1.61Zm43.3,10.81c.64.04,1.29.09,1.93.16-1.11.43-2.19.92-3.22,1.46-.34.16-.68.33-1.02.5-.24.12-.48.25-.72.37-.33.03-.66.07-.99.14-.36.07-.78.21-1.23.39,1.46-1.08,2.93-2.12,4.41-3.08.07,0,.14,0,.22,0,.21.01.42.03.62.04Zm7.25,17.33c-.15.03-.3.07-.46.11,0-.02-.02-.04-.02-.07-.04-.09-.09-.16-.14-.25.1.03.19.06.29.09.11.04.22.08.33.12Zm-49.83-20.61c2.31.24,4.47.66,6.37,1.38.22.08.43.16.65.22.18.23.41.47.71.73.95.85,1.99,1.6,3.09,2.26-.21.17-.42.34-.63.51-7.99,2.57-17.27,6.84-25.61,9.92-6.62.19-14.26.66-20.94-.02,2.15-.62,4.28-1.32,6.36-2.08,10.28-3.73,19.94-8.8,30.01-12.94Zm-.04,24.05c-1.24.38-2.53.8-3.86,1.25.94-.8,1.87-1.61,2.81-2.42.56-.23,1.11-.45,1.66-.66,1.75-.68,3.6-1.46,5.53-2.28,1.86-.22,3.77-.44,5.7-.65-.32.31-.65.63-.97.94-3.75,1.43-7.44,2.78-10.87,3.83Zm-54.46-6.11c.52.16,1.05.29,1.59.38,1.66.27,4.66.04,6.62-.85,3.41,1.4,7,2.41,10.7,3.09-.51.08-1.02.17-1.53.24-3.33.46-6.73.78-10.14.9-1.57,0-3.15-.04-4.71-.14-1.87-.11-3.73-.31-5.57-.59-2.4-1.21-4.96-2.14-7.6-2.78.61-.23,1.23-.53,1.78-.88,2.92.49,5.88.68,8.86.63Zm69.99-8.41c1.26-1,2.56-2.03,3.88-3.06,3.25-1,6.58-1.83,9.94-2.41-1.67,1.18-3.28,2.42-4.85,3.7-3.02.37-6.02.98-8.97,1.78Zm-50.12,18.66c-1.5.53-3.02,1.04-4.53,1.51-.49-.16-.98-.31-1.47-.44,2.01-.27,4.02-.63,6.01-1.08Zm2.53,8.39c2.12.18,4.25.23,6.38.15-1.52.99-3.07,1.94-4.66,2.82-1.54-.74-3.13-1.38-4.77-1.89.98-.33,2-.69,3.05-1.08Zm10.02,7.38c-1.34.06-2.63.02-3.86-.13-.29-.04-.56-.05-.83-.07-.05-.12-.12-.25-.19-.37.38-.46.39-1.01-.08-1.63,1.22-.57,2.4-1.2,3.51-1.9.32-.19.65-.38.97-.57,1.69-1,3.42-2.17,5.27-3.47,5.1-.88,10.13-2.32,14.93-4.07.54-.2,1.08-.42,1.62-.62-.8.71-1.6,1.41-2.42,2.1-2.23,1.85-4.57,3.64-7.01,5.31-3.99,2.38-8.04,4.4-11.9,5.42Zm55.92-42.9c-.34-.03-.68-.05-1.02-.07-.08,0-.16-.02-.24-.02-.2-.01-.41-.01-.61-.02-.19,0-.38-.01-.57-.02-1.55-.04-3.14,0-4.72.15,3.08-2.06,6.19-3.82,9.25-4.93.41.15.9.27,1.5.38,1.4.24,2.81.37,4.23.42-2.69,1.18-5.3,2.57-7.81,4.11Zm-3-8.13c-4.39,1.58-8.58,3.74-12.53,6.26-1.58-1.18-3.47-2.02-5.48-2.19-.97-.08-2.54.12-3.83.59-.43-.17-.87-.34-1.3-.5,4.53-1.52,9.25-2.75,14.01-3.47.85-.13,1.69-.24,2.54-.34,2.19-.25,4.39-.36,6.58-.36Zm-85.25,32s-.03-.07-.05-.1c.4.07.8.14,1.2.2-.11-.01-.22-.01-.33-.03-.29-.04-.56-.05-.83-.07Zm4.56-19.99c-.97.31-1.97.66-3,1.02-.41-.21-.82-.41-1.24-.6,1.71-.23,3.44-.47,5.2-.74-.32.11-.64.22-.96.32Zm-6.21,27.3c-.23-.03-.45-.04-.67-.06-.23-.18-.53-.37-.9-.56-.66-.35-1.35-.66-2.05-.94,1.06-.44,2.14-1.01,3.06-1.66,2.88.52,5.81.75,8.74.73-.26.51-.24,1.13-.03,1.69-.13.15-.24.32-.32.49-2.77.45-5.42.61-7.83.3Zm63.97,3.1c-.63.21-1.28.42-1.94.65,7.38-5.23,14.11-11.22,21.15-16.83,1.45.25,2.82.6,4.08,1.07.15.06.29.1.43.15.25.36.6.76,1.1,1.2,1.15,1.03,2.4,1.95,3.73,2.78-9.1,3.08-19.65,8.09-28.55,10.97Z"/>
        <g>
          <g>
            <path class="cls-14" d="m168.42,61.52c-9.62-3.89-25.3-.44-36.45.54-10.31.9-23.14,3.9-33.47,4.76-4.14.32-7.67.58-10.92.53-9.35,0-16.42-2.12-28.95-9.77,6.28,3.37,13.26,5,20.38,5.47,6.12.41,12.36-.01,18.38-.91,13.07-1.99,25.78-6.03,38.89-7.92,13.08-1.91,27.08-1.48,38.66,4.92-1.17,3.17-3.41,3.66-6.52,2.39Z"/>
            <path class="cls-15" d="m181.41,61.79c1.62.64,3.27,1.44,4.25,2.87.98,1.43,1.01,3.66-.38,4.7-1.21.91-2.92.61-4.36.15-4.07-1.29-7.84-3.53-10.92-6.49-3.12-3-1.18-4.26,2.35-3.72,3.09.47,6.15,1.33,9.05,2.48Z"/>
            <path class="cls-13" d="m176.94,55.27c2.93.26,5.68,1.65,7.91,3.57,1.01.87,1.94,1.88,2.44,3.12.5,1.24.5,2.73-.25,3.83-.65.95-1.79,1.49-2.93,1.63-1.14.14-2.3-.06-3.42-.35-3.68-.94-9.03-3.16-11.33-6.38-2.72-3.82,4.55-5.7,7.58-5.43Z"/>
            <path class="cls-16" d="m87.36,67.31c-4.12.2-8.48-.54-12.4-1.76-3.47-1.08-6.79-2.61-10-4.32-2.15-1.15-4.26-2.37-6.34-3.64,6.28,3.37,13.26,5,20.38,5.47-.31-.02-.32.54-.27.73.08.35.43.48.73.66,4.78,2.85,8.18,2.85,7.9,2.87Z"/>
          </g>
          <g>
            <path class="cls-14" d="m142.6,40.42c-9.62-3.89-25.3-.44-36.45.54-10.31.9-23.14,3.9-33.47,4.76-4.14.32-7.67.58-10.92.53-9.35,0-16.42-2.12-28.95-9.77,6.28,3.37,13.26,5,20.38,5.47,6.12.41,12.36-.01,18.38-.91,13.07-1.99,25.78-6.03,38.89-7.92,13.08-1.91,27.08-1.48,38.66,4.92-1.17,3.17-3.41,3.66-6.52,2.39Z"/>
            <path class="cls-15" d="m152.73,40.54c1.24.49,2.5,1.1,3.26,2.2.75,1.1.77,2.8-.29,3.6-.93.7-2.23.47-3.34.12-3.11-.99-6-2.7-8.35-4.96-2.39-2.29-.9-3.26,1.8-2.85,2.37.36,4.7,1.02,6.93,1.9Z"/>
            <path class="cls-13" d="m149.32,35.55c2.24.2,4.35,1.26,6.05,2.74.77.67,1.49,1.44,1.87,2.39.38.95.39,2.09-.19,2.93-.5.73-1.37,1.14-2.25,1.25s-1.76-.05-2.62-.26c-2.81-.72-6.91-2.42-8.67-4.88-2.08-2.92,3.48-4.36,5.8-4.16Z"/>
            <path class="cls-16" d="m61.55,46.21c-4.12.2-8.48-.54-12.4-1.76-3.47-1.08-6.79-2.61-10-4.32-2.15-1.15-4.26-2.37-6.34-3.64,6.28,3.37,13.26,5,20.38,5.47-.31-.02-.32.54-.27.73.08.35.43.48.73.66,4.78,2.85,8.18,2.85,7.9,2.87Z"/>
          </g>
          <g>
            <path class="cls-9" d="m80.25,66.85c10.28,1.41,24.64-5.79,35.2-9.48,9.77-3.41,21.48-9.47,31.28-12.83,3.93-1.32,7.29-2.45,10.46-3.2,9.07-2.29,16.44-1.98,30.46,2.35-6.91-1.72-14.08-1.59-21.1-.29-6.04,1.1-11.98,3.05-17.59,5.4-12.18,5.14-23.51,12.18-35.75,17.23-12.21,5.06-25.89,8.09-38.69,4.73.35-3.36,2.41-4.39,5.73-3.91Z"/>
            <path class="cls-15" d="m63.29,67.68c-2.16-.28-4.42-.75-6.06-2.18-1.64-1.44-2.35-4.14-.99-5.83,1.19-1.48,3.36-1.64,5.25-1.53,5.34.32,10.61,1.88,15.26,4.52,4.72,2.68,2.75,4.81-1.71,5.25-3.9.38-7.88.28-11.77-.22Z"/>
            <path class="cls-13" d="m70.73,74.23c-3.64.59-7.42-.26-10.71-1.91-1.49-.75-2.94-1.69-3.93-3.04-.99-1.35-1.45-3.16-.87-4.73.5-1.36,1.72-2.36,3.06-2.89s2.82-.64,4.26-.63c4.76,0,11.95,1.06,15.73,4.26,4.48,3.8-3.77,8.33-7.54,8.94Z"/>
            <path class="cls-16" d="m157.4,41.32c3.94-1.21,8.35-1.56,12.45-1.34,3.63.19,7.23.86,10.75,1.73,2.37.58,4.71,1.25,7.04,1.97-6.91-1.72-14.08-1.59-21.1-.29.31-.06.18-.6.08-.78-.17-.32-.53-.36-.87-.46-5.34-1.58-8.63-.76-8.37-.84Z"/>
          </g>
          <g>
            <path class="cls-9" d="m48.93,53.9c10.28,1.41,24.64-5.79,35.2-9.48,9.77-3.41,21.48-9.47,31.28-12.83,3.93-1.32,7.29-2.45,10.46-3.2,9.07-2.29,16.44-1.98,30.46,2.35-6.91-1.72-14.08-1.59-21.1-.29-6.04,1.1-11.98,3.05-17.59,5.4-12.18,5.14-23.51,12.18-35.75,17.23-12.21,5.06-25.89,8.09-38.69,4.73.35-3.36,2.41-4.39,5.73-3.91Z"/>
            <path class="cls-15" d="m39.08,56.28c-1.32-.17-2.7-.46-3.7-1.33-1-.88-1.44-2.52-.6-3.56.73-.9,2.05-1,3.21-.93,3.26.19,6.48,1.14,9.32,2.76,2.88,1.64,1.68,2.94-1.04,3.2-2.38.23-4.81.17-7.18-.14Z"/>
            <path class="cls-13" d="m43.62,60.28c-2.22.36-4.53-.16-6.54-1.16-.91-.46-1.8-1.03-2.4-1.85-.6-.82-.89-1.93-.53-2.89.31-.83,1.05-1.44,1.87-1.76s1.72-.39,2.6-.39c2.9,0,7.29.64,9.6,2.6,2.74,2.32-2.3,5.08-4.6,5.45Z"/>
            <path class="cls-16" d="m126.08,28.38c3.94-1.21,8.35-1.56,12.45-1.34,3.63.19,7.23.86,10.75,1.73,2.37.58,4.71,1.25,7.04,1.97-6.91-1.72-14.08-1.59-21.1-.29.31-.06.18-.6.08-.78-.17-.32-.53-.36-.87-.46-5.34-1.58-8.63-.76-8.37-.84Z"/>
          </g>
          <g>
            <path class="cls-12" d="m109.66,88.74c10.31-1.19,22.42-11.73,31.74-17.93,8.62-5.73,18.45-14.5,27.11-20.2,3.48-2.26,6.46-4.18,9.34-5.7,8.21-4.47,15.43-6,30.09-5.29-7.12.05-14.03,1.96-20.51,4.96-5.57,2.57-10.85,5.93-15.7,9.6-10.52,8-19.75,17.64-30.35,25.58-10.57,7.94-23.07,14.27-36.3,14.19-.49-3.34,1.24-4.85,4.58-5.22Z"/>
            <path class="cls-15" d="m100.71,93.48c-1.32.16-2.73.23-3.91-.37-1.19-.6-2.02-2.09-1.47-3.3.48-1.05,1.74-1.48,2.87-1.7,3.21-.62,6.56-.5,9.71.36,3.2.87,2.35,2.43-.21,3.36-2.25.82-4.62,1.36-6.99,1.65Z"/>
            <path class="cls-13" d="m106.1,96.23c-2.06.9-4.42.97-6.62.5-1-.22-2-.55-2.78-1.2-.79-.65-1.34-1.65-1.23-2.67.09-.88.66-1.66,1.37-2.17s1.57-.8,2.42-1.02c2.81-.72,7.22-1.19,9.95.13,3.23,1.57-.97,5.5-3.1,6.43Z"/>
            <path class="cls-16" d="m178.05,44.84c3.52-2.15,7.7-3.58,11.73-4.39,3.57-.71,7.21-.96,10.85-1,2.44-.03,4.88.04,7.31.16-7.12.05-14.03,1.96-20.51,4.96.28-.13.02-.62-.11-.77-.24-.27-.61-.22-.95-.23-5.56-.21-8.55,1.41-8.31,1.27Z"/>
          </g>
          <g>
            <path class="cls-10" d="m171.15,52.16c-10.35-.8-24.25,7.24-34.58,11.55-9.55,3.98-20.88,10.72-30.46,14.67-3.85,1.56-7.14,2.87-10.25,3.81-8.92,2.82-16.29,2.95-30.54-.54,7,1.31,14.15.75,21.08-.96,5.96-1.46,11.78-3.75,17.24-6.43,11.86-5.85,22.75-13.55,34.67-19.32,11.88-5.78,25.37-9.61,38.34-7.02-.15,3.38-2.14,4.52-5.49,4.25Z"/>
            <path class="cls-15" d="m180.84,49.21c1.33.09,2.72.29,3.77,1.11,1.05.82,1.58,2.43.81,3.52-.67.94-1.99,1.12-3.15,1.12-3.27,0-6.53-.76-9.46-2.2-2.97-1.46-1.85-2.83.85-3.26,2.37-.37,4.79-.46,7.18-.29Z"/>
            <path class="cls-13" d="m176.07,45.49c2.2-.49,4.53-.11,6.6.77.94.4,1.85.92,2.5,1.71.65.79,1,1.88.7,2.85-.26.84-.96,1.5-1.76,1.87s-1.69.49-2.58.54c-2.9.17-7.32-.21-9.74-2.03-2.87-2.15,2-5.21,4.27-5.72Z"/>
            <path class="cls-16" d="m95.65,82.22c-3.86,1.44-8.24,2.05-12.35,2.07-3.64.02-7.27-.43-10.84-1.09-2.4-.44-4.78-.97-7.15-1.55,7,1.31,14.15.75,21.08-.96-.3.08-.14.61-.04.78.19.31.55.33.89.41,5.42,1.26,8.66.24,8.4.34Z"/>
          </g>
          <g>
            <path class="cls-11" d="m191.7,36.5c-10.18,2.03-21.39,13.53-30.16,20.47-8.12,6.42-17.2,15.97-25.36,22.36-3.28,2.54-6.09,4.7-8.84,6.45-7.82,5.13-14.89,7.25-29.55,7.74,7.1-.64,13.83-3.1,20.03-6.63,5.34-3.02,10.32-6.8,14.86-10.86,9.83-8.84,18.23-19.2,28.15-27.98,9.88-8.78,21.82-16.12,35.01-17.13.77,3.29-.84,4.93-4.14,5.57Z"/>
            <path class="cls-15" d="m200.24,31.04c1.3-.27,2.7-.45,3.93.05,1.23.5,2.18,1.92,1.73,3.17-.39,1.09-1.61,1.62-2.73,1.93-3.15.88-6.49,1.04-9.71.44-3.26-.6-2.55-2.23-.06-3.37,2.18-1,4.49-1.74,6.83-2.22Z"/>
            <path class="cls-13" d="m194.64,28.74c1.98-1.07,4.33-1.33,6.56-1.04,1.01.13,2.03.39,2.87.97.84.58,1.47,1.54,1.45,2.56-.02.88-.52,1.7-1.19,2.28s-1.5.93-2.33,1.22c-2.74.95-7.1,1.78-9.93.68-3.34-1.3.51-5.56,2.57-6.66Z"/>
            <path class="cls-16" d="m127.15,85.86c-3.33,2.43-7.38,4.2-11.33,5.34-3.5,1-7.11,1.55-10.73,1.88-2.43.23-4.86.36-7.3.44,7.1-.64,13.83-3.1,20.03-6.63-.27.15.03.62.17.76.26.25.62.17.97.15,5.56-.25,8.4-2.11,8.18-1.95Z"/>
          </g>
          <g>
            <path class="cls-11" d="m176.87,33.53c-10.18,2.03-21.39,13.53-30.16,20.47-8.12,6.42-17.2,15.97-25.36,22.36-3.28,2.54-6.09,4.7-8.84,6.45-7.82,5.13-14.89,7.25-29.55,7.74,7.1-.64,13.83-3.1,20.03-6.63,5.34-3.02,10.32-6.8,14.86-10.86,9.83-8.84,18.23-19.2,28.15-27.98,9.88-8.78,21.82-16.12,35.01-17.13.77,3.29-.84,4.93-4.14,5.57Z"/>
            <path class="cls-15" d="m184.5,27.09c1.85-.38,3.83-.64,5.58.07,1.75.71,3.1,2.72,2.46,4.49-.56,1.55-2.29,2.29-3.87,2.74-4.46,1.25-9.22,1.47-13.78.63-4.62-.86-3.61-3.16-.09-4.78,3.09-1.42,6.37-2.46,9.7-3.15Z"/>
            <path class="cls-13" d="m176.55,23.83c2.81-1.51,6.14-1.89,9.31-1.47,1.44.19,2.89.55,4.08,1.37,1.19.82,2.09,2.18,2.06,3.63-.03,1.25-.74,2.42-1.69,3.23-.95.81-2.13,1.32-3.31,1.73-3.89,1.34-10.08,2.52-14.09.97-4.75-1.84.73-7.89,3.64-9.45Z"/>
            <path class="cls-16" d="m112.32,82.89c-3.33,2.43-7.38,4.2-11.33,5.34-3.5,1-7.11,1.55-10.73,1.88-2.43.23-4.86.36-7.3.44,7.1-.64,13.83-3.1,20.03-6.63-.27.15.03.62.17.76.26.25.62.17.97.15,5.56-.25,8.4-2.11,8.18-1.95Z"/>
          </g>
          <g>
            <path class="cls-12" d="m56.14,41.54c10.25,1.61,24.75-5.3,35.38-8.78,9.84-3.21,21.66-9.04,31.53-12.21,3.96-1.25,7.34-2.3,10.52-2.99,9.11-2.11,16.48-1.65,30.4,2.96-6.88-1.86-14.05-1.87-21.09-.71-6.06.98-12.04,2.81-17.69,5.05-12.28,4.89-23.75,11.71-36.09,16.52-12.3,4.82-26.05,7.58-38.77,3.96.42-3.35,2.49-4.34,5.81-3.8Z"/>
            <path class="cls-15" d="m45.41,44.19c-1.8-.27-3.67-.7-5.01-1.92-1.34-1.22-1.89-3.49-.72-4.88,1.02-1.21,2.83-1.31,4.4-1.19,4.45.35,8.81,1.74,12.65,4.02,3.89,2.31,2.21,4.06-1.51,4.34-3.26.25-6.57.1-9.8-.38Z"/>
            <path class="cls-13" d="m51.5,49.78c-3.04.43-6.18-.34-8.9-1.77-1.23-.65-2.42-1.46-3.23-2.6s-1.16-2.66-.65-3.96c.44-1.12,1.47-1.94,2.6-2.36s2.36-.48,3.56-.46c3.96.08,9.94,1.08,13.04,3.81,3.67,3.24-3.28,6.88-6.43,7.32Z"/>
            <path class="cls-16" d="m133.78,17.55c3.96-1.13,8.38-1.39,12.47-1.09,3.63.27,7.21,1.01,10.72,1.94,2.36.63,4.69,1.35,7,2.11-6.88-1.86-14.05-1.87-21.09-.71.31-.05.19-.59.1-.78-.16-.33-.53-.37-.86-.48-5.3-1.69-8.61-.93-8.35-1Z"/>
          </g>
          <g>
            <path class="cls-12" d="m71.8,53.5c10.25,1.61,24.75-5.3,35.38-8.78,9.84-3.21,21.66-9.04,31.53-12.21,3.96-1.25,7.34-2.3,10.52-2.99,9.11-2.11,16.48-1.65,30.4,2.96-6.88-1.86-14.05-1.87-21.09-.71-6.06.98-12.04,2.81-17.69,5.05-12.28,4.89-23.75,11.71-36.09,16.52-12.3,4.82-26.05,7.58-38.77,3.96.42-3.35,2.49-4.34,5.81-3.8Z"/>
            <path class="cls-15" d="m61.91,55.68c-1.32-.2-2.69-.51-3.67-1.41-.98-.9-1.39-2.55-.53-3.57.74-.89,2.07-.96,3.22-.87,3.26.26,6.45,1.27,9.26,2.94,2.85,1.69,1.62,2.97-1.11,3.18-2.39.19-4.81.08-7.18-.28Z"/>
            <path class="cls-13" d="m66.37,59.77c-2.23.31-4.52-.25-6.52-1.29-.9-.47-1.77-1.07-2.36-1.9s-.85-1.95-.48-2.9c.32-.82,1.08-1.42,1.9-1.72s1.73-.35,2.61-.34c2.9.06,7.28.79,9.55,2.79,2.69,2.37-2.4,5.04-4.71,5.36Z"/>
            <path class="cls-16" d="m149.44,29.52c3.96-1.13,8.38-1.39,12.47-1.09,3.63.27,7.21,1.01,10.72,1.94,2.36.63,4.69,1.35,7,2.11-6.88-1.86-14.05-1.87-21.09-.71.31-.05.19-.59.1-.78-.16-.33-.53-.37-.86-.48-5.3-1.69-8.61-.93-8.35-1Z"/>
          </g>
        </g>
        <g>
          <g>
            <path class="cls-9" d="m109,87.89c10.28,1.41,24.64-5.79,35.2-9.48,9.77-3.41,21.48-9.47,31.28-12.83,3.93-1.32,7.29-2.45,10.46-3.2,9.07-2.29,16.44-1.98,30.46,2.35-6.91-1.72-14.08-1.59-21.1-.29-6.04,1.1-11.98,3.05-17.59,5.4-12.18,5.14-23.51,12.18-35.75,17.23-12.21,5.06-25.89,8.09-38.69,4.73.35-3.36,2.41-4.39,5.73-3.91Z"/>
            <path class="cls-15" d="m92.04,88.72c-2.16-.28-4.42-.75-6.06-2.18-1.64-1.44-2.35-4.14-.99-5.83,1.19-1.48,3.36-1.64,5.25-1.53,5.34.32,10.61,1.88,15.26,4.52,4.72,2.68,2.75,4.81-1.71,5.25-3.9.38-7.88.28-11.77-.22Z"/>
            <path class="cls-13" d="m99.47,95.27c-3.64.59-7.42-.26-10.71-1.91-1.49-.75-2.94-1.69-3.93-3.04-.99-1.35-1.45-3.16-.87-4.73.5-1.36,1.72-2.36,3.06-2.89s2.82-.64,4.26-.63c4.76,0,11.95,1.06,15.73,4.26,4.48,3.8-3.77,8.33-7.54,8.94Z"/>
            <path class="cls-16" d="m186.15,62.36c3.94-1.21,8.35-1.56,12.45-1.34,3.63.19,7.23.86,10.75,1.73,2.37.58,4.71,1.25,7.04,1.97-6.91-1.72-14.08-1.59-21.1-.29.31-.06.18-.6.08-.78-.17-.32-.53-.36-.87-.46-5.34-1.58-8.63-.76-8.37-.84Z"/>
          </g>
          <g>
            <path class="cls-14" d="m171.35,61.46c-9.62-3.89-25.3-.44-36.45.54-10.31.9-23.14,3.9-33.47,4.76-4.14.32-7.67.58-10.92.53-9.35,0-16.42-2.12-28.95-9.77,6.28,3.37,13.26,5,20.38,5.47,6.12.41,12.36-.01,18.38-.91,13.07-1.99,25.78-6.03,38.89-7.92,13.08-1.91,27.08-1.48,38.66,4.92-1.17,3.17-3.41,3.66-6.52,2.39Z"/>
            <path class="cls-15" d="m181.48,61.58c1.24.49,2.5,1.1,3.26,2.2.75,1.1.77,2.8-.29,3.6-.93.7-2.23.47-3.34.12-3.11-.99-6-2.7-8.35-4.96-2.39-2.29-.9-3.26,1.8-2.85,2.37.36,4.7,1.02,6.93,1.9Z"/>
            <path class="cls-13" d="m178.06,56.59c2.24.2,4.35,1.26,6.05,2.74.77.67,1.49,1.44,1.87,2.39.38.95.39,2.09-.19,2.93-.5.73-1.37,1.14-2.25,1.25s-1.76-.05-2.62-.26c-2.81-.72-6.91-2.42-8.67-4.88-2.08-2.92,3.48-4.36,5.8-4.16Z"/>
            <path class="cls-16" d="m90.29,67.25c-4.12.2-8.48-.54-12.4-1.76-3.47-1.08-6.79-2.61-10-4.32-2.15-1.15-4.26-2.37-6.34-3.64,6.28,3.37,13.26,5,20.38,5.47-.31-.02-.32.54-.27.73.08.35.43.48.73.66,4.78,2.85,8.18,2.85,7.9,2.87Z"/>
          </g>
          <g>
            <path class="cls-9" d="m77.68,74.94c10.28,1.41,24.64-5.79,35.2-9.48,9.77-3.41,21.48-9.47,31.28-12.83,3.93-1.32,7.29-2.45,10.46-3.2,9.07-2.29,16.44-1.98,30.46,2.35-6.91-1.72-14.08-1.59-21.1-.29-6.04,1.1-11.98,3.05-17.59,5.4-12.18,5.14-23.51,12.18-35.75,17.23-12.21,5.06-25.89,8.09-38.69,4.73.35-3.36,2.41-4.39,5.73-3.91Z"/>
            <path class="cls-15" d="m67.83,77.32c-1.32-.17-2.7-.46-3.7-1.33-1-.88-1.44-2.52-.6-3.56.73-.9,2.05-1,3.21-.93,3.26.19,6.48,1.14,9.32,2.76,2.88,1.64,1.68,2.94-1.04,3.2-2.38.23-4.81.17-7.18-.14Z"/>
            <path class="cls-13" d="m72.36,81.32c-2.22.36-4.53-.16-6.54-1.16-.91-.46-1.8-1.03-2.4-1.85-.6-.82-.89-1.93-.53-2.89.31-.83,1.05-1.44,1.87-1.76s1.72-.39,2.6-.39c2.9,0,7.29.64,9.6,2.6,2.74,2.32-2.3,5.08-4.6,5.45Z"/>
            <path class="cls-16" d="m154.83,49.42c3.94-1.21,8.35-1.56,12.45-1.34,3.63.19,7.23.86,10.75,1.73,2.37.58,4.71,1.25,7.04,1.97-6.91-1.72-14.08-1.59-21.1-.29.31-.06.18-.6.08-.78-.17-.32-.53-.36-.87-.46-5.34-1.58-8.63-.76-8.37-.84Z"/>
          </g>
          <g>
            <path class="cls-12" d="m87.92,52.97c9.25,4.71,25.17,2.64,36.36,2.64,10.35,0,23.4-1.87,33.76-1.82,4.15.04,7.69.09,10.93.42,9.32.82,16.17,3.54,27.99,12.25-5.96-3.9-12.77-6.14-19.83-7.22-6.06-.94-12.32-1.07-18.39-.69-13.19.84-26.21,3.76-39.43,4.51-13.19.76-27.11-.88-38.09-8.27,1.44-3.06,3.72-3.35,6.7-1.81Z"/>
            <path class="cls-15" d="m76.9,52.16c-1.62-.81-3.27-1.8-4.17-3.38-.89-1.58-.72-3.9.82-4.86,1.34-.84,3.09-.37,4.55.24,4.12,1.72,7.84,4.39,10.77,7.74,2.98,3.41.84,4.54-2.78,3.66-3.18-.77-6.28-1.94-9.2-3.41Z"/>
            <path class="cls-13" d="m80.96,59.36c-3.03-.54-5.77-2.24-7.91-4.44-.97-1-1.85-2.14-2.26-3.47s-.28-2.89.61-3.97c.77-.93,2-1.39,3.2-1.43s2.39.27,3.53.67c3.74,1.31,9.11,4.11,11.22,7.67,2.49,4.22-5.26,5.52-8.39,4.97Z"/>
            <path class="cls-16" d="m169.18,54.26c4.12.16,8.4,1.28,12.2,2.84,3.37,1.38,6.54,3.19,9.59,5.17,2.04,1.33,4.04,2.74,6,4.18-5.96-3.9-12.77-6.14-19.83-7.22.31.05.36-.51.34-.71-.05-.36-.38-.52-.67-.72-4.52-3.25-7.9-3.55-7.63-3.54Z"/>
          </g>
          <g>
            <path class="cls-12" d="m100.55,74.54c10.25,1.61,24.75-5.3,35.38-8.78,9.84-3.21,21.66-9.04,31.53-12.21,3.96-1.25,7.34-2.3,10.52-2.99,9.11-2.11,16.48-1.65,30.4,2.96-6.88-1.86-14.05-1.87-21.09-.71-6.06.98-12.04,2.81-17.69,5.05-12.28,4.89-23.75,11.71-36.09,16.52-12.3,4.82-26.05,7.58-38.77,3.96.42-3.35,2.49-4.34,5.81-3.8Z"/>
            <path class="cls-15" d="m90.66,76.72c-1.32-.2-2.69-.51-3.67-1.41-.98-.9-1.39-2.55-.53-3.57.74-.89,2.07-.96,3.22-.87,3.26.26,6.45,1.27,9.26,2.94,2.85,1.69,1.62,2.97-1.11,3.18-2.39.19-4.81.08-7.18-.28Z"/>
            <path class="cls-13" d="m95.11,80.81c-2.23.31-4.52-.25-6.52-1.29-.9-.47-1.77-1.07-2.36-1.9s-.85-1.95-.48-2.9c.32-.82,1.08-1.42,1.9-1.72s1.73-.35,2.61-.34c2.9.06,7.28.79,9.55,2.79,2.69,2.37-2.4,5.04-4.71,5.36Z"/>
            <path class="cls-16" d="m178.19,50.56c3.96-1.13,8.38-1.39,12.47-1.09,3.63.27,7.21,1.01,10.72,1.94,2.36.63,4.69,1.35,7,2.11-6.88-1.86-14.05-1.87-21.09-.71.31-.05.19-.59.1-.78-.16-.33-.53-.37-.86-.48-5.3-1.69-8.61-.93-8.35-1Z"/>
          </g>
        </g>
      </g>
    </g>
  </g>
</svg>