<svg width="20" height="20" viewBox="0 0 20 20" fill="none" xmlns="http://www.w3.org/2000/svg">
<path fill-rule="evenodd" clip-rule="evenodd" d="M4.65054 2.02539C4.65054 1.52811 4.84809 1.0512 5.19972 0.699565C5.55135 0.347935 6.02826 0.150391 6.52554 0.150391C7.02282 0.150391 7.49974 0.347935 7.85137 0.699565C8.203 1.0512 8.40054 1.52811 8.40054 2.02539V4.86439C8.64059 4.7387 8.90501 4.66651 9.17562 4.65277C9.44623 4.63903 9.71661 4.68407 9.96815 4.78481C10.2197 4.88554 10.4464 5.03956 10.6328 5.23628C10.8191 5.43301 10.9606 5.66776 11.0475 5.92439C11.3316 5.75157 11.6566 5.65744 11.989 5.65167C12.3215 5.6459 12.6495 5.7287 12.9394 5.89157C13.2293 6.05443 13.4707 6.2915 13.6387 6.57845C13.8067 6.86539 13.8954 7.19187 13.8955 7.52439V7.73539C14.0569 7.67903 14.2266 7.6503 14.3975 7.65039H14.7715C15.8075 7.65039 16.6465 8.49039 16.6465 9.52539V13.0854C16.6496 13.1069 16.6513 13.1286 16.6515 13.1504C16.6515 15.2904 15.8415 16.8174 14.5835 17.7954C13.3455 18.7584 11.7255 19.1504 10.1515 19.1504C8.56154 19.1504 7.21654 18.7514 6.06754 18.0074C4.92654 17.2694 4.00454 16.2074 3.22854 14.9174C2.89236 14.4042 2.56629 13.8844 2.25054 13.3584C1.11754 11.4914 2.49054 9.15039 4.65054 9.15039V2.02539ZM4.03254 14.4094C3.69893 13.9016 3.37554 13.3872 3.06254 12.8664C2.32554 11.6504 3.20854 10.1004 4.65054 10.1004H4.70054V11.6504C4.70054 11.7697 4.74795 11.8842 4.83234 11.9686C4.91673 12.053 5.03119 12.1004 5.15054 12.1004C5.26989 12.1004 5.38435 12.053 5.46874 11.9686C5.55313 11.8842 5.60054 11.7697 5.60054 11.6504V2.02539C5.60054 1.78007 5.698 1.54479 5.87147 1.37132C6.04494 1.19785 6.28022 1.10039 6.52554 1.10039C6.77087 1.10039 7.00614 1.19785 7.17962 1.37132C7.35309 1.54479 7.45054 1.78007 7.45054 2.02539L7.44754 9.15039C7.44754 9.26974 7.49495 9.3842 7.57934 9.46859C7.66373 9.55298 7.77819 9.60039 7.89754 9.60039C8.01689 9.60039 8.13135 9.55298 8.21574 9.46859C8.30013 9.3842 8.34754 9.26974 8.34754 9.15039V6.50139C8.36127 6.26335 8.46629 6.03978 8.64073 5.87723C8.81518 5.71468 9.0456 5.62569 9.28402 5.62878C9.52243 5.63187 9.75047 5.72681 9.92064 5.89383C10.0908 6.06085 10.19 6.28707 10.1975 6.52539V8.75039C10.1975 8.86974 10.245 8.9842 10.3293 9.06859C10.4137 9.15298 10.5282 9.20039 10.6475 9.20039C10.7669 9.20039 10.8813 9.15298 10.9657 9.06859C11.0501 8.9842 11.0975 8.86974 11.0975 8.75039V8.21039C11.1003 8.19017 11.1016 8.16979 11.1015 8.14939L11.0995 7.52539C11.0994 7.40405 11.1232 7.28387 11.1695 7.17171C11.2158 7.05956 11.2838 6.95762 11.3695 6.87173C11.4552 6.78584 11.557 6.71767 11.669 6.67111C11.7811 6.62455 11.9012 6.60052 12.0225 6.60039C12.1439 6.60026 12.2641 6.62403 12.3762 6.67034C12.4884 6.71666 12.5903 6.78461 12.6762 6.87032C12.7621 6.95603 12.8303 7.05781 12.8768 7.16987C12.9234 7.28192 12.9474 7.40205 12.9475 7.52339V9.65039C12.9475 9.76974 12.995 9.8842 13.0793 9.96859C13.1637 10.053 13.2782 10.1004 13.3975 10.1004C13.5169 10.1004 13.6313 10.053 13.7157 9.96859C13.8001 9.8842 13.8475 9.76974 13.8475 9.65039V9.15039C13.8475 9.00452 13.9055 8.86463 14.0086 8.76148C14.1118 8.65834 14.2517 8.60039 14.3975 8.60039H14.7715C15.2825 8.60039 15.6965 9.01439 15.6965 9.52539V13.1504C15.6965 13.1704 15.6985 13.1894 15.7005 13.2074L15.7015 13.2144C15.6855 15.0524 14.9945 16.2714 14.0005 17.0444C12.9765 17.8404 11.5845 18.2004 10.1505 18.2004C8.73054 18.2004 7.56754 17.8464 6.58354 17.2104C5.59354 16.5704 4.76354 15.6284 4.03754 14.4184C4.03553 14.4152 4.03385 14.4119 4.03254 14.4084" fill="white"/>
</svg>
