<svg width="30" height="30" viewBox="0 0 30 30" fill="none" xmlns="http://www.w3.org/2000/svg">
<path d="M20.3762 20.264L28.2715 28.2292M1 7.74296L4.80877 8.77451M2.61639 16.9901L5.40524 14.1781M7.68413 1L8.70406 4.84131M16.8475 2.63118L14.0586 5.44323M15.5885 28.2131L9.97668 11.2534C9.90938 11.0509 9.8994 10.8333 9.94787 10.6253C9.99634 10.4174 10.1013 10.2271 10.251 10.076C10.4008 9.92495 10.5893 9.819 10.7954 9.77009C11.0015 9.72118 11.217 9.73125 11.4178 9.79916L28.2237 15.4577C28.4516 15.5349 28.6495 15.6829 28.7889 15.8805C28.9283 16.078 29.0022 16.3151 28.9999 16.5577C28.9977 16.8002 28.9194 17.0359 28.7762 17.2307C28.6331 17.4256 28.4325 17.5698 28.2032 17.6426L20.8156 19.986C20.6406 20.0409 20.4813 20.1377 20.3513 20.2681C20.2213 20.3985 20.1244 20.5586 20.0689 20.7349L17.7513 28.1924C17.6797 28.4246 17.537 28.628 17.3436 28.7731C17.1502 28.9182 16.9161 28.9977 16.6751 29C16.4341 29.0022 16.1986 28.9273 16.0025 28.7859C15.8064 28.6445 15.6599 28.4439 15.584 28.2131H15.5885Z" stroke="#333333" stroke-linecap="round" stroke-linejoin="round"/>
</svg>
