<svg width="24" height="26" viewBox="0 0 24 26" fill="none" xmlns="http://www.w3.org/2000/svg">
<path d="M9.43898 1.60714C9.75755 1.60714 10.0631 1.73414 10.2883 1.96018C10.5136 2.18623 10.6401 2.49282 10.6401 2.8125V12.8571C10.6401 13.0703 10.7245 13.2747 10.8747 13.4254C11.0248 13.5761 11.2285 13.6607 11.4409 13.6607C11.6533 13.6607 11.857 13.5761 12.0071 13.4254C12.1573 13.2747 12.2417 13.0703 12.2417 12.8571V8.78625L12.3794 8.77982C12.8871 8.76054 13.3996 8.76696 13.6862 8.82321C13.9009 8.86661 14.1571 8.9775 14.4037 9.11571C14.5271 9.18321 14.644 9.35196 14.644 9.62036V12.8571C14.644 13.0703 14.7283 13.2747 14.8785 13.4254C15.0287 13.5761 15.2324 13.6607 15.4447 13.6607C15.6571 13.6607 15.8608 13.5761 16.011 13.4254C16.1611 13.2747 16.2455 13.0703 16.2455 12.8571V10.342L16.4153 10.3259C16.9213 10.2873 17.3506 10.3098 17.5491 10.3902C17.7381 10.4641 18.0296 10.7229 18.3275 11.0812C18.4572 11.2355 18.5677 11.3866 18.6478 11.4975V13.6607C18.6478 13.8738 18.7322 14.0782 18.8823 14.2289C19.0325 14.3796 19.2362 14.4643 19.4486 14.4643C19.6609 14.4643 19.8646 14.3796 20.0148 14.2289C20.165 14.0782 20.2493 13.8738 20.2493 13.6607V12.0536H20.7971C21.0209 12.0536 21.2422 12.1006 21.4468 12.1918C21.6514 12.2829 21.8346 12.416 21.9848 12.5826C22.1349 12.7492 22.2486 12.9455 22.3185 13.1589C22.3884 13.3722 22.413 13.5979 22.3906 13.8214L21.9566 18.1848C21.9005 18.7456 21.7275 19.2882 21.4489 19.7775L19.2147 23.7021C19.1447 23.8251 19.0436 23.9274 18.9215 23.9985C18.7994 24.0696 18.6608 24.1071 18.5197 24.1071H8.42682C8.27823 24.1071 8.13257 24.0656 8.00614 23.9873C7.87971 23.909 7.7775 23.7969 7.71093 23.6636L5.73784 19.702L1.71479 12.9761C1.61143 12.8022 1.57491 12.5964 1.61208 12.3974C1.64925 12.1983 1.75756 12.0198 1.91667 11.8953C2.07577 11.7707 2.27471 11.7088 2.47611 11.7211C2.67752 11.7334 2.86752 11.819 3.01043 11.962L6.87013 15.8352C6.98202 15.9478 7.12469 16.0245 7.28006 16.0557C7.43543 16.0868 7.59653 16.0711 7.74296 16.0103C7.88939 15.9496 8.01458 15.8466 8.10267 15.7144C8.19076 15.5823 8.2378 15.4269 8.23783 15.2679V2.8125C8.23783 2.49282 8.36438 2.18623 8.58964 1.96018C8.8149 1.73414 9.12042 1.60714 9.43898 1.60714ZM12.2417 7.1775V2.8125C12.2417 2.06658 11.9464 1.35121 11.4208 0.823762C10.8952 0.296316 10.1823 0 9.43898 0C8.69567 0 7.98279 0.296316 7.45719 0.823762C6.93158 1.35121 6.6363 2.06658 6.6363 2.8125V13.328L4.14271 10.8257C3.72317 10.407 3.16577 10.1564 2.57513 10.1208C1.9845 10.0852 1.40122 10.2671 0.934764 10.6324C0.468308 10.9978 0.150738 11.5213 0.0416515 12.1049C-0.0674352 12.6885 0.03946 13.292 0.342277 13.8021L4.3317 20.4766L6.27756 24.382C6.47716 24.7824 6.78396 25.1192 7.16358 25.3545C7.54319 25.5898 7.98061 25.7144 8.42682 25.7143H18.5197C18.9431 25.7141 19.359 25.6017 19.7252 25.3883C20.0914 25.175 20.3948 24.8683 20.6049 24.4993L22.839 20.5763C23.2296 19.8905 23.4719 19.1299 23.5501 18.3439L23.9841 13.9805C24.0286 13.5337 23.9794 13.0825 23.8395 12.6559C23.6996 12.2293 23.4722 11.8369 23.1719 11.504C22.8716 11.171 22.5052 10.9048 22.0961 10.7227C21.6871 10.5406 21.2446 10.4464 20.7971 10.4464H19.8666C19.7667 10.3103 19.6625 10.1774 19.5543 10.0479C19.2484 9.67982 18.7375 9.135 18.1449 8.89714C17.562 8.6625 16.79 8.685 16.2903 8.72357L16.0789 8.74286C15.9084 8.30486 15.5913 7.94007 15.1821 7.71107C14.814 7.49711 14.4154 7.34101 14.0001 7.24821C13.5037 7.14857 12.8166 7.155 12.3185 7.17429L12.2417 7.1775Z" fill="#DBCEC6"/>
</svg>
