<svg width="23" height="24" viewBox="0 0 23 24" fill="none" xmlns="http://www.w3.org/2000/svg">
<path d="M21.7946 1.29651L22.4254 1.91999C23.2946 2.78018 23.1631 4.30506 22.1293 5.32587L9.12092 18.1833L4.90633 19.7071C4.3771 19.8994 3.86177 19.65 3.75699 19.1523C3.72158 18.9717 3.73826 18.785 3.80511 18.6134L5.37676 14.4117L18.3488 1.58923C19.3826 0.568412 20.9254 0.43632 21.7946 1.29651ZM8.5532 2.57517C8.69361 2.57517 8.83263 2.6025 8.96235 2.65561C9.09206 2.70871 9.20993 2.78655 9.30921 2.88468C9.40849 2.98281 9.48724 3.0993 9.54097 3.22751C9.5947 3.35572 9.62235 3.49314 9.62235 3.63191C9.62235 3.77068 9.5947 3.9081 9.54097 4.03631C9.48724 4.16452 9.40849 4.28101 9.30921 4.37914C9.20993 4.47727 9.09206 4.55511 8.96235 4.60821C8.83263 4.66132 8.69361 4.68865 8.5532 4.68865H4.2766C3.70949 4.68865 3.1656 4.91132 2.76459 5.30768C2.36359 5.70404 2.1383 6.24161 2.1383 6.80214V19.4831C2.1383 20.0436 2.36359 20.5812 2.76459 20.9775C3.1656 21.3739 3.70949 21.5965 4.2766 21.5965H17.1064C17.6735 21.5965 18.2174 21.3739 18.6184 20.9775C19.0194 20.5812 19.2447 20.0436 19.2447 19.4831V15.2561C19.2447 14.9758 19.3573 14.707 19.5579 14.5089C19.7584 14.3107 20.0303 14.1993 20.3139 14.1993C20.5974 14.1993 20.8694 14.3107 21.0699 14.5089C21.2704 14.707 21.383 14.9758 21.383 15.2561V19.4831C21.383 20.6041 20.9324 21.6793 20.1304 22.472C19.3284 23.2647 18.2406 23.71 17.1064 23.71H4.2766C3.14238 23.71 2.05461 23.2647 1.25259 22.472C0.450569 21.6793 0 20.6041 0 19.4831V6.80214C0 5.68108 0.450569 4.60593 1.25259 3.81322C2.05461 3.02051 3.14238 2.57517 4.2766 2.57517H8.5532Z" fill="url(#paint0_linear_1168_21815)"/>
<defs>
<linearGradient id="paint0_linear_1168_21815" x1="-3.23532" y1="-11.2239" x2="52.0513" y2="-5.41451" gradientUnits="userSpaceOnUse">
<stop stop-color="#FAF7F2"/>
<stop offset="0.26" stop-color="#F3EADB"/>
<stop offset="0.79" stop-color="#E2C8A0"/>
<stop offset="1" stop-color="#DCBB88"/>
</linearGradient>
</defs>
</svg>
