<svg width="20" height="20" viewBox="0 0 20 20" fill="none" xmlns="http://www.w3.org/2000/svg">
<path d="M14.1831 0.733219L12.2904 2.6259L17.3741 7.70956L19.2668 5.81687C20.2444 4.83925 20.2444 3.25549 19.2668 2.27787L17.726 0.733219C16.7484 -0.244406 15.1647 -0.244406 14.187 0.733219H14.1831ZM11.4067 3.50968L2.29128 12.629C1.88459 13.0357 1.58739 13.5401 1.42315 14.0915L0.038834 18.7958C-0.0589286 19.1282 0.031013 19.4841 0.273464 19.7265C0.515915 19.969 0.871771 20.0589 1.20025 19.9651L5.90459 18.5808C6.45597 18.4165 6.96043 18.1193 7.36712 17.7126L16.4903 8.59333L11.4067 3.50968Z" fill="black"/>
</svg>
