<svg width="21" height="21" viewBox="0 0 21 21" fill="none" xmlns="http://www.w3.org/2000/svg">
<g clip-path="url(#clip0_1380_31937)">
<path d="M7.46721 1.15827C5.4689 1.8515 3.74556 3.16728 2.55032 4.91233C1.35508 6.65739 0.750946 8.73974 0.826651 10.8535C0.902355 12.9673 1.65391 15.0011 2.97092 16.6562C4.28794 18.3113 6.10099 19.5004 8.14377 20.0489C9.7999 20.4762 11.535 20.495 13.2 20.1036C14.7083 19.7648 16.1028 19.0401 17.2469 18.0005C18.4376 16.8854 19.302 15.4668 19.7469 13.8973C20.2304 12.1905 20.3164 10.3957 19.9985 8.65045H10.6985V12.5083H16.0844C15.9768 13.1236 15.7461 13.7108 15.4062 14.2349C15.0663 14.7589 14.6242 15.2091 14.1063 15.5583C13.4487 15.9935 12.7073 16.2862 11.9297 16.4176C11.1499 16.5627 10.3501 16.5627 9.57033 16.4176C8.77995 16.2544 8.03227 15.9282 7.37502 15.4598C6.319 14.7123 5.52608 13.6503 5.1094 12.4255C4.68579 11.1776 4.68579 9.82486 5.1094 8.57702C5.406 7.70235 5.89632 6.90598 6.54377 6.24733C7.2847 5.47975 8.22273 4.93108 9.25495 4.66151C10.2872 4.39195 11.3737 4.41191 12.3953 4.7192C13.1935 4.96409 13.9233 5.39214 14.5266 5.9692C15.1339 5.36504 15.7401 4.75931 16.3453 4.15202C16.6578 3.82545 16.9985 3.51452 17.3063 3.18014C16.3852 2.32314 15.3042 1.65624 14.125 1.21764C11.9777 0.437939 9.62811 0.416985 7.46721 1.15827Z" fill="white"/>
<path d="M7.46721 1.15707C9.62794 0.415288 11.9775 0.43569 14.125 1.21489C15.3044 1.65647 16.3849 2.32657 17.3047 3.18676C16.9922 3.52114 16.6625 3.83364 16.3438 4.15864C15.7375 4.76384 15.1318 5.36697 14.5266 5.96801C13.9233 5.39095 13.1935 4.96289 12.3953 4.71801C11.374 4.40964 10.2876 4.38852 9.25505 4.65698C8.22256 4.92544 7.28395 5.47311 6.54221 6.23989C5.89476 6.89854 5.40444 7.69491 5.10784 8.56957L1.86877 6.06176C3.02816 3.76264 5.03557 2.00399 7.46721 1.15707Z" fill="#E33629"/>
<path d="M1.00942 8.54688C1.18339 7.68402 1.47243 6.84843 1.86879 6.0625L5.10786 8.57656C4.68425 9.8244 4.68425 11.1772 5.10786 12.425C4.02869 13.2583 2.949 14.0958 1.86879 14.9375C0.876842 12.963 0.574314 10.7133 1.00942 8.54688Z" fill="#F8BD00"/>
<path d="M10.6984 8.64844H19.9984C20.3164 10.3937 20.2303 12.1885 19.7469 13.8953C19.3019 15.4648 18.4376 16.8834 17.2469 17.9984C16.2016 17.1828 15.1516 16.3734 14.1063 15.5578C14.6245 15.2082 15.0668 14.7576 15.4067 14.233C15.7467 13.7084 15.9771 13.1205 16.0844 12.5047H10.6984C10.6969 11.2203 10.6984 9.93437 10.6984 8.64844Z" fill="#587DBD"/>
<path d="M1.86719 14.9383C2.9474 14.1049 4.02708 13.2674 5.10625 12.4258C5.52376 13.6511 6.31782 14.7131 7.375 15.4602C8.0343 15.9264 8.78359 16.2499 9.575 16.4102C10.3548 16.5552 11.1546 16.5552 11.9344 16.4102C12.7119 16.2787 13.4533 15.986 14.1109 15.5508C15.1562 16.3664 16.2063 17.1758 17.2516 17.9914C16.1076 19.0316 14.7132 19.7568 13.2047 20.0961C11.5397 20.4875 9.80457 20.4687 8.14844 20.0414C6.8386 19.6917 5.61512 19.0751 4.55469 18.2305C3.43239 17.3393 2.51568 16.2163 1.86719 14.9383Z" fill="#319F43"/>
</g>
<defs>
<clipPath id="clip0_1380_31937">
<rect width="20" height="20" fill="white" transform="translate(0.5 0.5)"/>
</clipPath>
</defs>
</svg>
