<svg width="169" height="571" viewBox="0 0 169 571" fill="none" xmlns="http://www.w3.org/2000/svg">
<path d="M118.77 61.5149C105.581 62.874 92.4075 63.2228 81.0565 63.0855C80.6849 94.6647 79.2729 162.165 76.5975 179.534C76.4687 180.465 76.3145 181.493 76.1358 182.596H129.929C123.459 152.448 118.77 93.8726 118.77 61.5149Z" fill="#4C8B49"/>
<path d="M3.95088 516.892L3.95088 283.636H17.2371V249.121C15.3809 233.757 31.5128 215.627 39.8108 208.483C41.7616 207.369 42.319 207.647 43.6945 206.812H26.9812C11.9739 218.824 -0.898821 240.144 0.0492593 249.121C0.894122 257.121 -0.229428 446.192 0.0492593 539.716C2.30936 549.559 15.3205 568.979 49.3058 570.013C15.0801 568.948 16.401 548.329 16.401 516.892H3.95088Z" fill="#4E884D"/>
<path d="M56.532 61.9493C54.8554 61.8033 53.39 61.6558 52.1638 61.5149C51.9548 93.9345 50.188 152.466 43.671 182.596H51.6421C51.818 181.611 51.992 180.591 52.1638 179.534C56.4724 153.036 56.8712 90.1032 56.532 61.9493Z" fill="#557954"/>
<path d="M43.671 182.596C41.4965 192.649 38.7932 199.541 35.4425 201.245C32.5984 202.693 29.7534 204.594 26.9812 206.812H43.6945C46.1323 203.834 49.0912 196.883 51.6421 182.596H43.671Z" fill="#366032"/>
<path d="M76.1358 182.596H51.6421C49.0912 196.883 46.1323 203.834 43.6945 206.812H70.2812C73.0159 199.031 75.0377 189.379 76.1358 182.596Z" fill="#588C46"/>
<path d="M136.885 201.245C134.44 199.537 132.085 192.646 129.929 182.596H76.1358C75.0377 189.379 73.0159 199.031 70.2812 206.812H143.204C140.832 204.41 138.656 202.484 136.885 201.245Z" fill="#2F6B1E"/>
<path d="M76.5975 179.534C79.2729 162.165 80.6849 94.6647 81.0565 63.0855C71.0556 62.9645 62.4692 62.4662 56.532 61.9493C56.8712 90.1032 56.4724 153.036 52.1638 179.534C51.992 180.591 51.818 181.611 51.6421 182.596H76.1358C76.3145 181.493 76.4687 180.465 76.5975 179.534Z" fill="#6FA369"/>
<path d="M52.6304 283.636C52.1638 234.926 57.0894 221.008 62.1058 219.616C65.2426 218.456 68.0082 213.281 70.2812 206.812H43.6945C42.319 207.647 41.7616 207.369 39.8108 208.483C31.5128 215.627 15.3809 233.757 17.2371 249.121V283.636H52.6304Z" fill="#6DA469"/>
<path d="M118.77 61.5149C128.58 59.2881 122.857 56.5046 118.77 55.3912C105.248 57.0283 92.1879 57.4744 81.0565 57.3343V63.0855C92.4075 63.2228 105.581 62.874 118.77 61.5149Z" fill="#428238"/>
<path d="M52.1638 55.3912C47.8906 56.0407 41.9081 58.1747 52.1638 61.5149C53.39 61.6558 54.8554 61.8033 56.532 61.9493C62.4692 62.4662 71.0556 62.9645 81.0565 63.0855V57.3343C67.9623 57.1695 57.5364 56.1936 52.1638 55.3912Z" fill="#689D60"/>
<path d="M118.77 48.4325C122.207 46.113 127.019 40.1378 118.77 34.7935C104.991 35.6976 92.0172 35.9559 81.0565 35.8904V49.8951C92.0172 49.9824 104.991 49.638 118.77 48.4325Z" fill="#37530B"/>
<path d="M118.77 31.4533C122.207 29.5049 127.019 24.3833 118.77 19.4843C104.991 20.7903 92.0172 21.1634 81.0565 21.0688V32.4284C92.0172 32.4866 104.991 32.2569 118.77 31.4533Z" fill="#3C5204"/>
<path d="M118.77 13.3607C122.393 11.2267 127.465 5.56696 118.77 0L81.0565 0V14.9472C91.9521 15.0342 104.894 14.6569 118.77 13.3607Z" fill="#3F4F13"/>
<path fill-rule="evenodd" clip-rule="evenodd" d="M118.77 48.4325V55.3912C105.248 57.0283 92.1879 57.4744 81.0565 57.3343V49.8951C92.0172 49.9824 104.991 49.638 118.77 48.4325Z" fill="#467528"/>
<path d="M52.1638 48.4325V55.3912C57.5364 56.1936 67.9623 57.1695 81.0565 57.3343V49.8951C67.7206 49.7889 57.3646 49.0436 52.1638 48.4325Z" fill="#6F9757"/>
<path d="M52.1638 34.7935C48.6337 37.0203 43.6917 42.8656 52.1638 48.4325C57.3646 49.0436 67.7206 49.7889 81.0565 49.8951V35.8904C67.7206 35.8108 57.3646 35.2518 52.1638 34.7935Z" fill="#5C7435"/>
<path d="M52.1638 19.4843C48.6541 21.0549 43.2869 26.2996 52.1638 31.4533C57.3646 31.8607 67.7206 32.3576 81.0565 32.4284V21.0688C67.7206 20.9538 57.3646 20.1464 52.1638 19.4843Z" fill="#657839"/>
<path d="M52.1638 0C48.7224 1.5935 43.2225 7.04521 52.1638 13.3607C57.2937 14.0268 67.6192 14.84 81.0565 14.9472V0L52.1638 0Z" fill="#65753E"/>
<path d="M118.77 19.4843V13.3607C104.894 14.6569 91.9521 15.0342 81.0565 14.9472V21.0688C92.0172 21.1634 104.991 20.7903 118.77 19.4843Z" fill="#4E6114"/>
<path d="M118.77 34.7935V31.4533C104.991 32.2569 92.0172 32.4866 81.0565 32.4284V35.8904C92.0172 35.9559 104.991 35.6976 118.77 34.7935Z" fill="#485D14"/>
<path d="M52.1638 13.3607V19.4843C57.3646 20.1464 67.7206 20.9538 81.0565 21.0688V14.9472C67.6192 14.84 57.2937 14.0268 52.1638 13.3607Z" fill="#6C803E"/>
<path d="M52.1638 31.4533V34.7935C57.3646 35.2518 67.7206 35.8108 81.0565 35.8904V32.4284C67.7206 32.3576 57.3646 31.8607 52.1638 31.4533Z" fill="#657839"/>
<path d="M149.983 300.337H52.1638V501.583H149.983V300.337Z" fill="#F6EFE6"/>
<path d="M52.1638 300.337H19.5574V501.583H52.1638V300.337Z" fill="#FDEFEF"/>
<path d="M165.032 516.892V283.636H52.6304L52.1638 300.337H149.983V501.583H52.1638V516.892H165.032Z" fill="#EDF5DC"/>
<path d="M3.95088 283.636L3.95088 516.892H16.401H52.1638V501.583H19.5574V300.337H52.1638L52.6304 283.636H17.2371H3.95088Z" fill="#E4F7D7"/>
<path d="M165.032 283.636V516.892H52.1638C52.1638 542.723 56.4041 554.562 58.5243 557.252C61.4991 563.376 70.7453 570.056 115.335 570.056C149.983 570.056 168.286 553.355 168.286 539.716C168.286 514.108 167.83 262.374 168.286 249.121C168.659 238.27 153.924 217.672 143.204 206.812H70.2812C68.0082 213.281 65.2426 218.456 62.1058 219.616C57.0894 221.008 52.1638 234.926 52.6304 283.636H165.032Z" fill="#4B8A47"/>
<path d="M52.1638 570.056H115.335C70.7453 570.056 61.4991 563.376 58.5243 557.252C56.4041 554.562 52.1638 542.723 52.1638 516.892H16.401C16.401 548.329 15.0801 568.948 49.3058 570.013C50.2322 570.042 51.1846 570.056 52.1638 570.056Z" fill="#73A36A"/>
<path d="M98.2998 370.549C99.0339 371.74 100.86 374.014 102.292 373.574H109.037C109.221 372.565 110.193 370.549 112.616 370.549C115.736 370.915 120.545 372.639 114.819 376.598C113.717 376.782 111.35 377.038 110.689 376.598C109.863 376.048 110.138 379.211 110.689 379.211H120.6C121.334 378.432 123.078 376.901 124.179 377.011C125.556 377.148 129.41 378.661 128.86 382.235C128.419 385.095 125.556 385.077 124.179 384.71C122.986 384.344 120.6 383.528 120.6 383.198C120.6 382.868 114.451 382.969 111.377 383.06C111.469 386.773 111.184 394.059 109.312 393.509C108.808 393.418 107.578 392.932 106.697 391.722V383.198L96.7855 383.473C96.5561 386.498 95.464 392.327 92.9312 391.447C89.7651 390.347 90.4533 385.123 91.2793 383.748C91.94 382.648 93.1147 381.915 93.6195 381.685C93.8291 380.22 93.9544 377.14 92.9667 375.612C92.8542 375.474 92.75 375.344 92.6559 375.223C92.77 375.337 92.8733 375.468 92.9667 375.612C94.2251 377.157 96.5361 379.66 97.7492 379.761C99.0707 379.871 104.357 379.806 106.834 379.761V376.873H101.466C100.915 377.011 99.5112 375.938 98.2998 370.549Z" fill="black"/>
<path d="M122.252 390.622C123.145 387.948 116.883 385.306 113.58 384.298C114.791 385.948 115.553 387.552 115.782 388.147C116.223 388.807 114.589 388.697 113.717 388.56C115.59 390.87 118.169 392.18 119.224 392.547C121.564 393.097 121.839 391.86 122.252 390.622Z" fill="black"/>
<path d="M98.8504 391.447C98.0795 391.007 100.273 386.773 101.466 384.71C104.081 389.11 103.806 391.447 103.944 391.722C104.081 391.997 103.255 393.235 102.292 393.509C101.521 393.729 100.778 392.41 100.502 391.722C100.273 391.814 99.6213 391.887 98.8504 391.447Z" fill="black"/>
<path d="M93.2065 397.084C94.7483 395.434 97.1527 394.014 98.1621 393.509C97.5656 394.564 96.5378 396.809 97.1985 397.359C98.0245 398.047 99.9517 397.772 100.227 397.359C100.888 395.929 102.429 395.48 103.118 395.434C105.871 395.159 105.491 396.507 105.32 397.359C105.183 398.047 104.678 399.009 104.219 399.422C104.081 401.346 104.219 400.934 104.494 402.721C104.762 404.461 103.026 404.738 102.292 404.646C100.365 404.371 100.227 402.859 100.227 402.721C100.227 402.475 100.319 400.201 100.502 399.009C99.3552 399.376 97.1159 400.109 97.3362 400.109C97.6115 400.109 97.7492 402.446 97.3362 403.271C96.9232 404.096 93.6195 405.334 93.2065 403.271C92.8761 401.621 93.0688 398.459 93.2065 397.084Z" fill="black"/>
<path d="M107.523 401.896C106.091 400.796 106.926 398.688 107.523 397.772C107.523 398.652 107.982 398.78 108.211 398.734C108.624 398.872 112.616 396.534 112.616 394.472C112.616 391.826 113.917 391.722 114.681 391.997C115.048 393.235 116.057 395.462 117.159 394.472C118.26 393.482 119.728 393.693 120.325 393.922C121.426 394.059 121.977 398.047 120.325 398.047C117.79 398.047 117.801 400.201 118.122 401.346C119.361 401.988 122.169 403.464 123.491 404.234C124.812 405.004 124.042 402.63 123.491 401.346C128.116 405.086 127.712 408.496 126.932 409.733C125.17 412.043 122.344 409.229 121.151 407.533C118.508 404.564 116.287 403.638 115.507 403.546C113.414 404.646 111.423 406.846 110.689 407.808C110.689 407.808 107.523 410.421 105.596 407.258C104.038 404.703 107.706 404.6 109.312 405.059C110.643 404.463 113.662 402.501 115.094 399.422C116.526 396.342 114.497 396.58 113.304 397.084C111.974 399.147 108.954 402.996 107.523 401.896Z" fill="black"/>
<path d="M91.2793 411.658C92.0501 409.238 94.7207 407.717 95.9596 407.258C94.9685 409.678 95.5467 410.375 95.9596 410.421C96.6479 411.108 98.8504 410.833 99.6764 408.633C100.784 405.684 102.797 404.967 103.944 405.059C103.393 410.008 105.32 409.321 105.596 410.833C105.996 413.033 105.32 415.645 103.944 416.47C102.567 417.295 101.466 411.658 98.8504 412.483C96.2349 413.308 96.7855 417.02 94.8584 417.708C93.3166 418.257 93.1147 414.454 93.2065 412.483C92.2429 413.216 91.0165 412.483 91.2793 411.658Z" fill="black"/>
<path d="M109.037 411.658C107.715 415.178 110.046 416.791 111.377 417.158C111.691 417.186 112.954 417.732 112.616 416.47C112.081 414.474 111.362 413.186 112.616 411.933C113.871 410.68 119.637 410.146 117.159 411.933C114.888 413.571 114.084 414.165 114.268 414.958C115.094 416.608 117.159 418.257 119.224 418.257C123.663 418.257 123.445 415.462 122.803 414.408C120.463 414.133 116.608 413.198 119.912 411.658C123.216 410.118 120.646 408.542 118.948 407.946C116.195 407.717 110.358 408.138 109.037 411.658Z" fill="black"/>
<path d="M98.2998 370.549C99.0339 371.74 100.86 374.014 102.292 373.574H109.037C109.221 372.565 110.193 370.549 112.616 370.549C115.736 370.915 120.545 372.639 114.819 376.598C113.717 376.782 111.35 377.038 110.689 376.598C109.863 376.048 110.138 379.211 110.689 379.211C111.129 379.211 117.48 379.211 120.6 379.211C121.334 378.432 123.078 376.901 124.179 377.011C125.556 377.148 129.41 378.661 128.86 382.235C128.419 385.095 125.556 385.077 124.179 384.71C122.986 384.344 120.6 383.528 120.6 383.198C120.6 382.868 114.451 382.969 111.377 383.06C111.469 386.773 111.184 394.059 109.312 393.509C108.808 393.418 107.578 392.932 106.697 391.722V383.198L96.7856 383.473C96.5561 386.498 95.464 392.327 92.9312 391.447C89.7651 390.347 90.4533 385.123 91.2793 383.748C91.94 382.648 93.1147 381.915 93.6195 381.685C93.8489 380.081 93.9774 376.543 92.6559 375.223C93.803 376.69 96.4277 379.651 97.7492 379.761C99.0707 379.871 104.357 379.806 106.834 379.761V376.873H101.466C100.915 377.011 99.5112 375.938 98.2998 370.549ZM113.58 384.298C116.883 385.306 123.145 387.948 122.252 390.622C121.839 391.86 121.564 393.097 119.224 392.547C118.169 392.18 115.59 390.87 113.717 388.56C114.589 388.697 116.223 388.807 115.782 388.147C115.553 387.552 114.791 385.948 113.58 384.298ZM101.466 384.71C100.273 386.773 98.0795 391.007 98.8504 391.447C99.6213 391.887 100.273 391.814 100.502 391.722C100.778 392.41 101.521 393.729 102.292 393.509C103.255 393.235 104.081 391.997 103.944 391.722C103.806 391.447 104.081 389.11 101.466 384.71ZM98.1621 393.509C97.1527 394.014 94.7483 395.434 93.2065 397.084C93.0688 398.459 92.8761 401.621 93.2065 403.271C93.6195 405.334 96.9232 404.096 97.3362 403.271C97.7492 402.446 97.6115 400.109 97.3362 400.109C97.1159 400.109 99.3552 399.376 100.502 399.009C100.319 400.201 100.227 402.475 100.227 402.721C100.227 402.859 100.365 404.371 102.292 404.646C103.026 404.738 104.762 404.461 104.494 402.721C104.219 400.934 104.081 401.346 104.219 399.422C104.678 399.009 105.183 398.047 105.32 397.359C105.491 396.507 105.871 395.159 103.118 395.434C102.429 395.48 100.888 395.929 100.227 397.359C99.9517 397.772 98.0245 398.047 97.1985 397.359C96.5378 396.809 97.5656 394.564 98.1621 393.509ZM107.523 397.772C106.926 398.688 106.091 400.796 107.523 401.896C108.954 402.996 111.974 399.147 113.304 397.084C114.497 396.58 116.526 396.342 115.094 399.422C113.662 402.501 110.643 404.463 109.312 405.059C107.706 404.6 104.038 404.703 105.596 407.258C107.523 410.421 110.689 407.808 110.689 407.808C111.423 406.846 113.414 404.646 115.507 403.546C116.287 403.638 118.508 404.564 121.151 407.533C122.344 409.229 125.17 412.043 126.932 409.733C127.712 408.496 128.116 405.086 123.491 401.346C124.042 402.63 124.812 405.004 123.491 404.234C122.169 403.464 119.361 401.988 118.122 401.346C117.801 400.201 117.79 398.047 120.325 398.047C121.977 398.047 121.426 394.059 120.325 393.922C119.728 393.693 118.26 393.482 117.159 394.472C116.057 395.462 115.048 393.235 114.681 391.997C113.917 391.722 112.616 391.826 112.616 394.472C112.616 396.534 108.624 398.872 108.211 398.734C107.982 398.78 107.523 398.652 107.523 397.772ZM95.9596 407.258C94.7207 407.717 92.0501 409.238 91.2793 411.658C91.0165 412.483 92.2429 413.216 93.2065 412.483C93.1147 414.454 93.3166 418.257 94.8584 417.708C96.7855 417.02 96.2349 413.308 98.8504 412.483C101.466 411.658 102.567 417.295 103.944 416.47C105.32 415.645 105.996 413.033 105.596 410.833C105.32 409.321 103.393 410.008 103.944 405.059C102.797 404.967 100.784 405.684 99.6764 408.633C98.8504 410.833 96.6479 411.108 95.9596 410.421C95.5467 410.375 94.9685 409.678 95.9596 407.258ZM111.377 417.158C110.046 416.791 107.715 415.178 109.037 411.658C110.358 408.138 116.195 407.717 118.948 407.946C120.646 408.542 123.216 410.118 119.912 411.658C116.608 413.198 120.463 414.133 122.803 414.408C123.445 415.462 123.663 418.257 119.224 418.257C117.159 418.257 115.094 416.608 114.268 414.958C114.084 414.165 114.888 413.571 117.159 411.933C119.637 410.146 113.871 410.68 112.616 411.933C111.362 413.186 112.081 414.474 112.616 416.47C112.954 417.732 111.691 417.186 111.377 417.158Z" stroke="black" stroke-width="0.701219"/>
<path fill-rule="evenodd" clip-rule="evenodd" d="M73.2462 385.124C66.9691 387.434 59.3429 386.086 56.3145 385.124C55.5109 384.757 54.0279 384.354 54.525 385.674C54.7452 386.994 55.8098 388.424 56.3145 388.974V399.423C55.3509 400.34 55.2133 402.173 56.3145 402.86C57.6345 403.684 59.9394 402.631 60.3065 402.173H61.9585C62.3255 403.639 62.142 404.678 62.0196 405.371C61.9585 405.717 61.9126 405.976 61.9585 406.16C62.0961 406.71 53.4237 406.435 53.0108 406.16C52.6804 405.94 52.8731 394.977 53.0108 389.524C53.332 389.478 53.9193 388.891 53.6991 386.911C53.4788 384.932 49.1105 383.153 46.9539 382.512C46.9539 384.052 48.6975 387.461 49.5694 388.974C49.9364 394.382 50.4504 405.39 49.5694 406.16C48.6884 406.93 44.9808 406.481 43.2372 406.16L39.2451 403.823C40.2087 406.893 42.8242 413.007 45.5773 412.897C48.3305 412.787 51.6801 410.651 53.0108 409.597H59.6183C54.9839 411.751 46.4033 416.224 49.1564 416.884C51.9095 417.544 55.4427 417.159 56.8652 416.884L63.8856 409.597H71.4568C70.2179 410.01 68.1255 411.439 69.6672 413.859C71.209 416.279 74.8982 418.992 76.5501 420.046C78.3121 418.726 78.3855 416.563 78.2019 415.647L73.2462 409.597H75.7241C77.1007 410.559 77.789 410.887 79.3032 410.422C82.1664 409.542 84.5341 407.214 85.3601 406.16C83.7541 405.289 80.1567 403.603 78.6149 403.823C76.753 404.088 76.0475 405.509 75.7535 406.101C75.7432 406.121 75.7334 406.141 75.7241 406.16C75.4488 406.71 67.74 406.847 67.3271 406.16C66.9967 405.61 67.1894 403.273 67.3271 402.173H70.4931C71.0896 402.585 72.6956 403.163 74.3475 402.173C75.9994 401.183 75.0358 398.369 74.3475 397.086C74.2906 396.964 74.2336 396.844 74.1772 396.724C73.2773 394.824 72.5096 393.203 74.3475 390.486C77.1006 386.416 74.7605 385.216 73.2462 385.124ZM69.6672 388.974C66.012 388.614 63.9613 388.597 60.3065 388.974C59.9247 392.716 59.9158 394.849 60.3065 398.735C64.0354 399.113 66.0853 399.124 69.6672 398.735C70.0375 394.886 70.0249 392.75 69.6672 388.974ZM62.6467 389.936C63.8856 389.615 66.4461 389.166 66.7764 389.936V394.061C67.0976 394.336 67.8777 394.721 68.4283 394.061C68.9789 393.401 68.153 396.536 67.74 397.086C67.3271 397.636 64.7116 397.966 63.0597 397.086C62.0961 396.572 62.6467 395.711 63.4727 395.573V391.586C63.6103 391.174 63.6379 390.266 62.6467 389.936Z" fill="black"/>
<path d="M61.9585 402.173H60.3065C59.9394 402.631 57.6345 403.684 56.3145 402.86C55.2133 402.173 55.3509 400.34 56.3145 399.423V388.974C55.8098 388.424 54.7452 386.994 54.525 385.674C54.0279 384.354 55.5109 384.757 56.3145 385.124C59.3429 386.086 66.9691 387.434 73.2462 385.124C74.7605 385.216 77.1006 386.416 74.3475 390.486C72.5096 393.203 73.2773 394.824 74.1772 396.724C74.2336 396.844 74.2906 396.964 74.3475 397.086C75.0358 398.369 75.9994 401.183 74.3475 402.173C72.6956 403.163 71.0896 402.585 70.4931 402.173H67.3271M61.9585 402.173H67.3271M61.9585 402.173C62.3255 403.639 62.142 404.678 62.0196 405.371C61.9585 405.717 61.9126 405.976 61.9585 406.16C62.0961 406.71 53.4237 406.435 53.0108 406.16C52.6804 405.94 52.8731 394.977 53.0108 389.524C53.332 389.478 53.9193 388.891 53.6991 386.911C53.4788 384.932 49.1105 383.153 46.9539 382.512C46.9539 384.052 48.6975 387.461 49.5694 388.974C49.9364 394.382 50.4504 405.39 49.5694 406.16C48.6884 406.93 44.9808 406.481 43.2372 406.16L39.2451 403.823C40.2087 406.893 42.8242 413.007 45.5773 412.897C48.3305 412.787 51.6801 410.651 53.0108 409.597H59.6183C54.9839 411.751 46.4033 416.224 49.1564 416.884C51.9095 417.544 55.4427 417.159 56.8652 416.884L63.8856 409.597H71.4568C70.2179 410.01 68.1255 411.439 69.6672 413.859C71.209 416.279 74.8982 418.992 76.5501 420.046C78.3121 418.726 78.3855 416.563 78.2019 415.647L73.2462 409.597H75.7241C77.1007 410.559 77.789 410.887 79.3032 410.422C82.1664 409.542 84.5341 407.214 85.3601 406.16C83.7541 405.289 80.1567 403.603 78.6149 403.823C76.753 404.088 76.0475 405.509 75.7535 406.101C75.7432 406.121 75.7334 406.141 75.7241 406.16C75.4488 406.71 67.74 406.847 67.3271 406.16C66.9967 405.61 67.1894 403.273 67.3271 402.173M60.3065 388.974C63.9613 388.597 66.012 388.614 69.6672 388.974C70.0249 392.75 70.0375 394.886 69.6672 398.735C66.0853 399.124 64.0354 399.113 60.3065 398.735C59.9158 394.849 59.9247 392.716 60.3065 388.974ZM62.6467 389.936C63.8856 389.615 66.4461 389.166 66.7764 389.936V394.061C67.0976 394.336 67.8777 394.721 68.4283 394.061C68.9789 393.401 68.153 396.536 67.74 397.086C67.3271 397.636 64.7116 397.966 63.0597 397.086C62.0961 396.572 62.6467 395.711 63.4727 395.573V391.586C63.6103 391.174 63.6379 390.266 62.6467 389.936Z" stroke="black" stroke-width="0.701219"/>
<path d="M58.2416 369.313C55.2682 369.203 51.68 370.275 50.2575 370.825C54.9929 371.705 56.085 373.391 56.0391 374.125V379.899C55.5343 380.358 54.635 381.549 55.0755 382.649C55.6261 384.024 57.4156 384.299 58.2416 384.299C58.9023 384.299 59.9852 383.841 60.4441 383.611C65.675 383.566 76.3572 383.501 77.2382 383.611C78.3395 383.749 81.7809 381.549 78.6148 379.899C75.4487 378.249 75.5863 378.387 74.4851 378.249C73.6041 378.139 72.3743 379.303 71.8696 379.899H60.4441C60.3064 377.883 60.1137 373.547 60.4441 372.337C60.8571 370.825 61.9583 369.45 58.2416 369.313Z" fill="black"/>
<path d="M69.9424 372.337C68.0703 375.417 64.2985 376.462 62.6466 376.6C66.1706 379.349 71.7319 377.745 74.0721 376.6C75.6139 371.76 71.9614 371.742 69.9424 372.337Z" fill="black"/>
<path d="M58.2416 369.313C55.2682 369.203 51.68 370.275 50.2575 370.825C54.9929 371.705 56.085 373.391 56.0391 374.125V379.899C55.5343 380.358 54.635 381.549 55.0755 382.649C55.6261 384.024 57.4156 384.299 58.2416 384.299C58.9023 384.299 59.9852 383.841 60.4441 383.611C65.675 383.566 76.3572 383.501 77.2382 383.611C78.3395 383.749 81.7809 381.549 78.6148 379.899C75.4487 378.249 75.5863 378.387 74.4851 378.249C73.6041 378.139 72.3743 379.303 71.8696 379.899H60.4441C60.3064 377.883 60.1137 373.547 60.4441 372.337C60.8571 370.825 61.9583 369.45 58.2416 369.313Z" stroke="black" stroke-width="0.701219"/>
<path d="M69.9424 372.337C68.0703 375.417 64.2985 376.462 62.6466 376.6C66.1706 379.349 71.7319 377.745 74.0721 376.6C75.6139 371.76 71.9614 371.742 69.9424 372.337Z" stroke="black" stroke-width="0.701219"/>
<path d="M149.933 300.338H19.5077V501.583H149.933V300.338Z" stroke="black" stroke-width="5.60976"/>
</svg>
