<svg width="1306" height="806" viewBox="0 0 1306 806" fill="none" xmlns="http://www.w3.org/2000/svg">
<path d="M5.32513 16.4997V50.0363V776.21C5.32513 785.153 1.34211 795.705 21.2578 801H1254.37C1271.1 801 1301 793.859 1301 774.524V26.14L1300.97 25.9685C1299.94 20.5685 1296.97 5.02376 1278.76 5.02383C1247.42 5.02401 1242 5.02396 1219.74 5.0235C1188.92 5.02286 1204.74 47.5957 1156.22 68.8399C1135.71 77.8194 1106.2 81.9783 1076.04 65.9295L1075.95 65.8664C1055.16 51.933 1047.92 47.0731 1038.18 18.6727C1037.1 9.85721 1017.33 4.60277 1005.17 5.0235L28.4599 5.02285C11.0052 5.02285 5.32513 13.49 5.32513 16.4997Z" fill="#073763" stroke="url(#paint0_linear_2347_16857)" stroke-width="10"/>
<defs>
<linearGradient id="paint0_linear_2347_16857" x1="1313.73" y1="-453.265" x2="556.371" y2="2149.04" gradientUnits="userSpaceOnUse">
<stop stop-color="#FEFEFE"/>
<stop offset="0.32" stop-color="#FEEDCA"/>
<stop offset="0.51" stop-color="#FFE5B2"/>
<stop offset="0.87" stop-color="#AB8756"/>
<stop offset="1" stop-color="#8C6434"/>
</linearGradient>
</defs>
</svg>
