<svg width="352" height="934" viewBox="0 0 352 934" fill="none" xmlns="http://www.w3.org/2000/svg">
<path d="M348 20V914C348 922.837 340.837 930 332 930H20C11.1634 930 4 922.837 4 914V20C4 11.1634 11.1634 4 20 4H117.052C121.533 4 125.78 6.01824 129.814 9.4614C133.856 12.9123 137.413 17.5713 140.406 22.2655C145.202 29.787 151.466 34.6817 154.133 36.5676C155.213 37.3311 156.333 37.9041 157.427 38.358C163.602 40.9208 168.997 42.4486 174.652 42.4385C180.323 42.4285 185.871 40.8742 192.381 37.9245C192.697 37.7814 193.112 37.584 193.544 37.3273C195.834 35.9662 203.931 30.4179 210.117 17.0802C213.68 9.39756 220.324 4 227.718 4H332C340.837 4 348 11.1634 348 20Z" fill="#073763" stroke="#C3A988" stroke-width="8"/>
</svg>
