<svg width="132" height="132" viewBox="0 0 132 132" fill="none" xmlns="http://www.w3.org/2000/svg">
<path d="M66 132C29.6093 132 0 102.394 0 65.9932C0 29.5926 29.6093 0 66 0C102.391 0 132 29.6062 132 65.9932C132 102.38 102.391 131.986 66 131.986V132Z" fill="#073763"/>
<path d="M66.0128 5.45898C66.0128 5.45898 34.7934 36.6615 5.45703 65.9948C9.16842 69.7058 65.9991 126.531 65.9991 126.531C99.3743 93.1588 85.8387 106.679 126.541 65.9948C126.541 65.9948 70.5155 9.97495 65.9991 5.45898H66.0128ZM66.0128 13.3722C68.9873 16.3464 70.9931 18.352 74.1178 21.4764H57.9077C65.7126 13.6723 58.2216 21.1626 66.0128 13.3722ZM54.7148 24.6689H77.3107C85.2247 32.5821 83.4508 30.8084 91.2011 38.5579L85.5521 44.2063L66.0128 24.6689L46.4734 44.2063L40.8244 38.5579C48.4246 30.9585 46.719 32.6639 54.7148 24.6689ZM78.7979 78.7787V90.0072L72.4122 96.3923V72.3799H96.4271L90.0413 78.765H78.8116L78.7979 78.7787ZM86.8347 81.9712L81.9908 86.8147V81.9712H86.8347ZM69.2056 69.1874V99.5985L66.0128 102.791L62.8199 99.5985V69.1874H32.4056L29.2127 65.9948L32.4056 62.8022H62.8199V32.3911L66.0128 29.1985L69.2056 32.3911V62.8022H99.6199L102.813 65.9948L99.6199 69.1874H69.2056ZM41.9842 78.7787L35.5984 72.3936H59.6133V96.406L53.2275 90.0209V78.7923H41.9979L41.9842 78.7787ZM50.021 81.9712V86.8147L45.1771 81.9712H50.021ZM53.2139 53.2109V41.9824L59.5997 35.5973V59.6097H35.5848L41.9706 53.2246H53.2003L53.2139 53.2109ZM45.1771 50.0184L50.021 45.175V50.0184H45.1771ZM72.3985 59.6097V35.5973L78.7843 41.9824V53.2109H90.014L96.3998 59.596H72.3849L72.3985 59.6097ZM81.9908 50.0184V45.175L86.8347 50.0184H81.9908ZM21.4897 74.099C18.365 70.9747 16.3592 68.9691 13.3847 65.9948C20.248 59.1322 19.1019 60.2782 21.4897 57.8906V74.1126V74.099ZM24.6826 77.2916V54.6844C37.8089 41.5595 34.1794 45.175 38.5594 40.8091L44.2083 46.4574L24.6826 65.9812L44.222 85.5185L38.5594 91.1669C33.5654 86.1734 29.7039 82.3123 24.6826 77.2916ZM66.0128 118.617C63.0382 115.643 61.0051 113.61 57.9077 110.513H74.1314C71.1296 113.515 69.0146 115.63 66.0264 118.617H66.0128ZM77.3243 107.307H54.7148C49.7754 102.368 46.0777 98.6708 40.8381 93.4317L46.5007 87.7833L66.0264 107.307L85.5521 87.7833L91.2011 93.4317C87.3942 97.2382 89.5091 95.1235 77.3243 107.307ZM107.343 65.9812V77.2779C105.665 78.956 104.341 80.2795 102.663 81.9576L96.2633 88.3427L93.4525 91.1533L87.8035 85.5049L107.343 65.9675L87.8172 46.4438L93.4661 40.7954C95.7175 43.0466 105.187 52.5151 107.343 54.6708V65.9675V65.9812ZM110.536 74.0853V57.877C113.715 61.0559 115.639 62.9796 118.641 65.9812L110.536 74.0853Z" fill="url(#paint0_linear_2347_16853)"/>
<path d="M66 132C29.6093 132 0 102.394 0 65.9932C0 29.5926 29.6093 0 66 0C102.391 0 132 29.6062 132 65.9932C132 102.38 102.391 131.986 66 131.986V132ZM66 5.51194C32.6384 5.49829 5.49886 32.635 5.49886 65.9932C5.49886 99.3513 32.6384 126.488 66 126.488C99.3616 126.488 126.501 99.3513 126.501 65.9932C126.501 32.635 99.3616 5.4983 66 5.4983V5.51194Z" fill="url(#paint1_linear_2347_16853)"/>
<defs>
<linearGradient id="paint0_linear_2347_16853" x1="133.295" y1="-75.9922" x2="-47.8364" y2="306.27" gradientUnits="userSpaceOnUse">
<stop stop-color="#FEFEFE"/>
<stop offset="0.32" stop-color="#FEEDCA"/>
<stop offset="0.51" stop-color="#FFE5B2"/>
<stop offset="0.87" stop-color="#AB8756"/>
<stop offset="1" stop-color="#8C6434"/>
</linearGradient>
<linearGradient id="paint1_linear_2347_16853" x1="133.296" y1="-75.9938" x2="-47.8354" y2="306.268" gradientUnits="userSpaceOnUse">
<stop stop-color="#FEFEFE"/>
<stop offset="0.32" stop-color="#FEEDCA"/>
<stop offset="0.51" stop-color="#FFE5B2"/>
<stop offset="0.87" stop-color="#AB8756"/>
<stop offset="1" stop-color="#8C6434"/>
</linearGradient>
</defs>
</svg>
