<svg width="30" height="30" viewBox="0 0 30 30" fill="none" xmlns="http://www.w3.org/2000/svg">
<g clip-path="url(#clip0_784_6956)">
<path d="M9 15.0016C9 14.7629 9.12643 14.5339 9.35147 14.3652C9.57652 14.1964 9.88174 14.1016 10.2 14.1016H19.8C20.1183 14.1016 20.4235 14.1964 20.6485 14.3652C20.8736 14.5339 21 14.7629 21 15.0016C21 15.2403 20.8736 15.4692 20.6485 15.638C20.4235 15.8067 20.1183 15.9016 19.8 15.9016H10.2C9.88174 15.9016 9.57652 15.8067 9.35147 15.638C9.12643 15.4692 9 15.2403 9 15.0016Z" fill="#333333"/>
<path d="M26.25 1.875C26.7473 1.875 27.2242 2.07254 27.5758 2.42417C27.9275 2.77581 28.125 3.25272 28.125 3.75V26.25C28.125 26.7473 27.9275 27.2242 27.5758 27.5758C27.2242 27.9275 26.7473 28.125 26.25 28.125H3.75C3.25272 28.125 2.77581 27.9275 2.42417 27.5758C2.07254 27.2242 1.875 26.7473 1.875 26.25V3.75C1.875 3.25272 2.07254 2.77581 2.42417 2.42417C2.77581 2.07254 3.25272 1.875 3.75 1.875H26.25ZM3.75 0C2.75544 0 1.80161 0.395088 1.09835 1.09835C0.395088 1.80161 0 2.75544 0 3.75L0 26.25C0 27.2446 0.395088 28.1984 1.09835 28.9016C1.80161 29.6049 2.75544 30 3.75 30H26.25C27.2446 30 28.1984 29.6049 28.9016 28.9016C29.6049 28.1984 30 27.2446 30 26.25V3.75C30 2.75544 29.6049 1.80161 28.9016 1.09835C28.1984 0.395088 27.2446 0 26.25 0L3.75 0Z" fill="#333333"/>
</g>
<defs>
<clipPath id="clip0_784_6956">
<rect width="30" height="30" fill="white"/>
</clipPath>
</defs>
</svg>
