<svg width="270" height="97" viewBox="0 0 270 97" fill="none" xmlns="http://www.w3.org/2000/svg">
<path d="M182.64 34.6547C178.485 -18.2678 105.075 3.99819 105.075 25.9417C43.6686 16.5834 63.5217 52.0803 53.3643 47.8853C45.2383 44.5292 35.2041 52.0803 31.2027 56.2754C3.13128 54.7265 0.422642 69.8288 2.57724 77.5736C9.34885 71.6574 25.0159 62.923 33.5112 75.3147C42.0064 87.7064 61.9827 82.6292 70.9089 78.5417C89.0075 95.8384 115.078 89.4064 127.698 83.3827C130.468 76.9287 153.322 105.004 184.487 90.4821C235.736 66.6023 199.262 80.8006 238.044 82.0914C269.071 83.124 270.056 68.3229 266.67 60.7932C254.481 74.2175 234.812 64.0202 226.502 57.2435C230.195 34.0092 199.415 32.2882 182.64 34.6547Z" fill="#CEE7C6" stroke="#A9D49B" stroke-width="3"/>
<path d="M127.237 19.1641C136.009 20.1322 137.394 20.4549 143.396 24.65C149.399 28.8451 147.227 36.8534 140.313 40.9867C133.626 44.9843 119.389 43.3658 119.389 43.3658C114.107 43.2619 103.591 38.2344 103.229 26.2627" stroke="#A9D49B" stroke-width="4"/>
<path d="M157.247 62.4058C157.247 62.4058 155.632 66.9726 157.247 69.5051C159.487 73.0195 163.767 74.3351 169.251 74.6683C174.888 75.0109 179.035 73.8448 182.64 70.7959C185.955 67.9922 185.456 66.0428 185.41 62.4058C185.367 58.8908 183.102 55.9518 180.793 53.0475C178.485 50.1431 170.636 47.8843 170.636 47.8843C170.636 47.8843 165.28 46.3353 154.938 46.5935C144.596 46.8516 136.47 53.0475 136.47 53.0475C136.47 53.0475 127.236 60.1466 125.851 64.3418C124.466 68.537 122.916 72.0945 125.851 76.2817C128.913 80.65 140.164 83.7038 140.164 83.7038C140.164 83.7038 151.058 87.6353 158.632 87.8989C167.587 88.2105 180.793 83.7038 180.793 83.7038L191.874 77.2498C191.874 77.2498 201.762 72.5653 208.957 72.4093C215.967 72.2573 226.04 76.2817 226.04 76.2817L240.353 80.7995" stroke="#A9D49B" stroke-width="4"/>
<path d="M53.3653 79.1854C46.4398 80.3686 36.7441 77.2492 36.7441 77.2492L44.1313 80.4761C44.1313 80.4761 47.7289 81.3948 50.1334 81.4442C52.8904 81.5009 54.3838 80.9454 57.0589 80.4761C61.8706 79.632 69.0632 77.5718 69.0632 77.5718L71.8334 76.281C71.8334 76.281 74.0528 78.23 75.0653 79.1854C78.5855 82.5073 79.2206 82.4123 83.3759 84.3485C87.8187 86.4187 91.888 87.5132 97.2269 87.5755C101.408 87.6243 106.923 88.5436 110.154 87.5755C113.879 86.4599 117.542 85.78 119.85 84.9939C123.047 83.9053 127.699 80.7988 127.699 80.7988L123.082 77.2492C123.082 77.2492 117.685 78.3245 114.31 79.1854C111.196 79.9797 112.952 81.4443 106.461 81.4443H89.8397L77.8355 77.2492C77.8355 77.2492 72.9767 74.1154 69.0632 73.6995C62.885 73.0429 54.7504 78.7014 54.7504 78.7014C54.7504 78.7014 60.2908 78.0022 53.3653 79.1854Z" fill="#A9D49B" stroke="#A9D49B" stroke-width="3"/>
<path d="M152.168 90.1578C146.627 88.5443 130.93 80.7995 130.93 80.7995L160.479 88.5443L173.868 86.9308L183.564 83.3811L192.798 77.8952L202.493 74.0228L209.88 73.0547L220.5 75.3136L242.661 80.7995H238.095C238.095 80.7995 228.445 80.5573 223.27 78.5406C221.128 77.7059 219.576 77.2498 218.191 75.959C217.217 75.0516 215.636 75.126 214.036 75.3136C211.49 75.612 209.813 77 207.572 77.8952C201.108 80.4768 196.488 83.4704 189.104 86.2854C184.025 88.2216 180.797 89.8351 177.1 91.1259C172.712 92.6577 170.174 92.5838 166.019 92.7394C160.08 92.9617 157.658 91.7565 152.168 90.1578Z" fill="#A9D49B" stroke="#A9D49B" stroke-width="3"/>
<path d="M51.5176 48.1455C51.5176 48.1455 51.5176 57.2453 62.5109 63.1369C73.5042 69.0285 82.6119 65.9582 84.8961 65.6355C87.1803 65.3128 95.8262 61.981 97.6876 58.2134C99.549 54.4457 99.5933 54.4148 99.0581 50.1459C98.5229 45.877 89.0076 43.4608 82.6119 43.7731C76.2161 44.0854 75.3024 48.1455 75.3024 48.1455" stroke="#A9D49B" stroke-width="3"/>
</svg>
