<svg width="165" height="58" viewBox="0 0 165 58" fill="none" xmlns="http://www.w3.org/2000/svg">
<path d="M101.347 39.8648C99.5016 41.3214 96.37 42.9964 93.1413 43.7975L92.9714 43.5548C95.3747 42.0739 98.0451 39.2336 99.0404 37.51L102.609 39.4278C102.463 39.7434 102.099 39.9134 101.347 39.8648ZM106.712 38.2869C116.325 38.4811 115.961 44.2588 112.829 43.4577C111.445 41.7583 108.605 39.6463 106.542 38.5053L106.712 38.2869ZM106.663 33.5773C106.615 33.9172 106.42 34.1599 105.765 34.257V43.8218C105.765 44.0403 104.454 44.5744 103.264 44.5744H102.73V33.2374L106.663 33.5773ZM112.635 34.0386C112.635 34.0386 114.407 35.4466 115.451 36.4176C115.402 36.6846 115.135 36.806 114.796 36.806H93.6754L93.4812 36.1263H111.081L112.635 34.0386ZM114.941 22.119C114.917 22.4832 114.674 22.6774 114.116 22.7745V31.6595C114.116 33.4802 113.703 34.427 110.644 34.6697C110.572 33.9172 110.45 33.3346 110.11 32.9704C109.77 32.6305 109.285 32.3392 108.168 32.1693V31.8294C108.168 31.8294 110.474 31.9751 110.936 31.9751C111.276 31.9751 111.397 31.878 111.397 31.5867V21.8034L114.941 22.119ZM100.521 28.5522C107.076 29.062 105.255 33.7472 102.755 32.2664C102.39 31.0041 101.25 29.5718 100.327 28.7221L100.521 28.5522ZM104.745 24.1825C104.478 24.401 103.944 24.3767 103.289 24.1097C100.837 24.4981 96.9769 24.8379 93.7482 24.9108L93.6754 24.5709C96.5885 23.8912 100.376 22.6288 102.342 21.7549L104.745 24.1825ZM100.278 27.3626C98.9919 30.2272 96.4671 32.4363 93.1171 33.9657L92.8986 33.6259C94.9863 31.9265 96.4914 29.4504 97.2683 26.9742H100.278V27.3626ZM100.837 34.2813C100.837 34.4512 99.9872 35.0096 98.652 35.0096H98.1665V24.0126L100.837 23.3571V34.2813ZM103.167 25.3235C103.167 25.3235 104.624 26.4159 105.546 27.217C105.474 27.484 105.207 27.6054 104.891 27.6054H93.3841L93.1899 26.9014H101.905L103.167 25.3235ZM109.819 23.5028C109.795 23.7941 109.6 24.0126 109.018 24.1097V30.3486C109.018 30.5428 107.877 30.9555 106.906 30.9555H106.445V23.1872L109.819 23.5028ZM135.552 22.289C135.503 22.5317 135.357 22.7259 134.896 22.7745V28.0424C134.896 28.2366 133.585 28.6736 132.566 28.6736H132.032V21.9734L135.552 22.289ZM125.064 22.2647C125.016 22.5074 124.87 22.7017 124.409 22.7745V27.9938C124.409 28.188 123.122 28.6493 122.103 28.6493H121.569V21.9734L125.064 22.2647ZM136.28 31.878C136.28 31.878 138.028 33.3346 139.047 34.3299C138.999 34.5969 138.732 34.7183 138.368 34.7183H130.089L129.895 34.0143H134.726L136.28 31.878ZM127.298 30.1301C127.176 30.4214 126.836 30.6156 126.278 30.5428C123.802 34.0871 120.598 36.3933 117.296 37.8013L117.077 37.5343C119.408 35.6165 122.054 32.2179 123.632 28.5279L127.298 30.1301ZM125.259 33.723C125.186 33.9657 124.967 34.1114 124.506 34.1842V43.8218C124.482 44.016 123.292 44.5501 122.175 44.5501H121.641V33.6501L122.418 32.6791L125.259 33.723ZM132.396 29.2319C132.347 29.5475 132.129 29.7903 131.57 29.8631V40.4717C131.57 40.9572 131.764 41.1029 132.566 41.1029H134.799C135.624 41.1029 136.304 41.1029 136.668 41.0786C136.984 41.0543 137.178 40.9815 137.348 40.7387C137.615 40.2775 138.028 38.9666 138.465 37.4615H138.732L138.829 40.8601C139.606 41.2 139.824 41.5156 139.824 42.0254C139.824 43.2634 138.707 43.7732 134.532 43.7732H131.983C129.434 43.7732 128.754 43.2634 128.754 41.2V28.892L132.396 29.2319ZM137.712 22.9687C137.712 22.9687 139.29 24.2796 140.188 25.1778C140.14 25.4448 139.897 25.5662 139.557 25.5662H129.434L129.24 24.8865H136.328L137.712 22.9687ZM126.472 22.9687C126.472 22.9687 128.05 24.2796 128.948 25.1778C128.9 25.4448 128.633 25.5662 128.293 25.5662H117.442L117.247 24.8865H125.089L126.472 22.9687ZM158.978 23.5999L160.192 22.3375L162.449 24.1582C162.279 24.3281 161.964 24.4738 161.551 24.5224V28.3094C161.551 28.5765 161.6 28.6493 161.794 28.6493H162.061C162.158 28.6493 162.255 28.6493 162.352 28.6493C162.449 28.6736 162.668 28.6493 162.765 28.625C162.911 28.625 163.105 28.5765 163.25 28.5279H163.469L163.59 28.5765C164.149 28.8435 164.319 29.0377 164.319 29.5232C164.319 30.4457 163.566 30.9555 161.745 30.9555H160.944C159.366 30.9555 159.221 30.4457 159.221 29.0134V23.5999H158.978ZM154.73 23.3571V22.5803L157.4 23.5999H157.012V25.5177C157.012 27.3384 156.696 30.2515 153.807 31.9994L153.564 31.7323C154.705 29.7903 154.73 27.4355 154.73 25.5177V23.3571ZM160.313 23.5999V24.3039H155.846V23.5999H160.313ZM155.409 32.8733C156.647 38.0198 160.167 40.6174 164.586 42.0254L164.561 42.2681C163.469 42.4623 162.644 43.2634 162.255 44.5258C158.201 42.341 155.992 39.1608 155.045 33.0432L155.409 32.8733ZM159.682 32.8733L161.114 31.4653L163.566 33.6016C163.396 33.8443 163.153 33.9172 162.619 33.9657C161.138 38.918 158.128 42.7537 151.598 44.5744L151.428 44.2588C156.55 41.9283 159.051 37.8499 159.949 32.8733H159.682ZM160.604 32.8733V33.5773H154.147L153.929 32.8733H160.604ZM149.51 39.8648C149.389 40.1076 149.17 40.2289 148.588 40.1804C147.568 41.637 145.893 43.312 143.878 44.3559L143.635 44.0646C144.995 42.5352 146.063 40.0833 146.5 38.384L149.51 39.8648ZM150.044 38.4811C155.725 39.9862 153.346 44.2345 151.258 42.4381C151.21 41.1272 150.53 39.5978 149.802 38.6267L150.044 38.4811ZM150.336 23.5028L151.549 22.2404L154.074 24.1097C153.929 24.3039 153.589 24.4738 153.152 24.5709V28.2123C153.127 28.3822 151.889 28.9163 151.015 28.9163H150.578V23.5028H150.336ZM152.108 29.3533C152.084 29.596 151.938 29.766 151.574 29.8145V37.5343H149.607V29.0862L152.108 29.3533ZM149.049 29.3533C149 29.596 148.855 29.766 148.491 29.8145V37.5343H146.549V29.0862L149.049 29.3533ZM153.03 35.6893C153.03 35.6893 154.196 36.7817 154.851 37.5343C154.778 37.8013 154.56 37.9227 154.22 37.9227H145.141L144.946 37.243H152.011L153.03 35.6893ZM152.326 30.9312C152.326 30.9312 153.394 31.9508 154.001 32.6305C153.953 32.8976 153.734 33.019 153.394 33.019H145.238L145.043 32.3392H151.404L152.326 30.9312ZM142.907 23.26V22.4346L145.82 23.5028H145.408V29.7903C145.408 34.1357 145.311 40.2775 141.621 44.4044L141.305 44.2345C142.907 39.8891 142.907 34.427 142.907 29.7903V23.26ZM151.574 27.3626V28.0667H144.242V27.3626H151.574ZM151.574 23.5028V24.2068H144.242V23.5028H151.574Z" fill="#FFF4EB"/>
<path d="M14.769 22.2559H12V49.3141H14.769V22.2559Z" fill="url(#paint0_linear_1729_2958)"/>
<path d="M27.2899 22.5449H18.4219V49.3643H27.2899V22.5449Z" fill="#FFF4EB"/>
<path d="M66.4556 49.3125H69.2246V22.2543H66.4556V49.3125Z" fill="url(#paint1_linear_1729_2958)"/>
<path d="M54.0264 49.3633H62.8945V22.5439H54.0264V49.3633Z" fill="#FFF4EB"/>
<path d="M81.2807 16.4729L80.9428 11.5234L79.0278 13.0309C76.1483 15.2976 72.014 14.9946 69.4962 12.3321L68.7315 11.5234H12.5627L11.7979 12.3321C9.28017 14.9946 5.14586 15.2976 2.26632 13.0309L0.351368 11.5234L0.0134633 16.4729C-0.210762 19.7571 2.39443 22.5444 5.68818 22.5444H75.6059C78.8997 22.5444 81.5049 19.7571 81.2807 16.4729Z" fill="#CB4847"/>
<path d="M78.8228 21.4062C78.1224 21.979 77.2309 22.2336 76.0847 22.2336H5.23756C4.09133 22.2336 3.19985 21.979 2.49936 21.4062C2.49936 21.4062 1.98781 24.1135 5.81068 24.1135H75.5116C79.3345 24.1135 78.8228 21.4062 78.8228 21.4062Z" fill="#FFF4EB"/>
<path d="M65.844 6.61719H15.4706L12.5605 11.524H68.7541L65.844 6.61719Z" fill="#FFF4EB"/>
<path d="M69.3977 0.732422C68.1948 1.71611 66.6637 2.15329 64.6951 2.15329H16.6207C14.6521 2.15329 13.1211 1.71611 11.9181 0.732422C11.9181 0.732422 11.0395 5.38183 17.605 5.38183H63.7109C70.2764 5.38183 69.3977 0.732422 69.3977 0.732422Z" fill="#CB4847"/>
<path d="M40.6477 32.4192C35.6327 32.4192 31.5527 28.3417 31.5527 23.3298C31.5527 18.3178 35.6327 14.2402 40.6477 14.2402C45.6625 14.2402 49.7427 18.3178 49.7427 23.3298C49.7427 28.3417 45.6625 32.4192 40.6477 32.4192Z" fill="url(#paint2_linear_1729_2958)"/>
<path d="M40.6482 14.7037C45.4163 14.7037 49.2816 18.5667 49.2816 23.332C49.2816 28.0972 45.4163 31.9603 40.6482 31.9603C35.8801 31.9603 32.0148 28.0972 32.0148 23.332C32.0148 18.5667 35.8801 14.7037 40.6482 14.7037ZM40.6482 13.7812C35.3788 13.7812 31.0918 18.0657 31.0918 23.332C31.0918 28.5983 35.3788 32.8827 40.6482 32.8827C45.9176 32.8827 50.2046 28.5983 50.2046 23.332C50.2046 18.0657 45.9176 13.7812 40.6482 13.7812Z" fill="#FFF4EB"/>
<path d="M48.2331 24.1893C48.7074 20.0029 45.6968 16.2247 41.5079 15.7504C37.3191 15.276 33.5386 18.2853 33.0643 22.4717C32.7083 25.6113 34.9665 28.4448 38.1082 28.8006C45.1506 28.8006 48.2331 24.1893 48.2331 24.1893Z" fill="#CB4847"/>
<path d="M33.0629 22.4738C32.8255 24.5669 34.3309 26.4558 36.4253 26.6929C38.5196 26.9302 40.4099 25.4256 40.6473 23.3325C40.8847 21.2392 42.7746 19.7347 44.8693 19.9719C46.9635 20.209 48.4691 22.0981 48.2317 24.1914C47.757 28.3775 43.9767 31.3867 39.7879 30.9123C35.5991 30.4382 32.5882 26.6601 33.0629 22.4738Z" fill="#073763"/>
<path d="M41.3142 24.2071C41.2284 24.3965 40.7146 24.5333 40.8566 24.0243V23.9296L40.6231 23.3969L40.3485 23.7757C40.3728 23.8081 40.3912 23.8448 40.4004 23.8855C40.4185 23.9588 40.499 24.1797 40.1655 24.2492C40.0262 24.2782 39.7079 23.9651 40.074 23.7757C40.1415 23.7538 40.1816 23.754 40.257 23.7757L40.5316 23.3969H39.8909C39.7994 23.5863 39.4333 23.7757 39.3418 23.3969C39.3418 23.2075 39.5248 22.8476 39.8909 23.3022H40.5316L40.257 22.9234C39.9824 22.9234 39.7994 22.6393 39.9824 22.4498C40.2065 22.2995 40.5316 22.3551 40.4004 22.8649L40.6231 23.2075L40.8977 22.8287C40.7146 22.6393 40.8061 22.2604 41.1722 22.3551C41.4468 22.4498 41.3553 22.9234 41.0252 22.8649L40.7146 23.3022L41.3142 23.2075C41.4026 23.0705 41.5383 22.9234 41.7214 23.1128C41.7958 23.2526 41.7527 23.6985 41.3374 23.3667L40.7146 23.3969L40.9892 23.8704C40.9892 23.8704 41.4279 23.8757 41.3142 24.2071Z" fill="#EEB985"/>
<path fill-rule="evenodd" clip-rule="evenodd" d="M38.0195 18.8157C38.9347 19.2892 39.5754 20.8045 39.5754 21.1833C39.2703 20.5204 38.3673 19.1567 37.1958 19.0051C36.5246 19.0051 35.2738 19.4408 35.6399 21.1833C34.8161 21.8462 34.1755 23.0773 35.6399 24.2138C36.0975 23.8349 37.2689 23.172 38.294 23.5508C37.3663 23.6552 36.372 24.0243 35.7517 24.9714C35.3505 25.8459 35.5441 26.0195 36.0497 26.473C36.1464 26.5598 36.2545 26.6567 36.372 26.7707C36.25 28.0334 36.7747 30.1421 39.8499 28.4753C39.5753 27.5599 39.2275 25.6722 40.0329 25.4449C39.6974 26.455 39.6302 28.6458 42.0464 29.3277C42.2295 29.3277 42.7054 29.1572 43.1447 28.4753C43.9074 28.6647 45.3413 28.3238 44.9752 25.4449C44.304 25.4764 42.8152 25.3123 42.2295 24.4032C42.5225 24.7402 43.6433 25.0068 44.1515 24.9714C44.8331 24.9121 46.1528 24.473 46.5311 23.7402C46.6531 23.4877 46.8605 22.7553 46.7141 21.8462C46.6226 21.6884 46.2382 21.3348 45.4328 21.1833C45.4633 20.5835 45.1765 19.4408 43.7854 19.6681C43.5108 20.331 42.7786 21.6947 42.0464 21.8462C42.7481 21.0886 43.8952 19.2514 42.8701 17.9634C42.4735 17.4899 41.4241 16.827 40.399 17.9634C39.9719 17.3952 38.8981 16.7702 38.0195 18.8157ZM40.8566 24.0243C40.7146 24.5333 41.2284 24.3965 41.3142 24.2071C41.4279 23.8757 40.9892 23.8704 40.9892 23.8704L40.7146 23.3969L41.3374 23.3667C41.7527 23.6985 41.7958 23.2526 41.7214 23.1128C41.5383 22.9234 41.4026 23.0705 41.3142 23.2075L40.7146 23.3022L41.0252 22.8649C41.3553 22.9234 41.4468 22.4498 41.1722 22.3551C40.8061 22.2604 40.7146 22.6393 40.8977 22.8287L40.6231 23.2075L40.4004 22.8649C40.5316 22.3551 40.2065 22.2995 39.9824 22.4498C39.7994 22.6393 39.9824 22.9234 40.257 22.9234L40.5316 23.3022H39.8909C39.5248 22.8476 39.3418 23.2075 39.3418 23.3969C39.4333 23.7757 39.7994 23.5863 39.8909 23.3969H40.5316L40.257 23.7757C40.1816 23.754 40.1415 23.7538 40.074 23.7757C39.7079 23.9651 40.0262 24.2782 40.1655 24.2492C40.499 24.1797 40.4185 23.9588 40.4004 23.8855C40.3912 23.8448 40.3728 23.8081 40.3485 23.7757L40.6231 23.3969L40.8566 23.9296V24.0243Z" fill="#F6F1ED"/>
<path d="M40.8566 24.0243C40.7146 24.5333 41.2284 24.3965 41.3142 24.2071C41.4279 23.8757 40.9892 23.8704 40.9892 23.8704L40.7146 23.3969L41.3374 23.3667C41.7527 23.6985 41.7958 23.2526 41.7214 23.1128C41.5383 22.9234 41.4026 23.0705 41.3142 23.2075L40.7146 23.3022L41.0252 22.8649C41.3553 22.9234 41.4468 22.4498 41.1722 22.3551C40.8061 22.2604 40.7146 22.6393 40.8977 22.8287L40.6231 23.2075L40.4004 22.8649C40.5316 22.3551 40.2065 22.2995 39.9824 22.4498C39.7994 22.6393 39.9824 22.9234 40.257 22.9234L40.5316 23.3022H39.8909C39.5248 22.8476 39.3418 23.2075 39.3418 23.3969C39.4333 23.7757 39.7994 23.5863 39.8909 23.3969H40.5316L40.257 23.7757C40.1816 23.754 40.1415 23.7538 40.074 23.7757C39.7079 23.9651 40.0262 24.2782 40.1655 24.2492C40.499 24.1797 40.4185 23.9588 40.4004 23.8855C40.3912 23.8448 40.3728 23.8081 40.3485 23.7757L40.6231 23.3969L40.8566 23.9296M40.8566 24.0243C40.8566 24.0243 40.8566 24.0054 40.8566 23.9296M40.8566 24.0243V23.9296M38.0195 18.8157C38.9347 19.2892 39.5754 20.8045 39.5754 21.1833C39.2703 20.5204 38.3673 19.1567 37.1958 19.0051C36.5246 19.0051 35.2738 19.4408 35.6399 21.1833C34.8161 21.8462 34.1755 23.0773 35.6399 24.2138C36.0975 23.8349 37.2689 23.172 38.294 23.5508C37.3663 23.6552 36.372 24.0243 35.7517 24.9714C35.3505 25.8459 35.5441 26.0195 36.0497 26.473C36.1464 26.5598 36.2545 26.6567 36.372 26.7707C36.25 28.0334 36.7747 30.1421 39.8499 28.4753C39.5753 27.5599 39.2275 25.6722 40.0329 25.4449C39.6973 26.455 39.6302 28.6458 42.0464 29.3277C42.2295 29.3277 42.7054 29.1572 43.1447 28.4753C43.9074 28.6647 45.3413 28.3238 44.9752 25.4449C44.304 25.4764 42.8152 25.3123 42.2295 24.4032C42.5225 24.7402 43.6433 25.0068 44.1515 24.9714C44.8331 24.9121 46.1528 24.473 46.5311 23.7402C46.6531 23.4877 46.8605 22.7553 46.7141 21.8462C46.6226 21.6884 46.2382 21.3348 45.4328 21.1833C45.4633 20.5835 45.1765 19.4408 43.7854 19.6681C43.5108 20.331 42.7786 21.6947 42.0464 21.8462C42.7481 21.0886 43.8952 19.2514 42.8701 17.9634C42.4735 17.4899 41.4241 16.827 40.399 17.9634C39.9719 17.3952 38.8981 16.7702 38.0195 18.8157Z" stroke="#FFF4EB" stroke-width="0.0192424"/>
<path d="M79.2704 48.9961C81.6604 49.189 81.1815 50.9254 81.1815 52.1312C81.1815 53.337 79.2704 53.3007 79.2704 53.3007L1.84375 51.89V49.2373L79.2704 48.9961Z" fill="#C3A988"/>
<path d="M3.796 57.9121C1.40598 57.7054 1.88492 55.845 1.88492 54.5531C1.88492 53.2612 3.796 53.3 3.796 53.3L81.2227 54.8115V57.6537L3.796 57.9121Z" fill="#C3A988"/>
<defs>
<linearGradient id="paint0_linear_1729_2958" x1="14.8753" y1="11.4324" x2="-2.08635" y2="14.4591" gradientUnits="userSpaceOnUse">
<stop stop-color="#FCFDEF"/>
<stop offset="0.12" stop-color="#FBFBEC"/>
<stop offset="0.2" stop-color="#F8F6E3"/>
<stop offset="0.26" stop-color="#F2ECD5"/>
<stop offset="0.32" stop-color="#EBDFC0"/>
<stop offset="0.37" stop-color="#E2CFA5"/>
<stop offset="0.42" stop-color="#D6BA85"/>
<stop offset="0.44" stop-color="#D2B277"/>
<stop offset="0.57" stop-color="#BB995D"/>
<stop offset="0.72" stop-color="#A98649"/>
<stop offset="0.86" stop-color="#9E7A3D"/>
<stop offset="1" stop-color="#9B7739"/>
</linearGradient>
<linearGradient id="paint1_linear_1729_2958" x1="66.3493" y1="60.1359" x2="83.311" y2="57.1092" gradientUnits="userSpaceOnUse">
<stop stop-color="#FCFDEF"/>
<stop offset="0.12" stop-color="#FBFBEC"/>
<stop offset="0.2" stop-color="#F8F6E3"/>
<stop offset="0.26" stop-color="#F2ECD5"/>
<stop offset="0.32" stop-color="#EBDFC0"/>
<stop offset="0.37" stop-color="#E2CFA5"/>
<stop offset="0.42" stop-color="#D6BA85"/>
<stop offset="0.44" stop-color="#D2B277"/>
<stop offset="0.57" stop-color="#BB995D"/>
<stop offset="0.72" stop-color="#A98649"/>
<stop offset="0.86" stop-color="#9E7A3D"/>
<stop offset="1" stop-color="#9B7739"/>
</linearGradient>
<linearGradient id="paint2_linear_1729_2958" x1="50.441" y1="6.96854" x2="22.0128" y2="56.57" gradientUnits="userSpaceOnUse">
<stop stop-color="#FCFDEF"/>
<stop offset="0.12" stop-color="#FBFBEC"/>
<stop offset="0.2" stop-color="#F8F6E3"/>
<stop offset="0.26" stop-color="#F2ECD5"/>
<stop offset="0.32" stop-color="#EBDFC0"/>
<stop offset="0.37" stop-color="#E2CFA5"/>
<stop offset="0.42" stop-color="#D6BA85"/>
<stop offset="0.44" stop-color="#D2B277"/>
<stop offset="0.57" stop-color="#BB995D"/>
<stop offset="0.72" stop-color="#A98649"/>
<stop offset="0.86" stop-color="#9E7A3D"/>
<stop offset="1" stop-color="#9B7739"/>
</linearGradient>
</defs>
</svg>
