<svg width="23" height="23" viewBox="0 0 23 23" fill="none" xmlns="http://www.w3.org/2000/svg">
<g clip-path="url(#clip0_4053_16790)">
<path fill-rule="evenodd" clip-rule="evenodd" d="M22.6381 9.31673C22.7235 9.37009 22.7975 9.43975 22.856 9.52172C22.9145 9.60369 22.9562 9.69637 22.9788 9.79447C23.0015 9.89258 23.0046 9.99418 22.9879 10.0935C22.9713 10.1928 22.9353 10.2878 22.8819 10.3732C22.2165 11.442 21.4156 12.4202 20.4991 13.2835L22.3407 15.125C22.4803 15.2696 22.5576 15.4633 22.5559 15.6643C22.5541 15.8653 22.4735 16.0576 22.3313 16.1997C22.1892 16.3419 21.9969 16.4225 21.7959 16.4242C21.5949 16.426 21.4012 16.3487 21.2566 16.2091L19.32 14.2725C18.0895 15.1956 16.7049 15.8928 15.2306 16.3317L15.9191 18.9031C15.9677 19.0983 15.9377 19.3047 15.8356 19.4779C15.7334 19.6512 15.5673 19.7773 15.373 19.8292C15.1787 19.8811 14.9718 19.8546 14.7969 19.7554C14.6219 19.6561 14.493 19.4921 14.4379 19.2987L13.7356 16.6783C12.2549 16.9312 10.742 16.9312 9.26133 16.6783L8.55907 19.3003C8.53289 19.3975 8.48781 19.4887 8.42641 19.5685C8.36501 19.6483 8.28848 19.7153 8.2012 19.7656C8.11392 19.8158 8.01759 19.8484 7.91772 19.8614C7.81785 19.8745 7.71639 19.8677 7.61913 19.8415C7.52188 19.8154 7.43073 19.7703 7.35089 19.7089C7.27106 19.6475 7.2041 19.5709 7.15383 19.4837C7.10357 19.3964 7.071 19.3001 7.05796 19.2002C7.04493 19.1003 7.05169 18.9989 7.07787 18.9016L7.76787 16.3317C6.29304 15.893 4.90787 15.1957 3.67693 14.2725L1.74033 16.2091C1.59574 16.3487 1.40208 16.426 1.20106 16.4242C1.00004 16.4225 0.807754 16.3419 0.665607 16.1997C0.523461 16.0576 0.442832 15.8653 0.441085 15.6643C0.439338 15.4633 0.516614 15.2696 0.656268 15.125L2.49627 13.2835C1.58091 12.42 0.781038 11.4418 0.116535 10.3732C0.0631744 10.2878 0.0271527 10.1928 0.0105263 10.0935C-0.00610008 9.99418 -0.00300546 9.89258 0.0196335 9.79447C0.0653548 9.59635 0.187909 9.4245 0.360335 9.31673C0.532761 9.20897 0.740935 9.17411 0.939061 9.21983C1.13719 9.26555 1.30904 9.38811 1.4168 9.56053C2.14817 10.7391 3.06457 11.7922 4.1308 12.6793C6.19825 14.4026 8.80702 15.3419 11.4985 15.332C15.8041 15.332 19.4043 13.0427 21.5817 9.56053C21.635 9.47516 21.7047 9.40113 21.7867 9.34267C21.8686 9.28421 21.9613 9.24247 22.0594 9.21983C22.1575 9.19719 22.2591 9.1941 22.3584 9.21072C22.4577 9.22735 22.5528 9.26337 22.6381 9.31673Z" fill="black"/>
</g>
<defs>
<clipPath id="clip0_4053_16790">
<rect width="23" height="23" fill="white"/>
</clipPath>
</defs>
</svg>
