<svg width="17" height="18" viewBox="0 0 17 18" fill="none" xmlns="http://www.w3.org/2000/svg">
<path fill-rule="evenodd" clip-rule="evenodd" d="M15.4091 1.86837H15.4061C14.8022 1.81476 14.197 1.77641 13.5911 1.75337C12.1311 1.69537 10.3981 1.70337 9.11114 1.89537C9.03047 1.91102 8.95691 1.95201 8.90114 2.01237L1.14714 9.76637C1.05341 9.86013 1.00075 9.98728 1.00075 10.1199C1.00075 10.2524 1.05341 10.3796 1.14714 10.4734L6.80414 16.1304C6.89791 16.2241 7.02506 16.2768 7.15764 16.2768C7.29023 16.2768 7.41738 16.2241 7.51114 16.1304L15.2651 8.37637C15.3255 8.3206 15.3665 8.24704 15.3821 8.16637C15.5741 6.87937 15.5821 5.14637 15.5241 3.68637C15.5013 3.08048 15.463 2.47528 15.4091 1.87137V1.86837ZM16.2931 0.984366C16.2011 0.887366 11.7261 0.495366 8.96314 0.907366C8.66914 0.951366 8.40314 1.09737 8.19314 1.30737L0.439144 9.06037C0.157938 9.34166 -3.62396e-05 9.72312 -3.62396e-05 10.1209C-3.62396e-05 10.5186 0.157938 10.9001 0.439144 11.1814L6.09614 16.8384C6.37744 17.1196 6.7589 17.2775 7.15664 17.2775C7.55439 17.2775 7.93585 17.1196 8.21714 16.8384L15.9731 9.08337C16.1856 8.87626 16.3259 8.6063 16.3731 8.31337C16.7841 5.55037 16.3931 1.07537 16.2951 0.983366" fill="black"/>
</svg>
